<svg width="48" height="48" viewBox="0 0 48 48" fill="none" xmlns="http://www.w3.org/2000/svg">
<path d="M28.9297 18.75C28.9297 20.0832 28.3821 21.7365 27.4794 23.0548C26.5685 24.3853 25.3875 25.25 24.1797 25.25C22.9719 25.25 21.7909 24.3853 20.8799 23.0548C19.9773 21.7365 19.4297 20.0832 19.4297 18.75C19.4297 16.1266 21.5563 14 24.1797 14C26.803 14 28.9297 16.1266 28.9297 18.75Z" stroke="white"/>
<path d="M23.798 31.323L24.1797 31.7741L24.5614 31.323L27.8658 27.4178C28.0229 27.2321 28.2538 27.125 28.497 27.125C31.1522 27.125 33.3047 29.2775 33.3047 31.9327V37C33.3047 37.2761 33.0808 37.5 32.8047 37.5H15.5547C15.2785 37.5 15.0547 37.2761 15.0547 37V31.9327C15.0547 29.2775 17.2071 27.125 19.8623 27.125C20.1056 27.125 20.3365 27.2321 20.4936 27.4178L23.798 31.323Z" stroke="white"/>
<path d="M40.7573 20.2888C40.7573 21.3221 40.3313 22.6133 39.6252 23.6445C38.9108 24.6879 38.0014 25.3405 37.0935 25.3405C36.1856 25.3405 35.2762 24.6879 34.5618 23.6445C33.8557 22.6133 33.4297 21.3221 33.4297 20.2888C33.4297 18.2653 35.07 16.625 37.0935 16.625C39.1169 16.625 40.7573 18.2653 40.7573 20.2888Z" stroke="white"/>
<path d="M36.2188 30.004L39.0787 26.9057C39.2973 26.6689 39.605 26.5342 39.9273 26.5342V26.5342C42.4783 26.5342 44.5463 28.6022 44.5463 31.1533V34.3747C44.5463 34.927 44.0986 35.3747 43.5463 35.3747H36.2188" stroke="white"/>
<path d="M7.6021 20.2888C7.6021 21.3221 8.0281 22.6133 8.73421 23.6445C9.44859 24.6879 10.358 25.3405 11.2659 25.3405C12.1738 25.3405 13.0832 24.6879 13.7976 23.6445C14.5037 22.6133 14.9297 21.3221 14.9297 20.2888C14.9297 18.2653 13.2894 16.625 11.2659 16.625C9.24244 16.625 7.6021 18.2653 7.6021 20.2888Z" stroke="white"/>
<path d="M12.1406 30.004L9.28064 26.9057C9.06204 26.6689 8.75441 26.5342 8.43211 26.5342V26.5342C5.88107 26.5342 3.81304 28.6022 3.81304 31.1533V34.3747C3.81304 34.927 4.26075 35.3747 4.81304 35.3747H12.1406" stroke="white"/>
<circle cx="31.375" cy="12.1875" r="6.5625" fill="#12D6A7"/>
<path d="M28.3125 11.5731L30.8294 14.09L34.9194 10" stroke="black"/>
</svg>
