<svg width="54" height="54" viewBox="0 0 54 54" fill="none" xmlns="http://www.w3.org/2000/svg">
<path d="M32.4495 21.4076C32.4495 22.8692 31.8463 24.6994 30.845 26.1618C29.8313 27.6423 28.5471 28.5589 27.2736 28.5589C26.0001 28.5589 24.7159 27.6423 23.7022 26.1618C22.7009 24.6994 22.0977 22.8692 22.0977 21.4076C22.0977 18.549 24.415 16.2317 27.2736 16.2317C30.1322 16.2317 32.4495 18.549 32.4495 21.4076Z" stroke="white" stroke-width="1.5"/>
<path d="M26.7018 35.7191L27.2744 36.3958L27.8469 35.7191L31.5767 31.3111C31.7188 31.1432 31.9276 31.0464 32.1475 31.0464C35.0421 31.0464 37.3885 33.3929 37.3885 36.2874V42.1359C37.3885 42.274 37.2766 42.3859 37.1385 42.3859H17.4102C17.2721 42.3859 17.1602 42.274 17.1602 42.1359V36.2874C17.1602 33.3929 19.5066 31.0464 22.4012 31.0464C22.6211 31.0464 22.8299 31.1432 22.972 31.3111L26.7018 35.7191Z" stroke="white" stroke-width="1.5"/>
<path d="M45.8001 23.1445C45.8001 24.2675 45.3342 25.689 44.5547 26.8274C43.7629 27.9838 42.7852 28.6609 41.8503 28.6609C40.9153 28.6609 39.9376 27.9838 39.1458 26.8274C38.3664 25.689 37.9004 24.2675 37.9004 23.1445C37.9004 20.963 39.6688 19.1946 41.8503 19.1946C44.0317 19.1946 45.8001 20.963 45.8001 23.1445Z" stroke="white" stroke-width="1.5"/>
<path d="M40.8633 34.1107L44.0915 30.6134C44.3382 30.3461 44.6855 30.1941 45.0493 30.1941V30.1941C47.9287 30.1941 50.263 32.5284 50.263 35.4079V39.1728C50.263 39.7251 49.8153 40.1728 49.263 40.1728H40.8633" stroke="white" stroke-width="1.5"/>
<path d="M8.74674 23.1445C8.74674 24.2675 9.21272 25.689 9.99214 26.8274C10.784 27.9838 11.7616 28.6609 12.6966 28.6609C13.6316 28.6609 14.6092 27.9838 15.4011 26.8274C16.1805 25.689 16.6465 24.2675 16.6465 23.1445C16.6465 20.963 14.8781 19.1946 12.6966 19.1946C10.5152 19.1946 8.74674 20.963 8.74674 23.1445Z" stroke="white" stroke-width="1.5"/>
<path d="M13.6836 34.1107L10.4554 30.6134C10.2086 30.3461 9.86141 30.1941 9.49762 30.1941V30.1941C6.61814 30.1941 4.28385 32.5284 4.28385 35.4079V39.1728C4.28385 39.7251 4.73156 40.1728 5.28385 40.1728H13.6836" stroke="white" stroke-width="1.5"/>
<ellipse cx="35.3957" cy="14.0002" rx="7.40741" ry="7.40741" fill="#12D6A7"/>
<path d="M31.334 14.0002H39.334" stroke="black" stroke-width="2"/>
<path d="M35.334 18.0002V10.0002" stroke="black" stroke-width="2"/>
</svg>
