<svg width="62" height="62" viewBox="0 0 62 62" fill="none" xmlns="http://www.w3.org/2000/svg">
<path d="M36.2994 24.1114C36.2994 26.1051 35.4841 28.5557 34.1486 30.5062C32.8048 32.4688 31.0259 33.8006 29.1575 33.8006C27.2892 33.8006 25.5102 32.4688 24.1664 30.5062C22.8309 28.5557 22.0156 26.1051 22.0156 24.1114C22.0156 20.167 25.2132 16.9695 29.1575 16.9695C33.1019 16.9695 36.2994 20.167 36.2994 24.1114Z" stroke="white"/>
<path d="M28.773 42.2657L29.1547 42.7168L29.5364 42.2657L34.3673 36.5564C34.6259 36.2508 35.006 36.0745 35.4065 36.0745H35.7197C39.5554 36.0745 42.6648 39.1839 42.6648 43.0196V50.8911C42.6648 51.3002 42.3331 51.6319 41.924 51.6319H16.3854C15.9762 51.6319 15.6445 51.3002 15.6445 50.8911V43.0196C15.6445 39.1839 18.754 36.0745 22.5897 36.0745H22.9029C23.3033 36.0745 23.6834 36.2508 23.9421 36.5564L28.773 42.2657Z" stroke="white"/>
<circle cx="42.8494" cy="17.6174" r="11.0095" fill="#12D6A7"/>
<path d="M35.5742 16.481V15.0055L37.0497 13.8705H38.2414V21.8154H36.9362V15.4595L35.5742 16.481Z" fill="black"/>
<path d="M39.4908 19.6589C39.4908 18.9704 39.7556 18.4218 40.2852 18.0132C40.5122 17.8543 40.7771 17.7332 41.0797 17.65V17.5819C40.8452 17.4911 40.6371 17.3663 40.4555 17.2074C40.0393 16.8517 39.8313 16.3826 39.8313 15.8C39.8313 15.2022 40.0847 14.6953 40.5917 14.2791C41.1062 13.8554 41.7985 13.6436 42.6687 13.6436C43.5388 13.6436 44.2274 13.8554 44.7343 14.2791C45.2488 14.6953 45.5061 15.2022 45.5061 15.8C45.5061 16.3675 45.298 16.8366 44.8819 17.2074C44.6851 17.3663 44.4771 17.4911 44.2576 17.5819V17.65C44.5452 17.7257 44.81 17.8505 45.0521 18.0245C45.5818 18.4331 45.8466 18.9779 45.8466 19.6589C45.8466 20.3172 45.5591 20.8809 44.984 21.35C44.4165 21.8116 43.6448 22.0423 42.6687 22.0423C41.6926 22.0423 40.917 21.8116 40.342 21.35C39.7745 20.8809 39.4908 20.3172 39.4908 19.6589ZM41.1932 15.9135C41.1932 16.2464 41.3218 16.5188 41.5791 16.7307C41.8364 16.9425 42.1996 17.0485 42.6687 17.0485C43.1378 17.0485 43.501 16.9425 43.7583 16.7307C44.0155 16.5188 44.1441 16.2464 44.1441 15.9135C44.1441 15.6108 44.0117 15.3574 43.7469 15.1531C43.4896 14.9412 43.1302 14.8353 42.6687 14.8353C42.2071 14.8353 41.8439 14.9412 41.5791 15.1531C41.3218 15.3574 41.1932 15.6108 41.1932 15.9135ZM41.3294 18.6261C41.0116 18.8758 40.8527 19.1822 40.8527 19.5454C40.8527 19.9086 41.0116 20.2188 41.3294 20.4761C41.6548 20.7258 42.1012 20.8506 42.6687 20.8506C43.2362 20.8506 43.6788 20.7258 43.9966 20.4761C44.322 20.2188 44.4846 19.9086 44.4846 19.5454C44.4846 19.1822 44.322 18.8758 43.9966 18.6261C43.6788 18.3688 43.2362 18.2402 42.6687 18.2402C42.1012 18.2402 41.6548 18.3688 41.3294 18.6261Z" fill="black"/>
<path d="M46.9776 18.8644V17.7862H48.7368V16.027H49.815V17.7862H51.5742V18.8644H49.815V20.6236H48.7368V18.8644H46.9776Z" fill="black"/>
<path fill-rule="evenodd" clip-rule="evenodd" d="M35.457 16.7096V14.9493L37.0079 13.7563H38.3528V21.9297H36.819V15.6881L35.457 16.7096ZM36.9333 15.4595V21.8154H38.2385V13.8706H37.0468L35.5713 15.0055V16.481L36.9333 15.4595ZM40.2168 17.9196C40.4025 17.7896 40.6112 17.6844 40.8422 17.6035C40.6729 17.5196 40.518 17.4164 40.3778 17.2938C39.9348 16.915 39.7141 16.4134 39.7141 15.8C39.7141 15.1645 39.9857 14.6264 40.5161 14.1909C41.0567 13.7458 41.7773 13.5293 42.6658 13.5293C43.5537 13.5293 44.2708 13.7456 44.804 14.1909C45.3416 14.626 45.6175 15.1641 45.6175 15.8C45.6175 16.3994 45.396 16.8998 44.955 17.2927L44.9509 17.2964C44.8023 17.4164 44.6468 17.5181 44.4848 17.6013C44.7094 17.6807 44.9199 17.7909 45.1159 17.9318L45.1191 17.934C45.6774 18.3647 45.958 18.9433 45.958 19.6589C45.958 20.3562 45.6512 20.9509 45.0534 21.4386C44.4596 21.9215 43.6593 22.1567 42.6658 22.1567C41.6721 22.1567 40.8686 21.9216 40.2675 21.4392L40.2663 21.4381C39.676 20.9502 39.3736 20.3556 39.3736 19.6589C39.3736 18.9362 39.6539 18.3537 40.2125 17.9227L40.2168 17.9196ZM44.3343 17.6724C44.3184 17.6676 44.3025 17.663 44.2865 17.6586C44.2759 17.6557 44.2653 17.6528 44.2547 17.65V17.5819C44.2615 17.5792 44.2682 17.5763 44.2749 17.5735C44.292 17.5662 44.3091 17.5587 44.3261 17.551C44.5194 17.4635 44.7037 17.349 44.879 17.2074C45.2951 16.8366 45.5032 16.3675 45.5032 15.8C45.5032 15.2023 45.2459 14.6953 44.7314 14.2792C44.2245 13.8554 43.5359 13.6436 42.6658 13.6436C41.7956 13.6436 41.1033 13.8554 40.5888 14.2792C40.0818 14.6953 39.8283 15.2023 39.8283 15.8C39.8283 16.3826 40.0364 16.8518 40.4526 17.2074C40.615 17.3495 40.7986 17.4644 41.0034 17.552C41.0207 17.5594 41.0382 17.5667 41.0558 17.5737C41.0628 17.5765 41.0698 17.5792 41.0768 17.5819V17.65C41.0669 17.6528 41.0571 17.6555 41.0472 17.6583C41.0303 17.6631 41.0136 17.6681 40.9969 17.6732C40.7273 17.7551 40.4891 17.8685 40.2823 18.0132C39.7527 18.4218 39.4879 18.9704 39.4879 19.6589C39.4879 20.3172 39.7716 20.8809 40.3391 21.35C40.9141 21.8116 41.6897 22.0424 42.6658 22.0424C43.6419 22.0424 44.4136 21.8116 44.9811 21.35C45.5562 20.8809 45.8437 20.3172 45.8437 19.6589C45.8437 18.978 45.5789 18.4332 45.0492 18.0246C44.8296 17.8667 44.5913 17.7493 44.3343 17.6724ZM43.6713 15.2413C43.4412 15.0518 43.1109 14.9496 42.6658 14.9496C42.2209 14.9496 41.8859 15.0517 41.6476 15.2423C41.415 15.4271 41.3046 15.649 41.3046 15.9135C41.3046 16.2123 41.4179 16.4523 41.6489 16.6425C41.8787 16.8318 42.2125 16.9342 42.6658 16.9342C43.119 16.9342 43.4528 16.8318 43.6827 16.6425C43.9136 16.4523 44.027 16.2123 44.027 15.9135C44.027 15.6504 43.9144 15.4288 43.6742 15.2436L43.6713 15.2413ZM41.3971 18.716C41.1034 18.9468 40.9641 19.2216 40.9641 19.5454C40.9641 19.8691 41.1033 20.1479 41.3973 20.3864C41.6962 20.6152 42.1147 20.7364 42.6658 20.7364C43.2177 20.7364 43.6321 20.6149 43.923 20.3863C44.2252 20.1473 44.3674 19.8684 44.3674 19.5454C44.3674 19.2227 44.2254 18.948 43.9241 18.7168L43.9218 18.715C43.6309 18.4795 43.2171 18.3545 42.6658 18.3545C42.1146 18.3545 41.696 18.4797 41.3971 18.716ZM43.9937 20.4761C43.6759 20.7258 43.2333 20.8507 42.6658 20.8507C42.0983 20.8507 41.6519 20.7258 41.3265 20.4761C41.0087 20.2189 40.8498 19.9086 40.8498 19.5454C40.8498 19.1822 41.0087 18.8758 41.3265 18.6261C41.6519 18.3688 42.0983 18.2402 42.6658 18.2402C43.2333 18.2402 43.6759 18.3688 43.9937 18.6261C44.3191 18.8758 44.4817 19.1822 44.4817 19.5454C44.4817 19.9086 44.3191 20.2189 43.9937 20.4761ZM46.8604 18.9787V17.6719H48.6196V15.9127H49.9264V17.6719H51.6856V18.9787H49.9264V20.7379H48.6196V18.9787H46.8604ZM48.7339 18.8645V20.6237H49.8121V18.8645H51.5713V17.7862H49.8121V16.027H48.7339V17.7862H46.9747V18.8645H48.7339ZM41.5762 15.1531C41.3189 15.3574 41.1903 15.6109 41.1903 15.9135C41.1903 16.2465 41.3189 16.5188 41.5762 16.7307C41.8335 16.9426 42.1967 17.0485 42.6658 17.0485C43.1349 17.0485 43.4981 16.9426 43.7554 16.7307C44.0126 16.5188 44.1412 16.2465 44.1412 15.9135C44.1412 15.6109 44.0088 15.3574 43.744 15.1531C43.4867 14.9412 43.1273 14.8353 42.6658 14.8353C42.2042 14.8353 41.841 14.9412 41.5762 15.1531Z" fill="black"/>
</svg>
