<svg width="90" height="62" viewBox="0 0 90 62" fill="none" xmlns="http://www.w3.org/2000/svg">
<g clip-path="url(#clip0_3622_21868)">
<g opacity="0.7">
<path d="M88.2228 42.8276L88.0658 42.8085C88.1692 41.7747 87.7518 40.6913 86.8292 39.5886C82.1966 34.0678 65.5421 28.7881 46.3265 26.7475C27.1145 24.7068 9.75184 26.3762 4.10466 30.8058C2.97523 31.6903 2.35117 32.6665 2.24397 33.7002L2.09082 33.6849L2.72637 27.4596C2.83357 26.4144 3.44232 25.4305 4.53729 24.5423C10.1079 20.0207 27.5549 18.3054 46.9811 20.3691C58.4707 21.5904 69.1487 23.9411 77.051 26.9964C84.9838 30.0592 89.1761 33.4743 88.8584 36.6062L88.2267 42.8276C88.2228 42.8238 88.2228 42.8276 88.2228 42.8276ZM30.5794 25.7291C35.5337 25.7291 40.8631 26.0086 46.3455 26.5905C65.5958 28.635 82.2923 33.9376 86.9517 39.489C87.6102 40.274 88.0161 41.0511 88.1731 41.8093L88.7052 36.5831C89.3522 30.2354 70.6266 23.0299 46.9658 20.5183C27.5816 18.4624 10.1768 20.1661 4.63684 24.6609C3.57249 25.5223 2.98288 26.468 2.87952 27.475L2.34734 32.6971C2.65363 31.9851 3.20877 31.3111 4.00895 30.6833C8.06727 27.4979 18.1326 25.7291 30.5794 25.7291Z" fill="white"/>
<path d="M23.7337 56.2733H23.6495V56.1968L23.6418 56.2733C22.2827 56.17 21.2183 55.7182 20.4832 54.9295L20.3913 54.8299C19.8439 54.2441 19.48 53.4785 19.3155 52.5557C19.1547 51.6599 19.1776 50.6069 19.3844 49.4202C19.5873 48.2562 19.9625 46.9621 20.5062 45.5647C21.0422 44.1787 21.7467 42.6856 22.6004 41.1198C24.3272 37.942 26.6166 34.5383 29.4 31.0045C32.2829 27.3444 35.5717 23.7034 39.1783 20.1772C42.7887 16.6512 46.4947 13.4543 50.2008 10.6785C53.7843 7.99467 57.2148 5.81236 60.4002 4.18904C61.9699 3.38886 63.4668 2.73417 64.8414 2.24793C66.235 1.75405 67.5214 1.42862 68.6661 1.27164C69.8376 1.11467 70.8714 1.13765 71.7404 1.34056C72.6401 1.54731 73.3715 1.95314 73.9227 2.53891L74.0147 2.63845C74.7498 3.42331 75.1479 4.52595 75.19 5.91956L75.1938 6.00763L74.9373 5.98847C68.3024 5.61711 55.4575 13.3969 43.6462 24.9362C31.8389 36.4756 23.6648 49.2364 23.7299 56.0206L23.7337 56.2733ZM70.1171 1.32524C69.6653 1.32524 69.1867 1.35971 68.6814 1.42862C67.5482 1.58176 66.2732 1.90719 64.8911 2.39726C63.5205 2.87965 62.035 3.53051 60.4652 4.3307C57.2914 5.9502 53.8685 8.12867 50.2926 10.8049C46.5943 13.5768 42.8882 16.7698 39.2854 20.2883C35.6828 23.8068 32.3978 27.444 29.5225 31.1002C26.7468 34.6264 24.4611 38.0223 22.7382 41.1924C21.8921 42.7507 21.1876 44.24 20.6555 45.6221C20.1156 47.0081 19.7443 48.2983 19.5413 49.4469C19.3384 50.6147 19.3155 51.6522 19.4724 52.5289C19.6294 53.421 19.9778 54.1599 20.5062 54.7265L20.598 54.8261C21.291 55.5651 22.2903 55.9977 23.569 56.1125V56.0933C23.4427 49.29 31.6512 36.4296 43.5314 24.8214C55.1014 13.5193 67.6783 5.8162 74.4741 5.8162C74.6578 5.8162 74.834 5.82002 75.0101 5.83151H75.0254C74.9679 4.5183 74.5889 3.48075 73.8959 2.74183L73.8041 2.64229C73.2757 2.07948 72.5712 1.69279 71.7022 1.48987C71.2236 1.37885 70.6952 1.32524 70.1171 1.32524Z" fill="white"/>
<path d="M59.7861 50.937C54.717 50.937 49.3991 50.646 43.9548 50.0679C38.1468 49.4514 32.5456 48.5479 27.3042 47.3801C22.239 46.2507 17.7251 44.926 13.8812 43.4444C11.9898 42.7131 10.2785 41.9474 8.79679 41.1663C7.30363 40.3815 6.03253 39.5736 5.02178 38.7696C3.98807 37.9466 3.21469 37.1195 2.7208 36.3079C2.20777 35.4656 1.98954 34.6348 2.07376 33.827L2.08908 33.6891C2.20012 32.6094 2.84715 31.5987 4.01104 30.6837L4.06847 30.6377L4.24458 30.8329H4.2331C9.02268 36.3003 25.6005 41.5186 44.6171 43.5363C63.6338 45.554 80.9046 43.9306 86.6973 39.589L86.8963 39.4282L86.9538 39.4857C87.9109 40.6266 88.3398 41.7483 88.2288 42.8279L88.2134 42.9659C88.133 43.7699 87.7501 44.5432 87.0801 45.2553C86.4331 45.9483 85.5066 46.5953 84.3312 47.181C83.1788 47.7554 81.7738 48.2799 80.1541 48.7355C78.55 49.1873 76.7199 49.5778 74.7214 49.8956C70.6631 50.5426 65.9731 50.8872 60.7892 50.9292C60.456 50.9331 60.1191 50.937 59.7861 50.937ZM4.04167 30.8483C2.94669 31.725 2.34177 32.6822 2.23839 33.6968L2.22308 33.8346C2.14651 34.6042 2.35326 35.4082 2.84715 36.2161C3.32955 37.0123 4.09527 37.8278 5.11367 38.6396C6.11677 39.4397 7.3802 40.2399 8.8657 41.0209C10.3397 41.798 12.0473 42.5599 13.9348 43.2912C17.771 44.7729 22.2811 46.0938 27.3348 47.2232C32.5686 48.391 38.166 49.2945 43.9663 49.9109C49.7667 50.5273 55.4253 50.8182 60.7853 50.7761C65.9616 50.734 70.6402 50.3895 74.6908 49.7462C76.6855 49.4285 78.5079 49.0418 80.1083 48.5901C81.7201 48.1383 83.1175 47.6175 84.2584 47.0471C85.4185 46.469 86.3297 45.8296 86.9652 45.1519C87.6123 44.4628 87.9798 43.7239 88.0564 42.9505L88.0718 42.8126C88.1751 41.7943 87.7731 40.7299 86.881 39.6426L86.8542 39.6656C81.0961 44.0684 63.7218 45.7224 44.6018 43.6894C25.478 41.6641 8.80827 36.3921 4.06464 30.8789L4.04167 30.8483Z" fill="white"/>
<path d="M28.5456 60.8304C28.4767 60.8304 28.4116 60.8304 28.3466 60.8266C26.7768 60.7922 25.5631 60.3327 24.7476 59.4636L20.4902 54.9229L20.6051 54.8157C21.3134 55.5699 22.3395 56.0064 23.6603 56.1059C23.8633 56.1212 24.0738 56.129 24.2883 56.129C31.0457 56.129 43.5499 48.4679 55.1161 37.1697C67.046 25.5116 75.2354 12.659 75.0286 5.91685C74.9865 4.56536 74.6075 3.49718 73.8991 2.74294L74.014 2.63574L78.2714 7.17646C82.6666 11.8665 74.2399 27.4068 59.4845 41.8215C47.8073 53.2306 35.4218 60.8304 28.5456 60.8304ZM21.3402 55.6006L24.8625 59.3602C25.6473 60.1987 26.8228 60.6428 28.3503 60.6734C31.5588 60.7501 36.3522 58.9583 41.827 55.6427C47.4933 52.2085 53.5616 47.3921 59.3735 41.7142C74.0676 27.357 82.4906 11.9124 78.1528 7.28749L74.6343 3.53547C74.9712 4.19781 75.1549 4.99416 75.1817 5.91685C75.3923 12.7011 67.1838 25.5997 55.2232 37.2883C43.6341 48.6134 31.0839 56.2897 24.2844 56.2936C24.0661 56.2936 23.8555 56.2858 23.6488 56.2706C22.7453 56.1979 21.9719 55.972 21.3402 55.6006Z" fill="white"/>
<mask id="mask0_3622_21868" style="mask-type:luminance" maskUnits="userSpaceOnUse" x="0" y="0" width="90" height="62">
<path d="M89.7875 0H0.881836V62H89.7875V0Z" fill="white"/>
<path d="M88.2179 42.8276L88.0609 42.8085C88.1643 41.7747 87.7469 40.6913 86.8243 39.5886C82.1917 34.0678 65.5373 28.7881 46.3216 26.7475C27.1097 24.7068 9.74696 26.3762 4.09978 30.8058C2.97035 31.6903 2.34629 32.6665 2.23909 33.7002L2.08594 33.6849L2.72148 27.4596C2.82869 26.4144 3.43743 25.4305 4.53241 24.5423C10.103 20.0207 27.55 18.3054 46.9762 20.3691C58.4659 21.5904 69.1438 23.9411 77.0461 26.9964C84.9789 30.0592 89.1712 33.4743 88.8535 36.6062L88.2218 42.8276C88.2179 42.8238 88.2179 42.8276 88.2179 42.8276ZM30.5745 25.7291C35.5288 25.7291 40.8582 26.0086 46.3406 26.5905C65.5909 28.635 82.2874 33.9376 86.9468 39.489C87.6053 40.274 88.0112 41.0511 88.1682 41.8093L88.7003 36.5831C89.3474 30.2354 70.6217 23.0299 46.9609 20.5183C27.5768 18.4624 10.1719 20.1661 4.63196 24.6609C3.56761 25.5223 2.978 26.468 2.87464 27.475L2.34245 32.6971C2.64875 31.9851 3.20389 31.3111 4.00407 30.6833C8.06239 27.4979 18.1277 25.7291 30.5745 25.7291Z" fill="white"/>
<path d="M23.7288 56.2733H23.6446V56.1968L23.6369 56.2733C22.2778 56.17 21.2134 55.7182 20.4783 54.9295L20.3864 54.8299C19.839 54.2441 19.4752 53.4785 19.3106 52.5557C19.1498 51.6599 19.1728 50.6069 19.3795 49.4202C19.5824 48.2562 19.9576 46.9621 20.5013 45.5647C21.0373 44.1787 21.7418 42.6856 22.5955 41.1198C24.3223 37.942 26.6117 34.5383 29.3952 31.0045C32.278 27.3444 35.5669 23.7034 39.1734 20.1772C42.7838 16.6512 46.4899 13.4543 50.1959 10.6785C53.7794 7.99467 57.2099 5.81236 60.3953 4.18904C61.9651 3.38886 63.4619 2.73417 64.8365 2.24793C66.2301 1.75405 67.5165 1.42862 68.6612 1.27164C69.8327 1.11467 70.8665 1.13765 71.7355 1.34056C72.6353 1.54731 73.3666 1.95314 73.9178 2.53891L74.0098 2.63845C74.7449 3.42331 75.143 4.52595 75.1851 5.91956L75.189 6.00763L74.9324 5.98847C68.2975 5.61711 55.4526 13.3969 43.6414 24.9362C31.834 36.4756 23.6599 49.2364 23.725 56.0206L23.7288 56.2733ZM70.1122 1.32524C69.6604 1.32524 69.1819 1.35971 68.6765 1.42862C67.5433 1.58176 66.2683 1.90719 64.8862 2.39726C63.5156 2.87965 62.0301 3.53051 60.4603 4.3307C57.2865 5.9502 53.8636 8.12867 50.2878 10.8049C46.5894 13.5768 42.8833 16.7698 39.2805 20.2883C35.6779 23.8068 32.3929 27.444 29.5176 31.1002C26.7419 34.6264 24.4562 38.0223 22.7333 41.1924C21.8872 42.7507 21.1827 44.24 20.6506 45.6221C20.1107 47.0081 19.7394 48.2983 19.5365 49.4469C19.3335 50.6147 19.3106 51.6522 19.4676 52.5289C19.6245 53.421 19.9729 54.1599 20.5013 54.7265L20.5931 54.8261C21.2861 55.5651 22.2854 55.9977 23.5641 56.1125V56.0933C23.4378 49.29 31.6463 36.4296 43.5265 24.8214C55.0965 13.5193 67.6734 5.8162 74.4692 5.8162C74.6529 5.8162 74.8291 5.82002 75.0052 5.83151H75.0205C74.9631 4.5183 74.584 3.48075 73.891 2.74183L73.7992 2.64229C73.2708 2.07948 72.5664 1.69279 71.6973 1.48987C71.2187 1.37885 70.6903 1.32524 70.1122 1.32524Z" fill="white"/>
<path d="M59.7812 50.937C54.7121 50.937 49.3942 50.646 43.9499 50.0679C38.1419 49.4514 32.5407 48.5479 27.2993 47.3801C22.2341 46.2507 17.7202 44.926 13.8763 43.4444C11.985 42.7131 10.2736 41.9474 8.7919 41.1663C7.29875 40.3815 6.02765 39.5736 5.0169 38.7696C3.98318 37.9466 3.20981 37.1195 2.71592 36.3079C2.20288 35.4656 1.98466 34.6348 2.06888 33.827L2.08419 33.6891C2.19523 32.6094 2.84227 31.5987 4.00616 30.6837L4.06359 30.6377L4.2397 30.8329H4.22821C9.01779 36.3003 25.5956 41.5186 44.6123 43.5363C63.629 45.554 80.8997 43.9306 86.6924 39.589L86.8915 39.4282L86.9489 39.4857C87.906 40.6266 88.3349 41.7483 88.2239 42.8279L88.2086 42.9659C88.1281 43.7699 87.7452 44.5432 87.0752 45.2553C86.4282 45.9483 85.5017 46.5953 84.3263 47.181C83.1739 47.7554 81.7689 48.2799 80.1493 48.7355C78.5451 49.1873 76.715 49.5778 74.7165 49.8956C70.6582 50.5426 65.9682 50.8872 60.7843 50.9292C60.4512 50.9331 60.1143 50.937 59.7812 50.937ZM4.03678 30.8483C2.94181 31.725 2.33689 32.6822 2.23351 33.6968L2.2182 33.8346C2.14163 34.6042 2.34837 35.4082 2.84227 36.2161C3.32466 37.0123 4.09039 37.8278 5.10879 38.6396C6.11189 39.4397 7.37532 40.2399 8.86082 41.0209C10.3348 41.798 12.0424 42.5599 13.9299 43.2912C17.7661 44.7729 22.2762 46.0938 27.3299 47.2232C32.5637 48.391 38.1611 49.2945 43.9614 49.9109C49.7618 50.5273 55.4204 50.8182 60.7805 50.7761C65.9568 50.734 70.6353 50.3895 74.6859 49.7462C76.6807 49.4285 78.503 49.0418 80.1034 48.5901C81.7152 48.1383 83.1126 47.6175 84.2535 47.0471C85.4136 46.469 86.3248 45.8296 86.9604 45.1519C87.6074 44.4628 87.9749 43.7239 88.0516 42.9505L88.0669 42.8126C88.1702 41.7943 87.7682 40.7299 86.8761 39.6426L86.8494 39.6656C81.0912 44.0684 63.7169 45.7224 44.5969 43.6894C25.4731 41.6641 8.80339 36.3921 4.05976 30.8789L4.03678 30.8483Z" fill="white"/>
<path d="M28.5407 60.8304C28.4718 60.8304 28.4067 60.8304 28.3417 60.8266C26.7719 60.7922 25.5582 60.3327 24.7428 59.4636L20.4854 54.9229L20.6002 54.8157C21.3085 55.5699 22.3346 56.0064 23.6554 56.1059C23.8584 56.1212 24.069 56.129 24.2834 56.129C31.0408 56.129 43.545 48.4679 55.1112 37.1697C67.0412 25.5116 75.2305 12.659 75.0237 5.91685C74.9816 4.56536 74.6026 3.49718 73.8943 2.74294L74.0091 2.63574L78.2665 7.17646C82.6618 11.8665 74.235 27.4068 59.4796 41.8215C47.8024 53.2306 35.4169 60.8304 28.5407 60.8304ZM21.3353 55.6006L24.8576 59.3602C25.6425 60.1987 26.8179 60.6428 28.3454 60.6734C31.5539 60.7501 36.3473 58.9583 41.8221 55.6427C47.4885 52.2085 53.5567 47.3921 59.3686 41.7142C74.0627 27.357 82.4857 11.9124 78.1479 7.28749L74.6294 3.53547C74.9663 4.19781 75.1501 4.99416 75.1768 5.91685C75.3874 12.7011 67.179 25.5997 55.2183 37.2883C43.6292 48.6134 31.079 56.2897 24.2795 56.2936C24.0612 56.2936 23.8507 56.2858 23.644 56.2706C22.7404 56.1979 21.967 55.972 21.3353 55.6006Z" fill="white"/>
</mask>
<g mask="url(#mask0_3622_21868)">
<path d="M59.2018 41.8739L59.2553 41.9313L59.5974 41.6121L59.5438 41.5547L59.2018 41.8739ZM88.2213 42.8283L88.1646 43.2929L88.6895 43.3569L88.6892 42.8281L88.2213 42.8283ZM88.0643 42.8093L87.5987 42.7627L87.5532 43.2184L88.0077 43.2737L88.0643 42.8093ZM2.24245 33.701L2.19588 34.1666L2.65978 34.213L2.70787 33.7493L2.24245 33.701ZM2.0893 33.6857L1.62379 33.6382L1.57617 34.1046L2.04274 34.1513L2.0893 33.6857ZM88.2251 42.8283L87.8942 43.1593L88.591 43.8561L88.6906 42.8756L88.2251 42.8283ZM88.1715 41.81L87.7133 41.9049L88.637 41.8574L88.1715 41.81ZM2.34581 32.6979L1.8803 32.6505L2.77567 32.8828L2.34581 32.6979ZM23.7362 56.2744V56.7423H24.2113L24.204 56.2674L23.7362 56.2744ZM23.652 56.2744H23.1841V56.7423H23.652V56.2744ZM23.652 56.1979H24.1199L23.1863 56.1513L23.652 56.1979ZM23.6443 56.2744L23.6088 56.741L24.0645 56.7757L24.1099 56.3209L23.6443 56.2744ZM20.4857 54.9306L20.1419 55.248L20.1434 55.2496L20.4857 54.9306ZM20.3938 54.8311L20.7377 54.5136L20.7357 54.5115L20.3938 54.8311ZM68.6686 1.27277L68.6065 0.80899L68.605 0.809186L68.6686 1.27277ZM71.743 1.34168L71.6366 1.79736L71.6381 1.79772L71.743 1.34168ZM73.9252 2.54004L74.2692 2.22263L74.266 2.21933L73.9252 2.54004ZM74.0172 2.63958L73.6734 2.95698L73.6756 2.95945L74.0172 2.63958ZM75.1925 5.92069L74.7248 5.93483L74.725 5.94103L75.1925 5.92069ZM75.1964 6.00875L75.1616 6.47538L75.6867 6.51457L75.6638 5.98841L75.1964 6.00875ZM74.9398 5.9896L74.9747 5.52289L74.966 5.52241L74.9398 5.9896ZM23.7324 56.0217L23.2644 56.0263V56.0288L23.7324 56.0217ZM20.658 45.6233L21.094 45.7931L21.0947 45.7914L20.658 45.6233ZM19.5439 49.4481L19.0831 49.3667L19.0828 49.3679L19.5439 49.4481ZM19.475 52.5301L19.9358 52.449L19.9355 52.4476L19.475 52.5301ZM20.5087 54.7277L20.8525 54.4103L20.8509 54.4085L20.5087 54.7277ZM20.6006 54.8272L20.2567 55.1446L20.2592 55.1473L20.6006 54.8272ZM23.5715 56.1137L23.5296 56.5797L24.0394 56.6255V56.1137H23.5715ZM23.5715 56.0945H24.0396L24.0394 56.0858L23.5715 56.0945ZM75.0126 5.83264L74.9822 6.29957L74.9974 6.30056H75.0126V5.83264ZM75.0279 5.83264V6.30056H75.5168L75.4954 5.81219L75.0279 5.83264ZM73.8984 2.74295L73.5546 3.06035L73.5572 3.06305L73.8984 2.74295ZM73.8066 2.64341L74.1504 2.32601L74.1477 2.32314L73.8066 2.64341ZM2.07398 33.8273L1.60891 33.7756L1.60858 33.7788L2.07398 33.8273ZM2.0893 33.6895L2.55438 33.7412L2.55478 33.7374L2.0893 33.6895ZM4.01126 30.6841L4.30047 31.052L4.30356 31.0495L4.01126 30.6841ZM4.06869 30.6381L4.41616 30.3247L4.12077 29.9973L3.77639 30.2728L4.06869 30.6381ZM4.2448 30.8333V31.3013H5.29699L4.59227 30.5199L4.2448 30.8333ZM4.23331 30.8333V30.3654H3.20131L3.88135 31.1417L4.23331 30.8333ZM86.6975 39.5894L86.9781 39.9638L86.9849 39.9587L86.9916 39.9534L86.6975 39.5894ZM86.8966 39.4286L87.2275 39.0977L86.9299 38.8002L86.6026 39.0646L86.8966 39.4286ZM86.954 39.4861L87.3124 39.1853L87.2993 39.1696L87.2848 39.1551L86.954 39.4861ZM88.229 42.8283L88.694 42.8801L88.6945 42.8763L88.229 42.8283ZM88.2137 42.9663L87.7485 42.9146L87.748 42.9197L88.2137 42.9663ZM87.0804 45.2557L86.7396 44.9351L86.7383 44.9363L87.0804 45.2557ZM60.7894 50.9296L60.7856 50.4618H60.784L60.7894 50.9296ZM4.04189 30.8487L4.41623 30.5679L4.12644 30.1815L3.74942 30.4834L4.04189 30.8487ZM2.23861 33.6971L2.70369 33.7489L2.70413 33.7446L2.23861 33.6971ZM2.2233 33.8349L1.75821 33.7834L1.75768 33.7886L2.2233 33.8349ZM2.84737 36.2164L3.24758 35.9739L3.24659 35.9723L2.84737 36.2164ZM88.0567 42.9509L87.5916 42.8992L87.591 42.9049L88.0567 42.9509ZM88.072 42.813L88.537 42.8647L88.5375 42.8603L88.072 42.813ZM86.8812 39.6429L87.2431 39.3462L86.9397 38.9765L86.5767 39.2877L86.8812 39.6429ZM86.8545 39.666L87.1387 40.0376L87.149 40.0297L87.159 40.0213L86.8545 39.666ZM4.06486 30.8793L3.69051 31.1601L3.69993 31.1726L3.71015 31.1845L4.06486 30.8793ZM28.3459 60.8266L28.3732 60.3595L28.3647 60.359L28.3561 60.3588L28.3459 60.8266ZM20.4895 54.9229L20.1703 54.5809L19.8274 54.9008L20.1482 55.243L20.4895 54.9229ZM20.6044 54.8158L20.9455 54.4955L20.6262 54.1554L20.2852 54.4737L20.6044 54.8158ZM74.0133 2.63575L74.3547 2.3157L74.0354 1.97514L73.6941 2.29368L74.0133 2.63575ZM21.3395 55.6006L21.5766 55.1972L20.9981 55.9205L21.3395 55.6006ZM28.3496 60.6735L28.3608 60.2057H28.359L28.3496 60.6735ZM74.6336 3.53548L74.9749 3.21539L74.2165 3.74762L74.6336 3.53548ZM23.6481 56.2706L23.6106 56.7371L23.6135 56.7373L23.6481 56.2706ZM88.2779 42.3639L88.1209 42.3447L88.0077 43.2737L88.1646 43.2929L88.2779 42.3639ZM88.5299 42.8558C88.65 41.6546 88.1579 40.4499 87.1866 39.2891L86.4688 39.8897C87.3427 40.9341 87.6853 41.8965 87.5987 42.7627L88.5299 42.8558ZM87.1866 39.2891C85.971 37.8404 83.9986 36.4407 81.4623 35.1255C78.9189 33.8065 75.776 32.5558 72.1864 31.4177C65.0067 29.1416 56.0077 27.306 46.3743 26.283L46.2755 27.2136C55.8578 28.2312 64.7939 30.0558 71.9036 32.3097C75.4586 33.4369 78.5488 34.6688 81.0315 35.9562C83.5213 37.2474 85.368 38.5779 86.4688 39.8897L87.1866 39.2891ZM46.3743 26.283C36.7429 25.2599 27.5671 25.1658 20.0824 25.8853C16.3403 26.245 13.0123 26.8088 10.2571 27.5655C7.50973 28.32 5.29702 29.2754 3.81435 30.4384L4.39162 31.175C5.73253 30.1231 7.80818 29.2086 10.5049 28.468C13.1939 27.7295 16.4661 27.1731 20.1721 26.8168C27.5835 26.1044 36.6951 26.196 46.2755 27.2136L46.3743 26.283ZM3.81435 30.4384C2.62274 31.3714 1.90155 32.4519 1.77701 33.6527L2.70787 33.7493C2.79773 32.8827 3.32437 32.0107 4.39162 31.175L3.81435 30.4384ZM2.28901 33.2354L2.13585 33.2201L2.04274 34.1513L2.19588 34.1666L2.28901 33.2354ZM2.5548 33.7332L3.19035 27.5079L2.25936 27.4127L1.62379 33.6382L2.5548 33.7332ZM3.19035 27.5079C3.28105 26.6234 3.79879 25.7434 4.83055 24.9064L4.24099 24.1796C3.0828 25.1192 2.38306 26.2067 2.25936 27.4127L3.19035 27.5079ZM4.83055 24.9064C6.1512 23.8345 8.2156 22.9008 10.9124 22.1437C13.6011 21.3889 16.8828 20.8188 20.6076 20.4527C28.0567 19.7202 37.2426 19.806 46.9302 20.8352L47.029 19.9045C37.2903 18.87 28.0396 18.7816 20.516 19.5213C16.7546 19.8911 13.4158 20.4688 10.6594 21.2427C7.9111 22.0144 5.70564 22.9907 4.24099 24.1796L4.83055 24.9064ZM46.9302 20.8352C58.3928 22.0537 69.0279 24.3975 76.8806 27.4335L77.2181 26.5607C69.2665 23.4863 58.5457 21.1287 47.029 19.9045L46.9302 20.8352ZM76.8806 27.4335C80.8255 28.9566 83.8059 30.555 85.7517 32.1391C87.7132 33.7359 88.5259 35.2337 88.3912 36.5597L89.3223 36.6542C89.5055 34.8484 88.3809 33.0727 86.3426 31.4133C84.2884 29.7411 81.2061 28.1005 77.2181 26.5607L76.8806 27.4335ZM88.3912 36.5597L87.7595 42.7811L88.6906 42.8756L89.3223 36.6542L88.3912 36.5597ZM88.5559 42.4975C88.5382 42.4796 88.4751 42.4176 88.3709 42.3829C88.3118 42.3631 88.2276 42.3485 88.1304 42.3679C88.0298 42.388 87.9487 42.4382 87.8907 42.4962C87.791 42.596 87.768 42.7087 87.7625 42.7364C87.7579 42.7592 87.7558 42.7786 87.7547 42.7927C87.7542 42.7999 87.7538 42.8066 87.7536 42.8124C87.7535 42.8155 87.7535 42.8183 87.7535 42.821C87.7533 42.8223 87.7533 42.8237 87.7533 42.825C87.7533 42.8255 87.7533 42.8261 87.7533 42.8268C87.7533 42.8265 87.7533 42.8271 87.7533 42.8268C87.7533 42.8269 87.7533 42.8281 87.7533 42.8282C87.7533 42.8285 87.7533 42.8287 88.2213 42.8283C88.6892 42.8281 88.6892 42.8279 88.6892 42.8281C88.6892 42.828 88.6892 42.8282 88.6892 42.8281C88.6892 42.8285 88.6892 42.8296 88.6892 42.83C88.6892 42.8306 88.6892 42.8313 88.6892 42.8319C88.6892 42.8331 88.6892 42.8344 88.6892 42.8358C88.6891 42.8384 88.6891 42.8412 88.689 42.8443C88.6887 42.8501 88.6884 42.8567 88.6879 42.8638C88.6869 42.8776 88.6847 42.8968 88.6802 42.9194C88.6759 42.941 88.6678 42.9738 88.6516 43.0114C88.636 43.0482 88.6066 43.1038 88.5528 43.1576C88.495 43.2154 88.4143 43.2655 88.314 43.2855C88.2173 43.3049 88.1334 43.2902 88.0749 43.2706C87.9717 43.2363 87.9101 43.1752 87.8942 43.1593L88.5559 42.4975ZM30.5779 26.1978C35.5149 26.1978 40.8278 26.4764 46.2946 27.0566L46.3935 26.126C40.8953 25.5424 35.5493 25.262 30.5779 25.262V26.1978ZM46.2946 27.0566C55.8941 28.0761 64.8493 29.9074 71.977 32.1714C75.5411 33.3035 78.6402 34.5412 81.1312 35.8352C83.6292 37.1328 85.4841 38.471 86.5917 39.7907L87.3087 39.1891C86.0866 37.7329 84.1072 36.3265 81.5626 35.0046C79.0109 33.6791 75.8591 32.4225 72.2604 31.2795C65.0625 28.9932 56.0442 27.151 46.3935 26.126L46.2946 27.0566ZM86.5917 39.7907C87.2148 40.5334 87.576 41.2418 87.7133 41.9049L88.6296 41.7152C88.453 40.862 88.0026 40.0161 87.3087 39.1891L86.5917 39.7907ZM88.637 41.8574L89.1692 36.6314L88.2381 36.5365L87.706 41.7625L88.637 41.8574ZM89.1692 36.6314C89.3565 34.7941 88.1373 33.0136 86.0722 31.3819C83.9856 29.733 80.9172 28.1386 77.1174 26.6763C69.5114 23.7491 58.8728 21.3127 47.0137 20.0539L46.9149 20.9845C58.7165 22.2372 69.271 24.6593 76.7813 27.5497C80.5397 28.996 83.5102 30.5501 85.4921 32.1161C87.4955 33.6992 88.3744 35.1999 88.2381 36.5365L89.1692 36.6314ZM47.0137 20.0539C37.2961 19.0231 28.0664 18.9338 20.5627 19.6682C16.8109 20.0354 13.4818 20.6093 10.7344 21.3784C7.99508 22.1453 5.79769 23.1161 4.3405 24.2983L4.92969 25.0255C6.24249 23.9603 8.29864 23.0322 10.9866 22.2797C13.6665 21.5295 16.9387 20.9632 20.6538 20.5996C28.0835 19.8724 37.2483 19.9592 46.9149 20.9845L47.0137 20.0539ZM4.3405 24.2983C3.21415 25.2099 2.53254 26.2588 2.41251 27.4279L3.34346 27.5235C3.43018 26.6789 3.92735 25.8366 4.92969 25.0255L4.3405 24.2983ZM2.41251 27.4279L1.8803 32.6505L2.81133 32.7454L3.34346 27.5235L2.41251 27.4279ZM2.77567 32.8828C3.04298 32.2613 3.53942 31.6461 4.29629 31.0522L3.71856 30.3159C2.87508 30.9778 2.26122 31.7103 1.91596 32.5131L2.77567 32.8828ZM4.29629 31.0522C6.23239 29.5325 9.66901 28.3099 14.2314 27.4727C18.7758 26.6387 24.3744 26.1978 30.5779 26.1978V25.262C24.3347 25.262 18.6772 25.7053 14.0625 26.5522C9.46601 27.3957 5.84078 28.6501 3.71856 30.3159L4.29629 31.0522ZM23.7362 55.8065H23.652V56.7423H23.7362V55.8065ZM24.1199 56.2744V56.1979H23.1841V56.2744H24.1199ZM23.1863 56.1513L23.1787 56.2278L24.1099 56.3209L24.1176 56.2444L23.1863 56.1513ZM23.6797 55.8079C22.4051 55.7109 21.4632 55.293 20.828 54.6115L20.1434 55.2496C20.9784 56.1456 22.1652 56.6312 23.6088 56.741L23.6797 55.8079ZM20.8295 54.6131L20.7377 54.5136L20.05 55.1484L20.1419 55.248L20.8295 54.6131ZM20.7357 54.5115C20.2592 54.0017 19.93 53.323 19.7786 52.4746L18.8573 52.6391C19.0352 53.6361 19.4334 54.4888 20.0519 55.1506L20.7357 54.5115ZM19.7786 52.4746C19.6301 51.6469 19.6477 50.6509 19.8479 49.5015L18.926 49.3409C18.7126 50.5654 18.6843 51.675 18.8573 52.6391L19.7786 52.4746ZM19.8479 49.5015C20.0443 48.3745 20.4096 47.1109 20.9447 45.7354L20.0726 45.3962C19.5204 46.8156 19.1352 48.14 18.926 49.3409L19.8479 49.5015ZM20.9447 45.7354C21.4721 44.3719 22.1678 42.8965 23.0138 41.3448L22.1921 40.8969C21.3306 42.4769 20.6173 43.9879 20.0726 45.3962L20.9447 45.7354ZM23.0138 41.3448C24.7251 38.1952 26.9992 34.8131 29.7701 31.2952L29.0349 30.7161C26.239 34.2658 23.9342 37.691 22.1921 40.8969L23.0138 41.3448ZM29.7701 31.2952C32.6395 27.6523 35.9146 24.0262 39.5079 20.513L38.8538 19.8437C35.2341 23.3828 31.9313 27.0388 29.0349 30.7161L29.7701 31.2952ZM39.5079 20.513C43.105 16.9997 46.7956 13.8166 50.4837 11.0542L49.9228 10.3051C46.1988 13.0942 42.4773 16.3046 38.8538 19.8437L39.5079 20.513ZM50.4837 11.0542C54.051 8.38257 57.4586 6.21568 60.6151 4.60707L60.1902 3.77325C56.976 5.41131 53.5227 7.60901 49.9228 10.3051L50.4837 11.0542ZM60.6151 4.60707C62.1703 3.8143 63.6483 3.16833 64.9999 2.6902L64.6878 1.80794C63.2904 2.30226 61.7745 2.96567 60.1902 3.77325L60.6151 4.60707ZM64.9999 2.6902C66.3702 2.20454 67.6255 1.88811 68.7322 1.73635L68.605 0.809186C67.4223 0.971375 66.1046 1.30581 64.6878 1.80794L64.9999 2.6902ZM68.7308 1.73655C69.8634 1.58479 70.8375 1.61079 71.6366 1.79736L71.8494 0.886018C70.9103 0.66676 69.817 0.646805 68.6065 0.80899L68.7308 1.73655ZM71.6381 1.79772C72.459 1.98634 73.1044 2.35051 73.5846 2.86074L74.266 2.21933C73.6437 1.55802 72.8264 1.11052 71.8478 0.885648L71.6381 1.79772ZM73.5814 2.85743L73.6734 2.95698L74.361 2.3222L74.2692 2.22263L73.5814 2.85743ZM73.6756 2.95945C74.3128 3.63979 74.6851 4.62198 74.7248 5.93483L75.6603 5.90656C75.6157 4.4322 75.1917 3.2091 74.3587 2.31972L73.6756 2.95945ZM74.725 5.94103L74.7289 6.02909L75.6638 5.98841L75.6601 5.90035L74.725 5.94103ZM75.2312 5.54213L74.9747 5.52289L74.9051 6.45623L75.1616 6.47538L75.2312 5.54213ZM74.966 5.52241C73.217 5.42451 71.1014 5.86359 68.7503 6.73184C66.3932 7.60232 63.7692 8.9155 60.993 10.5967C55.4405 13.9592 49.2484 18.8123 43.3217 24.6027L43.9757 25.272C49.8602 19.5229 55.9964 14.7166 61.4777 11.3972C64.2186 9.73744 66.7881 8.45411 69.0746 7.60974C71.3671 6.76313 73.3452 6.36901 74.9137 6.4568L74.966 5.52241ZM43.3217 24.6027C37.3968 30.393 32.3777 36.4952 28.8443 42.0103C27.0777 44.7678 25.6779 47.3856 24.7226 49.7501C23.7695 52.109 23.2474 54.2436 23.2644 56.0263L24.2003 56.0173C24.1849 54.4077 24.66 52.4031 25.5903 50.1007C26.5183 47.8039 27.8877 45.2383 29.6323 42.5152C33.1216 37.0689 38.0932 31.021 43.9757 25.272L43.3217 24.6027ZM23.2644 56.0288L23.2683 56.2815L24.204 56.2674L24.2002 56.0147L23.2644 56.0288ZM70.1196 0.858449C69.6442 0.858449 69.1445 0.894698 68.6207 0.966111L68.7466 1.89346C69.2336 1.82705 69.6916 1.7943 70.1196 1.7943V0.858449ZM68.6207 0.966111C67.4481 1.12456 66.1419 1.45933 64.7373 1.95736L65.0489 2.83977C66.4086 2.35768 67.6526 2.04129 68.7466 1.89346L68.6207 0.966111ZM64.7373 1.95736C63.3431 2.44807 61.8392 3.1075 60.2553 3.91494L60.6803 4.74871C62.2358 3.95579 63.7019 3.31386 65.0489 2.83977L64.7373 1.95736ZM60.2553 3.91494C57.0526 5.54913 53.6069 7.74303 50.0148 10.4314L50.5756 11.1806C54.1352 8.51656 57.5352 6.35352 60.6803 4.74871L60.2553 3.91494ZM50.0148 10.4314C46.2987 13.2165 42.577 16.4232 38.961 19.9547L39.6149 20.6242C43.2044 17.1187 46.8948 13.9393 50.5756 11.1806L50.0148 10.4314ZM38.961 19.9547C35.345 23.4862 32.0461 27.1385 29.1573 30.8122L29.8927 31.3909C32.7544 27.7519 36.0256 24.1296 39.6149 20.6242L38.961 19.9547ZM29.1573 30.8122C26.3691 34.354 24.0678 37.7718 22.3297 40.9701L23.1519 41.417C24.8595 38.2751 27.1294 34.9012 29.8927 31.3909L29.1573 30.8122ZM22.3297 40.9701C21.4763 42.5417 20.7623 44.0499 20.2213 45.4552L21.0947 45.7914C21.6179 44.4324 22.3132 42.9618 23.1519 41.417L22.3297 40.9701ZM20.222 45.4534C19.6732 46.8622 19.2924 48.1822 19.0831 49.3667L20.0047 49.5295C20.2013 48.4166 20.563 47.1563 21.094 45.7931L20.222 45.4534ZM19.0828 49.3679C18.8734 50.5728 18.8451 51.6676 19.0144 52.6125L19.9355 52.4476C19.7908 51.639 19.8085 50.6587 20.0049 49.5281L19.0828 49.3679ZM19.0141 52.6111C19.1841 53.5774 19.5668 54.4036 20.1664 55.0468L20.8509 54.4085C20.3938 53.9184 20.0798 53.2668 19.9358 52.449L19.0141 52.6111ZM20.1648 55.045L20.2567 55.1446L20.9444 54.5098L20.8525 54.4103L20.1648 55.045ZM20.2592 55.1473C21.0501 55.9906 22.1682 56.4573 23.5296 56.5797L23.6134 55.6476C22.4174 55.5401 21.537 55.1418 20.9419 54.5072L20.2592 55.1473ZM24.0394 56.1137L24.0396 56.0945H23.1036V56.1137H24.0394ZM24.0394 56.0858C24.0095 54.4728 24.4752 52.4594 25.4012 50.1442C26.3249 47.8348 27.6951 45.253 29.4447 42.512C32.9439 37.0303 37.9422 30.9405 43.8609 25.1572L43.2069 24.4878C37.2456 30.3128 32.1994 36.4573 28.6559 42.0085C26.8842 44.7842 25.4833 47.4187 24.5323 49.7967C23.5835 52.1689 23.0705 54.3145 23.1037 56.1031L24.0394 56.0858ZM43.8609 25.1572C49.6251 19.5265 55.6347 14.798 61.0403 11.4805C66.4679 8.14952 71.2163 6.28525 74.4766 6.28525V5.3494C70.9412 5.3494 66.0032 7.3367 60.5508 10.6828C55.0767 14.0424 49.0127 18.8164 43.2069 24.4878L43.8609 25.1572ZM74.4766 6.28525C74.654 6.28525 74.8194 6.28896 74.9822 6.29957L75.0431 5.36571C74.8536 5.35334 74.6667 5.3494 74.4766 5.3494V6.28525ZM75.0126 6.30056H75.0279V5.36471H75.0126V6.30056ZM75.4954 5.81219C75.4345 4.42127 75.0298 3.26519 74.2398 2.42286L73.5572 3.06305C74.1531 3.69855 74.5064 4.61758 74.5604 5.85307L75.4954 5.81219ZM74.2424 2.42557L74.1504 2.32601L73.4628 2.9608L73.5546 3.06035L74.2424 2.42557ZM74.1477 2.32314C73.5469 1.68318 72.7559 1.25594 71.811 1.03533L71.5982 1.94668C72.3916 2.1319 73.0095 2.47804 73.4655 2.96367L74.1477 2.32314ZM71.811 1.03533C71.2913 0.914761 70.726 0.858449 70.1196 0.858449V1.7943C70.6694 1.7943 71.1609 1.84519 71.5982 1.94668L71.811 1.03533ZM59.7863 50.4694C54.7348 50.4694 49.4335 50.1794 44.0044 49.603L43.9057 50.5335C49.365 51.1133 54.6995 51.4053 59.7863 51.4053V50.4694ZM44.0044 49.603C38.2124 48.9882 32.6288 48.0873 27.4062 46.9239L27.2026 47.8372C32.4627 49.009 38.0816 49.9154 43.9057 50.5335L44.0044 49.603ZM27.4062 46.9239C22.3582 45.7983 17.8674 44.4798 14.0497 43.0081L13.7126 43.8812C17.5828 45.3729 22.1201 46.704 27.2026 47.8372L27.4062 46.9239ZM14.0497 43.0081C12.1717 42.2819 10.4777 41.5238 9.0152 40.7529L8.5788 41.5807C10.0796 42.3719 11.808 43.1448 13.7126 43.8812L14.0497 43.0081ZM9.0152 40.7529C7.54084 39.9779 6.2955 39.1852 5.3133 38.4039L4.73052 39.1361C5.76981 39.9628 7.06684 40.786 8.5788 41.5807L9.0152 40.7529ZM5.3133 38.4039C4.30691 37.6026 3.57723 36.8152 3.12075 36.0651L2.32128 36.5515C2.8526 37.4246 3.66947 38.2912 4.73052 39.1361L5.3133 38.4039ZM3.12075 36.0651C2.64879 35.2902 2.46799 34.5607 2.53939 33.8759L1.60858 33.7788C1.51153 34.7096 1.76718 35.6417 2.32128 36.5515L3.12075 36.0651ZM2.53905 33.8791L2.55438 33.7412L1.62379 33.6382L1.60891 33.7756L2.53905 33.8791ZM2.55478 33.7374C2.64864 32.8246 3.19866 31.9181 4.30047 31.052L3.72206 30.3162C2.49607 31.2801 1.75202 32.3951 1.62383 33.6417L2.55478 33.7374ZM4.30356 31.0495L4.36099 31.0035L3.77639 30.2728L3.71895 30.3187L4.30356 31.0495ZM3.72122 30.9515L3.89733 31.1468L4.59227 30.5199L4.41616 30.3247L3.72122 30.9515ZM4.2448 30.3654H4.23331V31.3013H4.2448V30.3654ZM3.88135 31.1417C5.13511 32.5728 7.12908 33.9565 9.67687 35.2578C12.2313 36.5625 15.3726 37.7996 18.9497 38.9249C26.1044 41.176 35.0342 42.9905 44.568 44.002L44.6667 43.0713C35.1839 42.0653 26.3164 40.2617 19.2306 38.0322C15.6876 36.9175 12.5978 35.6988 10.1026 34.4243C7.60066 33.1464 5.72631 31.8276 4.58529 30.5251L3.88135 31.1417ZM44.568 44.002C54.1017 45.0135 63.2052 45.1133 70.6602 44.4137C74.3874 44.0638 77.7107 43.5134 80.474 42.7735C83.2298 42.0357 85.461 41.1009 86.9781 39.9638L86.4168 39.2149C85.0376 40.2487 82.9378 41.145 80.2319 41.8696C77.5333 42.592 74.2643 43.1354 70.5727 43.4819C63.1899 44.1748 54.1496 44.0775 44.6667 43.0713L44.568 44.002ZM86.9916 39.9534L87.1905 39.7926L86.6026 39.0646L86.4035 39.2253L86.9916 39.9534ZM86.5657 39.7595L86.6231 39.8169L87.2848 39.1551L87.2275 39.0977L86.5657 39.7595ZM86.5956 39.7867C87.5026 40.8681 87.8573 41.8682 87.7634 42.7805L88.6945 42.8763C88.8227 41.6293 88.3196 40.3858 87.3124 39.1853L86.5956 39.7867ZM87.7639 42.7768L87.7485 42.9146L88.6787 43.0179L88.694 42.8801L87.7639 42.7768ZM87.748 42.9197C87.6799 43.6009 87.3542 44.2818 86.7396 44.9351L87.4211 45.5764C88.1465 44.8053 88.5866 43.9395 88.6792 43.0128L87.748 42.9197ZM86.7383 44.9363C86.1415 45.5756 85.2667 46.1926 84.1227 46.7627L84.5401 47.6004C85.7469 46.999 86.7252 46.3218 87.4224 45.5751L86.7383 44.9363ZM84.1227 46.7627C83.0027 47.3208 81.6265 47.8357 80.0277 48.2855L80.2812 49.1864C81.9214 48.7249 83.3552 48.1908 84.5401 47.6004L84.1227 46.7627ZM80.0277 48.2855C78.4443 48.7314 76.6324 49.1183 74.6482 49.4338L74.7951 50.3581C76.8079 50.038 78.6561 49.6441 80.2812 49.1864L80.0277 48.2855ZM74.6482 49.4338C70.6183 50.0763 65.9523 50.4198 60.7856 50.4618L60.7932 51.3976C65.9944 51.3553 70.7083 51.0097 74.7951 50.3581L74.6482 49.4338ZM60.784 50.4618C60.4505 50.4657 60.1162 50.4694 59.7863 50.4694V51.4053C60.1225 51.4053 60.4621 51.4014 60.7948 51.3976L60.784 50.4618ZM3.74942 30.4834C2.5938 31.4088 1.89334 32.4697 1.7731 33.6498L2.70413 33.7446C2.79063 32.8956 3.30002 32.0421 4.33435 31.214L3.74942 30.4834ZM1.77355 33.6456L1.75821 33.7834L2.68837 33.8867L2.70369 33.7489L1.77355 33.6456ZM1.75768 33.7886C1.66912 34.6786 1.91195 35.5835 2.44814 36.4605L3.24659 35.9723C2.79498 35.2337 2.62433 34.5304 2.68893 33.8814L1.75768 33.7886ZM2.44714 36.4588C2.96751 37.3178 3.77744 38.1731 4.82226 39.0059L5.40569 38.2742C4.41368 37.4836 3.69202 36.7077 3.24758 35.9739L2.44714 36.4588ZM4.82226 39.0059C5.85456 39.8294 7.14447 40.6449 8.64816 41.4354L9.08416 40.6073C7.61685 39.8359 6.37958 39.051 5.40569 38.2742L4.82226 39.0059ZM8.64816 41.4354C10.1416 42.2228 11.8657 42.9918 13.7659 43.7279L14.104 42.8554C12.2292 42.129 10.5387 41.3744 9.08416 40.6073L8.64816 41.4354ZM13.7659 43.7279C17.6288 45.2198 22.1624 46.5471 27.233 47.6803L27.4372 46.767C22.4002 45.6413 17.9137 44.3268 14.104 42.8554L13.7659 43.7279ZM27.233 47.6803C32.4856 48.8523 38.1007 49.7585 43.9171 50.3765L44.016 49.446C38.2316 48.8312 32.6521 47.9306 27.4372 46.767L27.233 47.6803ZM43.9171 50.3765C49.7335 50.9947 55.4099 51.2868 60.7892 51.2444L60.7818 50.3087C55.441 50.3506 49.8001 50.0607 44.016 49.446L43.9171 50.3765ZM60.7892 51.2444C65.9828 51.2022 70.6856 50.8565 74.7643 50.2088L74.6176 49.2845C70.5953 49.9233 65.9408 50.2667 60.7818 50.3087L60.7892 51.2444ZM74.7643 50.2088C76.7728 49.8887 78.614 49.4985 80.2355 49.0407L79.9822 48.1399C78.4032 48.5856 76.5986 48.969 74.6176 49.2845L74.7643 50.2088ZM80.2355 49.0407C81.8681 48.5832 83.294 48.053 84.4679 47.4661L84.0499 46.6287C82.9421 47.1827 81.5733 47.6939 79.9822 48.1399L80.2355 49.0407ZM84.4679 47.4661C85.6601 46.872 86.6218 46.2029 87.3068 45.4725L86.6244 44.8321C86.0383 45.457 85.178 46.0665 84.0499 46.6287L84.4679 47.4661ZM87.3068 45.4725C88.0082 44.7254 88.4335 43.8943 88.5223 42.997L87.591 42.9049C87.5267 43.5542 87.217 44.2008 86.6244 44.8321L87.3068 45.4725ZM88.5217 43.0025L88.537 42.8647L87.6069 42.7614L87.5916 42.8992L88.5217 43.0025ZM88.5375 42.8603C88.6576 41.6767 88.1832 40.4921 87.2431 39.3462L86.5195 39.9397C87.3634 40.9685 87.693 41.9126 87.6064 42.7658L88.5375 42.8603ZM86.5767 39.2877L86.55 39.3107L87.159 40.0213L87.1857 39.9982L86.5767 39.2877ZM86.5702 39.2942C85.2003 40.3417 83.1017 41.2509 80.3895 41.9864C77.6849 42.72 74.4032 43.2724 70.6946 43.6256C63.2776 44.3318 54.186 44.2383 44.6515 43.2246L44.5526 44.1551C54.1382 45.1743 63.2936 45.2703 70.7832 44.5572C74.5279 44.2005 77.8646 43.641 80.6346 42.8896C83.397 42.1404 85.6294 41.1917 87.1387 40.0376L86.5702 39.2942ZM44.6515 43.2246C35.1153 42.2147 26.1981 40.3957 19.0819 38.1464C15.5237 37.0216 12.4236 35.7918 9.92482 34.506C7.41921 33.2166 5.54871 31.8865 4.41956 30.5741L3.71015 31.1845C4.95282 32.6288 6.94489 34.025 9.49662 35.338C12.0552 36.6547 15.2073 37.9031 18.7999 39.0387C25.9854 41.3099 34.9649 43.1397 44.5526 44.1551L44.6515 43.2246ZM4.4392 30.5986L4.41623 30.5679L3.66755 31.1294L3.69051 31.1601L4.4392 30.5986ZM28.5449 60.3625C28.4735 60.3625 28.4223 60.3624 28.3732 60.3595L28.3184 61.2937C28.3996 61.2985 28.4785 61.2984 28.5449 61.2984V60.3625ZM28.3561 60.3588C26.8704 60.3262 25.7929 59.8945 25.0882 59.1435L24.4056 59.7837C25.332 60.7709 26.6818 61.2581 28.3356 61.2944L28.3561 60.3588ZM25.0882 59.1435L20.8309 54.6028L20.1482 55.243L24.4056 59.7837L25.0882 59.1435ZM20.8088 55.265L20.9237 55.1578L20.2852 54.4737L20.1703 54.5809L20.8088 55.265ZM20.2633 55.136C21.0714 55.9966 22.2192 56.4667 23.6244 56.5726L23.6948 55.6394C22.4582 55.5462 21.5539 55.1433 20.9455 54.4955L20.2633 55.136ZM23.6244 56.5726C23.8398 56.5888 24.0621 56.5969 24.2876 56.5969V55.6611C24.0841 55.6611 23.8853 55.6537 23.6948 55.6394L23.6244 56.5726ZM24.2876 56.5969C27.8039 56.5969 32.7142 54.62 38.1432 51.2848C43.5939 47.9363 49.6385 43.1738 55.4423 37.5044L54.7884 36.8349C49.026 42.4638 43.0355 47.181 37.6532 50.4875C32.2492 53.8074 27.5285 55.6611 24.2876 55.6611V56.5969ZM55.4423 37.5044C61.4285 31.6545 66.4824 25.4995 70.0175 19.9513C71.785 17.1772 73.1776 14.5475 74.1165 12.1774C75.0531 9.81328 75.5501 7.67801 75.4956 5.90252L74.5602 5.9312C74.6091 7.52679 74.16 9.52641 73.2464 11.8327C72.3351 14.1331 70.9736 16.7093 69.2283 19.4484C65.7378 24.9265 60.7322 31.0266 54.7884 36.8349L55.4423 37.5044ZM75.4956 5.90252C75.4511 4.47332 75.0478 3.28327 74.2398 2.42286L73.5572 3.06305C74.1657 3.71111 74.5206 4.65742 74.5602 5.9312L75.4956 5.90252ZM74.2178 3.08503L74.3326 2.97784L73.6941 2.29368L73.5792 2.40088L74.2178 3.08503ZM73.672 2.9558L77.9294 7.49653L78.6122 6.8565L74.3547 2.3157L73.672 2.9558ZM77.9294 7.49653C78.8799 8.51076 79.1961 10.1775 78.8033 12.462C78.4129 14.7337 77.3357 17.5157 75.6474 20.6292C72.2735 26.8511 66.5102 34.3032 59.1568 41.4868L59.8108 42.1562C67.2129 34.9251 73.0406 27.3997 76.4702 21.0752C78.1835 17.9156 79.3112 15.0322 79.7256 12.6205C80.138 10.2217 79.8593 8.1873 78.6122 6.8565L77.9294 7.49653ZM59.1568 41.4868C53.3384 47.1716 47.3498 51.9009 41.969 55.2057C36.5678 58.523 31.8464 60.3625 28.5449 60.3625V61.2984C32.1196 61.2984 37.029 59.338 42.4588 56.0031C47.9092 52.6557 53.9519 47.8805 59.8108 42.1562L59.1568 41.4868ZM20.9981 55.9205L24.5204 59.6802L25.2034 59.0405L21.681 55.2806L20.9981 55.9205ZM24.5204 59.6802C25.4168 60.6378 26.7291 61.109 28.3403 61.1413L28.359 60.2057C26.915 60.1766 25.8768 59.7598 25.2034 59.0405L24.5204 59.6802ZM28.3385 61.1413C31.6886 61.2212 36.5803 59.3667 42.0687 56.043L41.5839 55.2425C36.1226 58.5498 31.4275 60.2789 28.3608 60.2057L28.3385 61.1413ZM42.0687 56.043C47.7715 52.5866 53.8679 47.7463 59.6997 42.049L59.0458 41.3795C53.2541 47.0378 47.2138 51.8304 41.5839 55.2425L42.0687 56.043ZM59.6997 42.049C67.071 34.8468 72.8822 27.36 76.3102 21.0753C78.0229 17.9356 79.1535 15.0723 79.575 12.6801C79.9941 10.3014 79.7276 8.28332 78.4933 6.96739L77.8108 7.60758C78.7454 8.60412 79.0527 10.251 78.6534 12.5176C78.2563 14.7707 77.1763 17.5332 75.4886 20.6272C72.116 26.8103 66.3687 34.2245 59.0458 41.3795L59.6997 42.049ZM78.4933 6.96739L74.9749 3.21539L74.2922 3.85555L77.8108 7.60758L78.4933 6.96739ZM74.2165 3.74762C74.5156 4.33559 74.6881 5.06098 74.7133 5.93044L75.6488 5.90328C75.6204 4.92735 75.4254 4.06006 75.0506 3.32332L74.2165 3.74762ZM74.7133 5.93044C74.7632 7.53678 74.3135 9.54823 73.3981 11.8651C72.4851 14.1762 71.1205 16.7628 69.3712 19.5122C65.8727 25.0109 60.8545 31.1302 54.8956 36.9538L55.5496 37.623C61.5512 31.7578 66.6175 25.5836 70.1608 20.0147C71.9324 17.2303 73.3279 14.5898 74.2686 12.209C75.2068 9.83406 75.7043 7.68908 75.6488 5.90328L74.7133 5.93044ZM54.8956 36.9538C49.1217 42.5959 43.1142 47.3235 37.7123 50.6375C32.289 53.965 27.5461 55.8238 24.2835 55.8256L24.2837 56.7615C27.8206 56.7595 32.7529 54.7782 38.2018 51.4352C43.6722 48.079 49.7342 43.3059 55.5496 37.623L54.8956 36.9538ZM24.2835 55.8256C24.0763 55.8256 23.8774 55.8184 23.6827 55.8039L23.6135 56.7373C23.8323 56.7534 24.0544 56.7615 24.2837 56.7615L24.2835 55.8256ZM23.6857 55.8041C22.8371 55.7358 22.1353 55.5257 21.5766 55.1972L21.1024 56.0039C21.8071 56.4183 22.6521 56.6598 23.6106 56.7371L23.6857 55.8041Z" fill="white"/>
</g>
</g>
<path d="M70.2077 24.6467L68.2552 26.8176C69.0476 26.9822 69.6603 27.3153 70.0967 27.8092C70.5255 28.3068 70.7437 28.908 70.7514 29.6125C70.7591 30.1867 70.6135 30.7227 70.3149 31.2128C70.0164 31.7067 69.5569 32.101 68.9366 32.4035C68.3202 32.7059 67.5507 32.8553 66.6319 32.8553C65.958 32.8553 65.2918 32.7748 64.6295 32.6064C63.9825 32.4418 63.4158 32.2159 62.9411 31.9134C62.3706 31.5535 61.6126 30.9677 61.467 30.8223L62.9564 29.0994C63.0368 29.2104 63.9136 29.8537 63.9365 29.8689C64.2963 30.1064 64.6945 30.2901 65.1349 30.4202C65.602 30.5619 66.0652 30.6308 66.5208 30.6308C66.9841 30.6308 67.3516 30.5428 67.6234 30.3666C67.8914 30.1906 68.0255 29.9417 68.0216 29.6162C68.014 28.9845 67.524 28.6705 66.5514 28.6705H65.4182L65.399 26.9286L67.0798 25.0487H63.3163L63.2933 23.2607H57.0105L56.98 20.642L60.7472 17.9658C61.4901 17.4375 61.9073 16.9398 61.8997 16.3196C61.8806 14.7115 59.5527 14.6502 59.5719 16.2315H56.9837C56.9301 11.6372 64.4725 11.3577 64.5491 16.0438C64.5817 18.1638 62.9919 19.2641 61.4528 20.3293C61.1851 20.5145 60.9187 20.6989 60.663 20.8871H65.1884L65.1846 22.9201H70.1886L70.2077 24.6467Z" fill="white"/>
<path d="M41.296 26.5186C43.235 26.5186 44.8068 24.9124 44.8068 22.9311C44.8068 20.9499 43.235 19.3438 41.296 19.3438C39.357 19.3438 37.7852 20.9499 37.7852 22.9311C37.7852 24.9124 39.357 26.5186 41.296 26.5186Z" fill="white"/>
<path fill-rule="evenodd" clip-rule="evenodd" d="M35.7365 38.3189V40.3213H34.0289V39.5785H31.4715V40.3213H29.8481V38.3151H30.0127C30.2846 38.3112 30.4721 38.1619 30.5755 37.871C30.6789 37.5799 30.744 37.1703 30.767 36.642L30.8244 35.0684H34.9707V38.3189H35.7365ZM32.0955 37.7331C32.0496 37.9781 31.9691 38.1734 31.8467 38.3151H33.4011V36.3242H32.1989L32.1836 36.7569C32.1682 37.1627 32.1414 37.4881 32.0955 37.7331Z" fill="white"/>
<path d="M41.2522 38.7325C41.4705 39.0962 41.7767 39.3795 42.1672 39.5825C42.5578 39.7853 43.0019 39.8887 43.4996 39.8926C44.0089 39.8926 44.4453 39.7816 44.8166 39.5557C45.1842 39.3336 45.4484 39.0234 45.6016 38.6253L44.384 37.9859C44.1773 38.3995 43.8787 38.6062 43.4882 38.6062C43.2048 38.6062 42.9712 38.5066 42.7875 38.3114C42.6037 38.1161 42.5119 37.8443 42.5119 37.4998C42.5119 37.159 42.6037 36.891 42.7875 36.6995C42.9751 36.5081 43.2048 36.4124 43.4882 36.4124C43.8825 36.4124 44.1811 36.6191 44.384 37.0327L45.6016 36.3932C45.4484 35.9989 45.188 35.6888 44.8166 35.4629C44.4453 35.237 44.0089 35.126 43.4996 35.126C43.0019 35.126 42.5578 35.2255 42.1672 35.4285C41.7767 35.6313 41.4705 35.9108 41.2522 36.2708C41.034 36.6306 40.9268 37.0403 40.9268 37.4998C40.9268 37.9591 41.034 38.3688 41.2522 38.7325Z" fill="white"/>
<path fill-rule="evenodd" clip-rule="evenodd" d="M50.3277 39.7696H48.9303V38.5444H48.2181L47.4218 39.7696H45.7563L46.748 38.3261C46.4493 38.1922 46.2235 38.0121 46.0665 37.7787C45.9095 37.5489 45.8291 37.2733 45.8291 36.9479C45.8291 36.408 46.0282 35.9907 46.4264 35.6921C46.8245 35.3934 47.3682 35.2441 48.065 35.2441H50.3277V39.7696ZM47.441 37.0053C47.441 37.1852 47.4946 37.3154 47.6017 37.3958C47.709 37.48 47.8736 37.5221 48.0956 37.5221H48.9303V36.4961H48.1033C47.663 36.4999 47.441 36.6684 47.441 37.0053Z" fill="white"/>
<path d="M57.0341 39.7583H55.3955V35.2559H56.9843V37.6219H57.0686L58.3933 35.2559H60.0319V39.7583H58.4354V37.4305H58.3512L57.0341 39.7583Z" fill="white"/>
<path d="M75.3311 39.7583H76.9696L78.2867 37.4305H78.3709V39.7583H79.9712V35.2559H78.3288L77.0041 37.6219H76.9199V35.2559H75.3311V39.7583Z" fill="white"/>
<path d="M60.4839 39.7586L60.4383 39.7585L60.3848 39.7583V38.5369C60.9859 38.5369 61.1237 38.292 61.208 37.465L61.4376 35.2559H65.2356V39.7583H63.6391V36.5652H62.7968L62.5671 38.4337C62.406 39.7663 61.2261 39.7615 60.4839 39.7586Z" fill="white"/>
<path fill-rule="evenodd" clip-rule="evenodd" d="M70.3611 37.5077C70.3611 36.0681 69.4117 35.1416 67.9645 35.1416C66.5134 35.1416 65.4912 36.0566 65.4912 37.4886C65.4912 38.9358 66.5019 39.87 67.953 39.87C69.0671 39.87 69.9668 39.3454 70.1965 38.5069L68.8221 38.2542C68.6958 38.5414 68.4239 38.7443 68.041 38.7443C67.5586 38.7443 67.2409 38.438 67.1336 37.9518H70.3458C70.3535 37.8676 70.3611 37.6379 70.3611 37.5077ZM67.1222 37.0789C67.2064 36.5812 67.4974 36.2672 67.93 36.2672C68.3894 36.2672 68.7187 36.6347 68.7532 37.0789H67.1222Z" fill="white"/>
<path fill-rule="evenodd" clip-rule="evenodd" d="M82.7033 35.1416C84.1505 35.1416 85.1 36.0681 85.1 37.5077C85.1 37.6379 85.0923 37.8676 85.0847 37.9518H81.8725C81.9797 38.438 82.2975 38.7443 82.7799 38.7443C83.1627 38.7443 83.4346 38.5414 83.5609 38.2542L84.9353 38.5069C84.7057 39.3454 83.806 39.87 82.6918 39.87C81.2408 39.87 80.23 38.9358 80.23 37.4886C80.23 36.0566 81.2523 35.1416 82.7033 35.1416ZM82.6727 36.2672C82.2401 36.2672 81.949 36.5812 81.8649 37.0789H83.4959C83.4614 36.6347 83.1322 36.2672 82.6727 36.2672Z" fill="white"/>
<path fill-rule="evenodd" clip-rule="evenodd" d="M40.766 37.5077C40.766 36.0681 39.8165 35.1416 38.3693 35.1416C36.9183 35.1416 35.896 36.0566 35.896 37.4886C35.896 38.9358 36.9068 39.87 38.3579 39.87C39.472 39.87 40.3717 39.3454 40.6013 38.5069L39.2269 38.2542C39.1006 38.5414 38.8287 38.7443 38.4458 38.7443C37.9635 38.7443 37.6457 38.438 37.5385 37.9518H40.7507L40.7522 37.9183C40.757 37.817 40.766 37.6229 40.766 37.5077ZM37.5271 37.0789C37.6113 36.5812 37.9022 36.2672 38.3348 36.2672C38.7943 36.2672 39.1235 36.6347 39.158 37.0789H37.5271Z" fill="white"/>
<path d="M73.6012 39.7583H72.0008V36.5652H70.6187V35.2559H74.9756V36.5652H73.6012V39.7583Z" fill="white"/>
<path d="M52.0652 39.7583H53.6618V36.5652H55.0401V35.2559H50.6831V36.5652H52.0652V39.7583Z" fill="white"/>
<path d="M32.6978 47.6254H31.0591V43.123H32.6479V45.4852H32.7321L34.0568 43.123H35.6994V47.6254H34.099V45.2939H34.0147L32.6978 47.6254Z" fill="white"/>
<path fill-rule="evenodd" clip-rule="evenodd" d="M38.8768 47.7022H40.4771V44.5092H41.5717C41.4654 44.7845 41.4085 45.0938 41.4085 45.432C41.4085 46.8791 42.4192 47.8133 43.8702 47.8133C44.9843 47.8133 45.884 47.2888 46.1138 46.4504L44.7393 46.1976C44.6129 46.4848 44.3412 46.6877 43.9583 46.6877C43.4759 46.6877 43.1582 46.3814 43.0509 45.8952H46.2631C46.2708 45.811 46.2784 45.5851 46.2784 45.451C46.2784 44.0116 45.329 43.085 43.8817 43.085C43.0047 43.085 42.2842 43.4193 41.8516 44V43.1998H37.4946V44.5092H38.8768V47.7022ZM43.851 44.2144C43.4184 44.2144 43.1275 44.5284 43.0433 45.0261H44.6742C44.6397 44.582 44.3105 44.2144 43.851 44.2144Z" fill="white"/>
<path d="M45.6943 47.7026H47.5473L48.3207 46.309H48.4049L49.186 47.7026H51.039L49.5421 45.3672L50.9701 43.2002H49.1707L48.4049 44.4675H48.3207L47.5626 43.2002H45.7555L47.1836 45.3672L45.6943 47.7026Z" fill="white"/>
<path d="M52.7842 47.7028H51.1953V43.2119H52.7842V44.7893H54.0477V43.2119H55.6441V47.7028H54.0477V46.0987H52.7842V47.7028Z" fill="white"/>
<path fill-rule="evenodd" clip-rule="evenodd" d="M58.3818 43.0898C56.8619 43.0898 55.9009 43.9781 55.9009 45.4559C55.9009 46.9223 56.8695 47.822 58.3818 47.822C59.8864 47.822 60.8551 46.9337 60.8551 45.4559C60.8551 43.9895 59.8864 43.0898 58.3818 43.0898ZM58.3818 46.4476C57.8535 46.4476 57.4974 46.0379 57.4974 45.452C57.4974 44.8663 57.8535 44.4567 58.3818 44.4567C58.8986 44.4567 59.2662 44.8663 59.2662 45.452C59.2662 46.0379 58.9025 46.4476 58.3818 46.4476Z" fill="white"/>
<path d="M60.9682 47.7028H60.9654L60.919 47.7027L60.8691 47.7026V46.4813C61.4703 46.4813 61.6081 46.2362 61.6923 45.4093L61.922 43.2002H65.72V47.7026H64.1234V44.5096H63.2812L63.0514 46.3779C62.8903 47.7105 61.7106 47.7058 60.9682 47.7028Z" fill="white"/>
<path fill-rule="evenodd" clip-rule="evenodd" d="M68.4565 43.0898C66.9366 43.0898 65.9756 43.9781 65.9756 45.4559C65.9756 46.9223 66.9443 47.822 68.4565 47.822C69.9613 47.822 70.9299 46.9337 70.9299 45.4559C70.926 43.9895 69.9574 43.0898 68.4565 43.0898ZM68.4565 46.4476C67.9282 46.4476 67.5721 46.0379 67.5721 45.452C67.5721 44.8663 67.9282 44.4567 68.4565 44.4567C68.9735 44.4567 69.3409 44.8663 69.3409 45.452C69.3409 46.0379 68.9735 46.4476 68.4565 46.4476Z" fill="white"/>
<path d="M72.7682 47.7026H71.1792V43.2002H74.7551V44.5096H72.7682V47.7026Z" fill="white"/>
<path d="M75.1099 47.7026H76.7484L78.0655 45.3748H78.1497V47.7026H79.7463V43.2002H78.1076L76.7829 45.5663H76.6987V43.2002H75.1099V47.7026Z" fill="white"/>
<path d="M83.7781 41.1943C83.7781 41.9716 83.2076 42.5305 82.4189 42.5305C81.6379 42.5305 81.0674 41.9716 81.0674 41.1943H82.0284C82.0284 41.5427 82.1739 41.7533 82.4189 41.7533C82.6715 41.7533 82.8171 41.5427 82.8171 41.1943H83.7781Z" fill="white"/>
<path d="M80.1055 47.7027H81.744L83.0611 45.3749H83.1453V47.7027H84.7457V43.2002H83.1032L81.7785 45.5663H81.6943V43.2002H80.1055V47.7027Z" fill="white"/>
<path fill-rule="evenodd" clip-rule="evenodd" d="M26.2674 47.6254H24.7597L24.7623 47.6293H22.8749L21.7263 45.8222H21.0333V47.6293H19.4482V43.1269H21.0372V44.7769H21.7302L22.8672 43.1269H24.6249V43.123H26.2137V45.4852H26.3018L27.6265 43.123H29.2652V47.6254H27.6686V45.2939H27.5844L26.2674 47.6254ZM23.1046 45.29L24.6249 47.4353V43.2736L23.1046 45.29Z" fill="white"/>
<path d="M5.49805 47.6305H7.08691V46.0263H8.35418V47.6305H9.9507V43.1357H8.35035V44.7131H7.08691V43.1357H5.49805V47.6305Z" fill="white"/>
<path fill-rule="evenodd" clip-rule="evenodd" d="M11.735 47.7333C12.3055 47.7333 12.8299 47.5151 13.0789 47.0978H13.1631V47.6299H14.7595V44.6704C14.7595 43.6597 13.9019 43.0127 12.6003 43.0127C11.2909 43.0127 10.4524 43.6597 10.4524 44.6628H11.9915C11.9915 44.28 12.2365 44.0502 12.585 44.0502C12.9487 44.0502 13.1631 44.2761 13.1631 44.6091V44.8082L12.3973 44.904C10.9616 45.103 10.2725 45.5663 10.2725 46.4393C10.2763 47.2624 10.8697 47.7333 11.735 47.7333ZM12.3552 46.7494C12.0068 46.7494 11.8039 46.5656 11.8039 46.2861C11.8039 46.0258 11.9915 45.842 12.4586 45.7807L13.1631 45.6774V45.9492C13.1631 46.4087 12.8299 46.7494 12.3552 46.7494Z" fill="white"/>
<path d="M17.7919 47.7069L19.4114 43.1279H17.7804L17.0185 45.2834L15.9465 43.1279H14.2236L16.3562 47.1671L15.5369 49.491H17.1678L17.7919 47.7069Z" fill="white"/>
<path d="M75.0422 22.916H70.5703L70.5932 25.0486H72.3697L72.4617 32.6636H75.1608L75.0422 22.916Z" fill="white"/>
<path d="M47.7948 16.2315C47.7374 11.6372 55.2835 11.3577 55.3602 16.0438C55.3958 18.1567 53.8144 19.254 52.2816 20.3175C52.009 20.5065 51.7381 20.6945 51.4779 20.8871H56.0033V23.2607H47.8217L47.791 20.642L51.5583 17.9658C52.3011 17.4375 52.7184 16.9398 52.7108 16.3196C52.6916 14.7115 50.3638 14.6502 50.383 16.2315H47.7948Z" fill="white"/>
</g>
<defs>
<clipPath id="clip0_3622_21868">
<rect width="88.9057" height="62" fill="white" transform="translate(0.73584)"/>
</clipPath>
</defs>
</svg>
