<svg width="110" height="61" viewBox="0 0 110 61" fill="none" xmlns="http://www.w3.org/2000/svg">
<g clip-path="url(#clip0_3217_10533)">
<path d="M28.9496 26.8221H22.2058L16.42 16.9748H16.3051L10.6725 26.8221H4.38863L12.9715 12.9898L4.81011 0.0771484H11.5921L16.8032 9.11986H16.9181L22.2058 0.0771484H28.4898L20.2517 13.1048L28.9496 26.8221ZM49.1706 26.8221L47.2548 20.4616H38.327L36.4112 26.8221H30.5104L39.3232 0.0771484H46.5267L55.2246 26.8221H49.1706ZM42.8484 5.36484H42.6568L39.7064 15.5187H45.8371L42.8484 5.36484ZM58.9248 0.0771484H64.7489V10.7292H68.6189L72.6038 3.25743C73.1914 2.18456 73.8428 1.39268 74.5579 0.881796C75.2988 0.345363 76.2439 0.0771484 77.3934 0.0771484H79.769V5.24989H77.3934L74.6346 10.4609C74.277 11.1506 73.8682 11.6871 73.4084 12.0702C72.9742 12.4279 72.4505 12.7089 71.8375 12.9132V13.1431C72.5017 13.2708 73.0636 13.5263 73.5234 13.9094C74.0088 14.2671 74.4303 14.8163 74.7878 15.557L77.9298 21.6494H80.3054V26.8221H77.2784C76.2056 26.8221 75.3115 26.5922 74.5963 26.1324C73.9066 25.6726 73.2424 24.8169 72.6038 23.5652L68.6189 15.8636H64.7489V26.8221H58.9248V0.0771484ZM101.257 26.8221L99.3413 20.4616H90.4135L88.4977 26.8221H82.5969L91.4097 0.0771484H98.6132L107.311 26.8221H101.257ZM94.9349 5.36484H94.7433L91.7929 15.5187H97.9235L94.9349 5.36484ZM13.9097 38.9685V60.5407H8.08558V38.9685H0.84375V33.7957H21.1515V38.9685H13.9097ZM34.8917 61.0005C33.1291 61.0005 31.5198 60.7067 30.0638 60.1192C28.6078 59.5318 27.3688 58.6632 26.3471 57.5137C25.3253 56.3386 24.5333 54.8955 23.9715 53.1839C23.4094 51.447 23.1285 49.4416 23.1285 47.1682C23.1285 44.8948 23.4094 42.9024 23.9715 41.1908C24.5333 39.4539 25.3253 38.0106 26.3471 36.8611C27.3688 35.686 28.6078 34.8047 30.0638 34.2172C31.5198 33.6298 33.1291 33.3359 34.8917 33.3359C36.6543 33.3359 38.2635 33.6298 39.7196 34.2172C41.1756 34.8047 42.4145 35.686 43.4363 36.8611C44.458 38.0106 45.2499 39.4539 45.8119 41.1908C46.3738 42.9024 46.6549 44.8948 46.6549 47.1682C46.6549 49.4416 46.3738 51.447 45.8119 53.1839C45.2499 54.8955 44.458 56.3386 43.4363 57.5137C42.4145 58.6632 41.1756 59.5318 39.7196 60.1192C38.2635 60.7067 36.6543 61.0005 34.8917 61.0005ZM34.8917 55.8278C36.6543 55.8278 38.0208 55.253 38.9916 54.1035C39.9878 52.954 40.4859 51.3064 40.4859 49.1607V45.1758C40.4859 43.03 39.9878 41.3824 38.9916 40.2329C38.0208 39.0834 36.6543 38.5087 34.8917 38.5087C33.1291 38.5087 31.7497 39.0834 30.7535 40.2329C29.7827 41.3824 29.2975 43.03 29.2975 45.1758V49.1607C29.2975 51.3064 29.7827 52.954 30.7535 54.1035C31.7497 55.253 33.1291 55.8278 34.8917 55.8278ZM67.5322 49.5822H57.34V60.5407H51.5159V33.7957H57.34V44.4478H67.5322V33.7957H73.3563V60.5407H67.5322V49.5822ZM79.2431 33.7957H85.0673V43.4515H91.8876C93.1392 43.4515 94.2632 43.6687 95.2595 44.1029C96.2557 44.5117 97.0987 45.0864 97.7884 45.8272C98.5035 46.5679 99.0528 47.4748 99.436 48.5476C99.8191 49.5949 100.011 50.7444 100.011 51.9961C100.011 53.2733 99.8191 54.4357 99.436 55.4829C99.0528 56.5302 98.5035 57.4244 97.7884 58.1651C97.0987 58.9058 96.2557 59.4935 95.2595 59.9277C94.2632 60.3364 93.1392 60.5407 91.8876 60.5407H79.2431V33.7957ZM91.1979 55.4829C92.0663 55.4829 92.7433 55.2658 93.2287 54.8315C93.7395 54.3717 93.995 53.7076 93.995 52.8391V51.1532C93.995 50.2846 93.7395 49.6332 93.2287 49.199C92.7433 48.7392 92.0663 48.5093 91.1979 48.5093H85.0673V55.4829H91.1979ZM103.268 33.7957H109.092V60.5407H103.268V33.7957Z" fill="white"/>
</g>
<defs>
<clipPath id="clip0_3217_10533">
<rect width="108.359" height="61" fill="white" transform="translate(0.820312)"/>
</clipPath>
</defs>
</svg>
