<svg width="320" height="233" viewBox="0 0 320 233" fill="none" xmlns="http://www.w3.org/2000/svg">
<g clip-path="url(#clip0_3249_15229)">
<path d="M385.344 286.269C375.384 274.805 370.386 265.901 365.076 250.337C365.037 250.222 364.969 250.115 364.881 250.031C354.002 239.595 351.831 233.441 346.355 220.203C338.791 205.415 334.53 197.166 325.433 191.873C325.386 191.846 325.341 191.812 325.301 191.775C316.267 183.46 311.183 174.489 302.108 152.92C302.061 152.808 301.984 152.705 301.89 152.627C285.69 139.235 278.756 132.097 274.731 121.062C274.717 121.023 274.7 120.985 274.68 120.949C267.877 108.878 261.521 94.1942 254.049 91.5662C253.918 91.5199 253.803 91.4466 253.715 91.3383C249.972 86.7423 245.582 73.1193 244.465 71.6755C242.923 69.6818 226.369 58.1873 221.347 46.9689C221.32 46.908 221.285 46.8496 221.247 46.7984L209.566 31.3659C209.324 31.0464 208.92 30.9934 208.625 31.2429L182.064 53.7509C182.011 53.7964 181.963 53.8499 181.922 53.9114C178.686 58.764 175.643 66.1777 171.486 69.8899C164.847 75.8192 149.354 94.7955 143.003 101.156L130.244 113.883" stroke="url(#paint0_linear_3249_15229)" stroke-width="0.639768" stroke-linejoin="round"/>
<path d="M209.022 31.6094C225.736 63.4736 213.37 82.9215 223.606 95.5599C223.648 95.6109 223.699 95.6583 223.752 95.6967C253.848 117.379 247.013 143.184 262.188 151.219C281.093 160.74 275.11 162.251 290.196 169.883C290.248 169.909 290.3 169.944 290.345 169.982C304.157 181.728 308.678 203.663 322.719 249.035" stroke="url(#paint1_linear_3249_15229)" stroke-width="0.639768" stroke-linejoin="round"/>
<path d="M182.063 53.7511L208.625 31.243C225.337 63.1035 213.37 82.917 223.6 95.5555C223.644 95.6094 223.698 95.6595 223.754 95.7C253.845 117.382 247.011 143.185 262.186 151.219C281.089 160.739 275.109 162.251 290.189 169.881C290.244 169.909 290.299 169.945 290.347 169.985C304.155 181.732 308.677 203.667 322.716 249.035L331.444 292.262C331.574 292.909 330.86 293.392 330.302 293.04C301.559 274.921 286.825 260.551 264.349 227.447C264.323 227.409 264.293 227.372 264.26 227.339L210.075 172.438C202.564 166 177.363 157.418 156.967 137.05C156.932 137.016 156.894 136.984 156.854 136.957C147.77 130.816 140.298 127.435 135.078 119.828C134.126 118.434 132.21 115.782 130.956 114.501C130.618 114.155 130.571 113.557 130.913 113.215L143.002 101.156C149.353 94.7956 164.846 75.8193 171.486 69.89C175.642 66.1779 178.685 58.7642 181.921 53.9115C181.962 53.85 182.01 53.7966 182.063 53.7511Z" fill="url(#paint2_radial_3249_15229)"/>
<path d="M390.164 207.067C361.091 191.606 372.746 183.323 355.994 171.275C355.787 171.126 355.501 171.095 355.269 171.2C336.503 179.671 328.254 187.147 316.734 203.683C307.733 216.176 285.941 216.034 282.896 219.08C258.578 238.162 226.508 243.592 222.684 251.351C222.669 251.382 222.653 251.411 222.634 251.439C213.616 264.939 206.896 268.86 190.685 267.131M355.781 171.196C349.589 183.087 349.894 190.994 349.894 209.098C349.894 218.225 338.413 216.039 322.367 253.309C322.334 253.384 322.287 253.457 322.231 253.518L309.499 267.255C309.471 267.285 309.446 267.317 309.424 267.352L304.72 274.576C303.592 276.042 301.234 279.042 300.828 279.313C300.428 279.58 298.024 281.401 296.821 282.318C296.785 282.345 296.747 282.369 296.707 282.389L295.076 283.204" stroke="url(#paint3_linear_3249_15229)" stroke-width="0.581979" stroke-linejoin="round"/>
<path d="M79.1953 107.602C57.222 94.1346 65.7278 92.5398 55.8044 86.8692C39.1908 78.0322 36.5582 74.8211 31.2151 64.7977C31.1877 64.7462 31.1533 64.6968 31.1142 64.6535L18.6645 50.8394C18.4209 50.5691 18.0135 50.5244 17.7172 50.7353L-10.5656 70.8629C-10.6196 70.9014 -10.6677 70.9466 -10.7089 70.9985C-14.1516 75.3327 -17.3887 81.9577 -21.8109 85.2744C-28.8721 90.5703 -35.6112 96.4281 -42.3666 102.109C-48.5302 108.625 -59.1614 117.624 -63.0994 125.5C-63.3829 126.067 -69.3606 130.698 -72.314 132.942C-74.2632 134.124 -78.2681 136.557 -78.6933 136.841C-79.1186 137.124 -80.8789 137.55 -81.7058 137.727" stroke="url(#paint4_linear_3249_15229)" stroke-width="0.609533" stroke-linejoin="round"/>
<path d="M-10.5639 70.8629L17.2629 51.0598C17.7042 50.7457 18.3205 51.0224 18.3759 51.5612C20.0524 67.866 12.7276 74.7487 4.61872 86.5149C-7.76806 102.586 9.43894 96.656 4.66799 110.649C4.63728 110.739 4.58561 110.83 4.52348 110.902C-9.49768 127.171 -17.0323 136.454 -29.2152 153.447C-29.2392 153.48 -29.2693 153.515 -29.2982 153.545C-33.9345 158.293 -19.0603 160.479 -38.7784 182.689C-38.8055 182.719 -38.8332 182.756 -38.8551 182.791C-47.4387 196.334 -42.3723 189.492 -48.0353 205.419L-54.0603 221.899C-55.1899 224.412 -57.7532 229.708 -58.9695 230.789C-60.4582 232.113 -80.0854 248.821 -82.9667 253.483C-83.0791 253.665 -83.2491 253.791 -83.4581 253.836L-90.0081 255.234C-90.4076 255.319 -90.798 255.053 -90.8603 254.649C-92.102 246.605 -91.2584 241.656 -86.1924 232.637C-86.1536 232.568 -86.124 232.488 -86.1091 232.41C-83.9808 221.341 -99.3406 219.568 -79.0588 162.943C-79.0465 162.909 -79.0302 162.872 -79.0132 162.84C-71.8034 149.229 -80.0008 146.986 -81.5967 138.387C-81.6652 138.018 -81.4197 137.666 -81.0542 137.58C-80.1736 137.371 -79.0243 137.062 -78.6917 136.841C-78.2664 136.557 -74.2616 134.124 -72.3123 132.942C-69.3589 130.698 -63.3813 126.067 -63.0977 125.5C-59.1598 117.624 -48.5285 108.625 -42.3649 102.109C-35.6095 96.4281 -28.8704 90.5703 -21.8092 85.2744C-17.387 81.9577 -14.15 75.3327 -10.7073 70.9985C-10.666 70.9466 -10.618 70.9014 -10.5639 70.8629Z" fill="url(#paint5_radial_3249_15229)"/>
<path d="M17.7337 51.2515C19.9 68.4232 12.925 74.4652 4.6206 86.515C-7.76842 102.589 9.44703 96.654 4.66729 110.657C4.63818 110.742 4.58925 110.828 4.53043 110.897C-9.49474 127.17 -17.0297 136.454 -29.2152 153.45C-29.238 153.482 -29.2665 153.515 -29.2938 153.543C-33.938 158.293 -19.0538 160.475 -38.7788 182.692C-38.8044 182.721 -38.8307 182.755 -38.8514 182.788C-47.4375 196.335 -42.3701 189.491 -48.0335 205.419L-54.0584 221.899" stroke="url(#paint6_linear_3249_15229)" stroke-width="0.609533" stroke-linejoin="round"/>
<path d="M331.695 293.94C301.967 275.372 287.115 261.082 264.253 227.411C264.229 227.374 264.2 227.339 264.169 227.308L209.981 172.405C202.47 165.966 177.267 157.383 156.87 137.014C156.838 136.981 156.802 136.951 156.763 136.926C147.678 130.783 140.205 127.403 134.984 119.794C129.54 111.86 125.065 107.996 119.949 105.104L103.465 96.161C103.252 96.0452 102.991 96.0461 102.777 96.1609C88.9614 103.575 83.5895 110.286 73.6433 121.689C73.6085 121.729 73.5679 121.767 73.5252 121.798C53.1711 136.768 42.4866 146.3 25.5139 165.7C25.4666 165.754 25.4109 165.801 25.35 165.839C0.865703 181.031 -25.5878 197.712 -50.4145 223.916C-50.4383 223.941 -50.4647 223.965 -50.4919 223.987C-75.3822 243.661 -87.256 257.021 -108.086 281.231" stroke="url(#paint7_linear_3249_15229)" stroke-width="0.615681" stroke-linejoin="round"/>
<path d="M25.5149 165.699C42.029 146.819 48.4983 140.323 67.6084 126.181C68.1556 125.776 68.9461 126.296 68.8643 126.972C67.9269 134.719 74.5562 137.562 80.897 141.815C81.1376 141.977 81.2639 142.27 81.2168 142.555C78.5367 158.827 56.5454 160.276 52.1133 183.323C49.4285 193.705 26.2104 202.13 22.4257 215.39C20.6706 222.945 18.2134 238.595 22.4257 240.757C15.9456 237.848 1.9945 232.182 -2.29634 232.638C-2.35509 232.644 -2.40566 232.658 -2.46059 232.68C-5.09943 233.724 -11.3471 236.744 -15.8955 240.757C-20.4907 244.812 -26.5951 250.218 -29.0728 252.414L-51.9069 270.715C-52 270.789 -52.1101 270.84 -52.2273 270.862L-106.064 280.856C-106.735 280.981 -107.184 280.184 -106.738 279.667C-86.7328 256.437 -74.8403 243.233 -50.4913 223.987C-50.4641 223.965 -50.4378 223.941 -50.4139 223.916C-25.5872 197.712 0.866295 181.03 25.3506 165.839C25.4115 165.801 25.4677 165.753 25.5149 165.699Z" fill="url(#paint8_radial_3249_15229)"/>
<path d="M152.703 171.509C131.782 160.423 138.728 152.731 125.179 139.153C125.153 139.127 125.122 139.1 125.092 139.078C109.223 127.446 116.804 110.996 103.035 95.9756" stroke="url(#paint9_linear_3249_15229)" stroke-width="0.615681" stroke-linejoin="round"/>
<path d="M69.2943 125.688C66.839 135.159 74.3117 137.297 81.2867 142.082M174.906 216.761C151.258 214.628 139.083 186.208 131.905 185.833C131.808 185.828 131.714 185.809 131.625 185.772C105.773 174.891 95.7755 169.334 90.4152 153.432C88.553 147.907 84.99 144.622 81.2867 142.082M81.2867 142.082C78.9598 158.802 56.5859 160.055 52.1111 183.324C49.4263 193.705 26.2082 202.13 22.4235 215.39" stroke="url(#paint10_linear_3249_15229)" stroke-width="0.615681" stroke-linejoin="round"/>
<path d="M208.617 171.323C201.776 180.348 208.617 191.5 199.095 203.391C186.35 216.171 187.839 224.275 163.65 229.68C163.609 229.689 163.563 229.695 163.522 229.697C145.401 230.563 145.884 245.016 121.299 253.114C101.992 259.842 107.283 257.959 86.9803 272.011" stroke="url(#paint11_linear_3249_15229)" stroke-width="0.615681" stroke-linejoin="round"/>
<path d="M87.9062 287.667C57.5399 271.412 33.9635 238.684 -2.08379 232.575C-2.22716 232.551 -2.37803 232.572 -2.50989 232.633C-11.8766 236.988 -16.602 240.272 -23.7842 247.752C-31.6456 256.451 -47.9479 259.745 -53.3177 262.788L-73.5437 276.57C-80.1689 282.576 -84.4596 284.978 -91.8007 287.309" stroke="url(#paint12_linear_3249_15229)" stroke-width="0.615681" stroke-linejoin="round"/>
<mask id="mask0_3249_15229" style="mask-type:alpha" maskUnits="userSpaceOnUse" x="130" y="31" width="202" height="263">
<path d="M182.322 53.6106L208.167 31.7092C208.534 31.398 209.102 31.5196 209.321 31.948C225.384 63.3142 213.72 82.8889 223.859 95.4153C223.903 95.4691 223.957 95.5193 224.013 95.5598C254.104 117.242 247.27 143.044 262.445 151.079C281.348 160.599 275.368 162.11 290.448 169.74C290.503 169.768 290.558 169.804 290.606 169.845C304.414 181.592 308.936 203.526 322.975 248.895L331.632 292.156C331.757 292.778 331.069 293.241 330.532 292.903C301.751 274.766 287.012 260.399 264.521 227.273C264.495 227.235 264.465 227.198 264.432 227.165L210.247 172.264C202.736 165.826 177.534 157.244 157.139 136.876C157.104 136.842 157.066 136.81 157.026 136.783C147.941 130.641 140.47 127.261 135.25 119.654C133.486 117.083 131.824 114.94 130.209 113.119L143.26 101.015C149.612 94.6552 165.104 75.6789 171.744 69.7495C175.9 66.0374 178.943 58.6237 182.179 53.771C182.22 53.7096 182.268 53.6561 182.322 53.6106Z" fill="url(#paint13_linear_3249_15229)"/>
</mask>
<g mask="url(#mask0_3249_15229)">
<path d="M130.071 127.479H336.516" stroke="#12D6A7" stroke-width="0.639768"/>
<path d="M130.071 82.5405H336.516" stroke="#12D6A7" stroke-width="0.639768"/>
<path d="M130.071 185.256H336.516" stroke="#12D6A7" stroke-width="0.639768"/>
<path d="M130.071 50.4419H336.516" stroke="#12D6A7" stroke-width="0.639768"/>
<path d="M130.071 153.158H336.516" stroke="#12D6A7" stroke-width="0.639768"/>
<path d="M130.071 101.8H336.516" stroke="#12D6A7" stroke-width="0.639768"/>
<path d="M130.071 204.516H336.516" stroke="#12D6A7" stroke-width="0.639768"/>
<path d="M130.071 37.6025H336.516" stroke="#12D6A7" stroke-width="0.639768"/>
<path d="M130.071 140.318H336.516" stroke="#12D6A7" stroke-width="0.639768"/>
<path d="M130.071 88.9604H336.516" stroke="#12D6A7" stroke-width="0.639768"/>
<path d="M130.071 191.676H336.516" stroke="#12D6A7" stroke-width="0.639768"/>
<path d="M130.071 63.2817H336.516" stroke="#12D6A7" stroke-width="0.639768"/>
<path d="M130.071 165.998H336.516" stroke="#12D6A7" stroke-width="0.639768"/>
<path d="M130.071 114.639H336.516" stroke="#12D6A7" stroke-width="0.639768"/>
<path d="M130.071 217.355H336.516" stroke="#12D6A7" stroke-width="0.639768"/>
<path d="M130.071 44.0225H336.516" stroke="#12D6A7" stroke-width="0.639768"/>
<path d="M130.071 146.738H336.516" stroke="#12D6A7" stroke-width="0.639768"/>
<path d="M130.071 95.3804H336.516" stroke="#12D6A7" stroke-width="0.639768"/>
<path d="M130.071 198.096H336.516" stroke="#12D6A7" stroke-width="0.639768"/>
<path d="M130.071 69.7017H336.516" stroke="#12D6A7" stroke-width="0.639768"/>
<path d="M130.071 172.417H336.516" stroke="#12D6A7" stroke-width="0.639768"/>
<path d="M130.071 121.059H336.516" stroke="#12D6A7" stroke-width="0.639768"/>
<path d="M130.071 223.775H336.516" stroke="#12D6A7" stroke-width="0.639768"/>
<path d="M130.071 56.8618H336.516" stroke="#12D6A7" stroke-width="0.639768"/>
<path d="M130.071 159.577H336.516" stroke="#12D6A7" stroke-width="0.639768"/>
<path d="M130.071 108.22H336.516" stroke="#12D6A7" stroke-width="0.639768"/>
<path d="M130.071 210.936H336.516" stroke="#12D6A7" stroke-width="0.639768"/>
<path d="M130.071 76.1211H336.516" stroke="#12D6A7" stroke-width="0.639768"/>
<path d="M130.071 178.837H336.516" stroke="#12D6A7" stroke-width="0.639768"/>
<path d="M130.071 133.898H336.516" stroke="#12D6A7" stroke-width="0.639768"/>
<path d="M130.071 230.194H336.516" stroke="#12D6A7" stroke-width="0.639768"/>
</g>
<mask id="mask1_3249_15229" style="mask-type:alpha" maskUnits="userSpaceOnUse" x="60" y="23" width="56" height="56">
<path d="M115.2 51.0219C115.2 66.127 102.955 78.372 87.8501 78.372C72.745 78.372 60.5 66.127 60.5 51.0219C60.5 35.9169 72.745 23.6719 87.8501 23.6719C102.955 23.6719 115.2 35.9169 115.2 51.0219Z" fill="#D9D9D9"/>
</mask>
<g mask="url(#mask1_3249_15229)">
<g opacity="0.8" filter="url(#filter0_f_3249_15229)">
<path d="M90.2862 39.8581C83.8794 38.578 61.6595 66.0069 57.2829 72.0136C41.9057 69.2233 50.0719 50.1222 49.8922 26.6704C49.7124 3.21851 79.9242 -1.91293 102.166 0.931138C119.96 3.2064 127.359 20.9369 128.834 29.5178C127.241 46.6467 126.183 51.3156 116.847 49.265C105.176 46.7017 98.2948 41.4583 90.2862 39.8581Z" fill="#12D6A7"/>
<path d="M90.2862 39.8581C83.8794 38.578 61.6595 66.0069 57.2829 72.0136C41.9057 69.2233 50.0719 50.1222 49.8922 26.6704C49.7124 3.21851 79.9242 -1.91293 102.166 0.931138C119.96 3.2064 127.359 20.9369 128.834 29.5178C127.241 46.6467 126.183 51.3156 116.847 49.265C105.176 46.7017 98.2948 41.4583 90.2862 39.8581Z" stroke="black" stroke-width="0.312187"/>
</g>
</g>
</g>
<defs>
<filter id="filter0_f_3249_15229" x="16.5099" y="-31.1537" width="143.7" height="134.557" filterUnits="userSpaceOnUse" color-interpolation-filters="sRGB">
<feFlood flood-opacity="0" result="BackgroundImageFix"/>
<feBlend mode="normal" in="SourceGraphic" in2="BackgroundImageFix" result="shape"/>
<feGaussianBlur stdDeviation="15.6093" result="effect1_foregroundBlur_3249_15229"/>
</filter>
<linearGradient id="paint0_linear_3249_15229" x1="219.276" y1="-14.0046" x2="362.094" y2="150.825" gradientUnits="userSpaceOnUse">
<stop stop-color="#12D6A7"/>
<stop offset="0.907986" stop-color="#12D6A7" stop-opacity="0"/>
</linearGradient>
<linearGradient id="paint1_linear_3249_15229" x1="194.105" y1="9.14035" x2="304.36" y2="121.391" gradientUnits="userSpaceOnUse">
<stop stop-color="#12D6A7"/>
<stop offset="0.907986" stop-color="#12D6A7" stop-opacity="0"/>
</linearGradient>
<radialGradient id="paint2_radial_3249_15229" cx="0" cy="0" r="1" gradientUnits="userSpaceOnUse" gradientTransform="translate(120.614 24.0071) rotate(51.4682) scale(177.09 151.962)">
<stop stop-color="#12D6A7" stop-opacity="0.39"/>
<stop offset="0.860413" stop-color="#12D6A7" stop-opacity="0"/>
</radialGradient>
<linearGradient id="paint3_linear_3249_15229" x1="377.744" y1="140.111" x2="316.665" y2="258.361" gradientUnits="userSpaceOnUse">
<stop stop-color="#12D6A7"/>
<stop offset="0.907986" stop-color="#12D6A7" stop-opacity="0"/>
</linearGradient>
<linearGradient id="paint4_linear_3249_15229" x1="-109.929" y1="-70.9151" x2="-161.939" y2="203.068" gradientUnits="userSpaceOnUse">
<stop stop-color="#12D6A7"/>
<stop offset="0.907986" stop-color="#12D6A7" stop-opacity="0"/>
</linearGradient>
<radialGradient id="paint5_radial_3249_15229" cx="0" cy="0" r="1" gradientUnits="userSpaceOnUse" gradientTransform="translate(3.03148 104.422) rotate(-172.201) scale(90.8857 269.079)">
<stop stop-color="#12D6A7" stop-opacity="0.37"/>
<stop offset="0.907986" stop-color="#12D6A7" stop-opacity="0"/>
</radialGradient>
<linearGradient id="paint6_linear_3249_15229" x1="-16.4176" y1="-34.0612" x2="50.3018" y2="222.091" gradientUnits="userSpaceOnUse">
<stop stop-color="#12D6A7"/>
<stop offset="0.907986" stop-color="#12D6A7" stop-opacity="0"/>
</linearGradient>
<linearGradient id="paint7_linear_3249_15229" x1="121.218" y1="-2.99364" x2="271.761" y2="247.915" gradientUnits="userSpaceOnUse">
<stop stop-color="#12D6A7"/>
<stop offset="0.907986" stop-color="#12D6A7" stop-opacity="0"/>
</linearGradient>
<radialGradient id="paint8_radial_3249_15229" cx="0" cy="0" r="1" gradientUnits="userSpaceOnUse" gradientTransform="translate(97.1254 203.083) rotate(-159.709) scale(158.324 210.673)">
<stop stop-color="#12D6A7" stop-opacity="0.37"/>
<stop offset="0.907986" stop-color="#12D6A7" stop-opacity="0"/>
</radialGradient>
<linearGradient id="paint9_linear_3249_15229" x1="97.0369" y1="78.9711" x2="162.323" y2="152.065" gradientUnits="userSpaceOnUse">
<stop stop-color="#12D6A7"/>
<stop offset="1" stop-color="#12D6A7" stop-opacity="0"/>
</linearGradient>
<linearGradient id="paint10_linear_3249_15229" x1="91.1245" y1="75.7033" x2="127.425" y2="216.519" gradientUnits="userSpaceOnUse">
<stop stop-color="#12D6A7"/>
<stop offset="1" stop-color="#12D6A7" stop-opacity="0"/>
</linearGradient>
<linearGradient id="paint11_linear_3249_15229" x1="215.116" y1="171.278" x2="120.307" y2="309.804" gradientUnits="userSpaceOnUse">
<stop stop-color="#12D6A7"/>
<stop offset="0.907986" stop-color="#12D6A7" stop-opacity="0"/>
</linearGradient>
<linearGradient id="paint12_linear_3249_15229" x1="1.89928" y1="204.977" x2="6.14646" y2="276.519" gradientUnits="userSpaceOnUse">
<stop stop-color="#12D6A7"/>
<stop offset="0.907986" stop-color="#12D6A7" stop-opacity="0"/>
</linearGradient>
<linearGradient id="paint13_linear_3249_15229" x1="230.935" y1="119.458" x2="108.284" y2="155.274" gradientUnits="userSpaceOnUse">
<stop stop-color="#D9D9D9" stop-opacity="0"/>
<stop offset="1" stop-color="#D9D9D9"/>
</linearGradient>
<clipPath id="clip0_3249_15229">
<rect width="320" height="233" fill="white" transform="matrix(-1 0 0 1 320 0)"/>
</clipPath>
</defs>
</svg>
