<svg width="117" height="20" viewBox="0 0 117 20" fill="none" xmlns="http://www.w3.org/2000/svg">
<path d="M27.7871 11.5951C27.4473 11.8796 26.9557 12.0385 26.3182 12.072V12.4791H25.5121V12.0664C24.8689 12.0302 24.3774 11.8712 24.0375 11.5868C23.6977 11.3023 23.5264 10.9147 23.5264 10.4239C23.5264 9.93312 23.6977 9.54271 24.0375 9.26106C24.3774 8.97941 24.8689 8.82046 25.5121 8.78142V8.3938H26.3182V8.77584C26.9557 8.81209 27.4473 8.97383 27.7871 9.25827C28.1269 9.5455 28.2983 9.93312 28.2983 10.4239C28.2983 10.9147 28.1269 11.3135 27.7871 11.5979V11.5951ZM25.5121 11.3888V9.45905C25.1273 9.4953 24.8408 9.59012 24.6554 9.74628C24.4701 9.90244 24.3774 10.1255 24.3774 10.4211C24.3774 10.9872 24.7566 11.3107 25.5149 11.3888H25.5121ZM27.172 11.096C27.3602 10.937 27.4529 10.7111 27.4529 10.4155C27.4529 9.84388 27.0737 9.52319 26.3154 9.45905V11.3888C26.6973 11.3525 26.9838 11.2549 27.1692 11.096H27.172Z" fill="white"/>
<path d="M29.7505 12.1249C29.4359 11.9576 29.1888 11.7233 29.009 11.4277C28.8293 11.1321 28.7422 10.8003 28.7422 10.4322C28.7422 10.0641 28.8321 9.73225 29.009 9.43666C29.1888 9.14106 29.4359 8.90961 29.7505 8.74229C30.0651 8.57497 30.4218 8.48853 30.815 8.48853C31.2082 8.48853 31.5621 8.57218 31.8767 8.74229C32.1912 8.90961 32.4384 9.14106 32.6181 9.43666C32.7979 9.73225 32.8878 10.0641 32.8878 10.4322C32.8878 10.8003 32.7979 11.1321 32.6181 11.4277C32.4384 11.7233 32.1912 11.9548 31.8767 12.1249C31.5621 12.2922 31.2082 12.3787 30.815 12.3787C30.4218 12.3787 30.0679 12.295 29.7505 12.1249ZM31.4188 11.4835C31.5986 11.3803 31.7418 11.2381 31.8429 11.0568C31.9469 10.8728 31.9974 10.6664 31.9974 10.435C31.9974 10.2035 31.9469 9.99438 31.8429 9.81033C31.739 9.62907 31.5986 9.48685 31.4188 9.38367C31.2391 9.28049 31.0369 9.2303 30.8122 9.2303C30.5875 9.2303 30.3853 9.28049 30.2055 9.38367C30.0257 9.48685 29.8825 9.62907 29.7814 9.81033C29.6775 9.99438 29.6269 10.2007 29.6269 10.435C29.6269 10.6692 29.6775 10.8756 29.7814 11.0568C29.8853 11.2409 30.0257 11.3831 30.2055 11.4835C30.3853 11.5839 30.5875 11.6369 30.8122 11.6369C31.0369 11.6369 31.2391 11.5867 31.4188 11.4835Z" fill="white"/>
<path d="M37.092 8.55273V12.3146H36.2157V10.7725H34.494V12.3146H33.6177V8.55273H34.494V10.0363H36.2157V8.55273H37.092Z" fill="white"/>
<path d="M41.9706 11.6035V13.0926H41.1589V12.3146H38.485V13.0926H37.6733L37.679 11.6035H37.8306C38.0581 11.5951 38.2182 11.4306 38.3109 11.1099C38.4036 10.7864 38.4626 10.3263 38.485 9.72953L38.5272 8.55273H41.4369V11.6035H41.9678H41.9706ZM39.1451 10.9342C39.0861 11.2382 38.999 11.4585 38.8811 11.6035H40.5747V9.26104H39.2771L39.2602 9.80761C39.2434 10.2566 39.2041 10.6303 39.1451 10.9342Z" fill="white"/>
<path d="M46.7144 8.71726C46.9616 8.82881 47.1526 8.98497 47.2846 9.19133C47.4166 9.3949 47.484 9.63751 47.484 9.91637C47.484 10.1952 47.4166 10.4323 47.2846 10.6386C47.1498 10.845 46.9616 11.0011 46.7144 11.1127C46.4673 11.2214 46.1752 11.2772 45.8409 11.2772H45.077V12.3146H44.2007V8.55273H45.8409C46.1752 8.55273 46.4673 8.60851 46.7144 8.72005V8.71726ZM46.3914 10.396C46.5291 10.2845 46.5965 10.1227 46.5965 9.91637C46.5965 9.71001 46.5291 9.5427 46.3914 9.43115C46.2538 9.31682 46.0544 9.26104 45.7904 9.26104H45.077V10.5661H45.7904C46.0544 10.5661 46.2538 10.5103 46.3914 10.396Z" fill="white"/>
<path d="M50.4922 11.506H48.734L48.3997 12.3119H47.501L49.189 8.55005H50.054L51.7477 12.3119H50.8264L50.4922 11.506ZM50.2169 10.8451L49.6159 9.40616L49.0148 10.8451H50.2169Z" fill="white"/>
<path d="M54.9747 10.7029C55.0983 10.8618 55.1601 11.0487 55.1601 11.2578C55.1601 11.4865 55.0843 11.6845 54.9326 11.8546C54.781 12.0219 54.5759 12.153 54.3175 12.2422C54.0591 12.3314 53.7783 12.3761 53.4721 12.3761C53.2137 12.3761 52.9525 12.3426 52.6969 12.2785C52.4385 12.2143 52.1942 12.1167 51.9639 11.9829L52.2335 11.3582C52.3992 11.4586 52.5818 11.5339 52.7812 11.5869C52.9806 11.6399 53.1772 11.665 53.3682 11.665C53.6266 11.665 53.8429 11.6176 54.0142 11.5255C54.1855 11.4335 54.2726 11.3024 54.2726 11.1323C54.2726 10.9929 54.2136 10.8869 54.0956 10.8144C53.9777 10.7419 53.8176 10.7057 53.6182 10.7057H52.6941V10.0503H53.5536C53.7305 10.0503 53.8681 10.0141 53.9664 9.94159C54.0647 9.86909 54.1153 9.77149 54.1153 9.646C54.1153 9.4982 54.0451 9.38387 53.9018 9.303C53.7586 9.21934 53.576 9.1803 53.3542 9.1803C53.1884 9.1803 53.0171 9.20261 52.8402 9.24723C52.6632 9.29184 52.4947 9.35877 52.3374 9.44801L52.0734 8.77037C52.4722 8.5668 52.9076 8.46362 53.371 8.46362C53.6659 8.46362 53.9384 8.50545 54.1883 8.5919C54.4383 8.67835 54.6349 8.80383 54.7838 8.96836C54.9326 9.13289 55.0056 9.32531 55.0056 9.54282C55.0056 9.72129 54.9579 9.88024 54.8596 10.0197C54.7613 10.1591 54.6293 10.2679 54.458 10.3432C54.677 10.4184 54.8512 10.5356 54.9747 10.6945V10.7029Z" fill="white"/>
<path d="M59.0643 10.6832C59.1879 10.8366 59.2497 11.0262 59.2497 11.2521C59.2497 11.5839 59.1233 11.8461 58.8677 12.0301C58.6121 12.2169 58.2498 12.309 57.7779 12.309H55.9102V8.54712H57.674C58.115 8.54712 58.4576 8.63078 58.702 8.80088C58.9463 8.9682 59.0699 9.20802 59.0699 9.52035C59.0699 9.70719 59.0222 9.86893 58.9295 10.0111C58.8368 10.1534 58.7048 10.2649 58.5334 10.3458C58.7638 10.4127 58.9407 10.5243 59.0643 10.6776V10.6832ZM56.7808 10.1087H57.5982C57.7891 10.1087 57.9324 10.0697 58.0307 9.99441C58.129 9.91633 58.1767 9.80479 58.1767 9.6542C58.1767 9.50362 58.1262 9.39486 58.0279 9.31678C57.9296 9.2387 57.7863 9.19966 57.5982 9.19966H56.7808V10.1115V10.1087ZM58.3621 11.1824C58.3621 10.87 58.1571 10.7139 57.7442 10.7139H56.7808V11.6648H57.7442C58.1543 11.6648 58.3621 11.5031 58.3621 11.1824Z" fill="white"/>
<path d="M59.9941 8.55273H60.8648V11.0039L62.6708 8.55273H63.4937V12.3146H62.6287V9.86896L60.8227 12.3146H59.9941V8.55273Z" fill="white"/>
<path d="M67.3862 9.26104H66.1729V12.3118H65.3078V9.26104H64.1001V8.55273H67.3834V9.26104H67.3862Z" fill="white"/>
<path d="M67.9902 8.55273H68.8609V11.0039L70.6669 8.55273H71.4898V12.3146H70.6248V9.86896L68.8188 12.3146H67.9902V8.55273Z" fill="white"/>
<path d="M75.5116 8.55273V12.3146H74.6465V11.3163H73.8461L73.1748 12.3146H72.2507L73.04 11.1824C72.7844 11.0792 72.5878 10.9231 72.4502 10.7111C72.3125 10.502 72.2451 10.251 72.2451 9.95541C72.2451 9.65982 72.3125 9.41442 72.4445 9.20527C72.5765 8.99612 72.7675 8.83439 73.0119 8.72284C73.2562 8.60851 73.5455 8.55273 73.8769 8.55273H75.5116ZM73.3293 9.43394C73.1973 9.54827 73.1327 9.71838 73.1327 9.94426C73.1327 10.1701 73.1944 10.3319 73.3208 10.449C73.4472 10.5661 73.6326 10.6275 73.8769 10.6275H74.6465V9.26383H73.8994C73.6495 9.26383 73.4613 9.32239 73.3293 9.43673V9.43394Z" fill="white"/>
<path d="M77.7568 8.59692H78.6275V11.0481L80.4335 8.59692H81.2564V12.3588H80.3914V9.91315L78.5854 12.3588H77.7568V8.59692Z" fill="white"/>
<path d="M85.7277 8.59692V12.3588H84.8514V10.8167H83.1297V12.3588H82.2534V8.59692H83.1297V10.0805H84.8514V8.59692H85.7277Z" fill="white"/>
<path d="M90.2019 8.59692V12.3588H89.3255V10.8167H87.6038V12.3588H86.7275V8.59692H87.6038V10.0805H89.3255V8.59692H90.2019Z" fill="white"/>
<path d="M91.9463 12.1691C91.6317 12.0018 91.3846 11.7675 91.2048 11.4719C91.0251 11.1763 90.938 10.8445 90.938 10.4764C90.938 10.1083 91.0279 9.77644 91.2048 9.48085C91.3846 9.18525 91.6317 8.9538 91.9463 8.78648C92.2609 8.61916 92.6176 8.53271 93.0108 8.53271C93.404 8.53271 93.7579 8.61637 94.0725 8.78648C94.387 8.95659 94.6342 9.18525 94.8139 9.48085C94.9937 9.77644 95.0836 10.1083 95.0836 10.4764C95.0836 10.8445 94.9937 11.1763 94.8139 11.4719C94.6342 11.7675 94.387 11.999 94.0725 12.1691C93.7579 12.3392 93.404 12.4228 93.0108 12.4228C92.6176 12.4228 92.2637 12.3392 91.9463 12.1691ZM93.6146 11.5277C93.7944 11.4245 93.9376 11.2823 94.0387 11.101C94.1427 10.917 94.1932 10.7106 94.1932 10.4792C94.1932 10.2477 94.1427 10.0386 94.0387 9.85452C93.9348 9.67326 93.7944 9.53104 93.6146 9.42786C93.4349 9.32468 93.2327 9.27449 93.008 9.27449C92.7833 9.27449 92.5811 9.32468 92.4013 9.42786C92.2215 9.53104 92.0783 9.67326 91.9772 9.85452C91.8733 10.0386 91.8227 10.2449 91.8227 10.4792C91.8227 10.7134 91.8733 10.9198 91.9772 11.101C92.0811 11.2851 92.2215 11.4273 92.4013 11.5277C92.5811 11.6309 92.7833 11.6811 93.008 11.6811C93.2327 11.6811 93.4321 11.6309 93.6146 11.5277Z" fill="white"/>
<path d="M98.968 10.7301C99.0916 10.8835 99.1505 11.0731 99.1505 11.299C99.1505 11.6308 99.0241 11.8929 98.7686 12.077C98.513 12.2638 98.1506 12.3558 97.6788 12.3558H95.811V8.59399H97.5749C98.0158 8.59399 98.3585 8.67765 98.6028 8.84776C98.8472 9.01508 98.9708 9.2549 98.9708 9.56722C98.9708 9.75406 98.923 9.9158 98.8303 10.058C98.7377 10.2002 98.6056 10.3118 98.4343 10.3927C98.6646 10.4596 98.8416 10.5711 98.9652 10.7245L98.968 10.7301ZM96.6845 10.1556H97.5018C97.6928 10.1556 97.8361 10.1166 97.9344 10.0413C98.0327 9.96321 98.0804 9.85166 98.0804 9.70108C98.0804 9.55049 98.0299 9.44173 97.9316 9.36365C97.8333 9.28557 97.69 9.24653 97.5018 9.24653H96.6845V10.1584V10.1556ZM98.263 11.2292C98.263 10.9169 98.058 10.7608 97.6451 10.7608H96.6817V11.7117H97.6451C98.0552 11.7117 98.263 11.5499 98.263 11.2292Z" fill="white"/>
<path d="M102.462 11.5529H100.704L100.369 12.3588H99.4707L101.159 8.59692H102.024L103.717 12.3588H102.796L102.462 11.5529ZM102.187 10.892L101.586 9.45303L100.985 10.892H102.187Z" fill="white"/>
<path d="M108.248 11.6505V13.1535H107.442V12.3588H104.276V8.59692H105.147V11.6477H106.835V8.59692H107.706V11.6477H108.248V11.6505Z" fill="white"/>
<path d="M108.879 8.59692H109.75V11.0481L111.556 8.59692H112.379V12.3588H111.514V9.91315L109.708 12.3588H108.879V8.59692Z" fill="white"/>
<path d="M113.234 8.59692H114.105V11.0481L115.911 8.59692H116.734V12.3588H115.869V9.91315L114.063 12.3588H113.234V8.59692Z" fill="white"/>
<path d="M114.076 7.63452H114.677C114.685 7.89665 114.834 8.02772 115.126 8.02772C115.269 8.02772 115.382 7.99425 115.458 7.92733C115.533 7.8604 115.573 7.7628 115.576 7.63452H116.177C116.174 7.90223 116.084 8.10859 115.913 8.24802C115.738 8.38745 115.477 8.45716 115.129 8.45716C114.435 8.45716 114.087 8.18388 114.078 7.63452H114.076Z" fill="white"/>
<path d="M26.3262 15.0512C26.5734 15.1628 26.7644 15.319 26.8964 15.5253C27.0312 15.7289 27.0958 15.9715 27.0958 16.2504C27.0958 16.5292 27.0284 16.7662 26.8964 16.9726C26.7616 17.179 26.5734 17.3351 26.3262 17.4467C26.0791 17.5554 25.787 17.6112 25.4528 17.6112H24.6888V18.6486H23.8125V14.8867H25.4528C25.787 14.8867 26.0791 14.9425 26.3262 15.054V15.0512ZM26.0033 16.73C26.1409 16.6185 26.2083 16.4567 26.2083 16.2504C26.2083 16.044 26.1409 15.8767 26.0033 15.7651C25.8656 15.6508 25.6662 15.595 25.4022 15.595H24.6888V16.9001H25.4022C25.6662 16.9001 25.8656 16.8443 26.0033 16.73Z" fill="white"/>
<path d="M30.6627 17.9458V18.643H27.7305V14.8811H30.5925V15.5783H28.6012V16.3953H30.3594V17.073H28.6012V17.943H30.6627V17.9458Z" fill="white"/>
<path d="M32.1599 18.459C31.8482 18.2917 31.6038 18.063 31.4241 17.7674C31.2443 17.4718 31.1572 17.1372 31.1572 16.7663C31.1572 16.3954 31.2471 16.0608 31.4241 15.7652C31.6038 15.4696 31.8482 15.2381 32.1599 15.0708C32.4717 14.9035 32.8228 14.8198 33.2132 14.8198C33.5418 14.8198 33.8395 14.8784 34.1035 14.9927C34.3675 15.1071 34.5922 15.2716 34.772 15.4863L34.2102 16.0022C33.9547 15.7094 33.6373 15.5616 33.2581 15.5616C33.025 15.5616 32.8143 15.6118 32.6318 15.715C32.4492 15.8182 32.3032 15.9604 32.202 16.1416C32.0981 16.3257 32.0476 16.532 32.0476 16.7663C32.0476 17.0005 32.0981 17.2069 32.202 17.3881C32.306 17.5722 32.4492 17.7144 32.6318 17.8148C32.8143 17.9152 33.025 17.9682 33.2581 17.9682C33.6373 17.9682 33.9547 17.8204 34.2102 17.522L34.772 18.0379C34.5922 18.2554 34.3675 18.4227 34.1007 18.5371C33.8339 18.6514 33.5362 18.71 33.2075 18.71C32.8228 18.71 32.4717 18.6263 32.1599 18.459Z" fill="white"/>
<path d="M38.8503 14.884V18.6459H37.9796V15.5951H36.2691V18.6459H35.3984V14.884H38.8503Z" fill="white"/>
<path d="M43.2652 14.884L41.653 17.8595C41.4986 18.1467 41.3104 18.3614 41.0941 18.5092C40.875 18.657 40.6391 18.7295 40.3835 18.7295C40.1841 18.7295 39.9791 18.6877 39.7656 18.6013L39.9763 17.9404C40.1279 17.9878 40.2543 18.0101 40.3554 18.0101C40.4622 18.0101 40.5605 17.985 40.6475 17.932C40.7346 17.879 40.8133 17.7981 40.8863 17.6866L40.92 17.6448L39.4258 14.884H40.3611L41.3666 16.903L42.4058 14.884H43.2652Z" fill="white"/>
<path d="M43.7343 14.884H46.7901V15.5784H44.6049V16.3508H45.6554C46.1132 16.3508 46.4615 16.4457 46.703 16.6353C46.9417 16.8249 47.0625 17.0982 47.0625 17.4579C47.0625 17.8344 46.9277 18.1272 46.6609 18.3336C46.3941 18.5427 46.0177 18.6459 45.529 18.6459H43.7314V14.884H43.7343ZM45.4812 17.9989C45.7059 17.9989 45.8773 17.9543 45.9952 17.8679C46.1132 17.7814 46.175 17.6531 46.175 17.483C46.175 17.154 45.9447 16.9894 45.4812 16.9894H44.6049V17.9989H45.4812Z" fill="white"/>
<path d="M51.0676 14.884V18.6459H50.2025V15.5951H48.9049L48.8768 16.3787C48.86 16.9114 48.815 17.3436 48.7476 17.6754C48.6802 18.0073 48.565 18.2611 48.405 18.4395C48.2449 18.618 48.0202 18.7044 47.7309 18.7044C47.6129 18.7044 47.4669 18.6849 47.2983 18.6459L47.3517 17.9097C47.3995 17.9236 47.45 17.932 47.509 17.932C47.7168 17.932 47.8629 17.8093 47.9471 17.5639C48.0286 17.3185 48.082 16.9337 48.1044 16.4122L48.1578 14.8868H51.0676V14.884Z" fill="white"/>
<path d="M52.0674 14.884H52.9381V17.3352L54.744 14.884H55.567V18.6459H54.7019V16.2003L52.8959 18.6459H52.0674V14.884Z" fill="white"/>
<path d="M58.0306 17.1287H57.4239V18.643H56.5532V14.8811H57.4239V16.4009H58.0502L59.0445 14.8811H59.9686L58.7299 16.6965L60.0079 18.6402H59.0136L58.0278 17.1259L58.0306 17.1287Z" fill="white"/>
<path d="M60.4766 14.884H61.3472V17.3352L63.1532 14.884H63.9762V18.6459H63.1111V16.2003L61.3051 18.6459H60.4766V14.884Z" fill="white"/>
<path d="M67.0837 18.4587C66.772 18.2914 66.5276 18.0627 66.3479 17.7672C66.1681 17.4716 66.0811 17.1369 66.0811 16.766C66.0811 16.3952 66.1709 16.0605 66.3479 15.7649C66.5276 15.4693 66.772 15.2379 67.0837 15.0706C67.3955 14.9032 67.7466 14.8196 68.137 14.8196C68.4656 14.8196 68.7633 14.8781 69.0273 14.9925C69.2914 15.1068 69.516 15.2713 69.6958 15.4861L69.1341 16.002C68.8785 15.7092 68.5611 15.5614 68.1819 15.5614C67.946 15.5614 67.7382 15.6115 67.5556 15.7147C67.373 15.8179 67.227 15.9601 67.1259 16.1414C67.022 16.3254 66.9714 16.5318 66.9714 16.766C66.9714 17.0003 67.022 17.2066 67.1259 17.3879C67.2298 17.572 67.373 17.7114 67.5556 17.8146C67.7382 17.9177 67.9488 17.9679 68.1819 17.9679C68.5611 17.9679 68.8785 17.8201 69.1341 17.5218L69.6958 18.0377C69.516 18.2552 69.2914 18.4225 69.0245 18.5368C68.7577 18.6511 68.46 18.7097 68.1314 18.7097C67.7466 18.7097 67.3955 18.626 67.0837 18.4587Z" fill="white"/>
<path d="M72.8106 17.837H71.0523L70.7181 18.643H69.8193L71.5073 14.8811H72.3724L74.066 18.643H73.1448L72.8106 17.837ZM72.5353 17.1761L71.9343 15.7372L71.3332 17.1761H72.5353Z" fill="white"/>
<path d="M75.1108 14.8839L75.8944 16.0216L76.678 14.8839H77.706L76.4449 16.6826L77.8071 18.643H76.7735L75.8916 17.3964L75.0209 18.643H74.0098L75.3635 16.7188L74.0968 14.8811H75.1079L75.1108 14.8839Z" fill="white"/>
<path d="M80.7593 17.837H79.0011L78.6668 18.643H77.7681L79.4561 14.8811H80.3211L82.0148 18.643H81.0935L80.7593 17.837ZM80.484 17.1761L79.883 15.7372L79.2819 17.1761H80.484Z" fill="white"/>
<path d="M89.2748 14.8838V18.6456H88.4097V17.6473H87.6092L86.938 18.6456H86.0139L86.8032 17.5135C86.5476 17.4103 86.351 17.2541 86.2133 17.0422C86.0757 16.833 86.0083 16.5821 86.0083 16.2865C86.0083 15.9909 86.0757 15.7455 86.2077 15.5363C86.3397 15.3272 86.5307 15.1654 86.7751 15.0539C87.0194 14.9396 87.3087 14.8838 87.6401 14.8838H89.2748ZM87.0924 15.765C86.9604 15.8793 86.8958 16.0494 86.8958 16.2753C86.8958 16.5012 86.9576 16.6629 87.084 16.7801C87.2104 16.8972 87.3958 16.9585 87.6401 16.9585H88.4097V15.5949H87.6626C87.4126 15.5949 87.2245 15.6535 87.0924 15.7678V15.765Z" fill="white"/>
<path d="M91.744 17.1287H91.1373V18.643H90.2666V14.8811H91.1373V16.4009H91.7636L92.7579 14.8811H93.6819L92.4433 16.6965L93.7212 18.6402H92.727L91.7411 17.1259L91.744 17.1287Z" fill="white"/>
<path d="M97.6729 14.8838L96.0608 17.8593C95.9063 18.1465 95.7181 18.3612 95.5018 18.509C95.2828 18.6568 95.0468 18.7293 94.7912 18.7293C94.5918 18.7293 94.3868 18.6875 94.1733 18.601L94.384 17.9401C94.5357 17.9875 94.662 18.0098 94.7632 18.0098C94.8699 18.0098 94.9682 17.9847 95.0553 17.9318C95.1423 17.8788 95.221 17.7979 95.294 17.6864L95.3277 17.6445L93.8335 14.8838H94.7688L95.7743 16.9028L96.8135 14.8838H97.6729Z" fill="white"/>
<path d="M101.049 15.5921H99.8355V18.6429H98.9704V15.5921H97.7627V14.8838H101.046V15.5921H101.049Z" fill="white"/>
<path d="M101.655 14.8838H102.526V17.335L104.332 14.8838H105.155V18.6456H104.29V16.2L102.484 18.6456H101.655V14.8838Z" fill="white"/>
<path d="M109.177 14.8838V18.6456H108.312V17.6473H107.512L106.84 18.6456H105.916L106.705 17.5135C106.45 17.4103 106.253 17.2541 106.116 17.0422C105.978 16.833 105.911 16.5821 105.911 16.2865C105.911 15.9909 105.978 15.7455 106.11 15.5363C106.245 15.3272 106.433 15.1654 106.677 15.0539C106.922 14.9396 107.211 14.8838 107.542 14.8838H109.177ZM106.995 15.765C106.863 15.8793 106.798 16.0494 106.798 16.2753C106.798 16.5012 106.86 16.6629 106.986 16.7801C107.113 16.8972 107.298 16.9585 107.542 16.9585H108.312V15.5949H107.565C107.315 15.5949 107.127 15.6535 106.995 15.7678V15.765Z" fill="white"/>
<path d="M84.3122 18.2663C84.1942 17.8369 84.1353 17.3767 84.1353 16.8859C84.1353 16.3951 84.1942 15.935 84.3122 15.5028C84.4302 15.0705 84.5959 14.6941 84.8121 14.3706H85.6182C85.3907 14.7694 85.225 15.1709 85.1211 15.5809C85.0172 15.9908 84.9638 16.4258 84.9638 16.8832C84.9638 17.3405 85.0172 17.7755 85.1211 18.1854C85.225 18.5954 85.3907 18.9997 85.6182 19.3957H84.8121C84.5959 19.0694 84.4302 18.693 84.3122 18.2635V18.2663Z" fill="white"/>
<path d="M109.814 19.4013C110.042 19.0053 110.208 18.601 110.314 18.1911C110.421 17.7811 110.474 17.3461 110.474 16.8888C110.474 16.4314 110.421 15.9964 110.314 15.5865C110.208 15.1766 110.042 14.7722 109.814 14.3762H110.621C110.84 14.6941 111.008 15.0706 111.126 15.5028C111.244 15.9351 111.303 16.398 111.303 16.8916C111.303 17.3851 111.244 17.8481 111.129 18.2747C111.014 18.7014 110.845 19.0806 110.621 19.4041H109.814V19.4013Z" fill="white"/>
<path d="M10.1371 19.9972L4.57031 14.4702L9.07259 10L4.57031 5.52984L10.1371 0L20.2089 10L10.1371 20V19.9972ZM7.75252 14.4702L10.1371 16.8377L17.0239 10L10.1371 3.1623L7.75252 5.52984L12.2548 10L7.75252 14.4702Z" fill="white"/>
<path d="M6.16022 16.0514L0.0654297 10L6.16022 3.94873L12.255 10L6.16022 16.0514ZM3.25045 10L6.16022 12.8918L9.06999 10L6.16022 7.11103L3.25045 10Z" fill="white"/>
</svg>
