<svg width="150" height="39" viewBox="0 0 150 39" fill="none" xmlns="http://www.w3.org/2000/svg">
<g clip-path="url(#clip0_3622_20770)">
<path d="M10.8738 7.7002C10.9117 7.7002 10.9424 7.73094 10.9424 7.7688C10.9424 7.80666 10.9117 7.83741 10.8738 7.83741C10.8359 7.83741 10.8052 7.80666 10.8052 7.7688C10.8052 7.73094 10.8359 7.7002 10.8738 7.7002Z" fill="white"/>
<path d="M10.9864 7.71558C10.9945 7.73195 10.9996 7.7504 10.9996 7.76981C10.9996 7.83635 10.9454 7.89058 10.8788 7.89058C10.8184 7.89058 10.7682 7.84554 10.759 7.78722C10.7498 7.80768 10.7437 7.8302 10.7437 7.85376C10.7437 7.94281 10.8153 8.01446 10.9044 8.01446C10.9935 8.01446 11.0652 7.94281 11.0652 7.85376C11.0652 7.79538 11.0335 7.74425 10.9864 7.71558Z" fill="white"/>
<path d="M12.2243 7.45703C12.2191 7.45785 12.2141 7.4586 12.209 7.45935V7.46054C12.2141 7.45942 12.2191 7.45823 12.2243 7.45703Z" fill="white"/>
<path d="M17.0429 7.82005C15.2302 7.46505 13.5609 7.25749 12.2246 7.45774C13.4876 7.17135 15.1333 7.35147 16.9529 7.70032C17.8735 7.94082 18.7932 7.97053 19.7138 7.97053C18.8238 8.0104 17.9329 8.02069 17.0429 7.82005Z" fill="white"/>
<path fill-rule="evenodd" clip-rule="evenodd" d="M19.9193 8.43269C20.4968 8.71721 21.1041 8.88406 21.7411 8.93215V8.93112C20.9423 8.14099 20.7887 7.9322 21.5629 7.0028C21.098 7.0059 20.634 7.25256 20.1692 7.60976C19.7523 7.50743 19.3355 7.48594 18.9187 7.50232C18.9187 7.46083 18.9412 7.44167 18.9638 7.42245C18.9863 7.40329 19.0088 7.38407 19.0088 7.34265C19.1102 6.89232 18.2541 7.26175 18.0974 7.39585C17.7533 7.4706 17.358 7.39074 16.9545 7.28841C16.9975 7.0325 17.1299 7.00862 17.3331 6.97192C17.3917 6.96137 17.4561 6.94972 17.526 6.93115C17.394 6.7773 17.2508 6.64307 17.0986 6.52593C16.38 5.97312 15.4593 5.7992 14.5602 5.71729C13.9642 6.28841 13.3098 6.7408 12.5233 6.93115C11.4204 7.1103 10.81 7.37029 10.0225 8.0386C10.1078 8.42124 10.3174 8.46803 10.6275 8.53722C10.7156 8.55683 10.8117 8.57832 10.9155 8.60977C11.0266 8.6543 11.1797 8.67378 11.3286 8.69275C11.6315 8.73138 11.917 8.76776 11.7962 9.00788C11.736 9.12813 11.9866 9.11596 12.2092 9.10522C12.286 9.10146 12.3595 9.0979 12.4157 9.10004C12.5228 9.08826 12.63 9.01635 12.7373 8.94445C12.8446 8.87254 12.9519 8.80064 13.0589 8.78886L13.1831 8.7985C13.7612 8.84342 14.3384 8.8882 14.9166 8.93215C14.8244 8.95467 16.0277 9.85845 16.1629 9.43064C16.1389 9.30573 16.0626 9.22566 15.9862 9.14554C15.9099 9.06548 15.8336 8.98535 15.8096 8.8605C16.1631 8.81662 16.5163 8.77242 16.8694 8.72828L16.8705 8.72815C17.1839 8.68893 17.4973 8.64977 17.8106 8.61074C17.9418 8.7121 18.0728 8.81319 18.2039 8.91422C18.335 9.01532 18.4661 9.11641 18.5971 9.2177C18.7761 9.10845 18.8273 8.96341 18.8911 8.78232C18.9313 8.66815 18.9766 8.53968 19.0621 8.39684C19.2049 8.40299 19.3478 8.40888 19.4907 8.41477C19.6335 8.42066 19.7764 8.42654 19.9193 8.43269ZM16.2879 7.14505C16.5577 6.96325 16.8286 6.75692 17.0984 6.52612C16.9316 6.78196 16.6966 6.99516 16.3933 7.16557C16.3585 7.15839 16.3227 7.1512 16.2879 7.14505ZM11.1909 7.85337C11.1909 7.69778 11.065 7.57189 10.9093 7.57189C10.7537 7.57189 10.6277 7.69778 10.6277 7.85337C10.6277 8.0089 10.7537 8.13484 10.9093 8.13484C11.065 8.13484 11.1909 8.0089 11.1909 7.85337ZM19.0424 8.30526C19.2396 8.305 19.4175 8.3048 19.568 8.29348V8.29652C20.5337 8.22384 19.9715 7.75305 19.3212 7.7203L17.2044 7.6128C15.7112 7.04376 14.678 6.90759 13.0958 6.93426C12.8758 6.98176 12.6556 7.02933 12.4354 7.07684L12.4348 7.07697C12.2143 7.1246 11.9939 7.17217 11.7736 7.21981C11.6793 7.27003 11.5854 7.32064 11.4916 7.37119L11.4915 7.37126C11.4305 7.40407 11.3696 7.43688 11.3087 7.4695C11.5347 7.86198 11.4013 8.00268 11.1266 8.29251L11.1264 8.29276L11.1263 8.29283C11.116 8.30377 11.1055 8.31483 11.0947 8.32623C11.2552 8.75365 11.6803 8.58434 11.9848 8.46311L11.985 8.46305L11.985 8.46298C12.0108 8.45276 12.0356 8.44285 12.0594 8.43366C12.1178 8.1041 11.9836 7.85337 11.8095 7.54115C11.8615 7.5851 11.9079 7.62289 11.949 7.65655C12.2368 7.89188 12.2737 7.92204 12.2745 8.38312C12.2726 8.38868 12.2726 8.3936 12.2745 8.39787V8.38312C12.3186 8.24565 13.4328 7.73435 13.9181 8.00482C13.9181 8.00482 13.5607 8.32623 13.275 8.57599C13.1057 8.72388 13.2121 8.72135 13.3937 8.71702C13.5187 8.71404 13.6794 8.71022 13.8106 8.75404C14.1322 8.86154 14.7036 8.78989 14.9534 8.75404C15.2033 8.64763 15.3825 8.60052 15.8464 8.71825C16.0923 8.71825 16.1679 8.69812 16.259 8.67385C16.3398 8.65236 16.4328 8.62757 16.6678 8.61074C16.9942 8.58738 17.0622 8.56408 17.159 8.53075C17.2107 8.51301 17.2707 8.49243 17.3826 8.46745C17.9703 8.30649 18.5631 8.30577 19.0424 8.30526ZM10.5914 8.13225C10.5368 8.10896 10.4823 8.08572 10.428 8.06216H10.427C10.1085 7.96081 10.0379 8.01504 10.2171 8.22591C10.3379 8.26125 10.4585 8.29626 10.5791 8.33134C10.6996 8.36642 10.8202 8.40143 10.9411 8.43677V8.27302C10.8796 8.24947 10.8172 8.22591 10.7547 8.20235C10.7004 8.17885 10.6459 8.15555 10.5914 8.13225ZM14.6841 5.96189C14.4404 6.33854 14.0492 6.62204 13.5095 6.81245C13.9007 6.5801 14.2929 6.29658 14.6841 5.96189ZM16.6991 6.3398L16.7005 6.33752V6.33854L16.6991 6.3398ZM15.743 7.05399C16.062 6.8496 16.3801 6.61155 16.6991 6.3398C16.5035 6.64171 16.2121 6.88351 15.8249 7.06525C15.7973 7.06117 15.7696 7.05703 15.743 7.05399ZM15.4082 7.01302C15.8721 6.82475 16.2131 6.56062 16.4343 6.21982L16.4333 6.21879C16.0758 6.52483 15.7174 6.78785 15.36 7.00791C15.3682 7.00894 15.3762 7.00972 15.3841 7.0105L15.3877 7.01082C15.392 7.01127 15.3964 7.01166 15.4008 7.01218C15.4032 7.01244 15.4057 7.01276 15.4082 7.01302ZM16.1465 6.12258C15.9028 6.49926 15.5116 6.78274 14.9719 6.97315C15.3631 6.7408 15.7553 6.45727 16.1465 6.12258ZM15.7921 6.04786C15.5485 6.42452 15.1572 6.70805 14.6176 6.8984C15.0088 6.66605 15.401 6.38255 15.7921 6.04786ZM15.4379 6.03046C15.1941 6.40712 14.8029 6.69064 14.2632 6.88099C14.6544 6.64864 15.0466 6.36516 15.4379 6.03046ZM15.017 6.01716C14.7732 6.39382 14.382 6.67731 13.8423 6.86772C14.2335 6.63537 14.6257 6.35185 15.017 6.01716ZM13.5095 8.09491C12.8264 8.11743 12.3461 8.46441 11.958 8.95875C12.3974 8.56777 12.893 8.24947 13.5095 8.09491ZM13.4685 8.21264C13.0015 8.82879 12.5335 8.97616 12.0666 8.99254C12.5673 8.88406 13.0384 8.63838 13.4685 8.21264ZM13.2565 8.27917C12.895 8.40201 12.5868 8.57903 12.3308 8.80834C12.6575 8.66705 12.9657 8.49101 13.2565 8.27917ZM15.0292 8.96594C15.3241 9.24126 15.6417 9.43983 16.0083 9.46844C15.6375 9.36715 15.3293 9.17369 15.0292 8.96594ZM15.572 8.8073C15.6642 8.99661 15.7789 9.18599 16.0482 9.3753C15.867 9.18599 15.7174 8.99661 15.572 8.8073ZM15.2279 8.84724C15.2771 8.92911 15.3549 9.01098 15.4604 9.09285C15.5423 9.15635 15.6417 9.21977 15.7574 9.28327L15.2279 8.84724ZM18.6268 9.07234C18.335 8.93112 18.1148 8.75507 17.9653 8.54317C18.1173 8.66543 18.2698 8.78717 18.422 8.90872L18.4232 8.90969C18.4911 8.96393 18.5591 9.01817 18.6268 9.07234ZM18.931 8.42447C18.8869 8.65372 18.7897 8.84717 18.6402 9.0058C18.7549 8.81242 18.8521 8.61793 18.931 8.42447ZM18.6002 8.90044L18.296 8.60971L18.5869 8.79397L18.7856 8.52991L18.6002 8.90044ZM20.1159 8.17471C20.4047 8.62815 20.9003 8.78374 21.4892 8.80523C20.8982 8.75507 20.4221 8.56673 20.1159 8.17471ZM21.1532 8.46745C20.7948 8.46745 20.505 8.24539 20.2398 7.9434C20.5327 8.21568 20.8338 8.4224 21.1532 8.46745ZM21.267 8.59948C20.7672 8.69572 20.4149 8.4081 20.1302 7.9465C20.4385 8.2894 20.7703 8.59029 21.267 8.59948ZM20.3401 7.7715C20.5408 7.37333 20.9362 7.20447 21.4195 7.13994C20.9372 7.229 20.5614 7.42349 20.3401 7.7715ZM21.1707 7.44497C20.8757 7.47468 20.6555 7.6814 20.461 7.95162C20.6801 7.70289 20.9105 7.50743 21.1707 7.44497ZM21.2536 7.32725C20.8347 7.28835 20.5685 7.55448 20.3709 7.9588C20.5972 7.65073 20.846 7.37436 21.2536 7.32725ZM20.5245 8.00074C20.7006 7.81551 20.8757 7.69266 21.0519 7.708C20.8358 7.76328 20.674 7.8779 20.5245 8.00074ZM20.5654 8.08468C20.7078 8.24332 20.8829 8.31296 21.0929 8.29348C20.9044 8.26176 20.7313 8.18293 20.5654 8.08468ZM20.6576 8.03452C20.7457 7.91479 20.8542 7.83699 21.0089 7.85026C20.8808 7.88916 20.7631 7.95058 20.6576 8.03452ZM20.7078 8.09284C20.8133 8.0509 20.9198 8.07646 21.0252 8.16863C20.9413 8.11025 20.8358 8.08468 20.7078 8.09284ZM20.7918 8.02637C20.8532 7.95369 20.9259 7.93731 21.0089 7.97621C20.9678 7.98547 20.9267 7.99504 20.8858 8.00456L20.8855 8.00462C20.8541 8.01194 20.8228 8.01925 20.7918 8.02637ZM18.1148 7.45727C18.4189 7.24337 18.6699 7.17476 18.8849 7.20654C18.6156 7.24337 18.3616 7.33242 18.1148 7.45727ZM18.9597 7.2567C18.9177 7.45624 18.7641 7.57908 18.3657 7.533C18.6637 7.52995 18.8624 7.43786 18.9597 7.2567ZM18.7835 7.29864C18.549 7.3211 18.376 7.40401 18.2316 7.51559C18.3964 7.4429 18.5746 7.37022 18.7835 7.29864Z" fill="white"/>
<path d="M3.46779 17.8799C3.4514 17.8707 3.43297 17.8645 3.41454 17.8645C3.46164 17.8369 3.52206 17.8348 3.57327 17.8645C3.65007 17.9085 3.67567 18.0068 3.63164 18.0835C3.5876 18.1603 3.48929 18.1859 3.41248 18.1419C3.39201 18.1307 3.37562 18.1143 3.3623 18.0958C3.4176 18.1184 3.4811 18.0979 3.51182 18.0447C3.54562 17.9874 3.52513 17.9137 3.46779 17.8799Z" fill="white"/>
<path d="M3.44211 17.9246C3.40934 17.9062 3.36735 17.9174 3.34789 17.9502H3.34891C3.32946 17.9829 3.34072 18.0249 3.37349 18.0444C3.40626 18.0628 3.44825 18.0515 3.46771 18.0188C3.48614 17.986 3.47487 17.9441 3.44211 17.9246Z" fill="white"/>
<path d="M6.52016 12.6749C5.3015 14.071 4.28458 15.4169 3.79199 16.6769C4.17295 15.4364 5.15403 14.0976 6.37064 12.6923C7.03936 12.0158 7.52581 11.2349 7.98559 10.4375C7.57493 11.2287 7.13871 12.0045 6.52016 12.6749Z" fill="white"/>
<path fill-rule="evenodd" clip-rule="evenodd" d="M8.49234 10.4963C9.02895 10.1381 9.4765 9.69588 9.83693 9.16879L9.83596 9.16678C8.75142 9.4636 8.49338 9.4922 8.07553 8.35718C7.84512 8.76039 7.82668 9.28652 7.90454 9.86681C7.60753 10.1759 7.3812 10.527 7.18664 10.8955C7.15092 10.875 7.14567 10.8463 7.1405 10.8173C7.13519 10.7882 7.12988 10.7589 7.09344 10.7378C6.75344 10.4247 6.64591 11.352 6.6838 11.5536C6.5773 11.8893 6.31001 12.1923 6.01917 12.4901C5.81919 12.3251 5.86457 12.1989 5.93421 12.0052C5.95444 11.9489 5.97671 11.8869 5.99562 11.8166C5.79621 11.8539 5.6083 11.9107 5.4306 11.984C5.56899 12.2567 5.63614 12.5659 5.63104 12.9138C5.61926 12.9272 5.60749 12.9407 5.59571 12.9543C5.58393 12.9678 5.57216 12.9814 5.56038 12.9948C5.53791 12.6701 5.49405 12.3334 5.42982 11.9843C4.59219 12.3299 3.98132 13.0397 3.46101 13.7767C3.65865 14.5771 3.72317 15.3703 3.4948 16.1461C3.09848 17.1911 3.0186 17.8493 3.20396 18.8646C3.57838 18.9824 3.72351 18.8246 3.93824 18.5912C3.99954 18.5246 4.06652 18.4518 4.14612 18.3774C4.2403 18.3036 4.33381 18.1808 4.42474 18.0615C4.60969 17.8188 4.78399 17.5901 4.93159 17.8145C5.00549 17.9271 5.12017 17.704 5.22214 17.5056C5.25724 17.4373 5.29084 17.372 5.32075 17.3242C5.36438 17.2252 5.35577 17.096 5.34718 16.9671C5.33862 16.8386 5.33007 16.7104 5.37297 16.6119C5.54844 16.3562 5.72365 16.1003 5.89885 15.8444L5.89946 15.8435C6.07479 15.5874 6.25014 15.3313 6.42573 15.0756C6.39911 15.1677 7.78267 14.5771 7.48054 14.2465C7.36023 14.2045 7.25266 14.2306 7.14516 14.2567C7.03765 14.2828 6.93009 14.3089 6.80977 14.2669C6.94034 13.9574 7.07092 13.648 7.20146 13.3386C7.33207 13.0292 7.46262 12.7199 7.59316 12.4103C7.74629 12.3473 7.89936 12.2847 8.05243 12.222C8.20556 12.1593 8.35869 12.0966 8.51182 12.0336C8.50612 11.8245 8.40619 11.708 8.28161 11.5629C8.20258 11.4708 8.11359 11.3671 8.03249 11.221C8.10932 11.1002 8.18582 10.9795 8.26238 10.8587C8.33895 10.7379 8.41551 10.6171 8.49234 10.4963ZM3.62793 17.7613C3.49377 17.6835 3.3207 17.7295 3.24287 17.8646C3.16505 17.9997 3.21215 18.1717 3.34631 18.2494C3.48148 18.3272 3.65353 18.2802 3.73136 18.1461C3.8092 18.012 3.76311 17.839 3.62793 17.7613ZM7.94382 11.1936C8.04259 11.022 8.13177 10.8672 8.1974 10.7307L8.19637 10.7317C8.61628 9.85866 7.92706 10.1104 7.57374 10.657C7.19072 11.2496 6.80669 11.8432 6.42266 12.4359C5.18249 13.443 4.54858 14.27 3.78052 15.6528C3.71146 15.867 3.64265 16.0812 3.57385 16.2954L3.57365 16.2961C3.50478 16.5105 3.43591 16.7249 3.36679 16.9393L3.35142 17.4664C3.80463 17.4675 3.85991 17.6539 3.97343 18.037C3.97765 18.0513 3.98196 18.0658 3.98636 18.0806C4.4357 18.1559 4.50204 17.7047 4.54964 17.3809C4.55379 17.3527 4.55779 17.3255 4.5619 17.2997C4.30588 17.0837 4.02118 17.0744 3.66377 17.0693C3.72842 17.0462 3.78478 17.025 3.83486 17.0061C4.18179 16.8758 4.2265 16.859 4.62613 17.0887C4.62998 17.0929 4.63418 17.0954 4.6387 17.096L4.62613 17.0887C4.52945 16.9826 4.64339 15.7612 5.12002 15.4768C5.12002 15.4768 5.21936 15.9465 5.29309 16.3191C5.33682 16.5401 5.38812 16.4464 5.47561 16.2866C5.53564 16.1769 5.6127 16.0361 5.71604 15.9445C5.96899 15.7193 6.19327 15.1891 6.28748 14.9547C6.32025 14.6845 6.36941 14.5065 6.70326 14.1636C6.82649 13.9504 6.84698 13.8749 6.87168 13.784C6.89358 13.7034 6.91877 13.6106 7.02173 13.399C7.16431 13.1061 7.17816 13.0353 7.19777 12.9351C7.20832 12.8813 7.22049 12.819 7.25525 12.7091C7.40954 12.1211 7.70487 11.6085 7.94382 11.1936ZM3.65571 18.3551L3.65528 18.3554C3.57961 18.4122 3.50341 18.4693 3.42721 18.5258V18.5248C3.17938 18.7499 3.19167 18.838 3.46407 18.7888C3.6463 18.616 3.8275 18.442 4.00869 18.2681L4.00889 18.2679C3.99449 18.2596 3.98018 18.2515 3.96595 18.2433C3.93257 18.2242 3.89956 18.2054 3.86654 18.186C3.81432 18.229 3.76311 18.2709 3.71191 18.3129L3.65571 18.3551ZM8.1308 9.80235C7.88609 9.42878 7.93729 9.00297 8.12265 8.5516C7.95877 9.01423 7.93936 9.437 8.1308 9.80235ZM8.26297 8.92013C8.14109 9.19028 8.2097 9.48405 8.34795 9.78805C8.24245 9.47382 8.18821 9.17701 8.26297 8.92013ZM8.20252 8.78907C7.95877 9.13196 8.05605 9.49635 8.30905 9.86992C8.1554 9.5199 8.04071 9.16678 8.20252 8.78907ZM8.3684 10.1975C8.90604 10.1739 9.28803 9.82384 9.60141 9.32334C9.26246 9.81057 8.86099 10.1278 8.3684 10.1975ZM9.14163 9.44619C8.96138 9.7553 8.62444 9.89548 8.23119 9.97535C8.61317 9.85762 8.94293 9.70106 9.14163 9.44619ZM9.31262 9.41344C9.14674 9.89451 8.72171 10.0552 8.17792 10.0715C8.62955 9.97639 9.05658 9.83924 9.31262 9.41344ZM7.99159 11.3479C8.1677 11.5004 8.2875 11.6815 8.35002 11.8903C8.23941 11.6938 8.11954 11.5137 7.99159 11.3479ZM8.40018 11.9354C8.13287 12.1165 7.86972 12.2199 7.61161 12.2435C7.71069 12.2048 7.80985 12.166 7.90913 12.1271L7.90978 12.1268L7.9158 12.1245C8.07708 12.0614 8.23863 11.9982 8.40018 11.9354ZM3.73444 13.7921C3.93822 14.1912 3.98841 14.6723 3.88395 15.2342C3.87781 14.7787 3.82865 14.2987 3.73444 13.7921ZM5.26134 13.356C5.29719 12.9293 5.23267 12.5556 5.06882 12.2343V12.2353C5.1446 12.6467 5.19171 13.0428 5.21014 13.4215C5.22652 13.4 5.24393 13.3775 5.26134 13.356ZM4.8359 12.4083L4.8343 12.4052H4.83533L4.8359 12.4083ZM4.98177 13.7286C4.96951 13.3099 4.92055 12.8698 4.8359 12.4083C5.01897 12.7689 5.07682 13.1958 5.00942 13.6897C5.00481 13.6963 5.0002 13.7027 4.99559 13.7092L4.99553 13.7092C4.99094 13.7156 4.98636 13.722 4.98177 13.7286ZM4.60593 12.6058C4.80972 13.005 4.8599 13.486 4.75545 14.0479C4.74931 13.5925 4.70015 13.1124 4.60593 12.6058ZM4.36425 12.876C4.56804 13.2752 4.61822 13.7562 4.51376 14.3181C4.50762 13.8627 4.45846 13.3826 4.36425 12.876ZM4.17172 13.1749C4.37551 13.574 4.42569 14.0551 4.32124 14.617C4.31509 14.1616 4.26594 13.6815 4.17172 13.1749ZM3.94949 13.5331C4.15328 13.9322 4.20347 14.4133 4.09901 14.9752C4.09286 14.5198 4.04371 14.0397 3.94949 13.5331ZM4.99611 15.8759C4.67352 16.4788 4.73394 17.0673 4.96846 17.6507C4.84864 17.0745 4.82099 16.4869 4.99611 15.8759ZM5.07701 15.9701C5.37707 16.6825 5.27159 17.1604 5.05141 17.5739C5.20809 17.0857 5.23062 16.5555 5.07701 15.9701ZM5.02888 16.1871C4.95514 16.5617 4.95309 16.9168 5.02376 17.2525C5.06472 16.8994 5.06677 16.5443 5.02888 16.1871ZM6.51073 14.9967C6.89681 14.879 7.22761 14.703 7.4355 14.401C7.16205 14.6712 6.84048 14.8411 6.51073 14.9967ZM6.64387 14.4481C6.8538 14.4624 7.07603 14.4584 7.37401 14.3202C7.11901 14.3816 6.88042 14.4174 6.64387 14.4481ZM6.50663 14.7654C6.60187 14.7633 6.71145 14.7367 6.83536 14.6866C6.93163 14.6477 7.0361 14.5934 7.14872 14.5248L6.50663 14.7644V14.7654ZM8.23837 11.8719L7.8349 11.9907L8.14006 11.831L8.011 11.527L8.23837 11.8719ZM8.42166 9.7573C8.34898 9.51272 8.33053 9.29881 8.43189 9.15449C8.3715 9.36943 8.38995 9.56696 8.42166 9.7573ZM8.51486 9.76345C8.72378 9.71944 8.87226 9.60275 8.95931 9.41137C8.83744 9.55874 8.68282 9.66928 8.51486 9.76345ZM8.51693 9.65802C8.45648 9.52191 8.44419 9.38884 8.53331 9.26192C8.50257 9.39292 8.49745 9.52495 8.51693 9.65802ZM8.59272 9.64475C8.6091 9.53214 8.68385 9.45331 8.81698 9.40729C8.72482 9.45026 8.65007 9.53007 8.59272 9.64475ZM8.57732 9.53828C8.54561 9.44923 8.56709 9.37758 8.64288 9.32541C8.63065 9.366 8.61816 9.40632 8.60567 9.44651C8.59615 9.47712 8.58664 9.50774 8.57732 9.53828ZM6.74525 11.572C6.71145 11.2015 6.77802 10.9508 6.91319 10.7798C6.80976 11.0306 6.7606 11.2957 6.74525 11.572ZM6.9941 10.7399C7.14567 10.876 7.17538 11.0695 6.93573 11.3919C7.08218 11.1319 7.1016 10.9149 6.9941 10.7399ZM6.94289 10.9128C6.84458 11.1268 6.83127 11.3182 6.85482 11.4994C6.87428 11.3202 6.9009 11.1299 6.94289 10.9128Z" fill="white"/>
<path d="M8.54183 29.6416L8.5415 29.6421H8.54181L8.54183 29.6416Z" fill="white"/>
<path d="M8.54932 29.6417C8.55941 29.627 8.57236 29.6142 8.58821 29.6043C8.64556 29.5706 8.72031 29.5911 8.75306 29.6483C8.7838 29.7016 8.76944 29.7671 8.72335 29.8039C8.74588 29.8019 8.76846 29.7958 8.78892 29.7835C8.86574 29.7395 8.89234 29.6412 8.84833 29.5645C8.80426 29.4877 8.70594 29.461 8.62918 29.5061C8.57844 29.5355 8.54983 29.588 8.54932 29.6417Z" fill="white"/>
<path d="M8.60637 29.6484C8.57362 29.6679 8.56236 29.7099 8.58184 29.7426H8.58081C8.60022 29.7754 8.64223 29.7877 8.67498 29.7682C8.70883 29.7488 8.72009 29.7068 8.70061 29.6741C8.68113 29.6413 8.63919 29.629 8.60637 29.6484Z" fill="white"/>
<path d="M5.59598 24.3492C6.19711 26.1015 6.85458 27.6552 7.70048 28.7115C6.81669 27.7617 6.14693 26.2428 5.5376 24.4874C5.28567 23.5703 4.85146 22.7587 4.39062 21.9624C4.87093 22.7127 5.32459 23.4783 5.59598 24.3492Z" fill="white"/>
<path fill-rule="evenodd" clip-rule="evenodd" d="M4.69581 21.5569C4.65382 20.9142 4.49406 20.3052 4.21756 19.73L4.21449 19.731C3.93082 20.818 3.82534 21.0554 2.6333 20.8497C2.86781 21.2499 3.31432 21.5293 3.85606 21.7524C3.97588 22.1649 4.16636 22.5354 4.38858 22.8885C4.35279 22.9095 4.32517 22.8995 4.29743 22.8896C4.26961 22.8796 4.24168 22.8696 4.20527 22.8906C3.76389 23.0288 4.51352 23.5845 4.70708 23.6531C4.94466 23.9131 5.0737 24.2959 5.18635 24.6961C4.94371 24.7864 4.85701 24.6841 4.72422 24.5274C4.68552 24.4817 4.64289 24.4313 4.59135 24.3798C4.52417 24.5705 4.47959 24.7611 4.4542 24.951C4.75968 24.9667 5.0621 25.064 5.36146 25.2427C5.37273 25.2764 5.38399 25.3102 5.39629 25.3439C5.10297 25.201 4.78925 25.0702 4.45412 24.9517C4.33425 25.8501 4.64384 26.7344 5.02249 27.5537C5.81616 27.783 6.53506 28.1238 7.09321 28.7093C7.80082 29.5752 8.3303 29.9734 9.3032 30.3203C9.59154 30.0559 9.52733 29.8511 9.43252 29.5486C9.40546 29.4623 9.37588 29.368 9.35129 29.262C9.33414 29.1434 9.27459 29.0013 9.21667 28.8631C9.09862 28.5812 8.98742 28.3157 9.25608 28.2999C9.39006 28.2915 9.25408 28.0806 9.13337 27.8935C9.09176 27.8289 9.05195 27.7671 9.02567 27.7175C8.96205 27.6304 8.84614 27.5735 8.73022 27.5167C8.6145 27.46 8.49871 27.4032 8.43476 27.3163L7.62982 25.6367C7.69538 25.7053 7.8766 24.213 7.43831 24.3092C7.34207 24.3921 7.31081 24.4983 7.27955 24.6044C7.24835 24.7106 7.21709 24.8169 7.12085 24.8998C6.71608 24.3644 6.31133 23.8302 5.90657 23.2959L5.90423 23.2928C5.92624 23.1291 5.94851 22.9652 5.97078 22.8012L5.97086 22.8006C5.99311 22.6367 6.01536 22.4728 6.03736 22.3092C5.85292 22.2089 5.70192 22.2372 5.51349 22.2726C5.39432 22.295 5.26018 22.3202 5.09315 22.3174C4.96104 22.0636 4.82894 21.8097 4.69581 21.5569ZM8.55864 29.4001C8.4235 29.4779 8.37742 29.6499 8.45522 29.785C8.53308 29.9201 8.70614 29.9662 8.84031 29.8884C8.97545 29.8106 9.02153 29.6376 8.94374 29.5035C8.86588 29.3684 8.69385 29.3224 8.55864 29.4001ZM5.02609 22.381C4.92694 22.2098 4.83748 22.0553 4.75213 21.9305L4.75315 21.9295C4.20731 21.1301 4.08033 21.8517 4.37731 22.431C4.6999 23.0605 5.02146 23.6889 5.34303 24.3173C5.59598 25.8946 5.99537 26.8567 6.80952 28.2129C6.96004 28.3786 7.1103 28.5442 7.26058 28.7099L7.26369 28.7134C7.41501 28.8802 7.56633 29.047 7.71791 29.2139C7.79214 29.2596 7.86644 29.3056 7.94068 29.3516L7.94217 29.3526C8.01692 29.3989 8.09167 29.4452 8.16643 29.4913C8.39308 29.1003 8.58181 29.1452 8.96982 29.2376L9.01642 29.2487C9.30566 28.8974 8.94827 28.6147 8.69145 28.4114C8.66912 28.3938 8.64757 28.3767 8.62725 28.3602C8.31289 28.4749 8.16235 28.7174 7.97899 29.0235C7.9911 28.9564 8.00081 28.8973 8.00948 28.8448V28.8447C8.06954 28.4792 8.07737 28.4318 8.47638 28.2008C8.48201 28.1995 8.48628 28.1971 8.489 28.1934L8.47638 28.2008C8.33555 28.2315 7.33456 27.5223 7.32666 26.9672C7.32666 26.9672 7.7834 27.1156 8.14287 27.2385C8.3558 27.3112 8.30027 27.2202 8.20559 27.065C8.14047 26.9582 8.05673 26.821 8.02922 26.6858C7.96158 26.3541 7.61345 25.8946 7.45779 25.696C7.24065 25.5323 7.11062 25.4012 6.98053 24.9407C6.85757 24.7279 6.80222 24.6723 6.73584 24.6057C6.67673 24.5464 6.60885 24.4783 6.47669 24.2826C6.29325 24.0119 6.23886 23.9644 6.16181 23.8972C6.12057 23.8612 6.07285 23.8196 5.99537 23.735C5.56276 23.3077 5.26603 22.7953 5.02609 22.381ZM9.10095 29.7805C9.10781 29.8393 9.11473 29.8981 9.12192 29.9569C9.19356 30.2845 9.2755 30.3172 9.3687 30.0572C9.33906 29.9355 9.30909 29.8136 9.27919 29.6916C9.24916 29.5694 9.21919 29.4473 9.18949 29.3254C9.17512 29.3337 9.16081 29.3419 9.14664 29.35L9.14573 29.3505C9.11266 29.3694 9.07991 29.3881 9.04716 29.4073C9.05279 29.4401 9.05817 29.4729 9.06354 29.5056C9.06891 29.5384 9.07428 29.5711 9.07991 29.6038C9.0871 29.6627 9.09402 29.7216 9.10095 29.7805ZM4.37425 21.5149C4.6231 21.038 4.51045 20.5314 4.23395 20.0114C4.48588 20.5477 4.56063 21.0544 4.37425 21.5149ZM4.11004 20.4699C4.28822 20.7801 4.24112 21.1424 4.11311 21.5221C4.2022 21.1322 4.23088 20.7688 4.11004 20.4699ZM4.16738 20.3052C4.50124 20.689 4.4275 21.1383 4.16943 21.6163C4.31178 21.1782 4.40702 20.7402 4.16738 20.3052ZM5.18327 22.4167C5.40346 22.3399 5.62056 22.3277 5.83255 22.3778C5.60725 22.3757 5.39117 22.388 5.18327 22.4167ZM5.89603 22.3553C5.91959 22.6787 5.8776 22.9571 5.76905 23.1925C5.79001 23.053 5.81123 22.9138 5.83245 22.7745L5.83256 22.7738C5.8538 22.6344 5.87505 22.495 5.89603 22.3553ZM7.60419 25.5221C7.69538 25.129 7.70865 24.7544 7.54995 24.4238C7.64723 24.7954 7.6339 25.1587 7.60419 25.5221ZM5.17303 27.3235C5.62056 27.346 6.06194 27.5435 6.49718 27.915C6.09983 27.6919 5.65845 27.4954 5.17303 27.3235ZM5.55809 25.783C5.2058 25.5384 4.85044 25.4074 4.48997 25.389C4.88526 25.5292 5.25188 25.6858 5.58881 25.8598L5.55809 25.783ZM5.72092 26.1689C5.32664 25.8618 4.92622 25.6981 4.52069 25.6777L4.51967 25.6786C4.9631 25.8352 5.37068 26.0134 5.74037 26.2129C5.73938 26.2106 5.73837 26.2083 5.73733 26.2059L5.73589 26.2027L5.73419 26.1989L5.72824 26.1856L5.72591 26.1803L5.72436 26.1769L5.72237 26.1723L5.72092 26.1689ZM4.58009 25.9755C5.02761 25.998 5.46899 26.1956 5.90423 26.5671C5.50688 26.344 5.06551 26.1474 4.58009 25.9755ZM4.69273 26.3194C5.14026 26.3419 5.58164 26.5394 6.01688 26.911C5.61953 26.6878 5.17815 26.4913 4.69273 26.3194ZM4.85557 26.6346C5.30309 26.6572 5.74447 26.8547 6.17971 27.2262C5.78236 27.0031 5.34098 26.8066 4.85557 26.6346ZM5.05424 27.0061C5.50176 27.0287 5.94315 27.2262 6.37838 27.5978C5.98103 27.3747 5.53966 27.1781 5.05424 27.0061ZM7.6093 27.2732C7.9698 27.8536 8.51055 28.0962 9.13421 28.1842C8.57502 27.999 8.05278 27.7298 7.6093 27.2732ZM7.73117 27.2497C8.49929 27.346 8.85973 27.6766 9.10755 28.0737C8.76245 27.695 8.3149 27.4094 7.73117 27.2497ZM7.89505 27.4002C8.1828 27.651 8.49004 27.83 8.81572 27.9375C8.52997 27.7256 8.22377 27.5466 7.89505 27.4002ZM7.1956 25.1321C7.3134 24.957 7.4209 24.7636 7.44957 24.4361C7.37585 24.6879 7.28673 24.9121 7.1956 25.1321ZM7.40142 25.4105C7.4475 25.3265 7.47928 25.2191 7.49772 25.0871C7.51203 24.9847 7.51714 24.867 7.51513 24.735L7.40142 25.4105ZM5.76086 22.4648L5.66152 22.8732L5.67586 22.5293L5.34815 22.4893L5.76086 22.4648ZM3.91341 21.5232C3.46793 21.5477 3.12384 21.2908 2.82583 20.9049C3.14432 21.2775 3.5007 21.5068 3.91341 21.5232ZM3.21498 20.9674C3.38805 21.2079 3.67787 21.2949 4.00865 21.3276C3.68401 21.2621 3.39932 21.1598 3.21498 20.9674ZM3.07161 20.9541C3.24673 21.3368 3.6113 21.4341 4.06087 21.4024C3.68095 21.3604 3.31739 21.2836 3.07161 20.9541ZM4.01991 21.2489C3.77106 21.1895 3.57751 21.0984 3.50275 20.9387C3.65943 21.0984 3.83865 21.1813 4.01991 21.2489ZM4.07214 21.1711C4.13871 20.9684 4.11105 20.7811 3.99021 20.6102C4.05678 20.7893 4.07521 20.9776 4.07214 21.1711ZM3.98202 21.1168C3.83456 21.1004 3.71268 21.0451 3.64715 20.9049C3.74546 20.996 3.85709 21.0676 3.98202 21.1168ZM4.00762 21.0442C3.91853 20.9735 3.88678 20.8691 3.91341 20.7309C3.90419 20.8323 3.93594 20.9367 4.00762 21.0442ZM3.90829 21.0053C3.81509 20.9889 3.76389 20.9336 3.7557 20.8425C3.7813 20.8697 3.80665 20.8968 3.83199 20.9239L3.83254 20.9245C3.85769 20.9514 3.88288 20.9783 3.90829 21.0053ZM4.75418 23.607C4.41726 23.4504 4.2319 23.2683 4.15202 23.0666C4.31792 23.2815 4.52274 23.4565 4.75418 23.607ZM4.15714 22.9755C4.35069 22.9121 4.534 22.9837 4.69376 23.3522C4.54219 23.0953 4.36298 22.9694 4.15714 22.9755ZM4.28208 23.1065C4.41828 23.2979 4.57701 23.4064 4.74701 23.476C4.60159 23.3695 4.45003 23.2519 4.28208 23.1065Z" fill="white"/>
<path d="M28.4847 20.8001C28.5011 20.8094 28.5195 20.8155 28.538 20.8155C28.4908 20.8431 28.4304 20.8451 28.3792 20.8155C28.3024 20.7715 28.2768 20.6732 28.3208 20.5964C28.3649 20.5197 28.4632 20.4941 28.54 20.5381C28.5605 20.5494 28.5769 20.5657 28.5902 20.5842C28.5348 20.5617 28.4714 20.5831 28.4407 20.6353C28.4068 20.6927 28.4273 20.7663 28.4847 20.8001Z" fill="white"/>
<path d="M28.51 20.7548C28.5428 20.7732 28.5848 20.7619 28.6042 20.7292H28.6032C28.6227 20.6964 28.6114 20.6545 28.5787 20.635C28.5459 20.6166 28.5039 20.6279 28.4844 20.6607C28.466 20.6934 28.4773 20.7353 28.51 20.7548Z" fill="white"/>
<path d="M25.4142 26.0046C26.6329 24.6086 27.6498 23.2626 28.1424 22.0027C27.7614 23.2432 26.7804 24.582 25.5637 25.9873C24.895 26.6638 24.4086 27.4447 23.9487 28.2421C24.3594 27.4509 24.7957 26.6751 25.4142 26.0046Z" fill="white"/>
<path fill-rule="evenodd" clip-rule="evenodd" d="M23.4443 28.1825C22.9077 28.5407 22.4601 28.9829 22.0996 29.51L22.1006 29.512C23.1852 29.2152 23.4432 29.1865 23.8611 30.3216C24.0915 29.9184 24.1099 29.3923 24.0321 28.8119C24.3291 28.5028 24.5554 28.1518 24.75 27.7833C24.7857 27.8037 24.7909 27.8325 24.7961 27.8614C24.8014 27.8906 24.8067 27.9199 24.8432 27.9409C25.1831 28.2541 25.2907 27.3268 25.2528 27.1252C25.3593 26.7894 25.6266 26.4865 25.9174 26.1887C26.1174 26.3536 26.072 26.4799 26.0024 26.6736C25.9821 26.7299 25.9599 26.7919 25.941 26.8621C26.1404 26.8249 26.3283 26.768 26.506 26.6948C26.3676 26.4231 26.3004 26.1128 26.3056 25.7649C26.31 25.76 26.3144 25.7549 26.3188 25.75C26.3261 25.7415 26.3335 25.7331 26.3408 25.7246C26.3472 25.7173 26.3535 25.71 26.3599 25.7026L26.3658 25.6958C26.3693 25.6919 26.3727 25.688 26.3762 25.6841C26.3987 26.0086 26.4426 26.3455 26.5068 26.6945C27.3444 26.3489 27.9553 25.6391 28.4756 24.9021C28.2779 24.1017 28.2134 23.3085 28.4418 22.5326C28.8381 21.4876 28.918 20.8295 28.7326 19.8142C28.3582 19.6963 28.2131 19.8541 27.9984 20.0876C27.9371 20.1542 27.8701 20.227 27.7905 20.3014C27.6963 20.3753 27.6028 20.498 27.5118 20.6173C27.3269 20.86 27.1526 21.0887 27.005 20.8643C26.9311 20.7516 26.8164 20.9748 26.7145 21.1732L26.7143 21.1734L26.7143 21.1736C26.6793 21.2418 26.6457 21.3069 26.6158 21.3546C26.5722 21.4536 26.5808 21.5827 26.5894 21.7118C26.598 21.8401 26.6065 21.9685 26.5636 22.067C26.388 22.3228 26.2126 22.579 26.0372 22.8351C25.8619 23.0912 25.6865 23.3473 25.5109 23.6033C25.5375 23.5112 24.1539 24.1017 24.4561 24.4323C24.5764 24.4743 24.6839 24.4482 24.7915 24.4221C24.899 24.396 25.0065 24.3699 25.1268 24.4118C24.996 24.7222 24.8651 25.0323 24.7342 25.3423C24.604 25.6509 24.4737 25.9596 24.3434 26.2685C24.1903 26.3315 24.0372 26.3941 23.8841 26.4568C23.731 26.5195 23.5779 26.5822 23.4248 26.6452C23.4304 26.8543 23.5304 26.9707 23.655 27.1159C23.734 27.208 23.823 27.3116 23.9041 27.4578C23.8273 27.5786 23.7507 27.6994 23.6742 27.8201C23.5976 27.9409 23.5211 28.0617 23.4443 28.1825ZM28.3087 20.9186C28.4429 20.9964 28.6159 20.9503 28.6937 20.8152C28.7716 20.6801 28.7245 20.5081 28.5903 20.4303C28.4551 20.3526 28.2831 20.3997 28.2053 20.5338C28.1274 20.6678 28.1735 20.8408 28.3087 20.9186ZM23.9928 27.4862C23.894 27.6578 23.8048 27.8126 23.7392 27.9491L23.7402 27.9481C23.3203 28.8212 24.0096 28.5694 24.3629 28.0229C24.7459 27.4292 25.1299 26.8366 25.5139 26.244C26.7541 25.2368 27.388 24.4098 28.1561 23.027C28.2252 22.8126 28.2941 22.5982 28.3629 22.3838C28.4318 22.1693 28.5007 21.9549 28.5698 21.7405L28.5852 21.2133C28.132 21.2124 28.0767 21.0258 27.9632 20.6428C27.9589 20.6285 27.9547 20.614 27.9503 20.5993C27.5009 20.5239 27.4346 20.9752 27.387 21.2989C27.3828 21.3271 27.3788 21.3544 27.3747 21.3802C27.6307 21.5962 27.9154 21.6054 28.2728 21.6105C28.2082 21.6336 28.1518 21.6548 28.1018 21.6736C27.7548 21.8041 27.7101 21.8209 27.3105 21.5911C27.3066 21.5869 27.3024 21.5844 27.2979 21.5839L27.3105 21.5911C27.4072 21.6972 27.2932 22.9186 26.8166 23.2031C26.8166 23.2031 26.7172 22.7333 26.6435 22.3607C26.5998 22.1398 26.5485 22.2335 26.461 22.3933C26.401 22.5029 26.3239 22.6437 26.2206 22.7353C25.9676 22.9605 25.7433 23.4907 25.6491 23.7251C25.6163 23.9953 25.5672 24.1734 25.2334 24.5163C25.1101 24.7295 25.0896 24.8049 25.0649 24.8959C25.043 24.9765 25.0178 25.0692 24.9149 25.2808C24.7723 25.5738 24.7584 25.6445 24.7388 25.7447C24.7283 25.7986 24.7161 25.8609 24.6814 25.9707C24.5271 26.5587 24.2317 27.0714 23.9928 27.4862ZM28.281 20.3247L28.2814 20.3243L28.2828 20.3234C28.358 20.2669 28.4337 20.2102 28.5094 20.154V20.155C28.7572 19.9298 28.7449 19.8418 28.4725 19.8909C28.2902 20.064 28.109 20.2379 27.9277 20.412C27.9402 20.4191 27.9525 20.4261 27.9648 20.4332L27.9688 20.4355L27.9707 20.4365L27.9712 20.4368C28.0044 20.4558 28.0372 20.4745 28.0701 20.4938C28.1223 20.4509 28.1735 20.4089 28.2247 20.3669L28.281 20.3247ZM26.9405 22.8039C27.2631 22.2011 27.2027 21.6125 26.9682 21.0291C27.088 21.6054 27.1156 22.1928 26.9405 22.8039ZM28.2022 24.8868C27.9984 24.4876 27.9482 24.0065 28.0527 23.4446C28.0588 23.9001 28.1079 24.3801 28.2022 24.8868ZM26.8678 26.4445C26.7039 26.1231 26.6394 25.7496 26.6752 25.3228C26.6927 25.3013 26.7101 25.2788 26.7264 25.2573C26.7449 25.636 26.792 26.0321 26.8678 26.4435V26.4445ZM27.1023 26.2736L27.1007 26.2705C27.0161 25.809 26.9671 25.3689 26.9548 24.9502C26.9502 24.9569 26.9457 24.9633 26.941 24.9697L26.9365 24.9759C26.9334 24.9802 26.9303 24.9846 26.9272 24.9891C26.8598 25.483 26.9176 25.9098 27.1007 26.2705L27.1012 26.2736H27.1023ZM27.3307 26.073C27.1269 25.6738 27.0767 25.1928 27.1812 24.6308C27.1873 25.0864 27.2364 25.5664 27.3307 26.073ZM27.5724 25.8028C27.3685 25.4036 27.3184 24.9225 27.4228 24.3606C27.429 24.8161 27.4781 25.2962 27.5724 25.8028ZM27.7649 25.5039C27.5611 25.1047 27.5109 24.6237 27.6154 24.0618C27.6215 24.5173 27.6707 24.9973 27.7649 25.5039ZM27.9871 25.1457C27.7833 24.7465 27.7331 24.2655 27.8376 23.7036C27.8437 24.159 27.8929 24.6391 27.9871 25.1457ZM26.8596 22.7087C26.5595 21.9963 26.665 21.5184 26.8852 21.1049C26.7285 21.5931 26.706 22.1233 26.8596 22.7087ZM26.9077 22.4928C26.9814 22.1182 26.9835 21.763 26.9128 21.4272C26.8719 21.7804 26.8699 22.1356 26.9077 22.4928ZM25.4259 23.6831C25.0398 23.8008 24.709 23.9769 24.5011 24.2788C24.7746 24.0086 25.0961 23.8387 25.4259 23.6831ZM25.2927 24.2317C25.0828 24.2164 24.8606 24.2215 24.5626 24.3597C24.8175 24.2982 25.0562 24.2624 25.2927 24.2317ZM25.1012 23.9932C25.2252 23.943 25.3347 23.9164 25.43 23.9144V23.9154L24.7879 24.1549C24.9005 24.0863 25.005 24.0321 25.1012 23.9932ZM24.325 26.4364C24.0669 26.4599 23.8037 26.5633 23.5364 26.7445C23.6978 26.6817 23.8591 26.6186 24.0202 26.5555L24.0223 26.5548L24.025 26.5537L24.0262 26.5532L24.0273 26.5528C24.1267 26.5139 24.2259 26.4751 24.325 26.4364ZM23.945 27.3309C23.7689 27.1784 23.6491 26.9973 23.5866 26.7885C23.6972 26.985 23.8171 27.1651 23.945 27.3309ZM24.1017 26.6892L23.6982 26.8069L23.9256 27.1528L23.7966 26.8489L24.1017 26.6892ZM23.5682 28.4824C23.0306 28.5059 22.6475 28.8559 22.3352 29.3564C22.6741 28.8703 23.0756 28.552 23.5682 28.4824ZM22.795 29.2337C22.9752 28.9246 23.3122 28.7843 23.7054 28.7045C23.3234 28.8222 22.9937 28.9788 22.795 29.2337ZM22.624 29.2664C22.7899 28.7853 23.2149 28.6246 23.7587 28.6083C23.3071 28.7035 22.88 28.8406 22.624 29.2664ZM23.8057 28.8774C24.0505 29.2511 23.9993 29.6768 23.814 30.1272C23.9778 29.6646 23.9973 29.2418 23.8057 28.8774ZM23.6736 29.7597C23.7955 29.4895 23.7269 29.1958 23.5887 28.8918C23.6942 29.206 23.7484 29.5028 23.6736 29.7597ZM23.7341 29.8907C23.9778 29.5479 23.8806 29.1835 23.6276 28.8099C23.7812 29.1599 23.8959 29.5131 23.7341 29.8907ZM23.5149 28.9214C23.5876 29.1661 23.6061 29.38 23.5047 29.5243C23.5651 29.3094 23.5467 29.1119 23.5149 28.9214ZM23.4217 28.9163C23.2128 28.9603 23.0644 29.077 22.9773 29.2684C23.0992 29.121 23.2538 29.0105 23.4217 28.9163ZM23.4197 29.0208C23.4801 29.1569 23.4924 29.29 23.4033 29.4169C23.434 29.2858 23.4392 29.1538 23.4197 29.0208ZM23.3439 29.0351C23.3275 29.1476 23.2528 29.2265 23.1196 29.2726C23.2118 29.2295 23.2865 29.1497 23.3439 29.0351ZM23.2937 29.3544C23.3695 29.3023 23.391 29.2306 23.3593 29.1416C23.3545 29.1571 23.3497 29.1727 23.3449 29.1883C23.3403 29.2032 23.3357 29.2181 23.331 29.233L23.3309 29.2333C23.3185 29.2735 23.3059 29.3138 23.2937 29.3544ZM25.1914 27.1078C25.2252 27.4783 25.1586 27.7291 25.0234 27.899C25.1268 27.6482 25.176 27.3831 25.1914 27.1078ZM24.9425 27.9399C24.7909 27.8038 24.7612 27.6104 25.0009 27.2879C24.8544 27.5479 24.835 27.7649 24.9425 27.9399ZM24.9937 27.7669C25.092 27.553 25.1054 27.3617 25.0818 27.1804C25.0623 27.3596 25.0357 27.5499 24.9937 27.7669Z" fill="white"/>
<path d="M23.4019 9.03701C23.3917 9.05171 23.3788 9.06446 23.3629 9.07436C23.3056 9.10814 23.2308 9.08769 23.198 9.03035C23.1673 8.97818 23.1817 8.91165 23.2278 8.87476C23.2052 8.87683 23.1827 8.88298 23.1622 8.89527C23.0854 8.93928 23.0588 9.03753 23.1028 9.11429C23.1469 9.19105 23.2452 9.21765 23.3219 9.17261C23.3727 9.14322 23.4013 9.09073 23.4019 9.03701Z" fill="white"/>
<path d="M23.3965 9.03589V9.0354H23.3968L23.3965 9.03589Z" fill="white"/>
<path d="M23.3637 8.935C23.3831 8.96781 23.3719 9.00975 23.3391 9.02917C23.3063 9.04865 23.2644 9.03635 23.2449 9.0036C23.2254 8.97085 23.2367 8.92891 23.2705 8.90943C23.3033 8.89001 23.3453 8.90225 23.3647 8.935H23.3637Z" fill="white"/>
<path d="M26.3525 14.3303C25.7514 12.578 25.094 11.0243 24.248 9.96802C25.1318 10.9179 25.8016 12.4368 26.4109 14.1921C26.6628 15.1092 27.097 15.9208 27.5579 16.7171C27.0776 15.9669 26.6239 15.2013 26.3525 14.3303Z" fill="white"/>
<path fill-rule="evenodd" clip-rule="evenodd" d="M27.2538 17.1225C27.2958 17.7653 27.4556 18.3743 27.7321 18.9495L27.7351 18.9485C28.0188 17.8615 28.1243 17.6241 29.3163 17.8298C29.0818 17.4285 28.6353 17.1502 28.0935 16.9271C27.9737 16.5145 27.7832 16.1441 27.5611 15.7909C27.5968 15.77 27.6244 15.7799 27.6522 15.7898C27.68 15.7999 27.7079 15.8099 27.7443 15.7889C28.1858 15.6507 27.4361 15.0949 27.2426 15.0264C27.005 14.7664 26.8759 14.3836 26.7633 13.9834C27.0059 13.893 27.0926 13.9954 27.2254 14.1522L27.2255 14.1522C27.2642 14.1979 27.3068 14.2482 27.3583 14.2997C27.4255 14.1089 27.4701 13.9183 27.4954 13.7284C27.1899 13.7127 26.8875 13.6155 26.5882 13.4368C26.5769 13.403 26.5656 13.3692 26.5533 13.3355C26.8467 13.4785 27.1604 13.6092 27.4955 13.7278C27.6154 12.8293 27.3058 11.9451 26.9271 11.1257C26.1334 10.8965 25.4146 10.5556 24.8564 9.97018C24.1488 9.10427 23.6193 8.7061 22.6465 8.35913C22.3581 8.62345 22.4223 8.82836 22.5171 9.13081C22.5441 9.21721 22.5737 9.31151 22.5983 9.41746C22.6155 9.53603 22.675 9.67816 22.7329 9.81641C22.851 10.0983 22.9622 10.3638 22.6935 10.3795C22.5596 10.388 22.6955 10.5989 22.8162 10.786C22.8579 10.8506 22.8977 10.9123 22.924 10.962C22.9876 11.049 23.1035 11.1059 23.2195 11.1627C23.3351 11.2195 23.4509 11.2763 23.5148 11.3632L24.3198 13.0428C24.2542 12.9742 24.073 14.4665 24.5113 14.3703C24.6075 14.2874 24.6388 14.1812 24.6701 14.075C24.7013 13.9688 24.7325 13.8626 24.8288 13.7797C25.2343 14.3161 25.6399 14.8513 26.0454 15.3866C26.0233 15.5504 26.0011 15.7144 25.9788 15.8785C25.9565 16.0425 25.9343 16.2065 25.9123 16.3703C26.0967 16.4706 26.2477 16.4422 26.4361 16.4068C26.5553 16.3844 26.6894 16.3593 26.8564 16.362L26.8569 16.363L26.8584 16.3658C26.9899 16.6184 27.1213 16.8709 27.2538 17.1225ZM23.391 9.27824C23.5261 9.20045 23.5722 9.02855 23.4944 8.89341C23.4165 8.75833 23.2435 8.71225 23.1093 8.79005C22.9742 8.86784 22.9281 9.04078 23.0059 9.17488C23.0837 9.30996 23.2558 9.35604 23.391 9.27824ZM26.9235 16.2974C27.0227 16.4686 27.1121 16.6231 27.1974 16.7479L27.1965 16.7489C27.7423 17.5483 27.8693 16.8267 27.5723 16.2474C27.251 15.6206 26.9309 14.9948 26.6106 14.369L26.6096 14.3669L26.6095 14.3667L26.6076 14.363L26.6066 14.361C26.3536 12.7838 25.9543 11.8217 25.1401 10.4656C24.9884 10.2985 24.8369 10.1315 24.6855 9.96455C24.5343 9.7979 24.3832 9.63124 24.2317 9.46451C24.1572 9.41863 24.0827 9.37248 24.0082 9.32633L24.0073 9.32581C23.9326 9.27947 23.8579 9.2332 23.7832 9.18718C23.5565 9.57816 23.3678 9.53325 22.9798 9.44083C22.9646 9.4372 22.949 9.43351 22.9332 9.42976C22.644 9.781 23.0013 10.0638 23.2582 10.267C23.2805 10.2846 23.302 10.3017 23.3224 10.3181C23.6367 10.2035 23.7873 9.96093 23.9706 9.65492C23.9586 9.72159 23.9489 9.78029 23.9403 9.83252L23.9402 9.83317L23.9401 9.83362V9.83382C23.88 10.1992 23.8722 10.2466 23.4732 10.4777C23.4676 10.4789 23.4633 10.4813 23.4606 10.485L23.4732 10.4777C23.6141 10.4469 24.615 11.1561 24.6229 11.7111C24.6229 11.7111 24.1662 11.5627 23.8067 11.44C23.5938 11.3671 23.6493 11.4582 23.744 11.6135C23.8091 11.7203 23.8929 11.8575 23.9204 11.9926C23.988 12.3242 24.3362 12.7838 24.4918 12.9824C24.709 13.1461 24.839 13.2771 24.9691 13.7377C25.0921 13.9505 25.1474 14.006 25.2138 14.0727C25.2729 14.132 25.3408 14.2001 25.4729 14.3959C25.6564 14.6665 25.7107 14.714 25.7878 14.7812C25.829 14.8172 25.8767 14.8589 25.9543 14.9435C26.3869 15.3708 26.6836 15.8831 26.9235 16.2974ZM22.8487 8.898C22.8418 8.83917 22.8349 8.78034 22.8277 8.72144C22.756 8.39395 22.6741 8.3612 22.5809 8.62119C22.6106 8.74293 22.6405 8.865 22.6705 8.987C22.7005 9.10906 22.7304 9.23113 22.7601 9.353C22.7746 9.34471 22.7889 9.33649 22.8032 9.32834L22.8032 9.32827C22.8366 9.30925 22.8695 9.29041 22.9024 9.27112C22.8968 9.23838 22.8914 9.20563 22.8861 9.17294C22.8807 9.14013 22.8753 9.10738 22.8697 9.07456C22.8625 9.01573 22.8556 8.9569 22.8487 8.898ZM24.3403 11.4062C23.9798 10.8258 23.4391 10.5832 22.8154 10.4952C23.3746 10.6805 23.8968 10.9497 24.3403 11.4062ZM26.7766 11.356C26.3291 11.3335 25.8877 11.136 25.4524 10.7644C25.8498 10.9875 26.2912 11.184 26.7766 11.356ZM27.4596 13.2905C27.0992 13.272 26.7438 13.141 26.3915 12.8964L26.3608 12.8196C26.6977 12.9937 27.0644 13.1502 27.4596 13.2905ZM27.429 13.0018C27.0234 12.9814 26.623 12.8176 26.2287 12.5105C26.2257 12.5033 26.2223 12.496 26.219 12.4885L26.2175 12.4853C26.2161 12.482 26.2146 12.4788 26.2132 12.4756C26.2119 12.4725 26.2105 12.4695 26.2092 12.4665C26.579 12.6661 26.9855 12.8442 27.4299 13.0008L27.429 13.0018ZM27.3695 12.704C26.922 12.6814 26.4807 12.4839 26.0454 12.1124C26.4427 12.3355 26.8841 12.532 27.3695 12.704ZM27.2569 12.3601C26.8094 12.3376 26.368 12.14 25.9327 11.7685C26.3301 11.9916 26.7715 12.1881 27.2569 12.3601ZM27.094 12.0448C26.6465 12.0223 26.2051 11.8248 25.7699 11.4532C26.1673 11.6764 26.6086 11.8729 27.094 12.0448ZM26.8954 11.6733C26.4478 11.6507 26.0065 11.4532 25.5712 11.0817C25.9686 11.3048 26.41 11.5014 26.8954 11.6733ZM24.2184 11.4287C23.4503 11.3324 23.0899 11.0018 22.8421 10.6048C23.1872 10.9835 23.6347 11.269 24.2184 11.4287ZM24.0546 11.2792C23.7668 11.0285 23.4596 10.8494 23.1339 10.7419C23.4196 10.9538 23.7258 11.1329 24.0546 11.2792ZM24.3454 13.1564C24.2542 13.5494 24.241 13.924 24.3997 14.2546C24.3024 13.8831 24.3157 13.5197 24.3454 13.1564ZM24.754 13.5463C24.6362 13.7214 24.5287 13.9148 24.5 14.2423C24.5738 13.9906 24.6629 13.7664 24.754 13.5463ZM24.4519 13.5924C24.4703 13.4604 24.5021 13.3529 24.5482 13.269L24.4345 13.9445C24.4325 13.8125 24.4376 13.6947 24.4519 13.5924ZM26.1805 15.4869C26.072 15.7223 26.03 16.0007 26.0536 16.3242C26.0966 16.0447 26.1386 15.7663 26.1805 15.4869ZM26.7663 16.2628C26.5462 16.3395 26.3291 16.3518 26.117 16.3017C26.3423 16.3037 26.5585 16.2914 26.7663 16.2628ZM26.2881 15.8063L26.1888 16.2147L26.6015 16.1901L26.2737 16.1501L26.2881 15.8063ZM27.5754 17.1635C27.3265 17.6404 27.4392 18.1471 27.7157 18.667C27.4637 18.1307 27.389 17.6241 27.5754 17.1635ZM27.8396 18.2085C27.6614 17.8983 27.7085 17.536 27.8365 17.1563C27.7474 17.5463 27.7187 17.9096 27.8396 18.2085ZM27.7822 18.3733C27.4484 17.9895 27.5221 17.5401 27.7802 17.0621C27.6378 17.5002 27.5426 17.9383 27.7822 18.3733ZM28.0362 17.1563C28.4817 17.1317 28.8258 17.3887 29.1238 17.7745C28.8053 17.4019 28.4489 17.1727 28.0362 17.1563ZM28.7347 17.7121C28.5616 17.4716 28.2718 17.3845 27.941 17.3518C28.2656 17.4173 28.5503 17.5197 28.7347 17.7121ZM28.878 17.7253C28.7029 17.3426 28.3383 17.2454 27.8887 17.2771C28.2687 17.319 28.6322 17.3958 28.878 17.7253ZM27.9297 17.4296C28.1786 17.489 28.3721 17.58 28.4468 17.7397C28.2902 17.58 28.111 17.4971 27.9297 17.4296ZM27.8775 17.5084C27.8109 17.711 27.8386 17.8983 27.9594 18.0693C27.8928 17.8901 27.8744 17.7018 27.8775 17.5084ZM27.9676 17.5626C28.1151 17.579 28.2369 17.6343 28.3024 17.7745C28.2041 17.6834 28.0925 17.6118 27.9676 17.5626ZM27.942 17.6353C28.0311 17.7059 28.0628 17.8103 28.0362 17.9485C28.0454 17.8472 28.0137 17.7428 27.942 17.6353ZM28.1939 17.8369C28.1857 17.7459 28.1345 17.6906 28.0414 17.6742C28.0669 17.7013 28.0922 17.7284 28.1175 17.7555C28.1429 17.7826 28.1683 17.8098 28.1939 17.8369ZM27.1954 15.0724C27.5324 15.229 27.7177 15.4111 27.7976 15.6128C27.6317 15.3979 27.4269 15.2229 27.1954 15.0724ZM27.7925 15.7039C27.5989 15.7674 27.4156 15.6957 27.2558 15.3273C27.4074 15.5842 27.5866 15.71 27.7925 15.7039ZM27.6675 15.5729C27.5313 15.3815 27.3726 15.273 27.2026 15.2034C27.348 15.3099 27.4996 15.4276 27.6675 15.5729Z" fill="white"/>
<path fill-rule="evenodd" clip-rule="evenodd" d="M18.0791 20.0134H21.0981V20.342H20.8953H20.5431H18.0791V20.0134Z" fill="white"/>
<path fill-rule="evenodd" clip-rule="evenodd" d="M20.2138 22.3587H20.178H19.1304L19.1324 22.3515L19.6844 20.6904L19.7038 20.6331L20.1974 22.3035L20.2138 22.3587Z" fill="white"/>
<path fill-rule="evenodd" clip-rule="evenodd" d="M20.9623 20.5122V22.3586H20.312L20.9623 20.5122Z" fill="white"/>
<path fill-rule="evenodd" clip-rule="evenodd" d="M19.7441 20.4651H20.845H20.8798L20.2623 22.2143L20.247 22.1611L19.7472 20.4733L19.7441 20.4651Z" fill="white"/>
<path fill-rule="evenodd" clip-rule="evenodd" d="M18.3936 20.4651H19.6624L19.6593 20.4723L19.6368 20.5418L19.0817 22.2082L19.0623 22.1591L18.3936 20.4651Z" fill="white"/>
<path fill-rule="evenodd" clip-rule="evenodd" d="M18.2173 20.4651H18.2787H18.3606L18.3197 20.4815L19.0335 22.29L19.0591 22.3535L19.0601 22.3586H18.2173V20.4651Z" fill="white"/>
<path fill-rule="evenodd" clip-rule="evenodd" d="M18.2402 22.5029H20.9295L20.5188 23.243H18.6509L18.2402 22.5029Z" fill="white"/>
<path fill-rule="evenodd" clip-rule="evenodd" d="M18.5776 23.3464H20.5889V25.7752H18.5776V23.3464Z" fill="white"/>
<path fill-rule="evenodd" clip-rule="evenodd" d="M18.271 25.8574H20.8988V26.2689H18.271V25.8574Z" fill="white"/>
<path fill-rule="evenodd" clip-rule="evenodd" d="M18.2632 26.4333H20.9115V28.204H18.2632V26.4333Z" fill="white"/>
<path fill-rule="evenodd" clip-rule="evenodd" d="M20.9909 28.3262H18.1787V28.6558H20.9909V28.3262Z" fill="white"/>
<path fill-rule="evenodd" clip-rule="evenodd" d="M20.2138 30.6521H19.1304L19.1324 30.646L19.7038 28.9275L20.2138 30.6521Z" fill="white"/>
<path fill-rule="evenodd" clip-rule="evenodd" d="M20.9623 28.8066V30.6521H20.312L20.9623 28.8066Z" fill="white"/>
<path fill-rule="evenodd" clip-rule="evenodd" d="M19.7441 28.7588H20.8798L20.2623 30.509L19.7472 28.767L19.7441 28.7588Z" fill="white"/>
<path fill-rule="evenodd" clip-rule="evenodd" d="M18.3936 28.7588H19.6624L19.6593 28.766L19.0817 30.5028L18.3936 28.7588Z" fill="white"/>
<path fill-rule="evenodd" clip-rule="evenodd" d="M18.2173 28.7588H18.3606L18.3197 28.7752L19.0591 30.6482L19.0601 30.6523H18.2173V28.7588Z" fill="white"/>
<path fill-rule="evenodd" clip-rule="evenodd" d="M20.9909 30.7756H18.1787V31.1052H20.9909V30.7756Z" fill="white"/>
<path fill-rule="evenodd" clip-rule="evenodd" d="M14.4805 17.1348H17.4995V17.4633H17.2967H16.9455H14.4805V17.1348Z" fill="white"/>
<path fill-rule="evenodd" clip-rule="evenodd" d="M16.6162 19.4808H16.5794H15.5317L15.5338 19.4736L16.0858 17.8125L16.1052 17.7551L16.5988 19.4255L16.6162 19.4808Z" fill="white"/>
<path fill-rule="evenodd" clip-rule="evenodd" d="M17.3637 17.6333V19.4797H16.7134L17.3637 17.6333Z" fill="white"/>
<path fill-rule="evenodd" clip-rule="evenodd" d="M16.1528 17.5869H17.2527H17.2875L16.67 19.3361L16.6546 19.2829L16.1549 17.5951L16.1528 17.5869Z" fill="white"/>
<path fill-rule="evenodd" clip-rule="evenodd" d="M14.8027 17.5869H16.0716L16.0686 17.5941L16.046 17.6637L15.4909 19.33L15.4725 19.2819L14.8027 17.5869Z" fill="white"/>
<path fill-rule="evenodd" clip-rule="evenodd" d="M14.603 17.5869H14.6644H14.7464L14.7054 17.6033L15.4192 19.4119L15.4448 19.4753L15.4458 19.4805H14.603V17.5869Z" fill="white"/>
<path fill-rule="evenodd" clip-rule="evenodd" d="M14.6416 19.6245H17.3309L16.9202 20.3645H15.0523L14.6416 19.6245Z" fill="white"/>
<path fill-rule="evenodd" clip-rule="evenodd" d="M14.9712 20.4685H16.9825V22.8973H14.9712V20.4685Z" fill="white"/>
<path fill-rule="evenodd" clip-rule="evenodd" d="M14.6797 22.979H17.3075V23.3905H14.6797V22.979Z" fill="white"/>
<path fill-rule="evenodd" clip-rule="evenodd" d="M14.6567 23.5549H17.305V25.3256H14.6567V23.5549Z" fill="white"/>
<path fill-rule="evenodd" clip-rule="evenodd" d="M17.3922 25.4482H14.5801V25.7778H17.3922V25.4482Z" fill="white"/>
<path fill-rule="evenodd" clip-rule="evenodd" d="M16.6162 27.7742H15.5317L15.5338 27.7681L16.1052 26.0496L16.6162 27.7742Z" fill="white"/>
<path fill-rule="evenodd" clip-rule="evenodd" d="M17.3637 25.9287V27.7741H16.7134L17.3637 25.9287Z" fill="white"/>
<path fill-rule="evenodd" clip-rule="evenodd" d="M16.1528 25.8809H17.2875L16.67 27.6311L16.1549 25.8891L16.1528 25.8809Z" fill="white"/>
<path fill-rule="evenodd" clip-rule="evenodd" d="M14.8027 25.8809H16.0716L16.0686 25.888L15.4909 27.625L14.8027 25.8809Z" fill="white"/>
<path fill-rule="evenodd" clip-rule="evenodd" d="M14.603 25.8809H14.7464L14.7054 25.8972L15.4448 27.7703L15.4458 27.7744H14.603V25.8809Z" fill="white"/>
<path fill-rule="evenodd" clip-rule="evenodd" d="M17.3922 27.8984H14.5801V28.2281H17.3922V27.8984Z" fill="white"/>
<path fill-rule="evenodd" clip-rule="evenodd" d="M10.8052 20.0134H13.8232V20.342H13.6204H13.2691H10.8052V20.0134Z" fill="white"/>
<path fill-rule="evenodd" clip-rule="evenodd" d="M12.9482 22.3587H12.9124H11.8638L11.8658 22.3515L12.4188 20.6904L12.4372 20.6331L12.9319 22.3035L12.9482 22.3587Z" fill="white"/>
<path fill-rule="evenodd" clip-rule="evenodd" d="M13.6967 20.5122V22.3586H13.0454L13.6967 20.5122Z" fill="white"/>
<path fill-rule="evenodd" clip-rule="evenodd" d="M12.4932 20.4651H13.593H13.6279L13.0103 22.2143L12.995 22.1611L12.4952 20.4733L12.4932 20.4651Z" fill="white"/>
<path fill-rule="evenodd" clip-rule="evenodd" d="M11.1426 20.4651H12.4104L12.4083 20.4723L12.3848 20.5418L11.8308 22.2082L11.8113 22.1591L11.1426 20.4651Z" fill="white"/>
<path fill-rule="evenodd" clip-rule="evenodd" d="M10.9507 20.4651H11.0122H11.094L11.0531 20.4815L11.7669 22.29L11.7925 22.3535L11.7935 22.3586H10.9507V20.4651Z" fill="white"/>
<path fill-rule="evenodd" clip-rule="evenodd" d="M10.9736 22.5029H13.6629L13.2522 23.243H11.3843L10.9736 22.5029Z" fill="white"/>
<path fill-rule="evenodd" clip-rule="evenodd" d="M11.3188 23.3464H13.3312V25.7752H11.3188V23.3464Z" fill="white"/>
<path fill-rule="evenodd" clip-rule="evenodd" d="M11.0044 25.8574H13.6322V26.2689H11.0044V25.8574Z" fill="white"/>
<path fill-rule="evenodd" clip-rule="evenodd" d="M10.9971 26.4333H13.6454V28.204H10.9971V26.4333Z" fill="white"/>
<path fill-rule="evenodd" clip-rule="evenodd" d="M13.7257 28.3262H10.9126V28.6558H13.7257V28.3262Z" fill="white"/>
<path fill-rule="evenodd" clip-rule="evenodd" d="M12.9482 30.6521H11.8638L11.8658 30.646L12.4372 28.9275L12.9482 30.6521Z" fill="white"/>
<path fill-rule="evenodd" clip-rule="evenodd" d="M13.6967 28.8066V30.6521H13.0454L13.6967 28.8066Z" fill="white"/>
<path fill-rule="evenodd" clip-rule="evenodd" d="M12.4932 28.7588H13.6279L13.0103 30.509L12.4952 28.767L12.4932 28.7588Z" fill="white"/>
<path fill-rule="evenodd" clip-rule="evenodd" d="M11.1426 28.7588H12.4104L12.4083 28.766L11.8308 30.5028L11.1426 28.7588Z" fill="white"/>
<path fill-rule="evenodd" clip-rule="evenodd" d="M10.9507 28.7588H11.094L11.0531 28.7752L11.7925 30.6482L11.7935 30.6523H10.9507V28.7588Z" fill="white"/>
<path fill-rule="evenodd" clip-rule="evenodd" d="M13.7257 30.7756H10.9126V31.1052H13.7257V30.7756Z" fill="white"/>
<path fill-rule="evenodd" clip-rule="evenodd" d="M13.7257 35.5913C13.27 35.4685 12.8266 35.4122 12.3565 35.3672H10.9126V31.2117H13.7257V35.5924V35.5913Z" fill="white"/>
<path fill-rule="evenodd" clip-rule="evenodd" d="M17.3932 36.0071C16.7634 36.4196 16.3527 37.3919 16.024 38.0347C15.6246 37.2415 15.3676 36.4851 14.5801 35.9631V28.3337H17.3932V36.0071Z" fill="white"/>
<path fill-rule="evenodd" clip-rule="evenodd" d="M19.5725 35.423C19.1106 35.4741 18.6314 35.5273 18.1787 35.6358V31.2112H20.9919V35.3666H20.5444C20.2198 35.3698 19.8951 35.3902 19.5725 35.423Z" fill="white"/>
<path fill-rule="evenodd" clip-rule="evenodd" d="M18.0635 18.5811H21.1234V18.8492H18.0635V18.5811Z" fill="white"/>
<path fill-rule="evenodd" clip-rule="evenodd" d="M18.1328 19.0342H21.0279V19.8366H18.1328V19.0342Z" fill="white"/>
<path fill-rule="evenodd" clip-rule="evenodd" d="M20.1477 15.3171C20.4825 15.5116 20.7078 15.875 20.7078 16.2895C20.7078 16.7276 20.458 17.1062 20.0924 17.2915L20.8676 18.4583H18.3013L19.0765 17.2915C18.7109 17.1062 18.46 16.7265 18.46 16.2895C18.46 15.875 18.6853 15.5126 19.0201 15.3171V14.3632H18.5992V13.9927H20.5706V14.3632H20.1497V15.3171H20.1477Z" fill="white"/>
<path fill-rule="evenodd" clip-rule="evenodd" d="M14.4575 15.7041H17.5175V15.9712H14.4575V15.7041Z" fill="white"/>
<path fill-rule="evenodd" clip-rule="evenodd" d="M14.5342 16.1562H17.4303V16.9587H14.5342V16.1562Z" fill="white"/>
<path fill-rule="evenodd" clip-rule="evenodd" d="M16.5491 12.4382C16.884 12.6327 17.1093 12.996 17.1093 13.4106C17.1093 13.8486 16.8594 14.2273 16.4937 14.4126L17.269 15.5794H14.7026L15.4779 14.4126C15.1123 14.2273 14.8614 13.8476 14.8614 13.4106C14.8614 12.996 15.0867 12.6337 15.4216 12.4382V11.4843H15.0006V11.1138H16.972V11.4843H16.5511V12.4382H16.5491Z" fill="white"/>
<path fill-rule="evenodd" clip-rule="evenodd" d="M10.7896 18.5811H13.8495V18.8492H10.7896V18.5811Z" fill="white"/>
<path fill-rule="evenodd" clip-rule="evenodd" d="M10.8818 19.0342H13.7769V19.8366H10.8818V19.0342Z" fill="white"/>
<path fill-rule="evenodd" clip-rule="evenodd" d="M12.8894 15.3171C13.2242 15.5116 13.4496 15.875 13.4496 16.2895C13.4496 16.7276 13.1997 17.1062 12.8341 17.2915L13.6093 18.4583H11.043L11.8182 17.2915C11.4526 17.1062 11.2017 16.7265 11.2017 16.2895C11.2017 15.875 11.427 15.5126 11.7609 15.3171V14.3632H11.3399V13.9927H13.3113V14.3632H12.8904V15.3171H12.8894Z" fill="white"/>
<path d="M15.3947 1.24304C15.448 1.18982 15.535 1.18982 15.5882 1.24304L16.9616 2.61558C17.0148 2.6688 17.0148 2.7558 16.9616 2.80903L15.5882 4.18156C15.535 4.23479 15.448 4.23479 15.3947 4.18156L14.0214 2.80903C13.9681 2.7558 13.9681 2.6688 14.0214 2.61558L15.3958 1.24202L15.3947 1.24304Z" fill="white"/>
<path fill-rule="evenodd" clip-rule="evenodd" d="M15.9333 1.67422L15.4909 2.11843L15.0454 1.67217L14.7658 1.9516L15.4878 2.67317L16.2098 1.9516L15.9333 1.67524V1.67422ZM15.0864 1.63021L15.4909 2.03552L15.8923 1.63226L15.5442 1.28426C15.5134 1.25355 15.4633 1.25355 15.4325 1.28426L15.0864 1.63021ZM15.5288 2.71309L16.2507 3.43468L16.9174 2.76837C16.9584 2.72742 16.9133 2.6609 16.9174 2.6568L16.2507 1.99049L15.5288 2.71207V2.71309ZM16.2098 3.47561L15.4878 2.75404L14.7658 3.47561L15.0403 3.74992L15.4827 3.30571L15.9313 3.75504L16.2108 3.47561H16.2098ZM15.4468 2.71309L14.7248 1.99151L14.0582 2.65782C14.0275 2.68853 14.0275 2.73868 14.0582 2.76939L14.7248 3.4357L15.4468 2.71412V2.71309ZM15.8893 3.79598L15.4827 3.38759L15.0813 3.79086L15.4325 4.14193C15.4633 4.17264 15.5134 4.17264 15.5442 4.14193L15.8903 3.79598H15.8893Z" fill="white"/>
<path d="M5.95717 7.00953C6.03091 7.02286 6.08109 7.09451 6.06778 7.16816L5.73086 9.08011C5.71754 9.15383 5.64586 9.20399 5.57212 9.19065L3.65913 8.85391C3.58539 8.84064 3.53522 8.76899 3.54853 8.69527L3.88545 6.78333C3.89876 6.70968 3.97045 6.65952 4.04419 6.67278L5.95717 7.00953Z" fill="white"/>
<path fill-rule="evenodd" clip-rule="evenodd" d="M5.91935 7.70072L5.30183 7.59322L5.41242 6.97299L5.02327 6.90438L4.84611 7.90951L5.85175 8.08652L5.91935 7.70072ZM5.46977 6.98218L5.36941 7.54513L5.92959 7.64234L6.01561 7.15718C6.02278 7.11524 5.9941 7.07324 5.95212 7.06612L5.4708 6.98114L5.46977 6.98218ZM4.83586 7.96575L4.6587 8.97088L5.58652 9.13463C5.64284 9.14486 5.67254 9.07017 5.67766 9.0712L5.84151 8.14387L4.83586 7.96679V7.96575ZM4.60135 8.96066L4.77852 7.95553L3.77286 7.77845L3.70528 8.16024L4.32382 8.26775L4.2122 8.89205L4.60135 8.96066ZM4.78876 7.89825L4.96592 6.89312L4.0381 6.72937C3.99612 6.72219 3.95412 6.75086 3.94696 6.79384L3.7831 7.72117L4.78876 7.89825ZM4.15485 8.88183L4.25623 8.3148L3.69503 8.21759L3.60901 8.70682C3.60184 8.74876 3.63052 8.79076 3.67352 8.79788L4.15587 8.88286L4.15485 8.88183Z" fill="white"/>
<path d="M26.0029 6.96121C25.9292 6.97448 25.879 7.04613 25.8923 7.11984L26.2292 9.03179C26.2425 9.10544 26.3142 9.1556 26.3879 9.14233L28.3009 8.80559C28.3747 8.79225 28.4248 8.72061 28.4115 8.64695L28.0746 6.73501C28.0613 6.66129 27.9896 6.61113 27.9159 6.62446L26.0029 6.96121Z" fill="white"/>
<path fill-rule="evenodd" clip-rule="evenodd" d="M26.0412 7.65165L26.6588 7.54414L26.5482 6.92392L26.9373 6.85531L27.1145 7.86044L26.1088 8.03752L26.0412 7.65165ZM26.4908 6.93311L26.5911 7.49606L26.031 7.59327L25.945 7.10811C25.9378 7.06617 25.9664 7.02423 26.0084 7.01705L26.4898 6.93207L26.4908 6.93311ZM27.1247 7.91675L27.3018 8.92181L26.3741 9.08556C26.3177 9.09585 26.288 9.02109 26.2829 9.02109L26.1191 8.09376L27.1247 7.91675ZM27.3592 8.91159L27.182 7.90646L28.1877 7.72944L28.2553 8.11117L27.6367 8.21867L27.7484 8.84298L27.3592 8.91159ZM27.1718 7.84918L26.9947 6.84405L27.9225 6.6803C27.9645 6.67312 28.0065 6.70179 28.0136 6.74379L28.1775 7.67106L27.1718 7.84814V7.84918ZM27.8057 8.83275L27.7043 8.26573L28.2656 8.16851L28.3516 8.65775C28.3588 8.69969 28.3301 8.74169 28.287 8.74887L27.8047 8.83379L27.8057 8.83275Z" fill="white"/>
<path d="M20.1752 2.04921C20.2398 2.01236 20.3248 2.03488 20.3627 2.09936L21.3345 3.781C21.3714 3.84548 21.3488 3.93043 21.2843 3.9683L19.6017 4.9386C19.5372 4.97545 19.4522 4.95293 19.4144 4.88845L18.4425 3.20681C18.4046 3.14232 18.4281 3.05737 18.4927 3.0195L20.1752 2.04818V2.04921Z" fill="white"/>
<path fill-rule="evenodd" clip-rule="evenodd" d="M20.5836 2.6048L20.0409 2.91902L19.7265 2.37246L19.3844 2.57L19.8955 3.45432L20.7803 2.94359L20.5847 2.6048H20.5836ZM19.7766 2.34381L20.0624 2.84021L20.5539 2.55465L20.3072 2.12784C20.2856 2.091 20.2365 2.07769 20.1996 2.09918L19.7766 2.34381ZM19.9241 3.50447L20.4351 4.38879L21.2513 3.91797C21.3005 3.88932 21.2759 3.81256 21.28 3.8105L20.8089 2.99476L19.9241 3.5055V3.50447ZM20.3839 4.41745L19.8729 3.53313L18.9881 4.04387L19.1816 4.37958L19.7244 4.06537L20.0409 4.615L20.3829 4.41745H20.3839ZM19.8443 3.48298L19.3332 2.59866L18.517 3.06948C18.4801 3.09097 18.4669 3.1401 18.4883 3.17695L18.9595 3.9927L19.8443 3.48196V3.48298ZM19.9917 4.64365L19.704 4.14418L19.2114 4.42974L19.4602 4.85961C19.4817 4.89646 19.5309 4.90976 19.5677 4.88827L19.9917 4.64365Z" fill="white"/>
<path d="M10.6164 2.09803C10.5519 2.06119 10.4669 2.0837 10.429 2.14819L9.45715 3.82983C9.42032 3.89431 9.44284 3.97926 9.50737 4.01713L11.1899 4.98845C11.2545 5.0253 11.3395 5.00278 11.3773 4.9383L12.3492 3.25666C12.3871 3.19217 12.3635 3.10722 12.299 3.06935L10.6164 2.09803Z" fill="white"/>
<path fill-rule="evenodd" clip-rule="evenodd" d="M10.1994 2.65338L10.7422 2.96761L11.0566 2.42104L11.3987 2.61859L10.8876 3.50291L10.0028 2.99217L10.1984 2.65338H10.1994ZM11.0065 2.39238L10.7207 2.88879L10.2281 2.60323L10.475 2.17643C10.4965 2.13957 10.5456 2.12627 10.5825 2.14777L11.0065 2.39238ZM10.859 3.55306L10.348 4.43738L9.53178 3.96656C9.48259 3.9379 9.50718 3.86113 9.50311 3.85909L9.97415 3.04334L10.859 3.55408V3.55306ZM10.3992 4.46604L10.9102 3.58172L11.795 4.09245L11.6014 4.42817L11.0587 4.11394L10.7422 4.66357L10.4001 4.46604H10.3992ZM10.9388 3.53156L11.4499 2.64725L12.2661 3.11806C12.3029 3.13956 12.3162 3.18868 12.2947 3.22553L11.8236 4.04127L10.9388 3.53054V3.53156ZM10.7914 4.69223L11.0791 4.19276L11.5717 4.47832L11.3239 4.9082C11.3024 4.94504 11.2532 4.95835 11.2164 4.93686L10.7924 4.69223H10.7914Z" fill="white"/>
<path d="M7.59617 6.32751C7.66789 6.34695 7.74465 6.30294 7.76413 6.23027L8.26695 4.35519C8.28643 4.28252 8.24236 4.20677 8.16967 4.18733L6.29355 3.68478C6.22186 3.66533 6.14505 3.70934 6.1256 3.78201L5.62277 5.6571C5.60331 5.72977 5.64735 5.80551 5.72006 5.82496L7.59617 6.32751Z" fill="white"/>
<path fill-rule="evenodd" clip-rule="evenodd" d="M7.8545 5.68365L7.24928 5.51989L7.08748 6.12888L6.70548 6.02653L6.96969 5.04088L7.95591 5.30495L7.8545 5.68263V5.68365ZM7.14275 6.14423L7.29025 5.59154L7.83916 5.73994L7.71217 6.21588C7.70091 6.25785 7.65684 6.28241 7.61587 6.27115L7.14379 6.14423H7.14275ZM6.98405 4.98459L7.24825 3.99893L8.15869 4.24253C8.21396 4.25789 8.20988 4.33772 8.21396 4.33874L7.97022 5.24865L6.98405 4.98459ZM7.19194 3.98358L6.92771 4.96924L5.94151 4.70517L6.04187 4.33056L6.6471 4.49432L6.80994 3.88123L7.1909 3.98358H7.19194ZM6.91235 5.02553L6.64813 6.01118L5.73772 5.76758C5.69573 5.75632 5.67115 5.71231 5.68242 5.67137L5.92615 4.76146L6.91235 5.02553ZM6.75463 3.8669L6.60614 4.4237L6.05621 4.27529L6.18422 3.79628C6.19548 3.75432 6.23952 3.72975 6.28048 3.74101L6.75361 3.86793L6.75463 3.8669Z" fill="white"/>
<path d="M23.6187 6.42443C23.547 6.44388 23.4703 6.39987 23.4508 6.3272L22.948 4.45211C22.9285 4.38046 22.9726 4.3037 23.0452 4.28425L24.9214 3.7817C24.9931 3.76226 25.0699 3.80627 25.0894 3.87894L25.5922 5.75403C25.6116 5.8267 25.5676 5.90244 25.4948 5.92188L23.6187 6.42443Z" fill="white"/>
<path fill-rule="evenodd" clip-rule="evenodd" d="M23.3643 5.78131L23.9696 5.61754L24.1314 6.22654L24.5134 6.12419L24.2492 5.13854L23.2629 5.40261L23.3643 5.78029V5.78131ZM24.0761 6.24189L23.9286 5.68919L23.3797 5.8376L23.5077 6.31354C23.519 6.3555 23.563 6.38007 23.6039 6.36881L24.0761 6.24189ZM24.2348 5.08224L23.9706 4.0966L23.0602 4.3402C23.0049 4.35452 23.009 4.43538 23.0049 4.4364L23.2486 5.34631L24.2348 5.08224ZM24.0269 4.08124L24.2911 5.06689L25.2773 4.80283L25.1769 4.42822L24.5717 4.59198L24.4089 3.97889L24.0279 4.08124H24.0269ZM24.3065 5.12319L24.5707 6.10883L25.4811 5.86524C25.5231 5.85398 25.5477 5.80997 25.5364 5.76902L25.2927 4.85911L24.3065 5.12319ZM24.4642 3.96456L24.6127 4.52136L25.1626 4.37294L25.0336 3.89394C25.0223 3.85197 24.9783 3.82741 24.9373 3.83867L24.4642 3.96559V3.96456Z" fill="white"/>
<path fill-rule="evenodd" clip-rule="evenodd" d="M18.8894 35.647H29.0548C29.4038 35.6252 29.9601 35.4724 30.2873 35.3088C31.2908 34.8068 31.3998 33.9776 31.4217 33.0065V0.0647218C31.4217 0.0289769 31.3927 0 31.3569 0H0.564722C0.528977 0 0.5 0.0289769 0.5 0.0647218V32.9955C0.521814 33.9012 0.609071 34.6977 1.50345 35.2215C1.86339 35.4288 2.46328 35.6033 2.86684 35.6361H13.0432L13.1413 35.647C14.6906 35.7755 15.2178 36.5068 15.5882 37.5668C15.6352 37.7013 15.6796 37.8411 15.7234 37.9856C15.7713 38.1441 15.8183 38.3082 15.8668 38.4773C15.8756 38.5082 15.8845 38.5392 15.8934 38.5705C15.897 38.5828 15.9005 38.5953 15.9042 38.6077C15.922 38.67 16.0095 38.6701 16.0269 38.6076C16.0304 38.5949 16.0339 38.5822 16.0375 38.5694C16.0434 38.5483 16.0493 38.5272 16.0552 38.5059C16.1024 38.3358 16.1509 38.1614 16.2033 37.9873C16.2457 37.8466 16.2907 37.706 16.3397 37.5681C16.46 37.2303 16.6046 36.9088 16.7952 36.6399C17.297 35.9307 18.0496 35.6797 18.8894 35.647ZM16.2142 36.2285C16.8912 35.2717 17.8984 34.9731 18.8617 34.9356L18.8755 34.9351H29.0296C29.2827 34.9145 29.7291 34.7919 29.9689 34.672C30.3191 34.4968 30.4721 34.2946 30.5609 34.0708C30.6644 33.8102 30.6987 33.4764 30.7097 32.9984V0.711939H1.21194V32.9869C1.22298 33.4346 1.25156 33.7534 1.34418 34.0101C1.42482 34.2335 1.56166 34.43 1.86107 34.6058C2.11487 34.7512 2.58957 34.8934 2.89865 34.9241H13.0826L13.2104 34.9384C14.3711 35.0366 15.1529 35.4495 15.6796 36.1666C15.7877 36.3138 15.8825 36.4714 15.9671 36.6361C16.0412 36.494 16.1232 36.3569 16.2142 36.2285Z" fill="white"/>
<path d="M44.1156 14.8012H40.9824L40.4865 15.9616H39.2944L42.3644 8.88281H42.7442L45.8141 15.9616H44.6115L44.1156 14.8012ZM42.5543 10.9611L41.3833 13.8411H43.7147L42.5543 10.9611ZM53.1156 14.9594V17.4491H51.9974V15.9616H47.3028V17.4491H46.1845V14.9594H46.7331C47.0707 14.657 47.3168 14.1084 47.4716 13.3137C47.6333 12.5189 47.7142 11.4112 47.7142 9.99053V8.99886H52.2295V14.9594H53.1156ZM47.9569 14.9594H51.1112V10.0011H48.7481C48.741 12.4837 48.4773 14.1365 47.9569 14.9594ZM60.8935 8.88281V15.9616H59.7753V11.5941L57.7814 14.2104H57.4016L55.3971 11.5835V15.9616H54.2789V8.88281H54.6692L57.5915 12.7756L60.5137 8.88281H60.8935ZM68.4678 8.88281V15.9616H67.3494V11.0982L63.0348 16.0777H62.6444V8.99886H63.7627V13.8517L68.0776 8.88281H68.4678ZM70.2166 8.99886H71.335V11.7734H74.8371V8.99886H75.9555V15.9616H74.8371V12.7756H71.335V15.9616H70.2166V8.99886ZM83.5402 8.88281V15.9616H82.4218V11.0982L78.1069 16.0777H77.7166V8.99886H78.835V13.8517L83.15 8.88281H83.5402ZM88.5277 16.0777C87.8598 16.0777 87.2443 15.9194 86.6818 15.6029C86.1259 15.2864 85.6832 14.8539 85.3525 14.3053C85.0288 13.7568 84.867 13.1484 84.867 12.4802C84.867 11.8121 85.0288 11.2037 85.3525 10.6552C85.6832 10.1066 86.1259 9.67404 86.6818 9.35755C87.2443 9.04106 87.8598 8.88281 88.5277 8.88281C89.1678 8.88281 89.7484 9.02701 90.2687 9.31535C90.7962 9.60368 91.2111 9.99402 91.5133 10.4864L90.6693 11.1088C90.4234 10.7219 90.1205 10.4266 89.7619 10.2226C89.4034 10.0116 88.9956 9.90613 88.5381 9.90613C88.0669 9.90613 87.6384 10.0187 87.2514 10.2437C86.8715 10.4618 86.5725 10.7677 86.3543 11.1615C86.1369 11.5554 86.0275 11.995 86.0275 12.4802C86.0275 12.9655 86.1369 13.4051 86.3543 13.7989C86.5725 14.1928 86.8715 14.5023 87.2514 14.7273C87.6384 14.9454 88.0669 15.0544 88.5381 15.0544C88.9956 15.0544 89.4034 14.9524 89.7619 14.7484C90.1205 14.5374 90.4234 14.2385 90.6693 13.8517L91.5133 14.4741C91.2182 14.9665 90.8066 15.3568 90.2791 15.6451C89.7587 15.9335 89.1749 16.0777 88.5277 16.0777ZM94.486 10.0011H92.1444V8.99886H97.957V10.0011H95.6044V15.9616H94.486V10.0011ZM99.0016 8.99886H101.544C102.008 8.99886 102.42 9.09031 102.778 9.27315C103.137 9.449 103.415 9.69863 103.612 10.0222C103.809 10.3457 103.907 10.715 103.907 11.1299C103.907 11.5448 103.809 11.9141 103.612 12.2376C103.415 12.5611 103.137 12.8143 102.778 12.9972C102.42 13.18 102.008 13.2715 101.544 13.2715H100.12V15.9616H99.0016V8.99886ZM101.523 12.2798C101.917 12.2798 102.219 12.1778 102.43 11.9739C102.648 11.7629 102.757 11.4851 102.757 11.1404C102.757 10.7958 102.648 10.518 102.43 10.307C102.219 10.096 101.917 9.99053 101.523 9.99053H100.12V12.2798H101.523ZM108.485 14.8012H105.351L104.856 15.9616H103.664L106.734 8.88281H107.113L110.184 15.9616H108.981L108.485 14.8012ZM106.924 10.9611L105.753 13.8411H108.084L106.924 10.9611ZM116.694 15.9616H111.292V8.99886H112.411V14.9594H115.787V8.99886H116.905V14.9594H117.781V17.4491H116.694V15.9616ZM124.76 8.88281V15.9616H123.642V11.0982L119.327 16.0777H118.937V8.99886H120.055V13.8517L124.37 8.88281H124.76ZM131.352 8.99886V15.9616H130.233V13.4508H129.083L127.29 15.9616H126.066L127.965 13.282C127.493 13.1132 127.121 12.846 126.846 12.4802C126.572 12.1145 126.435 11.6925 126.435 11.2143C126.435 10.7783 126.541 10.3949 126.752 10.0644C126.963 9.72679 127.258 9.46654 127.638 9.2837C128.025 9.09381 128.468 8.99886 128.967 8.99886H131.352ZM130.233 9.99053H128.946C128.531 9.99053 128.2 10.1031 127.954 10.3281C127.708 10.5532 127.585 10.8521 127.585 11.2248C127.585 11.5976 127.708 11.8965 127.954 12.1216C128.207 12.3396 128.538 12.4486 128.946 12.4486H130.233V9.99053ZM39.938 22.2668H44.2422V23.269H41.0562V29.2296H39.938V22.2668ZM48.3998 29.3456C47.7316 29.3456 47.1162 29.1874 46.5536 28.8709C45.9979 28.5544 45.5584 28.1219 45.2349 27.5733C44.9113 27.0247 44.7496 26.4163 44.7496 25.7482C44.7496 25.0801 44.9113 24.4717 45.2349 23.9231C45.5654 23.3745 46.0085 22.942 46.5641 22.6255C47.1198 22.309 47.7316 22.1508 48.3998 22.1508C49.0609 22.1508 49.6728 22.309 50.2354 22.6255C50.798 22.942 51.2411 23.3745 51.5646 23.9231C51.8952 24.4717 52.0605 25.0801 52.0605 25.7482C52.0605 26.4163 51.8952 27.0247 51.5646 27.5733C51.2411 28.1219 50.798 28.5544 50.2354 28.8709C49.6728 29.1874 49.0609 29.3456 48.3998 29.3456ZM48.4103 28.3223C48.8815 28.3223 49.307 28.2133 49.6868 27.9953C50.0666 27.7702 50.3655 27.4607 50.5835 27.0669C50.8016 26.6731 50.9106 26.23 50.9106 25.7377C50.9106 25.2594 50.8016 24.8233 50.5835 24.4295C50.3655 24.0357 50.0666 23.7297 49.6868 23.5117C49.307 23.2866 48.8815 23.1741 48.4103 23.1741C47.9321 23.1741 47.503 23.2866 47.1232 23.5117C46.7435 23.7297 46.4446 24.0357 46.2265 24.4295C46.0155 24.8163 45.91 25.2524 45.91 25.7377C45.91 26.23 46.0155 26.6731 46.2265 27.0669C46.4446 27.4607 46.7435 27.7702 47.1232 27.9953C47.503 28.2133 47.9321 28.3223 48.4103 28.3223ZM53.4032 22.2668H55.9457C56.4098 22.2668 56.8213 22.3583 57.18 22.5411C57.5387 22.717 57.8164 22.9666 58.0134 23.2901C58.2103 23.6137 58.3088 23.9829 58.3088 24.3978C58.3088 24.8128 58.2103 25.182 58.0134 25.5056C57.8164 25.8291 57.5387 26.0823 57.18 26.2651C56.8213 26.448 56.4098 26.5394 55.9457 26.5394H54.5215V29.2296H53.4032V22.2668ZM55.9246 25.5478C56.3184 25.5478 56.6208 25.4458 56.8318 25.2418C57.0498 25.0308 57.1589 24.753 57.1589 24.4084C57.1589 24.0638 57.0498 23.786 56.8318 23.575C56.6208 23.364 56.3184 23.2585 55.9246 23.2585H54.5215V25.5478H55.9246ZM62.7819 29.3456C62.1137 29.3456 61.4983 29.1874 60.9357 28.8709C60.3801 28.5544 59.9405 28.1219 59.617 27.5733C59.2935 27.0247 59.1317 26.4163 59.1317 25.7482C59.1317 25.0801 59.2935 24.4717 59.617 23.9231C59.9475 23.3745 60.3906 22.942 60.9463 22.6255C61.5018 22.309 62.1137 22.1508 62.7819 22.1508C63.443 22.1508 64.0548 22.309 64.6175 22.6255C65.1802 22.942 65.6233 23.3745 65.9469 23.9231C66.2777 24.4717 66.4427 25.0801 66.4427 25.7482C66.4427 26.4163 66.2777 27.0247 65.9469 27.5733C65.6233 28.1219 65.1802 28.5544 64.6175 28.8709C64.0548 29.1874 63.443 29.3456 62.7819 29.3456ZM62.7924 28.3223C63.2636 28.3223 63.6892 28.2133 64.069 27.9953C64.4487 27.7702 64.7476 27.4607 64.9657 27.0669C65.1837 26.6731 65.2926 26.23 65.2926 25.7377C65.2926 25.2594 65.1837 24.8233 64.9657 24.4295C64.7476 24.0357 64.4487 23.7297 64.069 23.5117C63.6892 23.2866 63.2636 23.1741 62.7924 23.1741C62.3142 23.1741 61.8852 23.2866 61.5054 23.5117C61.1256 23.7297 60.8267 24.0357 60.6087 24.4295C60.3977 24.8163 60.2922 25.2524 60.2922 25.7377C60.2922 26.23 60.3977 26.6731 60.6087 27.0669C60.8267 27.4607 61.1256 27.7702 61.5054 27.9953C61.8852 28.2133 62.3142 28.3223 62.7924 28.3223ZM73.7821 28.2274V30.7171H72.6638V29.2296H67.9695V30.7171H66.8511V28.2274H67.3999C67.7371 27.9249 67.9837 27.3763 68.1384 26.5816C68.3002 25.7869 68.3805 24.6792 68.3805 23.2585V22.2668H72.8961V28.2274H73.7821ZM68.6232 28.2274H71.7777V23.269H69.4147C69.4076 25.7517 69.1442 27.4045 68.6232 28.2274ZM79.123 28.0691H75.9898L75.494 29.2296H74.3019L77.3716 22.1508H77.7515L80.8219 29.2296H79.6188L79.123 28.0691ZM77.5619 24.2291L76.3911 27.1091H78.7224L77.5619 24.2291ZM84.3616 22.2668H85.4799V25.0414H88.9827V22.2668H90.1011V29.2296H88.9827V26.0436H85.4799V29.2296H84.3616V22.2668ZM91.8622 22.2668H96.4406V23.269H92.9806V25.0519H95.5863V26.0225H92.9806V28.2274H96.5674V29.2296H91.8622V22.2668ZM97.8683 22.2668H100.411C100.875 22.2668 101.286 22.3583 101.645 22.5411C102.004 22.717 102.282 22.9666 102.478 23.2901C102.675 23.6137 102.774 23.9829 102.774 24.3978C102.774 24.8128 102.675 25.182 102.478 25.5056C102.282 25.8291 102.004 26.0823 101.645 26.2651C101.286 26.448 100.875 26.5394 100.411 26.5394H98.9867V29.2296H97.8683V22.2668ZM100.39 25.5478C100.783 25.5478 101.086 25.4458 101.297 25.2418C101.515 25.0308 101.624 24.753 101.624 24.4084C101.624 24.0638 101.515 23.786 101.297 23.575C101.086 23.364 100.783 23.2585 100.39 23.2585H98.9867V25.5478H100.39ZM109.61 22.1508C110.265 22.1508 110.859 22.309 111.393 22.6255C111.934 22.942 112.36 23.3745 112.67 23.9231C112.979 24.4717 113.134 25.0801 113.134 25.7482C113.134 26.4163 112.976 27.0247 112.659 27.5733C112.35 28.1219 111.924 28.5544 111.382 28.8709C110.848 29.1874 110.257 29.3456 109.61 29.3456C108.984 29.3456 108.415 29.205 107.901 28.9236C107.388 28.6353 106.973 28.2414 106.656 27.7421C106.347 27.2357 106.171 26.6695 106.129 26.0436H105.137V29.2296H104.019V22.2668H105.137V25.0414H106.181C106.28 24.4857 106.491 23.9899 106.814 23.5539C107.138 23.1108 107.539 22.7661 108.017 22.52C108.502 22.2739 109.034 22.1508 109.61 22.1508ZM109.621 28.3223C110.078 28.3223 110.486 28.2133 110.844 27.9953C111.203 27.7702 111.481 27.4607 111.678 27.0669C111.882 26.6731 111.984 26.23 111.984 25.7377C111.984 25.2524 111.882 24.8163 111.678 24.4295C111.481 24.0357 111.2 23.7297 110.834 23.5117C110.475 23.2866 110.071 23.1741 109.621 23.1741C109.164 23.1741 108.752 23.2866 108.386 23.5117C108.028 23.7297 107.746 24.0357 107.542 24.4295C107.346 24.8163 107.247 25.2524 107.247 25.7377C107.247 26.23 107.346 26.6731 107.542 27.0669C107.746 27.4607 108.028 27.7702 108.386 27.9953C108.752 28.2133 109.164 28.3223 109.621 28.3223ZM114.476 22.2668H115.594V25.0414H119.096V22.2668H120.215V29.2296H119.096V26.0436H115.594V29.2296H114.476V22.2668ZM121.976 22.2668H126.28V23.269H123.094V29.2296H121.976V22.2668ZM127.405 22.2668H129.948C130.412 22.2668 130.823 22.3583 131.182 22.5411C131.54 22.717 131.819 22.9666 132.016 23.2901C132.212 23.6137 132.311 23.9829 132.311 24.3978C132.311 24.8128 132.212 25.182 132.016 25.5056C131.819 25.8291 131.54 26.0823 131.182 26.2651C130.823 26.448 130.412 26.5394 129.948 26.5394H128.524V29.2296H127.405V22.2668ZM129.926 25.5478C130.32 25.5478 130.623 25.4458 130.834 25.2418C131.052 25.0308 131.161 24.753 131.161 24.4084C131.161 24.0638 131.052 23.786 130.834 23.575C130.623 23.364 130.32 23.2585 129.926 23.2585H128.524V25.5478H129.926ZM139.379 22.1508V29.2296H138.261V24.3662L133.946 29.3456H133.556V22.2668H134.674V27.1197L138.989 22.1508H139.379Z" fill="white"/>
</g>
<defs>
<clipPath id="clip0_3622_20770">
<rect width="149.507" height="38.7036" fill="white" transform="translate(0.5)"/>
</clipPath>
</defs>
</svg>
