<svg width="79" height="65" viewBox="0 0 79 65" fill="none" xmlns="http://www.w3.org/2000/svg">
<path fill-rule="evenodd" clip-rule="evenodd" d="M53.096 0C68.107 0 75.9453 11.2229 72.3955 27.5563C68.5018 45.4153 55.6063 58.0904 39.7392 64.7581C19.6985 56.4398 8.15901 39.9185 6.04346 17.5979C14.8904 16.1237 21.8527 9.9164 21.3623 0H53.096Z" fill="#E6E4EB"/>
<path fill-rule="evenodd" clip-rule="evenodd" d="M70.0259 27.0307C66.6616 42.8137 55.2491 55.4209 39.7489 62.1182C21.5138 54.2891 11.0125 38.8205 8.71729 19.4532C16.86 17.378 23.1797 11.2472 23.7454 2.38112H53.205C67.6366 2.31872 73.0133 13.6685 70.0259 27.0307Z" fill="#353151"/>
<path fill-rule="evenodd" clip-rule="evenodd" d="M67.9233 26.5671C64.5907 41.9101 53.8694 53.3543 39.7531 59.7683C23.7188 52.6314 13.6893 38.7975 11.0796 21.0021C18.6255 18.4244 24.379 12.6076 25.668 4.55888H53.2097C66.2574 4.49608 70.533 14.62 67.9233 26.5671Z" fill="#E6E4EB"/>
<path fill-rule="evenodd" clip-rule="evenodd" d="M77.28 25.2172L32.9108 27.7633C31.7557 29.1921 29.6068 32.0489 27.7808 32.4461C26.812 32.6574 25.8682 31.9869 25.6569 31.0057C25.3711 29.6767 26.4892 28.3473 27.1847 27.3166L1.64584 25.2542C0.192487 25.1424 0.291901 22.9436 1.68327 22.9436H30.3397L38.8481 13.4286L35.6436 12.261C34.7863 11.9507 34.8612 10.7332 35.805 10.7332H39.7179L40.935 6.64644C41.1712 5.85155 42.3014 5.95097 42.3883 6.74586L42.7856 10.7332H46.4252C47.3561 10.7332 47.4064 11.9382 46.4747 12.261L42.276 13.7144L36.0408 22.9436H77.2546C78.7828 22.944 78.8203 25.1178 77.28 25.2172Z" fill="#E6E4EB"/>
<path fill-rule="evenodd" clip-rule="evenodd" d="M77.2597 24.7373C78.1744 24.6899 78.159 23.4437 77.2597 23.4437H42.0456L42.8825 26.7094L77.2597 24.7373ZM39.5054 23.4437H35.1358L41.9666 13.3148L46.3213 11.8157C46.8736 11.6264 46.7152 11.2321 46.4319 11.2321H42.3456L41.9042 6.79882C41.888 6.56255 41.5095 6.46772 41.4151 6.78301L40.0736 11.2317H35.8138C35.4507 11.2317 35.4037 11.6576 35.8138 11.8152L39.6947 13.2195L30.5603 23.4429H1.68874C0.931284 23.4429 0.821056 24.7207 1.68874 24.7839L28.02 26.8982C27.4522 27.9236 26.5055 28.9177 26.174 30.0695C25.8271 31.2683 26.7576 32.1838 27.6885 31.9783C29.1876 31.6472 31.6642 28.5392 32.6742 27.2926L38.4168 26.961L39.5054 23.4437Z" fill="#353151"/>
<path fill-rule="evenodd" clip-rule="evenodd" d="M41.443 38.557L39.8399 30.6651L37.9532 38.557H41.443ZM51.1585 41.0407L54.868 36.513V36.3562C54.868 35.8533 54.5852 35.3812 53.6738 35.3812V34.3122H58.2639V35.3812C57.1312 35.3812 57.1004 35.8217 57.1004 36.9531V42.2037C57.1004 43.3672 57.1949 43.7756 58.2639 43.7756V44.813H53.6738V43.7756C54.7112 43.7756 54.868 43.3988 54.868 42.2037V38.1165L51.1585 42.675V42.8643C51.1585 43.4932 51.5038 43.7756 52.3527 43.7756V44.813H40.9401V43.7756C41.7575 43.7756 42.292 43.7124 42.292 42.8951C42.292 42.3922 42.072 41.1347 41.7267 39.7508H37.6079L37.0734 41.8572C36.6961 43.2407 36.8218 43.7752 38.2996 43.7752V44.8126H28.773V43.7752C29.9052 43.7752 30.0304 43.3984 30.0304 42.2033V37.2988L27.1379 44.4665L24.2137 37.0783V42.2973C24.2137 43.3031 24.3397 43.7752 25.4399 43.7752V44.8126H21.9185V43.7752C23.1131 43.7752 23.1759 43.0523 23.1759 42.0457V36.9527C23.1759 36.0413 23.1759 35.3808 22.0129 35.3808V34.3118H25.7544L27.798 39.7201L29.8416 34.3118H33.4571V35.3808C32.3249 35.3808 32.2937 35.8213 32.2937 36.9527V42.2033C32.2937 43.2091 32.3881 43.5236 32.7025 43.6176C33.3943 43.8692 34.6833 43.806 35.0602 43.0523C35.3118 42.5802 35.5947 41.7948 35.8775 40.7254L40.7509 21.5781L45.1525 40.3793C45.6238 42.4234 45.9071 42.9262 46.3476 43.3667C46.7872 43.7436 48.2331 44.0273 48.7368 43.4612C48.862 43.3351 48.9252 43.1151 48.9252 42.2037V36.9531C48.9252 35.7581 48.8308 35.3812 47.7302 35.3812V34.3122H52.3519V35.3812C51.2201 35.3812 51.1577 35.8533 51.1577 36.9531V41.0407H51.1585Z" fill="#353151"/>
</svg>
