<svg width="110" height="62" viewBox="0 0 110 62" fill="none" xmlns="http://www.w3.org/2000/svg">
<g clip-path="url(#clip0_3622_23625)">
<mask id="mask0_3622_23625" style="mask-type:luminance" maskUnits="userSpaceOnUse" x="1" y="0" width="109" height="61">
<path d="M109.08 0.511719H1.19531V60.9918H109.08V0.511719Z" fill="white"/>
</mask>
<g mask="url(#mask0_3622_23625)">
<path d="M41.2009 31.2948C39.5437 31.2948 38.1319 31.8159 36.9658 32.8274C35.7075 33.9308 35.0938 35.31 35.0938 37.0265C35.0938 38.743 35.7075 40.1529 36.9658 41.2256C38.1319 42.2371 39.5744 42.7582 41.2316 42.7582H42.0295V39.9996H41.4158C40.5257 39.9996 39.7585 39.7544 39.0833 39.2333C38.3468 38.6816 37.9785 37.946 37.9785 37.0265C37.9785 36.107 38.3468 35.3713 39.0527 34.8197C39.7278 34.3292 40.495 34.0533 41.4158 34.0533H46.8785V42.7582H49.7939V34.0533H54.8577L57.5584 31.2948H41.2009ZM59.9215 31.2948L51.2977 38.9881V43.0341L59.9215 35.3713V38.4058H57.4663L54.336 41.2256H59.8907V42.7582H62.9904V31.2948H59.9215ZM71.3686 31.2948V35.6472H67.4711V31.0189L64.4021 33.7776V42.7582H67.4711V38.4058H71.3686V42.7582H74.4376V31.2948H71.3686ZM87.7877 31.2948H83.7057L78.6727 35.9843V31.0496L75.6958 33.8082V42.7582H78.6727V39.9996L80.023 38.743L84.6572 43.0033V39.0188L82.2017 36.72L87.7877 31.2948ZM105.956 30.9576V35.5859H102.119V31.2335H99.0813V39.9996H97.6387V31.2948H95.0606L89.8746 36.107V31.0802L86.8668 33.8388V43.0033L94.6308 35.8618V42.7888L102.119 42.7276V38.3751H105.956V42.7276H108.994V33.7162L105.956 30.9576ZM69.3124 5.51758L71.7676 10.0539L77.1689 9.37958L72.5655 11.8316L74.7137 15.4177L70.8469 13.5787L66.7652 17.9618L68.4838 12.6899L58.6939 12.0768L69.0055 10.1458L69.3124 5.51758Z" fill="white"/>
<path d="M35.7695 47.8776V45.119H36.6288L37.1505 47.0194L37.6722 45.119H38.5315V47.8776H37.9791V45.7014L37.396 47.8776H36.8436L36.2605 45.7014V47.8776H35.7695ZM39.0225 46.4983C39.0225 46.2224 39.0533 45.9773 39.1453 45.7933C39.2067 45.6401 39.2988 45.5175 39.4215 45.4255C39.5443 45.303 39.667 45.2416 39.7898 45.1803C39.9739 45.119 40.1887 45.0577 40.4036 45.0577C40.8332 45.0577 41.1708 45.1803 41.4163 45.4255C41.6619 45.6708 41.7846 46.0386 41.7846 46.4676C41.7846 46.9275 41.6619 47.2646 41.4163 47.5098C41.1708 47.755 40.8332 47.8776 40.4036 47.8776C39.9739 47.8776 39.6364 47.755 39.3908 47.5098C39.176 47.2953 39.0225 46.9274 39.0225 46.4983ZM39.6364 46.4676C39.6364 46.7742 39.6977 47.0194 39.8512 47.1726C40.0047 47.3259 40.1888 47.4178 40.4343 47.4178C40.6798 47.4178 40.8639 47.3259 41.0174 47.1726C41.1708 47.0194 41.2322 46.7742 41.2322 46.437C41.2322 46.1305 41.1708 45.8853 41.0174 45.732C40.8639 45.5787 40.6798 45.4868 40.4343 45.4868C40.1888 45.4868 40.0047 45.5787 39.8512 45.732C39.6977 45.9159 39.6364 46.1611 39.6364 46.4676ZM44.1477 46.8354L44.7001 47.0194C44.6081 47.3259 44.4853 47.5404 44.2704 47.6937C44.0556 47.8469 43.8101 47.9082 43.5032 47.9082C43.1349 47.9082 42.7974 47.7856 42.5518 47.5404C42.3064 47.2953 42.1835 46.9581 42.1835 46.4983C42.1835 46.0386 42.3064 45.6708 42.5518 45.4255C42.7974 45.1803 43.1349 45.0577 43.5339 45.0577C43.8715 45.0577 44.1784 45.1497 44.3932 45.3642C44.516 45.4868 44.6081 45.6401 44.7001 45.8853L44.117 46.0079C44.0863 45.8546 44.025 45.7627 43.9021 45.6708C43.7794 45.5787 43.6567 45.5481 43.5032 45.5481C43.2884 45.5481 43.1042 45.6095 42.9815 45.7627C42.8587 45.9159 42.7974 46.1611 42.7974 46.4676C42.7974 46.8048 42.8587 47.0807 42.9815 47.2032C43.1042 47.3565 43.2884 47.4178 43.5032 47.4178C43.6567 47.4178 43.7794 47.3565 43.9021 47.2645C44.025 47.2032 44.117 47.05 44.1477 46.8354ZM45.2832 45.0884H45.8663V46.2531C45.989 46.2531 46.0811 46.2224 46.1425 46.1611C46.1732 46.0998 46.2652 45.9773 46.3573 45.732C46.48 45.4255 46.6029 45.2416 46.7256 45.1803C46.8483 45.119 47.0325 45.0577 47.3087 45.0577C47.3087 45.0577 47.3394 45.0577 47.4008 45.0577V45.4562H47.3087C47.186 45.4562 47.0939 45.4562 47.0325 45.4868C46.9711 45.5175 46.9404 45.5481 46.9097 45.6095C46.8791 45.6708 46.8177 45.7933 46.7563 45.9773C46.7256 46.0692 46.695 46.1611 46.6335 46.2224C46.6029 46.2838 46.5108 46.3451 46.4187 46.4064C46.5415 46.437 46.6642 46.4983 46.7256 46.6209C46.8177 46.7129 46.9098 46.8661 47.0018 47.0807L47.4008 47.8469H46.7256L46.388 47.142C46.388 47.142 46.3573 47.1113 46.3573 47.0807C46.3573 47.0807 46.3267 47.0194 46.2959 46.9581C46.2346 46.8354 46.1732 46.7435 46.1118 46.7129C46.0505 46.6822 45.989 46.6516 45.897 46.6516V47.8776H45.3139V45.0884H45.2832ZM47.6463 46.4983C47.6463 46.2224 47.677 45.9773 47.7691 45.7933C47.8304 45.6401 47.9225 45.5175 48.0453 45.4255C48.168 45.303 48.2907 45.2416 48.4136 45.1803C48.5977 45.119 48.8125 45.0577 49.0273 45.0577C49.457 45.0577 49.7945 45.1803 50.0401 45.4255C50.2855 45.6708 50.4083 46.0386 50.4083 46.4676C50.4083 46.9275 50.2855 47.2646 50.0401 47.5098C49.7945 47.755 49.457 47.8776 49.0273 47.8776C48.5977 47.8776 48.2601 47.755 48.0145 47.5098C47.7691 47.2953 47.6463 46.9274 47.6463 46.4983ZM48.2294 46.4676C48.2294 46.7742 48.2907 47.0194 48.4442 47.1726C48.5977 47.3259 48.7818 47.4178 49.0273 47.4178C49.2729 47.4178 49.457 47.3259 49.6104 47.1726C49.7639 47.0194 49.8252 46.7742 49.8252 46.437C49.8252 46.1305 49.7639 45.8853 49.6104 45.732C49.457 45.5787 49.2729 45.4868 49.0273 45.4868C48.7818 45.4868 48.5977 45.5787 48.4442 45.732C48.3215 45.9159 48.2294 46.1611 48.2294 46.4676ZM50.9301 45.0884H52.0656C52.2804 45.0884 52.4645 45.0884 52.5872 45.119C52.7101 45.1497 52.8021 45.1803 52.8942 45.2416C52.9862 45.303 53.0476 45.3642 53.109 45.4868C53.1704 45.5787 53.2011 45.7014 53.2011 45.824C53.2011 45.9466 53.1703 46.0692 53.0783 46.1918C53.0169 46.3144 52.8942 46.3757 52.7714 46.437C52.9555 46.4983 53.0783 46.5596 53.1703 46.6822C53.2624 46.8048 53.3238 46.9274 53.3238 47.1113C53.3238 47.2339 53.2932 47.3565 53.2317 47.4791C53.1704 47.6018 53.0783 47.6937 52.9863 47.755C52.8942 47.8163 52.7407 47.8776 52.5872 47.8776C52.4952 47.8776 52.2497 47.9082 51.8814 47.9082H50.8994V45.0884H50.9301ZM51.5131 45.5481V46.1918H51.8814C52.0962 46.1918 52.2497 46.1918 52.311 46.1918C52.4031 46.1918 52.4952 46.1611 52.5566 46.0998C52.618 46.0386 52.6487 45.9773 52.6487 45.8853C52.6487 45.7933 52.618 45.732 52.5872 45.6708C52.5259 45.6094 52.4645 45.5787 52.3724 45.5787C52.311 45.5787 52.1576 45.5787 51.8814 45.5787H51.5131V45.5481ZM51.5131 46.6516V47.3872H52.0656C52.2804 47.3872 52.4031 47.3872 52.4645 47.3565C52.5566 47.3565 52.618 47.2953 52.6793 47.2339C52.7407 47.1726 52.7714 47.1113 52.7714 46.9887C52.7714 46.8967 52.7407 46.8354 52.7101 46.7742C52.6793 46.7129 52.618 46.6822 52.5259 46.6516C52.4339 46.6209 52.2804 46.6209 52.0042 46.6209H51.5131V46.6516ZM55.5334 46.8354L56.0859 47.0194C55.9938 47.3259 55.8711 47.5404 55.6562 47.6937C55.4414 47.8469 55.1959 47.9082 54.889 47.9082C54.5207 47.9082 54.1831 47.7856 53.9376 47.5404C53.6921 47.2953 53.5694 46.9581 53.5694 46.4983C53.5694 46.0386 53.6921 45.6708 53.9376 45.4255C54.1831 45.1803 54.5208 45.0577 54.9197 45.0577C55.2572 45.0577 55.5641 45.1497 55.779 45.3642C55.9017 45.4868 55.9938 45.6401 56.0859 45.8853L55.5028 46.0079C55.4721 45.8546 55.4107 45.7627 55.288 45.6708C55.1652 45.5787 55.0424 45.5481 54.889 45.5481C54.6741 45.5481 54.49 45.6095 54.3673 45.7627C54.2445 45.9159 54.1831 46.1611 54.1831 46.4676C54.1831 46.8048 54.2445 47.0807 54.3673 47.2032C54.49 47.3565 54.6741 47.4178 54.889 47.4178C55.0424 47.4178 55.1652 47.3565 55.288 47.2645C55.4107 47.2032 55.5028 47.05 55.5334 46.8354ZM56.669 45.0884H57.252V46.2531C57.3748 46.2531 57.4669 46.2224 57.5283 46.1611C57.5589 46.0998 57.651 45.9773 57.7431 45.732C57.8659 45.4255 57.9886 45.2416 58.1114 45.1803C58.2341 45.119 58.4182 45.0577 58.6944 45.0577C58.6944 45.0577 58.7252 45.0577 58.7865 45.0577V45.4562H58.6944C58.5717 45.4562 58.4796 45.4562 58.4182 45.4868C58.3569 45.5175 58.3262 45.5481 58.2955 45.6095C58.2648 45.6708 58.2034 45.7933 58.1421 45.9773C58.1113 46.0692 58.0807 46.1611 58.0193 46.2224C57.9886 46.2838 57.8966 46.3451 57.8045 46.4064C57.9272 46.437 58.05 46.4983 58.1114 46.6209C58.2034 46.7129 58.2955 46.8661 58.3876 47.0807L58.7865 47.8469H58.1114L57.7738 47.142C57.7738 47.142 57.7431 47.1113 57.7431 47.0807C57.7431 47.0807 57.7124 47.0194 57.6817 46.9581C57.6203 46.8354 57.5589 46.7435 57.4976 46.7129C57.4362 46.6822 57.3748 46.6516 57.2827 46.6516V47.8776H56.669V45.0884ZM59.1548 45.0884H59.7072V46.9275L60.8734 45.0884H61.4565V47.8469H60.9041V46.0692L59.7379 47.8776H59.1548V45.0884ZM62.0703 45.0884H62.6227V46.9275L63.7889 45.0884H64.372V47.8469H63.8196V46.0692L62.6534 47.8776H62.0703V45.0884ZM63.574 44.4141H63.8503C63.8196 44.5979 63.7582 44.7206 63.6661 44.8125C63.5434 44.9044 63.4207 44.9658 63.2365 44.9658C63.0524 44.9658 62.9296 44.9044 62.8068 44.8125C62.6841 44.7206 62.6227 44.5673 62.6227 44.4141H62.8989C62.8989 44.506 62.9296 44.5673 62.991 44.6286C63.0524 44.6593 63.1138 44.6899 63.2365 44.6899C63.3286 44.6899 63.4207 44.6593 63.482 44.6286C63.5434 44.5979 63.574 44.506 63.574 44.4141ZM66.6123 45.0884H68.5457V45.5481H67.1647V47.8469H66.5816V45.0884H66.6123ZM68.7299 46.4983C68.7299 46.2224 68.7606 45.9773 68.8527 45.7933C68.914 45.6401 69.0061 45.5175 69.1289 45.4255C69.2516 45.303 69.3744 45.2416 69.4971 45.1803C69.6812 45.119 69.8961 45.0577 70.1109 45.0577C70.5405 45.0577 70.8782 45.1803 71.1237 45.4255C71.3692 45.6708 71.4919 46.0386 71.4919 46.4676C71.4919 46.9275 71.3692 47.2646 71.1237 47.5098C70.8782 47.755 70.5405 47.8776 70.1109 47.8776C69.6812 47.8776 69.3437 47.755 69.0981 47.5098C68.8527 47.2953 68.7299 46.9274 68.7299 46.4983ZM69.3437 46.4676C69.3437 46.7742 69.405 47.0194 69.5585 47.1726C69.712 47.3259 69.8961 47.4178 70.1416 47.4178C70.3872 47.4178 70.5713 47.3259 70.7247 47.1726C70.8782 47.0194 70.9395 46.7742 70.9395 46.437C70.9395 46.1305 70.8782 45.8853 70.7247 45.732C70.5713 45.5787 70.3872 45.4868 70.1416 45.4868C69.8961 45.4868 69.712 45.5787 69.5585 45.732C69.405 45.9159 69.3437 46.1611 69.3437 46.4676ZM73.855 46.8354L74.4075 47.0194C74.3154 47.3259 74.1926 47.5404 73.9778 47.6937C73.763 47.8469 73.5175 47.9082 73.2105 47.9082C72.8423 47.9082 72.5047 47.7856 72.2591 47.5404C72.0137 47.2953 71.8909 46.9581 71.8909 46.4983C71.8909 46.0386 72.0137 45.6708 72.2591 45.4255C72.5047 45.1803 72.8423 45.0577 73.2413 45.0577C73.5788 45.0577 73.8857 45.1497 74.1006 45.3642C74.2233 45.4868 74.3154 45.6401 74.4075 45.8853L73.8244 46.0079C73.7936 45.8546 73.7323 45.7627 73.6095 45.6708C73.4867 45.5787 73.364 45.5481 73.2105 45.5481C72.9957 45.5481 72.8116 45.6095 72.6889 45.7627C72.5661 45.9159 72.5047 46.1611 72.5047 46.4676C72.5047 46.8048 72.5661 47.0807 72.6889 47.2032C72.8116 47.3565 72.9957 47.4178 73.2105 47.4178C73.364 47.4178 73.4867 47.3565 73.6095 47.2645C73.7323 47.2032 73.8244 47.05 73.855 46.8354ZM74.6223 45.0884H75.2668L75.9419 46.5289L76.525 45.0884H77.1388L76.1567 47.2032C76.0646 47.4178 75.9419 47.6018 75.8192 47.7243C75.6964 47.8469 75.5736 47.9082 75.3895 47.9082C75.2053 47.9082 75.0826 47.9082 74.9905 47.8776V47.4485C75.0826 47.4485 75.144 47.4485 75.2053 47.4485C75.3281 47.4485 75.4509 47.4178 75.4816 47.3872C75.543 47.3259 75.6043 47.2339 75.635 47.0807L74.6223 45.0884ZM77.4764 45.0884H79.4712V47.3872H79.7167V48.4599H79.2256V47.8469H77.415V48.4599H76.9239V47.3872H77.1695C77.2922 47.142 77.3537 46.8661 77.415 46.5596C77.4457 46.2531 77.4764 45.8546 77.4764 45.3642V45.0884ZM78.0288 45.5481C78.0288 46.3757 77.9367 46.9887 77.7832 47.3872H78.8881V45.5481H78.0288ZM82.8161 47.8776H82.1717L81.9266 47.2339H80.7909L80.5453 47.8776H79.9316L81.0671 45.119H81.6806L82.8161 47.8776ZM81.7726 46.7742L81.374 45.732L80.975 46.7742H81.7726ZM83.1846 47.8776V45.119H84.1055C84.4732 45.119 84.6885 45.119 84.7805 45.1497C84.9337 45.1803 85.0877 45.2722 85.1796 45.4255C85.3022 45.5787 85.3328 45.732 85.3328 45.9773C85.3328 46.1611 85.3022 46.2838 85.2409 46.4064C85.1796 46.5289 85.0877 46.6209 84.995 46.6822C84.903 46.7435 84.7804 46.8048 84.6885 46.8048C84.5353 46.8354 84.3506 46.8354 84.0749 46.8354H83.7063V47.8776H83.1846ZM83.7676 45.5481V46.3451H84.0749C84.2894 46.3451 84.4426 46.3451 84.5353 46.3144C84.6272 46.2838 84.6579 46.2531 84.7192 46.1918C84.7498 46.1305 84.7805 46.0692 84.7805 45.9773C84.7805 45.8853 84.7498 45.7933 84.6885 45.732C84.6272 45.6708 84.5353 45.6401 84.4426 45.6095C84.3813 45.6095 84.2281 45.5787 84.0136 45.5787H83.7676V45.5481ZM87.6343 46.8354L88.1867 47.0194C88.0948 47.3259 87.9722 47.5404 87.7577 47.6937C87.5424 47.8469 87.2972 47.9082 86.99 47.9082C86.6215 47.9082 86.2844 47.7856 86.0384 47.5404C85.7933 47.2953 85.6707 46.9581 85.6707 46.4983C85.6707 46.0386 85.7933 45.6708 86.0384 45.4255C86.2844 45.1803 86.6215 45.0577 87.0206 45.0577C87.3585 45.0577 87.6649 45.1497 87.8803 45.3642C88.0028 45.4868 88.0948 45.6401 88.1867 45.8853L87.6037 46.0079C87.573 45.8546 87.5117 45.7627 87.3892 45.6708C87.2666 45.5787 87.1432 45.5481 86.99 45.5481C86.7755 45.5481 86.5908 45.6095 86.4682 45.7627C86.3457 45.9159 86.2844 46.1611 86.2844 46.4676C86.2844 46.8048 86.3457 47.0807 86.4682 47.2032C86.5908 47.3565 86.7755 47.4178 86.99 47.4178C87.1432 47.4178 87.2666 47.3565 87.3892 47.2645C87.5117 47.2032 87.573 47.05 87.6343 46.8354ZM89.2915 47.8776V45.5787H88.4326V45.119H90.7035V45.5787H89.8438V47.8776H89.2915ZM91.1333 45.0884H92.2687C92.4832 45.0884 92.6679 45.0884 92.7904 45.119C92.913 45.1497 93.0049 45.1803 93.0977 45.2416C93.1896 45.303 93.2509 45.3642 93.3122 45.4868C93.3734 45.5787 93.4041 45.7014 93.4041 45.824C93.4041 45.9466 93.3735 46.0692 93.2815 46.1918C93.2202 46.3144 93.0977 46.3757 92.9743 46.437C93.159 46.4983 93.2815 46.5596 93.3735 46.6822C93.4654 46.8048 93.5267 46.9274 93.5267 47.1113C93.5267 47.2339 93.496 47.3565 93.4347 47.4791C93.3735 47.6018 93.2815 47.6937 93.1896 47.755C93.0977 47.8163 92.9436 47.8776 92.7904 47.8776C92.6985 47.8776 92.4525 47.9082 92.0848 47.9082H91.1026V45.0884H91.1333ZM91.7163 45.5481V46.1918H92.0848C92.2993 46.1918 92.4525 46.1918 92.5138 46.1918C92.6066 46.1918 92.6985 46.1611 92.7598 46.0998C92.8211 46.0386 92.8517 45.9773 92.8517 45.8853C92.8517 45.7933 92.8211 45.732 92.7904 45.6708C92.7291 45.6094 92.6679 45.5787 92.5759 45.5787C92.5138 45.5787 92.3606 45.5787 92.0848 45.5787H91.7163V45.5481ZM91.7163 46.6516V47.3872H92.2687C92.4832 47.3872 92.6066 47.3872 92.6679 47.3565C92.7598 47.3565 92.8211 47.2953 92.8824 47.2339C92.9436 47.1726 92.9743 47.1113 92.9743 46.9887C92.9743 46.8967 92.9436 46.8354 92.913 46.7742C92.8824 46.7129 92.8211 46.6822 92.7291 46.6516C92.6372 46.6209 92.4832 46.6209 92.2074 46.6209H91.7163V46.6516ZM94.0791 47.8776V45.119H96.1967V45.5787H94.6314V46.1918H96.0741V46.6516H94.6314V47.4178H96.2273V47.8776H94.0791ZM96.7797 47.8776V45.119H97.3627V46.2224H98.4989V45.119H99.082V47.8776H98.4989V46.6516H97.3627V47.8776H96.7797ZM99.7263 47.8776V45.119H100.309V46.2224H101.445V45.119H102.028V47.8776H101.445V46.6516H100.309V47.8776H99.7263ZM102.703 45.0884H103.287V46.1918H104.053C104.268 46.1918 104.422 46.2224 104.575 46.2838C104.728 46.3451 104.851 46.437 104.944 46.5596C105.036 46.6822 105.097 46.8661 105.097 47.05C105.097 47.2339 105.036 47.3872 104.944 47.5404C104.851 47.6631 104.728 47.755 104.606 47.8163C104.483 47.8469 104.299 47.8776 104.053 47.8776H102.703V45.0884ZM103.287 47.3872H103.839C104.023 47.3872 104.145 47.3872 104.207 47.3565C104.268 47.3259 104.329 47.2953 104.391 47.2339C104.453 47.1726 104.483 47.1113 104.483 47.0194C104.483 46.8967 104.453 46.8048 104.361 46.7435C104.268 46.6822 104.115 46.6516 103.87 46.6516H103.287V47.3872ZM105.435 45.0884H106.018V47.8469H105.435V45.0884ZM106.662 45.0884H107.215V46.9275L108.381 45.0884H108.964V47.8469H108.411V46.0692L107.245 47.8776H106.662V45.0884ZM108.135 44.4141H108.411C108.381 44.5979 108.319 44.7206 108.227 44.8125C108.135 44.9044 107.981 44.9658 107.798 44.9658C107.614 44.9658 107.49 44.9044 107.368 44.8125C107.245 44.7206 107.184 44.5673 107.184 44.4141H107.46C107.46 44.506 107.49 44.5673 107.552 44.6286C107.614 44.6899 107.675 44.6899 107.798 44.6899C107.889 44.6899 107.981 44.6593 108.043 44.6286C108.105 44.5979 108.135 44.506 108.135 44.4141ZM36.414 51.8315V49.5327H35.5547V49.073H37.8257V49.5327H36.9664V51.8315H36.414ZM38.2553 51.8315V49.073H40.3729V49.5327H38.8077V50.1457H40.2501V50.6055H38.8077V51.3718H40.4036V51.8315H38.2553ZM40.6798 51.8315L41.6619 50.3909L40.7719 49.073H41.4471L42.0301 49.9619L42.5826 49.073H43.2577L42.3677 50.4216L43.3498 51.8315H42.6439L41.9994 50.8813L41.355 51.8315H40.6798ZM43.718 51.8315V49.073H44.3012V50.1764H45.4366V49.073H46.0198V51.8315H45.4366V50.6055H44.3012V51.8315H43.718ZM46.5415 50.4829C46.5415 50.207 46.5721 49.9619 46.6642 49.7779C46.7256 49.6247 46.8177 49.502 46.9404 49.4101C47.0632 49.2875 47.186 49.2262 47.3087 49.1649C47.4928 49.1036 47.7076 49.0423 47.9225 49.0423C48.3521 49.0423 48.6897 49.1649 48.9352 49.4101C49.1808 49.6553 49.3035 50.0231 49.3035 50.4522C49.3035 50.912 49.1808 51.2492 48.9352 51.4943C48.6897 51.7396 48.3521 51.8621 47.9225 51.8621C47.4928 51.8621 47.1552 51.7396 46.9097 51.4943C46.6642 51.2798 46.5415 50.912 46.5415 50.4829ZM47.1245 50.4522C47.1245 50.7587 47.186 51.004 47.3394 51.1572C47.4928 51.3105 47.677 51.4024 47.9225 51.4024C48.168 51.4024 48.3521 51.3105 48.5056 51.1572C48.659 51.004 48.7204 50.7587 48.7204 50.4216C48.7204 50.1151 48.659 49.8698 48.5056 49.7166C48.3521 49.5633 48.168 49.4714 47.9225 49.4714C47.677 49.4714 47.4928 49.5633 47.3394 49.7166C47.186 49.9005 47.1245 50.1457 47.1245 50.4522ZM49.9173 49.073H51.9428V51.8315H51.3597V49.5327H50.5004V50.7281C50.5004 51.0653 50.5004 51.3105 50.4697 51.4331C50.439 51.5556 50.3776 51.6783 50.2855 51.7396C50.1935 51.8009 50.0401 51.8621 49.8559 51.8621C49.7945 51.8621 49.6718 51.8621 49.4877 51.8315V51.4024H49.6104C49.7331 51.4024 49.8252 51.3718 49.8559 51.3411C49.8866 51.3105 49.9173 51.2185 49.9173 51.0959V50.6055V49.073ZM52.4645 50.4829C52.4645 50.207 52.4952 49.9619 52.5872 49.7779C52.6487 49.6247 52.7407 49.502 52.8635 49.4101C52.9862 49.2875 53.109 49.2262 53.2317 49.1649C53.4159 49.1036 53.6307 49.0423 53.8456 49.0423C54.2752 49.0423 54.6128 49.1649 54.8583 49.4101C55.1038 49.6553 55.2266 50.0231 55.2266 50.4522C55.2266 50.912 55.1038 51.2492 54.8583 51.4943C54.6128 51.7396 54.2752 51.8621 53.8456 51.8621C53.4159 51.8621 53.0783 51.7396 52.8328 51.4943C52.5872 51.2798 52.4645 50.912 52.4645 50.4829ZM53.0476 50.4522C53.0476 50.7587 53.109 51.004 53.2624 51.1572C53.4159 51.3105 53.6 51.4024 53.8456 51.4024C54.0911 51.4024 54.2752 51.3105 54.4287 51.1572C54.5821 51.004 54.6435 50.7587 54.6435 50.4216C54.6435 50.1151 54.5821 49.8698 54.4287 49.7166C54.2752 49.5633 54.0911 49.4714 53.8456 49.4714C53.6 49.4714 53.4159 49.5633 53.2624 49.7166C53.109 49.9005 53.0476 50.1457 53.0476 50.4522ZM55.7482 49.073H57.6817V49.5327H56.3007V51.8315H55.7482V49.073ZM58.05 49.073H58.6024V50.912L59.7686 49.073H60.3517V51.8315H59.7993V50.0231L58.6331 51.8315H58.05V49.073ZM60.9348 49.073H61.5179V49.7473C61.5179 49.9619 61.5179 50.1151 61.5486 50.1764C61.5793 50.2376 61.61 50.299 61.702 50.3603C61.7941 50.4216 61.9169 50.4522 62.0703 50.4522C62.1931 50.4522 62.3158 50.4522 62.4079 50.4216C62.4999 50.3909 62.592 50.3603 62.6534 50.299V49.1036H63.2365V51.8621H62.6534V50.7587C62.5306 50.82 62.4079 50.8507 62.3158 50.8813C62.1931 50.912 62.101 50.912 61.9783 50.912C61.702 50.912 61.4565 50.8507 61.2723 50.7281C61.0882 50.6055 60.9961 50.3603 60.9961 50.0538V49.073H60.9348ZM63.8503 51.8315V49.073H65.9678V49.5327H64.4027V50.1457H65.8451V50.6055H64.4027V51.3718H65.9986V51.8315H63.8503ZM68.3923 50.82L68.9448 51.004C68.8527 51.3105 68.7299 51.525 68.5151 51.6783C68.3003 51.8315 68.0547 51.8928 67.7478 51.8928C67.3795 51.8928 67.042 51.7702 66.7965 51.525C66.551 51.2798 66.4282 50.9427 66.4282 50.4829C66.4282 50.0231 66.551 49.6553 66.7965 49.4101C67.042 49.1649 67.3795 49.0423 67.7785 49.0423C68.1161 49.0423 68.423 49.1342 68.6378 49.3488C68.7606 49.4714 68.8527 49.6247 68.9448 49.8698L68.3616 49.9925C68.3309 49.8392 68.2696 49.7473 68.1468 49.6553C68.024 49.5633 67.9013 49.5327 67.7478 49.5327C67.533 49.5327 67.3489 49.5941 67.2262 49.7473C67.1033 49.9005 67.042 50.1457 67.042 50.4522C67.042 50.7894 67.1033 51.0653 67.2262 51.1878C67.3489 51.3411 67.533 51.4024 67.7478 51.4024C67.9013 51.4024 68.024 51.3411 68.1468 51.2492C68.2696 51.1878 68.3616 51.0346 68.3923 50.82ZM69.5278 49.073H70.1109V50.2377C70.2337 50.2377 70.3257 50.207 70.3872 50.1457C70.4178 50.0844 70.5099 49.9619 70.602 49.7166C70.7247 49.4101 70.8475 49.2262 70.9702 49.1649C71.093 49.1036 71.2771 49.0423 71.5533 49.0423C71.5533 49.0423 71.584 49.0423 71.6454 49.0423V49.4408H71.5533C71.4306 49.4408 71.3385 49.4408 71.3078 49.4714C71.2465 49.502 71.2157 49.5327 71.185 49.5941C71.1544 49.6553 71.093 49.7779 71.0316 49.9619C71.0009 50.0538 70.9702 50.1457 70.9088 50.207C70.8782 50.2684 70.7861 50.3297 70.694 50.3909C70.8168 50.4216 70.9396 50.4829 71.0009 50.6055C71.0623 50.7281 71.185 50.8507 71.2771 51.0653L71.6761 51.8315H71.0009L70.6634 51.1265C70.6634 51.1265 70.6326 51.0959 70.6326 51.0653C70.6326 51.0653 70.602 51.004 70.5713 50.9427C70.5099 50.82 70.4485 50.7281 70.3872 50.6975C70.3257 50.6668 70.2644 50.6362 70.1723 50.6362V51.8621H69.5892V49.073H69.5278ZM72.0137 49.073H72.5661V50.912L73.7323 49.073H74.3154V51.8315H73.763V50.0231L72.5968 51.8315H72.0137V49.073ZM74.9291 49.073H75.4816V50.912L76.6477 49.073H77.2308V51.8315H76.6785V50.0231L75.5122 51.8315H74.9291V49.073ZM76.4329 48.3986H76.7091C76.6785 48.5826 76.6171 48.7052 76.525 48.7971C76.4329 48.889 76.2795 48.9504 76.0954 48.9504C75.9113 48.9504 75.7884 48.889 75.6657 48.7971C75.543 48.7052 75.4816 48.5519 75.4816 48.3986H75.7578C75.7578 48.4906 75.7884 48.5519 75.8498 48.6132C75.9113 48.6439 75.9726 48.6745 76.0954 48.6745C76.1874 48.6745 76.2795 48.6439 76.3409 48.6132C76.3715 48.5519 76.4023 48.4599 76.4329 48.3986ZM78.8574 49.073H79.5019L80.177 50.5135L80.7601 49.073H81.374L80.3919 51.1878C80.2998 51.4024 80.177 51.5864 80.0543 51.7089C79.9316 51.8315 79.8088 51.8928 79.6246 51.8928C79.4405 51.8928 79.3177 51.8928 79.2256 51.8621V51.4331C79.3177 51.4331 79.3791 51.4331 79.4405 51.4331C79.5633 51.4331 79.686 51.4024 79.7167 51.3718C79.7781 51.3105 79.8395 51.2185 79.8701 51.0653L78.8574 49.073ZM81.6806 51.8315V49.073H82.2637V50.1764H83.3991V49.073H83.9829V51.8315H83.3991V50.6055H82.2637V51.8315H81.6806ZM84.6272 49.073H85.1796V50.912L86.3457 49.073H86.9287V51.8315H86.3763V50.0231L85.2103 51.8315H84.6272V49.073ZM87.573 49.073H88.7084C88.9237 49.073 89.1076 49.073 89.2302 49.1036C89.3535 49.1342 89.4455 49.1649 89.5374 49.2262C89.6293 49.2875 89.6906 49.3488 89.7519 49.4714C89.8132 49.5633 89.8438 49.686 89.8438 49.8086C89.8438 49.9312 89.8132 50.0538 89.7213 50.1764C89.6293 50.299 89.5374 50.3603 89.4148 50.4216C89.5987 50.4829 89.7213 50.5442 89.8132 50.6668C89.9059 50.7894 89.9672 50.912 89.9672 51.0959C89.9672 51.2185 89.9366 51.3411 89.8753 51.4637C89.8132 51.5864 89.7213 51.6783 89.6293 51.7396C89.5374 51.8009 89.3842 51.8621 89.2302 51.8621C89.1382 51.8621 88.8931 51.8928 88.5246 51.8928H87.5424V49.073H87.573ZM88.1254 49.5327V50.1764H88.4939C88.7084 50.1764 88.8625 50.1764 88.9237 50.1764C89.0157 50.1764 89.1076 50.1457 89.1689 50.0844C89.2302 50.0231 89.2608 49.9619 89.2608 49.8698C89.2608 49.7779 89.2302 49.7166 89.1995 49.6553C89.1382 49.5941 89.077 49.5633 88.985 49.5633C88.9237 49.5633 88.7697 49.5633 88.4939 49.5633H88.1254V49.5327ZM88.1254 50.6362V51.3718H88.6778C88.8931 51.3718 89.0157 51.3718 89.0769 51.3411C89.1689 51.3411 89.2302 51.2798 89.2915 51.2185C89.3535 51.1572 89.3842 51.0959 89.3842 50.9733C89.3842 50.8813 89.3535 50.82 89.3221 50.7587C89.2915 50.6975 89.2302 50.6668 89.1382 50.6362C89.0463 50.6055 88.8931 50.6055 88.6165 50.6055H88.1254V50.6362ZM90.489 51.8315V49.073H92.6066V49.5327H91.0413V50.1457H92.4832V50.6055H91.0413V51.3718H92.6372V51.8315H90.489ZM93.2202 51.8315V49.073H94.1403C94.5089 49.073 94.7242 49.073 94.8161 49.1036C94.9693 49.1342 95.1225 49.2262 95.2145 49.3795C95.3378 49.5327 95.3685 49.686 95.3685 49.9312C95.3685 50.1151 95.3378 50.2376 95.2766 50.3603C95.2145 50.4829 95.1225 50.5748 95.0306 50.6362C94.9387 50.6975 94.8161 50.7587 94.7242 50.7587C94.5702 50.7894 94.3863 50.7894 94.1097 50.7894H93.8033V51.8315H93.2202ZM93.8033 49.5327V50.3297H94.1097C94.325 50.3297 94.4782 50.3297 94.5702 50.299C94.6621 50.2684 94.6935 50.2376 94.7548 50.1764C94.7855 50.1151 94.8161 50.0538 94.8161 49.9619C94.8161 49.8698 94.7855 49.7779 94.7242 49.7166C94.6621 49.6553 94.5702 49.6247 94.4782 49.5941C94.4169 49.5941 94.2637 49.5633 94.0484 49.5633H93.8033V49.5327ZM97.67 50.82L98.2223 51.004C98.1304 51.3105 98.0078 51.525 97.7925 51.6783C97.578 51.8315 97.3321 51.8928 97.0256 51.8928C96.6571 51.8928 96.32 51.7702 96.0741 51.525C95.8289 51.2798 95.7056 50.9427 95.7056 50.4829C95.7056 50.0231 95.8289 49.6553 96.0741 49.4101C96.32 49.1649 96.6571 49.0423 97.0563 49.0423C97.3942 49.0423 97.7006 49.1342 97.9159 49.3488C98.0385 49.4714 98.1304 49.6247 98.2223 49.8698L97.6393 49.9925C97.6087 49.8392 97.5474 49.7473 97.4248 49.6553C97.3014 49.5633 97.1789 49.5327 97.0256 49.5327C96.8103 49.5327 96.6265 49.5941 96.5039 49.7473C96.3813 49.9005 96.32 50.1457 96.32 50.4522C96.32 50.7894 96.3813 51.0653 96.5039 51.1878C96.6265 51.3411 96.8103 51.4024 97.0256 51.4024C97.1789 51.4024 97.3014 51.3411 97.4248 51.2492C97.5474 51.1878 97.6393 51.0346 97.67 50.82ZM98.7747 49.073H99.3271V50.912L100.493 49.073H101.076V51.8315H100.524V50.0231L99.3578 51.8315H98.7747V49.073ZM102.366 51.8315V49.5327H101.506V49.073H103.777V49.5327H102.918V51.8315H102.366ZM104.207 51.8315V49.073H106.324V49.5327H104.759V50.1457H106.202V50.6055H104.759V51.3718H106.355V51.8315H104.207ZM107.583 51.8315V49.5327H106.723V49.073H108.994V49.5327H108.135V51.8315H107.583Z" fill="white"/>
<path fill-rule="evenodd" clip-rule="evenodd" d="M68.3004 9.16577L61.5181 10.4531C58.4798 9.47228 55.4109 9.50292 52.3726 10.208V29.2726H51.1144V9.50292H44.6389V29.242H42.0303V11.3114L33.8362 4.5069V51.8929H29.3862L29.509 13.7021L22.3277 11.7711V51.7703H18.0005L17.8778 25.5026C11.034 30.56 5.60197 37.7629 3.57647 44.2609C1.91924 49.5021 3.23888 55.7242 7.47402 57.7471C13.796 60.7509 23.4939 59.5556 32.3018 57.1648C36.3834 56.0614 41.4472 53.4254 42.9203 52.6285H47.984C46.3882 53.5787 37.0279 58.9732 24.6294 60.5977C16.466 61.6398 7.10575 60.659 3.36164 55.479C-3.23658 46.3758 6.61472 30.9891 17.847 22.4682V11.1888L22.297 9.04319L29.2328 11.1888L33.8976 0.614258L41.8768 6.9896L42.0916 9.96273L44.6082 7.20415C52.4953 6.43789 60.3211 6.00878 68.0549 8.00108L68.3004 9.16577ZM59.155 43.5559V41.7781H58.6332C57.9274 42.3912 57.1908 43.0042 56.3623 43.6479C56.0553 43.893 55.7484 44.1382 55.4415 44.3835H60.3518C60.6588 44.1076 60.9656 43.8317 61.2725 43.5559H59.155ZM75.4817 17.135L71.3387 14.7442L70.418 15.2653C70.418 15.2653 72.9959 18.3916 70.9704 24.9815C70.0804 27.8627 68.2697 30.3148 68.2697 30.3148V34.8511H69.4973C69.8042 34.5139 70.418 33.6558 70.6021 33.2879V30.4987H72.5969C72.5969 30.4987 73.9166 28.6596 74.96 24.3685C75.7886 20.7825 75.4817 17.135 75.4817 17.135Z" fill="white"/>
</g>
</g>
<defs>
<clipPath id="clip0_3622_23625">
<rect width="108.864" height="61.2865" fill="white" transform="translate(0.96875 0.0273438)"/>
</clipPath>
</defs>
</svg>
