<svg width="189" height="51" viewBox="0 0 189 51" fill="none" xmlns="http://www.w3.org/2000/svg">
<g clip-path="url(#clip0_3217_8419)">
<path d="M15.2324 14.64L17.5538 7.80176L24.2303 10.9671L15.2324 14.64Z" fill="white"/>
<path d="M10.6635 24.6926L7.15234 18.5998L14.1921 15.7109L10.6647 24.6926H10.6635Z" fill="white"/>
<path d="M14.4723 35.3211L7.51172 32.79L10.6932 26.0791L14.4723 35.3211Z" fill="white"/>
<path d="M17.8745 43.2819L15.46 36.3135L24.2673 39.8516L17.8745 43.2819Z" fill="white"/>
<path d="M24.0637 50.4989L15.8555 48.8009L17.8112 44.2158L24.0637 50.4989Z" fill="white"/>
<path d="M17.4883 6.88595L15.5771 2.32365L24.0262 0.514648L17.4883 6.88595Z" fill="white"/>
<path d="M2.27427 34.601L0.742188 26.626L6.60623 32.8497L2.27427 34.601Z" fill="white"/>
<path d="M0.696289 24.78L2.21347 16.583L6.25324 18.5495L0.696289 24.78Z" fill="white"/>
<path d="M24.6759 10.5236L17.8955 7.30904L24.6759 0.701172V10.5236Z" fill="white"/>
<path d="M24.675 50.2833L18.2002 43.7774L24.6751 40.3027L24.675 50.2833Z" fill="white"/>
<path d="M17.2987 43.3926L7.66592 43.0779L7.41504 33.3887L14.7563 36.0561L17.2987 43.3926Z" fill="white"/>
<path d="M15.3205 48.5767L8.36914 43.6963L17.2781 43.9874L15.3205 48.5767Z" fill="white"/>
<path d="M7.04512 18.0026L7.60044 7.98273L16.9744 7.70508L14.5033 14.9307L7.04512 18.0026Z" fill="white"/>
<path d="M8.29608 7.36527L15.0491 2.56445L16.9527 7.10924L8.29608 7.36527Z" fill="white"/>
<path d="M24.6765 39.3777L15.2013 35.571L11.0254 25.3582L14.9347 15.4063L24.6765 11.4258V39.3777Z" fill="white"/>
<path d="M7.06906 42.3301L2.49414 35.1527L6.83817 33.3965L7.06906 42.3301Z" fill="white"/>
<path d="M7.03654 32.4532L0.666016 25.6929L6.68115 18.9482L10.3851 25.3746L7.03654 32.4532Z" fill="white"/>
<path d="M6.46828 17.9943L2.42285 16.0252L6.97834 8.79395L6.46828 17.9943Z" fill="white"/>
<path fill-rule="evenodd" clip-rule="evenodd" d="M27.3496 31.4971V32.86L51.2117 21.1973C51.1363 20.7884 51.0608 20.3601 50.9665 19.9512L27.3496 31.4971Z" fill="white"/>
<path fill-rule="evenodd" clip-rule="evenodd" d="M27.3496 22.5602V29.3749L50.4571 18.0626C49.8589 16.096 49.029 14.2128 47.9861 12.4551L27.3496 22.5602Z" fill="white"/>
<path fill-rule="evenodd" clip-rule="evenodd" d="M27.3496 19.7948V21.0409L47.2504 11.3057C47.0429 10.9941 46.8165 10.6826 46.5901 10.3711L27.3496 19.7948Z" fill="white"/>
<path fill-rule="evenodd" clip-rule="evenodd" d="M27.3496 11.4422V17.0302L44.9868 8.40482C43.7587 7.06144 42.3925 5.86017 40.9124 4.82227L27.3496 11.4422Z" fill="white"/>
<path fill-rule="evenodd" clip-rule="evenodd" d="M27.3496 0.5V7.84034L37.5735 2.83645C34.37 1.30176 30.8814 0.504527 27.3496 0.5Z" fill="white"/>
<path fill-rule="evenodd" clip-rule="evenodd" d="M27.3496 36.8126L51.5701 24.9746V25.5003C51.5701 39.2659 40.686 50.5003 27.3496 50.5003V36.8126Z" fill="white"/>
<path fill-rule="evenodd" clip-rule="evenodd" d="M61.2178 10.6269H73.8754V11.8535H68.1432V22.7602H66.9169V11.8535H61.2178V10.6269ZM75.2705 22.7602V10.6269H85.645V11.8535H76.4767V15.8835H85.4181V17.1102H76.4767V21.5494H85.6644V22.7761H75.2705V22.7602ZM98.6837 10.6302L93.7411 15.7702L88.7985 10.6302H87.2516L92.6842 16.3352L86.4596 22.7602H88.0816L93.7402 16.9194L99.3988 22.7602H101.02L94.7954 16.3352L100.303 10.6302H98.6837ZM102.418 22.7602V10.6269H103.645V15.8644H114.06V10.6269H115.286V22.7602H114.06V17.1335H103.645V22.7602H102.418ZM129.563 14.7186C129.575 14.0833 129.479 13.4509 129.28 12.8494C129.2 12.6423 129.078 12.4553 128.922 12.3008C128.765 12.1464 128.579 12.028 128.375 11.9536C127.778 11.7556 127.152 11.6709 126.526 11.7035H121.375C120.768 11.6824 120.16 11.7747 119.584 11.976C119.156 12.1428 118.805 12.4703 118.603 12.8927C118.352 13.4605 118.23 14.0797 118.244 14.7035V18.5785C118.237 19.0659 118.301 19.5516 118.433 20.0194C118.53 20.3651 118.72 20.6756 118.981 20.9152C119.256 21.1432 119.579 21.3031 119.924 21.3827C120.402 21.4867 120.889 21.5326 121.376 21.5194H126.527C127.17 21.5464 127.813 21.4677 128.432 21.286C128.626 21.2196 128.804 21.1107 128.954 20.9669C129.104 20.8232 129.222 20.6478 129.3 20.4527C129.493 19.8571 129.583 19.2307 129.564 18.6027V14.7277L129.563 14.7186ZM130.774 18.5935C130.783 19.3079 130.707 20.0207 130.548 20.716C130.439 21.199 130.189 21.6355 129.832 21.966C129.467 22.28 129.033 22.4943 128.568 22.5894C127.902 22.7194 127.226 22.7781 126.549 22.7644H121.4C120.721 22.7741 120.044 22.7022 119.382 22.5502C118.89 22.4252 118.431 22.1855 118.043 21.8494C117.687 21.5035 117.426 21.0668 117.288 20.5835C117.108 19.9451 117.025 19.2815 117.046 18.6169V14.8394C117.035 14.1624 117.117 13.4873 117.288 12.8336C117.413 12.3364 117.66 11.8806 118.004 11.5094C118.377 11.1476 118.831 10.8868 119.325 10.7502C120.003 10.5792 120.701 10.5008 121.4 10.5169H126.548C127.36 10.4882 128.172 10.607 128.944 10.8677C129.544 11.104 130.03 11.5717 130.302 12.1719C130.642 13.0157 130.803 13.9251 130.773 14.8385V18.5935H130.774ZM132.754 22.7602V10.6269H145.62V22.7602H144.394V11.8927H133.978V22.7602H132.754ZM147.977 22.7602H146.62L152.712 10.6302H154.58L160.673 22.7602H159.258L157.75 19.7227H149.479L147.97 22.7602H147.977ZM150.146 18.496H157.126L153.637 11.506L150.146 18.496ZM161.86 22.7402V10.6269H169.783C170.591 10.595 171.397 10.7205 172.16 10.9969C172.725 11.2147 173.194 11.6366 173.48 12.1844C173.788 12.8656 173.93 13.6142 173.895 14.3652C173.939 15.0793 173.795 15.7924 173.48 16.4294C173.197 16.9263 172.736 17.2895 172.196 17.4419C171.411 17.6625 170.597 17.7608 169.783 17.7335H163.067V22.7335L161.86 22.7402ZM163.072 16.5094H170.146C170.66 16.5224 171.172 16.4701 171.674 16.3536C171.838 16.3111 171.991 16.2337 172.125 16.1264C172.258 16.019 172.368 15.8841 172.447 15.7302C172.621 15.299 172.697 14.8331 172.673 14.3669C172.749 14.0228 172.738 13.6647 172.644 13.3256C172.55 12.9866 172.374 12.6776 172.133 12.4272C171.893 12.1768 171.595 11.9931 171.267 11.8931C170.94 11.7931 170.593 11.7801 170.258 11.8552H163.073V16.5102L163.072 16.5094ZM175.424 22.7594V10.6269H176.65V15.6269H178.612L186.591 10.6269H188.666L179.894 16.1561L188.59 22.7569H186.497L178.65 16.8577H176.649V22.7602L175.424 22.7594Z" fill="white"/>
<path fill-rule="evenodd" clip-rule="evenodd" d="M72.3474 30.6614V34.3606H66.5563C66.3239 34.3855 66.089 34.3584 65.8676 34.2812C65.6463 34.204 65.4436 34.0784 65.2735 33.9131C64.9744 33.5059 64.8271 33.0013 64.8585 32.4914C64.8166 31.9918 64.9361 31.4919 65.1984 31.0698C65.3656 30.9071 65.5655 30.7843 65.7839 30.7103C66.0022 30.6363 66.2337 30.6128 66.4618 30.6414H72.3474V30.6614ZM75.1578 28.3639H66.2358C65.4777 28.3389 64.722 28.4645 64.01 28.7339C63.3998 28.9836 62.8928 29.4447 62.5761 30.0381C62.1994 30.8436 62.0242 31.7338 62.0667 32.6273C62.0598 33.2063 62.1824 33.7793 62.4252 34.3014C62.6489 34.7986 62.9778 35.2376 63.3874 35.5864C63.7548 35.907 64.1862 36.1398 64.651 36.2681L61.2197 40.4948H64.8794L67.6898 36.6614H72.349V40.4948H75.1594V28.3614L75.1578 28.3639ZM76.9502 40.4939V28.3614H79.742V32.8789H81.4036L86.5342 28.3614H90.7406L83.8175 34.0464L91.0029 40.4914H86.8934L81.4608 35.2931H79.7444V40.4948H76.9526L76.9502 40.4939ZM102.394 28.3614H105.733L100.262 37.4739C99.8098 38.1939 99.4551 38.7398 99.1683 39.1289C98.9299 39.4578 98.644 39.7467 98.3204 39.9856C98.0355 40.1826 97.7147 40.3153 97.377 40.3747C96.9211 40.4456 96.4605 40.4782 95.9996 40.4723H94.9056V38.1748H95.4708C96.5462 38.1748 97.0927 37.9248 97.0927 37.4348C97.071 37.2313 96.9996 37.0369 96.8853 36.8698L91.4525 28.3223H94.7724L98.6964 35.1556L102.393 28.3606L102.394 28.3614ZM106.754 28.3614H119.43V30.7781H114.469V40.4948H111.658V30.7756H106.754V28.3589V28.3614ZM135.88 40.4948V28.3614H131.164L123.995 38.0781H123.599V28.3614H120.788V40.4948H125.617L132.672 30.7789H133.068V40.4948H135.88ZM148.461 30.6614V34.3606H142.67C142.438 34.3849 142.204 34.3574 141.983 34.2799C141.762 34.2024 141.559 34.0767 141.39 33.9114C141.09 33.5043 140.943 32.9997 140.975 32.4898C140.932 31.9901 141.053 31.4903 141.314 31.0681C141.482 30.9054 141.681 30.7827 141.901 30.7086C142.119 30.6346 142.35 30.6111 142.578 30.6398H148.464L148.461 30.6614ZM151.271 28.3639H142.349C141.591 28.3389 140.835 28.4645 140.124 28.7339C139.514 28.9836 139.007 29.4447 138.69 30.0381C138.313 30.8436 138.138 31.7338 138.18 32.6273C138.173 33.2063 138.297 33.7793 138.539 34.3014C138.763 34.7985 139.091 35.2376 139.501 35.5864C139.868 35.907 140.301 36.1398 140.765 36.2681L137.332 40.4931H140.992L143.802 36.6598H148.461V40.4931H151.271V28.3614V28.3639Z" fill="white"/>
</g>
<defs>
<clipPath id="clip0_3217_8419">
<rect width="188" height="50" fill="white" transform="translate(0.666016 0.5)"/>
</clipPath>
</defs>
</svg>
