<svg width="195" height="27" viewBox="0 0 195 27" fill="none" xmlns="http://www.w3.org/2000/svg">
<g id="&#208;&#155;&#208;&#190;&#208;&#179;&#208;&#190; &#208;&#159;&#209;&#128;&#208;&#190;&#209;&#132;&#208;&#184;&#208;&#187;&#209;&#131;&#208;&#188; &#208;&#177;&#208;&#181;&#208;&#187;&#209;&#139;&#208;&#185;" clip-path="url(#clip0_3622_20935)">
<path id="Vector" d="M111.458 24.9963C110.715 24.9963 110.112 24.3977 110.112 23.6594V3.82733C110.112 3.08898 110.715 2.49048 111.458 2.49048C112.2 2.49048 112.803 3.08898 112.803 3.82733V23.6594C112.803 24.3977 112.2 24.9963 111.458 24.9963Z" fill="white"/>
<path id="Vector_2" d="M124.019 24.9962C123.276 24.9962 122.674 24.4014 122.674 23.6678V11.0209C122.674 10.2872 123.276 9.69238 124.019 9.69238C124.761 9.69238 125.364 10.2872 125.364 11.0209V23.6678C125.364 24.4014 124.761 24.9962 124.019 24.9962Z" fill="white"/>
<path id="Vector_3" d="M111.45 24.9963C111.191 24.9963 110.93 24.9215 110.699 24.7659C110.088 24.351 109.928 23.5202 110.342 22.9089L123.81 3.07738C124.225 2.46605 125.058 2.30699 125.671 2.72038C126.282 3.13533 126.442 3.96666 126.028 4.57784L112.56 24.4095C112.3 24.7908 111.88 24.9963 111.45 24.9963Z" fill="white"/>
<path id="Vector_4" d="M93.1123 23.1958H87.2037C86.4785 23.1958 85.8906 22.628 85.8906 21.9275C85.8906 21.2271 86.4785 20.6592 87.2037 20.6592H93.1123C97.5745 20.6592 101.205 17.1534 101.205 12.8435C101.205 8.53322 97.5745 5.02691 93.1123 5.02691H87.2037C86.4785 5.02691 85.8906 4.45916 85.8906 3.75869C85.8906 3.05823 86.4785 2.49048 87.2037 2.49048H93.1123C99.0226 2.49048 103.832 7.13457 103.832 12.8435C103.832 18.5519 99.0226 23.1958 93.1123 23.1958Z" fill="white"/>
<path id="Vector_5" d="M93.5494 23.1958H87.6415C81.7305 23.1958 76.9219 18.5519 76.9219 12.8435C76.9219 7.13457 81.7305 2.49048 87.6415 2.49048H93.5494C94.2754 2.49048 94.8632 3.05823 94.8632 3.75869C94.8632 4.45916 94.2754 5.02691 93.5494 5.02691H87.6415C83.1786 5.02691 79.5488 8.53322 79.5488 12.8435C79.5488 17.1534 83.1786 20.6592 87.6415 20.6592H93.5494C94.2754 20.6592 94.8632 21.2271 94.8632 21.9275C94.8632 22.628 94.2754 23.1958 93.5494 23.1958Z" fill="white"/>
<path id="Vector_6" d="M89.2616 26.7968C88.3921 26.7968 87.687 26.2026 87.687 25.4695C87.687 23.8302 88.5325 22.9416 89.1489 22.2932C89.6458 21.7712 89.9189 21.484 89.9189 20.7772C89.9189 20.0708 89.6458 19.783 89.1489 19.2616C88.5325 18.6132 87.687 17.7247 87.687 16.0853C87.687 14.4464 88.5325 13.5583 89.1497 12.9101C89.6458 12.3892 89.9189 12.1023 89.9189 11.3965C89.9189 10.6912 89.6458 10.4035 89.1497 9.88243C88.5325 9.2342 87.687 8.34559 87.687 6.70616C87.687 5.06742 88.5325 4.17927 89.1497 3.53107C89.6458 3.01002 89.9189 2.72281 89.9189 2.0175C89.9189 1.28442 90.624 0.690186 91.4942 0.690186C92.3644 0.690186 93.0696 1.28442 93.0696 2.0175C93.0696 3.65623 92.2233 4.54439 91.6061 5.19259C91.11 5.71363 90.8369 6.00085 90.8369 6.70616C90.8369 7.41204 91.11 7.69983 91.6061 8.22085C92.2248 8.86908 93.0696 9.75769 93.0696 11.3965C93.0696 13.0353 92.2233 13.9234 91.6061 14.5716C91.11 15.0927 90.8369 15.38 90.8369 16.0853C90.8369 16.7922 91.11 17.0795 91.6076 17.6009C92.2248 18.2493 93.0696 19.1378 93.0696 20.7772C93.0696 22.4171 92.2248 23.3056 91.6076 23.9538C91.11 24.476 90.8369 24.7632 90.8369 25.4695C90.8369 26.2026 90.1318 26.7968 89.2616 26.7968Z" fill="white"/>
<path id="Vector_7" d="M162.482 24.9961C162.332 24.9961 162.178 24.9663 162.028 24.903C161.398 24.6357 161.09 23.8738 161.341 23.2008L168.748 3.31715C168.999 2.64459 169.713 2.3165 170.345 2.58322C170.976 2.8505 171.283 3.61235 171.034 4.28547L163.625 24.1689C163.434 24.6832 162.971 24.9961 162.482 24.9961Z" fill="white"/>
<path id="Vector_8" d="M162.728 20.4951C162.258 20.4951 161.812 20.1825 161.62 19.6629L155.949 4.36709C155.695 3.67703 155.982 2.884 156.595 2.59564C157.207 2.30713 157.91 2.63266 158.167 3.32273L163.836 18.6185C164.093 19.3085 163.803 20.1016 163.192 20.3901C163.04 20.4616 162.883 20.4951 162.728 20.4951Z" fill="white"/>
<path id="Vector_9" d="M192.201 19.5948C191.461 19.5948 190.863 19.0042 190.863 18.2756V8.14897L186.579 14.4412C186.331 14.807 185.914 15.0263 185.467 15.0263C185.021 15.0263 184.604 14.807 184.355 14.4412L180.072 8.14897V18.2756C180.072 19.0042 179.473 19.5948 178.732 19.5948C177.993 19.5948 177.394 19.0042 177.394 18.2756V3.81115C177.394 3.23059 177.779 2.71766 178.344 2.54863C178.906 2.37747 179.517 2.59321 179.846 3.07651L185.467 11.3374L191.089 3.07651C191.417 2.59378 192.028 2.37947 192.59 2.54863C193.155 2.71766 193.541 3.23059 193.541 3.81115V18.2756C193.541 19.0042 192.942 19.5948 192.201 19.5948Z" fill="white"/>
<path id="Vector_10" d="M192.201 24.0958H178.732C177.993 24.0958 177.394 23.4911 177.394 22.7454C177.394 21.9995 177.993 21.395 178.732 21.395H192.201C192.942 21.395 193.541 21.9995 193.541 22.7454C193.541 23.4911 192.942 24.0958 192.201 24.0958Z" fill="white"/>
<path id="Vector_11" d="M147.387 24.9963C146.841 24.9963 146.335 24.6477 146.153 24.0973L140.855 7.96815L136.867 20.1018C136.641 20.7889 135.905 21.1604 135.225 20.934C134.544 20.7061 134.175 19.9637 134.399 19.2766L139.621 3.38888C139.796 2.85246 140.294 2.49048 140.855 2.49048C141.414 2.49048 141.912 2.85246 142.088 3.38888L148.621 23.2725C148.846 23.9596 148.476 24.7014 147.796 24.9293C147.661 24.9748 147.523 24.9963 147.387 24.9963Z" fill="white"/>
<path id="Vector_12" d="M133.882 24.0958C133.529 24.0958 133.182 23.9511 132.929 23.6973C132.68 23.444 132.537 23.0931 132.537 22.7366C132.537 22.38 132.68 22.0286 132.929 21.7754C133.431 21.2682 134.332 21.2682 134.833 21.7754C135.084 22.0286 135.228 22.38 135.228 22.7366C135.228 23.0931 135.084 23.444 134.833 23.6973C134.583 23.9511 134.235 24.0958 133.882 24.0958Z" fill="white"/>
<path id="Vector_13" d="M57.0921 25.8964C53.1069 25.8964 49.4486 23.5503 47.5446 19.7727C47.2176 19.1237 47.4403 18.3118 48.043 17.9587C48.6452 17.6062 49.3984 17.8468 49.7257 18.496C51.1943 21.4113 54.0173 23.2218 57.0921 23.2218C61.7107 23.2218 65.4681 19.1715 65.4681 14.1933C65.4681 9.21531 61.7107 5.16518 57.0921 5.16518C53.9577 5.16518 51.1099 7.02748 49.6594 10.0252C49.3427 10.6799 48.5934 10.9348 47.9855 10.5923C47.3775 10.251 47.142 9.44273 47.4586 8.78794C49.3386 4.90316 53.0298 2.49048 57.0921 2.49048C63.0795 2.49048 67.9501 7.74065 67.9501 14.1933C67.9501 20.6468 63.0795 25.8964 57.0921 25.8964Z" fill="white"/>
<path id="Vector_14" d="M47.7642 15.0943C47.4104 15.0943 47.0619 14.9496 46.8106 14.6959C46.5596 14.4427 46.416 14.0916 46.416 13.735C46.416 13.3734 46.5596 13.027 46.8106 12.7738C47.3079 12.2668 48.2152 12.2668 48.7176 12.7738C48.9636 13.027 49.1071 13.3734 49.1071 13.735C49.1071 14.0916 48.9636 14.4427 48.7176 14.6959C48.4613 14.9496 48.1178 15.0943 47.7642 15.0943Z" fill="white"/>
<path id="Vector_15" d="M25.3394 24.0958C24.9807 24.0958 24.6372 23.9511 24.386 23.6973C24.1348 23.444 23.9912 23.0931 23.9912 22.7366C23.9912 22.38 24.1348 22.0286 24.3809 21.7754C24.8883 21.2682 25.7854 21.2682 26.2928 21.7754C26.5389 22.0286 26.6825 22.38 26.6825 22.7366C26.6825 23.0931 26.5389 23.444 26.2877 23.6973C26.0416 23.9511 25.693 24.0958 25.3394 24.0958Z" fill="white"/>
<path id="Vector_16" d="M32.3956 17.7944H29.7229C29.0359 17.7944 28.479 17.1721 28.479 16.4044C28.479 15.6367 29.0359 15.0145 29.7229 15.0145H32.3956C34.8 15.0145 36.7556 12.8281 36.7556 10.1418C36.7556 7.45554 34.8 5.27041 32.3956 5.27041H29.7229C29.0359 5.27041 28.479 4.64812 28.479 3.88044C28.479 3.1122 29.0359 2.49048 29.7229 2.49048H32.3956C36.1717 2.49048 39.2437 5.92274 39.2437 10.1418C39.2437 14.362 36.1717 17.7944 32.3956 17.7944Z" fill="white"/>
<path id="Vector_17" d="M25.3368 20.495C24.5936 20.495 23.9912 19.8944 23.9912 19.1532V3.83231C23.9912 3.0907 24.5936 2.49048 25.3368 2.49048C26.08 2.49048 26.6825 3.0907 26.6825 3.83231V19.1532C26.6825 19.8944 26.08 20.495 25.3368 20.495Z" fill="white"/>
<path id="Vector_18" d="M16.3685 24.9963C15.6253 24.9963 15.0229 24.3977 15.0229 23.6594V3.82733C15.0229 3.08898 15.6253 2.49048 16.3685 2.49048C17.1118 2.49048 17.7141 3.08898 17.7141 3.82733V23.6594C17.7141 24.3977 17.1118 24.9963 16.3685 24.9963Z" fill="white"/>
<path id="Vector_19" d="M2.01748 24.9963C1.27426 24.9963 0.671875 24.3977 0.671875 23.6594V3.82733C0.671875 3.08898 1.27426 2.49048 2.01748 2.49048C2.76057 2.49048 3.36309 3.08898 3.36309 3.82733V23.6594C3.36309 24.3977 2.76057 24.9963 2.01748 24.9963Z" fill="white"/>
<path id="Vector_20" d="M7.2527 5.1911C6.59165 5.1911 6.05548 4.59017 6.0542 3.84798C6.05277 3.10464 6.58851 2.50058 7.25043 2.49959L12.0298 2.49048H12.0317C12.6931 2.49048 13.2293 3.09084 13.2307 3.83359C13.2315 4.57678 12.696 5.18027 12.0339 5.18141L7.25498 5.1911H7.2527Z" fill="white"/>
</g>
<defs>
<clipPath id="clip0_3622_20935">
<rect width="193.639" height="27" fill="white" transform="translate(0.671875)"/>
</clipPath>
</defs>
</svg>
