<svg width="1440" height="694" viewBox="0 0 1440 694" fill="none" xmlns="http://www.w3.org/2000/svg">
<g clip-path="url(#clip0_3217_10713)">
<path d="M1424.5 894.916C1393.37 859.078 1377.74 831.243 1361.15 782.586C1361.02 782.229 1360.81 781.893 1360.54 781.632C1326.52 749.006 1319.74 729.767 1302.62 688.383C1278.97 642.156 1265.65 616.368 1237.22 599.821C1237.07 599.735 1236.93 599.632 1236.8 599.516C1208.56 573.52 1192.67 545.477 1164.3 478.048C1164.15 477.698 1163.91 477.375 1163.62 477.133C1112.97 435.266 1091.3 412.954 1078.71 378.455C1078.67 378.333 1078.62 378.215 1078.55 378.102C1057.29 340.366 1037.42 294.464 1014.06 286.248C1013.65 286.103 1013.29 285.874 1013.01 285.536C1001.31 271.168 987.589 228.581 984.097 224.067C979.276 217.834 927.528 181.901 911.827 146.831C911.742 146.641 911.635 146.458 911.514 146.298L875 98.054C874.244 97.055 872.979 96.8896 872.059 97.6693L789.025 168.033C788.857 168.175 788.708 168.342 788.58 168.534C778.464 183.704 768.952 206.88 755.957 218.485C735.202 237.021 686.769 296.343 666.913 316.226L627.028 356.014" stroke="url(#paint0_linear_3217_10713)" stroke-width="2" stroke-linejoin="round"/>
<path d="M873.293 98.8154C925.544 198.427 886.885 259.224 918.886 298.733C919.015 298.893 919.174 299.041 919.34 299.161C1013.43 366.944 992.057 447.613 1039.5 472.731C1098.6 502.495 1079.89 507.219 1127.05 531.077C1127.22 531.16 1127.38 531.267 1127.52 531.386C1170.7 568.107 1184.83 636.677 1228.72 778.518" stroke="url(#paint1_linear_3217_10713)" stroke-width="2" stroke-linejoin="round"/>
<path d="M789.025 168.033L872.058 97.6695C924.303 197.27 886.894 259.209 918.875 298.719C919.011 298.888 919.179 299.044 919.355 299.171C1013.42 366.951 992.059 447.614 1039.5 472.731C1098.59 502.491 1079.9 507.217 1127.04 531.069C1127.21 531.157 1127.38 531.27 1127.53 531.396C1170.7 568.119 1184.83 636.689 1228.72 778.518L1256.01 913.651C1256.42 915.672 1254.18 917.182 1252.44 916.082C1162.58 859.438 1116.52 814.516 1046.26 711.031C1046.18 710.911 1046.09 710.795 1045.98 710.692L876.593 539.066C853.112 518.939 774.329 492.109 710.569 428.437C710.461 428.33 710.342 428.231 710.216 428.146C681.817 408.947 658.46 398.38 642.141 374.599C639.164 370.24 633.177 361.95 629.256 357.945C628.198 356.864 628.051 354.993 629.122 353.925L666.912 316.226C686.769 296.344 735.201 237.021 755.957 218.485C768.951 206.881 778.464 183.704 788.579 168.534C788.707 168.342 788.857 168.175 789.025 168.033Z" fill="url(#paint2_radial_3217_10713)"/>
<path d="M1439.6 647.319C1348.71 598.987 1385.15 573.092 1332.78 535.428C1332.13 534.962 1331.24 534.865 1330.51 535.193C1271.85 561.674 1246.06 585.046 1210.05 636.74C1181.91 675.793 1113.78 675.351 1104.26 684.872C1028.24 744.526 927.986 761.501 916.034 785.757C915.986 785.853 915.935 785.943 915.875 786.032C887.686 828.233 866.676 840.491 816 835.086M1332.11 535.18C1312.75 572.352 1313.71 597.072 1313.71 653.667C1313.71 682.198 1277.82 675.367 1227.65 791.876C1227.55 792.113 1227.41 792.34 1227.23 792.529L1187.43 835.474C1187.34 835.568 1187.26 835.669 1187.19 835.777L1172.49 858.359C1168.96 862.943 1161.59 872.322 1160.32 873.169C1159.07 874.003 1151.56 879.697 1147.79 882.563C1147.68 882.648 1147.56 882.721 1147.44 882.784L1142.34 885.334" stroke="url(#paint3_linear_3217_10713)" stroke-width="1.81934" stroke-linejoin="round"/>
<path d="M467.45 336.379C398.759 294.278 425.349 289.292 394.327 271.566C342.391 243.94 334.161 233.901 317.458 202.567C317.372 202.406 317.264 202.252 317.142 202.116L278.223 158.931C277.461 158.087 276.188 157.947 275.261 158.606L186.846 221.528C186.677 221.648 186.526 221.789 186.397 221.952C175.635 235.501 165.516 256.212 151.691 266.58C129.617 283.136 108.55 301.448 87.4314 319.206C68.163 339.576 34.9284 367.708 22.6177 392.33C21.7314 394.102 3.04438 408.579 -6.18834 415.596C-12.2819 419.289 -24.8015 426.897 -26.131 427.783C-27.4605 428.67 -32.9632 429.999 -35.5484 430.553" stroke="url(#paint4_linear_3217_10713)" stroke-width="1.90548" stroke-linejoin="round"/>
<path d="M186.846 221.528L273.837 159.62C275.216 158.639 277.143 159.504 277.316 161.188C282.557 212.159 259.659 233.675 234.309 270.458C195.586 320.698 249.378 302.16 234.463 345.904C234.367 346.186 234.206 346.471 234.011 346.696C190.179 397.556 166.625 426.576 128.54 479.697C128.465 479.801 128.371 479.911 128.28 480.003C113.787 494.847 160.286 501.68 98.644 571.111C98.5593 571.206 98.4725 571.322 98.4043 571.429C71.5707 613.768 87.4088 592.377 69.7056 642.167L50.8708 693.686C47.3395 701.542 39.3263 718.099 35.5238 721.479C30.8699 725.616 -30.4873 777.849 -39.4945 792.424C-39.8459 792.992 -40.3773 793.385 -41.0309 793.525L-61.5071 797.896C-62.7559 798.162 -63.9762 797.33 -64.171 796.068C-68.0528 770.921 -65.4155 755.451 -49.5785 727.254C-49.4573 727.039 -49.3649 726.79 -49.3181 726.547C-42.6648 691.944 -90.6815 686.4 -27.278 509.383C-27.2396 509.275 -27.1887 509.16 -27.1354 509.06C-4.59662 466.51 -30.2228 459.5 -35.2118 432.618C-35.4261 431.464 -34.6584 430.364 -33.5159 430.093C-30.7629 429.441 -27.1702 428.477 -26.1303 427.783C-24.8008 426.897 -12.2812 419.289 -6.18765 415.596C3.04504 408.579 21.7321 394.102 22.6184 392.33C34.9291 367.708 68.1637 339.576 87.4321 319.206C108.55 301.448 129.618 283.136 151.692 266.58C165.516 256.212 175.636 235.501 186.398 221.952C186.527 221.789 186.677 221.648 186.846 221.528Z" fill="url(#paint5_radial_3217_10713)"/>
<path d="M275.302 160.22C282.074 213.901 260.269 232.789 234.309 270.458C195.579 320.708 249.397 302.154 234.455 345.928C234.364 346.195 234.211 346.465 234.027 346.678C190.182 397.552 166.627 426.573 128.533 479.706C128.462 479.805 128.373 479.908 128.288 479.996C113.769 494.845 160.299 501.669 98.6365 571.119C98.5564 571.21 98.4742 571.319 98.4096 571.421C71.5681 613.772 87.4097 592.374 69.7051 642.168L50.8704 693.686" stroke="url(#paint6_linear_3217_10713)" stroke-width="1.90548" stroke-linejoin="round"/>
<path d="M1256.81 918.894C1163.88 860.851 1117.45 816.178 1045.98 710.916C1045.9 710.802 1045.82 710.693 1045.72 710.595L876.32 538.96C852.838 518.832 774.049 492.001 710.288 428.323C710.186 428.221 710.073 428.128 709.954 428.047C681.55 408.844 658.19 398.277 641.869 374.493C624.849 349.69 610.861 337.61 594.867 328.569L543.337 300.612C542.67 300.25 541.854 300.253 541.185 300.612C497.996 323.789 481.202 344.769 450.109 380.417C450 380.542 449.873 380.659 449.74 380.757C386.11 427.556 352.709 457.353 299.65 517.999C299.502 518.167 299.328 518.316 299.138 518.435C222.597 565.926 139.9 618.073 62.2879 699.992C62.2133 700.07 62.1309 700.146 62.0458 700.213C-15.7646 761.718 -52.8837 803.483 -118 879.166" stroke="url(#paint7_linear_3217_10713)" stroke-width="1.9247" stroke-linejoin="round"/>
<path d="M299.651 517.997C351.277 458.975 371.501 438.669 431.241 394.46C432.952 393.194 435.423 394.819 435.168 396.932C432.237 421.149 452.961 430.038 472.783 443.334C473.535 443.838 473.93 444.754 473.783 445.648C465.405 496.516 396.657 501.045 382.802 573.093C374.408 605.547 301.826 631.886 289.994 673.338C284.507 696.955 276.826 745.879 289.994 752.639C269.737 743.545 226.123 725.834 212.71 727.258C212.526 727.277 212.368 727.32 212.196 727.388C203.947 730.651 184.416 740.093 170.197 752.639C155.832 765.314 136.749 782.214 129.003 789.08L57.6203 846.291C57.3293 846.524 56.9853 846.682 56.6187 846.75L-111.681 877.993C-113.781 878.383 -115.184 875.894 -113.79 874.276C-51.2501 801.657 -14.0725 760.38 62.0456 700.213C62.1307 700.145 62.2131 700.07 62.2877 699.991C139.899 618.073 222.596 565.926 299.138 518.434C299.328 518.316 299.504 518.166 299.651 517.997Z" fill="url(#paint8_radial_3217_10713)"/>
<path d="M697.268 536.161C631.866 501.504 653.579 477.457 611.224 435.01C611.142 434.928 611.046 434.846 610.952 434.777C561.343 398.412 585.041 346.989 541.998 300.032" stroke="url(#paint9_linear_3217_10713)" stroke-width="1.9247" stroke-linejoin="round"/>
<path d="M436.518 392.919C428.842 422.524 452.203 429.21 474.007 444.166M766.675 677.625C692.746 670.954 654.687 582.112 632.246 580.939C631.945 580.924 631.65 580.864 631.372 580.748C550.555 546.734 519.301 529.361 502.544 479.649C496.723 462.378 485.584 452.106 474.007 444.166M474.007 444.166C466.733 496.436 396.789 500.353 382.801 573.094C374.407 605.548 301.825 631.887 289.993 673.339" stroke="url(#paint10_linear_3217_10713)" stroke-width="1.9247" stroke-linejoin="round"/>
<path d="M872.08 535.578C850.693 563.792 872.08 598.656 842.312 635.826C802.468 675.778 807.124 701.115 731.505 718.011C731.378 718.039 731.236 718.058 731.105 718.064C674.458 720.771 675.968 765.954 599.111 791.268C538.756 812.3 555.295 806.414 491.827 850.343" stroke="url(#paint11_linear_3217_10713)" stroke-width="1.9247" stroke-linejoin="round"/>
<mask id="mask0_3217_10713" style="mask-type:alpha" maskUnits="userSpaceOnUse" x="626" y="98" width="631" height="819">
<path d="M789.822 167.594L870.618 99.1268C871.766 98.1541 873.54 98.5342 874.225 99.8734C924.442 197.929 887.978 259.122 919.675 298.281C919.811 298.449 919.979 298.606 920.155 298.732C1014.22 366.513 992.859 447.176 1040.3 472.292C1099.39 502.053 1080.7 506.779 1127.84 530.631C1128.01 530.719 1128.18 530.831 1128.33 530.957C1171.5 567.68 1185.63 636.251 1229.52 778.079L1256.59 913.318C1256.98 915.263 1254.83 916.711 1253.15 915.654C1163.18 858.955 1117.1 814.042 1046.79 710.487C1046.71 710.366 1046.61 710.251 1046.51 710.147L877.12 538.521C853.639 518.394 774.856 491.564 711.096 427.892C710.989 427.785 710.869 427.686 710.744 427.601C682.344 408.402 658.987 397.835 642.669 374.054C637.155 366.018 631.959 359.318 626.91 353.624L667.709 315.787C687.566 295.905 735.998 236.582 756.754 218.046C769.748 206.442 779.261 183.265 789.376 168.095C789.505 167.903 789.654 167.736 789.822 167.594Z" fill="url(#paint12_linear_3217_10713)"/>
</mask>
<g mask="url(#mask0_3217_10713)">
<path d="M626.508 398.515H1271.88" stroke="#12D6A7" stroke-width="2"/>
<path d="M626.508 258.032H1271.88" stroke="#12D6A7" stroke-width="2"/>
<path d="M626.508 579.136H1271.88" stroke="#12D6A7" stroke-width="2"/>
<path d="M626.508 157.688H1271.88" stroke="#12D6A7" stroke-width="2"/>
<path d="M626.508 478.791H1271.88" stroke="#12D6A7" stroke-width="2"/>
<path d="M626.508 318.239H1271.88" stroke="#12D6A7" stroke-width="2"/>
<path d="M626.508 639.342H1271.88" stroke="#12D6A7" stroke-width="2"/>
<path d="M626.508 117.55H1271.88" stroke="#12D6A7" stroke-width="2"/>
<path d="M626.508 438.653H1271.88" stroke="#12D6A7" stroke-width="2"/>
<path d="M626.508 278.102H1271.88" stroke="#12D6A7" stroke-width="2"/>
<path d="M626.508 599.204H1271.88" stroke="#12D6A7" stroke-width="2"/>
<path d="M626.508 197.826H1271.88" stroke="#12D6A7" stroke-width="2"/>
<path d="M626.508 518.929H1271.88" stroke="#12D6A7" stroke-width="2"/>
<path d="M626.508 358.377H1271.88" stroke="#12D6A7" stroke-width="2"/>
<path d="M626.508 679.479H1271.88" stroke="#12D6A7" stroke-width="2"/>
<path d="M626.508 137.619H1271.88" stroke="#12D6A7" stroke-width="2"/>
<path d="M626.508 458.722H1271.88" stroke="#12D6A7" stroke-width="2"/>
<path d="M626.508 298.17H1271.88" stroke="#12D6A7" stroke-width="2"/>
<path d="M626.508 619.273H1271.88" stroke="#12D6A7" stroke-width="2"/>
<path d="M626.508 217.895H1271.88" stroke="#12D6A7" stroke-width="2"/>
<path d="M626.508 538.998H1271.88" stroke="#12D6A7" stroke-width="2"/>
<path d="M626.508 378.446H1271.88" stroke="#12D6A7" stroke-width="2"/>
<path d="M626.508 177.757H1271.88" stroke="#12D6A7" stroke-width="2"/>
<path d="M626.508 498.859H1271.88" stroke="#12D6A7" stroke-width="2"/>
<path d="M626.508 338.309H1271.88" stroke="#12D6A7" stroke-width="2"/>
<path d="M626.508 659.412H1271.88" stroke="#12D6A7" stroke-width="2"/>
<path d="M626.508 237.963H1271.88" stroke="#12D6A7" stroke-width="2"/>
<path d="M626.508 559.066H1271.88" stroke="#12D6A7" stroke-width="2"/>
<path d="M626.508 418.584H1271.88" stroke="#12D6A7" stroke-width="2"/>
</g>
<mask id="mask1_3217_10713" style="mask-type:alpha" maskUnits="userSpaceOnUse" x="409" y="74" width="172" height="171">
<path d="M580.002 159.5C580.002 206.72 541.722 245 494.502 245C447.282 245 409.002 206.72 409.002 159.5C409.002 112.28 447.282 74 494.502 74C541.722 74 580.002 112.28 580.002 159.5Z" fill="#D9D9D9"/>
</mask>
<g mask="url(#mask1_3217_10713)">
<g opacity="0.8" filter="url(#filter0_f_3217_10713)">
<path d="M502.094 124.602C482.065 120.6 412.603 206.346 398.921 225.124C350.85 216.401 376.378 156.688 375.817 83.3748C375.255 10.0611 469.701 -5.98045 539.232 2.91051C594.857 10.0233 617.988 65.4514 622.6 92.2763C617.618 145.823 614.312 160.419 585.125 154.009C548.641 145.996 527.13 129.604 502.094 124.602Z" fill="#12D6A7"/>
<path d="M502.094 124.602C482.065 120.6 412.603 206.346 398.921 225.124C350.85 216.401 376.378 156.688 375.817 83.3748C375.255 10.0611 469.701 -5.98045 539.232 2.91051C594.857 10.0233 617.988 65.4514 622.6 92.2763C617.618 145.823 614.312 160.419 585.125 154.009C548.641 145.996 527.13 129.604 502.094 124.602Z" stroke="black" stroke-width="0.975937"/>
</g>
</g>
</g>
<defs>
<filter id="filter0_f_3217_10713" x="271.46" y="-97.3916" width="449.226" height="420.644" filterUnits="userSpaceOnUse" color-interpolation-filters="sRGB">
<feFlood flood-opacity="0" result="BackgroundImageFix"/>
<feBlend mode="normal" in="SourceGraphic" in2="BackgroundImageFix" result="shape"/>
<feGaussianBlur stdDeviation="48.7969" result="effect1_foregroundBlur_3217_10713"/>
</filter>
<linearGradient id="paint0_linear_3217_10713" x1="905.353" y1="-43.7803" x2="1104.65" y2="312.302" gradientUnits="userSpaceOnUse">
<stop stop-color="#12D6A7"/>
<stop offset="0.907986" stop-color="#12D6A7" stop-opacity="0"/>
</linearGradient>
<linearGradient id="paint1_linear_3217_10713" x1="826.661" y1="28.5742" x2="1171.33" y2="379.484" gradientUnits="userSpaceOnUse">
<stop stop-color="#12D6A7"/>
<stop offset="0.907986" stop-color="#12D6A7" stop-opacity="0"/>
</linearGradient>
<radialGradient id="paint2_radial_3217_10713" cx="0" cy="0" r="1" gradientUnits="userSpaceOnUse" gradientTransform="translate(596.925 75.0491) rotate(51.4682) scale(553.607 475.055)">
<stop stop-color="#12D6A7" stop-opacity="0.39"/>
<stop offset="0.860413" stop-color="#12D6A7" stop-opacity="0"/>
</radialGradient>
<linearGradient id="paint3_linear_3217_10713" x1="1400.77" y1="438.006" x2="1209.83" y2="807.67" gradientUnits="userSpaceOnUse">
<stop stop-color="#12D6A7"/>
<stop offset="0.907986" stop-color="#12D6A7" stop-opacity="0"/>
</linearGradient>
<linearGradient id="paint4_linear_3217_10713" x1="-123.777" y1="-221.69" x2="-286.367" y2="634.818" gradientUnits="userSpaceOnUse">
<stop stop-color="#12D6A7"/>
<stop offset="0.907986" stop-color="#12D6A7" stop-opacity="0"/>
</linearGradient>
<radialGradient id="paint5_radial_3217_10713" cx="0" cy="0" r="1" gradientUnits="userSpaceOnUse" gradientTransform="translate(229.347 326.438) rotate(-172.201) scale(284.121 841.178)">
<stop stop-color="#12D6A7" stop-opacity="0.37"/>
<stop offset="0.907986" stop-color="#12D6A7" stop-opacity="0"/>
</radialGradient>
<linearGradient id="paint6_linear_3217_10713" x1="168.541" y1="-106.479" x2="377.114" y2="694.288" gradientUnits="userSpaceOnUse">
<stop stop-color="#12D6A7"/>
<stop offset="0.907986" stop-color="#12D6A7" stop-opacity="0"/>
</linearGradient>
<linearGradient id="paint7_linear_3217_10713" x1="598.834" y1="-9.35888" x2="1069.45" y2="775.016" gradientUnits="userSpaceOnUse">
<stop stop-color="#12D6A7"/>
<stop offset="0.907986" stop-color="#12D6A7" stop-opacity="0"/>
</linearGradient>
<radialGradient id="paint8_radial_3217_10713" cx="0" cy="0" r="1" gradientUnits="userSpaceOnUse" gradientTransform="translate(523.515 634.866) rotate(-159.709) scale(494.941 658.593)">
<stop stop-color="#12D6A7" stop-opacity="0.37"/>
<stop offset="0.907986" stop-color="#12D6A7" stop-opacity="0"/>
</radialGradient>
<linearGradient id="paint9_linear_3217_10713" x1="523.248" y1="246.874" x2="727.34" y2="475.376" gradientUnits="userSpaceOnUse">
<stop stop-color="#12D6A7"/>
<stop offset="1" stop-color="#12D6A7" stop-opacity="0"/>
</linearGradient>
<linearGradient id="paint10_linear_3217_10713" x1="504.762" y1="236.658" x2="618.243" y2="676.867" gradientUnits="userSpaceOnUse">
<stop stop-color="#12D6A7"/>
<stop offset="1" stop-color="#12D6A7" stop-opacity="0"/>
</linearGradient>
<linearGradient id="paint11_linear_3217_10713" x1="892.395" y1="535.44" x2="596.012" y2="968.491" gradientUnits="userSpaceOnUse">
<stop stop-color="#12D6A7"/>
<stop offset="0.907986" stop-color="#12D6A7" stop-opacity="0"/>
</linearGradient>
<linearGradient id="paint12_linear_3217_10713" x1="941.793" y1="373.442" x2="558.371" y2="485.406" gradientUnits="userSpaceOnUse">
<stop stop-color="#D9D9D9" stop-opacity="0"/>
<stop offset="1" stop-color="#D9D9D9"/>
</linearGradient>
<clipPath id="clip0_3217_10713">
<rect width="1440" height="727" fill="white" transform="matrix(-1 0 0 1 1440 0)"/>
</clipPath>
</defs>
</svg>
