<svg width="222" height="65" viewBox="0 0 222 65" fill="none" xmlns="http://www.w3.org/2000/svg">
<path d="M108.316 44.6326L108.965 41.3591H107.388C101.545 41.3591 99.3194 37.9921 99.3194 34.6251C99.3194 29.6681 103.307 23.8693 111.191 23.8693H112.489L113.231 20.4088H121.763L121.114 23.8693H122.505C125.659 23.8693 130.667 24.6175 130.667 30.6033C130.667 35.9344 126.957 41.3591 119.259 41.3591H117.59L116.941 44.6326H108.316ZM118.796 36.215C121.114 36.215 122.505 33.5962 122.505 31.6321C122.505 30.1357 121.671 29.0134 120.187 29.0134H119.723L118.239 36.215H118.796ZM111.376 29.0134C109.057 29.0134 107.574 31.4451 107.574 33.5962C107.574 34.9056 108.316 36.215 109.892 36.215H110.356L111.84 29.0134H111.376Z" fill="#E6E4EB"/>
<path d="M167.579 21.9987L164.982 34.9056L173.329 21.9987H183.438L178.893 44.6326H170.268L172.772 31.9127L164.425 44.6326H154.409L158.954 21.9987H167.579Z" fill="#E6E4EB"/>
<path d="M156.82 21.9987L155.522 28.6392H147.917L144.671 44.6326H136.139L139.292 28.6392H131.687L133.078 21.9987H156.82Z" fill="#E6E4EB"/>
<path d="M80.9561 21.9987L81.3271 34.3445H81.5126L86.799 21.9987H99.5049L94.9604 44.6326H87.2627L90.8797 26.8622L82.6255 44.6326H75.4843L74.5568 26.8622L70.9398 44.6326H63.6131L68.1575 21.9987H80.9561Z" fill="#E6E4EB"/>
<path d="M21.1365 49.2154C21.8785 49.2154 22.7132 49.2154 23.4551 49.2154C24.1043 49.1219 24.7535 49.0284 25.2172 48.9349C26.8866 48.3737 27.3503 47.6255 27.7213 45.942C29.6689 36.8697 31.3383 27.704 33.2859 18.5382C34.2134 14.423 34.8626 11.243 35.6973 8.99833C36.161 7.78246 36.7174 6.84718 37.2739 6.19248C38.6651 4.60251 40.8909 4.60251 42.2821 6.19248C43.766 7.78246 44.6006 10.8689 45.5281 14.7035C48.1249 27.1428 50.7217 39.6756 53.3185 52.2084C53.5968 53.4242 53.875 54.453 54.1532 55.3883C54.5242 56.5106 54.7097 56.9783 55.2662 56.9783C55.3589 56.9783 55.4516 56.8848 55.5444 56.7912C55.9154 56.4171 56.3791 55.0142 56.8428 53.6113C57.121 52.7695 57.3065 51.9278 57.492 51.5536C58.6049 49.1219 61.2018 49.2154 63.6131 49.2154H184.365L183.716 52.4889H64.726C61.2018 52.4889 60.9235 52.676 59.8106 56.043C59.3469 57.2589 58.8832 58.5683 58.0485 59.5971C57.3993 60.3453 56.5646 61 55.2662 61C51.2782 60.9065 50.4435 55.8559 49.7943 52.9566C47.2902 41.0785 44.8789 29.2939 42.4675 17.4159C42.0038 15.6388 41.6328 13.9553 41.1691 12.2718C40.7054 10.4013 40.3344 9.46597 39.6852 9.46597C39.036 9.46597 38.6651 10.3077 38.2941 12.2718L31.5238 44.539C31.1528 46.5031 30.7818 48.5607 29.4834 50.2443C28.0923 51.8342 26.0519 52.9566 22.4349 52.863C22.2494 52.863 20.6728 52.863 20.4873 52.863L21.1365 49.2154Z" fill="#E6E4EB"/>
<path d="M186.777 54.3595L187.89 47.6255L200.595 50.899L186.777 54.3595Z" fill="#E6E4EB"/>
</svg>
