<svg width="241" height="13" viewBox="0 0 241 13" fill="none" xmlns="http://www.w3.org/2000/svg">
<g id="&#208;&#155;&#208;&#190;&#208;&#179;&#208;&#190; &#208;&#147;&#208;&#176;&#208;&#183;&#208;&#191;&#209;&#128;&#208;&#190;&#208;&#188;&#208;&#162;&#208;&#181;&#209;&#133; &#208;&#177;&#208;&#181;&#208;&#187;&#209;&#139;&#208;&#185;" clip-path="url(#clip0_3622_20876)">
<g id="Group">
<path id="Vector" d="M11.8265 0.272217V1.54635H2.18791V11.8491H0.594727V0.272217H11.8303H11.8265Z" fill="white"/>
<path id="Vector_2" d="M2.27483 11.9399H0.5V0.185303H11.9134V1.63714H2.27483V11.9399ZM0.677862 11.7622H2.09319V1.45944H11.7318V0.363001H0.677862V11.7622Z" fill="white"/>
</g>
<g id="Group_2">
<path id="Vector_3" d="M18.5857 0.272217L25.791 11.8491H24.0957L21.9273 8.35938H13.1099L10.9452 11.8491H9.36719L16.5687 0.272217H18.5857ZM21.1704 7.14952L17.5261 1.27791L13.8667 7.14952H21.1704Z" fill="white"/>
<path id="Vector_4" d="M25.9461 11.9399H24.0388L21.8704 8.45016H13.1514L10.9867 11.9399H9.19678L16.5156 0.185303H18.631L18.6575 0.226892L25.9461 11.9399ZM24.1372 11.7622H25.6244L18.5288 0.363001H16.614L9.52223 11.7622H10.8921L13.0568 8.27246H21.9726L24.141 11.7622H24.1372ZM21.3254 7.24408H13.7001L17.5222 1.1116L21.3254 7.24408ZM14.0218 7.06638H21.0038L17.5184 1.45188L14.018 7.06638H14.0218Z" fill="white"/>
</g>
<g id="Group_3">
<path id="Vector_5" d="M28.2027 8.76377C28.8725 10.2572 30.7874 10.8092 34.2803 10.8092C38.0419 10.8092 40.0059 10.1211 40.0059 8.71083V8.35922C40.0059 7.14936 38.5944 6.49528 35.9756 6.49528H30.6852V5.31944H35.9756C38.1592 5.31944 39.654 4.69939 39.654 3.47441V3.19084C39.654 1.71255 37.6218 1.29666 34.2803 1.29666C30.9387 1.29666 28.8574 1.76548 28.4033 3.19084H26.8063C27.3966 0.94504 29.7997 0.0905762 34.284 0.0905762C39.0031 0.0905762 41.2547 1.1492 41.2547 3.24378C41.2547 4.65402 40.1119 5.54251 38.636 5.79583C40.2973 6.09829 41.5915 6.86958 41.5915 8.54826C41.5915 10.915 39.1393 12.038 34.2878 12.038C29.8034 12.038 27.3361 11.1154 26.6284 8.76755H28.2065L28.2027 8.76377Z" fill="white"/>
<path id="Vector_6" d="M34.2821 12.1249C29.6198 12.1249 27.232 11.0966 26.5394 8.79027L26.5054 8.67684H28.2613L28.284 8.72977C28.9122 10.1287 30.7059 10.7223 34.2821 10.7223C37.8583 10.7223 39.9207 10.0455 39.9207 8.71465V8.36304C39.9207 6.82046 37.4496 6.58983 35.9812 6.58983H30.6038V5.2363H35.9812C38.2291 5.2363 39.5688 4.57844 39.5688 3.47822V3.19466C39.5688 1.92809 37.9869 1.38743 34.2859 1.38743C30.5848 1.38743 28.9008 1.93565 28.4921 3.22113L28.4732 3.28162H26.6984L26.7286 3.1682C27.3114 0.945078 29.5706 -0.00390625 34.2897 -0.00390625C39.0087 -0.00390625 41.3474 1.0585 41.3474 3.24003C41.3474 4.4688 40.4846 5.41778 39.0692 5.7883C40.8062 6.20419 41.6842 7.13049 41.6842 8.54073C41.6842 10.9491 39.266 12.1212 34.2897 12.1212L34.2821 12.1249ZM26.7476 8.85454C27.459 10.9907 29.7939 11.9472 34.2821 11.9472C39.1373 11.9472 41.4987 10.8357 41.4987 8.5483C41.4987 7.12671 40.53 6.23066 38.6151 5.88282L38.1156 5.79208L38.6151 5.70512C40.1856 5.43669 41.1619 4.49526 41.1619 3.24381C41.1619 1.17949 38.9103 0.177573 34.2821 0.177573C29.6539 0.177573 27.5309 1.05472 26.9254 3.10392H28.3408C28.8138 1.75795 30.547 1.20974 34.2821 1.20974C38.0172 1.20974 39.7466 1.80332 39.7466 3.19466V3.47822C39.7466 4.68808 38.3389 5.414 35.9775 5.414H30.7778V6.40835H35.9775C39.3833 6.40835 40.0986 7.47076 40.0986 8.35925V8.71087C40.0986 10.1627 38.1421 10.8962 34.2821 10.8962C30.6681 10.8962 28.8289 10.2837 28.144 8.85076H26.7438L26.7476 8.85454Z" fill="white"/>
</g>
<g id="Group_4">
<path id="Vector_7" d="M58.6358 0.272217V11.8491H57.0388V1.55013H46.3255V11.8529H44.7285V0.272217H58.6358Z" fill="white"/>
<path id="Vector_8" d="M58.7189 11.9399H56.9441V1.63714H46.4086V11.9399H44.6338V0.185303H58.7189V11.9399ZM57.122 11.7622H58.5373V0.363001H44.8116V11.7622H46.227V1.45944H57.1182V11.7622H57.122Z" fill="white"/>
</g>
<g id="Group_5">
<path id="Vector_9" d="M72.3392 0.272217C75.2114 0.272217 76.4716 1.69758 76.4716 4.01522C76.4716 6.33286 75.2114 7.78848 72.3392 7.78848H64.1272V11.8491H62.5303V0.272217H72.3392ZM74.8936 3.87911C74.8936 2.37057 74.1026 1.4972 72.2067 1.4972H64.1272V6.56349H72.2067C74.1026 6.56349 74.8936 5.69012 74.8936 4.21561V3.87911Z" fill="white"/>
<path id="Vector_10" d="M64.2104 11.9399H62.4355V0.185303H72.3315C75.094 0.185303 76.551 1.50859 76.551 4.01527C76.551 6.52195 75.0902 7.87926 72.3315 7.87926H64.2104V11.9399ZM62.6134 11.7622H64.0287V7.70156H72.3315C74.9767 7.70156 76.3731 6.42743 76.3731 4.01527C76.3731 1.60311 75.0145 0.363001 72.3315 0.363001H62.6134V11.7622ZM72.1952 6.65428H64.0287V1.41029H72.1952C74.0382 1.41029 74.9729 2.24207 74.9729 3.88294V4.21943C74.9729 5.83762 74.0382 6.65806 72.1952 6.65806V6.65428ZM64.2066 6.47658H72.1952C73.9436 6.47658 74.7913 5.73554 74.7913 4.21565V3.87916C74.7913 2.33659 73.9398 1.5842 72.1952 1.5842H64.2066V6.4728V6.47658Z" fill="white"/>
</g>
<g id="Group_6">
<path id="Vector_11" d="M87.3778 0.0908203C93.0883 0.0908203 96.0779 1.7506 96.0779 6.09853C96.0779 10.4465 93.0883 12.0382 87.3778 12.0382C81.6673 12.0382 78.6777 10.3104 78.6777 6.09853C78.6777 1.88671 81.6673 0.0908203 87.3778 0.0908203ZM94.4999 5.62593C94.4999 2.62397 92.0968 1.33093 87.3778 1.33093C82.6588 1.33093 80.2558 2.60506 80.2558 5.62593V6.4804C80.2558 9.44834 82.6399 10.7905 87.3778 10.7905C92.1158 10.7905 94.4999 9.46346 94.4999 6.4804V5.62593Z" fill="white"/>
<path id="Vector_12" d="M87.3794 12.1251C81.3851 12.1251 78.5923 10.2082 78.5923 6.09467C78.5923 1.98115 81.3018 0 87.3794 0C93.457 0 96.1666 1.87906 96.1666 6.09467C96.1666 10.3103 93.3737 12.1251 87.3794 12.1251ZM87.3794 0.177698C81.4267 0.177698 78.7701 2.00383 78.7701 6.09467C78.7701 10.1855 81.5062 11.9436 87.3794 11.9436C93.2526 11.9436 95.9887 10.0834 95.9887 6.09467C95.9887 2.10591 93.3359 0.177698 87.3794 0.177698ZM87.3794 10.8812C82.528 10.8812 80.1703 9.44069 80.1703 6.48031V5.62585C80.1703 2.63523 82.4598 1.24011 87.3794 1.24011C92.299 1.24011 94.5885 2.63145 94.5885 5.62585V6.48031C94.5885 9.44069 92.2309 10.8812 87.3794 10.8812ZM87.3794 1.41781C82.5809 1.41781 80.3482 2.75621 80.3482 5.62207V6.47653C80.3482 9.35751 82.5809 10.6997 87.3794 10.6997C92.1779 10.6997 94.4106 9.35751 94.4106 6.47653V5.62207C94.4106 2.75243 92.1779 1.41781 87.3794 1.41781Z" fill="white"/>
</g>
<g id="Group_7">
<path id="Vector_13" d="M113.983 1.36487L108.223 10.091H106.475L100.715 1.3989V11.8529H99.2695V0.272217H101.604L107.398 9.03236L113.207 0.272217H115.557V11.8491H113.979V1.36487H113.983Z" fill="white"/>
<path id="Vector_14" d="M115.644 11.9399H113.888V1.6636L108.265 10.1818H106.422L106.395 10.1402L100.798 1.69763V11.9436H99.1748V0.185303H101.646L107.391 8.86983L113.158 0.185303H115.648V11.9399H115.644ZM114.066 11.7622H115.466V0.363001H113.252L107.394 9.19498L107.319 9.08156L101.551 0.363001H99.3527V11.7622H100.617V1.10026L106.513 10.0003H108.163L114.062 1.06623V11.7622H114.066Z" fill="white"/>
</g>
<g id="Group_8">
<path id="Vector_15" d="M132.607 0.272217V1.46317H121.054V5.1041H129.5C132.172 5.1041 133.379 6.32908 133.379 8.46146C133.379 10.5938 132.168 11.8491 129.5 11.8491H119.457V0.272217H132.607ZM131.786 8.24217C131.786 7.11927 131.048 6.27993 129.167 6.27993H121.057V10.677H129.167C131.048 10.677 131.786 9.85658 131.786 8.68075V8.24595V8.24217Z" fill="white"/>
<path id="Vector_16" d="M129.502 11.9399H119.371V0.185303H132.699V1.55396H121.146V5.01718H129.505C132.139 5.01718 133.475 6.17789 133.475 8.4615C133.475 10.7451 132.101 11.9399 129.505 11.9399H129.502ZM119.549 11.7622H129.502C132.018 11.7622 133.294 10.6506 133.294 8.4615C133.294 6.27241 132.018 5.19488 129.502 5.19488H120.964V1.37626H132.518V0.363001H119.545V11.7622H119.549ZM129.165 10.7678H120.964V6.19302H129.165C131.522 6.19302 131.874 7.47849 131.874 8.246V8.68079C131.874 9.63356 131.405 10.7678 129.165 10.7678ZM121.142 10.5901H129.165C130.819 10.5901 131.697 9.93224 131.697 8.68457V8.24978C131.697 7.0248 130.822 6.3745 129.165 6.3745H121.142V10.5901Z" fill="white"/>
</g>
<g id="Group_9">
<path id="Vector_17" d="M143.77 0.272217L150.975 11.8491H149.28L147.111 8.35938H138.294L136.129 11.8491H134.551L141.753 0.272217H143.77ZM146.354 7.14952L142.71 1.27791L139.051 7.14952H146.354Z" fill="white"/>
<path id="Vector_18" d="M151.13 11.9399H149.223L147.054 8.45016H138.335L136.171 11.9399H134.381L141.7 0.185303H143.815L143.842 0.226892L151.13 11.9399ZM149.321 11.7622H150.808L143.717 0.363001H141.802L134.71 11.7622H136.08L138.245 8.27246H147.16L149.329 11.7622H149.321ZM146.51 7.24408H138.884L142.706 1.1116L146.51 7.24408ZM139.206 7.06638H146.188L142.703 1.45188L139.202 7.06638H139.206Z" fill="white"/>
</g>
<g id="Group_10">
<path id="Vector_19" d="M154.843 0.272217V5.08897H165.825V0.272217H167.403V11.8491H165.825V6.36311H154.843V11.8491H153.246V0.272217H154.843Z" fill="white"/>
<path id="Vector_20" d="M167.495 11.9399H165.739V6.45389H154.935V11.9399H153.16V0.185303H154.935V5.00206H165.739V0.185303H167.495V11.9399ZM165.917 11.7622H167.317V0.363001H165.917V5.17976H154.753V0.363001H153.338V11.7622H154.753V6.27619H165.917V11.7622Z" fill="white"/>
</g>
<g id="Group_11">
<path id="Vector_21" d="M185.611 0.272217L177.887 5.82623L185.815 11.8491H183.465L176.494 6.54837H172.918V11.8491H171.321V0.272217H172.918V5.27045H176.445L183.416 0.272217H185.615H185.611Z" fill="white"/>
<path id="Vector_22" d="M186.072 11.9399H183.427L183.404 11.9209L176.46 6.63915H173.001V11.9399H171.227V0.185303H173.001V5.18354H176.411L183.378 0.185303H185.883L178.031 5.83006L186.072 11.9399ZM183.488 11.7622H185.543L177.732 5.82628L185.331 0.363001H183.435L176.464 5.36124H172.82V0.363001H171.404V11.7622H172.82V6.46145H176.517L176.54 6.48036L183.484 11.7622H183.488Z" fill="white"/>
</g>
<g id="Group_12">
<path id="Vector_23" d="M191.803 1.55013V0.272217H206.565V1.54635H199.98V11.8491H198.383V1.55013H191.799H191.803Z" fill="white"/>
<path id="Vector_24" d="M200.073 11.9399H198.298V1.63714H191.713V0.185303H206.654V1.63714H200.069V11.9399H200.073ZM198.476 11.7622H199.891V1.45944H206.476V0.363001H191.891V1.45944H198.476V11.7622Z" fill="white"/>
</g>
<g id="Group_13">
<path id="Vector_25" d="M221.851 0.272217V1.48208H210.699V5.35741H219.331V6.54837H210.699V10.643H221.935V11.8529H209.106V0.272217H221.851Z" fill="white"/>
<path id="Vector_26" d="M222.022 11.9399H209.011V0.185303H221.935V1.57286H210.782V5.2705H219.414V6.63915H210.782V10.5561H222.018V11.9436L222.022 11.9399ZM209.193 11.7622H221.844V10.7338H210.608V6.46145H219.24V5.4482H210.608V1.39138H221.761V0.363001H209.193V11.7622Z" fill="white"/>
</g>
<g id="Group_14">
<path id="Vector_27" d="M231.442 6.78278L225.145 11.8491H223.146L230.386 6.02662L223.317 0.272217H225.5L231.578 5.2213L237.724 0.272217H239.722L232.634 5.95856L239.888 11.8491H237.69L231.442 6.78278Z" fill="white"/>
<path id="Vector_28" d="M240.139 11.9397H237.657L237.63 11.9208L231.439 6.8999L225.173 11.9397H222.891L230.24 6.02654L223.061 0.181396H225.528L231.576 5.10402L237.691 0.181396H239.977L232.779 5.95848L240.143 11.9359L240.139 11.9397ZM237.721 11.762H239.636L232.491 5.96226L239.466 0.362876H237.752L231.572 5.33843L225.46 0.362876H223.56L230.52 6.03032L230.433 6.09837L223.39 11.762H225.104L231.436 6.66927L231.492 6.71464L237.714 11.762H237.721Z" fill="white"/>
</g>
<path id="Vector_29" d="M189.263 11.9701C189.907 11.9701 190.429 11.4487 190.429 10.8056C190.429 10.1625 189.907 9.64111 189.263 9.64111C188.619 9.64111 188.098 10.1625 188.098 10.8056C188.098 11.4487 188.619 11.9701 189.263 11.9701Z" fill="white"/>
</g>
<defs>
<clipPath id="clip0_3622_20876">
<rect width="239.64" height="12.1251" fill="white" transform="translate(0.5)"/>
</clipPath>
</defs>
</svg>
