<svg width="48" height="48" viewBox="0 0 48 48" fill="none" xmlns="http://www.w3.org/2000/svg">
<path d="M36.1875 26.5H34.3052L32.0465 28.75V31.375L34.3052 33.625V41.5L23.3881 30.625H18.8706L15.859 27.625H7.57703L3.8125 23.875V17.5L8.7064 12.625H11.3416L13.9767 15.25V16.75" stroke="white"/>
<path d="M12.5625 12.9577L15.5752 10H27.2492L28.7555 11.4789H33.2745L35.9106 14.4366V17.3944H34.4043L32.8979 18.8732M36.2872 17.3944H39.2998L42.3125 20.3521V33.2923L39.2998 36.25H35.534" stroke="white"/>
<path d="M16.0625 28.375V24.1902L19.0625 20.8424H27.3125L29.1875 18.75" stroke="white"/>
<path d="M27.4375 10.875L25.6875 13.2614V15.25" stroke="white"/>
<path d="M21.3125 26.625H28.2396L30.0625 24.875" stroke="white"/>
<path d="M14.3125 19.625H10.4625L9.0625 21.125V22.25" stroke="white"/>
<path d="M18.6875 17V15.875L20.1875 14.375H21.3125" stroke="white"/>
<path d="M34.4375 22.25H36.8875L37.9375 23.5625V24.875" stroke="white"/>
<path d="M23.0625 31H27.4375" stroke="white"/>
<path d="M31.8125 31H30.0625" stroke="white"/>
<path d="M35.3125 31L36.8125 31.875H37.9375" stroke="white"/>
<circle cx="36.1875" cy="13.5" r="7" fill="#12D6A7"/>
<path d="M36.1875 10.875V16.125" stroke="black"/>
<path d="M38.8125 13.5L33.5625 13.5" stroke="black"/>
</svg>
