<svg width="48" height="48" viewBox="0 0 48 48" fill="none" xmlns="http://www.w3.org/2000/svg">
<g clip-path="url(#clip0_1105_2292)">
<circle cx="33.7862" cy="14.1328" r="4.77053" fill="#12D6A7"/>
<path d="M29.4928 12.7012C29.1111 12.7012 18.5205 18.7438 13.273 21.7652L11.8418 26.0587L9.93359 27.4898L29.4928 16.5176" stroke="white"/>
<path d="M31.8783 17.9492L20.9062 37.5084L22.3374 35.6002L26.6309 34.6461L35.2177 18.4263" stroke="white"/>
<path d="M37.125 10.7935L41.4185 6.5" stroke="white"/>
<path d="M18.043 13.6562L21.3823 16.9956" stroke="white"/>
<path d="M23.7656 19.8574L28.0591 24.1509" stroke="white"/>
<path d="M30.9219 27.0132L33.7842 29.8755" stroke="white"/>
<path d="M36.8802 36.2327C29.9871 43.1259 18.8111 43.1259 11.918 36.2327C5.02484 29.3396 5.02484 18.1636 11.918 11.2705" stroke="white"/>
</g>
<defs>
<clipPath id="clip0_1105_2292">
<rect width="47.25" height="47.25" fill="white" transform="translate(0.3125 0.375)"/>
</clipPath>
</defs>
</svg>
