<svg width="48" height="48" viewBox="0 0 48 48" fill="none" xmlns="http://www.w3.org/2000/svg">
<path d="M28.4 36.3375C28.4 36.3375 29.2495 31.6149 32.8625 28.9011C36.4755 26.1873 38.8125 21.8666 38.8125 17C38.8125 8.78476 32.1527 2.125 23.9375 2.125C15.7223 2.125 9.0625 8.78476 9.0625 17C9.0625 21.8666 11.3995 26.1873 15.0125 28.9011C18.6255 31.6149 19.475 36.3375 19.475 36.3375" stroke="white"/>
<circle cx="1.4875" cy="1.4875" r="1.4875" transform="matrix(-1 0 0 1 24.6797 10.3066)" fill="#12D6A7"/>
<circle cx="2.23125" cy="2.23125" r="2.23125" transform="matrix(-1 0 0 1 17.2422 2.125)" fill="#12D6A7"/>
<circle cx="2.23125" cy="2.23125" r="2.23125" transform="matrix(-1 0 0 1 15.7578 10.3066)" fill="#12D6A7"/>
<rect x="17.9883" y="36.3379" width="11.9" height="4.4625" stroke="white"/>
<rect x="17.9883" y="40.8003" width="11.9" height="4.4625" stroke="white"/>
<circle cx="30.6313" cy="12.5375" r="2.475" stroke="white"/>
<circle cx="17.2445" cy="21.4628" r="2.475" stroke="white"/>
<circle cx="27.657" cy="24.4378" r="1.73125" stroke="white"/>
<path d="M18.7305 24.8091L20.9617 27.0403V36.3372M27.6555 27.4122L26.168 29.2716V36.3372M29.143 15.5122L23.193 20.7185V36.3372" stroke="white"/>
</svg>
