<svg width="73" height="24" viewBox="0 0 73 24" fill="none" xmlns="http://www.w3.org/2000/svg">
<g clip-path="url(#clip0_3622_20398)">
<path fill-rule="evenodd" clip-rule="evenodd" d="M37.2729 5.96176H38.2201L37.8753 4.71031H37.6592L37.2729 5.96176ZM38.4153 6.61251H37.0859L36.8034 7.57196H36.0889L37.1939 4.01367H38.3239L39.4373 7.57196H38.7061L38.4153 6.61251Z" fill="#F1F3F5"/>
<path fill-rule="evenodd" clip-rule="evenodd" d="M40.6721 4.66717V7.56219H39.9326V4.00391H42.4917V4.66717H40.6721Z" fill="#F1F3F5"/>
<path fill-rule="evenodd" clip-rule="evenodd" d="M45.744 6.89892V7.56219H43.0811V4.00391H45.69V4.66717H43.8164V5.41804H45.2746V6.06462H43.8164V6.89892H45.744Z" fill="#F1F3F5"/>
<path fill-rule="evenodd" clip-rule="evenodd" d="M49.4861 4.00391V7.56219H48.7466V6.07297H47.1721V7.56219H46.4326V4.00391H47.1721V5.39301H48.7466V4.00391H49.4861Z" fill="#F1F3F5"/>
<path fill-rule="evenodd" clip-rule="evenodd" d="M52.8395 4.65883H51.7344V7.56219H50.9908V4.65883H49.8857V4.00391H52.8395V4.65883Z" fill="#F1F3F5"/>
<path fill-rule="evenodd" clip-rule="evenodd" d="M56.2811 6.46941C56.2335 6.81818 56.0553 7.13564 55.7829 7.35725C55.5105 7.57886 55.1643 7.68799 54.8146 7.66246C53.7386 7.66246 53.1279 6.91159 53.1279 5.83534C53.1279 4.7591 53.7428 4.00406 54.8146 4.00406C55.1454 3.97836 55.474 4.07545 55.7382 4.2769C56.0024 4.47836 56.1838 4.77017 56.2479 5.09699H55.4793C55.4328 4.96156 55.3415 4.84625 55.2205 4.77033C55.0995 4.69441 54.9562 4.66246 54.8146 4.67984C54.1831 4.67984 53.884 5.19293 53.884 5.85203C53.884 6.51112 54.1831 7.02005 54.8146 7.02005C54.9769 7.03524 55.139 6.98886 55.269 6.89003C55.3989 6.7912 55.4873 6.6471 55.5167 6.4861L56.2811 6.46941Z" fill="#F1F3F5"/>
<path fill-rule="evenodd" clip-rule="evenodd" d="M59.5312 4.65883H58.4219V7.56219H57.6825V4.65883H56.5732V4.00391H59.5312V4.65883Z" fill="#F1F3F5"/>
<path fill-rule="evenodd" clip-rule="evenodd" d="M62.2167 6.49012C62.2167 6.19394 62.0339 6.0396 61.6517 6.0396H60.7752V6.92812H61.6393C62.0132 6.92812 62.2167 6.79047 62.2167 6.51098V6.49012ZM62.117 5.03844C62.117 4.77563 61.9467 4.64632 61.6102 4.64632H60.7793V5.4389H61.6102C61.9467 5.4389 62.1129 5.30541 62.1129 5.02175L62.117 5.03844ZM62.9811 6.536C62.9811 7.12836 62.5948 7.56636 61.7348 7.56636H60.0107V4.00391H61.6725C62.466 4.00391 62.8482 4.42106 62.8482 4.94666C62.8587 5.08937 62.8292 5.23217 62.7632 5.35895C62.6971 5.48573 62.597 5.59145 62.4743 5.66416V5.76428C62.619 5.83249 62.7411 5.9412 62.8259 6.07735C62.9106 6.21349 62.9544 6.3713 62.9521 6.53183" fill="#F1F3F5"/>
<path fill-rule="evenodd" clip-rule="evenodd" d="M66.1716 5.83519C66.1716 5.18027 65.8683 4.663 65.2036 4.663C64.5389 4.663 64.2398 5.18027 64.2398 5.83519C64.2398 6.49012 64.5472 7.00321 65.2036 7.00321C65.86 7.00321 66.1716 6.48594 66.1716 5.83519ZM66.9277 5.83519C66.9277 6.86972 66.3253 7.66231 65.2036 7.66231C64.0819 7.66231 63.4795 6.86972 63.4795 5.83519C63.4795 4.80066 64.086 4.00391 65.2036 4.00391C66.3211 4.00391 66.9277 4.79649 66.9277 5.83519Z" fill="#F1F3F5"/>
<path fill-rule="evenodd" clip-rule="evenodd" d="M37.0592 10.5273V13.0136H37.159L38.4759 10.5273H39.4356V14.0815H38.7459V11.541H38.6504L37.3002 14.0815H36.3779V10.5273H37.0592Z" fill="#F1F3F5"/>
<path fill-rule="evenodd" clip-rule="evenodd" d="M43.3767 10.5273V14.0815H42.6373V12.5922H41.0669V14.0815H40.3232V10.5273H41.0669V11.9123H42.6373V10.5273H43.3767Z" fill="#F1F3F5"/>
<path fill-rule="evenodd" clip-rule="evenodd" d="M47.2205 10.5273V14.0815H46.481V12.5922H44.9065V14.0815H44.167V10.5273H44.9065V11.9123H46.481V10.5273H47.2205Z" fill="#F1F3F5"/>
<path fill-rule="evenodd" clip-rule="evenodd" d="M50.5033 12.3551C50.5033 11.7043 50.2001 11.1829 49.5395 11.1829C48.879 11.1829 48.5715 11.7043 48.5715 12.3551C48.5715 13.0058 48.879 13.5273 49.5395 13.5273C50.2001 13.5273 50.5033 13.0058 50.5033 12.3551ZM51.2636 12.3551C51.2636 13.3938 50.657 14.1822 49.5395 14.1822C48.422 14.1822 47.8154 13.3938 47.8154 12.3551C47.8154 11.3164 48.4178 10.5488 49.5395 10.5488C50.6612 10.5488 51.2636 11.3372 51.2636 12.3759" fill="#F1F3F5"/>
<path fill-rule="evenodd" clip-rule="evenodd" d="M54.1381 13.0142C54.1381 12.7138 53.9512 12.5595 53.569 12.5595H52.6924V13.4689H53.5607C53.9304 13.4689 54.1381 13.327 54.1381 13.0517V13.0142ZM54.0343 11.575C54.0343 11.3122 53.8639 11.1829 53.5274 11.1829H52.6965V11.9755H53.5274C53.8639 11.9755 54.026 11.8462 54.026 11.5583L54.0343 11.575ZM54.9067 13.0517C54.9067 13.6441 54.5203 14.0821 53.6604 14.0821H51.9404V10.5488H53.6022C54.3957 10.5488 54.7821 10.966 54.7821 11.4874C54.7916 11.6305 54.7613 11.7734 54.6946 11.9001C54.6278 12.0268 54.5272 12.1324 54.404 12.2049V12.305C54.5502 12.3681 54.6753 12.472 54.7644 12.6044C54.8535 12.7367 54.9029 12.892 54.9067 13.0517Z" fill="#F1F3F5"/>
<path fill-rule="evenodd" clip-rule="evenodd" d="M56.3864 12.4719H57.3336L56.968 11.2204H56.752L56.3864 12.4719ZM57.5289 13.1226H56.1994L55.9169 14.0821H55.1982L56.3075 10.5488H57.4333L58.5467 14.1029H57.8155L57.5289 13.1226Z" fill="#F1F3F5"/>
<path fill-rule="evenodd" clip-rule="evenodd" d="M61.7797 14.0981H59.042V10.5273H59.7732V13.4307H61.2604V10.5273H61.9916V13.4307H62.4901V14.9742H61.7797V14.0981Z" fill="#F1F3F5"/>
<path fill-rule="evenodd" clip-rule="evenodd" d="M63.7665 10.5273V13.0136H63.8621L65.179 10.5273H66.1387V14.0815H65.4491V11.541H65.3535L64.0033 14.0815H63.0811V10.5273H63.7665Z" fill="#F1F3F5"/>
<path fill-rule="evenodd" clip-rule="evenodd" d="M69.4743 9.63477C69.4291 9.84783 69.3125 10.0389 69.1438 10.1759C68.9752 10.313 68.7648 10.3878 68.5479 10.3878C68.3309 10.3878 68.1205 10.313 67.9519 10.1759C67.7833 10.0389 67.6666 9.84783 67.6214 9.63477H68.1615C68.1666 9.68037 68.1808 9.72449 68.203 9.76456C68.2253 9.80464 68.2553 9.83986 68.2912 9.8682C68.3272 9.89653 68.3684 9.91741 68.4124 9.92961C68.4565 9.94182 68.5025 9.94511 68.5479 9.93929C68.639 9.9488 68.7303 9.92235 68.8024 9.86552C68.8745 9.8087 68.9218 9.72595 68.9342 9.63477H69.4743ZM67.7045 10.5692V13.0262H67.7876L69.1087 10.5692H70.0642V14.0816H69.3787V11.5787H69.279L67.933 14.0816H67.0107V10.5692H67.7045Z" fill="#F1F3F5"/>
<path fill-rule="evenodd" clip-rule="evenodd" d="M36.3857 17.1484H37.5448L38.1223 18.5667H38.222L38.7953 17.1484H39.9336V20.7067H39.244V17.9285H39.1443L38.5003 19.5137H37.8232L37.1792 17.9285H37.0795V20.7067H36.3857V17.1484Z" fill="#F1F3F5"/>
<path fill-rule="evenodd" clip-rule="evenodd" d="M43.2065 18.8916C43.2065 18.2408 42.9073 17.7235 42.2426 17.7235C41.5779 17.7235 41.2747 18.2408 41.2747 18.8916C41.2747 19.5423 41.5821 20.0638 42.2426 20.0638C42.9032 20.0638 43.2065 19.5465 43.2065 18.8916ZM43.9667 18.8916C43.9667 19.9303 43.3602 20.7229 42.2426 20.7229C41.1251 20.7229 40.5186 19.9303 40.5186 18.8916C40.5186 17.8529 41.1209 17.0645 42.2426 17.0645C43.3643 17.0645 43.9667 17.857 43.9667 18.8916Z" fill="#F1F3F5"/>
<path fill-rule="evenodd" clip-rule="evenodd" d="M47.6171 19.5124C47.5694 19.8611 47.3913 20.1786 47.1189 20.4002C46.8465 20.6218 46.5002 20.731 46.1506 20.7054C45.0746 20.7054 44.4639 19.9546 44.4639 18.8741C44.4639 17.7937 45.0829 17.047 46.1506 17.047C46.4813 17.0213 46.8099 17.1184 47.0741 17.3199C47.3383 17.5213 47.5197 17.8131 47.5838 18.14H46.8153C46.7688 18.0045 46.6774 17.8892 46.5564 17.8133C46.4354 17.7374 46.2922 17.7054 46.1506 17.7228C45.5191 17.7228 45.22 18.2359 45.22 18.8908C45.22 19.5457 45.5191 20.063 46.1506 20.063C46.3129 20.0782 46.475 20.0318 46.6049 19.933C46.7349 19.8342 46.8232 19.6901 46.8527 19.5291L47.6171 19.5124Z" fill="#F1F3F5"/>
<path fill-rule="evenodd" clip-rule="evenodd" d="M48.2998 17.1484H49.0434V18.5375H49.866L50.539 17.1484H51.3076L50.4892 18.8754L51.3533 20.7067H50.5847L49.8702 19.2092H49.0434V20.7067H48.2998V17.1484Z" fill="#F1F3F5"/>
<path fill-rule="evenodd" clip-rule="evenodd" d="M54.0412 19.6344C54.0412 19.334 53.8542 19.1797 53.4762 19.1797H52.5996V20.0724H53.4637C53.8376 20.0724 54.0412 19.9306 54.0412 19.6552V19.6344ZM53.9415 18.1785C53.9415 17.9157 53.7712 17.7864 53.4347 17.7864H52.6038V18.579H53.4347C53.7712 18.579 53.9373 18.4497 53.9373 18.1618L53.9415 18.1785ZM54.8015 19.6761C54.8015 20.2684 54.4192 20.7106 53.5551 20.7106H51.8311V17.1523H53.4928C54.2863 17.1523 54.6685 17.5695 54.6685 18.0951C54.6773 18.237 54.647 18.3785 54.5811 18.5043C54.5151 18.6301 54.416 18.7353 54.2946 18.8084V18.8919C54.4386 18.9607 54.5598 19.0696 54.6438 19.2057C54.7278 19.3418 54.771 19.4993 54.7682 19.6594" fill="#F1F3F5"/>
<path fill-rule="evenodd" clip-rule="evenodd" d="M58.5993 20.7025H59.3388V17.1484H58.5993V20.7025ZM57.4402 19.5304C57.4402 19.1966 57.2615 19.0048 56.7672 19.0048H56.1565V20.0518H56.7838C57.2782 20.0518 57.4568 19.8683 57.4568 19.5304H57.4402ZM55.417 20.7025V17.1484H56.1565V18.354H56.9001C57.731 18.354 58.2171 18.7962 58.2171 19.522C58.2171 20.2479 57.731 20.7025 56.9001 20.7025H55.417Z" fill="#F1F3F5"/>
<path fill-rule="evenodd" clip-rule="evenodd" d="M6.25073 21.3271C6.1929 21.4152 6.1052 21.4792 6.00392 21.5072C5.90264 21.5352 5.79466 21.5254 5.70007 21.4795C5.63718 21.4125 5.60038 21.3251 5.5964 21.2332C5.59241 21.1413 5.62151 21.0509 5.67838 20.9788C5.58604 21.0002 5.50447 21.0543 5.44858 21.1312C5.39785 21.2459 5.38852 21.3748 5.42221 21.4957C5.45589 21.6166 5.53048 21.7219 5.63314 21.7935C5.7358 21.8652 5.86011 21.8987 5.98469 21.8882C6.10928 21.8778 6.22635 21.8241 6.31576 21.7363C6.3633 21.6648 6.38867 21.5807 6.38867 21.4947C6.38867 21.4087 6.3633 21.3246 6.31576 21.2531C6.30242 21.2804 6.28486 21.3053 6.26373 21.3271H6.25073ZM14.4239 7.17307C14.3366 7.05764 14.2738 6.92542 14.2395 6.78462C14.2052 6.64382 14.2001 6.49744 14.2245 6.35457C14.1247 6.53277 14.0705 6.73302 14.0667 6.93741C14.063 7.14179 14.1097 7.34392 14.2028 7.52572C14.4976 7.9611 14.7664 8.00464 15.0006 8.45743C15.0173 8.33679 14.9928 8.21405 14.9312 8.10913C14.8402 7.92627 14.8011 7.76954 15.0223 7.70858C15.6336 7.52573 16.206 8.41824 16.5442 8.40083C16.6763 8.39033 16.8022 8.34035 16.9058 8.25732C17.0093 8.17429 17.0858 8.06202 17.1252 7.93498C16.9604 8.03827 16.7687 8.08981 16.5745 8.083C16.0976 8.02205 15.8721 7.48219 15.3345 7.37334C14.9919 7.30368 14.7014 7.44736 14.4109 7.16872L14.4239 7.17307ZM14.0857 17.0778C13.9253 17.3129 14.0467 17.6438 14.4716 17.7701C14.7781 17.8405 15.0607 17.9906 15.2911 18.2055C15.5643 18.4797 15.6943 18.5146 15.7594 18.5146L4.05242 2.20545L3.89633 2.31865C3.89633 2.31865 10.6603 11.7314 13.6651 15.9197C13.7779 16.0765 14.2331 16.8906 14.0987 17.0996L14.0857 17.0778ZM14.051 17.8441C13.6174 17.8441 13.0971 18.0139 12.5812 17.535C12.4061 17.3592 12.1805 17.2431 11.9361 17.2033C11.6918 17.1634 11.4411 17.2018 11.2197 17.3129C11.2197 17.3129 11.6533 17.7483 11.4148 17.9312C11.0159 18.2272 11.3107 18.5755 11.2717 18.7105C11.2327 18.8455 10.8381 18.8716 10.1661 18.5625C9.86692 18.4234 9.53305 18.3779 9.20782 18.4319C9.03438 18.458 9.09074 18.5886 9.12976 18.6234C9.16879 18.6582 9.41161 18.8803 9.52001 18.9543C9.6284 19.0283 9.83218 19.1981 9.9189 19.1372C10.0056 19.0762 9.82351 18.7453 9.82351 18.7453C10.4027 18.9458 10.9994 19.0916 11.6056 19.1807C12.1432 19.1807 11.6403 18.2838 12.0608 18.2403C12.2776 18.2403 12.5421 18.5538 12.9801 18.6147C13.2885 18.6235 13.5955 18.5687 13.8819 18.4536C14.2028 18.3753 14.3155 18.7714 14.3675 19.1241C14.3745 19.2316 14.4025 19.3366 14.4499 19.4332C14.554 18.9282 14.6927 17.818 14.051 17.8354V17.8441ZM17.3983 18.8716C17.2249 18.4014 16.8911 18.606 16.7436 18.5538C16.5962 18.5015 16.4011 18.3143 16.3361 17.8136C16.271 17.3129 15.8504 17.5829 15.8504 17.5829C15.8504 17.5829 16.3404 18.5712 16.5398 19.098C16.7393 19.6248 16.9041 19.2155 17.1469 19.5029C17.3897 19.7902 17.3593 21.2705 17.2206 21.7494C17.0629 22.2934 16.74 22.7743 16.297 23.1252C16.6396 23.086 17.2726 22.4112 17.4547 21.9714C17.5765 21.663 17.6066 21.3258 17.5414 21.0006L17.8276 20.9744L17.6498 20.5391L17.9273 20.4955C17.9273 20.4955 17.5718 19.3636 17.3983 18.8933V18.8716ZM6.00792 19.8294C5.64859 19.7356 5.27442 19.7134 4.90659 19.7641C4.5713 19.8485 4.22857 19.8995 3.88332 19.9165C3.72886 19.9164 3.57614 19.8838 3.43499 19.8208C3.29384 19.7578 3.16741 19.6658 3.06383 19.5508C2.9784 19.4451 2.91101 19.3259 2.86438 19.1981C3.09128 18.786 3.43962 18.4544 3.86163 18.249C5.74342 17.1954 5.11905 16.0112 5.00198 14.6397C4.95079 14.3489 4.96305 14.0504 5.03791 13.7647C5.11276 13.4791 5.24844 13.2132 5.43557 12.9853C5.8265 12.6981 6.3048 12.5565 6.78837 12.5848C6.14482 12.242 5.39996 12.1431 4.68979 12.3061C3.76191 12.5761 3.59281 13.2509 3.43238 13.7298C3.36108 14.0163 3.21991 14.2806 3.0216 14.4987C2.8233 14.7168 2.57408 14.882 2.29638 14.9793C0.917557 15.5584 0.995604 16.6512 0.995604 16.6512C0.995604 16.6512 0.496975 15.5714 1.83677 14.6659C3.53645 13.5121 2.88173 12.624 3.44973 12.0928C3.88332 11.6836 4.4253 11.7489 5.24045 11.9709C5.09303 11.7967 2.93809 10.8868 2.68661 12.8155C2.47415 14.4569 0.913223 14.2261 0.644396 15.7717C0.453616 16.8645 1.48556 17.7831 1.48556 17.7831C1.48556 17.7831 0.661739 16.1244 2.28337 15.4539C3.40203 14.9924 4.04375 14.4569 4.20852 13.9301C4.20852 14.0999 4.20852 14.2784 4.20852 14.4743C4.20852 15.2188 4.57706 15.7804 4.46866 16.8384C4.41229 17.4131 3.36734 17.9878 2.782 18.5799C2.79785 18.3215 2.87516 18.0707 3.00746 17.8484C3.19438 17.6199 3.35849 17.3734 3.49742 17.1127C3.60775 16.8719 3.64254 16.6031 3.59715 16.3421C3.56663 16.1888 3.51095 16.0416 3.43238 15.9067L3.35434 15.9372C3.43354 16.1129 3.47085 16.3047 3.46332 16.4974C3.45579 16.6901 3.40364 16.8784 3.31098 17.0474C3.15817 17.2888 2.98248 17.5148 2.78634 17.7222C2.57829 18.0112 2.45782 18.3544 2.43946 18.7105C2.433 18.8316 2.44174 18.953 2.46547 19.0719C2.38487 19.3751 2.36521 19.6914 2.40765 20.0024C2.45008 20.3133 2.55375 20.6127 2.71262 20.883C2.97278 21.3184 3.21992 21.658 3.09418 22.1891C2.96844 22.7203 3.4107 22.5244 3.73156 22.5331H4.03074C4.23886 22.5331 4.32125 22.3807 4.19551 22.1761C3.95834 21.7692 3.66654 21.3971 3.32833 21.0702C3.13198 20.906 2.9742 20.7003 2.86626 20.4677C2.75832 20.2351 2.7029 19.9815 2.70395 19.7249C2.84245 19.8977 3.01387 20.0409 3.20819 20.1463C3.40251 20.2517 3.61581 20.3172 3.83562 20.3388C4.20722 20.332 4.57621 20.2749 4.9326 20.169C5.25276 20.1192 5.57942 20.131 5.89518 20.2038C6.1838 20.2731 6.45245 20.4087 6.67998 20.6C6.87559 20.7769 7.01317 21.0091 7.07455 21.2661C7.10477 21.4794 7.07816 21.697 6.99743 21.8966C6.91669 22.0962 6.78472 22.2707 6.61494 22.4025L6.66697 22.4504C6.88922 22.3213 7.06663 22.1268 7.1752 21.8932C7.28377 21.6596 7.31825 21.3982 7.27399 21.1442C7.20269 20.8292 7.04181 20.5418 6.81089 20.3169C6.57997 20.092 6.28895 19.9393 5.97322 19.8773L6.00792 19.8294ZM5.60468 11.148C6.15968 11.7358 6.75369 11.5007 7.01818 11.5312C7.28267 11.5616 7.59052 12.2452 7.43009 12.9113C7.33564 13.2382 7.22273 13.5595 7.09189 13.8735C6.95314 14.4003 7.59919 14.7747 7.45177 15.258C7.40841 15.3929 7.31736 15.5845 7.43009 15.7325C7.60353 15.9676 7.88537 15.6585 8.24525 15.7325C8.4686 15.7644 8.69614 15.7199 8.89129 15.6063C8.84793 15.4016 8.04579 15.5279 7.86368 15.197C7.78564 15.049 7.57318 13.5426 8.04146 12.8721C8.50974 12.2016 8.0718 12.058 7.77696 11.566C8.1802 11.344 9.12544 10.8694 9.12544 10.8694C9.41658 11.1584 9.6622 11.4901 9.85387 11.8533C9.96034 12.0637 10.0153 12.2965 10.0143 12.5325C10.0115 12.7764 9.93095 13.0129 9.78449 13.2074C9.97961 13.1769 10.1617 12.8242 10.2181 12.5543C10.2611 12.2819 10.2403 12.0031 10.1574 11.7401C9.96457 11.1977 9.65347 10.7053 9.24684 10.2991C8.67774 10.5021 8.12416 10.7465 7.59052 11.0305C7.33904 10.5559 7.08323 10.643 6.77104 10.6691C6.66827 10.6656 6.5681 10.6358 6.48006 10.5824C6.39203 10.5291 6.31906 10.454 6.26807 10.3644C6.61151 10.4585 6.97703 10.4276 7.30001 10.2773C7.42865 10.2473 7.54918 10.1894 7.65307 10.1075C7.75695 10.0256 7.84166 9.92187 7.90121 9.80351C7.96076 9.68516 7.99371 9.55512 7.99771 9.42258C8.00172 9.29004 7.97668 9.15823 7.92438 9.03647C7.93032 9.20414 7.87425 9.36808 7.76697 9.4967C7.65969 9.62532 7.5088 9.70952 7.34337 9.73307C6.88198 9.72226 6.42351 9.6565 5.97756 9.53715C5.97756 9.53715 6.77104 9.44573 6.93147 8.98858C6.95872 8.90295 7.00386 8.82414 7.06389 8.75745C7.12392 8.69075 7.19745 8.63769 7.27955 8.60183C7.36165 8.56597 7.45044 8.54813 7.53996 8.54951C7.62948 8.55088 7.71768 8.57144 7.79865 8.60981C7.69047 8.49011 7.54191 8.41494 7.38173 8.39885C7.22155 8.38277 7.06111 8.42691 6.93147 8.52273C6.69923 8.63818 6.44141 8.69199 6.18259 8.67903C5.92377 8.66608 5.67257 8.58679 5.45292 8.44872C4.8112 8.12219 4.58574 8.66205 4.45132 8.67511C4.31691 8.68817 4.22151 8.47919 4.29523 8.23974C4.36894 8.00028 5.10171 7.80437 6.20736 7.76518C6.63585 7.71359 7.07001 7.78927 7.45611 7.98287C7.45611 7.92192 7.26099 7.65198 6.6583 7.50396C6.05561 7.35593 6.09463 7.10777 6.12498 6.6811C6.15533 6.25443 5.5353 6.42423 5.38354 6.37199C5.23179 6.31974 5.38354 5.9845 5.38354 5.9845C5.27317 6.00995 5.17526 6.07368 5.10706 6.16446C5.03885 6.25524 5.00471 6.36727 5.01065 6.48083C5.01065 6.65498 5.18408 6.78124 5.34885 6.86396C5.51361 6.94668 5.53963 7.09471 5.24479 7.26886C4.90479 7.46212 4.55451 7.63653 4.19551 7.7913C3.16356 8.22668 4.45132 8.99729 3.99605 9.23239C3.84771 9.29242 3.71635 9.38814 3.61352 9.51113C3.51069 9.63412 3.43956 9.78061 3.40637 9.9377C3.39226 10.0555 3.40228 10.175 3.43584 10.2888C3.46939 10.4026 3.52576 10.5083 3.60148 10.5995C4.49034 10.1162 5.08003 10.4558 5.63069 11.0348L5.60468 11.148ZM10.8728 9.68083C10.8728 9.30205 10.9725 9.11919 11.0766 9.11484C11.3931 9.11484 11.4625 9.55022 11.4668 9.67647C11.4717 9.77958 11.4513 9.88231 11.4075 9.97567C11.3636 10.069 11.2977 10.1502 11.2153 10.212C11.4408 10.2338 11.6229 9.91593 11.6489 9.71566C11.6706 9.61275 11.6714 9.50652 11.6512 9.4033C11.6311 9.30007 11.5905 9.20197 11.5319 9.11484C11.9017 9.47444 12.1165 9.96519 12.1302 10.4819C12.0478 11.2961 11.133 11.7271 11.133 11.7271C11.4247 11.7755 11.7241 11.7426 11.9985 11.6321C12.273 11.5215 12.512 11.3375 12.6896 11.1001C12.9671 10.7475 13.0885 10.2294 12.7503 9.35865C12.4467 8.58804 11.8831 7.93498 12.4858 6.4547C12.6012 6.15867 12.7823 5.89292 13.0153 5.67762C13.2483 5.46231 13.527 5.3031 13.8304 5.21205C14.1338 5.121 14.4538 5.10051 14.7662 5.15212C15.0787 5.20373 15.3753 5.3261 15.6336 5.50994C15.6882 5.54752 15.7305 5.60056 15.755 5.66232C15.8157 5.83212 15.3691 6.05851 15.5643 6.15865C15.7252 6.21324 15.8806 6.28322 16.0282 6.36763C16.1669 6.47212 16.193 6.56355 16.2667 6.62885C16.2824 6.64821 16.3022 6.66375 16.3248 6.6743C16.3473 6.68486 16.3719 6.69016 16.3968 6.68981C16.0308 6.1975 15.829 5.60175 15.8201 4.98749C15.3618 4.80324 14.889 4.65762 14.4066 4.55212C13.7406 4.46572 13.0638 4.57142 12.4554 4.85688C11.5405 5.29226 10.5736 6.163 10.5736 8.21797C10.5572 8.71918 10.6582 9.21725 10.8685 9.67212L10.8728 9.68083ZM0.700765 14.4656C0.832936 14.4458 0.953689 14.3792 1.04118 14.2778C1.12866 14.1764 1.17709 14.0468 1.1777 13.9127C1.25311 14.014 1.29002 14.1391 1.28178 14.2653C1.33725 14.1775 1.37231 14.0783 1.38436 13.9751C1.39642 13.8718 1.38517 13.7672 1.35143 13.6689C1.31769 13.5706 1.26233 13.4812 1.18947 13.4073C1.11661 13.3334 1.02813 13.277 0.930568 13.2422C0.930568 13.2422 0.960908 13.8604 0.56634 14.0781C0.171772 14.2958 0.0893923 14.4482 0.0677127 14.6746C0.057491 14.7838 0.0817643 14.8935 0.137089 14.988C0.19242 15.069 0.273407 15.1289 0.366892 15.1578C0.245486 14.9924 0.219479 14.5962 0.700765 14.4656ZM10.5476 5.80164C9.39426 5.86695 8.99102 5.44899 8.20189 5.07021C7.41275 4.69144 6.73201 4.96572 6.61494 5.14858C7.18739 5.23287 7.72905 5.46211 8.18888 5.8147C9.78883 6.82042 10.5476 5.8147 10.5476 5.8147V5.80164ZM10.0316 3.35484C9.86254 3.40273 9.45929 3.46804 9.64574 4.40845C9.83218 5.34885 10.3438 5.11811 10.4782 5.00056C10.2746 4.96766 10.0901 4.86079 9.9598 4.70025C9.8295 4.53972 9.76249 4.33671 9.77148 4.12981C9.77148 3.3113 10.6907 3.46368 10.6907 3.46368C10.4905 3.35041 10.2549 3.31772 10.0316 3.37225V3.35484ZM20.3121 15.3276C19.9513 14.2025 19.4655 13.1218 18.8639 12.1059C18.3653 11.3527 18.1138 11.8925 17.9143 12.0623C17.7149 12.2321 17.1339 13.2161 16.878 11.9491C16.6222 10.6822 15.3171 9.58505 15.3171 9.58505C15.5209 10.3217 15.5653 11.0937 15.4472 11.849C15.4285 12.2499 15.4562 12.6517 15.5296 13.0463C15.5296 13.4163 14.4239 13.6602 14.3675 13.9431C14.3112 14.2261 16.0109 15.3973 17.6325 14.2261C18.1181 13.8735 18.4216 15.2406 18.5777 15.6106C18.7338 15.9807 18.4216 16.0982 18.7902 16.5249C19.1587 16.9516 18.8769 17.3129 18.8769 17.5785C18.8769 17.8441 19.6097 18.4493 19.7441 18.3187C19.9826 18.0836 19.4492 16.6816 19.2368 16.194C19.0243 15.7064 18.6818 14.1434 18.4433 13.7167C18.3046 13.4729 17.5761 13.6427 17.5761 13.6427L17.5241 13.4555C17.5241 13.4555 17.6238 13.3293 17.7149 13.2335C18.4563 12.4629 18.3956 12.7981 19.1631 13.7167C19.9305 14.6354 19.007 15.0229 19.6704 15.5105C20.3338 15.9981 20.5375 16.1374 20.2991 15.3276H20.3121ZM8.15852 2.70178C8.29981 2.73997 8.44584 2.75757 8.59211 2.75402C8.67482 2.75059 8.75529 2.726 8.82586 2.68256C8.89643 2.63913 8.95477 2.5783 8.99535 2.50586C8.67955 2.51479 8.37131 2.40801 8.12817 2.20545C8.12817 2.20545 8.76121 2.17497 9.07773 2.13144C9.39426 2.0879 9.97961 1.93117 9.97961 1.93117C9.97961 1.93117 9.95793 2.45362 9.9536 2.75838C9.94926 3.06314 10.3395 2.99783 10.4696 2.95429C10.5996 2.91076 10.6604 2.29688 10.6864 1.77879C10.708 1.38695 10.4175 1.38259 10.2528 1.45225C9.85878 1.63956 9.45494 1.80524 9.04305 1.94858C8.61515 2.03855 8.17478 2.05182 7.74228 1.98776L7.69892 2.15321L8.35797 2.55811L8.15852 2.70178ZM9.2425 5.18777L9.42461 5.1094C9.34284 4.8659 9.29328 4.61266 9.2772 4.3562C9.29562 3.97186 9.34053 3.58927 9.41161 3.21117H9.2425C9.2425 3.21117 9.16879 3.79021 9.06907 4.29525C8.96934 4.80028 8.70484 4.7045 8.57477 4.69579C8.44469 4.68708 7.41709 4.53471 7.41709 4.53471V4.68709L8.00244 4.77416C8.43154 4.86936 8.84782 5.01551 9.2425 5.20953V5.18777ZM9.88422 7.44301C9.53412 7.60801 9.14079 7.6568 8.76122 7.58232C9.01555 7.7617 9.31765 7.86028 9.6284 7.86532C9.74112 7.86318 9.85208 7.83682 9.9538 7.788C10.0555 7.73919 10.1456 7.66905 10.2181 7.58232C10.3479 7.41437 10.4288 7.21353 10.4518 7.00216C10.4748 6.79079 10.4389 6.57717 10.3482 6.38505C10.3482 6.38505 10.3091 7.17743 9.89289 7.44301H9.88422ZM8.91297 19.7772C7.93739 18.8019 8.29293 18.9064 8.91297 18.0357C9.37257 17.3913 11.6099 16.821 12.7372 16.5684V16.464C12.1649 16.4901 11.3064 16.5206 10.4479 16.5206C8.97367 16.5206 8.37966 15.9546 7.9981 16.0242C6.53256 16.3029 7.5645 17.9878 5.85616 17.7657C4.14781 17.5437 4.17382 19.2547 4.17382 19.2547C4.65944 18.2621 5.1624 18.384 5.55264 18.384C5.94287 18.384 6.4415 18.6974 7.07021 18.1663C7.20895 18.0487 7.83767 17.0299 7.74662 17.5393C7.6482 17.8676 7.47103 18.1666 7.23065 18.4101C7.08756 18.5799 7.00083 18.7061 7.30001 18.8759L7.7336 19.1197C8.43168 19.5203 8.31462 19.9905 7.85934 19.9557C7.53849 19.9557 7.15693 19.7772 6.83608 19.7467C6.706 19.7467 6.55858 19.7859 6.7667 19.886C6.89008 19.9436 7.00293 20.0216 7.10056 20.1168C7.6122 20.6305 7.00084 20.4259 8.46204 20.3475C8.69351 20.3393 8.924 20.3131 9.15145 20.2691C9.73246 20.1429 9.04739 19.8729 8.92165 19.7423L8.91297 19.7772ZM16.4358 20.6131C16.3161 20.396 16.2089 20.1721 16.1149 19.9426C15.8808 19.4506 16.1149 19.5464 15.9675 19.2634C15.8201 18.9804 15.7247 19.2634 15.3171 18.6321C15.2391 18.5102 15.0786 18.5625 15.057 18.8629C15.0353 19.1633 15.5339 19.4419 15.7637 20.169C15.9935 20.8961 16.1973 20.9788 15.9935 21.4229C15.7897 21.867 14.9052 21.8582 14.9052 21.8582C15.612 22.594 17.0471 21.5883 16.4358 20.6348" fill="#F1F3F5"/>
<path d="M32.3917 -0.000363523L23.7451 23.8926L24.0385 23.9996L32.6851 0.106695L32.3917 -0.000363523Z" fill="#F1F3F5"/>
</g>
<defs>
<clipPath id="clip0_3622_20398">
<rect width="72" height="24" fill="white" transform="translate(0.0654297)"/>
</clipPath>
</defs>
</svg>
