<svg width="185" height="65" viewBox="0 0 185 65" fill="none" xmlns="http://www.w3.org/2000/svg">
<mask id="mask0_3622_23698" style="mask-type:luminance" maskUnits="userSpaceOnUse" x="0" y="0" width="184" height="65">
<path d="M183.574 0H0V64.4222H183.574V0Z" fill="white"/>
</mask>
<g mask="url(#mask0_3622_23698)">
<path d="M64.4387 29.8992C64.1787 28.397 61.7954 26.7792 58.3287 25.4648C61.5209 23.9048 62.6765 23.4859 62.6765 23.4859L62.4743 22.8937C62.4743 22.8937 61.4198 22.8648 56.0031 24.6992C53.8365 24.0637 51.4098 23.5437 48.8676 23.2115C44.4765 22.6481 40.432 22.5181 37.6443 22.5181V9.48926C37.6443 9.48926 35.9109 10.2115 35.2609 10.5148C34.4231 10.9048 34.5387 11.7281 34.5387 11.7281V22.547C34.0909 22.5615 33.8454 22.5759 33.8454 22.5759C33.802 22.5759 33.7443 22.5759 33.7009 22.5759V14.9203C33.7009 14.9203 31.9676 15.6426 31.3176 15.9459C30.4798 16.3359 30.5954 17.1592 30.5954 17.1592V22.7348C20.1231 23.4715 14.8942 26.0715 13.1031 27.0392C11.1676 28.0792 8.19203 30.7659 12.5398 33.7559C16.1943 36.2692 22.9398 37.4826 25.0198 37.7715C20.542 40.097 17.9276 41.6859 17.9276 41.6859L18.2454 42.3359C18.2454 42.3359 27.8654 38.5803 38.612 38.5659C38.6842 38.5659 38.742 38.5659 38.8143 38.5659C43.3354 38.5659 48.2176 37.9737 51.9298 37.2659C61.362 35.4892 64.8865 32.557 64.4242 29.8848L64.4387 29.8992ZM27.3743 36.4715C27.3743 36.4715 19.8054 35.6481 16.0931 33.2215C12.3809 30.7948 14.8942 28.5848 16.5842 27.8048C17.7976 27.2415 20.9754 25.6959 26.6376 24.7715V34.6515C26.6376 35.5759 27.172 35.7926 27.7787 35.5326C28.3131 35.3015 28.8909 35.0559 29.1942 34.9403C29.8442 34.6803 29.7431 34.0448 29.7431 34.0448V24.367C30.0609 24.3381 30.2631 24.2948 30.6098 24.2659V34.2037C30.6098 34.2037 32.502 33.3803 33.1665 33.1203C33.8165 32.8603 33.7154 32.2248 33.7154 32.2248V24.0926C33.932 24.0926 34.1487 24.0781 34.3654 24.0637C34.3654 24.0637 34.4376 24.0637 34.5387 24.0637V32.4415C34.5387 32.4415 36.4309 31.6181 37.0954 31.3581C37.7454 31.0981 37.6443 30.4626 37.6443 30.4626V24.0203C40.0276 24.0203 43.4654 24.1359 47.192 24.5837C49.272 24.8437 51.2798 25.2337 53.0709 25.7392C50.8031 26.5481 48.0154 27.5881 44.592 28.9315C37.9187 31.5315 32.0831 34.2615 27.5765 36.5148C27.4465 36.5148 27.3743 36.5003 27.3743 36.5003V36.4715ZM49.792 36.1537C47.4087 36.5726 44.4765 36.7748 41.5298 36.8615C41.8331 36.5003 45.632 32.0081 52.7965 28.267C53.9665 27.6603 54.992 27.1259 55.9309 26.6637C58.5309 27.6748 60.2787 28.8737 60.4954 30.0148C60.8854 32.1815 57.852 34.7237 49.792 36.1681V36.1537Z" fill="white"/>
<path d="M13.3359 54.7295V45.2539H15.156L18.5649 51.2339L21.9449 45.2539H23.7649V54.7295H21.9449V48.6917L19.1571 53.6606H17.9437L15.156 48.7061V54.7295H13.3359Z" fill="white"/>
<path d="M31.6529 52.2451C32.3751 52.2451 32.9673 52.0284 33.444 51.6095C33.9351 51.1762 34.1807 50.6273 34.1807 49.9918C34.1807 49.3562 33.9351 48.8073 33.4584 48.3884C32.9818 47.9551 32.3751 47.7384 31.6529 47.7384V52.2306V52.2451ZM29.8184 47.7529C29.0962 47.7529 28.4895 47.9695 28.0129 48.4029C27.5362 48.8218 27.2907 49.3706 27.2907 50.0062C27.2907 50.6418 27.5362 51.1906 28.0129 51.624C28.504 52.0429 29.0962 52.2595 29.8184 52.2595V47.7673V47.7529ZM29.8184 45.0518H31.6529V46.0051C32.9095 46.0051 33.9495 46.3951 34.8018 47.1751C35.654 47.9262 36.0729 48.8795 36.0729 50.0062C36.0729 51.1329 35.654 52.0718 34.8018 52.8518C33.964 53.6173 32.924 53.9929 31.6529 54.0073V54.9606H29.8184V54.0073C28.5618 54.0073 27.5218 53.6173 26.6551 52.8518C25.8173 52.0718 25.3984 51.1329 25.3984 50.0062C25.3984 48.8795 25.8173 47.9262 26.6551 47.1751C27.5073 46.3951 28.5473 46.0195 29.8184 46.0051V45.0518Z" fill="white"/>
<path d="M48.0321 52.2601C48.6099 51.6534 48.9132 50.8879 48.9132 49.9779C48.9132 49.0679 48.6099 48.3168 48.0321 47.6957C47.4543 47.089 46.7321 46.7712 45.8654 46.7712C44.9987 46.7712 44.2476 47.089 43.6699 47.6957C43.0921 48.3023 42.8032 49.0679 42.8032 49.9779C42.8032 50.8879 43.0921 51.639 43.6699 52.2601C44.2476 52.8668 44.9843 53.1701 45.8654 53.1701C46.7465 53.1701 47.4543 52.8668 48.0321 52.2601ZM37.7188 45.2401H39.5388V49.0823H40.9832C41.1854 47.8979 41.7343 46.9301 42.6299 46.1645C43.5399 45.399 44.6087 45.0234 45.8654 45.0234C47.281 45.0234 48.451 45.5001 49.3899 46.4534C50.3432 47.3923 50.8054 48.5623 50.8054 49.9779C50.8054 51.3934 50.3287 52.5634 49.3899 53.5168C48.451 54.4557 47.281 54.9323 45.8654 54.9323C44.5943 54.9323 43.4965 54.5423 42.5865 53.7623C41.6765 52.9968 41.1421 51.9857 40.9543 50.7723H39.5388V54.7301H37.7188V45.2401Z" fill="white"/>
<path d="M56.3088 47.8404L54.8644 51.2782H57.7533L56.3233 47.8404H56.3088ZM51.4988 54.7449L55.5577 45.2549H57.031L61.0899 54.7449H59.1833L58.4322 52.9538H54.1422L53.391 54.7449H51.4844H51.4988Z" fill="white"/>
<path d="M97.6053 14.9337C98.0531 15.4104 98.6309 15.6415 99.2953 15.6415C99.9598 15.6415 100.538 15.4104 100.985 14.9337C101.433 14.457 101.664 13.8793 101.664 13.1715C101.664 12.4638 101.433 11.886 100.985 11.4093C100.538 10.9326 99.9742 10.6871 99.2953 10.6871C98.6165 10.6871 98.0531 10.9326 97.6053 11.4093C97.1576 11.886 96.9265 12.4638 96.9265 13.1715C96.9265 13.8793 97.1431 14.457 97.6053 14.9337ZM102.04 10.4415C102.776 11.1638 103.138 12.0882 103.138 13.1715C103.138 14.2549 102.776 15.1793 102.04 15.9159C101.318 16.6382 100.408 17.0137 99.2953 17.0137C98.1831 17.0137 97.2876 16.6526 96.5509 15.9159C95.8287 15.1793 95.4531 14.2693 95.4531 13.1715C95.4531 12.0738 95.8142 11.1638 96.5509 10.4415C97.2876 9.70486 98.1976 9.34375 99.2953 9.34375C100.393 9.34375 101.318 9.70486 102.04 10.4415Z" fill="white"/>
<path d="M110.111 9.89382C110.718 10.2549 111.18 10.7605 111.483 11.396L110.111 11.916C109.706 11.1649 108.941 10.6883 108.045 10.6883C107.366 10.6883 106.803 10.9338 106.355 11.4105C105.908 11.8872 105.676 12.4649 105.676 13.1727C105.676 13.8805 105.893 14.4583 106.355 14.935C106.803 15.4116 107.381 15.6427 108.045 15.6427C108.941 15.6427 109.706 15.1805 110.111 14.4294L111.483 14.9494C111.18 15.585 110.718 16.0905 110.111 16.4661C109.504 16.8272 108.825 17.0294 108.045 17.0294C106.948 17.0294 106.038 16.6683 105.301 15.9316C104.579 15.195 104.203 14.2849 104.203 13.1872C104.203 12.0894 104.564 11.1794 105.301 10.4572C106.038 9.72049 106.948 9.35938 108.045 9.35938C108.811 9.35938 109.49 9.54715 110.111 9.92271" fill="white"/>
<path d="M121.473 14.9337C121.92 15.4104 122.498 15.6415 123.163 15.6415C123.827 15.6415 124.405 15.4104 124.853 14.9337C125.3 14.457 125.531 13.8793 125.531 13.1715C125.531 12.4638 125.3 11.886 124.853 11.4093C124.405 10.9326 123.841 10.6871 123.163 10.6871C122.484 10.6871 121.92 10.9326 121.473 11.4093C121.025 11.886 120.794 12.4638 120.794 13.1715C120.794 13.8793 121.01 14.457 121.473 14.9337ZM125.907 10.4415C126.644 11.1638 127.005 12.0882 127.005 13.1715C127.005 14.2549 126.644 15.1793 125.907 15.9159C125.185 16.6382 124.275 17.0137 123.163 17.0137C122.05 17.0137 121.155 16.6526 120.418 15.9159C119.696 15.1793 119.32 14.2693 119.32 13.1715C119.32 12.0738 119.681 11.1638 120.418 10.4415C121.155 9.70486 122.065 9.34375 123.163 9.34375C124.26 9.34375 125.185 9.70486 125.907 10.4415Z" fill="white"/>
<path d="M129.706 13.707V15.5415H132.075C132.595 15.5415 132.97 15.137 132.97 14.6315C132.97 14.1259 132.58 13.7215 132.075 13.7215H129.706V13.707ZM129.706 10.7893V12.4215H131.858C132.32 12.4215 132.667 12.0748 132.667 11.5981C132.667 11.1215 132.32 10.7893 131.858 10.7893H129.706ZM128.305 16.8415V9.48926H131.872C132.522 9.48926 133.057 9.67704 133.49 10.067C133.924 10.4426 134.14 10.9193 134.14 11.497C134.14 12.0748 133.895 12.5948 133.418 12.9848C134.097 13.3893 134.444 13.9815 134.444 14.747C134.444 15.3392 134.212 15.8448 133.765 16.2492C133.317 16.6537 132.739 16.8415 132.075 16.8415H128.305Z" fill="white"/>
<path d="M141.283 9.89382C141.889 10.2549 142.352 10.7605 142.655 11.396L141.283 11.916C140.878 11.1649 140.113 10.6883 139.217 10.6883C138.553 10.6883 137.975 10.9338 137.527 11.4105C137.079 11.8872 136.863 12.4649 136.863 13.1727C136.863 13.8805 137.079 14.4583 137.527 14.935C137.975 15.4116 138.553 15.6427 139.217 15.6427C140.113 15.6427 140.878 15.1805 141.283 14.4294L142.655 14.9494C142.352 15.585 141.889 16.0905 141.283 16.4661C140.676 16.8272 139.997 17.0294 139.217 17.0294C138.119 17.0294 137.209 16.6683 136.473 15.9316C135.751 15.195 135.375 14.2849 135.375 13.1872C135.375 12.0894 135.736 11.1794 136.473 10.4572C137.209 9.72049 138.119 9.35938 139.217 9.35938C139.983 9.35938 140.662 9.54715 141.283 9.92271" fill="white"/>
<path d="M161.492 7.16406C161.492 7.58295 161.839 7.90073 162.301 7.90073C162.763 7.90073 163.096 7.58295 163.096 7.16406H164.208C164.208 7.68406 164.034 8.10295 163.659 8.44962C163.298 8.79628 162.836 8.96962 162.301 8.96962C161.767 8.96962 161.276 8.79628 160.914 8.44962C160.553 8.10295 160.366 7.66962 160.366 7.16406H161.478H161.492ZM160.308 16.8419H159.008V9.48962H160.409V14.4875L164.179 9.48962H165.479V16.8419H164.063V11.8874L160.308 16.8419Z" fill="white"/>
<path d="M90.7451 27.516C91.3085 27.516 91.7707 27.3427 92.1318 27.0249C92.5074 26.6927 92.6951 26.2738 92.6951 25.7682C92.6951 25.2626 92.5074 24.8582 92.1318 24.526C91.7707 24.1938 91.294 24.0204 90.7307 24.0204V27.5015L90.7451 27.516ZM89.3296 24.0349C88.7662 24.0349 88.304 24.2082 87.9285 24.5404C87.5674 24.8727 87.3651 25.2915 87.3651 25.7826C87.3651 26.2738 87.5529 26.6927 87.9285 27.0393C88.304 27.3715 88.7662 27.5304 89.3296 27.5304V24.0493V24.0349ZM89.3296 21.9404H90.7451V22.6771C91.7274 22.6771 92.5363 22.9804 93.1863 23.5727C93.8507 24.1649 94.1685 24.9015 94.1685 25.7682C94.1685 26.6349 93.8363 27.3715 93.1863 27.9782C92.5363 28.5704 91.7274 28.8593 90.7451 28.8738V29.6104H89.3296V28.8738C88.3474 28.8738 87.5385 28.5704 86.8885 27.9782C86.2385 27.386 85.9062 26.6493 85.9062 25.7682C85.9062 24.8871 86.2385 24.1649 86.8885 23.5727C87.5529 22.9804 88.3618 22.6771 89.3296 22.6771V21.9404Z" fill="white"/>
<path d="M132.822 22.5042C133.429 22.8653 133.891 23.3708 134.194 24.0064L132.822 24.5264C132.417 23.7753 131.652 23.2986 130.756 23.2986C130.077 23.2986 129.514 23.5442 129.066 24.0208C128.619 24.4975 128.402 25.0753 128.402 25.7831C128.402 26.4908 128.619 27.0686 129.066 27.5453C129.514 28.0219 130.092 28.2531 130.756 28.2531C131.652 28.2531 132.417 27.7908 132.822 27.0397L134.194 27.5597C133.891 28.1953 133.429 28.7008 132.822 29.0764C132.215 29.4375 131.536 29.6397 130.756 29.6397C129.659 29.6397 128.749 29.2786 128.012 28.5419C127.29 27.8053 126.914 26.8953 126.914 25.7975C126.914 24.6997 127.275 23.7897 128.012 23.0675C128.749 22.3308 129.659 21.9697 130.756 21.9697C131.522 21.9697 132.201 22.1575 132.822 22.5331" fill="white"/>
<path d="M137.269 27.5304C137.717 28.0071 138.295 28.2382 138.959 28.2382C139.624 28.2382 140.202 28.0071 140.649 27.5304C141.097 27.0538 141.328 26.4615 141.328 25.7682C141.328 25.0749 141.097 24.4827 140.649 24.006C140.202 23.5293 139.638 23.2838 138.959 23.2838C138.281 23.2838 137.717 23.5293 137.269 24.006C136.822 24.4827 136.591 25.0604 136.591 25.7682C136.591 26.476 136.807 27.0538 137.269 27.5304ZM141.704 23.0382C142.441 23.7604 142.802 24.6704 142.802 25.7682C142.802 26.866 142.441 27.776 141.704 28.5127C140.982 29.2349 140.072 29.6104 138.959 29.6104C137.847 29.6104 136.952 29.2493 136.215 28.5127C135.493 27.776 135.117 26.866 135.117 25.7682C135.117 24.6704 135.478 23.7604 136.215 23.0382C136.952 22.3015 137.862 21.9404 138.959 21.9404C140.057 21.9404 140.982 22.3015 141.704 23.0382Z" fill="white"/>
<path d="M145.495 26.3174V28.1518H147.864C148.384 28.1518 148.759 27.7474 148.759 27.2418C148.759 26.7363 148.369 26.3318 147.864 26.3318H145.495V26.3174ZM145.495 23.3996V25.0318H147.647C148.109 25.0318 148.456 24.6852 148.456 24.2085C148.456 23.7318 148.109 23.3996 147.647 23.3996H145.495ZM144.094 29.4518V22.0996H147.662C148.312 22.0996 148.846 22.2874 149.279 22.6774C149.713 23.0529 149.929 23.5296 149.929 24.1074C149.929 24.6852 149.684 25.2052 149.207 25.5952C149.886 25.9996 150.233 26.5918 150.233 27.3574C150.233 27.9496 150.002 28.4552 149.554 28.8596C149.106 29.2641 148.528 29.4518 147.864 29.4518H144.094Z" fill="white"/>
<path d="M153.324 27.5304C153.772 28.0071 154.35 28.2382 155.014 28.2382C155.679 28.2382 156.256 28.0071 156.704 27.5304C157.152 27.0538 157.383 26.4615 157.383 25.7682C157.383 25.0749 157.152 24.4827 156.704 24.006C156.256 23.5293 155.693 23.2838 155.014 23.2838C154.335 23.2838 153.772 23.5293 153.324 24.006C152.876 24.4827 152.645 25.0604 152.645 25.7682C152.645 26.476 152.862 27.0538 153.324 27.5304ZM157.759 23.0382C158.495 23.7604 158.856 24.6704 158.856 25.7682C158.856 26.866 158.495 27.776 157.759 28.5127C157.036 29.2349 156.126 29.6104 155.014 29.6104C153.902 29.6104 153.006 29.2493 152.27 28.5127C151.547 27.776 151.172 26.866 151.172 25.7682C151.172 24.6704 151.533 23.7604 152.27 23.0382C153.006 22.3015 153.916 21.9404 155.014 21.9404C156.112 21.9404 157.036 22.3015 157.759 23.0382Z" fill="white"/>
<path d="M94.096 40.1408C94.5438 39.6641 94.7749 39.0719 94.7749 38.3786C94.7749 37.6852 94.5438 37.093 94.096 36.6163C93.6482 36.1397 93.0849 35.8941 92.4204 35.8941C91.756 35.8941 91.1638 36.1397 90.716 36.6163C90.2682 37.093 90.0371 37.6708 90.0371 38.3786C90.0371 39.0863 90.2538 39.6641 90.716 40.1408C91.1638 40.6174 91.7415 40.8486 92.4204 40.8486C93.0993 40.8486 93.6482 40.6174 94.096 40.1408ZM86.0938 34.6952H87.4949V37.6852H88.6215C88.7804 36.7752 89.1993 36.0097 89.8926 35.4319C90.6004 34.8397 91.4238 34.5508 92.406 34.5508C93.5038 34.5508 94.4138 34.9119 95.136 35.6486C95.8726 36.3708 96.2338 37.2952 96.2338 38.3786C96.2338 39.4619 95.8726 40.3863 95.136 41.123C94.3993 41.8597 93.4893 42.2208 92.406 42.2208C91.4238 42.2208 90.5715 41.9174 89.8638 41.3108C89.156 40.7186 88.7371 39.9386 88.6071 38.9852H87.5093V42.0474H86.1082V34.6952H86.0938Z" fill="white"/>
<path d="M98.9324 35.9953V38.1475H100.825C101.446 38.1475 101.893 37.6853 101.893 37.0642C101.893 36.4431 101.446 35.9953 100.825 35.9953H98.9324ZM98.9324 42.0475H97.5312V34.6953H100.825C101.547 34.6953 102.153 34.9264 102.63 35.3742C103.121 35.822 103.367 36.3998 103.367 37.0642C103.367 37.7286 103.121 38.3209 102.63 38.7686C102.153 39.2164 101.547 39.4475 100.825 39.4475H98.9324V42.0475Z" fill="white"/>
<path d="M117.858 40.7475V35.9953H115.2V38.2486C115.2 39.3031 115.041 40.1264 114.738 40.7475H117.858ZM113.611 43.8386H112.195V40.7475H113.048C113.524 40.5598 113.77 39.7364 113.77 38.3064V34.6953H119.259V40.7475H120.4V43.8386H118.984V42.0475H113.596V43.8386H113.611Z" fill="white"/>
<path d="M129.195 36.9342V34.6953H130.596V36.9342C130.596 37.7142 131.174 38.1042 132.344 38.1042C132.864 38.1042 133.384 38.0464 133.89 37.9164V34.6953H135.305V42.0475H133.89V39.2164C133.384 39.332 132.879 39.3898 132.373 39.3898C130.394 39.3898 129.195 38.4798 129.195 36.9198" fill="white"/>
<path d="M148.97 35.0999C149.577 35.461 150.039 35.9665 150.343 36.6021L148.97 37.1221C148.566 36.371 147.8 35.8943 146.905 35.8943C146.226 35.8943 145.662 36.1399 145.215 36.6165C144.767 37.0932 144.536 37.671 144.536 38.3788C144.536 39.0865 144.752 39.6643 145.215 40.141C145.662 40.6177 146.24 40.8488 146.905 40.8488C147.8 40.8488 148.566 40.3865 148.97 39.6354L150.343 40.1554C150.039 40.791 149.577 41.2965 148.97 41.6721C148.364 42.0332 147.67 42.2354 146.905 42.2354C145.807 42.2354 144.897 41.8743 144.16 41.1377C143.438 40.401 143.062 39.491 143.062 38.3932C143.062 37.2954 143.424 36.3854 144.16 35.6632C144.897 34.9265 145.807 34.5654 146.905 34.5654C147.67 34.5654 148.349 34.7532 148.97 35.1288" fill="white"/>
<path d="M169.156 32.3691C169.156 32.788 169.503 33.1058 169.965 33.1058C170.427 33.1058 170.76 32.788 170.76 32.3691H171.872C171.872 32.8891 171.699 33.308 171.323 33.6547C170.962 34.0014 170.5 34.1747 169.965 34.1747C169.431 34.1747 168.94 34.0014 168.579 33.6547C168.217 33.308 168.03 32.8747 168.03 32.3691H169.142H169.156ZM167.972 42.0469H166.672V34.6947H168.073V39.678L171.843 34.6947H173.143V42.0469H171.727V37.0925L167.972 42.0469Z" fill="white"/>
<path d="M85.5848 47.3047H87.1448L89.3403 51.2769L91.2181 47.3047H92.7203L90.2359 52.5191C89.5281 53.978 88.6759 54.6569 87.4625 54.6569H86.7548V53.3569H87.347C87.8381 53.3569 88.257 53.1258 88.5748 52.678L85.5703 47.3047H85.5848Z" fill="white"/>
<path d="M110.979 51.5225V53.3569H113.348C113.868 53.3569 114.258 52.9525 114.258 52.4469C114.258 51.9414 113.868 51.5369 113.348 51.5369H110.979V51.5225ZM110.979 48.6047V50.2369H113.131C113.594 50.2369 113.94 49.8902 113.94 49.4136C113.94 48.9369 113.594 48.6047 113.131 48.6047H110.979ZM109.578 54.6569V47.3047H113.146C113.796 47.3047 114.33 47.4925 114.764 47.8825C115.197 48.258 115.414 48.7347 115.414 49.3125C115.414 49.8902 115.168 50.4102 114.691 50.8002C115.37 51.2047 115.717 51.7969 115.717 52.5625C115.717 53.1547 115.486 53.6602 115.038 54.0647C114.59 54.4691 114.013 54.6569 113.348 54.6569H109.578Z" fill="white"/>
<path d="M125.095 48.6047V50.7569H126.987C127.609 50.7569 128.056 50.2947 128.056 49.6736C128.056 49.0525 127.609 48.6047 126.987 48.6047H125.095ZM125.095 54.6569H123.68V47.3047H126.973C127.695 47.3047 128.302 47.5358 128.779 47.9836C129.27 48.4314 129.515 49.0091 129.515 49.6736C129.515 50.338 129.27 50.9302 128.779 51.378C128.302 51.8258 127.695 52.0569 126.973 52.0569H125.081V54.6569H125.095Z" fill="white"/>
<path d="M136.291 47.709C136.897 48.0702 137.359 48.5757 137.663 49.2113L136.291 49.7313C135.886 48.9802 135.121 48.5035 134.225 48.5035C133.546 48.5035 132.983 48.749 132.535 49.2113C132.087 49.6879 131.856 50.2802 131.856 50.9735C131.856 51.6668 132.073 52.259 132.535 52.7357C132.997 53.2124 133.561 53.4435 134.225 53.4435C135.121 53.4435 135.886 52.9813 136.291 52.2302L137.663 52.7502C137.359 53.3857 136.897 53.8913 136.291 54.2668C135.684 54.6279 135.005 54.8302 134.225 54.8302C133.127 54.8302 132.217 54.469 131.481 53.7324C130.758 52.9957 130.383 52.0857 130.383 50.9879C130.383 49.8902 130.744 48.9802 131.481 48.2579C132.217 47.5213 133.127 47.1602 134.225 47.1602C134.991 47.1602 135.669 47.3479 136.291 47.7235" fill="white"/>
<path d="M86.1016 16.8415V9.48926H87.5027L90.146 14.1259L92.7749 9.48926H94.176V16.8415H92.7749V12.1615L90.6082 16.0037H89.6693L87.5027 12.1615V16.8415H86.1016Z" fill="white"/>
<path d="M112.711 9.48926H114.126V12.7681L116.9 9.48926H118.691L115.643 13.0859L118.893 16.8415H117.102L114.126 13.3893V16.8415H112.711V9.48926Z" fill="white"/>
<path d="M143.891 9.48926H145.292V12.7681L148.065 9.48926H149.856L146.823 13.0859L150.058 16.8415H148.282L145.292 13.3893V16.8415H143.891V9.48926Z" fill="white"/>
<path d="M151.031 16.8415V9.48926H152.447V14.4726L156.217 9.48926H157.517V16.8415H156.101V11.887L152.331 16.8415H151.031Z" fill="white"/>
<path d="M95.4531 29.4526V22.0859H96.8542V27.0837L100.639 22.0859H101.939V29.4526H100.523V24.4837L96.7531 29.4526H95.4531Z" fill="white"/>
<path d="M103.398 29.4526V22.0859H104.814V25.0759H108.411V22.0859H109.826V29.4526H108.411V26.3759H104.814V29.4526H103.398Z" fill="white"/>
<path d="M114.529 24.0937L113.402 26.7659H115.641L114.529 24.0937ZM110.802 29.4382L113.951 22.0859H115.092L118.241 29.4382H116.753L116.176 28.0515H112.839L112.261 29.4382H110.773H110.802Z" fill="white"/>
<path d="M119.227 29.4526V22.0859H120.628V25.0759H124.239V22.0859H125.654V29.4526H124.239V26.3759H120.628V29.4526H119.227Z" fill="white"/>
<path d="M163.117 25.1621H160.156V26.361H163.117V25.1621Z" fill="white"/>
<path d="M104.633 42.0475V34.6953H106.048V39.6786L109.818 34.6953H111.118V42.0475H109.703V37.0931L105.933 42.0475H104.633Z" fill="white"/>
<path d="M121.5 42.0475V34.6953H122.901V39.6786L126.671 34.6953H127.971V42.0475H126.556V37.0931L122.8 42.0475H121.5Z" fill="white"/>
<path d="M142.205 34.6953V35.9953H138.189V37.6853H141.627V38.9853H138.189V40.7475H142.248V42.0475H136.773V34.6953H142.205Z" fill="white"/>
<path d="M151.57 34.6953H152.986V37.9742L155.759 34.6953H157.536L154.503 38.292L157.753 42.0475H155.961L152.986 38.5953V42.0475H151.57V34.6953Z" fill="white"/>
<path d="M158.711 42.0475V34.6953H160.112V39.6786L163.882 34.6953H165.182V42.0475H163.766V37.0931L160.011 42.0475H158.711Z" fill="white"/>
<path d="M93.6953 54.6569V47.3047H95.1109V50.2802H98.722V47.3047H100.138V54.6569H98.722V51.5802H95.1109V54.6569H93.6953Z" fill="white"/>
<path d="M101.609 54.6569V47.3047H103.01V52.288L106.795 47.3047H108.095V54.6569H106.679V49.688L102.909 54.6569H101.609Z" fill="white"/>
<path d="M122.415 47.3047V48.6047H118.4V50.2802H121.838V51.5802H118.4V53.3569H122.459V54.6569H116.984V47.3047H122.415Z" fill="white"/>
<path d="M138.898 54.6569V47.3047H140.3V52.288L144.07 47.3047H145.37V54.6569H143.954V49.688L140.198 54.6569H138.898Z" fill="white"/>
<path d="M146.492 48.6047V47.3047H152.79V48.6047H150.349V54.6569H148.933V48.6047H146.492Z" fill="white"/>
<path d="M159.337 47.3047V48.6047H155.322V50.2802H158.76V51.5802H155.322V53.3569H159.381V54.6569H153.906V47.3047H159.337Z" fill="white"/>
<path d="M160.258 48.6047V47.3047H166.541V48.6047H164.114V54.6569H162.684V48.6047H160.258Z" fill="white"/>
<path d="M75.6948 9.47461H74.8281V54.9169H75.6948V9.47461Z" fill="white"/>
</g>
</svg>
