<svg width="151" height="36" viewBox="0 0 151 36" fill="none" xmlns="http://www.w3.org/2000/svg">
<g id="Frame 1321317112" clip-path="url(#clip0_1614_6575)">
<g id="Group 2023">
<path id="Vector" d="M0 29.3991C0 32.69 2.08524 34.7364 5.48747 34.7364H8.74076C9.6607 34.6967 10.5789 34.8511 11.4426 35.1909C12.3064 35.5306 13.0985 36.0489 13.7736 36.716L14.0479 37L14.3223 36.716C14.9905 36.0531 15.7747 35.537 16.6302 35.1974C17.4857 34.8577 18.3957 34.7011 19.3081 34.7364H22.5692C25.9166 34.7364 27.994 32.69 27.994 29.3991V1H0V29.3991ZM0.587944 1.65151H27.406V29.3991C27.406 32.3476 25.5951 34.11 22.5692 34.11H19.3081C17.3627 34.028 15.4633 34.7526 14.0087 36.1313C12.5488 34.7566 10.6486 34.0328 8.70156 34.11H5.44828C2.40665 34.11 0.587944 32.3476 0.587944 29.3991V1.65151Z" fill="#F1F3F5"/>
<path id="Vector_2" d="M4.5456 19.2163C4.67732 19.3243 4.81617 19.422 4.96108 19.5087C5.09434 19.5922 5.10218 19.6005 5.03947 19.7509L4.98459 19.8428C4.76966 20.2423 4.63934 20.687 4.60277 21.1459C4.56621 21.6047 4.62429 22.0665 4.77294 22.4989C4.82781 22.666 4.89836 22.833 4.97675 23.0418C5.05514 22.6493 5.11786 22.3152 5.18842 21.9894C5.22205 21.7686 5.29697 21.5572 5.40874 21.3678C5.52051 21.1784 5.66685 21.0148 5.83907 20.8868C5.95665 20.7994 6.06922 20.7046 6.17616 20.6029C6.20826 20.5799 6.2424 20.5603 6.27807 20.5444C6.4012 20.6999 6.47525 20.8928 6.48973 21.0957C6.53158 21.511 6.45509 21.9301 6.27023 22.2984C6.13696 22.5657 6.0037 22.833 5.89395 23.1337C5.77038 23.4012 5.72167 23.701 5.75364 23.9972C5.78561 24.2934 5.89691 24.5736 6.07425 24.8042C6.19968 24.9797 6.34078 25.13 6.48973 25.3138L6.31726 25.5393C6.26545 25.5981 6.23662 25.6758 6.23662 25.7565C6.23662 25.8371 6.26545 25.9148 6.31726 25.9736C6.36517 26.0389 6.41758 26.1004 6.47405 26.1574C6.55869 26.253 6.6276 26.3631 6.67787 26.4831C6.80548 26.7988 6.84099 27.148 6.77978 27.4855C6.7531 27.5505 6.74952 27.6236 6.76971 27.6912C6.7899 27.7589 6.83249 27.8163 6.88953 27.853C7.14143 28.0053 7.43462 28.0613 7.72049 28.0117C7.84592 28.0117 7.8616 27.9616 7.83808 27.8112C7.81917 27.6291 7.75413 27.4558 7.64994 27.31L7.24229 26.7421C7.14038 26.5919 7.08104 26.4137 7.07131 26.2286C7.06159 26.0435 7.10188 25.8594 7.18742 25.698C7.58488 25.9054 8.011 26.0436 8.44954 26.1073C8.45352 26.1489 8.45352 26.1909 8.44954 26.2326C8.42048 26.5101 8.42048 26.7903 8.44954 27.0678C8.47149 27.2828 8.54705 27.4875 8.66836 27.6608C8.78967 27.8342 8.95231 27.9697 9.1394 28.0534C9.53029 28.1719 9.94906 28.1239 10.3074 27.9198C10.5075 27.817 10.6698 27.6465 10.7691 27.4349C10.8684 27.2233 10.899 26.9826 10.8562 26.7504C10.8253 26.5813 10.7861 26.414 10.7386 26.2493C10.8327 26.1156 10.9738 26.149 11.1149 26.1323C11.1787 26.1232 11.2436 26.1382 11.298 26.1749C11.3525 26.2115 11.3931 26.2674 11.4128 26.3328C11.4755 26.4998 11.5304 26.6585 11.6009 26.8172C11.6203 26.8512 11.6306 26.8902 11.6306 26.93C11.6306 26.9698 11.6203 27.0088 11.6009 27.0428C11.4833 27.2683 11.3893 27.5105 11.2717 27.736C11.241 27.7907 11.2297 27.8553 11.2398 27.9181C11.2498 27.9808 11.2806 28.0377 11.3265 28.0785C11.3971 28.1453 11.4755 28.1871 11.5382 28.2539C11.6009 28.3207 11.648 28.4711 11.4912 28.5045C11.3571 28.5379 11.2176 28.5379 11.0835 28.5045C10.9826 28.4697 10.873 28.4781 10.7779 28.528C10.6827 28.5779 10.6096 28.6653 10.574 28.7718C10.5603 28.8102 10.5383 28.8447 10.5097 28.8723C10.481 28.8999 10.4467 28.9198 10.4094 28.9305C10.3135 28.9522 10.2253 29.002 10.1546 29.0743C10.084 29.1466 10.0337 29.2386 10.0096 29.3397C10.0096 29.3397 10.0096 29.4149 10.0096 29.4734L10.2291 29.3648C10.6644 29.1954 11.1385 29.1749 11.5852 29.3063C12.0532 29.4211 12.4988 29.6218 12.9022 29.8994C12.9276 29.9089 12.9553 29.9089 12.9806 29.8994C13.0141 29.8013 13.0127 29.6936 12.9765 29.5966C12.9404 29.4996 12.8721 29.4201 12.7846 29.3732C12.7287 29.3419 12.6711 29.314 12.6122 29.2896C12.33 29.1894 12.0399 29.1059 11.7577 29.014C11.6793 29.014 11.5931 29.014 11.5774 28.8386C11.745 28.7969 11.9194 28.7969 12.087 28.8386C12.5181 28.9388 12.9493 29.0641 13.3804 29.1727C13.5137 29.1727 13.647 29.2646 13.7881 29.3147C13.7881 29.2562 13.7881 29.2228 13.7881 29.181C13.7757 28.9738 13.7223 28.7717 13.6313 28.588C13.5529 28.4544 13.4823 28.304 13.4039 28.1704C13.3593 28.0863 13.3358 27.9913 13.3358 27.8947C13.3358 27.7981 13.3593 27.7032 13.4039 27.6191C13.7629 27.636 14.1173 27.7121 14.4544 27.8446C14.8072 27.9449 15.1443 28.0785 15.5205 28.2038C15.5205 28.0284 15.5205 27.878 15.5205 27.736C15.5726 27.7065 15.6279 27.6841 15.6852 27.6692C15.8733 27.594 15.8733 27.594 16.0223 27.7694C16.4044 28.2239 16.9032 28.5491 17.4568 28.7049C17.585 28.7431 17.7206 28.7431 17.8488 28.7049C17.7626 28.6298 17.692 28.5797 17.6371 28.5212C17.5823 28.4627 17.496 28.3959 17.5039 28.2957C17.5117 28.1954 17.5039 28.2957 17.5587 28.2957L18.1859 28.5045C18.3583 28.5546 18.4054 28.5045 18.4759 28.3541C18.5457 28.1834 18.5727 27.9964 18.5543 27.8112C18.5504 27.7528 18.5504 27.6942 18.5543 27.6358C18.6867 27.6604 18.8108 27.7208 18.9149 27.8112C19.1971 27.9866 19.1971 27.9866 19.448 27.7444C19.4721 27.7145 19.4983 27.6866 19.5264 27.6609C19.9708 27.1288 20.2739 26.4801 20.4044 25.7815C20.4237 25.6785 20.4526 25.5777 20.4906 25.4808C20.6474 25.4808 20.7885 25.556 20.8983 25.4808C20.8983 25.3472 20.7023 25.3305 20.7415 25.1718C20.9531 25.1889 21.1655 25.1517 21.3608 25.0632C21.3361 25.0333 21.3069 25.0079 21.2746 24.988C20.997 24.8301 20.7663 24.5929 20.6082 24.3031L20.0987 23.3091C19.9654 23.0502 19.8792 23.0335 19.6675 23.1838C19.6675 23.1838 19.6675 23.1838 19.5891 23.1838C19.495 23.0168 19.3853 22.8247 19.2834 22.6326C19.2177 22.504 19.1801 22.3612 19.1736 22.2149C19.1692 22.0969 19.1309 21.9832 19.0639 21.8892C18.9933 21.7806 18.9306 21.7806 18.813 21.8892L18.6719 21.981C18.6719 21.814 18.6719 21.672 18.617 21.5049H18.3583C18.317 21.5101 18.2752 21.5026 18.2377 21.4834C18.2003 21.4641 18.1687 21.434 18.1467 21.3964C18.0683 21.2544 17.9821 21.1207 17.9115 20.9787C17.841 20.8367 17.9115 20.8033 18.0056 20.7783H18.0918C18.8154 20.7802 19.5286 20.5938 20.1692 20.2353C20.439 20.0175 20.7341 19.8378 21.0472 19.7008C21.1058 19.6744 21.1703 19.6667 21.2329 19.6786C21.2955 19.6904 21.3535 19.7213 21.4 19.7676L22.0271 20.4776C22.0773 20.5351 22.1141 20.6044 22.1345 20.6798C22.1549 20.7553 22.1584 20.8348 22.1447 20.9119C22.1368 20.9736 22.1434 21.0365 22.1639 21.0948C22.1844 21.1531 22.2183 21.2051 22.2623 21.246C22.3554 21.3657 22.4418 21.4913 22.521 21.6219C22.5669 21.6964 22.5952 21.7817 22.6034 21.8705C22.6116 21.9592 22.5994 22.0487 22.568 22.1314C22.5288 22.2483 22.5053 22.3569 22.4583 22.4655C22.4399 22.4978 22.4278 22.5336 22.4226 22.5709C22.4175 22.6082 22.4193 22.6463 22.428 22.6828C22.4368 22.7194 22.4523 22.7537 22.4736 22.7838C22.495 22.8139 22.5217 22.8391 22.5524 22.8581C22.7229 22.9961 22.9038 23.119 23.0933 23.2256C23.2344 23.3091 23.3128 23.2256 23.3363 23.0836C23.3768 22.7962 23.3272 22.5026 23.1952 22.2483C23.0094 21.9239 22.9117 21.5509 22.913 21.1708C22.9041 20.82 22.7661 20.487 22.5288 20.2437C22.3541 20.0339 22.1942 19.8106 22.0506 19.5755C21.9589 19.4175 21.8777 19.2528 21.8076 19.0827C21.6665 18.8321 21.5019 18.6233 21.1883 18.6567C21.0421 18.6652 20.8955 18.6652 20.7493 18.6567C20.7493 18.6567 20.6788 18.6567 20.6317 18.6567V18.6149C20.8748 18.5067 21.086 18.3307 21.2432 18.1054C21.4549 17.8548 21.6665 17.6126 21.886 17.3787C22.1055 17.1449 22.0271 17.2534 22.1447 17.3787C22.1825 17.4106 22.2167 17.4471 22.2466 17.4873C22.4112 17.6794 22.5759 17.8715 22.7483 18.0553C22.8031 18.1012 22.8457 18.1616 22.8718 18.2305C22.898 18.2993 22.9067 18.3743 22.8973 18.4479C22.8856 18.5219 22.901 18.5978 22.9404 18.66C22.9798 18.7222 23.0402 18.7659 23.1089 18.782C23.1672 18.8069 23.2166 18.8507 23.25 18.9073C23.2918 18.9556 23.3235 19.0128 23.3431 19.0751C23.3628 19.1374 23.3698 19.2034 23.3639 19.2688C23.358 19.3342 23.3392 19.3976 23.3088 19.4547C23.2784 19.5119 23.237 19.5616 23.1873 19.6005L23.1325 19.6674C23.0765 19.7229 23.0404 19.7974 23.0304 19.8782C23.0204 19.959 23.0371 20.0409 23.0776 20.11C23.1234 20.2185 23.1894 20.3159 23.2716 20.3963C23.3538 20.4767 23.4505 20.5384 23.5558 20.5778C23.7361 20.6446 23.8301 20.5778 23.8458 20.4024C23.8734 20.2366 23.8734 20.067 23.8458 19.9012C23.7445 19.5243 23.7048 19.1315 23.7282 18.7402C23.7385 18.6331 23.7247 18.525 23.6879 18.4247C23.6511 18.3245 23.5923 18.2351 23.5166 18.1639C23.2892 17.9133 23.0697 17.6544 22.8502 17.3871C22.6195 17.1414 22.4521 16.8364 22.3642 16.5017C22.3494 16.4436 22.3284 16.3876 22.3015 16.3346C22.287 16.2925 22.2634 16.2546 22.2325 16.224C22.2016 16.1935 22.1643 16.1712 22.1238 16.159C22.0832 16.1468 22.0405 16.1449 21.9992 16.1537C21.9579 16.1625 21.9191 16.1815 21.886 16.2094C21.7612 16.2991 21.6479 16.4058 21.5489 16.5268C21.3922 16.7361 21.1906 16.9023 20.961 17.0112C20.9371 17.03 20.9092 17.0422 20.8799 17.0468C20.8505 17.0514 20.8205 17.0481 20.7926 17.0374C20.7647 17.0266 20.7397 17.0087 20.7198 16.9852C20.7 16.9617 20.6859 16.9333 20.6788 16.9026C20.6435 16.8204 20.6198 16.7332 20.6082 16.6437C20.542 16.2233 20.3835 15.8255 20.1457 15.4827C20.0438 15.3323 19.9262 15.1987 19.8243 15.0483C19.6162 14.7986 19.4445 14.5171 19.3147 14.2131C19.1109 13.5866 18.8914 12.9769 18.6876 12.3504C18.6393 12.22 18.6 12.086 18.57 11.9495H18.9385C19.1972 11.9671 19.4465 12.0595 19.6597 12.2168C19.7616 12.3003 19.8556 12.4005 19.9654 12.4757C20.0475 12.5376 20.141 12.5803 20.2398 12.601C20.2703 12.6058 20.3014 12.6022 20.3303 12.5905C20.3591 12.5788 20.3846 12.5594 20.4044 12.5342C20.4044 12.5342 20.4044 12.4339 20.3574 12.3838C20.3562 12.3588 20.3562 12.3337 20.3574 12.3087C20.421 12.3238 20.4802 12.3554 20.5298 12.4005C20.549 12.4251 20.5729 12.4448 20.6 12.4584C20.6271 12.4719 20.6567 12.4789 20.6866 12.4789C20.7165 12.4789 20.7461 12.4719 20.7732 12.4584C20.8003 12.4448 20.8243 12.4251 20.8434 12.4005C20.8867 12.3279 20.911 12.2443 20.9139 12.1583C20.9139 12.0163 20.9139 11.8827 20.9139 11.7407C20.9143 11.6731 20.8959 11.6068 20.8611 11.5504C20.8262 11.4939 20.7764 11.4497 20.718 11.4233C20.6326 11.3733 20.5579 11.3051 20.4985 11.2228C20.2319 10.8386 19.9811 10.4377 19.7145 10.0451C19.6625 9.97336 19.6252 9.89086 19.6048 9.80286C19.578 9.63584 19.5042 9.48144 19.3931 9.36017C19.3931 9.36017 19.3931 9.3017 19.3931 9.26829H19.6205C19.561 9.11232 19.4902 8.96152 19.4088 8.81724C19.3451 8.71347 19.2516 8.63438 19.1423 8.59172C19.0082 8.55826 18.8687 8.55826 18.7346 8.59172C18.6191 8.62251 18.4979 8.6185 18.3844 8.58016C18.2709 8.54181 18.1696 8.47064 18.0918 8.37455C17.9822 8.27409 17.8641 8.18462 17.739 8.10727C17.7004 8.09734 17.6601 8.09734 17.6215 8.10727C17.6215 8.19915 17.6215 8.26597 17.6215 8.37455L16.9081 8.28267C16.9081 8.48314 17.0884 8.5416 17.1198 8.70865C17.0599 8.7166 16.9993 8.7166 16.9394 8.70865C16.6418 8.70152 16.3444 8.73236 16.0536 8.80053C16.0536 8.80053 15.9517 8.80054 15.9047 8.75042C15.8384 8.69714 15.7614 8.66108 15.6797 8.64513C15.598 8.62918 15.514 8.63377 15.4343 8.65854C15.1787 8.72801 14.9351 8.84082 14.7131 8.99265C14.6569 9.03135 14.5963 9.06222 14.5328 9.08453C14.5164 8.95705 14.5164 8.82778 14.5328 8.70031C14.6738 8.23036 14.6738 7.72524 14.5328 7.25529C14.4779 7.05483 14.3839 6.86272 14.3133 6.64555C14.3293 6.62126 14.3477 6.59886 14.3682 6.57873C14.4532 6.50123 14.5217 6.40522 14.569 6.29717C14.6164 6.18911 14.6414 6.07151 14.6425 5.95228C14.6403 5.8196 14.6052 5.68991 14.5406 5.5764C14.4936 5.47617 14.376 5.5764 14.2898 5.5764C14.1943 5.56668 14.1013 5.53837 14.0154 5.49288C13.9063 5.41939 13.7799 5.38038 13.6509 5.38038C13.5218 5.38038 13.3954 5.41939 13.2864 5.49288C12.979 5.66558 12.6485 5.78672 12.3064 5.85204C12.0503 5.93003 11.7787 5.93003 11.5225 5.85204C11.4598 5.85204 11.3893 5.85204 11.2952 5.79358C11.3799 6.0924 11.5675 6.34604 11.8204 6.50355C11.7499 6.64555 11.6088 6.50355 11.5382 6.59543C11.4677 6.68731 11.5382 6.59544 11.5382 6.64555C11.6426 6.74976 11.7662 6.82959 11.9012 6.87993C12.0362 6.93027 12.1796 6.95002 12.3221 6.93789C12.3865 6.92091 12.4538 6.92091 12.5181 6.93789C12.5971 6.97519 12.6826 6.99445 12.769 6.99445C12.8554 6.99445 12.9408 6.97519 13.0198 6.93789C13.0825 6.93789 13.1374 6.87942 13.1844 6.93789V6.99636C13.053 7.11207 12.9495 7.25969 12.8827 7.42683C12.8158 7.59397 12.7876 7.77575 12.8003 7.95692C12.8072 8.15828 12.7696 8.35856 12.6906 8.5416C12.6906 8.61678 12.6906 8.7003 12.6279 8.77548C12.6121 8.83054 12.5911 8.88372 12.5651 8.93418C12.424 8.93418 12.2829 8.8423 12.1497 8.8256C12.0571 8.8005 11.96 8.8005 11.8675 8.8256C11.8215 8.85593 11.7686 8.872 11.7146 8.872C11.6606 8.872 11.6076 8.85593 11.5617 8.8256C11.4605 8.7505 11.3401 8.71025 11.2168 8.71025C11.0935 8.71025 10.9731 8.7505 10.8719 8.8256C10.7229 8.91748 10.5818 9.02606 10.4329 9.12629C10.2839 9.22652 10.2212 9.30169 10.1115 9.36852C10.0017 9.43534 9.94684 9.42699 9.8998 9.31005C9.85276 9.19311 9.7195 8.86736 9.62543 8.64184C9.53136 8.41632 9.48432 8.24926 9.23346 8.25762C9.12371 8.25762 9.09236 8.19079 9.09236 8.0822C9.09236 7.97362 9.09236 7.94856 9.09236 7.91515C8.98281 7.80389 8.91111 7.65697 8.88854 7.49752C8.88854 7.41399 8.82582 7.36388 8.75527 7.39729C8.68472 7.4307 8.75527 7.57269 8.75527 7.6061C8.75527 7.63951 8.83367 7.83998 8.8807 7.95692C8.97477 7.95692 8.99045 8.0655 8.92773 8.12397C8.85267 8.2103 8.76538 8.28358 8.66904 8.34114C8.61378 8.36528 8.55184 8.36528 8.49658 8.34114C8.37899 8.2075 8.20653 8.09056 8.32411 7.84833C8.31254 7.80376 8.31 7.75708 8.31667 7.71139C8.32334 7.6657 8.33906 7.62204 8.36279 7.58333C8.38652 7.54461 8.41772 7.51172 8.4543 7.48685C8.49088 7.46197 8.53202 7.44568 8.57497 7.43905L8.38682 7.18012C8.12813 6.8126 7.88511 6.43673 7.6029 6.06086C7.54697 5.98909 7.48085 5.92708 7.40692 5.8771C7.36922 5.84455 7.32217 5.82679 7.27365 5.82679C7.22513 5.82679 7.17808 5.84455 7.14039 5.8771C7.10953 5.91385 7.09248 5.96144 7.09248 6.01075C7.09248 6.06006 7.10953 6.10763 7.14039 6.14439C7.17501 6.20882 7.21433 6.27026 7.25798 6.32815C7.54019 6.76248 7.8224 7.20518 8.12029 7.63951C8.12029 7.70634 8.20652 7.77316 8.16733 7.85669C8.12813 7.94021 8.16733 8.0655 8.16733 8.15738C8.16733 8.24926 8.31628 8.34114 8.37899 8.43302C8.45136 8.52169 8.50246 8.62773 8.52793 8.74207C8.57881 8.9641 8.66356 9.17573 8.77879 9.36852C8.8415 9.4771 8.89638 9.58569 8.95125 9.70262C9.00221 9.78346 9.02245 9.88189 9.0079 9.97803C8.99335 10.0742 8.94508 10.1608 8.87286 10.2205C8.77586 10.3059 8.68421 10.398 8.59849 10.4961C8.48939 10.6447 8.38987 10.801 8.3006 10.9639C8.26114 11.0159 8.23962 11.0808 8.23962 11.1476C8.23962 11.2145 8.26114 11.2794 8.3006 11.3314C8.43564 11.3031 8.56911 11.2668 8.7004 11.2228C8.7463 11.2023 8.79678 11.1964 8.84577 11.2058C8.89475 11.2151 8.94017 11.2393 8.97658 11.2754C9.01299 11.3116 9.03884 11.3582 9.05103 11.4096C9.06322 11.461 9.06124 11.515 9.04532 11.5653C9.03784 11.6397 9.01011 11.7102 8.96555 11.7681C8.92098 11.8259 8.86152 11.8687 8.79447 11.891C8.72243 11.9111 8.65171 11.9362 8.58281 11.9662C8.32411 12.0664 8.07325 12.1583 7.79888 12.2669C7.71976 12.3065 7.64994 12.3644 7.59448 12.4365C7.53903 12.5085 7.49934 12.5927 7.47832 12.6832C7.45729 12.7736 7.45545 12.8678 7.47293 12.9591C7.49042 13.0504 7.52678 13.1363 7.57938 13.2107C7.75185 13.4363 7.72049 13.5616 7.50099 13.7537C7.39908 13.8372 7.29717 13.904 7.19526 13.9792C7.1355 14.0174 7.08741 14.0732 7.0568 14.1399C7.0262 14.2066 7.01438 14.2814 7.0228 14.3551C7.02734 14.3994 7.02107 14.4442 7.00458 14.4852C6.9881 14.5261 6.96198 14.5619 6.92873 14.5889C6.80045 14.7133 6.70572 14.8719 6.65435 15.0483C6.63109 15.0854 6.61869 15.129 6.61869 15.1736C6.61869 15.2182 6.63109 15.2618 6.65435 15.2989C6.7249 15.3657 6.78762 15.2989 6.85033 15.2989C6.99477 15.2282 7.14417 15.1695 7.29717 15.1235C7.66904 15.0274 8.0514 14.9853 8.43386 14.9982C8.74759 14.9908 9.05618 15.084 9.3197 15.2655C9.51568 15.4242 9.70382 15.5996 9.89196 15.775C9.96825 15.8517 10.0524 15.9189 10.1428 15.9755C10.2447 16.0256 10.3858 15.9755 10.4721 16.0674C10.5583 16.1592 10.5975 16.2762 10.6602 16.3764C10.6956 16.4121 10.7192 16.459 10.7277 16.5101C10.7362 16.5613 10.729 16.6139 10.7072 16.6604C10.7072 16.7606 10.5975 16.7523 10.5269 16.7606C10.1175 16.8042 9.71308 16.8909 9.3197 17.0196C9.29209 17.04 9.25927 17.051 9.22563 17.051C9.19199 17.051 9.15916 17.04 9.13156 17.0196L8.81014 16.769C8.39517 16.4416 7.90497 16.2396 7.39124 16.1843C7.20745 16.169 7.02268 16.1945 6.84862 16.2592C6.67455 16.3239 6.51497 16.4264 6.37998 16.5602C6.04992 16.8985 5.7838 17.3011 5.59605 17.7462C5.49539 17.9568 5.42409 18.1819 5.3844 18.4145C5.33736 18.6567 5.27465 18.8906 5.21193 19.1244C5.14922 19.3583 5.1257 19.2831 5.03163 19.2163C4.78361 19.0823 4.56671 18.8911 4.39665 18.6567C4.20067 18.3226 4.19283 18.1555 4.49856 17.8214C4.55342 17.7783 4.61425 17.7444 4.67886 17.7212C4.73374 17.8632 4.67886 17.9968 4.78861 18.0971C4.87005 18.185 4.94113 18.2832 5.00027 18.3894C5.06404 18.3403 5.11501 18.2747 5.14836 18.1988C5.1817 18.1229 5.19631 18.0391 5.19082 17.9555C5.18533 17.8719 5.15991 17.7911 5.11696 17.7209C5.07402 17.6507 5.01496 17.5933 4.94539 17.5541C4.88614 17.5389 4.82434 17.5389 4.76509 17.5541C4.60525 17.5447 4.44757 17.5969 4.32089 17.7012C4.19421 17.8055 4.10701 17.9549 4.07524 18.1221C3.99566 18.3463 3.98626 18.5918 4.04842 18.8222C4.11059 19.0525 4.24099 19.2552 4.42017 19.4001L4.5456 19.2163ZM8.12029 7.33047L7.33637 6.09427C7.28149 6.0191 7.19526 5.91887 7.28149 5.8437C7.36772 5.76852 7.4226 5.91887 7.4618 5.98569L8.24572 7.13836C8.29115 7.20964 8.3305 7.28512 8.36331 7.36388C8.23788 7.4307 8.18301 7.36388 8.14381 7.36388L8.12029 7.33047ZM6.79546 24.7124C6.63797 24.4952 6.50386 24.2598 6.39566 24.0107L6.5446 24.1444L6.7641 24.395C6.87385 24.5286 6.88169 24.5203 6.7641 24.7458L6.79546 24.7124ZM7.26582 27.3184L7.09335 27.3769C7.04632 27.4938 7.09335 27.5523 7.1639 27.6274C7.17227 27.6772 7.17227 27.7281 7.1639 27.7778C7.11454 27.7858 7.06432 27.7858 7.01496 27.7778C6.97931 27.7611 6.94739 27.7366 6.92132 27.7058C6.89526 27.675 6.87565 27.6386 6.86378 27.5991C6.85192 27.5596 6.84808 27.5179 6.85252 27.4767C6.85696 27.4355 6.86957 27.3958 6.88953 27.3602C6.93272 27.2449 6.93272 27.1163 6.88953 27.001C6.8298 26.8429 6.8298 26.6663 6.88953 26.5082C7.07229 26.7498 7.19376 27.0374 7.24229 27.3435L7.26582 27.3184ZM6.94441 24.2279C6.86045 24.1945 6.78377 24.1432 6.71907 24.0772C6.65437 24.0111 6.603 23.9316 6.56812 23.8437C6.5618 23.7705 6.57834 23.6971 6.61516 23.6349C6.70923 23.401 6.82682 23.1755 6.91305 22.9333C7.12438 22.334 7.19437 21.6887 7.11687 21.0539C7.05773 20.6929 6.89951 20.3586 6.66219 20.0933C6.63012 20.0662 6.60682 20.0291 6.59558 19.9871C6.58433 19.9452 6.58569 19.9005 6.59948 19.8595C6.7249 19.4251 6.83465 19.0242 6.96008 18.5648C7.02915 18.3063 7.16132 18.0719 7.3431 17.8856C7.52487 17.6992 7.74977 17.5676 7.99486 17.504C8.21869 17.4211 8.45768 17.3953 8.69256 17.4288C8.7395 17.4243 8.78673 17.4243 8.83367 17.4288C8.8108 17.4835 8.78461 17.5365 8.75527 17.5875C8.45013 18.0528 8.26128 18.5932 8.20652 19.1578C8.14376 19.6392 8.12015 20.1255 8.13597 20.6112C8.13597 20.8033 8.13597 20.9954 8.13597 21.1875C8.16362 21.4289 8.16362 21.6729 8.13597 21.9142C8.12148 22.0468 8.08124 22.1746 8.0178 22.2897C7.95437 22.4047 7.86913 22.5044 7.76753 22.5824C7.64572 22.6838 7.51736 22.7759 7.3834 22.8581C7.31846 22.9016 7.26265 22.9589 7.21948 23.0264C7.17631 23.094 7.14671 23.1703 7.13255 23.2507C7.07767 23.5513 7.00712 23.8437 6.93656 24.1862L6.94441 24.2279ZM8.28492 25.6729C7.95601 25.5845 7.64151 25.4437 7.35204 25.2553C7.23445 25.1801 7.23445 25.1384 7.35204 24.9462L8.59065 25.3889C8.59065 25.5977 8.45738 25.7147 8.29276 25.6729H8.28492ZM13.9841 20.3356L14.5485 21.079C14.6253 21.1809 14.6935 21.2899 14.7523 21.4047C14.7523 21.4632 14.7993 21.5551 14.7523 21.5885C14.7308 21.6142 14.7041 21.6343 14.6742 21.6474C14.6444 21.6604 14.6121 21.666 14.5798 21.6636C14.4217 21.6545 14.2679 21.605 14.1314 21.5192C13.995 21.4334 13.8799 21.3139 13.7959 21.1708C13.7332 21.0455 13.6705 20.9704 13.5215 21.0121C13.4831 21.0235 13.4424 21.0235 13.4039 21.0121L13.1374 20.7699C13.1253 20.7574 13.1157 20.7425 13.1091 20.726C13.1026 20.7095 13.0992 20.6918 13.0992 20.6739C13.0992 20.6559 13.1026 20.6382 13.1091 20.6217C13.1157 20.6052 13.1253 20.5903 13.1374 20.5778C13.2037 20.4748 13.2614 20.3658 13.3099 20.252C13.4288 19.982 13.5284 19.7028 13.6078 19.4168C13.7254 18.949 13.8116 18.4729 13.9135 17.9718L14.619 17.7629C14.6253 17.8491 14.6253 17.9357 14.619 18.0219C14.4701 18.523 14.3055 19.0158 14.1487 19.5087C14.086 19.6924 14.0311 19.8845 13.9684 20.0766C13.9454 20.1154 13.9332 20.1603 13.9332 20.2061C13.9332 20.2519 13.9454 20.2968 13.9684 20.3356H13.9841ZM14.6661 19.6924C14.7993 19.233 14.9326 18.7736 15.0659 18.2808L15.1991 18.3978C15.3402 18.5565 15.4892 18.7319 15.6303 18.9073C15.6896 19.0009 15.7151 19.1141 15.7021 19.2262C15.6892 19.3383 15.6386 19.4416 15.5597 19.517C15.2771 19.643 14.9723 19.7028 14.6661 19.6924ZM13.0041 19.9346C12.6514 20.0015 12.2986 20.085 11.9458 20.1685C11.5931 20.252 11.4912 20.2186 11.4441 19.7926C11.4441 19.6507 11.4441 19.5087 11.3893 19.375C11.4598 18.8822 11.5225 18.381 11.6009 17.8882C11.6248 17.7335 11.6562 17.5801 11.695 17.4288C11.7342 17.2868 11.7655 17.2701 11.9067 17.2868L13.4118 17.4957C13.4578 17.5073 13.5024 17.5241 13.5451 17.5458C13.5809 17.5574 13.6118 17.5823 13.6319 17.616C13.652 17.6497 13.6602 17.69 13.6548 17.7295C13.5811 18.3742 13.4685 19.0131 13.3177 19.6423C13.306 19.7204 13.2705 19.7921 13.2167 19.8465C13.1628 19.9009 13.0936 19.9348 13.0198 19.943L13.0041 19.9346ZM14.0311 17.195C13.5108 17.0654 13.0039 16.8807 12.5181 16.6437C12.4319 16.6437 12.3143 16.5602 12.3221 16.4432C12.33 16.3263 12.4632 16.2845 12.5495 16.2845C12.7687 16.2677 12.9887 16.2677 13.208 16.2845C13.258 16.291 13.3047 16.3144 13.3412 16.3513C13.6453 16.5802 13.9104 16.8627 14.1252 17.1866C14.0703 17.1866 14.0389 17.1866 14.0311 17.1866V17.195ZM12.7219 15.5161C12.4632 15.6581 12.2202 15.8001 11.938 15.9254C11.8029 15.9928 11.6608 16.0433 11.5147 16.0757C11.4268 16.0932 11.3362 16.0854 11.2521 16.0531C11.1681 16.0208 11.0936 15.9652 11.0365 15.892C10.9503 15.8001 10.9503 15.7165 11.0365 15.6414C11.1285 15.5465 11.2409 15.4772 11.3639 15.4393C11.4869 15.4015 11.6167 15.3963 11.742 15.4242C11.8526 15.4651 11.9707 15.4773 12.0866 15.4599C12.2024 15.4424 12.3127 15.3959 12.4084 15.324L12.5181 15.2488C12.7298 15.0984 12.7611 15.1068 12.8866 15.3908C12.8248 15.4386 12.7592 15.4806 12.6906 15.5161H12.7219ZM11.5068 22.4488C11.6715 22.2233 11.7812 22.1982 12.0164 22.3569L12.0948 22.4237C12.0948 22.4237 12.0948 22.4237 12.0948 22.4822C11.8283 22.8497 11.3971 22.9917 11.0835 23.3175C10.9895 23.1421 10.9973 23.0669 11.0835 22.9416L11.4676 22.4488H11.5068ZM10.8797 22.8998C10.7856 23.0335 10.668 23.1337 10.574 23.259C10.5147 23.3149 10.4697 23.3859 10.443 23.4653C10.4163 23.5447 10.4089 23.63 10.4214 23.7133C10.4339 23.7966 10.4659 23.8752 10.5145 23.9418C10.5631 24.0084 10.6267 24.0608 10.6994 24.0943C10.8486 24.1765 10.9653 24.3127 11.0287 24.4785C11.0406 24.5278 11.0406 24.5795 11.0287 24.6288H10.3466C9.87566 24.6055 9.40964 24.7399 9.01397 25.0131C8.96262 25.0475 8.90178 25.0622 8.8415 25.0548C8.49019 25.0148 8.14803 24.9103 7.83024 24.7458L7.48532 24.5704C7.52971 24.2952 7.65293 24.0413 7.83808 23.8437C8.09614 23.5887 8.42207 23.4253 8.77095 23.3759C8.98337 23.3363 9.19106 23.2719 9.39025 23.1838C9.90119 23 10.3947 22.7651 10.864 22.4822C10.8896 22.4738 10.9169 22.4738 10.9424 22.4822H11.0051C11.06 22.666 10.9503 22.7996 10.8562 22.9333L10.8797 22.8998ZM9.9782 27.1096C9.88115 27.1497 9.774 27.1525 9.67525 27.1174C9.57649 27.0823 9.49233 27.0116 9.43729 26.9175C9.42601 26.8913 9.42018 26.8628 9.42018 26.8339C9.42018 26.8051 9.42601 26.7766 9.43729 26.7504C9.49446 26.6601 9.56305 26.5786 9.64111 26.5082C9.79285 26.3844 9.9703 26.3013 10.1585 26.266C10.1988 26.3344 10.2256 26.4109 10.2372 26.4908C10.2487 26.5707 10.2448 26.6522 10.2258 26.7305C10.2067 26.8087 10.1728 26.8819 10.1262 26.9457C10.0795 27.0094 10.0212 27.0624 9.95467 27.1012L9.9782 27.1096ZM13.2785 28.6465C13.1172 28.6986 12.9475 28.7143 12.7801 28.6928C12.6128 28.6712 12.4515 28.6128 12.3064 28.5212C12.1477 28.4333 12.01 28.3078 11.904 28.1543C11.798 28.0008 11.7265 27.8234 11.695 27.6358C11.9446 27.6443 12.1878 27.722 12.4005 27.8613C12.6279 28.0367 12.8317 28.2288 13.0512 28.4126C13.1308 28.4863 13.2066 28.5643 13.2785 28.6465ZM14.8464 27.2015H14.7053C14.4677 27.1173 14.2188 27.075 13.9684 27.0762C13.6391 27.0762 13.3177 27.0762 12.9885 27.0762C12.7236 27.0939 12.4579 27.0599 12.2045 26.9759C11.9738 26.8893 11.7757 26.7252 11.6401 26.5082C11.5771 26.4004 11.5399 26.2778 11.5317 26.1511C11.5235 26.0244 11.5446 25.8975 11.5931 25.7815C11.6558 25.581 11.6401 25.5142 11.4441 25.4641C11.2482 25.4166 11.0489 25.3859 10.8484 25.3722C10.4885 25.3339 10.1252 25.3621 9.77437 25.4558C9.45962 25.5484 9.18341 25.7514 8.99045 26.0321C8.8487 26.2541 8.76212 26.5107 8.73882 26.778C8.71551 27.0454 8.75624 27.3146 8.85718 27.5606C8.85718 27.5606 8.85718 27.6525 8.85718 27.6943C8.81015 27.6358 8.74743 27.6024 8.7004 27.5439C8.57608 27.3638 8.49173 27.1559 8.45371 26.936C8.41569 26.7161 8.42499 26.4899 8.4809 26.2743C8.52928 26.062 8.60864 25.859 8.71608 25.6729C8.92893 25.3306 9.25264 25.0838 9.62543 24.9797C10.0197 24.8054 10.454 24.7618 10.8719 24.8544C11.0757 24.8544 11.2795 24.9462 11.4833 24.9797C11.82 25.038 12.1644 25.021 12.4946 24.9295H12.5887C12.6846 24.887 12.7917 24.8821 12.8907 24.9157C12.9898 24.9494 13.0744 25.0194 13.1296 25.1133C13.3186 25.3216 13.5175 25.5195 13.7254 25.7063L13.8351 25.8149C13.8351 25.8149 13.8351 25.8149 13.8351 25.865H13.5921C13.6078 25.9107 13.6262 25.9554 13.647 25.9987C13.8697 26.3441 14.1833 26.6115 14.5485 26.7671L14.7288 26.859C14.9326 26.9592 14.9326 26.9759 14.8934 27.2349L14.8464 27.2015ZM17.0806 26.6752C16.9077 27.0332 16.6545 27.3402 16.3437 27.569H16.2418L16.6102 26.7337C16.4998 26.814 16.3846 26.8866 16.2653 26.9509C16.1413 27.0153 16.0093 27.0603 15.8733 27.0845C16.0539 26.797 16.1767 26.4728 16.2339 26.1323C16.0723 26.2272 15.9015 26.3028 15.7244 26.3578C15.4494 26.4043 15.1717 26.4294 14.8934 26.433C14.8988 26.4168 14.8988 26.3991 14.8934 26.3829C14.8934 26.3829 14.964 26.2994 15.011 26.2827C15.1991 26.1824 15.3951 26.0906 15.5989 25.9987L15.7479 25.9068L15.2775 25.8483C15.1363 25.8393 14.9967 25.8112 14.862 25.7648C15.0439 25.6887 15.2219 25.6022 15.3951 25.5059C15.5706 25.3906 15.7383 25.2622 15.8968 25.1216H15.7557C15.2082 25.1711 14.657 25.1058 14.133 24.9295C14.054 24.9005 13.9799 24.8582 13.9135 24.8042C14.4499 24.8194 14.9836 24.7171 15.4813 24.5036C15.2176 24.5156 14.9537 24.4874 14.6974 24.42C14.4387 24.3365 14.1879 24.253 13.9135 24.1444V24.0943C13.9602 24.086 14.0079 24.086 14.0546 24.0943C14.5196 24.1253 14.9862 24.0716 15.4343 23.9356C15.6538 23.8771 15.8812 23.827 16.1006 23.7435C16.5475 23.5848 16.7356 24.0191 16.6964 24.3281C16.6572 24.6372 16.6259 24.9295 16.5867 25.2302C16.5726 25.3142 16.5839 25.4008 16.6192 25.4774C16.6544 25.554 16.7117 25.6167 16.7827 25.6562C16.9549 25.7727 17.087 25.9456 17.1589 26.149C17.205 26.2446 17.2291 26.3506 17.2291 26.4581C17.2291 26.5656 17.205 26.6715 17.1589 26.7671L17.0806 26.6752ZM17.0492 24.1694C17.0962 23.969 17.1433 23.7602 17.1825 23.5513C17.2196 23.5465 17.2574 23.5503 17.293 23.5625C17.3287 23.5747 17.3615 23.595 17.389 23.622C17.4166 23.649 17.4384 23.682 17.4528 23.7189C17.4672 23.7557 17.4739 23.7955 17.4725 23.8353C17.4883 23.9349 17.4883 24.0365 17.4725 24.136C17.3941 24.3699 17.3001 24.5954 17.1981 24.8293C17.1981 24.8794 17.1354 24.9128 17.0806 24.9797C17.0142 24.7057 17.0142 24.4183 17.0806 24.1444L17.0492 24.1694ZM19.6048 26.3244C19.4036 26.7524 19.0555 27.0814 18.6327 27.2432C18.5251 27.2444 18.4176 27.236 18.3113 27.2182C18.2329 27.4938 18.1545 27.7611 18.0683 28.0534C17.8605 28.0015 17.6704 27.8887 17.5196 27.7277C17.4902 27.6973 17.4668 27.661 17.4508 27.6208C17.4349 27.5806 17.4266 27.5374 17.4266 27.4938C17.4266 27.4502 17.4349 27.407 17.4508 27.3668C17.4668 27.3266 17.4902 27.2903 17.5196 27.2599C17.6745 27.0915 17.8453 26.9403 18.0291 26.8089C18.4289 26.575 18.813 26.3746 19.252 26.1574L19.597 25.9736C19.6597 26.0655 19.597 26.124 19.597 26.1908L19.6048 26.3244ZM19.0952 22.407C19.2991 22.7244 19.3461 23.1003 19.5499 23.4177L19.7537 23.2757C19.7813 23.2481 19.8178 23.2327 19.8556 23.2327C19.8935 23.2327 19.9299 23.2481 19.9576 23.2757C19.9692 23.2867 19.9786 23.3002 19.985 23.3153C19.9914 23.3304 19.9947 23.3468 19.9947 23.3634C19.9947 23.38 19.9914 23.3964 19.985 23.4115C19.9786 23.4266 19.9692 23.4401 19.9576 23.4511C19.8321 23.6516 19.9105 23.827 20.1535 23.8437C20.2001 23.8428 20.2456 23.8577 20.2837 23.8863C20.3217 23.9148 20.3503 23.9555 20.3652 24.0024C20.4358 24.2196 20.5141 24.4367 20.6004 24.6706L20.4514 24.7374C20.4514 24.8377 20.4514 24.9462 20.4514 25.0465C20.4514 25.1467 20.3182 25.0465 20.2711 25.0465C20.0908 24.8627 19.9027 24.679 19.7381 24.4868C19.5734 24.2947 19.5499 24.2363 19.4402 24.0943C19.4402 24.0442 19.5029 24.0191 19.5186 23.9857C19.6362 23.8103 19.6048 23.6933 19.4088 23.6015C19.3543 23.5784 19.3054 23.5423 19.266 23.4959C19.2266 23.4496 19.1977 23.3943 19.1815 23.3342C19.1815 23.1588 19.0717 23.0001 19.0247 22.833C18.9852 22.7747 18.9639 22.7045 18.9639 22.6326C18.9639 22.5606 18.9852 22.4904 19.0247 22.4321L19.0952 22.407ZM18.5387 22.8497C18.6013 22.8856 18.6526 22.9405 18.6861 23.0073C18.7196 23.0742 18.7337 23.1502 18.7268 23.2256L18.5857 23.1421C18.54 23.1034 18.4833 23.0824 18.425 23.0824C18.3666 23.0824 18.31 23.1034 18.2643 23.1421C18.2465 23.1466 18.2302 23.1561 18.2171 23.1697C18.2039 23.1832 18.1945 23.2003 18.1897 23.2191C18.1849 23.2379 18.1849 23.2577 18.1897 23.2765C18.1946 23.2953 18.2041 23.3123 18.2172 23.3258C18.2866 23.4527 18.3625 23.5754 18.4446 23.6933C18.6738 23.9553 18.8382 24.2739 18.9228 24.6205C18.9305 24.7596 18.9305 24.899 18.9228 25.0381C18.9202 25.1277 18.9437 25.2159 18.99 25.2906C19.0363 25.3654 19.1032 25.4231 19.1815 25.4558C19.1815 25.4558 19.2207 25.4558 19.2677 25.5226C19.1893 25.6312 19.1266 25.7397 19.0404 25.84C18.9449 25.9684 18.8428 26.0911 18.7346 26.2075C18.6418 26.3038 18.5228 26.3661 18.3946 26.3857C18.2664 26.4052 18.1356 26.3808 18.0213 26.3161C17.8955 26.2695 17.7871 26.181 17.7123 26.0636C17.6374 25.9463 17.6001 25.8063 17.6058 25.6646L17.6528 25.0882C17.6999 24.6372 17.7312 24.1778 17.7782 23.7184C17.7896 23.6465 17.7896 23.5731 17.7782 23.5012C17.78 23.432 17.7676 23.3631 17.7418 23.2995C17.7161 23.2359 17.6776 23.179 17.6291 23.1329C17.5806 23.0868 17.5232 23.0525 17.4609 23.0324C17.3987 23.0124 17.3331 23.007 17.2687 23.0168C17.0353 23.0334 16.8042 23.0754 16.5788 23.1421C16.4299 23.1421 16.2888 23.2339 16.1398 23.2674C16.0685 23.2922 15.9916 23.2922 15.9203 23.2674C15.6852 23.1254 15.4578 22.9583 15.2305 22.808L14.4466 22.3235H14.3917C14.4535 22.5049 14.4981 22.6923 14.525 22.8831C14.5097 23.0792 14.4729 23.2726 14.4152 23.4595C14.4152 23.4595 14.4622 23.5096 14.4779 23.543C14.4936 23.5764 14.5642 23.6683 14.5485 23.6766C14.5061 23.7309 14.4483 23.769 14.3839 23.7852C14.2327 23.8019 14.0803 23.8019 13.9292 23.7852C13.5529 23.7184 13.1453 23.6265 12.8082 23.5513C12.6279 23.5513 12.4554 23.4929 12.2673 23.4762C12.5936 23.8014 12.8735 24.1756 13.0982 24.5871C13.0982 24.5871 13.059 24.5871 13.0433 24.5871C12.7399 24.6146 12.4417 24.6877 12.1575 24.8042C12.1136 24.8248 12.0641 24.8267 12.0189 24.8096C11.9737 24.7926 11.9364 24.7578 11.9145 24.7124L11.6558 24.2864C11.5954 24.181 11.5717 24.0562 11.5889 23.9341C11.6061 23.8119 11.6631 23.7001 11.7499 23.6182C11.8211 23.5269 11.9027 23.4455 11.9929 23.3759C12.275 23.142 12.5187 22.8597 12.7141 22.5407C12.7574 22.4662 12.8072 22.3962 12.863 22.3319C12.9024 22.2811 12.9585 22.2482 13.0198 22.24C13.5529 22.1397 14.086 22.0562 14.5877 21.981C15.3653 21.8341 16.1234 21.5873 16.8454 21.246C16.8809 21.2245 16.9228 21.2185 16.9623 21.2294C17.0019 21.2404 17.0359 21.2673 17.057 21.3045C17.1746 21.4632 17.2922 21.6135 17.4255 21.7639C17.4596 21.8039 17.4786 21.856 17.4786 21.91C17.4786 21.9641 17.4596 22.0162 17.4255 22.0562C17.3236 22.2483 17.3314 22.2567 17.5117 22.3486C17.8253 22.5323 18.1545 22.7077 18.4759 22.8748L18.5387 22.8497ZM20.2555 17.8632C20.2803 17.7591 20.3291 17.6633 20.3976 17.5845C20.466 17.5058 20.5519 17.4465 20.6474 17.4121C20.8669 17.3203 21.0786 17.195 21.2902 17.0947C21.5019 16.9945 21.4313 17.0279 21.6195 17.0947C21.4941 17.2534 21.3921 17.4121 21.2667 17.5541C21.1176 17.7353 20.9522 17.9003 20.7728 18.0469C20.6757 18.1174 20.5611 18.1552 20.4436 18.1555C20.2711 18.1555 20.2006 18.0219 20.2555 17.8548V17.8632ZM15.9517 11.2312C15.9978 10.8239 16.1323 10.4338 16.3446 10.0916C16.5568 9.74941 16.8411 9.46467 17.1746 9.25993C17.2526 9.21654 17.3339 9.18022 17.4176 9.15135C17.4817 9.12044 17.5512 9.10445 17.6215 9.10445C17.6918 9.10445 17.7612 9.12044 17.8253 9.15135C17.8958 9.15135 17.9821 9.15135 18.0605 9.21817C18.0923 9.23446 18.1271 9.24292 18.1624 9.24292C18.1977 9.24292 18.2325 9.23446 18.2643 9.21817C18.305 9.18564 18.3545 9.16805 18.4054 9.16805C18.4563 9.16805 18.5058 9.18564 18.5465 9.21817C18.6876 9.33511 18.8522 9.43534 18.9933 9.54392C19.0781 9.60805 19.1546 9.68389 19.2207 9.76945C19.3226 9.88638 19.2834 9.98662 19.1423 10.0367H18.9385C18.9385 10.0367 18.8914 10.0367 18.8365 10.1119H18.962H19.0482C19.0858 10.1908 19.1333 10.2638 19.1893 10.3291C19.252 10.3291 19.3461 10.3291 19.4323 10.3291C19.4764 10.3383 19.5188 10.3552 19.5578 10.3792C19.5881 10.4117 19.6145 10.4481 19.6362 10.4878C19.8221 10.8884 20.09 11.2394 20.4201 11.5152L20.4828 11.582C20.4791 11.5985 20.4791 11.6156 20.4828 11.6321C20.4828 11.7156 20.3966 11.7073 20.3338 11.7073C20.1615 11.6923 19.9881 11.7151 19.8243 11.7741C19.7604 11.7948 19.6922 11.7948 19.6283 11.7741L18.6954 11.4567C18.5778 11.4567 18.4446 11.3815 18.3192 11.3314C18.2271 11.3071 18.1419 11.2595 18.0709 11.1926C17.9999 11.1257 17.9451 11.0415 17.9112 10.9471C17.8773 10.8528 17.8653 10.7511 17.8763 10.6507C17.8873 10.5504 17.9209 10.4544 17.9742 10.3708L18.0683 10.1537C18.0683 10.1537 18.0683 10.1537 18.0683 10.1119C17.9693 10.1784 17.8855 10.2677 17.8231 10.3732C17.7607 10.4787 17.7213 10.5978 17.7077 10.7217C17.6922 11.0461 17.7657 11.3682 17.9194 11.6488C18.0735 11.9181 18.2122 12.197 18.3348 12.4841C18.4995 12.91 18.617 13.3611 18.7582 13.7954C18.7951 13.907 18.824 14.0215 18.8444 14.1379C18.9653 14.6896 18.9491 15.2654 18.7974 15.8084C18.7345 16.0915 18.6559 16.3704 18.5622 16.6437C18.4759 16.8609 18.4446 16.8609 18.2251 16.8024C18.0056 16.7439 17.7939 16.6771 17.5823 16.6353C17.4094 16.573 17.2221 16.573 17.0492 16.6353C17.1718 16.7297 17.3146 16.79 17.4647 16.8107C17.7604 16.8633 18.0479 16.9589 18.3192 17.0947C18.3709 17.1174 18.4169 17.1527 18.4536 17.1976C18.4904 17.2425 18.5168 17.296 18.5308 17.3537C18.5617 17.5201 18.6009 17.6846 18.6484 17.8465C18.659 17.8657 18.6649 17.8874 18.6656 17.9096C18.6663 17.9319 18.6618 17.954 18.6524 17.9739C18.6431 17.9938 18.6292 18.0109 18.6121 18.0237C18.595 18.0365 18.5751 18.0444 18.5543 18.0469C18.374 18.0469 18.1859 18.1221 17.9977 18.1388C17.7915 18.1513 17.5847 18.1513 17.3784 18.1388C17.3784 18.1388 17.3784 18.1388 17.3784 18.1889C17.4122 18.2267 17.4521 18.2578 17.496 18.2808C17.8566 18.4228 18.2172 18.5481 18.5778 18.6817C18.6191 18.7018 18.6564 18.7302 18.6876 18.7653C18.7286 18.8208 18.781 18.8655 18.8408 18.8959C18.9006 18.9263 18.9662 18.9417 19.0325 18.9407C19.4491 18.9643 19.8668 18.9419 20.279 18.8739C20.575 18.8236 20.8766 18.8236 21.1726 18.8739C21.2481 18.8859 21.3205 18.9144 21.3852 18.9575C21.45 19.0006 21.5057 19.0574 21.5489 19.1244C21.596 19.2163 21.6508 19.3082 21.69 19.4001C21.697 19.4157 21.7006 19.4328 21.7006 19.4502C21.7006 19.4675 21.697 19.4846 21.69 19.5003C21.6757 19.5091 21.6595 19.5137 21.643 19.5137C21.6265 19.5137 21.6103 19.5091 21.596 19.5003C21.5429 19.4603 21.4931 19.4156 21.447 19.3667C21.3782 19.3233 21.2997 19.3004 21.2197 19.3004C21.1397 19.3004 21.0612 19.3233 20.9923 19.3667L19.9419 19.8511C19.6034 20.0049 19.234 20.0652 18.8679 20.0265C18.3949 19.9987 17.9265 19.9118 17.4725 19.7676C17.1122 19.6538 16.7925 19.4267 16.5553 19.1161C16.2261 18.6567 15.8968 18.1973 15.5754 17.7295C15.4809 17.6016 15.4161 17.4517 15.3861 17.2921C15.3561 17.1325 15.3619 16.9676 15.403 16.8107C15.5009 16.2891 15.5715 15.7621 15.6146 15.2321C15.6852 14.6892 15.7714 14.1462 15.842 13.6117C15.842 13.3611 15.842 13.1105 15.8968 12.8599C15.8968 12.2919 15.9595 11.7407 16.0458 11.1894L15.9517 11.2312ZM15.9595 10.6381C16.0144 10.7049 15.9595 10.7801 15.9595 10.8469C15.5794 11.4957 15.4011 12.2556 15.45 13.0186C15.45 13.3444 15.4892 13.6701 15.4892 13.9959C15.4944 14.2084 15.4366 14.4172 15.324 14.5926C15.2114 14.768 15.0497 14.9012 14.862 14.9732C14.7456 15.0202 14.6247 15.0538 14.5014 15.0734C14.423 15.0734 14.3682 15.0734 14.3917 14.9397C14.4183 14.5963 14.5669 14.2767 14.8072 14.046C14.8552 14.0086 14.8918 13.957 14.9127 13.8976C14.9336 13.8383 14.9378 13.7737 14.9248 13.7119C14.9248 13.5532 14.8777 13.3778 14.862 13.2107C14.8421 12.9668 14.8742 12.7212 14.9561 12.4924C15.0188 12.2669 15.1207 12.0581 15.1991 11.8409C15.2023 11.8132 15.2023 11.7851 15.1991 11.7574C14.9953 11.8326 14.862 12.0163 14.6269 12.0581C14.6199 12.0195 14.6199 11.9798 14.6269 11.9411C14.7929 11.5681 15.0154 11.2266 15.2854 10.9305C15.4133 10.8073 15.5525 10.6982 15.7008 10.6047C15.7141 10.5887 15.7304 10.5759 15.7486 10.5671C15.7669 10.5584 15.7867 10.5538 15.8067 10.5538C15.8267 10.5538 15.8465 10.5584 15.8647 10.5671C15.883 10.5759 15.8993 10.5887 15.9125 10.6047L15.9595 10.6381ZM15.4657 9.02606C15.4657 9.02606 15.4657 9.02606 15.5284 9.02606C15.5136 9.06152 15.4952 9.09513 15.4735 9.12629C15.3194 9.28849 15.1969 9.48151 15.1129 9.69427C15.0815 9.77673 15.0301 9.8488 14.964 9.90309C14.5739 10.1963 14.2957 10.6291 14.18 11.1226C14.0624 11.5319 14.0232 11.9578 13.9213 12.3838C13.8736 12.5582 13.8023 12.7242 13.7097 12.8766C13.6621 12.9406 13.5988 12.9892 13.5269 13.0172C13.4549 13.0452 13.3771 13.0515 13.302 13.0353C13.3798 13.2163 13.4983 13.3741 13.647 13.4947C13.7904 13.5964 13.9396 13.6885 14.0938 13.7704C13.9997 13.9708 13.9057 14.1964 13.7959 14.4302L12.9258 13.1857C13.1139 12.8933 13.2785 12.6428 13.4431 12.3504C13.6495 11.9961 13.7631 11.5895 13.7724 11.1727C13.7841 10.9754 13.8321 10.7824 13.9135 10.6047C14.244 9.88925 14.7985 9.31912 15.4813 8.99265L15.4657 9.02606ZM13.6313 8.04045C13.8037 8.04045 13.8273 8.04045 13.7881 8.25762C13.7489 8.47479 13.7332 8.44973 13.8978 8.48314L13.9449 8.09891C14.3525 8.03209 14.4231 8.09891 14.3211 8.48314C14.2609 8.69519 14.1739 8.89751 14.0624 9.08453C13.9919 9.22652 13.9213 9.21817 13.7881 9.08453C13.6029 8.91704 13.4714 8.69222 13.4118 8.44137C13.3569 8.28267 13.3334 8.10727 13.2785 7.94857C13.2605 7.90143 13.2568 7.84943 13.2681 7.79994C13.2793 7.75046 13.3049 7.70602 13.3412 7.67293C13.4691 7.53674 13.6425 7.46024 13.8233 7.46024C14.0042 7.46024 14.1776 7.53674 14.3055 7.67293C14.2481 7.74469 14.1696 7.79366 14.0828 7.81186C13.9959 7.83006 13.9059 7.81642 13.8273 7.77316C13.7413 7.73033 13.6478 7.70754 13.5529 7.70634C13.498 7.70634 13.4431 7.76481 13.3883 7.79822C13.4069 7.84937 13.4407 7.8926 13.4846 7.92127C13.5285 7.94993 13.5801 7.96246 13.6313 7.95692V8.04045ZM14.0311 6.47015C14.0966 6.61402 14.1542 6.76183 14.2036 6.91284C14.2036 7.02142 14.2584 7.13001 14.2898 7.272H13.8273C13.7953 7.27381 13.7634 7.26724 13.7343 7.25287C13.7053 7.2385 13.68 7.21677 13.6607 7.18957C13.6413 7.16237 13.6285 7.13054 13.6234 7.09686C13.6183 7.06318 13.621 7.02867 13.6313 6.99636C13.6538 6.81263 13.7184 6.63764 13.8194 6.48685C13.9057 6.36156 13.9684 6.35321 14.0311 6.48685V6.47015ZM12.0948 6.53696V6.48685L12.8082 6.15274C12.7428 6.28333 12.642 6.38987 12.519 6.45843C12.3959 6.52698 12.2562 6.55435 12.1183 6.53696H12.0948ZM13.012 5.85204C12.8002 6.00178 12.5673 6.11456 12.3221 6.18615C12.1399 6.2153 11.9542 6.16734 11.8047 6.05251C11.8047 6.05251 11.7577 5.97733 11.7107 5.91051H12.0713C12.2725 5.94525 12.4787 5.90071 12.6514 5.78522L13.2785 5.39265C13.3501 5.34786 13.4299 5.32018 13.5124 5.31152C13.595 5.30287 13.6784 5.31345 13.7567 5.34253C13.7903 5.36742 13.8218 5.39537 13.8508 5.42606C13.8508 5.42606 13.8508 5.48453 13.8037 5.48453C13.5215 5.52914 13.2531 5.64356 13.0198 5.81863L13.012 5.85204ZM11.5068 9.1597C11.742 9.35181 11.9694 9.56063 12.1889 9.76945C12.3796 9.98697 12.6123 10.1579 12.8709 10.2706C13.0226 10.3138 13.1772 10.3446 13.3334 10.3625C13.1926 10.4638 13.0248 10.5136 12.8552 10.5045C12.6903 10.4806 12.5277 10.4415 12.3692 10.3875C12.5335 10.5531 12.7314 10.6761 12.9476 10.7471C13.1637 10.8181 13.3923 10.8351 13.6156 10.7968C13.6273 10.8631 13.6273 10.931 13.6156 10.9973C13.5567 11.155 13.4832 11.3061 13.3961 11.4483C13.3322 11.5554 13.2365 11.6366 13.1243 11.679C13.0121 11.7214 12.8897 11.7225 12.7768 11.6822C12.3223 11.5664 11.8991 11.3403 11.5401 11.0216C11.1811 10.7029 10.8961 10.3001 10.7072 9.84462C10.6683 9.74871 10.6419 9.64752 10.6288 9.54392C10.6274 9.47433 10.6102 9.40614 10.5789 9.34509C10.5475 9.28404 10.5028 9.23191 10.4486 9.19311C10.4486 9.19311 10.4015 9.12629 10.3702 9.07617C10.5502 8.98394 10.7496 8.94314 10.9489 8.95778C11.1481 8.97243 11.3404 9.042 11.5068 9.1597ZM9.22563 8.42467L9.66463 9.05947L12.4868 13.2358L14.5014 16.2094C15.207 17.2534 15.9282 18.2892 16.6416 19.3249L17.9821 21.3128C18.0065 21.3686 18.0437 21.417 18.0903 21.4535C18.1369 21.49 18.1913 21.5134 18.2486 21.5217C18.3427 21.5217 18.374 21.6052 18.3819 21.6887C18.3897 21.7722 18.4211 22.0813 18.4524 22.3319L17.7626 22.2066C17.7777 22.1513 17.7987 22.098 17.8253 22.0479C17.8617 22.0025 17.8817 21.9447 17.8817 21.885C17.8817 21.8253 17.8617 21.7675 17.8253 21.7221C17.3392 21.0038 16.8611 20.2855 16.375 19.5755C15.7322 18.6066 15.0815 17.646 14.4387 16.6855C13.9057 15.9087 13.3804 15.1235 12.8709 14.3384L9.44513 9.25158L9.22563 8.93418C9.20593 8.91694 9.19007 8.89527 9.17918 8.87072C9.16828 8.84616 9.16263 8.81934 9.16263 8.79219C9.16263 8.76503 9.16828 8.73821 9.17918 8.71366C9.19007 8.6891 9.20593 8.66742 9.22563 8.65019V8.42467ZM10.1036 14.5806C9.6386 14.5305 9.18371 14.4037 8.75527 14.2047C8.5296 14.1051 8.28521 14.063 8.04158 14.0819C7.79796 14.1007 7.56183 14.18 7.35204 14.3133H7.28933C7.2031 14.2131 7.23446 14.1295 7.28933 14.046C7.43908 13.859 7.63867 13.725 7.8616 13.6618L9.53136 13.1189L9.85277 12.9852C9.90763 12.9579 9.95794 12.9212 10.0017 12.8766C9.288 12.7504 8.55542 12.8372 7.88511 13.1272C7.69697 12.7848 7.72833 12.6177 8.01054 12.4005C8.24117 12.2325 8.51511 12.1449 8.79447 12.15C9.20434 12.1446 9.61304 12.1979 10.0096 12.3087L11.0835 12.6595C10.9816 12.7848 10.8248 12.7931 10.7072 12.8683C10.5897 12.9435 10.4564 13.0103 10.3388 13.0771L9.94684 13.2776L9.57055 13.4613C9.43729 13.5198 9.29618 13.5616 9.16291 13.6367C9.26648 13.6784 9.38076 13.6784 9.48432 13.6367H9.83709L10.1899 13.5783L10.5348 13.4947C10.4721 13.7119 10.3466 13.7954 9.84492 14.021C9.84492 14.021 9.8998 14.021 9.92332 14.021C10.2993 14.0402 10.6731 13.9508 11.0051 13.762C11.0923 13.701 11.184 13.6479 11.2795 13.6033C11.2795 13.6033 11.3736 13.6033 11.3893 13.6033C11.3971 13.6217 11.4011 13.6416 11.4011 13.6618C11.4011 13.6819 11.3971 13.7019 11.3893 13.7203C11.3082 13.9411 11.166 14.1304 10.9816 14.2632C10.6906 14.469 10.3413 14.5606 9.99387 14.5221L10.1036 14.5806ZM9.79789 17.5124C10.1292 17.3699 10.4774 17.2771 10.8327 17.2367C10.9816 17.2367 11.0051 17.2367 11.0208 17.4205C11.0365 17.6042 11.06 17.9801 11.0835 18.2558C11.115 18.9497 10.9212 19.634 10.5348 20.1936C10.3191 20.5695 10.0272 20.8892 9.6803 21.1291C9.54315 21.2254 9.41221 21.3315 9.28834 21.4465C9.23346 21.4966 9.19427 21.5551 9.11587 21.6386C9.36585 21.7444 9.631 21.8037 9.8998 21.814C9.90884 21.8306 9.91419 21.8492 9.91543 21.8683C9.91667 21.8874 9.91378 21.9066 9.90696 21.9244C9.90014 21.9421 9.88959 21.958 9.87612 21.9707C9.86265 21.9834 9.84661 21.9927 9.82925 21.9978C9.6803 22.0562 9.53136 22.123 9.38241 22.1732C9.23347 22.2233 8.85718 22.3569 8.59849 22.4655C8.11024 22.6875 7.70686 23.0791 7.45396 23.5764C7.39124 23.7017 7.32069 23.8186 7.25798 23.9523C7.19526 24.0859 7.17174 24.0859 7.10119 24.0442C7.05935 23.9995 7.03427 23.9401 7.03064 23.8771C7.04106 23.6476 7.10268 23.4241 7.21039 23.2251C7.31809 23.0261 7.46877 22.8573 7.64994 22.7328C7.85331 22.5973 8.02479 22.4139 8.15118 22.1967C8.27758 21.9794 8.35551 21.7342 8.37899 21.4799C8.44244 20.5627 8.5735 19.6522 8.77095 18.7569C8.8341 18.4822 8.95616 18.2269 9.12754 18.011C9.29893 17.795 9.51496 17.6243 9.75869 17.5124H9.79789ZM5.36871 20.5444C5.5793 20.313 5.71875 20.0187 5.76852 19.7008C5.79073 19.1172 5.93538 18.5464 6.19184 18.0302L6.5838 17.2701C6.54279 17.2886 6.50343 17.3109 6.46621 17.337L5.98017 17.788C5.93045 17.8257 5.87803 17.8592 5.82339 17.8882C5.82339 17.8298 5.82339 17.7964 5.82339 17.7797C6.10801 17.1792 6.5561 16.6843 7.10903 16.3597C7.26142 16.2678 7.43627 16.2271 7.61074 16.2428C8.14448 16.2896 8.64106 16.5527 8.99829 16.9778C9.0267 16.9983 9.04715 17.029 9.0558 17.0644C9.06446 17.0998 9.06073 17.1373 9.04532 17.1699C9.02978 17.2124 9.00112 17.2479 8.96407 17.2707C8.92702 17.2935 8.88378 17.3021 8.8415 17.2952C8.61416 17.2952 8.39467 17.2451 8.15949 17.2284C7.88727 17.208 7.61574 17.2772 7.38161 17.4266C7.14748 17.576 6.96203 17.7984 6.85033 18.0636C6.6215 18.4559 6.46951 18.8935 6.4035 19.35C6.32629 19.8864 6.06684 20.3738 5.67444 20.7198C5.63108 20.7564 5.5837 20.7873 5.53334 20.8117C5.52997 20.7784 5.52997 20.7448 5.53334 20.7114" fill="#F1F3F5"/>
<path id="Vector_3" d="M14.0632 8.78443C13.9536 8.65914 13.8284 8.6842 13.6719 8.71761C13.7814 8.96819 13.8988 8.98489 14.0632 8.78443Z" fill="#F1F3F5"/>
<path id="Vector_4" d="M35.0188 6.13731H37.8096V7.17304H38.6954V5.25192H38.0997V1.32617H35.3167V2.16144C35.3167 3.90715 35.0032 4.75912 34.4231 5.26863H34.0781V7.17304H34.9953V6.13731H35.0188ZM36.2261 2.24496H37.2138V5.25192H35.4657C36.0435 4.37537 36.3204 3.31349 36.2496 2.24496" fill="#F1F3F5"/>
<path id="Vector_5" d="M42.8153 5.25172H40.6281V4.04058H42.1724V3.21367H40.6281V2.24476H42.729V1.35938H39.7188V6.1371H42.8153V5.25172Z" fill="#F1F3F5"/>
<path id="Vector_6" d="M44.8078 2.24476H46.6422V6.1371H47.5516V1.35938H43.8906V6.1371H44.8078V2.24476Z" fill="#F1F3F5"/>
<path id="Vector_7" d="M49.6682 5.50195H51.5026L51.7613 6.1284H52.8039L50.8049 1.25879H50.4522L48.4453 6.1284H49.4331L49.6682 5.50195ZM50.5854 3.08803L51.1812 4.70009H49.9896L50.5854 3.08803Z" fill="#F1F3F5"/>
<path id="Vector_8" d="M54.5734 4.4504H55.3573C55.5604 4.47293 55.7657 4.44976 55.9599 4.38237C56.1541 4.31497 56.3328 4.20487 56.4845 4.05919C56.6362 3.91352 56.7575 3.73552 56.8405 3.53672C56.9235 3.33792 56.9664 3.12275 56.9664 2.90516C56.9664 2.68757 56.9235 2.4724 56.8405 2.2736C56.7575 2.0748 56.6362 1.8968 56.4845 1.75112C56.3328 1.60545 56.1541 1.49535 55.9599 1.42796C55.7657 1.36056 55.5604 1.33738 55.3573 1.35992H53.6719V6.13764H54.5891V4.46711L54.5734 4.4504ZM54.5734 2.22024H55.3573C55.4482 2.20956 55.5402 2.21942 55.6273 2.24918C55.7144 2.27894 55.7946 2.32793 55.8628 2.39295C55.9309 2.45798 55.9854 2.53757 56.0227 2.62655C56.06 2.71552 56.0793 2.81188 56.0793 2.90933C56.0793 3.00678 56.06 3.10314 56.0227 3.19212C55.9854 3.2811 55.9309 3.36069 55.8628 3.42571C55.7946 3.49074 55.7144 3.53973 55.6273 3.56949C55.5402 3.59925 55.4482 3.60911 55.3573 3.59843H54.5734V2.22024Z" fill="#F1F3F5"/>
<path id="Vector_9" d="M59.0908 6.1371H60.008V2.24476H61.4426V1.35938H57.6562V2.24476H59.0908V6.1371Z" fill="#F1F3F5"/>
<path id="Vector_10" d="M62.3939 6.13621L62.6526 5.50976H64.487L64.7379 6.13621H65.7178L63.7266 1.2666H63.4209L61.4297 6.13621H62.3939ZM63.5698 3.09584L64.1656 4.7079H62.9975L63.5698 3.09584Z" fill="#F1F3F5"/>
<path id="Vector_11" d="M67.5265 3.58908L68.6554 5.09256H68.9533L70.0821 3.58908V6.13664H70.9993V1.27539H70.7014L68.8043 3.85637L66.9151 1.27539H66.6172V6.13664H67.5265V3.58908Z" fill="#F1F3F5"/>
<path id="Vector_12" d="M75.4325 5.25172H73.2453V4.04058H74.7896V3.21367H73.2453V2.24476H75.3462V1.35938H72.3281V6.1371H75.4325V5.25172Z" fill="#F1F3F5"/>
<path id="Vector_13" d="M77.425 4.07399H79.4083V6.1371H80.3255V1.35938H79.4083V3.18861H77.425V1.35938H76.5078V6.1371H77.425V4.07399Z" fill="#F1F3F5"/>
<path id="Vector_14" d="M82.6533 6.1371H83.5705V2.24476H85.0129V1.35938H81.2188V2.24476H82.6533V6.1371Z" fill="#F1F3F5"/>
<path id="Vector_15" d="M38.1375 14.8222V10.0361H34.4688V14.8222H35.3938V10.9299H37.2203V14.8222H38.1375Z" fill="#F1F3F5"/>
<path id="Vector_16" d="M40.3702 13.1356H41.1542C41.3577 13.1552 41.5628 13.1298 41.7566 13.0608C41.9504 12.9919 42.1288 12.881 42.2804 12.7351C42.4321 12.5892 42.5538 12.4114 42.6379 12.213C42.722 12.0146 42.7666 11.7997 42.769 11.582C42.768 11.3646 42.7242 11.1498 42.6403 10.9515C42.5565 10.7532 42.4345 10.5759 42.2823 10.431C42.1301 10.2862 41.951 10.177 41.7567 10.1105C41.5623 10.044 41.3571 10.0218 41.1542 10.0451H39.4766V14.8145H40.3938V13.144L40.3702 13.1356ZM40.3702 10.9055H41.1542C41.2416 10.8958 41.3299 10.9063 41.4132 10.9363C41.4965 10.9662 41.5727 11.015 41.6367 11.0792C41.7007 11.1434 41.7509 11.2216 41.784 11.3083C41.8171 11.3951 41.8322 11.4885 41.8283 11.582C41.8344 11.6773 41.821 11.7728 41.789 11.862C41.757 11.9511 41.7073 12.0319 41.6432 12.0986C41.5791 12.1653 41.5022 12.2164 41.4177 12.2483C41.3333 12.2803 41.2434 12.2923 41.1542 12.2837H40.3702V10.9055Z" fill="#F1F3F5"/>
<path id="Vector_17" d="M46.8074 13.9295H44.6281V12.7267H46.1725V11.8914H44.6281V10.9308H46.7291V10.0371H43.7109V14.8232H46.8074V13.9295Z" fill="#F1F3F5"/>
<path id="Vector_18" d="M48.5264 14.8148H51.3172V15.8339H52.2344V13.9294H51.6386V10.0371H48.887V10.8223C48.887 12.5763 48.5735 13.4199 47.9934 13.9294H47.6484V15.8339H48.5656V14.8148H48.5264ZM49.7337 10.9225H50.7214V13.9294H48.9733C49.5523 13.0535 49.8293 11.9912 49.7572 10.9225" fill="#F1F3F5"/>
<path id="Vector_19" d="M54.1281 10.9308H55.9625V14.8232H56.8797V10.0371H53.2188V14.8232H54.1281V10.9308Z" fill="#F1F3F5"/>
<path id="Vector_20" d="M59.8573 10.0371H58.1719V14.8148H59.0891V13.1443H59.873C60.0761 13.1668 60.2814 13.1437 60.4756 13.0763C60.6698 13.0089 60.8485 12.8988 61.0002 12.7531C61.1519 12.6074 61.2731 12.4294 61.3562 12.2306C61.4392 12.0318 61.4821 11.8167 61.4821 11.5991C61.4821 11.3815 61.4392 11.1663 61.3562 10.9675C61.2731 10.7687 61.1519 10.5907 61.0002 10.445C60.8485 10.2993 60.6698 10.1892 60.4756 10.1219C60.2814 10.0545 60.0761 10.0313 59.873 10.0538L59.8573 10.0371ZM59.873 12.3007H59.0891V10.9058H59.873C59.9639 10.8951 60.0559 10.905 60.143 10.9347C60.2301 10.9645 60.3103 11.0135 60.3784 11.0785C60.4466 11.1435 60.5011 11.2231 60.5384 11.3121C60.5757 11.4011 60.595 11.4974 60.595 11.5949C60.595 11.6923 60.5757 11.7887 60.5384 11.8777C60.5011 11.9666 60.4466 12.0462 60.3784 12.1113C60.3103 12.1763 60.2301 12.2253 60.143 12.255C60.0559 12.2848 59.9639 12.2947 59.873 12.284" fill="#F1F3F5"/>
<path id="Vector_21" d="M63.3703 10.0386H62.4531V14.9082H62.751L65.4164 11.8845V14.8247H66.3336V9.95508H66.0357L63.3703 12.9537V10.0386Z" fill="#F1F3F5"/>
<path id="Vector_22" d="M70.5567 11.8747H68.5734V10.0371H67.6641V14.8232H68.5734V12.7601H70.5567V14.8232H71.4739V10.0371H70.5567V11.8747Z" fill="#F1F3F5"/>
<path id="Vector_23" d="M73.7063 12.9537V10.0386H72.7891V14.9082H73.0948L75.7601 11.8845V14.8247H76.6773V9.95508H76.3716L73.7063 12.9537Z" fill="#F1F3F5"/>
<path id="Vector_24" d="M80.1872 12.5444L78.2901 9.95508H77.9922V14.8163H78.9094V12.2688L80.0382 13.7722H80.3361L81.465 12.2688V14.8163H82.3743V9.95508H82.0764L80.1872 12.5444Z" fill="#F1F3F5"/>
<path id="Vector_25" d="M84.2612 14.8163L84.512 14.1982H86.3464L86.5972 14.8163H87.585L85.586 9.95508H85.2881L83.2812 14.8163H84.2612ZM85.4292 11.776L86.025 13.388H84.8256L85.4292 11.776Z" fill="#F1F3F5"/>
<path id="Vector_26" d="M88.9893 14.8222H89.9065V10.9299H91.341V10.0361H87.5547V10.9299H88.9893V14.8222Z" fill="#F1F3F5"/>
<path id="Vector_27" d="M95.3387 13.9285H93.1516V12.7257H94.6959V11.8904H93.1516V10.9299H95.2525V10.0361H92.2344V14.8222H95.3387V13.9285Z" fill="#F1F3F5"/>
<path id="Vector_28" d="M99.1276 14.8143H100.053V10.0449H97.1365V10.9303C97.1365 13.0185 96.7837 13.8454 96.0703 13.9373V14.8561C97.1992 14.7725 97.9831 14.0208 98.0066 10.9303H99.1276V14.8143Z" fill="#F1F3F5"/>
<path id="Vector_29" d="M104.84 13.2442C104.839 13.0235 104.794 12.8054 104.709 12.6041C104.624 12.4028 104.501 12.2228 104.346 12.0756C104.192 11.9284 104.01 11.8173 103.813 11.7496C103.616 11.6818 103.407 11.6589 103.201 11.6823H102.284V10.0117H101.406V14.7811H103.241C103.447 14.8045 103.656 14.7814 103.854 14.7131C104.052 14.6449 104.234 14.5331 104.388 14.385C104.543 14.2369 104.666 14.0558 104.751 13.8535C104.835 13.6512 104.879 13.4322 104.879 13.2108L104.84 13.2442ZM103.241 13.9208H102.323V12.5008H103.241C103.417 12.5008 103.587 12.5756 103.712 12.7088C103.837 12.8419 103.907 13.0225 103.907 13.2108C103.907 13.3991 103.837 13.5797 103.712 13.7128C103.587 13.846 103.417 13.9208 103.241 13.9208Z" fill="#F1F3F5"/>
<path id="Vector_30" d="M108.054 14.9063C108.453 14.9145 108.848 14.8079 109.195 14.5977C109.543 14.3876 109.831 14.0816 110.029 13.7119L109.339 13.194C109.217 13.4453 109.033 13.6561 108.806 13.8034C108.58 13.9507 108.319 14.0288 108.054 14.0293C107.86 14.0376 107.668 14.003 107.488 13.9278C107.308 13.8526 107.144 13.7383 107.008 13.5922C106.872 13.4461 106.765 13.2714 106.696 13.0792C106.626 12.887 106.595 12.6815 106.603 12.4757C106.595 12.2684 106.626 12.0614 106.696 11.8675C106.765 11.6736 106.871 11.4968 107.007 11.3481C107.142 11.1995 107.305 11.082 107.486 11.003C107.666 10.924 107.859 10.8851 108.054 10.8887C108.319 10.8901 108.579 10.9686 108.806 11.1158C109.032 11.263 109.217 11.4733 109.339 11.7239L110.029 11.1977C109.829 10.8302 109.541 10.5264 109.193 10.3178C108.846 10.1093 108.452 10.0035 108.054 10.0117C107.719 9.95662 107.376 9.97947 107.05 10.0786C106.724 10.1778 106.422 10.351 106.164 10.5862C105.907 10.8214 105.7 11.1132 105.559 11.4415C105.417 11.7698 105.344 12.1269 105.344 12.4882C105.344 12.8496 105.417 13.2066 105.559 13.5349C105.7 13.8632 105.907 14.155 106.164 14.3902C106.422 14.6255 106.724 14.7986 107.05 14.8978C107.376 14.997 107.719 15.0198 108.054 14.9648" fill="#F1F3F5"/>
<path id="Vector_31" d="M110.773 10.9308H112.208V14.8232H113.117V10.9308H114.56V10.0371H110.773V10.9308Z" fill="#F1F3F5"/>
<path id="Vector_32" d="M118.934 13.4124C118.943 13.1516 118.871 12.8948 118.729 12.6818C118.587 12.4689 118.384 12.3117 118.15 12.2347C118.359 12.0137 118.477 11.7133 118.479 11.3994C118.477 11.2114 118.439 11.0258 118.367 10.8541C118.296 10.6824 118.191 10.5283 118.061 10.4013C117.931 10.2744 117.778 10.1774 117.611 10.1163C117.444 10.0552 117.267 10.0314 117.091 10.0463H115.523V14.8157H117.515C117.7 14.8354 117.886 14.8139 118.063 14.7526C118.24 14.6913 118.403 14.5914 118.541 14.4595C118.68 14.3275 118.791 14.1663 118.868 13.986C118.945 13.8058 118.986 13.6105 118.988 13.4124H118.934ZM116.401 10.9066H117.036C117.413 10.9066 117.617 11.1154 117.617 11.4496C117.617 11.7837 117.413 11.9925 117.036 11.9925H116.401V10.9066ZM116.401 14.0055V12.7776H117.452C117.532 12.7655 117.614 12.772 117.691 12.7969C117.768 12.8217 117.84 12.8642 117.9 12.9215C117.961 12.9787 118.009 13.0493 118.041 13.1283C118.073 13.2073 118.089 13.2929 118.087 13.379C118.087 13.7549 117.852 13.9804 117.452 13.9804L116.401 14.0055Z" fill="#F1F3F5"/>
<path id="Vector_33" d="M121.491 9.95508L119.484 14.8163H120.472L120.723 14.1982H122.573L122.824 14.8163H123.812L121.789 9.95508H121.491ZM121.044 13.388L121.64 11.776L122.236 13.388H121.044Z" fill="#F1F3F5"/>
<path id="Vector_34" d="M38.3649 23.5019V18.6406H38.0513L35.3938 21.6309V18.7242H34.4688V23.5854H34.7745L37.4398 20.5701V23.5019H38.3649Z" fill="#F1F3F5"/>
<path id="Vector_35" d="M42.0078 18.7242V23.5854H42.3057L44.971 20.5701V23.5019H45.8882V18.6406H45.5825L42.925 21.6309V18.7242H42.0078Z" fill="#F1F3F5"/>
<path id="Vector_36" d="M48.1281 21.4392H50.1115V23.5023H51.0286V18.7246H50.1115V20.5538H48.1281V18.7246H47.2109V23.5023H48.1281V21.4392Z" fill="#F1F3F5"/>
<path id="Vector_37" d="M56.1615 23.5023V18.7246H55.2443V20.5538H53.2609V18.7246H52.3438V23.5023H53.2609V21.4392H55.2443V23.5023H56.1615Z" fill="#F1F3F5"/>
<path id="Vector_38" d="M61.977 21.1132C61.977 20.6176 61.8391 20.1332 61.5806 19.7211C61.3222 19.309 60.9549 18.9878 60.5252 18.7982C60.0955 18.6085 59.6226 18.5589 59.1664 18.6556C58.7102 18.7523 58.2912 18.9909 57.9623 19.3414C57.6334 19.6918 57.4094 20.1383 57.3186 20.6244C57.2279 21.1104 57.2745 21.6143 57.4525 22.0722C57.6305 22.53 57.9319 22.9214 58.3186 23.1967C58.7054 23.4721 59.1601 23.619 59.6252 23.619C60.2489 23.619 60.8471 23.355 61.2882 22.8851C61.7292 22.4152 61.977 21.7778 61.977 21.1132ZM58.1593 21.1132C58.1655 20.8104 58.2555 20.5163 58.418 20.2678C58.5806 20.0193 58.8084 19.8276 59.0729 19.7166C59.3374 19.6057 59.6268 19.5804 59.9047 19.6441C60.1826 19.7078 60.4367 19.8576 60.6349 20.0747C60.8332 20.2917 60.9669 20.5663 61.0192 20.864C61.0714 21.1618 61.04 21.4693 60.9288 21.748C60.8175 22.0268 60.6315 22.2643 60.394 22.4307C60.1565 22.5971 59.8781 22.6851 59.5939 22.6835C59.4009 22.6884 59.209 22.6508 59.0303 22.573C58.8516 22.4953 58.6898 22.3791 58.5552 22.2317C58.4205 22.0843 58.3159 21.9089 58.2478 21.7164C58.1796 21.524 58.1495 21.3186 58.1593 21.1132Z" fill="#F1F3F5"/>
<path id="Vector_39" d="M65.6965 20.9217C65.8019 20.8133 65.8859 20.6836 65.9438 20.5402C66.0017 20.3968 66.0322 20.2426 66.0336 20.0865C66.0292 19.8975 65.9881 19.7116 65.9129 19.5404C65.8377 19.3692 65.7302 19.2164 65.5969 19.0917C65.4636 18.9669 65.3075 18.8729 65.1385 18.8156C64.9695 18.7582 64.7912 18.7387 64.6147 18.7584H63.0469V23.5361H65.0459C65.2308 23.5558 65.4176 23.5343 65.5943 23.473C65.7711 23.4117 65.9339 23.3119 66.0725 23.1799C66.2111 23.048 66.3224 22.8867 66.3994 22.7065C66.4764 22.5262 66.5173 22.3309 66.5197 22.1329C66.5267 21.8715 66.4541 21.6147 66.3128 21.401C66.1715 21.1872 65.9691 21.0278 65.7357 20.9468L65.6965 20.9217ZM63.9405 19.5853H64.5598C64.9361 19.5853 65.14 19.8025 65.14 20.1282C65.1418 20.207 65.1275 20.2853 65.0981 20.3576C65.0687 20.4299 65.0249 20.4946 64.9697 20.547C64.9145 20.5995 64.8493 20.6385 64.7785 20.6614C64.7077 20.6843 64.6331 20.6904 64.5598 20.6795H63.9249L63.9405 19.5853ZM64.991 22.6842H63.9405V21.4563H64.991C65.3908 21.4563 65.6338 21.6902 65.6338 22.0577C65.6338 22.4252 65.3908 22.6591 64.991 22.6591" fill="#F1F3F5"/>
<path id="Vector_40" d="M69.0537 18.6406L67.0469 23.5019H68.0346L68.2855 22.8838H70.1199L70.3786 23.5019H71.3585L69.3673 18.6406H69.0537ZM68.6069 22.0736L69.2027 20.4615L69.7984 22.0736H68.6069Z" fill="#F1F3F5"/>
<path id="Vector_41" d="M75.8953 18.7246H74.9781V22.617H73.1672V18.7246H72.25V23.5023H75.5738V24.5214H76.491V22.617H75.8953V18.7246Z" fill="#F1F3F5"/>
<path id="Vector_42" d="M77.5 18.7242V23.5854H77.7979L80.4632 20.5701V23.5019H81.3804V18.6406H81.0747L78.4172 21.6309V18.7242H77.5Z" fill="#F1F3F5"/>
<path id="Vector_43" d="M84.7969 18.641C84.3336 18.6492 83.8828 18.8031 83.5012 19.0834C83.1197 19.3637 82.8243 19.7579 82.6523 20.2164C82.4803 20.675 82.4393 21.1774 82.5344 21.6607C82.6296 22.144 82.8566 22.5866 83.187 22.9329C83.5174 23.2792 83.9365 23.5137 84.3916 23.607C84.8467 23.7004 85.3175 23.6484 85.745 23.4576C86.1724 23.2667 86.5374 22.9456 86.7941 22.5345C87.0509 22.1234 87.1879 21.6406 87.1879 21.1468C87.188 20.8142 87.1259 20.4849 87.0052 20.1781C86.8846 19.8713 86.7079 19.5932 86.4853 19.36C86.2628 19.1267 85.9988 18.943 85.709 18.8196C85.4191 18.6961 85.1091 18.6354 84.7969 18.641ZM84.7969 22.6837C84.5039 22.692 84.2152 22.607 83.9678 22.4396C83.7203 22.2721 83.5253 22.0299 83.4077 21.7438C83.2902 21.4577 83.2553 21.1407 83.3077 20.8334C83.36 20.5261 83.4972 20.2424 83.7017 20.0186C83.9061 19.7948 84.1686 19.641 84.4555 19.577C84.7424 19.5129 85.0407 19.5415 85.3123 19.659C85.5839 19.7766 85.8164 19.9777 85.9802 20.2368C86.1439 20.4958 86.2314 20.801 86.2315 21.1134C86.2413 21.3188 86.2112 21.5241 86.143 21.7166C86.0749 21.909 85.9703 22.0844 85.8356 22.2318C85.701 22.3792 85.5392 22.4954 85.3605 22.5732C85.1818 22.6509 84.9899 22.6885 84.7969 22.6837Z" fill="#F1F3F5"/>
<path id="Vector_44" d="M92.0443 23.5023V18.7246H91.1271V20.5538H89.1438V18.7246H88.2266V23.5023H89.1438V21.4392H91.1271V23.5023H92.0443Z" fill="#F1F3F5"/>
<path id="Vector_45" d="M96.2677 20.5538H94.2844V18.7246H93.3672V23.5023H94.2844V21.4392H96.2677V23.5023H97.1849V18.7246H96.2677V20.5538Z" fill="#F1F3F5"/>
<path id="Vector_46" d="M100.625 18.6406C100.16 18.6406 99.7054 18.7876 99.3186 19.0629C98.9319 19.3383 98.6305 19.7296 98.4525 20.1875C98.2745 20.6454 98.2279 21.1492 98.3186 21.6353C98.4094 22.1214 98.6334 22.5678 98.9623 22.9183C99.2912 23.2687 99.7102 23.5074 100.166 23.6041C100.623 23.7008 101.095 23.6511 101.525 23.4615C101.955 23.2718 102.322 22.9506 102.581 22.5386C102.839 22.1265 102.977 21.642 102.977 21.1464C102.977 20.4818 102.729 19.8445 102.288 19.3746C101.847 18.9046 101.249 18.6406 100.625 18.6406ZM100.625 22.6833C100.234 22.6833 99.8595 22.5179 99.5831 22.2234C99.3067 21.9289 99.1514 21.5295 99.1514 21.113C99.1514 20.6965 99.3067 20.2971 99.5831 20.0026C99.8595 19.7082 100.234 19.5427 100.625 19.5427C101.016 19.5427 101.391 19.7082 101.667 20.0026C101.944 20.2971 102.099 20.6965 102.099 21.113C102.099 21.5295 101.944 21.9289 101.667 22.2234C101.391 22.5179 101.016 22.6833 100.625 22.6833Z" fill="#F1F3F5"/>
<path id="Vector_47" d="M104.047 23.5023H104.964V19.61H106.932V18.7246H104.047V23.5023Z" fill="#F1F3F5"/>
<path id="Vector_48" d="M109.899 18.6406C109.434 18.6406 108.979 18.7876 108.592 19.0629C108.205 19.3383 107.904 19.7296 107.726 20.1875C107.548 20.6454 107.501 21.1492 107.592 21.6353C107.683 22.1214 107.907 22.5678 108.236 22.9183C108.565 23.2687 108.984 23.5074 109.44 23.6041C109.896 23.7008 110.369 23.6511 110.799 23.4615C111.228 23.2718 111.596 22.9506 111.854 22.5386C112.112 22.1265 112.25 21.642 112.25 21.1464C112.25 20.4818 112.003 19.8445 111.562 19.3746C111.121 18.9046 110.522 18.6406 109.899 18.6406ZM109.899 22.6833C109.508 22.6833 109.133 22.5179 108.857 22.2234C108.58 21.9289 108.425 21.5295 108.425 21.113C108.425 20.6965 108.58 20.2971 108.857 20.0026C109.133 19.7082 109.508 19.5427 109.899 19.5427C110.29 19.5427 110.664 19.7082 110.941 20.0026C111.217 20.2971 111.372 20.6965 111.372 21.113C111.372 21.5295 111.217 21.9289 110.941 22.2234C110.664 22.5179 110.29 22.6833 109.899 22.6833Z" fill="#F1F3F5"/>
<path id="Vector_49" d="M117.365 18.7246H115.68V23.5023H116.597V21.8318H117.381C117.584 21.8543 117.789 21.8312 117.983 21.7638C118.178 21.6964 118.356 21.5863 118.508 21.4406C118.66 21.2949 118.781 21.1169 118.864 20.9181C118.947 20.7193 118.99 20.5041 118.99 20.2866C118.99 20.069 118.947 19.8538 118.864 19.655C118.781 19.4562 118.66 19.2782 118.508 19.1325C118.356 18.9868 118.178 18.8767 117.983 18.8094C117.789 18.742 117.584 18.7188 117.381 18.7413L117.365 18.7246ZM117.381 20.9715H116.597V19.5849H117.381C117.551 19.5849 117.715 19.6571 117.835 19.7855C117.956 19.914 118.024 20.0882 118.024 20.2699C118.024 20.4515 117.956 20.6257 117.835 20.7542C117.715 20.8826 117.551 20.9548 117.381 20.9548" fill="#F1F3F5"/>
<path id="Vector_50" d="M121.163 18.6406L119.156 23.5019H120.144L120.395 22.8838H122.229L122.48 23.5019H123.468L121.469 18.6406H121.163ZM120.708 22.0736L121.304 20.4615L121.9 22.0736H120.708Z" fill="#F1F3F5"/>
<path id="Vector_51" d="M126.869 20.9792C127.001 20.8699 127.108 20.7291 127.18 20.5681C127.252 20.4072 127.288 20.2304 127.284 20.0521C127.273 19.848 127.222 19.6486 127.136 19.4658C127.05 19.2831 126.93 19.1209 126.784 18.9889C126.637 18.8569 126.467 18.758 126.284 18.6982C126.1 18.6383 125.907 18.6186 125.717 18.6405C125.388 18.6467 125.067 18.7489 124.789 18.9359C124.512 19.123 124.287 19.3877 124.141 19.7013L124.776 20.1857C124.878 20.0054 125.02 19.8546 125.189 19.7468C125.359 19.639 125.551 19.5774 125.748 19.5676C126.132 19.5676 126.383 19.8015 126.383 20.1273C126.383 20.2056 126.368 20.2832 126.338 20.3549C126.309 20.4265 126.265 20.4906 126.21 20.5427C126.155 20.5949 126.09 20.634 126.02 20.6574C125.95 20.6808 125.876 20.688 125.803 20.6785H125.113V21.5138H125.991C126.07 21.5019 126.15 21.508 126.226 21.5319C126.302 21.5558 126.373 21.5968 126.433 21.6522C126.493 21.7076 126.542 21.7761 126.575 21.8531C126.608 21.9301 126.626 22.0138 126.626 22.0985C126.626 22.5078 126.265 22.7416 125.842 22.7416C125.614 22.7414 125.391 22.6771 125.194 22.5554C124.997 22.4337 124.834 22.2588 124.721 22.0484L124.07 22.5328C124.24 22.8763 124.496 23.1619 124.811 23.3569C125.126 23.552 125.486 23.6485 125.85 23.6354C126.261 23.675 126.67 23.5402 126.989 23.2603C127.307 22.9804 127.509 22.5779 127.551 22.1402C127.555 21.9068 127.495 21.6771 127.378 21.4797C127.261 21.2822 127.092 21.1256 126.892 21.0293" fill="#F1F3F5"/>
<path id="Vector_52" d="M131.267 20.9217C131.372 20.8133 131.456 20.6836 131.514 20.5402C131.572 20.3968 131.603 20.2426 131.604 20.0865C131.599 19.8975 131.558 19.7116 131.483 19.5404C131.408 19.3692 131.3 19.2164 131.167 19.0917C131.034 18.9669 130.878 18.8729 130.709 18.8156C130.54 18.7582 130.361 18.7387 130.185 18.7584H128.617V23.5361H130.616C130.801 23.5558 130.988 23.5343 131.165 23.473C131.341 23.4117 131.504 23.3119 131.643 23.1799C131.781 23.048 131.893 22.8867 131.97 22.7065C132.047 22.5262 132.088 22.3309 132.09 22.1329C132.098 21.8712 132.026 21.6138 131.885 21.3997C131.743 21.1857 131.54 21.0266 131.306 20.9468L131.267 20.9217ZM129.519 19.5853H130.146C130.53 19.5853 130.734 19.8025 130.734 20.1282C130.734 20.454 130.53 20.6795 130.146 20.6795H129.519V19.5853ZM130.561 22.6842H129.472V21.4563H130.522C130.602 21.4442 130.684 21.4507 130.761 21.4756C130.839 21.5004 130.91 21.5429 130.97 21.6002C131.031 21.6574 131.079 21.728 131.111 21.807C131.143 21.886 131.159 21.9716 131.157 22.0577C131.157 22.4419 130.922 22.6591 130.522 22.6591" fill="#F1F3F5"/>
<path id="Vector_53" d="M134.003 21.6309V18.7242H133.094V23.5854H133.392L136.057 20.5701V23.5019H136.974V18.6406H136.668L134.003 21.6309Z" fill="#F1F3F5"/>
<path id="Vector_54" d="M137.867 19.61H139.302V23.5023H140.219V19.61H141.654V18.7246H137.867V19.61Z" fill="#F1F3F5"/>
<path id="Vector_55" d="M143.464 21.6309V18.7242H142.555V23.5854H142.853L145.518 20.5701V23.5019H146.443V18.6406H146.129L143.464 21.6309Z" fill="#F1F3F5"/>
<path id="Vector_56" d="M149.437 18.7241C149.217 18.6994 148.996 18.7243 148.786 18.7971C148.576 18.87 148.384 18.9891 148.22 19.1467C148.057 19.3044 147.926 19.497 147.837 19.7121C147.748 19.9271 147.703 20.1597 147.704 20.3946C147.699 20.6719 147.763 20.9457 147.89 21.1879C148.016 21.4301 148.201 21.632 148.426 21.7728L147.359 23.5185H148.386L149.296 22.0401H150.08V23.5102H150.997V18.7241H149.437ZM150.103 21.1714H149.429C149.325 21.1828 149.22 21.1709 149.121 21.1364C149.022 21.1019 148.931 21.0456 148.854 20.9712C148.776 20.8968 148.714 20.8059 148.672 20.7045C148.63 20.603 148.608 20.4931 148.608 20.3821C148.608 20.271 148.63 20.1612 148.672 20.0597C148.714 19.9582 148.776 19.8673 148.854 19.7929C148.931 19.7185 149.022 19.6623 149.121 19.6278C149.22 19.5933 149.325 19.5814 149.429 19.5928H150.103V21.1714Z" fill="#F1F3F5"/>
<path id="Vector_57" d="M34.4688 32.1889H35.3938V28.2965H37.3614V27.4111H34.4688V32.1889Z" fill="#F1F3F5"/>
<path id="Vector_58" d="M40.3283 27.3184C39.8632 27.3184 39.4085 27.4653 39.0218 27.7407C38.635 28.016 38.3336 28.4074 38.1556 28.8652C37.9776 29.3231 37.931 29.8269 38.0218 30.313C38.1125 30.7991 38.3365 31.2456 38.6654 31.596C38.9943 31.9465 39.4133 32.1851 39.8695 32.2818C40.3257 32.3785 40.7986 32.3289 41.2283 32.1392C41.6581 31.9496 42.0254 31.6284 42.2838 31.2163C42.5422 30.8042 42.6801 30.3198 42.6801 29.8242C42.6801 29.1596 42.4323 28.5222 41.9913 28.0523C41.5502 27.5824 40.9521 27.3184 40.3283 27.3184ZM40.3283 31.361C39.9571 31.3321 39.6098 31.1546 39.3563 30.8641C39.1029 30.5735 38.962 30.1916 38.962 29.7949C38.962 29.3983 39.1029 29.0163 39.3563 28.7258C39.6098 28.4353 39.9571 28.2577 40.3283 28.2288C40.6996 28.2577 41.0469 28.4353 41.3004 28.7258C41.5538 29.0163 41.6947 29.3983 41.6947 29.7949C41.6947 30.1916 41.5538 30.5735 41.3004 30.8641C41.0469 31.1546 40.6996 31.3321 40.3283 31.361Z" fill="#F1F3F5"/>
<path id="Vector_59" d="M45.4433 27.4111H43.7578V32.2306H44.675V30.5601H45.4589C45.662 30.5826 45.8673 30.5594 46.0615 30.492C46.2557 30.4247 46.4344 30.3146 46.5861 30.1689C46.7378 30.0232 46.8591 29.8452 46.9421 29.6464C47.0251 29.4476 47.068 29.2324 47.068 29.0148C47.068 28.7973 47.0251 28.5821 46.9421 28.3833C46.8591 28.1845 46.7378 28.0065 46.5861 27.8608C46.4344 27.7151 46.2557 27.605 46.0615 27.5376C45.8673 27.4702 45.662 27.4471 45.4589 27.4696L45.4433 27.4111ZM45.4589 29.6998H44.675V28.3216H45.4589C45.5498 28.3109 45.6418 28.3207 45.7289 28.3505C45.816 28.3803 45.8963 28.4293 45.9644 28.4943C46.0325 28.5593 46.087 28.6389 46.1243 28.7279C46.1616 28.8169 46.1809 28.9132 46.1809 29.0107C46.1809 29.1081 46.1616 29.2045 46.1243 29.2935C46.087 29.3824 46.0325 29.462 45.9644 29.527C45.8963 29.5921 45.816 29.6411 45.7289 29.6708C45.6418 29.7006 45.5498 29.7104 45.4589 29.6998Z" fill="#F1F3F5"/>
<path id="Vector_60" d="M50.2424 27.3184C49.7773 27.3184 49.3226 27.4653 48.9358 27.7407C48.5491 28.016 48.2476 28.4074 48.0696 28.8652C47.8916 29.3231 47.8451 29.8269 47.9358 30.313C48.0266 30.7991 48.2505 31.2456 48.5794 31.596C48.9083 31.9465 49.3274 32.1851 49.7836 32.2818C50.2398 32.3785 50.7127 32.3289 51.1424 32.1392C51.5721 31.9496 51.9394 31.6284 52.1978 31.2163C52.4562 30.8042 52.5942 30.3198 52.5942 29.8242C52.5942 29.1596 52.3464 28.5222 51.9054 28.0523C51.4643 27.5824 50.8661 27.3184 50.2424 27.3184ZM50.2424 31.361C49.8711 31.3321 49.5239 31.1546 49.2704 30.8641C49.0169 30.5735 48.876 30.1916 48.876 29.7949C48.876 29.3983 49.0169 29.0163 49.2704 28.7258C49.5239 28.4353 49.8711 28.2577 50.2424 28.2288C50.6137 28.2577 50.9609 28.4353 51.2144 28.7258C51.4679 29.0163 51.6088 29.3983 51.6088 29.7949C51.6088 30.1916 51.4679 30.5735 51.2144 30.8641C50.9609 31.1546 50.6137 31.3321 50.2424 31.361Z" fill="#F1F3F5"/>
<path id="Vector_61" d="M57.2481 27.4102H54.4652V28.1953C54.4652 29.941 54.1516 30.793 53.5637 31.3025H53.2188V33.1986H54.1359V32.2296H56.9267V33.2403H57.8439V31.3443H57.2481V27.4102ZM56.3388 31.3025H54.5906C55.1708 30.4271 55.4479 29.3643 55.3745 28.2955H56.3701V31.3025H56.3388Z" fill="#F1F3F5"/>
<path id="Vector_62" d="M60.5849 27.3184L58.5859 32.2297H59.5737L59.8167 31.6033H61.6511L61.9098 32.2297H62.8975L60.8985 27.3601L60.5849 27.3184ZM60.1381 30.7597L60.7339 29.1476L61.3218 30.7597H60.1381Z" fill="#F1F3F5"/>
<path id="Vector_63" d="M68.3122 29.9077L66.4151 27.3184H66.1172V32.188H67.0344V29.632L68.1632 31.1439H68.4611L69.59 29.632V32.188H70.4993V27.3184H70.2014L68.3122 29.9077Z" fill="#F1F3F5"/>
<path id="Vector_64" d="M73.969 27.3184C73.5038 27.3184 73.0491 27.4653 72.6624 27.7407C72.2756 28.016 71.9742 28.4074 71.7962 28.8652C71.6182 29.3231 71.5716 29.8269 71.6624 30.313C71.7531 30.7991 71.9771 31.2456 72.306 31.596C72.6349 31.9465 73.054 32.1851 73.5102 32.2818C73.9664 32.3785 74.4392 32.3289 74.869 32.1392C75.2987 31.9496 75.666 31.6284 75.9244 31.2163C76.1828 30.8042 76.3207 30.3198 76.3207 29.8242C76.3207 29.1596 76.073 28.5222 75.6319 28.0523C75.1909 27.5824 74.5927 27.3184 73.969 27.3184ZM73.969 31.361C73.5977 31.3321 73.2504 31.1546 72.9969 30.8641C72.7435 30.5735 72.6026 30.1916 72.6026 29.7949C72.6026 29.3983 72.7435 29.0163 72.9969 28.7258C73.2504 28.4353 73.5977 28.2577 73.969 28.2288C74.3402 28.2577 74.6875 28.4353 74.941 28.7258C75.1944 29.0163 75.3353 29.3983 75.3353 29.7949C75.3353 30.1916 75.1944 30.5735 74.941 30.8641C74.6875 31.1546 74.3402 31.3321 73.969 31.361Z" fill="#F1F3F5"/>
<path id="Vector_65" d="M79.5783 28.2288C79.8438 28.2293 80.1041 28.3074 80.3308 28.4547C80.5575 28.602 80.7419 28.8128 80.8639 29.0641L81.5538 28.5462C81.3561 28.1759 81.0681 27.8694 80.7204 27.6592C80.3726 27.4489 79.978 27.3427 79.5783 27.3518C79.2416 27.2926 78.8969 27.3122 78.568 27.4092C78.2392 27.5062 77.9341 27.6783 77.6739 27.9135C77.4137 28.1488 77.2047 28.4415 77.0613 28.7714C76.918 29.1014 76.8438 29.4606 76.8438 29.8242C76.8438 30.1877 76.918 30.5469 77.0613 30.8769C77.2047 31.2068 77.4137 31.4995 77.6739 31.7348C77.9341 31.97 78.2392 32.1421 78.568 32.2391C78.8969 32.3361 79.2416 32.3557 79.5783 32.2965C79.9783 32.3062 80.3733 32.2012 80.7222 31.9925C81.0711 31.7839 81.361 31.4793 81.5616 31.1105L80.8718 30.5842C80.7491 30.8349 80.5645 31.0452 80.338 31.1924C80.1114 31.3396 79.8515 31.4181 79.5861 31.4195C79.2148 31.3906 78.8676 31.2131 78.6141 30.9225C78.3606 30.632 78.2198 30.25 78.2198 29.8534C78.2198 29.4567 78.3606 29.0748 78.6141 28.7843C78.8676 28.4937 79.2148 28.3162 79.5861 28.2873" fill="#F1F3F5"/>
<path id="Vector_66" d="M86.2705 27.4102H85.1808L83.4719 29.6236V27.4102H82.5547V32.1879H83.4719V29.6904L85.3925 32.1879H86.4978L84.5537 29.6654L86.2705 27.4102Z" fill="#F1F3F5"/>
<path id="Vector_67" d="M90.0637 29.5995C90.1698 29.4916 90.2543 29.362 90.3122 29.2185C90.3701 29.0749 90.4003 28.9204 90.4008 28.7642C90.3964 28.5753 90.3553 28.3893 90.2801 28.2181C90.2049 28.0469 90.0974 27.8941 89.9641 27.7694C89.8308 27.6447 89.6747 27.5507 89.5057 27.4933C89.3367 27.4359 89.1583 27.4165 88.9819 27.4361H87.4141V32.2306H89.4131C89.5978 32.2502 89.7842 32.2289 89.9609 32.1682C90.1375 32.1075 90.3005 32.0085 90.4395 31.8776C90.5786 31.7466 90.6908 31.5865 90.7692 31.4072C90.8475 31.2279 90.8902 31.0334 90.8947 30.8357C90.9034 30.5729 90.8317 30.3142 90.6902 30.0987C90.5488 29.8833 90.3454 29.7227 90.1108 29.6412L90.0637 29.5995ZM88.3234 28.2881H88.9584C89.3347 28.2881 89.5385 28.4969 89.5385 28.831C89.5404 28.9098 89.5261 28.9881 89.4967 29.0604C89.4673 29.1327 89.4235 29.1974 89.3683 29.2498C89.3131 29.3023 89.2478 29.3413 89.177 29.3642C89.1063 29.3871 89.0316 29.3932 88.9584 29.3823H88.3234V28.2881ZM89.3739 31.3869H88.3234V30.1424H89.3739C89.4559 30.1278 89.5399 30.1324 89.62 30.1559C89.7002 30.1794 89.7746 30.2212 89.8381 30.2784C89.9015 30.3357 89.9525 30.407 89.9875 30.4873C90.0224 30.5677 90.0405 30.6552 90.0405 30.7438C90.0405 30.8324 90.0224 30.9199 89.9875 31.0003C89.9525 31.0806 89.9015 31.1519 89.8381 31.2091C89.7746 31.2664 89.7002 31.3082 89.62 31.3317C89.5399 31.3552 89.4559 31.3598 89.3739 31.3452" fill="#F1F3F5"/>
<path id="Vector_68" d="M93.7094 29.0563H92.7844V27.3857H91.8672V32.2303H93.7016C93.9102 32.2585 94.1221 32.239 94.3231 32.1732C94.5241 32.1074 94.7097 31.9967 94.8675 31.8485C95.0252 31.7004 95.1516 31.5182 95.2382 31.314C95.3247 31.1097 95.3695 30.8882 95.3695 30.6642C95.3695 30.4401 95.3247 30.2186 95.2382 30.0144C95.1516 29.8102 95.0252 29.6279 94.8675 29.4798C94.7097 29.3316 94.5241 29.221 94.3231 29.1552C94.1221 29.0893 93.9102 29.0699 93.7016 29.098L93.7094 29.0563ZM93.7016 31.3616H92.7844V29.95H93.7016C93.7946 29.9392 93.8887 29.9494 93.9778 29.98C94.0669 30.0105 94.149 30.0607 94.2187 30.1273C94.2883 30.1939 94.3441 30.2754 94.3822 30.3664C94.4204 30.4575 94.4401 30.5561 94.4401 30.6558C94.4401 30.7555 94.4204 30.8541 94.3822 30.9452C94.3441 31.0363 94.2883 31.1177 94.2187 31.1843C94.149 31.2509 94.0669 31.3011 93.9778 31.3317C93.8887 31.3622 93.7946 31.3724 93.7016 31.3616Z" fill="#F1F3F5"/>
<path id="Vector_69" d="M97.0422 27.4111H96.125V32.1889H97.0422V27.4111Z" fill="#F1F3F5"/>
</g>
</g>
<defs>
<clipPath id="clip0_1614_6575">
<rect width="151" height="36" fill="white"/>
</clipPath>
</defs>
</svg>
