<svg width="103" height="26" viewBox="0 0 103 26" fill="none" xmlns="http://www.w3.org/2000/svg">
<g clip-path="url(#clip0_3622_20366)">
<path d="M49.3147 7.77628L48.4896 4.37109H46.9608L46.1357 7.77628H46.6451L47.3488 4.83322H48.1012L48.8049 7.77628H49.3147Z" fill="white"/>
<path d="M52.7657 4.37109L51.1155 6.92497H51.0669V4.37109H50.5576V7.77628H51.1155L52.7657 5.22239H52.8143V7.77628H53.324V4.37109H52.7657Z" fill="white"/>
<path d="M55.92 4.83322H56.6238L57.2062 7.31412H55.3375L55.92 4.83322ZM54.9736 7.77628H57.5701V8.36001H58.0799V7.31412H57.716L57.0122 4.37109H55.5315L54.8278 7.31412H54.4639V8.36001H54.9736V7.77628Z" fill="white"/>
<path d="M61.721 7.31412H59.731V6.29259H61.3084V5.83047H59.731V4.83322H61.721V4.37109H59.2217V7.77628H61.721V7.31412Z" fill="white"/>
<path d="M65.8264 5.61155C65.8264 5.44129 65.7925 5.28076 65.7296 5.12996C65.6614 4.97916 65.5691 4.84782 65.4478 4.73593C65.3265 4.62405 65.186 4.53162 65.021 4.46839C64.8511 4.40515 64.6664 4.37109 64.4675 4.37109H62.9873V7.77628H63.4966V6.852H64.4675C64.6664 6.852 64.8511 6.81794 65.021 6.7547C65.186 6.69147 65.3265 6.59906 65.4478 6.48718C65.5691 6.3753 65.6614 6.24394 65.7296 6.09315C65.7925 5.94236 65.8264 5.78182 65.8264 5.61155ZM65.3171 5.61155C65.3171 5.84506 65.244 6.03476 65.0937 6.17581C64.9434 6.31691 64.7347 6.38989 64.4675 6.38989H63.4966V4.83322H64.4675C64.7347 4.83322 64.9434 4.90619 65.0937 5.04726C65.244 5.18833 65.3171 5.37805 65.3171 5.61155Z" fill="white"/>
<path d="M68.4532 7.31412H67.6763V5.95205H68.4532C68.5696 5.95205 68.6762 5.96668 68.7734 6.0007C68.8702 6.03476 68.9527 6.08341 69.0258 6.14664C69.0985 6.20988 69.1521 6.278 69.1958 6.36067C69.2346 6.44338 69.2537 6.53579 69.2537 6.63308C69.2537 6.73038 69.2346 6.81794 69.1958 6.90065C69.1521 6.98336 69.0985 7.05633 69.0258 7.11957C68.9527 7.1828 68.8702 7.22656 68.7734 7.26062C68.6762 7.29468 68.5696 7.31412 68.4532 7.31412ZM69.7635 6.63308C69.7635 6.47255 69.7345 6.32665 69.6712 6.18555C69.6083 6.04935 69.5209 5.92772 69.4089 5.82558C69.2974 5.72344 69.157 5.64073 68.9964 5.5775C68.8363 5.51912 68.6521 5.48994 68.4532 5.48994H67.6763V4.37109H67.167V7.77628H68.4532C68.6521 7.77628 68.8363 7.74706 68.9964 7.68383C69.157 7.62544 69.2974 7.54277 69.4089 7.44063C69.5209 7.33844 69.6083 7.21682 69.6712 7.07577C69.7345 6.93956 69.7635 6.79361 69.7635 6.63308ZM70.7344 7.77628V4.37109H70.2246V7.77628H70.7344Z" fill="white"/>
<path d="M46.3779 13.3349H48.9017V13.9186H49.4115V12.8727H49.023V9.92969H48.5133V12.8727H46.8877V9.92969H46.3779V13.3349Z" fill="white"/>
<path d="M52.813 9.92969L51.1624 12.4836H51.1142V9.92969H50.6045V13.3349H51.1624L52.813 10.781H52.8612V13.3349H53.3709V9.92969H52.813Z" fill="white"/>
<path d="M56.4228 10.539V12.728C56.2239 12.7232 56.0442 12.6891 55.889 12.6307C55.7289 12.5772 55.5977 12.4994 55.4911 12.4021C55.3841 12.3048 55.3016 12.1881 55.2481 12.0567C55.1901 11.9254 55.1607 11.7843 55.1607 11.6335C55.1607 11.4827 55.1901 11.3416 55.2481 11.2103C55.3016 11.079 55.3841 10.9671 55.4911 10.8698C55.5977 10.7725 55.7289 10.6947 55.889 10.6363C56.0442 10.5779 56.2239 10.5439 56.4228 10.539ZM56.9326 12.728V10.539C57.1315 10.5439 57.3112 10.5779 57.4713 10.6363C57.6265 10.6947 57.7576 10.7725 57.8642 10.8698C57.9713 10.9671 58.0538 11.079 58.1117 11.2103C58.1653 11.3416 58.1942 11.4827 58.1942 11.6335C58.1942 11.7843 58.1653 11.9254 58.1117 12.0567C58.0538 12.1881 57.9713 12.3048 57.8642 12.4021C57.7576 12.4994 57.6265 12.5772 57.4713 12.6307C57.3112 12.6891 57.1315 12.7232 56.9326 12.728ZM56.9326 13.5307V13.1901C57.1993 13.1853 57.4419 13.1367 57.6604 13.0491C57.8789 12.9664 58.0631 12.8497 58.2188 12.7086C58.374 12.5675 58.4953 12.407 58.5778 12.2221C58.6603 12.0373 58.704 11.8427 58.704 11.6335C58.704 11.4244 58.6603 11.2298 58.5778 11.0449C58.4953 10.86 58.374 10.6947 58.2188 10.5536C58.0631 10.4125 57.8789 10.3006 57.6604 10.2131C57.4419 10.1304 57.1993 10.0817 56.9326 10.0769V9.73633H56.4228V10.0769C56.1557 10.0817 55.913 10.1304 55.695 10.2131C55.4764 10.3006 55.2918 10.4125 55.1366 10.5536C54.9814 10.6947 54.8601 10.86 54.7776 11.0449C54.6951 11.2298 54.6514 11.4244 54.6514 11.6335C54.6514 11.8427 54.6951 12.0373 54.7776 12.2221C54.8601 12.407 54.9814 12.5675 55.1366 12.7086C55.2918 12.8497 55.4764 12.9664 55.695 13.0491C55.913 13.1367 56.1557 13.1853 56.4228 13.1901V13.5307H56.9326Z" fill="white"/>
<path d="M62.8347 11.1701C62.8347 10.9999 62.8003 10.8394 62.7375 10.6885C62.6692 10.5377 62.5774 10.4064 62.456 10.2946C62.3347 10.1827 62.1938 10.0902 62.0288 10.027C61.8589 9.96375 61.6742 9.92969 61.4753 9.92969H59.9951V13.3349H60.5049V12.4106H61.4753C61.6742 12.4106 61.8589 12.3766 62.0288 12.3133C62.1938 12.2501 62.3347 12.1576 62.456 12.0458C62.5774 11.9339 62.6692 11.8025 62.7375 11.6517C62.8003 11.5009 62.8347 11.3404 62.8347 11.1701ZM62.3249 11.1701C62.3249 11.4036 62.2522 11.5933 62.1015 11.7344C61.9512 11.8755 61.7425 11.9485 61.4753 11.9485H60.5049V10.3918H61.4753C61.7425 10.3918 61.9512 10.4648 62.1015 10.6059C62.2522 10.7469 62.3249 10.9366 62.3249 11.1701Z" fill="white"/>
<path d="M67.6352 11.6337C67.6352 11.3759 67.5866 11.1375 67.4898 10.9137C67.3926 10.69 67.2615 10.4954 67.0965 10.3251C66.9315 10.1598 66.7375 10.0284 66.5189 9.9311C66.3004 9.83381 66.0627 9.78516 65.8152 9.78516C65.5677 9.78516 65.3299 9.83381 65.1114 9.9311C64.8929 10.0284 64.6989 10.1598 64.5339 10.3251C64.3689 10.4954 64.2377 10.69 64.1405 10.9137C64.0437 11.1375 63.9951 11.3759 63.9951 11.6337C63.9951 11.8915 64.0437 12.1299 64.1405 12.3537C64.2377 12.5774 64.3689 12.772 64.5339 12.9374C64.6989 13.1077 64.8929 13.239 65.1114 13.3363C65.3299 13.4336 65.5677 13.4822 65.8152 13.4822C66.0627 13.4822 66.3004 13.4336 66.5189 13.3363C66.7375 13.239 66.9315 13.1077 67.0965 12.9374C67.2615 12.772 67.3926 12.5774 67.4898 12.3537C67.5866 12.1299 67.6352 11.8915 67.6352 11.6337ZM64.5049 11.6337C64.5049 11.4391 64.5388 11.2591 64.6115 11.0889C64.6842 10.9186 64.7765 10.7727 64.8978 10.6462C65.0191 10.5246 65.1551 10.4273 65.3152 10.3543C65.4753 10.2813 65.6403 10.2473 65.8152 10.2473C65.99 10.2473 66.155 10.2813 66.3151 10.3543C66.4752 10.4273 66.6112 10.5246 66.7326 10.6462C66.8539 10.7727 66.9462 10.9186 67.0189 11.0889C67.0916 11.2591 67.1255 11.4391 67.1255 11.6337C67.1255 11.8283 67.0916 12.0083 67.0189 12.1785C66.9462 12.3488 66.8539 12.4947 66.7326 12.6163C66.6112 12.7428 66.4752 12.8401 66.3151 12.9131C66.155 12.986 65.99 13.0201 65.8152 13.0201C65.6403 13.0201 65.4753 12.986 65.3152 12.9131C65.1551 12.8401 65.0191 12.7428 64.8978 12.6163C64.7765 12.4947 64.6842 12.3488 64.6115 12.1785C64.5388 12.0083 64.5049 11.8283 64.5049 11.6337Z" fill="white"/>
<path d="M69.458 10.3918H70.4044C70.5743 10.3918 70.7099 10.4356 70.8022 10.5183C70.8945 10.601 70.9382 10.708 70.9382 10.8296C70.9382 10.9658 70.8945 11.0777 70.8022 11.1604C70.7099 11.248 70.5743 11.2918 70.4044 11.2918H69.458V10.3918ZM70.647 12.8727H69.458V11.7539H70.647C70.8655 11.7539 71.0354 11.8074 71.1518 11.9144C71.2682 12.0263 71.3267 12.1576 71.3267 12.3133C71.3267 12.4739 71.2682 12.6052 71.1518 12.7122C71.0354 12.8192 70.8655 12.8727 70.647 12.8727ZM70.4044 9.92969H68.9482V13.3349H70.647C70.8267 13.3349 70.9917 13.3057 71.142 13.2521C71.2874 13.1987 71.4136 13.1257 71.5158 13.0333C71.6179 12.9408 71.7004 12.8338 71.7535 12.7073C71.807 12.5857 71.836 12.4544 71.836 12.3133C71.836 12.1187 71.7972 11.9631 71.7147 11.8512C71.6322 11.7393 71.5447 11.6566 71.448 11.5982C71.336 11.5301 71.2049 11.4863 71.0595 11.462V11.4377C71.1322 11.4134 71.1955 11.3696 71.2535 11.3161C71.3021 11.2723 71.3458 11.209 71.3895 11.1312C71.4283 11.0534 71.448 10.9513 71.448 10.8296C71.448 10.708 71.4234 10.5913 71.3748 10.4794C71.3218 10.3724 71.2535 10.2751 71.1616 10.1924C71.0693 10.1097 70.9623 10.0465 70.8361 9.99781C70.7054 9.95401 70.5645 9.92969 70.4044 9.92969Z" fill="white"/>
<path d="M76.5962 11.6337C76.5962 11.3759 76.5475 11.1375 76.4508 10.9137C76.3535 10.69 76.2224 10.4954 76.0574 10.3251C75.8924 10.1598 75.6984 10.0284 75.4799 9.9311C75.2613 9.83381 75.0236 9.78516 74.7761 9.78516C74.5286 9.78516 74.2909 9.83381 74.0724 9.9311C73.8538 10.0284 73.6598 10.1598 73.4948 10.3251C73.3298 10.4954 73.1987 10.69 73.1014 10.9137C73.0047 11.1375 72.9561 11.3759 72.9561 11.6337C72.9561 11.8915 73.0047 12.1299 73.1014 12.3537C73.1987 12.5774 73.3298 12.772 73.4948 12.9374C73.6598 13.1077 73.8538 13.239 74.0724 13.3363C74.2909 13.4336 74.5286 13.4822 74.7761 13.4822C75.0236 13.4822 75.2613 13.4336 75.4799 13.3363C75.6984 13.239 75.8924 13.1077 76.0574 12.9374C76.2224 12.772 76.3535 12.5774 76.4508 12.3537C76.5475 12.1299 76.5962 11.8915 76.5962 11.6337ZM73.4654 11.6337C73.4654 11.4391 73.4997 11.2591 73.5724 11.0889C73.6451 10.9186 73.7374 10.7727 73.8587 10.6462C73.98 10.5246 74.1161 10.4273 74.2762 10.3543C74.4363 10.2813 74.6013 10.2473 74.7761 10.2473C74.9509 10.2473 75.116 10.2813 75.2761 10.3543C75.4362 10.4273 75.5722 10.5246 75.6935 10.6462C75.8148 10.7727 75.9071 10.9186 75.9798 11.0889C76.0525 11.2591 76.0864 11.4391 76.0864 11.6337C76.0864 11.8283 76.0525 12.0083 75.9798 12.1785C75.9071 12.3488 75.8148 12.4947 75.6935 12.6163C75.5722 12.7428 75.4362 12.8401 75.2761 12.9131C75.116 12.986 74.9509 13.0201 74.7761 13.0201C74.6013 13.0201 74.4363 12.986 74.2762 12.9131C74.1161 12.8401 73.98 12.7428 73.8587 12.6163C73.7374 12.4947 73.6451 12.3488 73.5724 12.1785C73.4997 12.0083 73.4654 11.8283 73.4654 11.6337Z" fill="white"/>
<path d="M79.2922 9.5413C79.3943 9.5413 79.4915 9.52182 79.5789 9.48776C79.6614 9.45374 79.739 9.40509 79.8019 9.34186C79.8653 9.27862 79.9134 9.20565 79.9478 9.11809C79.9817 9.03538 79.9964 8.93808 79.9964 8.83594H79.6079C79.6079 8.93323 79.5789 9.01105 79.5254 9.06455C79.467 9.12294 79.3894 9.15211 79.2922 9.15211C79.1954 9.15211 79.1178 9.12294 79.0643 9.06455C79.0058 9.01105 78.9769 8.93323 78.9769 8.83594H78.5884C78.5884 8.93808 78.608 9.03538 78.6419 9.11809C78.6758 9.20565 78.7244 9.27862 78.7878 9.34186C78.8506 9.40509 78.9233 9.45374 79.0108 9.48776C79.0933 9.52182 79.1905 9.5413 79.2922 9.5413ZM80.1177 9.93044L78.4671 12.4843H78.4189V9.93044H77.9092V13.3356H78.4671L80.1177 10.7817H80.1658V13.3356H80.6756V9.93044H80.1177Z" fill="white"/>
<path d="M46.0889 15.9521H47.2292V18.8951H47.739V15.9521H48.8798V15.49H46.0889V15.9521Z" fill="white"/>
<path d="M52.9124 16.7307C52.9124 16.5604 52.8785 16.3999 52.8156 16.2491C52.7473 16.0983 52.6555 15.9669 52.5342 15.8551C52.4129 15.7432 52.2719 15.6508 52.1069 15.5875C51.937 15.5243 51.7524 15.4902 51.5535 15.4902H50.0732V18.8954H50.583V17.9711H51.5535C51.7524 17.9711 51.937 17.9371 52.1069 17.8738C52.2719 17.8106 52.4129 17.7181 52.5342 17.6063C52.6555 17.4944 52.7473 17.3631 52.8156 17.2123C52.8785 17.0614 52.9124 16.9009 52.9124 16.7307ZM52.4031 16.7307C52.4031 16.9642 52.3304 17.1539 52.1796 17.2949C52.0293 17.436 51.8206 17.509 51.5535 17.509H50.583V15.9524H51.5535C51.8206 15.9524 52.0293 16.0253 52.1796 16.1664C52.3304 16.3075 52.4031 16.4972 52.4031 16.7307Z" fill="white"/>
<path d="M54.5952 17.6306L54.9983 15.9524H55.7021L56.0999 17.6306H54.5952ZM54.5858 15.4902L53.7607 18.8954H54.2946L54.4837 18.0927H56.2114L56.4059 18.8954H56.9397L56.1146 15.4902H54.5858Z" fill="white"/>
<path d="M58.1826 15.4902V18.8954H58.6924V17.436H60.4157V18.8954H60.925V15.4902H60.4157V16.9739H58.6924V15.4902H58.1826Z" fill="white"/>
<path d="M64.0009 19.0408C64.2244 19.0408 64.4282 19.0067 64.6124 18.9435C64.797 18.8754 64.9571 18.7878 65.0976 18.6759C65.2385 18.5689 65.3549 18.4473 65.4473 18.3111C65.5396 18.1749 65.6074 18.0387 65.6511 17.8976L65.1413 17.8246C65.0976 17.9219 65.0445 18.0143 64.9763 18.1068C64.9085 18.1992 64.826 18.2771 64.7337 18.3451C64.6414 18.4181 64.5348 18.4716 64.4135 18.5154C64.2922 18.5592 64.1512 18.5787 64.0009 18.5787C63.8359 18.5787 63.6758 18.5446 63.5251 18.4716C63.3748 18.3986 63.2387 18.3014 63.1223 18.1749C63.0059 18.0533 62.9136 17.9074 62.8458 17.7371C62.7727 17.5668 62.7388 17.3869 62.7388 17.1923C62.7388 16.9977 62.7727 16.8177 62.8458 16.6474C62.9136 16.4772 63.0059 16.3312 63.1223 16.2047C63.2387 16.0831 63.3748 15.9859 63.5251 15.9129C63.6758 15.8399 63.8359 15.8059 64.0009 15.8059C64.1419 15.8059 64.2676 15.8253 64.3796 15.8643C64.4911 15.9032 64.5932 15.9518 64.6806 16.015C64.7631 16.0783 64.8358 16.1513 64.8987 16.234C64.962 16.3166 65.0106 16.4042 65.0445 16.4869L65.5538 16.4139C65.5106 16.2826 65.4473 16.1513 65.3598 16.0199C65.2724 15.8934 65.1658 15.7815 65.0347 15.6794C64.9036 15.5773 64.7484 15.4994 64.5785 15.4362C64.4086 15.3729 64.2146 15.3438 64.0009 15.3438C63.7632 15.3438 63.5398 15.3924 63.3262 15.4897C63.1125 15.5869 62.9234 15.7183 62.7633 15.8837C62.5983 16.054 62.4672 16.2485 62.3749 16.4723C62.2777 16.6961 62.2295 16.9344 62.2295 17.1923C62.2295 17.4501 62.2777 17.6884 62.3749 17.9122C62.4672 18.136 62.5983 18.3306 62.7633 18.4959C62.9234 18.6662 63.1125 18.7976 63.3262 18.8948C63.5398 18.9921 63.7632 19.0408 64.0009 19.0408Z" fill="white"/>
<path d="M68.4931 16.0976V18.2866C68.2942 18.2817 68.1145 18.2477 67.9593 18.1893C67.7992 18.1358 67.6681 18.058 67.561 17.9607C67.4544 17.8634 67.3719 17.7466 67.3184 17.6153C67.2604 17.484 67.231 17.3429 67.231 17.1921C67.231 17.0413 67.2604 16.9002 67.3184 16.7689C67.3719 16.6375 67.4544 16.5256 67.561 16.4283C67.6681 16.3311 67.7992 16.2532 67.9593 16.1948C68.1145 16.1365 68.2942 16.1024 68.4931 16.0976ZM69.0029 18.2866V16.0976C69.2018 16.1024 69.3811 16.1365 69.5416 16.1948C69.6968 16.2532 69.8279 16.3311 69.9345 16.4283C70.0416 16.5256 70.1241 16.6375 70.1821 16.7689C70.2356 16.9002 70.2646 17.0413 70.2646 17.1921C70.2646 17.3429 70.2356 17.484 70.1821 17.6153C70.1241 17.7466 70.0416 17.8634 69.9345 17.9607C69.8279 18.058 69.6968 18.1358 69.5416 18.1893C69.3811 18.2477 69.2018 18.2817 69.0029 18.2866ZM69.0029 19.0892V18.7487C69.2696 18.7438 69.5122 18.6952 69.7307 18.6076C69.9493 18.525 70.1334 18.4082 70.2891 18.2671C70.4443 18.1261 70.5656 17.9655 70.6481 17.7807C70.7306 17.5959 70.7743 17.4013 70.7743 17.1921C70.7743 16.9829 70.7306 16.7883 70.6481 16.6034C70.5656 16.4186 70.4443 16.2532 70.2891 16.1122C70.1334 15.9711 69.9493 15.8592 69.7307 15.7716C69.5122 15.689 69.2696 15.6403 69.0029 15.6354V15.2949H68.4931V15.6354C68.226 15.6403 67.9834 15.689 67.7648 15.7716C67.5467 15.8592 67.3621 15.9711 67.2069 16.1122C67.0517 16.2532 66.9304 16.4186 66.8479 16.6034C66.7649 16.7883 66.7217 16.9829 66.7217 17.1921C66.7217 17.4013 66.7649 17.5959 66.8479 17.7807C66.9304 17.9655 67.0517 18.1261 67.2069 18.2671C67.3621 18.4082 67.5467 18.525 67.7648 18.6076C67.9834 18.6952 68.226 18.7438 68.4931 18.7487V19.0892H69.0029Z" fill="white"/>
<path d="M75.5258 17.1923C75.5258 16.9344 75.4772 16.6961 75.3805 16.4723C75.2832 16.2485 75.1521 16.054 74.9871 15.8837C74.8221 15.7183 74.6281 15.5869 74.4096 15.4897C74.191 15.3924 73.9533 15.3438 73.7058 15.3438C73.4583 15.3438 73.2206 15.3924 73.002 15.4897C72.7835 15.5869 72.5895 15.7183 72.4245 15.8837C72.2595 16.054 72.1284 16.2485 72.0311 16.4723C71.9344 16.6961 71.8857 16.9344 71.8857 17.1923C71.8857 17.4501 71.9344 17.6884 72.0311 17.9122C72.1284 18.136 72.2595 18.3306 72.4245 18.4959C72.5895 18.6662 72.7835 18.7976 73.002 18.8948C73.2206 18.9921 73.4583 19.0408 73.7058 19.0408C73.9533 19.0408 74.191 18.9921 74.4096 18.8948C74.6281 18.7976 74.8221 18.6662 74.9871 18.4959C75.1521 18.3306 75.2832 18.136 75.3805 17.9122C75.4772 17.6884 75.5258 17.4501 75.5258 17.1923ZM72.3955 17.1923C72.3955 16.9977 72.4294 16.8177 72.5021 16.6474C72.5748 16.4772 72.6671 16.3312 72.7884 16.2047C72.9097 16.0831 73.0457 15.9859 73.2058 15.9129C73.366 15.8399 73.531 15.8059 73.7058 15.8059C73.8806 15.8059 74.0456 15.8399 74.2057 15.9129C74.3658 15.9859 74.5019 16.0831 74.6232 16.2047C74.7445 16.3312 74.8368 16.4772 74.9095 16.6474C74.9822 16.8177 75.0161 16.9977 75.0161 17.1923C75.0161 17.3869 74.9822 17.5668 74.9095 17.7371C74.8368 17.9074 74.7445 18.0533 74.6232 18.1749C74.5019 18.3014 74.3658 18.3986 74.2057 18.4716C74.0456 18.5446 73.8806 18.5787 73.7058 18.5787C73.531 18.5787 73.366 18.5446 73.2058 18.4716C73.0457 18.3986 72.9097 18.3014 72.7884 18.1749C72.6671 18.0533 72.5748 17.9074 72.5021 17.7371C72.4294 17.5668 72.3955 17.3869 72.3955 17.1923Z" fill="white"/>
<path d="M79.678 16.7307C79.678 16.5604 79.6441 16.3999 79.5812 16.2491C79.513 16.0983 79.4211 15.9669 79.2998 15.8551C79.1785 15.7432 79.0376 15.6508 78.8725 15.5875C78.7026 15.5243 78.518 15.4902 78.3191 15.4902H76.8389V18.8954H77.3486V17.9711H78.3191C78.518 17.9711 78.7026 17.9371 78.8725 17.8738C79.0376 17.8106 79.1785 17.7181 79.2998 17.6063C79.4211 17.4944 79.513 17.3631 79.5812 17.2123C79.6441 17.0614 79.678 16.9009 79.678 16.7307ZM79.1687 16.7307C79.1687 16.9642 79.0955 17.1539 78.9452 17.2949C78.7949 17.436 78.5862 17.509 78.3191 17.509H77.3486V15.9524H78.3191C78.5862 15.9524 78.7949 16.0253 78.9452 16.1664C79.0955 16.3075 79.1687 16.4972 79.1687 16.7307Z" fill="white"/>
<path d="M82.7581 17.7036L83.9471 16.2199H83.9957V18.8954H84.505V15.4902H83.9471L82.7581 16.9739L81.5687 15.4902H81.0107V18.8954H81.5201V16.2199H81.5687L82.7581 17.7036Z" fill="white"/>
<path d="M86.58 17.6306L86.9832 15.9524H87.6869L88.0847 17.6306H86.58ZM86.5706 15.4902L85.7451 18.8954H86.2794L86.4685 18.0927H88.1962L88.3907 18.8954H88.9245L88.0995 15.4902H86.5706Z" fill="white"/>
<path d="M90.167 18.8954H92.6913V19.4791H93.2006V18.4332H92.8126V15.4902H92.3028V18.4332H90.6768V15.4902H90.167V18.8954Z" fill="white"/>
<path d="M96.5942 15.4902L94.9441 18.0441H94.8955V15.4902H94.3857V18.8954H94.9441L96.5942 16.3415H96.6429V18.8954H97.1526V15.4902H96.5942Z" fill="white"/>
<path d="M100.844 15.4902L99.1937 18.0441H99.1451V15.4902H98.6357V18.8954H99.1937L100.844 16.3415H100.892V18.8954H101.402V15.4902H100.844Z" fill="white"/>
<path d="M19.4593 5.94514C19.1565 5.93942 18.8567 5.99835 18.5775 6.11731C18.4322 6.17918 18.3476 6.3348 18.3476 6.50038V15.0891C18.3476 15.1266 18.3189 15.1569 18.2835 15.1569C18.2481 15.1569 18.2193 15.1266 18.2193 15.0891V9.98603C18.2193 9.93584 18.1809 9.89652 18.1338 9.90274C18.1144 9.90531 18.095 9.90788 18.0756 9.90923C18.0605 9.91032 18.0483 9.89733 18.0483 9.88137C18.0483 9.86446 18.0346 9.85115 18.0186 9.85264C17.5652 9.89512 17.2052 9.98761 17.07 10.2263C17.0431 10.2739 17.0164 10.3226 16.992 10.3717C16.9637 10.4288 16.9492 10.4931 16.9509 10.5586V15.3228C16.9509 15.3977 16.8935 15.4585 16.8226 15.4585H16.7656C16.7263 15.4585 16.6944 15.4922 16.6944 15.5339C16.6944 15.5755 16.6624 15.6092 16.6231 15.6092H16.5661C16.4953 15.6092 16.4378 15.67 16.4378 15.7449V16.4158C16.4378 16.445 16.4155 16.4686 16.3879 16.4686C16.3604 16.4686 16.3381 16.4922 16.3381 16.5214V16.7023C16.3381 16.7148 16.3285 16.7249 16.3167 16.7249C16.3049 16.7249 16.2953 16.735 16.2953 16.7475V17.4109C16.2953 17.4817 16.2411 17.539 16.1742 17.539C16.1073 17.539 16.0531 17.4817 16.0531 17.4109V15.6783C16.0531 15.6625 16.0506 15.6468 16.0459 15.6318L16.0451 15.6292C16.0409 15.616 16.0388 15.6021 16.0388 15.5882V15.4818C16.0388 15.4689 16.0289 15.4585 16.0167 15.4585C16.0051 15.4585 15.9955 15.4489 15.9947 15.4366L15.9818 15.2173L15.972 15.0936C15.9692 15.0573 15.996 15.0275 15.996 14.9911C15.996 14.9791 15.9915 14.9676 15.9835 14.9591C15.9755 14.9506 15.9646 14.9458 15.9533 14.9458C15.9419 14.9458 15.9311 14.9506 15.923 14.9591C15.915 14.9676 15.9105 14.9791 15.9105 14.9911C15.9105 15.0264 15.9374 15.0566 15.9346 15.0918L15.9247 15.2173L15.9118 15.4366C15.9111 15.4489 15.9014 15.4585 15.8898 15.4585C15.8776 15.4585 15.8678 15.4689 15.8678 15.4818V15.4886C15.8678 15.5053 15.855 15.5187 15.8392 15.5187H15.7557C15.731 15.5187 15.711 15.4976 15.711 15.4714C15.711 15.4541 15.7021 15.4382 15.6877 15.4299L15.5802 15.3679C15.5631 15.3581 15.544 15.3529 15.5246 15.3529C15.5066 15.3529 15.4888 15.3574 15.4727 15.3659L15.3505 15.4305C15.3356 15.4384 15.3262 15.4545 15.3262 15.4722C15.3262 15.4979 15.3065 15.5187 15.2821 15.5187H15.1979C15.1822 15.5187 15.1694 15.5053 15.1694 15.4886V15.4818C15.1694 15.4689 15.1595 15.4585 15.1473 15.4585C15.1357 15.4585 15.1261 15.4489 15.1254 15.4366L15.1124 15.2173L15.1027 15.0936C15.0998 15.0573 15.1266 15.0275 15.1266 14.9911C15.1266 14.9791 15.1222 14.9676 15.1141 14.9591C15.1061 14.9506 15.0952 14.9458 15.0839 14.9458C15.0725 14.9458 15.0617 14.9506 15.0537 14.9591C15.0456 14.9676 15.0411 14.9791 15.0411 14.9911C15.0411 15.0264 15.0681 15.0566 15.0653 15.0918L15.0554 15.2173L15.0416 15.4507C15.0413 15.4549 15.0445 15.4585 15.0485 15.4585C15.0523 15.4585 15.0554 15.4617 15.0554 15.4658V15.5882C15.0554 15.6021 15.0533 15.616 15.0491 15.6292L15.0483 15.6318C15.0436 15.6468 15.0411 15.6625 15.0411 15.6783V16.3027C15.0411 16.3694 14.9901 16.4234 14.9271 16.4234C14.8641 16.4234 14.8131 16.3694 14.8131 16.3027V14.471C14.8131 14.4668 14.8163 14.4634 14.8202 14.4634C14.8242 14.4634 14.8273 14.46 14.8273 14.4558V14.2236C14.8273 14.2062 14.814 14.192 14.7975 14.192C14.7821 14.192 14.7692 14.1796 14.7678 14.1634L14.7418 13.8754L14.7325 13.7273C14.7294 13.6777 14.7704 13.6386 14.7704 13.589C14.7704 13.573 14.7643 13.5576 14.7536 13.5463C14.7429 13.535 14.7285 13.5287 14.7134 13.5287C14.6982 13.5287 14.6837 13.535 14.673 13.5463C14.6623 13.5576 14.6563 13.573 14.6563 13.589C14.6563 13.6377 14.6971 13.6809 14.694 13.7296L14.6848 13.8754L14.6589 14.1634C14.6574 14.1796 14.6446 14.192 14.6292 14.192C14.6127 14.192 14.5993 14.2062 14.5993 14.2236V14.29C14.5993 14.3441 14.5579 14.388 14.5067 14.388H14.4568C14.4096 14.388 14.3713 14.3475 14.3713 14.2976V14.2825C14.3713 14.2408 14.3394 14.2071 14.3 14.2071C14.2607 14.2071 14.2288 14.1733 14.2288 14.1317V12.7226C14.2288 12.7181 14.2254 12.7145 14.2211 12.7145C14.2174 12.7145 14.2141 12.7116 14.2136 12.7076L14.2014 12.617C14.2006 12.6117 14.2003 12.6063 14.2003 12.6009V12.5442C14.2003 12.5374 14.2028 12.5309 14.2074 12.5261C14.212 12.5212 14.2153 12.5139 14.2111 12.5087L14.2104 12.5078L14.2096 12.5071C14.2046 12.5026 14.1977 12.5062 14.1931 12.511L14.1914 12.5129C14.1879 12.5165 14.1856 12.5232 14.1864 12.5283C14.1881 12.5387 14.2003 12.5422 14.2003 12.5528V12.604C14.2003 12.6073 14.2 12.6106 14.1996 12.614L14.187 12.7076C14.1864 12.7116 14.1832 12.7145 14.1794 12.7145C14.1752 12.7145 14.1718 12.7181 14.1718 12.7226V12.7522C14.1718 12.7647 14.1622 12.7748 14.1504 12.7748C14.1386 12.7748 14.129 12.7647 14.129 12.7522V12.7447C14.129 12.728 14.1162 12.7145 14.1005 12.7145H14.0791C14.0673 12.7145 14.0578 12.7044 14.0578 12.6919C14.0578 12.6794 14.0482 12.6693 14.0364 12.6693H14.0073C13.9804 12.6693 13.9581 12.645 13.9682 12.6185C13.9707 12.6121 13.9725 12.6054 13.9725 12.5986C13.9725 12.5608 13.9642 12.5236 13.9482 12.4898C13.9345 12.4606 13.9153 12.4348 13.892 12.4137C13.8803 12.4031 13.8725 12.3882 13.8725 12.3719V12.3457C13.8725 12.3329 13.8627 12.3225 13.8506 12.3225C13.8389 12.3225 13.8293 12.3128 13.8287 12.3005L13.7869 11.3727L13.7593 10.8899C13.7589 10.8834 13.7654 10.8788 13.771 10.8818L13.7735 10.8831C13.7812 10.8872 13.7884 10.8767 13.7823 10.8702C13.7781 10.8658 13.7801 10.8581 13.7856 10.8559C13.8079 10.847 13.8271 10.831 13.8404 10.8098C13.8468 10.7997 13.8517 10.7887 13.8549 10.7772C13.8644 10.7432 13.8631 10.7051 13.8511 10.672C13.8485 10.665 13.8453 10.6581 13.8415 10.6516L13.839 10.6476C13.8355 10.6421 13.8298 10.6491 13.8326 10.655C13.8428 10.6765 13.8467 10.7006 13.844 10.7244C13.8415 10.757 13.829 10.788 13.8084 10.8125C13.8017 10.8204 13.7943 10.8276 13.7862 10.8338C13.7531 10.8595 13.7063 10.8626 13.6721 10.8386C13.6631 10.8323 13.6548 10.8248 13.6476 10.8161C13.6264 10.7909 13.6151 10.7581 13.6159 10.7244C13.6159 10.701 13.6211 10.6779 13.631 10.657C13.6344 10.6498 13.6279 10.6424 13.6236 10.649L13.621 10.6533C13.6084 10.6746 13.6017 10.6993 13.6017 10.7244C13.6022 10.7533 13.6104 10.7815 13.6256 10.8055C13.6386 10.8262 13.6562 10.843 13.6768 10.8547C13.6817 10.8575 13.6829 10.8646 13.679 10.8688C13.6726 10.8755 13.6801 10.8865 13.6881 10.8822C13.6937 10.8793 13.701 10.8834 13.7006 10.8899L13.673 11.3727L13.6312 12.3005C13.6306 12.3128 13.621 12.3225 13.6093 12.3225C13.5973 12.3225 13.5875 12.3329 13.5875 12.3457V12.3728C13.5875 12.3886 13.5802 12.4033 13.5692 12.4139C13.5465 12.4357 13.5278 12.4619 13.514 12.491C13.4967 12.5276 13.4877 12.568 13.4877 12.609C13.4877 12.6391 13.4877 12.6693 13.5019 12.6693H13.4235C13.4117 12.6693 13.4022 12.6794 13.4022 12.6919C13.4022 12.7044 13.3926 12.7145 13.3808 12.7145H13.3594C13.3437 12.7145 13.3309 12.728 13.3309 12.7447V12.7522C13.3309 12.7647 13.3213 12.7748 13.3095 12.7748C13.2977 12.7748 13.2882 12.7647 13.2882 12.7522V12.7226C13.2882 12.7181 13.2847 12.7145 13.2805 12.7145C13.2767 12.7145 13.2735 12.7116 13.2729 12.7076L13.2607 12.617C13.26 12.6117 13.2596 12.6063 13.2596 12.6009V12.5442C13.2596 12.5374 13.2622 12.5309 13.2668 12.5261C13.2713 12.5212 13.2747 12.5139 13.2705 12.5087L13.2697 12.5078C13.2671 12.5051 13.2634 12.5034 13.2596 12.5034C13.2513 12.5047 13.2435 12.5081 13.2368 12.5133C13.233 12.5164 13.2307 12.5232 13.2315 12.5282C13.2332 12.5387 13.2454 12.5422 13.2454 12.5528V12.604C13.2454 12.6073 13.2452 12.6106 13.2447 12.614L13.2321 12.7076C13.2316 12.7116 13.2283 12.7145 13.2245 12.7145C13.2203 12.7145 13.2169 12.7181 13.2169 12.7226V14.1392C13.2169 14.1851 13.1818 14.2222 13.1385 14.2222C13.0952 14.2222 13.0601 14.2593 13.0601 14.3051V14.3126C13.0601 14.3626 13.0218 14.4031 12.9746 14.4031H12.9247C12.8736 14.4031 12.8321 14.3592 12.8321 14.3051V14.2387C12.8321 14.2212 12.8187 14.2071 12.8022 14.2071C12.7868 14.2071 12.774 14.1947 12.7725 14.1785L12.7466 13.8905L12.7373 13.7423C12.7341 13.6928 12.7751 13.6537 12.7751 13.604C12.7751 13.5881 12.7691 13.5727 12.7584 13.5614C12.7477 13.5501 12.7332 13.5437 12.7181 13.5437C12.7029 13.5437 12.6884 13.5501 12.6777 13.5614C12.6671 13.5727 12.6611 13.5881 12.6611 13.604C12.6611 13.6528 12.7018 13.696 12.6988 13.7447L12.6896 13.8905L12.6624 14.1928C12.6616 14.2009 12.6552 14.2071 12.6475 14.2071C12.6393 14.2071 12.6326 14.2142 12.6326 14.2229V14.471C12.6326 14.4751 12.6358 14.4785 12.6397 14.4785C12.6436 14.4785 12.6468 14.4819 12.6468 14.486V16.1821C12.6468 16.3237 12.5384 16.4384 12.4045 16.4384C12.2707 16.4384 12.1623 16.3237 12.1623 16.1821V15.6934C12.1623 15.6776 12.1598 15.6619 12.1551 15.6469L12.1543 15.6443C12.1501 15.631 12.148 15.6172 12.148 15.6033V15.4969C12.148 15.484 12.1381 15.4735 12.1259 15.4735C12.1143 15.4735 12.1047 15.464 12.1039 15.4516L12.091 15.2323L12.0813 15.1087C12.0784 15.0723 12.1052 15.0426 12.1052 15.0062C12.1052 14.9942 12.1007 14.9827 12.0927 14.9742C12.0847 14.9657 12.0738 14.9609 12.0625 14.9609C12.0511 14.9609 12.0403 14.9657 12.0322 14.9742C12.0242 14.9827 12.0197 14.9942 12.0197 15.0062C12.0197 15.0414 12.0466 15.0716 12.0439 15.1068L12.034 15.2323L12.021 15.4516C12.0203 15.464 12.0107 15.4735 11.999 15.4735C11.9868 15.4735 11.977 15.484 11.977 15.4969V15.5037C11.977 15.5203 11.9642 15.5339 11.9485 15.5339H11.8738C11.8442 15.5339 11.8202 15.5084 11.8202 15.4771C11.8202 15.4563 11.8095 15.4372 11.7923 15.4273L11.6759 15.3602C11.6677 15.3554 11.6585 15.3529 11.6492 15.3529C11.6398 15.3529 11.6306 15.3554 11.6224 15.3602L11.5014 15.4299C11.4871 15.4382 11.4781 15.4541 11.4781 15.4714C11.4781 15.4976 11.4581 15.5187 11.4334 15.5187H11.3499C11.3341 15.5187 11.3214 15.5053 11.3214 15.4886V15.4818C11.3214 15.4689 11.3115 15.4585 11.2994 15.4585C11.2877 15.4585 11.278 15.4489 11.2773 15.4366L11.2644 15.2173L11.2546 15.0936C11.2518 15.0573 11.2786 15.0275 11.2786 14.9911C11.2786 14.9791 11.2741 14.9676 11.2661 14.9591C11.2581 14.9506 11.2472 14.9458 11.2359 14.9458C11.2245 14.9458 11.2137 14.9506 11.2056 14.9591C11.1976 14.9676 11.1931 14.9791 11.1931 14.9911C11.1931 15.0264 11.22 15.0566 11.2173 15.0918L11.2074 15.2173L11.1944 15.4366C11.1937 15.4489 11.184 15.4585 11.1724 15.4585C11.1602 15.4585 11.1504 15.4689 11.1504 15.4818V15.5882C11.1504 15.6021 11.1482 15.616 11.1441 15.6292L11.1432 15.6318C11.1385 15.6468 11.1361 15.6625 11.1361 15.6783V18.2077C11.1361 18.2381 11.1128 18.2627 11.0841 18.2627C11.0637 18.2627 11.0452 18.2753 11.0367 18.2949L10.9865 18.4119C10.9831 18.4197 10.9886 18.4286 10.9967 18.4286C11.0028 18.4286 11.0078 18.4338 11.0078 18.4404V18.6622C11.0078 18.708 10.9727 18.7452 10.9294 18.7452H10.8927C10.8697 18.7452 10.851 18.7649 10.851 18.7892C10.851 18.7997 10.8475 18.8099 10.841 18.8178L10.7005 18.9913C10.6875 19.0073 10.6686 19.0165 10.6486 19.0165C10.6109 19.0165 10.5803 19.0489 10.5803 19.0888V19.3482C10.5803 19.3649 10.5675 19.3784 10.5518 19.3784C10.536 19.3784 10.5233 19.3919 10.5233 19.4085V19.4613C10.5233 19.4821 10.5073 19.499 10.4876 19.499C10.468 19.499 10.452 19.5158 10.452 19.5367V19.8533C10.452 19.9241 10.3978 19.9814 10.3309 19.9814H10.2596C10.2321 19.9814 10.2097 20.0051 10.2097 20.0342V20.0644C10.2097 20.0769 10.2193 20.087 10.2311 20.087C10.2429 20.087 10.2525 20.0971 10.2525 20.1096V20.364C10.2525 20.493 10.1679 20.605 10.0491 20.6343C5.67154 21.71 3.30287 22.5153 0.0888672 24C10.5641 20.457 23.35 18.7602 39.1127 18.7602C40.3182 18.7602 41.4221 18.7722 42.5952 18.7961C42.8344 18.801 43.0313 18.5967 43.0305 18.3433L43.0177 14.388V14.2976L42.9039 12.5638V12.2547C42.9039 12.2006 42.9452 12.1567 42.9964 12.1567H43.0036C43.0505 12.1567 43.0889 12.1162 43.0889 12.0662V12.0285C43.0889 11.9994 43.0667 11.9758 43.039 11.9758C43.0117 11.9758 42.9891 11.9522 42.9891 11.923V11.7647C42.9891 11.748 43.0019 11.7345 43.0177 11.7345C43.0334 11.7345 43.0462 11.7211 43.0462 11.7044V11.6305C43.0462 11.5797 43.0075 11.5386 42.9593 11.5386C42.9124 11.5386 42.874 11.4992 42.8723 11.4497L42.8322 10.2118V10.0686C42.8322 10.0644 42.8357 10.061 42.8395 10.061C42.8433 10.061 42.8467 10.0577 42.8467 10.0535V9.90274C42.8467 9.89025 42.8369 9.8801 42.8254 9.8801C42.8135 9.8801 42.8041 9.87 42.8041 9.85751V9.75195C42.8041 9.73946 42.8135 9.72936 42.8254 9.72936C42.8369 9.72936 42.8467 9.71921 42.8467 9.70672V9.57148C42.8467 9.55877 42.8369 9.54844 42.825 9.54844C42.8131 9.54844 42.8037 9.53866 42.8033 9.52625L42.7636 8.43386C42.7623 8.40036 42.7875 8.37244 42.8195 8.37244C42.8502 8.37244 42.8753 8.34597 42.8753 8.31333V8.25186C42.8753 8.23518 42.8881 8.22169 42.9039 8.22169C42.9196 8.22169 42.9324 8.20821 42.9324 8.19153V7.86739C42.9324 7.8549 42.9226 7.84476 42.9107 7.84476C42.8992 7.84476 42.8894 7.83466 42.8894 7.82217V7.792C42.8894 7.77951 42.88 7.76941 42.8681 7.76941C42.8561 7.76941 42.8467 7.75926 42.8467 7.74677V7.46033C42.8467 7.44784 42.8561 7.4377 42.8681 7.4377C42.88 7.4377 42.8894 7.4276 42.8894 7.4151V7.28695C42.8894 7.25362 42.8638 7.22661 42.8322 7.22661C42.8011 7.22661 42.7756 7.19965 42.7756 7.16632V6.90248C42.7756 6.88999 42.7849 6.87989 42.7969 6.87989C42.8088 6.87989 42.8182 6.86974 42.8182 6.85725V6.73663C42.8182 6.72413 42.8088 6.71403 42.7969 6.71403C42.7849 6.71403 42.7756 6.70389 42.7756 6.6914V6.35973C42.7756 6.34724 42.7849 6.3371 42.7969 6.3371C42.8088 6.3371 42.8182 6.327 42.8182 6.3145V6.19388C42.8182 6.18139 42.8088 6.17129 42.7969 6.17129C42.7849 6.17129 42.7756 6.16114 42.7756 6.14865V5.83205C42.7756 5.79458 42.8041 5.76423 42.8395 5.76423C42.8749 5.76423 42.9039 5.73383 42.9039 5.69636V5.50792C42.9039 5.49123 42.9166 5.47775 42.9324 5.47775C42.9478 5.47775 42.9606 5.46426 42.9606 5.44758V5.17621C42.9606 5.16789 42.9542 5.16114 42.9465 5.16114C42.9384 5.16114 42.9324 5.15439 42.9324 5.14607V4.76161C42.9324 4.70749 42.8906 4.66361 42.8395 4.66361C42.7883 4.66361 42.747 4.61974 42.747 4.56562V4.21885C42.747 4.20636 42.7564 4.19624 42.7683 4.19624C42.7802 4.19624 42.7896 4.18611 42.7896 4.17363V4.16609C42.7896 4.14943 42.7768 4.13593 42.7611 4.13593H42.747C42.7231 4.13593 42.7044 4.11568 42.7044 4.0907V3.38964C42.7044 3.37715 42.7137 3.36703 42.7257 3.36703C42.7372 3.36703 42.747 3.3569 42.747 3.34441V3.33687C42.747 3.32022 42.7342 3.30672 42.7184 3.30672H42.7044C42.6805 3.30672 42.6613 3.28647 42.6613 3.26149V2.59812C42.6613 2.58147 42.6741 2.56797 42.6899 2.56797H42.7044C42.712 2.56797 42.7184 2.56122 42.7184 2.55289C42.7184 2.54456 42.712 2.53781 42.7044 2.53781H42.6826C42.663 2.53781 42.6473 2.52094 42.6473 2.50012V2.04029C42.6473 2.03196 42.6536 2.02521 42.6613 2.02521C42.6694 2.02521 42.6758 2.01846 42.6758 2.01013V1.98752C42.6758 1.97503 42.666 1.9649 42.6545 1.9649C42.6426 1.9649 42.6328 1.95478 42.6328 1.94229V1.49753C42.6328 1.4892 42.6391 1.48245 42.6473 1.48245C42.6549 1.48245 42.6613 1.4757 42.6613 1.46737V1.44476C42.6613 1.43227 42.6519 1.42215 42.64 1.42215C42.6281 1.42215 42.6187 1.41202 42.6187 1.39953V1.07538C42.6187 1.06706 42.6251 1.06031 42.6328 1.06031C42.6409 1.06031 42.6473 1.05356 42.6473 1.04523V1.03015C42.6473 1.0135 42.6345 1 42.6187 1C42.6029 1 42.5901 1.0135 42.5901 1.03015V1.04523C42.5901 1.05356 42.5965 1.06031 42.6046 1.06031C42.6123 1.06031 42.6187 1.06706 42.6187 1.07538V1.37692C42.6187 1.39357 42.6059 1.40707 42.5901 1.40707C42.5744 1.40707 42.5616 1.42057 42.5616 1.43722V1.46738C42.5616 1.4757 42.568 1.48245 42.5761 1.48245C42.5837 1.48245 42.5901 1.4892 42.5901 1.49753V1.94228C42.5901 1.95477 42.5807 1.9649 42.5688 1.9649C42.5569 1.9649 42.5475 1.97503 42.5475 1.98752V2.01013C42.5475 2.01846 42.5539 2.02521 42.5616 2.02521C42.5697 2.02521 42.5761 2.03196 42.5761 2.04029V2.46997C42.5761 2.49079 42.5599 2.50766 42.5402 2.50766H42.533C42.5172 2.50766 42.5049 2.52116 42.5049 2.53781C42.5049 2.55447 42.5172 2.56797 42.533 2.56797C42.5488 2.56797 42.5616 2.58147 42.5616 2.59812V3.24641C42.5616 3.27139 42.5424 3.29164 42.5189 3.29164H42.5049C42.4891 3.29164 42.4763 3.30514 42.4763 3.3218V3.32933C42.4763 3.34182 42.4857 3.35195 42.4976 3.35195C42.5091 3.35195 42.5189 3.36208 42.5189 3.37457V4.06809C42.5189 4.09723 42.4968 4.12086 42.4691 4.12086H42.4478C42.432 4.12086 42.4192 4.13436 42.4192 4.15101V4.15855C42.4192 4.17104 42.4286 4.18116 42.4405 4.18116C42.4524 4.18116 42.4618 4.19129 42.4618 4.20378V4.55054C42.4618 4.60466 42.4205 4.64854 42.3693 4.64854C42.3182 4.64854 42.2768 4.69241 42.2768 4.74654V5.13099C42.2768 5.13931 42.2704 5.14607 42.2623 5.14607C42.2547 5.14607 42.2483 5.15282 42.2483 5.16114V5.43252C42.2483 5.44916 42.261 5.46269 42.2768 5.46269C42.2922 5.46269 42.3049 5.47617 42.3049 5.49281V5.6813C42.3049 5.71877 42.3339 5.74912 42.3693 5.74912C42.4047 5.74912 42.4333 5.77951 42.4333 5.81699V6.13359C42.4333 6.14608 42.4239 6.15618 42.4119 6.15618C42.4 6.15618 42.3906 6.16633 42.3906 6.17882V6.29944C42.3906 6.31193 42.4 6.32204 42.4119 6.32204C42.4239 6.32204 42.4333 6.33218 42.4333 6.34467V6.67634C42.4333 6.68883 42.4239 6.69897 42.4119 6.69897C42.4 6.69897 42.3906 6.70907 42.3906 6.72156V6.84219C42.3906 6.85468 42.4 6.86478 42.4119 6.86478C42.4239 6.86478 42.4333 6.87493 42.4333 6.88742V7.15879C42.4333 7.18792 42.4111 7.21155 42.3834 7.21155C42.3561 7.21155 42.3335 7.23518 42.3335 7.26431V7.4C42.3335 7.41249 42.3433 7.42264 42.3548 7.42264C42.3668 7.42264 42.3766 7.43274 42.3766 7.44523V7.73171C42.3766 7.7442 42.3668 7.7543 42.3548 7.7543C42.3433 7.7543 42.3335 7.76445 42.3335 7.77694V7.79953C42.3335 7.81621 42.3207 7.8297 42.3049 7.8297C42.2892 7.8297 42.2768 7.84318 42.2768 7.85986V8.17647C42.2768 8.19311 42.2892 8.20663 42.3049 8.20663C42.3207 8.20663 42.3335 8.22012 42.3335 8.23676V8.29822C42.3335 8.33091 42.3587 8.35738 42.3894 8.35738C42.4213 8.35738 42.4465 8.38525 42.4456 8.4188L42.4055 9.51119C42.4051 9.52355 42.3957 9.53333 42.3838 9.53333C42.3719 9.53333 42.3621 9.54366 42.3621 9.55642V9.69166C42.3621 9.70415 42.3719 9.7143 42.3834 9.7143C42.3953 9.7143 42.4047 9.72439 42.4047 9.73689V9.84241C42.4047 9.8549 42.3953 9.86504 42.3834 9.86504C42.3719 9.86504 42.3621 9.87514 42.3621 9.88763V10.0384C42.3621 10.0426 42.3655 10.046 42.3693 10.046C42.3731 10.046 42.3766 10.0493 42.3766 10.0535V10.1967L42.3365 11.4346C42.3348 11.4842 42.2964 11.5235 42.2495 11.5235C42.2014 11.5235 42.1626 11.5647 42.1626 11.6155V11.6893C42.1626 11.7059 42.1754 11.7195 42.1911 11.7195C42.2069 11.7195 42.2197 11.733 42.2197 11.7496V11.9306C42.2197 11.9555 42.2005 11.9758 42.1771 11.9758C42.1532 11.9758 42.134 11.996 42.134 12.021V12.0662C42.134 12.1162 42.1724 12.1567 42.2197 12.1567H42.2269C42.2781 12.1567 42.3194 12.2006 42.3194 12.2547V12.5638L42.2623 14.2976V14.388L42.235 15.3324C42.2346 15.3491 42.2176 15.3599 42.2022 15.3563C42.189 15.3533 42.1783 15.3656 42.1801 15.3797L42.2005 15.5643C42.2031 15.5882 42.1852 15.6092 42.1626 15.6092C42.14 15.6092 42.1221 15.5882 42.1251 15.5643L42.1361 15.4633C42.1408 15.4187 42.091 15.3829 42.0488 15.3829C42.0061 15.3829 41.9563 15.4187 41.9609 15.4633L41.9699 15.5418C41.9737 15.5777 41.9473 15.6092 41.9132 15.6092C41.8791 15.6092 41.8527 15.5777 41.8565 15.5418L41.8655 15.4633C41.8702 15.4187 41.8203 15.3829 41.7777 15.3829C41.7355 15.3829 41.6852 15.4187 41.6903 15.4633L41.7013 15.5643C41.7043 15.5882 41.6864 15.6092 41.6638 15.6092C41.6413 15.6092 41.6233 15.5882 41.6259 15.5643L41.6374 15.4633C41.6421 15.4187 41.5922 15.3829 41.5496 15.3829C41.5074 15.3829 41.4575 15.4187 41.4622 15.4633L41.4737 15.5643C41.4763 15.5882 41.4584 15.6092 41.4358 15.6092C41.4132 15.6092 41.3953 15.5882 41.3978 15.5643L41.4094 15.4633C41.414 15.4187 41.3642 15.3829 41.3215 15.3829C41.2793 15.3829 41.2295 15.4187 41.2342 15.4633L41.2444 15.5537C41.2478 15.5833 41.2256 15.6092 41.1977 15.6092C41.1717 15.6092 41.1507 15.587 41.1507 15.5596V15.0589C41.1507 15.0548 41.1539 15.0514 41.1579 15.0514C41.1618 15.0514 41.165 15.048 41.165 15.0439V14.9835C41.165 14.9461 41.1363 14.9157 41.1009 14.9157H41.07C41.0255 14.9157 40.987 14.8831 40.9773 14.8372L40.9744 14.8237C40.9483 14.7011 40.7831 14.7011 40.757 14.8237L40.7485 14.8634C40.742 14.894 40.7164 14.9157 40.6867 14.9157C40.6517 14.9157 40.6234 14.9457 40.6234 14.9827V15.0665C40.6234 15.0748 40.6298 15.0815 40.6377 15.0815C40.6455 15.0815 40.6519 15.0883 40.6519 15.0966V15.6261C40.6519 15.6418 40.6399 15.6544 40.6251 15.6544C40.609 15.6544 40.5965 15.6396 40.5984 15.6227L40.6111 15.5085C40.6161 15.4639 40.5661 15.4282 40.5236 15.4282C40.4812 15.4282 40.4312 15.464 40.4361 15.5085L40.4474 15.6095C40.45 15.6335 40.4324 15.6544 40.4096 15.6544C40.3869 15.6544 40.3692 15.6335 40.3718 15.6095L40.3831 15.5085C40.3881 15.464 40.338 15.4282 40.2956 15.4282C40.2532 15.4282 40.2032 15.464 40.2081 15.5085L40.2185 15.602C40.2216 15.6299 40.201 15.6544 40.1744 15.6544C40.1479 15.6544 40.1273 15.6299 40.1304 15.602L40.1408 15.5085C40.1458 15.464 40.0958 15.4282 40.0533 15.4282C40.0109 15.4282 39.9609 15.464 39.9658 15.5085L39.9762 15.602C39.9793 15.6299 39.9588 15.6544 39.9322 15.6544C39.9056 15.6544 39.885 15.6299 39.8881 15.602L39.8985 15.5085C39.9035 15.464 39.8535 15.4282 39.8111 15.4282C39.7686 15.4282 39.7186 15.464 39.7235 15.5085L39.7348 15.6095C39.7374 15.6335 39.7198 15.6544 39.697 15.6544C39.6743 15.6544 39.6566 15.6335 39.6593 15.6095L39.6705 15.5085C39.6754 15.4639 39.6254 15.4282 39.583 15.4282C39.5406 15.4282 39.4906 15.464 39.4955 15.5085L39.5068 15.6095C39.5094 15.6335 39.4918 15.6544 39.469 15.6544C39.4462 15.6544 39.4286 15.6335 39.4312 15.6095L39.4425 15.5085C39.4474 15.464 39.3974 15.4282 39.355 15.4282C39.3125 15.4282 39.2625 15.464 39.2675 15.5085L39.2787 15.6095C39.2814 15.6335 39.2637 15.6544 39.241 15.6544C39.2182 15.6544 39.2005 15.6335 39.2032 15.6095L39.223 15.431C39.225 15.4135 39.2121 15.4008 39.1963 15.4064C39.1818 15.4115 39.1697 15.4001 39.1697 15.3839V12.4582L39.1412 12.0361V12.0059C39.1412 11.9893 39.1539 11.9758 39.1697 11.9758C39.1855 11.9758 39.1982 11.9623 39.1982 11.9456V11.8778C39.1982 11.8653 39.2078 11.8552 39.2196 11.8552C39.2314 11.8552 39.241 11.845 39.241 11.8325V11.5646C39.241 11.5502 39.23 11.5386 39.2164 11.5386C39.2056 11.5386 39.196 11.5311 39.1929 11.5202L39.1431 11.3491C39.1418 11.3447 39.1409 11.3403 39.1404 11.3357C39.1307 11.2472 39.0091 11.2472 38.9994 11.3357C38.9989 11.3403 38.998 11.3447 38.9968 11.3491L38.947 11.5202C38.9438 11.5311 38.9343 11.5386 38.9235 11.5386H38.9214C38.909 11.5386 38.8989 11.5492 38.8989 11.5623C38.8989 11.5795 38.8822 11.591 38.8673 11.584L38.7862 11.5459C38.7759 11.541 38.7648 11.5386 38.7536 11.5386H38.7357C38.6448 11.5386 38.5711 11.4606 38.5711 11.3644V11.0561C38.5711 11.0311 38.552 11.0109 38.5284 11.0109C38.5047 11.0109 38.4856 10.9906 38.4856 10.9656V10.1682C38.4856 10.159 38.4785 10.1515 38.4698 10.1515C38.4624 10.1515 38.456 10.1461 38.4544 10.1384L38.4042 9.89976C38.4018 9.88826 38.3922 9.8801 38.3811 9.8801C38.368 9.8801 38.3573 9.86888 38.3573 9.85503V9.47304C38.3573 9.4647 38.3637 9.45798 38.3716 9.45798C38.3795 9.45798 38.3859 9.45122 38.3859 9.44288V9.2846C38.3859 9.27211 38.3954 9.26196 38.4072 9.26196C38.419 9.26196 38.4286 9.25186 38.4286 9.23937V9.01322C38.4286 9.00073 38.419 8.99059 38.4072 8.99059C38.3954 8.99059 38.3859 8.98049 38.3859 8.96799V8.38557C38.3859 8.37831 38.3914 8.37244 38.3982 8.37244C38.4064 8.37244 38.4123 8.36428 38.4102 8.35598L38.3573 8.1463L38.2959 7.96069C38.273 7.89125 38.211 7.84476 38.1415 7.84476C38.0607 7.84476 37.992 7.78239 37.9797 7.69793L37.6314 5.29545C37.6261 5.2594 37.666 5.2358 37.6923 5.25936C37.7216 5.28561 37.7648 5.25346 37.7513 5.2154L37.7302 5.15612C37.7218 5.1324 37.7296 5.10567 37.749 5.09095L37.7523 5.08845C37.7998 5.05262 37.7735 4.97349 37.7153 4.97691L37.6999 4.97782C37.6762 4.97921 37.6551 4.96243 37.6496 4.938C37.6378 4.88481 37.5662 4.88481 37.5544 4.938C37.549 4.96243 37.5277 4.97921 37.504 4.97782L37.4887 4.97691C37.4305 4.97349 37.4042 5.05262 37.4516 5.08845L37.455 5.09096C37.4744 5.10567 37.4821 5.1324 37.4737 5.15612L37.4527 5.2154C37.4392 5.25346 37.4824 5.28561 37.5117 5.25936C37.538 5.2358 37.5779 5.2594 37.5727 5.29545L37.223 7.70609C37.2115 7.78586 37.1466 7.84476 37.0703 7.84476C37.0046 7.84476 36.9461 7.88868 36.9244 7.95424L36.8609 8.1463L36.8081 8.35598C36.8059 8.36428 36.8118 8.37244 36.82 8.37244C36.8268 8.37244 36.8324 8.37831 36.8324 8.38557V8.96799C36.8324 8.98049 36.8228 8.99059 36.811 8.99059C36.7992 8.99059 36.7896 9.00073 36.7896 9.01322V9.23937C36.7896 9.25186 36.7992 9.26196 36.811 9.26196C36.8228 9.26196 36.8324 9.27211 36.8324 9.2846V9.44288C36.8324 9.45122 36.8387 9.45798 36.8466 9.45798C36.8545 9.45798 36.8609 9.4647 36.8609 9.47304V9.90026C36.8609 9.9141 36.8503 9.92533 36.8372 9.92533C36.826 9.92533 36.8164 9.93349 36.814 9.94499L36.7653 10.1771C36.7628 10.1885 36.7532 10.1967 36.7421 10.1967C36.729 10.1967 36.7184 10.208 36.7184 10.2218V11.0259C36.7184 11.0426 36.7056 11.0561 36.6898 11.0561C36.6741 11.0561 36.6614 11.0696 36.6614 11.0862V11.5092C36.6614 11.5504 36.6298 11.5838 36.5908 11.5838C36.5809 11.5838 36.5712 11.586 36.5622 11.5902L36.4791 11.6292C36.4643 11.6362 36.4476 11.6247 36.4476 11.6075C36.4476 11.5944 36.4375 11.5838 36.4251 11.5838H36.423C36.4122 11.5838 36.4027 11.5763 36.3995 11.5654L36.3497 11.3943C36.3484 11.39 36.3475 11.3855 36.3471 11.381C36.3373 11.2924 36.2158 11.2924 36.206 11.381C36.2056 11.3855 36.2047 11.39 36.2034 11.3943L36.1536 11.5654C36.1504 11.5763 36.1409 11.5838 36.1301 11.5838C36.1166 11.5838 36.1056 11.5954 36.1056 11.6098V11.8778C36.1056 11.8902 36.1151 11.9004 36.1269 11.9004C36.1387 11.9004 36.1483 11.9105 36.1483 11.923V11.9908C36.1483 12.0075 36.1611 12.021 36.1768 12.021C36.1925 12.021 36.2053 12.0345 36.2053 12.0511V12.0813L36.1768 12.5034V15.6562C36.1768 15.6719 36.1648 15.6846 36.15 15.6846C36.1339 15.6846 36.1214 15.6698 36.1233 15.6529L36.136 15.5387C36.141 15.4941 36.091 15.4583 36.0485 15.4583C36.0061 15.4583 35.9561 15.4941 35.961 15.5387L35.9723 15.6397C35.9749 15.6636 35.9573 15.6846 35.9345 15.6846C35.9118 15.6846 35.8941 15.6636 35.8968 15.6397L35.908 15.5387C35.9129 15.4941 35.8629 15.4583 35.8205 15.4583C35.778 15.4583 35.728 15.4941 35.733 15.5387L35.7442 15.6397C35.7469 15.6636 35.7292 15.6846 35.7065 15.6846C35.6837 15.6846 35.6661 15.6636 35.6687 15.6397L35.68 15.5387C35.6849 15.4941 35.6349 15.4583 35.5925 15.4583C35.55 15.4583 35.5 15.4941 35.505 15.5387L35.5162 15.6397C35.5189 15.6636 35.5012 15.6846 35.4785 15.6846C35.4557 15.6846 35.438 15.6636 35.4407 15.6397L35.4519 15.5387C35.4569 15.4941 35.4069 15.4583 35.3644 15.4583C35.322 15.4583 35.272 15.4941 35.2769 15.5387L35.2882 15.6397C35.2908 15.6636 35.2732 15.6846 35.2504 15.6846C35.2276 15.6846 35.21 15.6636 35.2126 15.6397L35.2239 15.5387C35.2288 15.4941 35.1788 15.4583 35.1364 15.4583C35.094 15.4583 35.044 15.4941 35.0489 15.5387L35.0568 15.6097C35.0612 15.6496 35.0318 15.6846 34.9939 15.6846C34.9559 15.6846 34.9265 15.6496 34.931 15.6097L34.9388 15.5387C34.9438 15.4941 34.8938 15.4583 34.8514 15.4583C34.8089 15.4583 34.7589 15.4941 34.7639 15.5387L34.7743 15.6322C34.7774 15.6601 34.7568 15.6846 34.7302 15.6846C34.7037 15.6846 34.6831 15.6601 34.6861 15.6322L34.6966 15.5387C34.7015 15.4941 34.6515 15.4583 34.6091 15.4583C34.5666 15.4583 34.5166 15.4941 34.5216 15.5387L34.5343 15.6529C34.5362 15.6698 34.5237 15.6846 34.5076 15.6846C34.4928 15.6846 34.4808 15.6719 34.4808 15.6562V15.1192C34.4808 15.1151 34.484 15.1117 34.4879 15.1117C34.4919 15.1117 34.4951 15.1083 34.4951 15.1042V15.0288C34.4951 14.983 34.46 14.9458 34.4167 14.9458H34.3842C34.3324 14.9458 34.2874 14.9078 34.276 14.8542C34.25 14.7316 34.0846 14.7312 34.0586 14.8538L34.0515 14.887C34.0442 14.9214 34.0153 14.9458 33.982 14.9458C33.9427 14.9458 33.9107 14.9796 33.9107 15.0212V15.0966C33.9107 15.105 33.9171 15.1117 33.925 15.1117C33.9328 15.1117 33.9392 15.1185 33.9392 15.1268V15.6562C33.9392 15.6719 33.9272 15.6846 33.9124 15.6846C33.8964 15.6846 33.8839 15.6698 33.8857 15.6529L33.8984 15.5387C33.9034 15.4941 33.8534 15.4583 33.811 15.4583C33.7685 15.4583 33.7185 15.4941 33.7235 15.5387L33.7347 15.6397C33.7374 15.6636 33.7197 15.6846 33.6969 15.6846C33.6742 15.6846 33.6565 15.6636 33.6592 15.6397L33.6704 15.5387C33.6754 15.4941 33.6254 15.4583 33.5829 15.4583C33.5405 15.4583 33.4905 15.4941 33.4954 15.5387L33.5067 15.6397C33.5093 15.6636 33.4917 15.6846 33.4689 15.6846C33.4462 15.6846 33.4285 15.6636 33.4312 15.6397L33.4424 15.5387C33.4474 15.4941 33.3974 15.4583 33.3549 15.4583C33.3125 15.4583 33.2625 15.4941 33.2674 15.5387L33.2761 15.6172C33.2801 15.6531 33.2537 15.6846 33.2195 15.6846C33.1854 15.6846 33.1589 15.6531 33.1629 15.6172L33.1716 15.5387C33.1766 15.4941 33.1266 15.4583 33.0841 15.4583C33.0417 15.4583 32.9917 15.4941 32.9966 15.5387L33.0079 15.6397C33.0105 15.6636 32.9929 15.6846 32.9701 15.6846C32.9473 15.6846 32.9297 15.6636 32.9323 15.6397L32.9436 15.5387C32.9485 15.4941 32.8985 15.4583 32.8561 15.4583C32.8136 15.4583 32.7636 15.4941 32.7686 15.5387L32.7798 15.6397C32.7825 15.6636 32.7648 15.6846 32.7421 15.6846C32.7193 15.6846 32.7016 15.6636 32.7043 15.6397L32.7155 15.5387C32.7205 15.4941 32.6705 15.4583 32.6281 15.4583C32.5856 15.4583 32.5356 15.4941 32.5406 15.5387L32.5518 15.6397C32.5545 15.6636 32.5368 15.6846 32.514 15.6846C32.4913 15.6846 32.4736 15.6636 32.4763 15.6397L32.4875 15.5387C32.4925 15.4941 32.4425 15.4583 32.4 15.4583C32.3576 15.4583 32.3076 15.4941 32.3125 15.5387L32.3238 15.6397C32.3264 15.6636 32.3088 15.6846 32.286 15.6846C32.2633 15.6846 32.2456 15.6636 32.2483 15.6397L32.2595 15.5387C32.2645 15.4941 32.2145 15.4583 32.172 15.4583C32.1295 15.4583 32.0795 15.4941 32.0845 15.5387L32.0957 15.6397C32.0984 15.6636 32.0807 15.6846 32.058 15.6846C32.0352 15.6846 32.0176 15.6636 32.0202 15.6397L32.0315 15.5387C32.0364 15.4941 31.9864 15.4583 31.9439 15.4583C31.9015 15.4583 31.8515 15.4941 31.8565 15.5387L31.8677 15.6397C31.8704 15.6636 31.8527 15.6846 31.83 15.6846C31.8072 15.6846 31.7895 15.6636 31.7922 15.6397L31.8034 15.5387C31.8084 15.4941 31.7584 15.4583 31.7159 15.4583C31.6735 15.4583 31.6235 15.4941 31.6284 15.5387L31.6367 15.6133C31.641 15.6512 31.6129 15.6846 31.5768 15.6846C31.5434 15.6846 31.5164 15.656 31.5164 15.6207V15.4509C31.5164 15.4301 31.5005 15.4132 31.4808 15.4132C31.4611 15.4132 31.4451 15.3964 31.4451 15.3755V15.2097C31.4451 15.2055 31.4483 15.2021 31.4523 15.2021C31.4562 15.2021 31.4594 15.1988 31.4594 15.1946V15.074C31.4594 15.0615 31.4498 15.0514 31.438 15.0514C31.4262 15.0514 31.4166 15.0413 31.4166 15.0288V14.9982C31.4166 14.9935 31.4161 14.9888 31.4149 14.9842L31.2926 14.51C31.2905 14.5018 31.2964 14.4935 31.3045 14.4935C31.3114 14.4935 31.3169 14.4877 31.3169 14.4805V14.4483C31.3169 14.44 31.3105 14.4333 31.3026 14.4333C31.2947 14.4333 31.2884 14.4265 31.2884 14.4182V14.0563C31.2884 14.048 31.2947 14.0413 31.3026 14.0413C31.3105 14.0413 31.3169 14.0345 31.3169 14.0262V14.0111C31.3169 13.9944 31.3041 13.981 31.2884 13.981H31.25C31.2217 13.981 31.1965 13.9622 31.187 13.934L31.1742 13.8961C31.136 13.7829 30.9847 13.7829 30.9465 13.8961L30.9337 13.934C30.9242 13.9622 30.8989 13.981 30.8707 13.981H30.8323C30.8165 13.981 30.8038 13.9944 30.8038 14.0111V14.0262C30.8038 14.0345 30.8102 14.0413 30.818 14.0413C30.8259 14.0413 30.8323 14.048 30.8323 14.0563V14.4182C30.8323 14.4265 30.8259 14.4333 30.818 14.4333C30.8102 14.4333 30.8038 14.44 30.8038 14.4483V14.4805C30.8038 14.4877 30.8093 14.4935 30.8162 14.4935C30.8243 14.4935 30.8302 14.5018 30.8281 14.51L30.7058 14.9842C30.7046 14.9888 30.7041 14.9935 30.7041 14.9982V15.0288C30.7041 15.0413 30.6945 15.0514 30.6827 15.0514C30.6708 15.0514 30.6613 15.0615 30.6613 15.074V15.1494C30.6613 15.1535 30.6645 15.1569 30.6684 15.1569C30.6723 15.1569 30.6755 15.1603 30.6755 15.1644V15.3303C30.6755 15.3511 30.6596 15.368 30.6399 15.368C30.6202 15.368 30.6043 15.3849 30.6043 15.4057V16.4083C30.6043 16.4666 30.5596 16.5138 30.5045 16.5138H30.4332C30.4175 16.5138 30.4048 16.5273 30.4048 16.544C30.4048 16.5606 30.392 16.5741 30.3762 16.5741H30.3548C30.3273 16.5741 30.305 16.5505 30.305 16.5214V16.4535C30.305 16.4119 30.2731 16.3781 30.2337 16.3781C30.1944 16.3781 30.1625 16.4119 30.1625 16.4535V16.5816C30.1625 16.6358 30.121 16.6797 30.0698 16.6797C30.0186 16.6797 29.9772 16.7236 29.9772 16.7777V17.1093C29.9772 17.1801 29.923 17.2375 29.856 17.2375C29.7891 17.2375 29.7349 17.1801 29.7349 17.1093V16.5515C29.7349 16.4141 29.6296 16.3027 29.4998 16.3027H29.3572C29.3061 16.3027 29.2646 16.3466 29.2646 16.4007V16.4309C29.2646 16.4684 29.2359 16.4987 29.2005 16.4987C29.165 16.4987 29.1363 16.4684 29.1363 16.4309C29.1363 16.3934 29.1076 16.363 29.0722 16.363H28.8655C28.716 16.363 28.5947 16.2348 28.5947 16.0766V15.582C28.5947 15.5138 28.5425 15.4585 28.4779 15.4585C28.4157 15.4585 28.3643 15.4067 28.3613 15.3409L28.0695 9.03469C28.0683 9.00998 28.0491 8.99059 28.0257 8.99059H27.9962C27.9883 8.99059 27.9819 8.98387 27.9819 8.97553C27.9819 8.96718 27.9755 8.96046 27.9676 8.96046H27.932C27.9045 8.96046 27.8821 8.93683 27.8821 8.90766V8.88507C27.8821 8.84345 27.8502 8.80967 27.8109 8.80967H27.7211C27.6415 8.80967 27.5742 8.74821 27.5607 8.66533C27.5108 8.35932 27.4596 8.17647 27.3976 8.17647C27.3453 8.17647 27.3076 8.23676 27.2553 8.23676H26.0434C25.9925 8.23676 25.952 8.17647 25.9011 8.17647C25.7301 8.17647 25.6018 9.5635 25.6018 11.2672C25.6018 11.6993 25.6126 12.1087 25.6248 12.4855C25.6277 12.5763 25.5567 12.6505 25.4709 12.6462C25.3926 12.6422 25.3311 12.574 25.3311 12.491V11.5386C25.3311 11.5219 25.3438 11.5084 25.3595 11.5084C25.3753 11.5084 25.3881 11.4949 25.3881 11.4782V9.42781C25.3881 9.41117 25.3753 9.39765 25.3595 9.39765C25.3438 9.39765 25.3311 9.38416 25.3311 9.36752V7.90509C25.3311 7.88841 25.3438 7.87493 25.3595 7.87493C25.3753 7.87493 25.3881 7.86144 25.3881 7.84476V6.13359C25.3881 6.02951 25.3083 5.94514 25.2099 5.94514H25.1315C25.0764 5.94514 25.0318 5.89788 25.0318 5.83958C25.0318 5.78132 24.9871 5.73406 24.932 5.73406H24.5044C24.4493 5.73406 24.4047 5.78132 24.4047 5.83958V5.88481C24.4047 5.91813 24.3792 5.94514 24.3477 5.94514C24.3162 5.94514 24.2907 5.97211 24.2907 6.00543V12.4658C24.2907 12.5075 24.2689 12.5459 24.2341 12.5655C24.1629 12.6057 24.0769 12.5511 24.0769 12.4658V12.1718C24.0769 12.1551 24.0896 12.1416 24.1054 12.1416C24.1211 12.1416 24.1339 12.1281 24.1339 12.1115V9.9178C24.1339 9.88033 24.1052 9.84998 24.0698 9.84998C24.0343 9.84998 24.0056 9.81959 24.0056 9.78212V7.92768C24.0056 7.91519 24.0152 7.90509 24.027 7.90509C24.0388 7.90509 24.0484 7.89495 24.0484 7.88246V5.6436C24.0484 5.54367 23.9718 5.46269 23.8774 5.46269H23.8204C23.7574 5.46269 23.7063 5.40867 23.7063 5.34206C23.7063 5.27545 23.6553 5.22145 23.5923 5.22145H23.1078C23.0448 5.22145 22.9937 5.27545 22.9937 5.34206V5.37975C22.9937 5.42553 22.9587 5.46269 22.9153 5.46269C22.8721 5.46269 22.8369 5.4998 22.8369 5.54561V7.83723C22.8369 7.8664 22.8146 7.88999 22.7871 7.88999C22.7595 7.88999 22.7372 7.91361 22.7372 7.94279V10.0384C22.7372 10.0592 22.7531 10.0761 22.7728 10.0761C22.7925 10.0761 22.8084 10.093 22.8084 10.1138V11.9934C22.8084 12.0199 22.7953 12.0444 22.7739 12.058C22.7264 12.0882 22.6659 12.052 22.6659 11.9934V10.6568C22.6659 10.4042 22.4661 10.1952 22.2379 10.2698C22.0596 10.3281 21.8918 10.4201 21.7431 10.5421C21.664 10.6071 21.6191 10.706 21.6093 10.8115C21.491 12.0781 21.4478 14.4287 21.4412 14.8274C21.4407 14.8606 21.4151 14.8855 21.3837 14.8855C21.352 14.8855 21.3262 14.8584 21.3262 14.8248V12.688C21.3262 12.6457 21.3275 12.6125 21.3015 12.5803C21.2539 12.5211 21.2089 12.4448 21.1717 12.3777C21.143 12.326 21.1008 12.2762 21.0445 12.2285C20.9157 12.1192 20.8132 11.9698 20.8132 11.7951V6.62358C20.8132 6.59025 20.7877 6.56329 20.7562 6.56329C20.7247 6.56329 20.6992 6.53627 20.6992 6.50295V6.41249C20.6992 6.39585 20.6864 6.38233 20.6707 6.38233C20.6549 6.38233 20.6422 6.36884 20.6422 6.3522V6.27969C20.6422 6.24091 20.6217 6.20511 20.5881 6.18973C20.5455 6.17029 20.5017 6.15406 20.4569 6.14112C20.136 6.0214 19.7994 5.95529 19.4593 5.94514Z" fill="white"/>
</g>
<defs>
<clipPath id="clip0_3622_20366">
<rect width="102" height="26" fill="white" transform="translate(0.0654297)"/>
</clipPath>
</defs>
</svg>
