<svg width="52" height="50" viewBox="0 0 52 50" fill="none" xmlns="http://www.w3.org/2000/svg">
<ellipse cx="24.9172" cy="25.2567" rx="10.845" ry="18.4364" stroke="white"/>
<circle cx="24.9169" cy="25.2567" r="18.4364" stroke="white"/>
<path d="M7.56445 18.7495H42.2683" stroke="white"/>
<path d="M7.56445 31.7639L42.2683 31.7639" stroke="white"/>
<path d="M24.916 6.82031V43.6932" stroke="white"/>
<path fill-rule="evenodd" clip-rule="evenodd" d="M24.3701 1.39597C24.3713 1.04921 24.6534 0.769076 25.0002 0.770267C25.4629 0.771858 25.9266 0.78657 26.3906 0.814556C26.8546 0.842542 27.3167 0.883661 27.7763 0.937699C28.1207 0.978191 28.3671 1.2902 28.3266 1.63459C28.2861 1.97898 27.9741 2.22533 27.6297 2.18484C27.1936 2.13357 26.7553 2.09456 26.315 2.06801C25.8748 2.04146 25.4349 2.0275 24.9958 2.02599C24.6491 2.0248 24.3689 1.74273 24.3701 1.39597ZM22.9163 1.47367C22.9544 1.81832 22.7059 2.12864 22.3613 2.16678C21.4851 2.26375 20.6165 2.41038 19.7596 2.60547C19.4215 2.68245 19.085 2.47076 19.008 2.13265C18.931 1.79454 19.1427 1.45805 19.4808 1.38107C20.384 1.17543 21.2996 1.02088 22.2232 0.918673C22.5678 0.88053 22.8781 1.12901 22.9163 1.47367ZM29.7605 1.88645C29.8398 1.54887 30.1778 1.33949 30.5153 1.41878C31.4199 1.63125 32.3103 1.89472 33.1822 2.20741C33.5086 2.32447 33.6783 2.68397 33.5613 3.01037C33.4442 3.33678 33.0847 3.50649 32.7583 3.38943C31.9311 3.09277 31.0864 2.84282 30.2282 2.64125C29.8906 2.56196 29.6813 2.22402 29.7605 1.88645ZM17.609 2.53595C17.7238 2.86315 17.5516 3.22148 17.2244 3.33629C16.3952 3.62726 15.5818 3.96551 14.7884 4.34984C14.4764 4.50101 14.1008 4.37058 13.9497 4.0585C13.7985 3.74643 13.9289 3.3709 14.241 3.21972C15.0772 2.81462 15.9346 2.45809 16.8086 2.15139C17.1358 2.03657 17.4942 2.20875 17.609 2.53595ZM34.9017 3.57889C35.055 3.26786 35.4314 3.13999 35.7425 3.2933C36.5733 3.70283 37.3816 4.15981 38.1631 4.66248C38.4548 4.85007 38.5391 5.23856 38.3515 5.5302C38.1639 5.82184 37.7754 5.9062 37.4838 5.71861C36.7424 5.24172 35.9756 4.80817 35.1873 4.41964C34.8763 4.26634 34.7484 3.88992 34.9017 3.57889ZM12.6775 4.76664C12.8631 5.05955 12.7761 5.44746 12.4832 5.63305C12.1123 5.86803 11.7474 6.11401 11.3888 6.37083C11.0303 6.62766 10.6799 6.89404 10.3381 7.16955C10.0681 7.38715 9.67284 7.34468 9.45524 7.07469C9.23764 6.8047 9.28011 6.40943 9.55009 6.19183C9.9104 5.90144 10.2797 5.62066 10.6576 5.34996C11.0355 5.07927 11.4202 4.82 11.8111 4.57232C12.104 4.38673 12.4919 4.47373 12.6775 4.76664ZM39.5293 6.38609C39.7488 6.11761 40.1443 6.07786 40.4128 6.29731C40.7711 6.59017 41.1218 6.89379 41.4645 7.20795C41.7201 7.44229 41.7373 7.83946 41.503 8.09505C41.2686 8.35065 40.8715 8.36788 40.6159 8.13354C40.2908 7.83548 39.958 7.54743 39.6181 7.26958C39.3496 7.05013 39.3099 6.65458 39.5293 6.38609ZM8.37537 8.05123C8.62218 8.2948 8.62482 8.69233 8.38125 8.93915C7.76204 9.56662 7.18002 10.2279 6.63765 10.9193C6.42364 11.1922 6.02897 11.2399 5.75613 11.0259C5.48328 10.8119 5.43559 10.4172 5.6496 10.1443C6.22128 9.41549 6.83476 8.71851 7.48745 8.05711C7.73102 7.8103 8.12855 7.80766 8.37537 8.05123ZM4.92404 12.2207C5.21938 12.4024 5.31151 12.7891 5.12981 13.0844C4.66933 13.8329 4.25096 14.6081 3.87716 15.4065C3.73012 15.7206 3.35634 15.8559 3.0423 15.7089C2.72826 15.5619 2.59287 15.1881 2.7399 14.8741C3.13391 14.0325 3.5749 13.2154 4.06027 12.4264C4.24197 12.1311 4.62869 12.039 4.92404 12.2207ZM2.50084 17.0604C2.82953 17.1709 3.00644 17.5269 2.89597 17.8556C2.7561 18.2718 2.62775 18.6927 2.5112 19.1181C2.39465 19.5435 2.2905 19.9711 2.19871 20.4004C2.12621 20.7395 1.79255 20.9556 1.45345 20.8831C1.11436 20.8106 0.898234 20.477 0.970732 20.1379C1.06748 19.6853 1.17726 19.2346 1.3001 18.7863C1.42295 18.3379 1.55824 17.8942 1.70566 17.4555C1.81613 17.1269 2.17215 16.9499 2.50084 17.0604ZM1.23041 22.3219C1.57554 22.3555 1.82811 22.6625 1.79454 23.0076C1.70919 23.885 1.674 24.7652 1.68865 25.6439C1.69443 25.9906 1.41805 26.2764 1.07133 26.2821C0.724622 26.2879 0.43887 26.0115 0.43309 25.6648C0.417649 24.7387 0.454744 23.8109 0.544708 22.886C0.57828 22.5409 0.88528 22.2883 1.23041 22.3219ZM48.7754 24.6291C49.1221 24.6291 49.4032 24.9102 49.4032 25.2569C49.4032 25.7218 49.39 26.1855 49.3637 26.6475C49.3441 26.9937 49.0475 27.2584 48.7013 27.2387C48.355 27.219 48.0904 26.9224 48.11 26.5762C48.135 26.1379 48.1475 25.698 48.1475 25.2569C48.1475 24.9102 48.4286 24.6291 48.7754 24.6291ZM1.17822 27.7342C1.52204 27.6892 1.83728 27.9314 1.88233 28.2752C1.9965 29.1465 2.16019 30.0121 2.3731 30.8676C2.45684 31.2041 2.25195 31.5447 1.91545 31.6285C1.57895 31.7122 1.23828 31.5073 1.15453 31.1708C0.930122 30.2691 0.75758 29.3568 0.637241 28.4383C0.592192 28.0945 0.834396 27.7793 1.17822 27.7342ZM48.5362 28.6853C48.8779 28.7441 49.1073 29.0688 49.0484 29.4105C48.8908 30.3263 48.6814 31.2309 48.4218 32.1201C48.3246 32.4529 47.976 32.644 47.6431 32.5468C47.3102 32.4496 47.1192 32.101 47.2164 31.7681C47.4627 30.9245 47.6614 30.0663 47.8109 29.1975C47.8697 28.8558 48.1944 28.6265 48.5362 28.6853ZM2.34675 33.0191C2.67158 32.8977 3.03329 33.0626 3.15466 33.3875C3.30833 33.7987 3.47397 34.2065 3.65154 34.6102C3.82912 35.0139 4.01773 35.4116 4.21702 35.8028C4.37443 36.1117 4.25156 36.4898 3.94258 36.6472C3.63361 36.8046 3.25553 36.6818 3.09812 36.3728C2.88806 35.9604 2.68925 35.5413 2.50208 35.1158C2.31492 34.6903 2.14033 34.2605 1.97836 33.827C1.85699 33.5021 2.02193 33.1404 2.34675 33.0191ZM47.1563 33.919C47.476 34.0533 47.6263 34.4213 47.492 34.741C47.1332 35.595 46.7257 36.4294 46.271 37.2397C46.1013 37.5421 45.7186 37.6497 45.4162 37.48C45.1138 37.3103 45.0062 36.9276 45.1759 36.6252C45.6073 35.8564 45.9939 35.0649 46.3343 34.2547C46.4686 33.935 46.8366 33.7847 47.1563 33.919ZM4.6761 37.9049C4.96523 37.7135 5.3548 37.7927 5.54624 38.0818C6.03291 38.8168 6.56028 39.5224 7.1254 40.1954C7.34838 40.461 7.31387 40.857 7.04831 41.08C6.78276 41.303 6.38671 41.2685 6.16373 41.0029C5.56807 40.2935 5.01219 39.5498 4.4992 38.775C4.30777 38.4859 4.38697 38.0963 4.6761 37.9049ZM44.6328 38.7072C44.914 38.9101 44.9775 39.3025 44.7746 39.5837C44.5038 39.959 44.2219 40.3274 43.9289 40.6884C43.636 41.0493 43.3335 41.401 43.0219 41.7432C42.7884 41.9996 42.3913 42.0182 42.1349 41.7847C41.8785 41.5512 41.8599 41.1541 42.0934 40.8977C42.389 40.5731 42.676 40.2394 42.9539 39.897C43.2319 39.5545 43.4994 39.2051 43.7562 38.849C43.9591 38.5678 44.3516 38.5043 44.6328 38.7072ZM8.04638 42.1401C8.28495 41.8884 8.68235 41.8778 8.934 42.1164C9.57178 42.721 10.2443 43.2899 10.9488 43.8199C11.2258 44.0284 11.2814 44.4221 11.0729 44.6992C10.8645 44.9762 10.4708 45.0318 10.1937 44.8233C9.45124 44.2646 8.74232 43.665 8.07007 43.0277C7.81842 42.7891 7.80781 42.3918 8.04638 42.1401ZM41.0952 42.8038C41.3234 43.0649 41.2969 43.4615 41.0358 43.6898C40.3363 44.3015 39.6037 44.8719 38.8417 45.3986C38.5565 45.5958 38.1654 45.5245 37.9682 45.2392C37.771 44.954 37.8424 44.5629 38.1276 44.3657C38.8505 43.866 39.5456 43.3248 40.2092 42.7445C40.4702 42.5162 40.8669 42.5428 41.0952 42.8038ZM12.2842 45.507C12.4599 45.2081 12.8447 45.1082 13.1436 45.284C13.5221 45.5064 13.9077 45.7186 14.3 45.9202C14.6923 46.1218 15.0893 46.3116 15.4906 46.4898C15.8075 46.6305 15.9504 47.0015 15.8097 47.3184C15.669 47.6353 15.298 47.7782 14.9811 47.6375C14.5581 47.4497 14.1396 47.2496 13.7261 47.0371C13.3126 46.8247 12.9062 46.601 12.5073 46.3665C12.2083 46.1908 12.1084 45.806 12.2842 45.507ZM36.7255 45.9979C36.8891 46.3036 36.7739 46.6841 36.4681 46.8477C35.6514 47.2847 34.8092 47.6757 33.9454 48.0183C33.6231 48.1462 33.2582 47.9885 33.1303 47.6662C33.0024 47.3439 33.1601 46.9789 33.4824 46.8511C34.3018 46.526 35.1008 46.1551 35.8757 45.7405C36.1815 45.5769 36.5619 45.6921 36.7255 45.9979ZM17.1718 47.8326C17.2756 47.5018 17.628 47.3178 17.9589 47.4216C18.8 47.6856 19.6541 47.9012 20.517 48.0676C20.8575 48.1332 21.0803 48.4625 21.0146 48.803C20.9489 49.1435 20.6197 49.3663 20.2792 49.3006C19.3696 49.1252 18.4693 48.898 17.5828 48.6197C17.2519 48.5159 17.0679 48.1635 17.1718 47.8326ZM31.7487 48.1253C31.8391 48.4601 31.6411 48.8048 31.3064 48.8953C30.8596 49.016 30.4086 49.1244 29.9536 49.22C29.4987 49.3156 29.0422 49.3981 28.5847 49.4674C28.2418 49.5193 27.9218 49.2835 27.8698 48.9407C27.8179 48.5978 28.0537 48.2778 28.3965 48.2258C28.8306 48.1601 29.2637 48.0818 29.6953 47.9911C30.1269 47.9004 30.5549 47.7976 30.9787 47.683C31.3135 47.5926 31.6582 47.7906 31.7487 48.1253ZM22.4576 48.9971C22.4842 48.6513 22.7861 48.3927 23.1318 48.4193C24.0081 48.4868 24.8888 48.5047 25.7697 48.4723C26.1163 48.4596 26.4075 48.7302 26.4202 49.0767C26.433 49.4232 26.1624 49.7145 25.8158 49.7272C24.8873 49.7613 23.9589 49.7425 23.0354 49.6713C22.6896 49.6447 22.431 49.3428 22.4576 48.9971Z" fill="#12D6A7"/>
<path fill-rule="evenodd" clip-rule="evenodd" d="M42.5412 8.59962C42.5412 8.94638 42.2601 9.22748 41.9133 9.22748H38.3616C38.0148 9.22748 37.7337 8.94638 37.7337 8.59962C37.7337 8.25286 38.0148 7.97175 38.3616 7.97175H41.2855V5.04787C41.2855 4.70111 41.5666 4.42 41.9133 4.42001C42.2601 4.42 42.5412 4.70111 42.5412 5.04787V8.59962Z" fill="#12D6A7"/>
<path fill-rule="evenodd" clip-rule="evenodd" d="M48.7754 24.0012C49.4689 24.0012 50.0311 23.4389 50.0311 22.7454C50.0311 22.0519 49.4689 21.4897 48.7754 21.4897C48.0818 21.4897 47.5196 22.0519 47.5196 22.7454C47.5196 23.4389 48.0818 24.0012 48.7754 24.0012ZM48.7754 25.2569C50.1624 25.2569 51.2868 24.1325 51.2868 22.7454C51.2868 21.3584 50.1624 20.234 48.7754 20.234C47.3883 20.234 46.2639 21.3584 46.2639 22.7454C46.2639 24.1325 47.3883 25.2569 48.7754 25.2569Z" fill="#12D6A7"/>
</svg>
