<svg width="225" height="65" viewBox="0 0 225 65" fill="none" xmlns="http://www.w3.org/2000/svg">
<path d="M9.01784 10.8032C8.19969 10.7663 7.45593 10.6099 6.78654 10.3429C6.12644 10.076 5.55931 9.72627 5.08516 9.29368C4.61101 8.86108 4.24842 8.36406 3.9974 7.79341C3.74637 7.22275 3.61621 6.62449 3.61621 5.9802C3.61621 5.33591 3.74637 4.73765 3.9974 4.16699C4.24842 3.59634 4.61101 3.09932 5.08516 2.66672C5.55931 2.23413 6.12644 1.88438 6.78654 1.61746C7.44663 1.35054 8.1904 1.19407 9.01784 1.15725V0.117188H11.2957V1.16646C12.1138 1.20327 12.8576 1.35974 13.527 1.62666C14.1871 1.89358 14.7542 2.24334 15.2283 2.67593C15.7025 3.10852 16.0651 3.60554 16.3161 4.1762C16.5671 4.74685 16.6973 5.34512 16.6973 5.9894C16.6973 6.63369 16.5671 7.23196 16.3161 7.80261C16.0651 8.37327 15.7025 8.87029 15.2283 9.30288C14.7542 9.73547 14.1871 10.0852 13.527 10.3521C12.8669 10.6191 12.1231 10.7755 11.2957 10.8124V11.8616H9.01784V10.8032ZM9.01784 3.20056C8.56228 3.21897 8.14391 3.30181 7.77203 3.45828C7.40014 3.60554 7.07475 3.80803 6.81443 4.05654C6.55411 4.30505 6.34957 4.59959 6.20081 4.93093C6.05206 5.26228 5.97769 5.61204 5.97769 5.9802C5.97769 6.35757 6.05206 6.71653 6.20081 7.03867C6.34957 7.36082 6.55411 7.65535 6.81443 7.90386C7.07475 8.15237 7.40014 8.35486 7.77203 8.50212C8.14391 8.64939 8.56228 8.74143 9.01784 8.75984V3.20056ZM11.2957 8.76904C11.7512 8.75064 12.1696 8.6678 12.5415 8.51133C12.9133 8.36406 13.2387 8.16157 13.4991 7.91306C13.7594 7.66455 13.9639 7.37002 14.1127 7.04788C14.2614 6.72573 14.3358 6.36677 14.3358 5.9894C14.3358 5.62124 14.2614 5.27148 14.1127 4.94014C13.9639 4.60879 13.7594 4.31426 13.4991 4.06575C13.2387 3.81724 12.9133 3.61475 12.5415 3.46748C12.1696 3.32022 11.7512 3.22817 11.2957 3.20977V8.76904Z" fill="white"/>
<path d="M21.4817 11.5575C20.8774 11.5575 20.3103 11.4562 19.7897 11.2445C19.269 11.0328 18.8134 10.7475 18.4323 10.3793C18.0511 10.0112 17.7536 9.57859 17.5397 9.08157C17.3259 8.58455 17.2236 8.05991 17.2236 7.49846C17.2236 6.93701 17.3259 6.40317 17.5397 5.91536C17.7536 5.41834 18.0511 4.98574 18.4323 4.61758C18.8134 4.24941 19.2597 3.96409 19.7897 3.75239C20.3103 3.5407 20.8774 3.43945 21.4817 3.43945C22.086 3.43945 22.6532 3.5407 23.1645 3.75239C23.6758 3.96409 24.1314 4.24941 24.5126 4.61758C24.8938 4.98574 25.1913 5.41834 25.4051 5.91536C25.6189 6.41238 25.7305 6.93701 25.7305 7.49846C25.7305 8.05991 25.6189 8.59375 25.4051 9.08157C25.1913 9.57859 24.8845 10.0112 24.5126 10.3793C24.1407 10.7475 23.6851 11.0328 23.1645 11.2445C22.6439 11.447 22.086 11.5575 21.4817 11.5575ZM21.4817 9.74426C21.7606 9.74426 22.0303 9.68904 22.2813 9.57859C22.5323 9.46814 22.7461 9.31167 22.9321 9.11838C23.118 8.9251 23.2668 8.68579 23.369 8.40967C23.4713 8.13355 23.5271 7.82981 23.5271 7.48005C23.5271 7.1395 23.4713 6.82656 23.369 6.55044C23.2668 6.27432 23.118 6.03501 22.9321 5.84172C22.7461 5.64844 22.523 5.49197 22.2813 5.38152C22.0303 5.27107 21.7699 5.21584 21.4817 5.21584C21.1935 5.21584 20.9332 5.27107 20.6822 5.38152C20.4311 5.49197 20.2173 5.64844 20.0314 5.84172C19.8454 6.03501 19.6967 6.27432 19.5944 6.55044C19.4921 6.82656 19.4364 7.1395 19.4364 7.48005C19.4364 7.82061 19.4921 8.13355 19.5944 8.40967C19.6967 8.68579 19.8454 8.9251 20.0314 9.11838C20.2173 9.31167 20.4404 9.46814 20.6822 9.57859C20.9239 9.68904 21.1935 9.74426 21.4817 9.74426Z" fill="white"/>
<path d="M26.6484 3.65137H28.7775V6.51384H32.0501V3.65137H34.1791V11.3276H32.0501V8.31785H28.7775V11.3276H26.6484V3.65137Z" fill="white"/>
<path d="M34.7827 9.52358H35.6195L37.2186 3.65137H41.3186L42.9177 9.52358H43.7545V12.9107H41.7742V11.3276H36.7537V12.9107H34.7734V9.52358H34.7827ZM40.7887 9.52358L39.6451 5.46458H38.8828L37.7392 9.52358H40.7887Z" fill="white"/>
<path d="M48.3037 3.65137H50.4328V6.96484L50.3584 8.31785H50.5071L53.6217 3.65137H55.8995V11.3276H53.7704V8.01411L53.8448 6.66111H53.7053L50.5908 11.3276H48.313L48.3037 3.65137Z" fill="white"/>
<path d="M57.2808 3.65137H59.4098V6.51384H62.6824V3.65137H64.8114V11.3276H62.6824V8.31785H59.4098V11.3276H57.2808V3.65137Z" fill="white"/>
<path d="M69.7415 11.4746C69.1743 11.4378 68.6444 11.2997 68.1517 11.0788C67.6589 10.8579 67.2313 10.5726 66.878 10.2136C66.5154 9.85469 66.2364 9.44971 66.0226 8.9803C65.8181 8.51089 65.7158 8.01387 65.7158 7.48003C65.7158 6.9554 65.8181 6.45837 66.0226 5.98897C66.2271 5.51956 66.5154 5.10537 66.878 4.74641C67.2405 4.38745 67.6589 4.10212 68.1517 3.88123C68.6444 3.66033 69.1743 3.53147 69.7415 3.48545V0.797852H71.8705V3.50386C72.4376 3.54067 72.9676 3.67874 73.4603 3.89963C73.9531 4.12053 74.3807 4.40586 74.734 4.76482C75.0966 5.12378 75.3755 5.53796 75.5894 6.00737C75.7939 6.47678 75.9055 6.9738 75.9055 7.49844C75.9055 8.03228 75.8032 8.5293 75.5894 8.99871C75.3848 9.46811 75.0966 9.8731 74.734 10.2321C74.3714 10.591 73.9438 10.8763 73.4603 11.0972C72.9676 11.3181 72.4376 11.447 71.8705 11.493V14.1714H69.7415V11.4746ZM69.7415 5.30786C69.2022 5.3907 68.7653 5.6116 68.4306 5.97976C68.0866 6.34792 67.9192 6.85415 67.9192 7.48923C67.9192 8.13352 68.0866 8.63975 68.4306 8.99871C68.7746 9.35767 69.2115 9.58777 69.7415 9.67061V5.30786ZM71.8705 9.67061C72.4097 9.58777 72.8467 9.36687 73.1814 8.99871C73.5161 8.63054 73.6927 8.12432 73.6927 7.48923C73.6927 6.84495 73.5254 6.33872 73.1814 5.97976C72.8374 5.6116 72.4005 5.3907 71.8705 5.30786V9.67061Z" fill="white"/>
<path d="M76.8101 3.65156H78.9391V4.6272H79.0135C79.1715 4.4063 79.376 4.20381 79.6085 4.02893C79.813 3.88167 80.0641 3.7436 80.3616 3.61475C80.6591 3.48589 81.0216 3.43066 81.4493 3.43066C81.9421 3.43066 82.4069 3.52271 82.8439 3.71599C83.2716 3.90928 83.6527 4.1762 83.9781 4.52595C84.3035 4.87571 84.5546 5.2991 84.7498 5.80532C84.9358 6.31155 85.0287 6.873 85.0287 7.48967C85.0287 8.10635 84.9358 8.677 84.7498 9.17402C84.5639 9.68025 84.3035 10.1036 83.9781 10.4534C83.6527 10.8031 83.2809 11.0793 82.8439 11.2634C82.4162 11.4566 81.9514 11.5487 81.4493 11.5487C81.0216 11.5487 80.6591 11.4843 80.3616 11.3646C80.0641 11.2357 79.813 11.0977 79.6085 10.9504C79.376 10.7663 79.1808 10.573 79.0135 10.3521H78.9391V14.1903H76.8101V3.65156ZM80.9194 9.74468C81.4586 9.74468 81.9049 9.55139 82.2768 9.15561C82.6394 8.75984 82.8253 8.20759 82.8253 7.48047C82.8253 6.76255 82.6394 6.2011 82.2768 5.80532C81.9142 5.41875 81.4586 5.21626 80.9194 5.21626C80.343 5.21626 79.8688 5.40955 79.4969 5.80532C79.125 6.2011 78.9391 6.75334 78.9391 7.48047C78.9391 8.20759 79.125 8.75984 79.4969 9.15561C79.8688 9.55139 80.3337 9.74468 80.9194 9.74468Z" fill="white"/>
<path d="M89.2029 11.5575C88.7102 11.5575 88.2453 11.4654 87.8084 11.2721C87.3807 11.0789 86.9995 10.8119 86.6741 10.4622C86.3487 10.1124 86.0977 9.68904 85.9025 9.18281C85.7165 8.68579 85.6235 8.11514 85.6235 7.49846C85.6235 6.88179 85.7165 6.31113 85.9025 5.81411C86.0884 5.30789 86.3487 4.8845 86.6741 4.53474C86.9995 4.18499 87.3714 3.90886 87.8084 3.72478C88.236 3.53149 88.7009 3.43945 89.2029 3.43945C89.6306 3.43945 89.9932 3.50388 90.2907 3.62354C90.5882 3.75239 90.8392 3.89045 91.0438 4.03772C91.2762 4.2218 91.4714 4.41509 91.6388 4.63599H91.7132V3.65115H93.8422V11.3274H91.7132V10.3517H91.6388C91.4807 10.5726 91.2762 10.7751 91.0438 10.95C90.8392 11.0973 90.5882 11.2353 90.2907 11.3642C89.9839 11.493 89.6213 11.5575 89.2029 11.5575ZM89.7329 9.74426C90.3093 9.74426 90.7835 9.55098 91.1553 9.1552C91.5272 8.75942 91.7132 8.20718 91.7132 7.48005C91.7132 6.76213 91.5272 6.20068 91.1553 5.80491C90.7835 5.41833 90.3093 5.21584 89.7329 5.21584C89.1936 5.21584 88.7474 5.40913 88.3755 5.80491C88.0129 6.20068 87.827 6.75293 87.827 7.48005C87.827 8.20718 88.0129 8.75942 88.3755 9.1552C88.7474 9.55098 89.1936 9.74426 89.7329 9.74426Z" fill="white"/>
<path d="M98.9303 11.5575C98.3446 11.5575 97.796 11.4562 97.2847 11.2445C96.7733 11.0328 96.3271 10.7475 95.9552 10.3793C95.5833 10.0112 95.2858 9.57859 95.072 9.08157C94.8581 8.58455 94.7559 8.05991 94.7559 7.49846C94.7559 6.93701 94.8581 6.40317 95.072 5.91536C95.2858 5.41834 95.574 4.98574 95.9552 4.61758C96.3271 4.24941 96.7733 3.96409 97.2847 3.75239C97.796 3.5407 98.3446 3.43945 98.9303 3.43945C99.3487 3.43945 99.7205 3.48547 100.055 3.56831C100.39 3.65115 100.687 3.7708 100.948 3.90886C101.208 4.04692 101.44 4.2126 101.636 4.38748C101.831 4.57156 102.008 4.75564 102.147 4.94893C102.482 5.39072 102.724 5.88774 102.872 6.4584H100.669C100.576 6.2375 100.455 6.03501 100.306 5.86013C100.167 5.71287 99.9809 5.5748 99.767 5.44595C99.5532 5.31709 99.265 5.26187 98.921 5.26187C98.6607 5.26187 98.4096 5.31709 98.1679 5.42754C97.9262 5.53799 97.7217 5.69446 97.5357 5.88774C97.3498 6.08103 97.2103 6.32034 97.0988 6.59646C96.9965 6.87258 96.9407 7.18552 96.9407 7.52607C96.9407 7.86663 96.9965 8.17957 97.0988 8.45569C97.201 8.73181 97.3498 8.97112 97.5357 9.1644C97.7217 9.35769 97.9262 9.51416 98.1679 9.62461C98.4096 9.73506 98.6607 9.79028 98.921 9.79028C99.265 9.79028 99.5439 9.72586 99.767 9.6062C99.9809 9.47734 100.167 9.33928 100.306 9.19202C100.455 9.00793 100.576 8.81465 100.669 8.59375H102.872C102.742 9.1552 102.51 9.66143 102.175 10.1032C102.036 10.2965 101.868 10.4806 101.664 10.6647C101.468 10.8488 101.236 11.0052 100.976 11.1433C100.715 11.2813 100.409 11.401 100.074 11.4838C99.7391 11.5115 99.358 11.5575 98.9303 11.5575Z" fill="white"/>
<path d="M105.629 5.45537H103.044V3.65137H110.342V5.45537H107.758V11.3276H105.629V5.45537Z" fill="white"/>
<path d="M110.945 3.65156H113.074V4.6272H113.149C113.307 4.4063 113.511 4.20381 113.744 4.02893C113.948 3.88167 114.199 3.7436 114.497 3.61475C114.794 3.48589 115.157 3.43066 115.585 3.43066C116.077 3.43066 116.542 3.52271 116.979 3.71599C117.407 3.90928 117.788 4.1762 118.113 4.52595C118.439 4.87571 118.69 5.2991 118.885 5.80532C119.071 6.31155 119.164 6.873 119.164 7.48967C119.164 8.10635 119.071 8.677 118.885 9.17402C118.699 9.68025 118.439 10.1036 118.113 10.4534C117.788 10.8031 117.416 11.0793 116.979 11.2634C116.551 11.4566 116.087 11.5487 115.585 11.5487C115.157 11.5487 114.794 11.4843 114.497 11.3646C114.199 11.2357 113.948 11.0977 113.744 10.9504C113.511 10.7663 113.316 10.573 113.149 10.3521H113.074V14.1903H110.945V3.65156ZM115.045 9.74468C115.585 9.74468 116.031 9.55139 116.403 9.15561C116.765 8.75984 116.951 8.20759 116.951 7.48047C116.951 6.76255 116.765 6.2011 116.403 5.80532C116.04 5.41875 115.585 5.21626 115.045 5.21626C114.469 5.21626 113.995 5.40955 113.623 5.80532C113.251 6.2011 113.065 6.75334 113.065 7.48047C113.065 8.20759 113.251 8.75984 113.623 9.15561C113.995 9.55139 114.469 9.74468 115.045 9.74468Z" fill="white"/>
<path d="M123.177 11.3276H121.504L119.449 3.65137H121.653L123.177 9.52358H123.782L125.455 3.65137H127.659L124.544 14.1901H122.341L123.177 11.3276Z" fill="white"/>
<path d="M128.195 3.65137H130.324V6.51384H131.236L133.29 3.65137H135.642L133.132 7.18574L135.865 11.3276H133.43L131.449 8.31785H130.306V11.3276H128.177V3.65137H128.195Z" fill="white"/>
<path d="M138.154 5.45537H135.57V3.65137H142.868V5.45537H140.283V11.3276H138.154V5.45537Z" fill="white"/>
<path d="M146.511 11.3276H144.837L142.783 3.65137H144.986L146.511 9.52358H147.115L148.789 3.65137H150.992L147.878 14.1901H145.674L146.511 11.3276Z" fill="white"/>
<path d="M151.527 3.65156H153.656V4.6272H153.731C153.889 4.4063 154.093 4.20381 154.326 4.02893C154.53 3.88167 154.781 3.7436 155.079 3.61475C155.376 3.48589 155.739 3.43066 156.167 3.43066C156.659 3.43066 157.124 3.52271 157.561 3.71599C157.989 3.90928 158.37 4.1762 158.695 4.52595C159.021 4.87571 159.272 5.2991 159.467 5.80532C159.662 6.31155 159.746 6.873 159.746 7.48967C159.746 8.10635 159.653 8.677 159.467 9.17402C159.281 9.68025 159.021 10.1036 158.695 10.4534C158.37 10.8031 157.998 11.0793 157.561 11.2634C157.124 11.4474 156.669 11.5487 156.167 11.5487C155.739 11.5487 155.376 11.4843 155.079 11.3646C154.781 11.2357 154.53 11.0977 154.326 10.9504C154.093 10.7663 153.898 10.573 153.731 10.3521H153.656V14.1903H151.527V3.65156ZM155.637 9.74468C156.176 9.74468 156.622 9.55139 156.994 9.15561C157.357 8.75984 157.543 8.20759 157.543 7.48047C157.543 6.76255 157.357 6.2011 156.994 5.80532C156.631 5.41875 156.176 5.21626 155.637 5.21626C155.06 5.21626 154.586 5.40955 154.214 5.80532C153.842 6.2011 153.656 6.75334 153.656 7.48047C153.656 8.20759 153.842 8.75984 154.214 9.15561C154.586 9.55139 155.06 9.74468 155.637 9.74468Z" fill="white"/>
<path d="M160.728 3.65137H162.857V6.51384H166.13V3.65137H168.259V11.3276H166.13V8.31785H162.857V11.3276H160.728V3.65137Z" fill="white"/>
<path d="M169.619 3.65137H171.748V6.06284H173.189C173.663 6.06284 174.1 6.13647 174.482 6.27454C174.863 6.4126 175.197 6.60588 175.458 6.84519C175.727 7.0845 175.932 7.36062 176.081 7.68276C176.229 7.9957 176.304 8.33625 176.304 8.69521C176.304 9.05417 176.229 9.39473 176.081 9.70767C175.932 10.0206 175.727 10.3059 175.458 10.5452C175.188 10.7845 174.863 10.9778 174.482 11.1159C174.1 11.254 173.663 11.3276 173.189 11.3276H169.619V3.65137ZM173.04 9.59722C173.384 9.59722 173.645 9.51438 173.831 9.3395C174.017 9.16462 174.1 8.95293 174.1 8.69521C174.1 8.4375 174.007 8.2166 173.831 8.05093C173.645 7.87605 173.384 7.79321 173.04 7.79321H171.748V9.59722H173.04ZM177.066 3.65137H179.195V11.3276H177.066V3.65137Z" fill="white"/>
<path d="M182.002 7.41584L179.873 3.65137H182.226L183.667 6.51384H184.048L185.489 3.65137H187.841L185.721 7.41584L187.999 11.3276H185.647L184.048 8.31785H183.667L182.068 11.3276H179.715L182.002 7.41584Z" fill="white"/>
<path d="M3.98633 18.7002H6.11538V22.0137L6.041 23.3667H6.18974L9.30429 18.7002H11.5821V26.3764H9.45305V23.0629L9.52742 21.7099H9.37867L6.26412 26.3764H3.98633V18.7002Z" fill="white"/>
<path d="M19.8123 26.6063C19.208 26.6063 18.6408 26.5051 18.1202 26.2934C17.5996 26.0817 17.144 25.7963 16.7628 25.4282C16.3816 25.06 16.0841 24.6274 15.8703 24.1304C15.6565 23.6334 15.5542 23.1087 15.5542 22.5473C15.5542 21.9858 15.6565 21.452 15.8703 20.9642C16.0841 20.4672 16.3816 20.0346 16.7628 19.6664C17.144 19.2982 17.5903 19.0129 18.1202 18.8012C18.6408 18.5895 19.208 18.4883 19.8123 18.4883C20.4166 18.4883 20.9837 18.5895 21.4951 18.8012C22.0157 19.0129 22.462 19.2982 22.8431 19.6664C23.2243 20.0346 23.5218 20.4672 23.7357 20.9642C23.9495 21.4612 24.0611 21.9858 24.0611 22.5473C24.0611 23.1087 23.9495 23.6426 23.7357 24.1304C23.5218 24.6274 23.215 25.06 22.8431 25.4282C22.462 25.7963 22.0157 26.0817 21.4951 26.2934C20.9837 26.4959 20.4166 26.6063 19.8123 26.6063ZM19.8123 24.8023C20.0912 24.8023 20.3608 24.7471 20.6118 24.6366C20.8628 24.5262 21.0767 24.3697 21.2626 24.1764C21.4486 23.9831 21.5973 23.7438 21.6996 23.4677C21.8019 23.1916 21.8577 22.8878 21.8577 22.5381C21.8577 22.1975 21.8019 21.8846 21.6996 21.6085C21.5973 21.3323 21.4486 21.093 21.2626 20.8998C21.0767 20.7065 20.8536 20.55 20.6118 20.4396C20.3608 20.3291 20.1005 20.2739 19.8123 20.2739C19.5241 20.2739 19.2637 20.3291 19.0127 20.4396C18.7617 20.55 18.5479 20.7065 18.3619 20.8998C18.176 21.093 18.0272 21.3323 17.925 21.6085C17.8227 21.8846 17.7669 22.1975 17.7669 22.5381C17.7669 22.8786 17.8227 23.1916 17.925 23.4677C18.0272 23.7438 18.176 23.9831 18.3619 24.1764C18.5479 24.3697 18.771 24.5262 19.0127 24.6366C19.2637 24.7471 19.5241 24.8023 19.8123 24.8023Z" fill="white"/>
<path d="M28.7039 26.6063C28.1368 26.6063 27.6068 26.505 27.1141 26.2933C26.6213 26.0816 26.1937 25.7779 25.8404 25.3821C25.4778 24.9864 25.1989 24.5077 24.9851 23.9371C24.7805 23.3664 24.6689 22.7313 24.6689 22.0226C24.6689 19.9149 25.1152 18.3594 25.9984 17.3562C26.8817 16.3529 28.1647 15.8467 29.8382 15.8467H32.0416V17.6507H30.0613C28.9828 17.6507 28.1833 17.89 27.6533 18.3778C27.1234 18.8656 26.8352 19.5283 26.798 20.3567H26.8724C27.0118 20.1634 27.1978 19.9885 27.4209 19.8321C27.6161 19.7032 27.8579 19.5835 28.1461 19.4731C28.4436 19.3626 28.7969 19.3074 29.2245 19.3074C29.7173 19.3074 30.1821 19.3995 30.6098 19.5743C31.0375 19.7492 31.4094 19.9977 31.7162 20.3107C32.0323 20.6236 32.274 21.001 32.4507 21.4336C32.6273 21.8662 32.7203 22.3356 32.7203 22.851C32.7203 23.3848 32.6273 23.8727 32.4321 24.3329C32.2368 24.7931 31.9672 25.1888 31.6232 25.5202C31.2699 25.8607 30.8515 26.1185 30.3495 26.3209C29.866 26.505 29.3175 26.6063 28.7039 26.6063ZM28.7039 24.8023C29.2431 24.8023 29.6801 24.6274 30.0148 24.2776C30.3495 23.9279 30.5261 23.4493 30.5261 22.851C30.5261 22.2803 30.3588 21.8201 30.0148 21.4796C29.6708 21.139 29.2338 20.9642 28.7039 20.9642C28.1647 20.9642 27.7277 21.139 27.393 21.4796C27.049 21.8201 26.8817 22.2803 26.8817 22.851C26.8817 23.4493 27.049 23.9279 27.393 24.2776C27.7277 24.6182 28.1647 24.8023 28.7039 24.8023Z" fill="white"/>
<path d="M33.646 18.7004H35.775V19.676H35.8494C36.0075 19.4551 36.212 19.2526 36.4444 19.0778C36.649 18.9305 36.9 18.7924 37.1975 18.6636C37.495 18.5347 37.8576 18.4795 38.2853 18.4795C38.778 18.4795 39.2429 18.5715 39.6798 18.7648C40.1075 18.9581 40.4887 19.225 40.8141 19.5748C41.1395 19.9245 41.3905 20.3479 41.5858 20.8542C41.7717 21.3604 41.8647 21.9218 41.8647 22.5385C41.8647 23.1644 41.7717 23.7258 41.5858 24.2229C41.3998 24.7291 41.1395 25.1525 40.8141 25.5022C40.4887 25.852 40.1168 26.1281 39.6798 26.3122C39.2522 26.5055 38.7873 26.5975 38.2853 26.5975C37.8576 26.5975 37.495 26.5331 37.1975 26.4134C36.9 26.2846 36.649 26.1465 36.4444 25.9992C36.212 25.8152 36.0168 25.6219 35.8494 25.401H35.775V29.2391H33.646V18.7004ZM37.746 24.8027C38.2853 24.8027 38.7315 24.6094 39.1034 24.2136C39.466 23.8179 39.6519 23.2656 39.6519 22.5385C39.6519 21.8206 39.466 21.2591 39.1034 20.8634C38.7408 20.4768 38.2853 20.2743 37.746 20.2743C37.1696 20.2743 36.6955 20.4676 36.3236 20.8634C35.9517 21.2591 35.7657 21.8114 35.7657 22.5385C35.7657 23.2656 35.9517 23.8179 36.3236 24.2136C36.6955 24.6002 37.1696 24.8027 37.746 24.8027Z" fill="white"/>
<path d="M46.0306 26.6063C45.5378 26.6063 45.073 26.5143 44.636 26.321C44.2083 26.1277 43.8272 25.8608 43.5018 25.511C43.1764 25.1613 42.9253 24.7379 42.7301 24.2316C42.5441 23.7346 42.4512 23.164 42.4512 22.5473C42.4512 21.9214 42.5441 21.36 42.7301 20.8629C42.916 20.3567 43.1764 19.9333 43.5018 19.5836C43.8272 19.2338 44.199 18.9577 44.636 18.7736C45.0637 18.5803 45.5285 18.4883 46.0306 18.4883C46.4582 18.4883 46.8208 18.5527 47.1183 18.6724C47.4158 18.8012 47.6669 18.9393 47.8714 19.0865C48.1038 19.2706 48.2991 19.4639 48.4664 19.6848H48.5408V18.7092H50.6698V26.3854H48.5408V25.4098H48.4664C48.3084 25.6307 48.1038 25.8332 47.8714 26.008C47.6669 26.1553 47.4158 26.2934 47.1183 26.4222C46.8208 26.5419 46.4582 26.6063 46.0306 26.6063ZM46.5605 24.8023C47.1369 24.8023 47.6111 24.609 47.983 24.2132C48.3548 23.8175 48.5408 23.2652 48.5408 22.5381C48.5408 21.8202 48.3548 21.2587 47.983 20.8629C47.6111 20.4764 47.1369 20.2739 46.5605 20.2739C46.0213 20.2739 45.575 20.4672 45.2031 20.8629C44.8405 21.2587 44.6546 21.811 44.6546 22.5381C44.6546 23.2652 44.8405 23.8175 45.2031 24.2132C45.575 24.5998 46.0306 24.8023 46.5605 24.8023Z" fill="white"/>
<path d="M55.233 26.6059C54.8146 26.6059 54.4427 26.5691 54.1173 26.4954C53.7919 26.4218 53.4944 26.3206 53.2434 26.1917C52.9924 26.0628 52.7693 25.9156 52.5926 25.7591C52.4067 25.6026 52.2486 25.437 52.1185 25.2621C51.8117 24.8571 51.6164 24.4061 51.5142 23.9091H53.6432C53.7083 24.1024 53.8013 24.268 53.9314 24.4061C54.043 24.5258 54.201 24.6362 54.4056 24.7375C54.6101 24.8387 54.889 24.8847 55.233 24.8847C55.6886 24.8847 56.014 24.8019 56.2185 24.6454C56.423 24.4889 56.5253 24.2865 56.5253 24.0563C56.5253 23.7986 56.4323 23.5961 56.2557 23.4489C56.0698 23.3016 55.7351 23.228 55.233 23.228H54.2475V21.7185H55.1586C55.6142 21.7185 55.9303 21.6449 56.1069 21.4976C56.2836 21.3503 56.3765 21.1479 56.3765 20.8901C56.3765 20.6969 56.2743 20.522 56.0697 20.3747C55.8652 20.2182 55.5398 20.1446 55.0843 20.1446C54.7867 20.1446 54.5636 20.1906 54.3963 20.2735C54.2289 20.3563 54.0988 20.4575 54.0058 20.568C53.8942 20.6876 53.8198 20.8257 53.7919 20.973H51.6629C51.7838 20.5128 51.9883 20.0986 52.2858 19.7396C52.4067 19.5924 52.5554 19.4359 52.7321 19.2886C52.9087 19.1414 53.1132 19.0033 53.355 18.8836C53.5967 18.764 53.8663 18.6719 54.1731 18.5983C54.4799 18.5247 54.8332 18.4971 55.233 18.4971C55.7815 18.4971 56.2557 18.5615 56.6741 18.6812C57.0831 18.8008 57.4271 18.9665 57.6967 19.169C57.9664 19.3715 58.1709 19.6108 58.3011 19.8685C58.4312 20.1262 58.4963 20.4023 58.4963 20.6784C58.4963 21.0098 58.4219 21.2767 58.2825 21.4884C58.143 21.7001 57.985 21.8566 57.8083 21.967C57.6038 22.0959 57.3806 22.1971 57.1203 22.2523V22.326C57.3992 22.3996 57.6596 22.5101 57.8827 22.6757C58.0779 22.8138 58.2546 23.0071 58.4033 23.2556C58.5614 23.5041 58.6358 23.817 58.6358 24.2128C58.6358 24.535 58.5707 24.8387 58.4498 25.1332C58.3197 25.4278 58.1244 25.6763 57.8455 25.8972C57.5666 26.1181 57.2133 26.2929 56.7856 26.4218C56.3672 26.5415 55.8466 26.6059 55.233 26.6059Z" fill="white"/>
<path d="M63.4412 26.6063C62.8369 26.6063 62.2698 26.5051 61.7491 26.2934C61.2285 26.0817 60.7729 25.7963 60.3917 25.4282C60.0105 25.06 59.713 24.6274 59.4992 24.1304C59.2854 23.6334 59.1831 23.1087 59.1831 22.5473C59.1831 21.9858 59.2854 21.452 59.4992 20.9642C59.713 20.4672 60.0105 20.0346 60.3917 19.6664C60.7729 19.2982 61.2192 19.0129 61.7491 18.8012C62.2698 18.5895 62.8369 18.4883 63.4412 18.4883C64.0455 18.4883 64.6126 18.5895 65.124 18.8012C65.6446 19.0129 66.0909 19.2982 66.4721 19.6664C66.8532 20.0346 67.1507 20.4672 67.3646 20.9642C67.5784 21.4612 67.69 21.9858 67.69 22.5473C67.69 23.1087 67.5784 23.6426 67.3646 24.1304C67.1507 24.6274 66.8439 25.06 66.4721 25.4282C66.0909 25.7963 65.6446 26.0817 65.124 26.2934C64.6126 26.4959 64.0548 26.6063 63.4412 26.6063ZM63.4412 24.8023C63.7201 24.8023 63.9897 24.7471 64.2407 24.6366C64.4918 24.5262 64.7056 24.3697 64.8915 24.1764C65.0775 23.9831 65.2262 23.7438 65.3285 23.4677C65.4308 23.1916 65.4866 22.8878 65.4866 22.5381C65.4866 22.1975 65.4308 21.8846 65.3285 21.6085C65.2262 21.3323 65.0775 21.093 64.8915 20.8998C64.7056 20.7065 64.4825 20.55 64.2407 20.4396C63.9897 20.3291 63.7294 20.2739 63.4412 20.2739C63.153 20.2739 62.8927 20.3291 62.6416 20.4396C62.3906 20.55 62.1768 20.7065 61.9908 20.8998C61.8049 21.093 61.6561 21.3323 61.5539 21.6085C61.4516 21.8846 61.3958 22.1975 61.3958 22.5381C61.3958 22.8786 61.4516 23.1916 61.5539 23.4677C61.6561 23.7438 61.8049 23.9831 61.9908 24.1764C62.1768 24.3697 62.3999 24.5262 62.6416 24.6366C62.8927 24.7471 63.1623 24.8023 63.4412 24.8023Z" fill="white"/>
<path d="M68.6074 18.7002H72.8655C73.2839 18.7002 73.6465 18.7462 73.9626 18.8475C74.2787 18.9395 74.539 19.0776 74.7435 19.2432C74.9481 19.4181 75.1061 19.6114 75.2177 19.8415C75.32 20.0716 75.3757 20.3201 75.3757 20.5778C75.3757 20.9368 75.3107 21.2313 75.1712 21.443C75.0317 21.6547 74.883 21.8296 74.7249 21.9492C74.539 22.0873 74.3345 22.1886 74.0834 22.2346V22.3082C74.3903 22.3726 74.6692 22.4739 74.9202 22.6211C75.1247 22.7592 75.3107 22.9525 75.4873 23.1918C75.664 23.4311 75.7569 23.7625 75.7569 24.1858C75.7569 24.4988 75.6919 24.7841 75.571 25.051C75.4408 25.3179 75.2549 25.548 75.0132 25.7413C74.7714 25.9346 74.4646 26.0911 74.1113 26.2015C73.7487 26.312 73.3397 26.3672 72.8748 26.3672H68.6167L68.6074 18.7002ZM72.5587 21.6363C72.7911 21.6363 72.9771 21.5719 73.1165 21.443C73.256 21.3142 73.3211 21.1485 73.3211 20.9644C73.3211 20.7711 73.256 20.6146 73.1165 20.4858C72.9771 20.3569 72.7911 20.2925 72.5587 20.2925H70.7365V21.6455H72.5587V21.6363ZM72.7168 24.8025C72.9771 24.8025 73.2002 24.7197 73.3676 24.5632C73.5442 24.4067 73.6279 24.2042 73.6279 23.9741C73.6279 23.744 73.5442 23.5508 73.3676 23.3851C73.1909 23.2286 72.9771 23.1458 72.7168 23.1458H70.7365V24.8025H72.7168Z" fill="white"/>
<path d="M79.9246 26.6063C79.4319 26.6063 78.967 26.5143 78.53 26.321C78.1024 26.1277 77.7212 25.8608 77.3958 25.511C77.0704 25.1613 76.8194 24.7379 76.6241 24.2316C76.4382 23.7346 76.3452 23.164 76.3452 22.5473C76.3452 21.9214 76.4382 21.36 76.6241 20.8629C76.8101 20.3567 77.0704 19.9333 77.3958 19.5836C77.7212 19.2338 78.0931 18.9577 78.53 18.7736C78.9577 18.5803 79.4226 18.4883 79.9246 18.4883C80.3523 18.4883 80.7149 18.5527 81.0124 18.6724C81.3099 18.8012 81.5609 18.9393 81.7654 19.0865C81.9979 19.2706 82.1931 19.4639 82.3605 19.6848H82.4348V18.7092H84.5639V26.3854H82.4348V25.4098H82.3605C82.2024 25.6307 81.9979 25.8332 81.7654 26.008C81.5609 26.1553 81.3099 26.2934 81.0124 26.4222C80.7149 26.5419 80.3523 26.6063 79.9246 26.6063ZM80.4638 24.8023C81.0403 24.8023 81.5144 24.609 81.8863 24.2132C82.2582 23.8175 82.4441 23.2652 82.4441 22.5381C82.4441 21.8202 82.2582 21.2587 81.8863 20.8629C81.5144 20.4764 81.0403 20.2739 80.4638 20.2739C79.9246 20.2739 79.4783 20.4672 79.1065 20.8629C78.7439 21.2587 78.5579 21.811 78.5579 22.5381C78.5579 23.2652 78.7439 23.8175 79.1065 24.2132C79.4691 24.5998 79.9246 24.8023 80.4638 24.8023Z" fill="white"/>
<path d="M87.7609 20.513H85.1763V18.709H92.4745V20.513H89.8899V26.3852H87.7609V20.513Z" fill="white"/>
<path d="M96.7955 26.6063C96.2098 26.6063 95.6613 26.5051 95.1499 26.2934C94.6386 26.0817 94.1923 25.7963 93.8204 25.4282C93.4485 25.06 93.1511 24.6274 92.9372 24.1304C92.7234 23.6334 92.6211 23.1087 92.6211 22.5473C92.6211 21.9858 92.7234 21.452 92.9372 20.9642C93.1511 20.4672 93.4485 20.0346 93.8204 19.6664C94.1923 19.2982 94.6386 19.0129 95.1499 18.8012C95.6613 18.5895 96.2098 18.4883 96.7955 18.4883C97.3998 18.4883 97.9577 18.5895 98.4597 18.8012C98.9618 19.0129 99.3987 19.3074 99.7613 19.6756C100.124 20.0438 100.403 20.4764 100.607 20.9734C100.803 21.4612 100.905 21.995 100.905 22.5565V23.0075H94.8245C94.8617 23.2468 94.9454 23.4769 95.057 23.6978C95.1778 23.9187 95.3173 24.112 95.4939 24.2777C95.6706 24.4433 95.8751 24.5722 96.0982 24.6734C96.3214 24.7655 96.5538 24.8207 96.7955 24.8207C97.1395 24.8207 97.4184 24.7747 97.6416 24.6734C97.8554 24.5814 98.0413 24.4709 98.1808 24.3605C98.3295 24.2316 98.4504 24.0844 98.5434 23.9095H100.821C100.663 24.4157 100.403 24.8667 100.059 25.2625C99.91 25.4374 99.7334 25.6031 99.5289 25.7595C99.3243 25.916 99.0919 26.0633 98.8316 26.1921C98.5713 26.321 98.2645 26.4222 97.9298 26.4959C97.5951 26.5695 97.2139 26.6063 96.7955 26.6063ZM98.6178 21.7097C98.5806 21.5164 98.5062 21.3416 98.4039 21.1667C98.3016 20.9918 98.1715 20.8445 98.0134 20.7157C97.8554 20.5868 97.6695 20.4764 97.4649 20.4027C97.2604 20.3199 97.0279 20.2831 96.7862 20.2831C96.2935 20.2831 95.8751 20.4303 95.5497 20.7157C95.2243 21.001 95.0012 21.3323 94.8896 21.7189H98.6178V21.7097Z" fill="white"/>
<path d="M103.111 18.7002H107.22L109.275 26.3764H107.146L105.547 20.5042H104.784L103.185 26.3764H101.056L103.111 18.7002Z" fill="white"/>
<path d="M109.801 18.7002H111.93V21.1117H113.678C114.152 21.1117 114.589 21.1853 114.97 21.3234C115.351 21.4614 115.686 21.6547 115.946 21.894C116.216 22.1333 116.42 22.4094 116.569 22.7316C116.718 23.0445 116.792 23.3851 116.792 23.744C116.792 24.103 116.718 24.4436 116.569 24.7565C116.42 25.0694 116.216 25.3548 115.946 25.5941C115.677 25.8334 115.351 26.0267 114.97 26.1647C114.589 26.3028 114.152 26.3764 113.678 26.3764H109.801V18.7002ZM113.529 24.646C113.873 24.646 114.133 24.5632 114.319 24.3883C114.505 24.2135 114.589 24.0018 114.589 23.744C114.589 23.4863 114.496 23.2654 114.319 23.0998C114.133 22.9249 113.873 22.842 113.529 22.842H111.93V24.646H113.529Z" fill="white"/>
<path d="M117.625 18.7002H119.754V21.5627H123.026V18.7002H125.155V26.3764H123.026V23.3667H119.754V26.3764H117.625V18.7002Z" fill="white"/>
<path d="M126.516 18.7002H128.645V21.1117H130.086C130.56 21.1117 130.997 21.1853 131.378 21.3234C131.759 21.4614 132.094 21.6547 132.354 21.894C132.624 22.1333 132.828 22.4094 132.977 22.7316C133.126 23.0445 133.2 23.3851 133.2 23.744C133.2 24.103 133.126 24.4436 132.977 24.7565C132.828 25.0694 132.624 25.3548 132.354 25.5941C132.085 25.8334 131.759 26.0267 131.378 26.1647C130.997 26.3028 130.56 26.3764 130.086 26.3764H126.516V18.7002ZM129.937 24.646C130.281 24.646 130.541 24.5632 130.727 24.3883C130.913 24.2135 130.997 24.0018 130.997 23.744C130.997 23.4863 130.904 23.2654 130.727 23.0998C130.541 22.9249 130.281 22.842 129.937 22.842H128.645V24.646H129.937ZM133.963 18.7002H136.092V26.3764H133.963V18.7002Z" fill="white"/>
<path d="M138.899 22.4647L136.77 18.7002H139.123L140.564 21.5627H140.945L142.386 18.7002H144.738L142.609 22.4647L144.887 26.3764H142.535L140.935 23.3667H140.554L138.955 26.3764H136.603L138.899 22.4647Z" fill="white"/>
<path d="M149.41 18.7002H156.857V26.3764H154.728V20.5042H151.539V26.3764H149.41V18.7002Z" fill="white"/>
<path d="M158.215 18.7004H160.344V19.676H160.418C160.576 19.4551 160.781 19.2526 161.013 19.0778C161.218 18.9305 161.469 18.7924 161.766 18.6636C162.064 18.5347 162.426 18.4795 162.854 18.4795C163.347 18.4795 163.812 18.5715 164.249 18.7648C164.676 18.9581 165.058 19.225 165.383 19.5748C165.708 19.9245 165.959 20.3479 166.155 20.8542C166.341 21.3604 166.434 21.9218 166.434 22.5385C166.434 23.1644 166.341 23.7258 166.155 24.2229C165.969 24.7291 165.708 25.1525 165.383 25.5022C165.058 25.852 164.686 26.1281 164.249 26.3122C163.821 26.5055 163.356 26.5975 162.854 26.5975C162.426 26.5975 162.064 26.5331 161.766 26.4134C161.469 26.2846 161.218 26.1465 161.013 25.9992C160.781 25.8152 160.586 25.6219 160.418 25.401H160.344V29.2391H158.215V18.7004ZM162.315 24.8027C162.854 24.8027 163.3 24.6094 163.672 24.2136C164.035 23.8179 164.221 23.2656 164.221 22.5385C164.221 21.8206 164.035 21.2591 163.672 20.8634C163.31 20.4768 162.854 20.2743 162.315 20.2743C161.738 20.2743 161.264 20.4676 160.892 20.8634C160.521 21.2591 160.335 21.8114 160.335 22.5385C160.335 23.2656 160.521 23.8179 160.892 24.2136C161.264 24.6002 161.738 24.8027 162.315 24.8027Z" fill="white"/>
<path d="M171.209 26.6063C170.605 26.6063 170.038 26.5051 169.517 26.2934C168.997 26.0817 168.541 25.7963 168.16 25.4282C167.779 25.06 167.481 24.6274 167.267 24.1304C167.053 23.6334 166.951 23.1087 166.951 22.5473C166.951 21.9858 167.053 21.452 167.267 20.9642C167.481 20.4672 167.779 20.0346 168.16 19.6664C168.541 19.2982 168.987 19.0129 169.517 18.8012C170.038 18.5895 170.605 18.4883 171.209 18.4883C171.814 18.4883 172.381 18.5895 172.892 18.8012C173.413 19.0129 173.859 19.2982 174.24 19.6664C174.621 20.0346 174.919 20.4672 175.133 20.9642C175.346 21.4612 175.458 21.9858 175.458 22.5473C175.458 23.1087 175.346 23.6426 175.133 24.1304C174.919 24.6274 174.612 25.06 174.24 25.4282C173.859 25.7963 173.413 26.0817 172.892 26.2934C172.381 26.4959 171.814 26.6063 171.209 26.6063ZM171.209 24.8023C171.488 24.8023 171.758 24.7471 172.009 24.6366C172.26 24.5262 172.474 24.3697 172.66 24.1764C172.846 23.9831 172.994 23.7438 173.097 23.4677C173.199 23.1916 173.255 22.8878 173.255 22.5381C173.255 22.1975 173.199 21.8846 173.097 21.6085C172.994 21.3323 172.846 21.093 172.66 20.8998C172.474 20.7065 172.251 20.55 172.009 20.4396C171.758 20.3291 171.497 20.2739 171.209 20.2739C170.921 20.2739 170.661 20.3291 170.41 20.4396C170.159 20.55 169.945 20.7065 169.759 20.8998C169.573 21.093 169.424 21.3323 169.322 21.6085C169.22 21.8846 169.164 22.1975 169.164 22.5381C169.164 22.8786 169.22 23.1916 169.322 23.4677C169.424 23.7438 169.573 23.9831 169.759 24.1764C169.945 24.3697 170.168 24.5262 170.41 24.6366C170.661 24.7471 170.921 24.8023 171.209 24.8023Z" fill="white"/>
<path d="M176.376 18.7002H182.233V20.5042H178.505V26.3764H176.376V18.7002Z" fill="white"/>
<path d="M182.917 18.7004H185.046V19.676H185.12C185.278 19.4551 185.483 19.2526 185.715 19.0778C185.92 18.9305 186.171 18.7924 186.468 18.6636C186.766 18.5347 187.129 18.4795 187.556 18.4795C188.049 18.4795 188.514 18.5715 188.951 18.7648C189.378 18.9581 189.76 19.225 190.085 19.5748C190.41 19.9245 190.661 20.3479 190.857 20.8542C191.043 21.3604 191.136 21.9218 191.136 22.5385C191.136 23.1644 191.043 23.7258 190.857 24.2229C190.671 24.7291 190.41 25.1525 190.085 25.5022C189.76 25.852 189.388 26.1281 188.951 26.3122C188.523 26.5055 188.058 26.5975 187.556 26.5975C187.129 26.5975 186.766 26.5331 186.468 26.4134C186.171 26.2846 185.92 26.1465 185.715 25.9992C185.483 25.8152 185.288 25.6219 185.12 25.401H185.046V29.2391H182.917V18.7004ZM187.017 24.8027C187.556 24.8027 188.003 24.6094 188.374 24.2136C188.737 23.8179 188.923 23.2656 188.923 22.5385C188.923 21.8206 188.737 21.2591 188.374 20.8634C188.012 20.4768 187.556 20.2743 187.017 20.2743C186.441 20.2743 185.966 20.4676 185.595 20.8634C185.223 21.2591 185.037 21.8114 185.037 22.5385C185.037 23.2656 185.223 23.8179 185.595 24.2136C185.966 24.6002 186.441 24.8027 187.017 24.8027Z" fill="white"/>
<path d="M195.302 26.6063C194.809 26.6063 194.344 26.5143 193.907 26.321C193.479 26.1277 193.098 25.8608 192.773 25.511C192.447 25.1613 192.196 24.7379 192.001 24.2316C191.815 23.7346 191.722 23.164 191.722 22.5473C191.722 21.9214 191.815 21.36 192.001 20.8629C192.187 20.3567 192.447 19.9333 192.773 19.5836C193.098 19.2338 193.47 18.9577 193.907 18.7736C194.335 18.5803 194.799 18.4883 195.302 18.4883C195.729 18.4883 196.092 18.5527 196.389 18.6724C196.687 18.8012 196.938 18.9393 197.142 19.0865C197.375 19.2706 197.57 19.4639 197.737 19.6848H197.812V18.7092H199.941V26.3854H197.812V25.4098H197.737C197.579 25.6307 197.375 25.8332 197.142 26.008C196.938 26.1553 196.687 26.2934 196.389 26.4222C196.092 26.5419 195.729 26.6063 195.302 26.6063ZM195.841 24.8023C196.417 24.8023 196.891 24.609 197.263 24.2132C197.635 23.8175 197.821 23.2652 197.821 22.5381C197.821 21.8202 197.635 21.2587 197.263 20.8629C196.891 20.4764 196.417 20.2739 195.841 20.2739C195.302 20.2739 194.855 20.4672 194.483 20.8629C194.121 21.2587 193.935 21.811 193.935 22.5381C193.935 23.2652 194.121 23.8175 194.483 24.2132C194.846 24.5998 195.302 24.8023 195.841 24.8023Z" fill="white"/>
<path d="M201.302 18.7002H204.193L206.015 22.842H206.248L208.07 18.7002H210.961V26.3764H208.832V22.5383L208.907 21.1853H208.832L207.159 24.9498H205.104L203.431 21.1853H203.356L203.431 22.5383V26.3764H201.302V18.7002Z" fill="white"/>
<path d="M212.336 18.7002H215.228L217.05 22.842H217.283L219.105 18.7002H221.987V26.3764H219.858V22.5383L219.932 21.1853H219.858L218.184 24.9498H216.13L214.456 21.1853H214.382L214.456 22.5383V26.3764H212.327L212.336 18.7002Z" fill="white"/>
<path d="M14.9699 40.96H3.61621V63.7588H14.9699V40.96Z" fill="white"/>
<path d="M27.9457 40.96H24.1611V63.7588H27.9457V40.96Z" fill="white"/>
<path d="M58.7018 40.96H47.3481V63.7588H58.7018V40.96Z" fill="white"/>
<path d="M78.3568 40.96H74.5723V63.7588H78.3568V40.96Z" fill="white"/>
<path d="M149.334 40.96H137.98V63.7588H149.334V40.96Z" fill="white"/>
<path d="M180.375 40.96H176.591V63.7588H180.375V40.96Z" fill="white"/>
<path d="M127.637 40.96H104.929V63.7588H127.637V40.96Z" fill="white"/>
<path d="M221.368 40.96H200.553V63.7588H221.368V40.96Z" fill="white"/>
</svg>
