<svg width="190" height="172" viewBox="0 0 190 172" fill="none" xmlns="http://www.w3.org/2000/svg">
<g id="AbstractShape 6" filter="url(#filter0_d_2065_11278)">
<g id="Group" opacity="0.9">
<path id="Vector" d="M105.249 140.734C100.97 140.734 96.613 140.579 92.2229 140.258C46.481 136.954 10.5172 117.021 12.0471 95.8239C12.7898 85.4915 22.1688 76.434 38.4434 70.3144C54.6072 64.2391 75.6711 61.778 97.7771 63.3744C143.519 66.6781 179.483 86.6112 177.953 107.808C177.21 118.141 167.831 127.198 151.557 133.318C138.608 138.184 122.511 140.734 105.249 140.734ZM84.7397 63.7846C67.5892 63.7846 51.6028 66.3123 38.7538 71.1459C22.8229 77.1325 13.6546 85.9238 12.934 95.8904C11.4373 116.6 47.0353 136.111 92.2894 139.382C114.262 140.967 135.204 138.528 151.246 132.497C167.177 126.511 176.345 117.719 177.066 107.753C178.563 87.0436 142.965 67.5318 97.7106 64.2613C93.3315 63.9398 88.9968 63.7846 84.7397 63.7846Z" fill="#12D6A7"/>
<path id="Vector_2" d="M97.9104 138.739C96.181 138.739 94.4515 138.717 92.711 138.661C47.9779 137.364 12.0806 119.438 12.6793 98.7066C12.9675 88.5959 21.7367 79.3721 37.3462 72.7204C52.8448 66.124 73.2878 62.8314 94.8949 63.4634C139.628 64.7605 175.525 82.6869 174.927 103.418C174.638 113.529 165.869 122.753 150.26 129.404C136.014 135.469 117.589 138.739 97.9104 138.739ZM89.6844 64.2726C70.1283 64.2726 51.8248 67.5209 37.6898 73.5408C22.413 80.0484 13.8433 88.995 13.5661 98.7287C12.9786 118.972 48.4989 136.489 92.7442 137.775C114.229 138.395 134.539 135.136 149.927 128.584C165.204 122.076 173.774 113.13 174.051 103.396C174.638 83.1525 139.118 65.6363 94.8728 64.3502C93.1433 64.2948 91.4138 64.2726 89.6955 64.2726H89.6844Z" fill="#12D6A7"/>
<path id="Vector_3" d="M90.3492 137.087C70.2831 137.087 51.4586 133.639 37.0797 127.287C21.9026 120.591 13.466 111.467 13.3108 101.589C13.1556 91.6999 21.2929 82.3098 36.2371 75.1259C51.0706 67.9975 70.8817 63.8845 92.001 63.5408C113.12 63.186 133.053 66.6671 148.12 73.3078C163.297 80.0039 171.733 89.1279 171.9 99.0057C172.221 119.271 136.923 136.333 93.1984 137.043C92.2449 137.054 91.3026 137.065 90.3603 137.065L90.3492 137.087ZM94.8502 64.4166C93.9079 64.4166 92.9655 64.4166 92.0121 64.4388C71.0147 64.7824 51.3366 68.8622 36.6141 75.9352C21.9913 82.9529 14.0314 92.0657 14.1866 101.578C14.3418 111.09 22.5899 119.937 37.4345 126.489C52.3787 133.085 72.1566 136.533 93.1762 136.189C136.413 135.491 171.323 118.828 171.002 99.0501C170.846 89.5381 162.587 80.6912 147.754 74.1392C133.486 67.8423 114.783 64.4166 94.8391 64.4166H94.8502Z" fill="#12D6A7"/>
<path id="Vector_4" d="M82.9442 135.812C66.3037 135.812 50.7719 133.295 38.3663 128.517C23.2225 122.675 14.542 114.138 13.9322 104.482C12.6795 84.6821 46.4039 66.3565 89.1193 63.6515C109.762 62.3433 129.396 64.8155 144.429 70.6136C159.572 76.4561 168.253 84.9925 168.863 94.6486C170.115 114.449 136.391 132.774 93.6757 135.479C90.0616 135.712 86.4696 135.823 82.9442 135.823V135.812ZM99.8618 64.1836C96.3475 64.1836 92.7777 64.2945 89.1747 64.5273C46.9471 67.2102 13.5996 85.1034 14.8191 104.416C15.4067 113.706 23.8877 121.965 38.6878 127.675C53.5989 133.428 73.1107 135.878 93.6203 134.57C135.848 131.887 169.195 113.994 167.976 94.6708C167.388 85.3806 158.907 77.1213 144.107 71.4119C131.812 66.6669 116.391 64.1725 99.8618 64.1725V64.1836Z" fill="#12D6A7"/>
<path id="Vector_5" d="M75.9134 134.914C62.5323 134.914 50.0492 133.152 39.6613 129.726C24.5508 124.737 15.6374 116.799 14.5621 107.365C12.3781 88.0305 44.5172 68.4522 86.2237 63.7294C106.367 61.4456 125.724 62.9201 140.724 67.8757C155.834 72.8645 164.748 80.8022 165.823 90.2367C168.007 109.571 135.868 129.149 94.1614 133.872C87.9642 134.571 81.8446 134.925 75.9134 134.925V134.914ZM104.483 63.5742C98.5737 63.5742 92.4874 63.9179 86.3234 64.6163C45.1047 69.2836 13.3093 88.4185 15.4379 107.265C16.4689 116.334 25.1605 124.016 39.9274 128.883C54.8052 133.795 74.0288 135.258 94.0506 132.985C135.269 128.318 167.065 109.183 164.936 90.3364C163.905 81.2679 155.213 73.5962 140.447 68.7182C130.147 65.3147 117.764 63.5742 104.483 63.5742Z" fill="#12D6A7"/>
<path id="Vector_6" d="M69.4075 134.404C59.0418 134.404 49.3636 133.24 40.9602 130.945C25.8718 126.81 16.7256 119.46 15.2068 110.258C12.0915 91.3897 42.6563 70.5586 83.3429 63.8292C102.999 60.581 122.067 61.0466 137.045 65.1596C152.133 69.2948 161.279 76.6449 162.798 85.8465C165.913 104.715 135.349 125.546 94.662 132.276C86.0369 133.706 77.5226 134.415 69.4186 134.415L69.4075 134.404ZM108.597 62.5765C100.538 62.5765 92.0678 63.286 83.487 64.7051C43.2772 71.3568 13.0339 91.7223 16.0715 110.114C17.5349 118.961 26.4482 126.056 41.1819 130.092C56.0375 134.16 74.9728 134.626 94.4957 131.4C134.706 124.748 164.949 104.383 161.911 85.9907C160.448 77.1438 151.535 70.0486 136.801 66.0132C128.475 63.7295 118.863 62.5765 108.586 62.5765H108.597Z" fill="#12D6A7"/>
<path id="Vector_7" d="M63.5201 134.271C55.8927 134.271 48.7199 133.573 42.2566 132.165C27.2015 128.883 17.8225 122.121 15.8381 113.152C11.7916 94.7488 40.7711 72.665 80.4599 63.929C99.628 59.7051 118.408 59.1841 133.352 62.4434C148.408 65.725 157.787 72.4876 159.771 81.4564C163.817 99.8596 134.838 121.943 95.1492 130.679C84.2736 133.074 73.5199 134.282 63.5201 134.282V134.271ZM112.078 61.2018C102.145 61.2018 91.4574 62.3991 80.6483 64.7826C41.4473 73.4188 12.7561 95.0259 16.7028 112.952C18.5986 121.578 27.7447 128.085 42.4451 131.289C57.2674 134.526 75.9145 133.994 94.9607 129.804C134.162 121.167 162.842 99.5602 158.906 81.6448C157.011 73.0197 147.864 66.5121 133.164 63.3082C126.756 61.9113 119.639 61.2129 112.089 61.2129L112.078 61.2018Z" fill="#12D6A7"/>
<path id="Vector_8" d="M58.3329 134.482C53.1334 134.482 48.1779 134.116 43.5549 133.362C28.522 130.923 18.9102 124.77 16.4823 116.023C11.5045 98.0854 38.9098 74.7599 77.5787 64.0063C96.259 58.8179 114.751 57.288 129.662 59.7048C144.695 62.1327 154.307 68.2967 156.735 77.0437C161.712 94.9813 134.307 118.307 95.6382 129.06C82.7449 132.641 69.9291 134.482 58.3329 134.482ZM114.884 59.472C103.365 59.472 90.6383 61.3012 77.8115 64.8599C39.6193 75.4805 12.4912 98.3182 17.3359 115.779C19.664 124.182 29.0319 130.114 43.6991 132.486C58.4881 134.881 76.847 133.362 95.4053 128.196C133.598 117.586 160.726 94.7374 155.881 77.2765C153.553 68.8842 144.185 62.942 129.518 60.5695C124.95 59.8268 120.039 59.4609 114.884 59.4609V59.472Z" fill="#12D6A7"/>
<path id="Vector_9" d="M53.8411 135.036C50.7369 135.036 47.7325 134.881 44.8612 134.581C29.8615 132.996 20.0169 127.442 17.1234 118.917C11.2144 101.456 37.0343 76.8664 74.6943 64.1061C92.8869 57.9421 111.091 55.4144 125.968 56.9887C140.968 58.574 150.813 64.1283 153.706 72.6536C159.615 90.1144 133.795 114.704 96.1351 127.464C81.468 132.431 66.7787 135.036 53.8411 135.036ZM116.977 57.4211C104.139 57.4211 89.5499 60.0153 74.9715 64.9487C37.7771 77.5426 12.2011 101.633 17.9659 118.628C20.7375 126.799 30.316 132.154 44.9499 133.695C59.7057 135.247 77.7763 132.73 95.8469 126.61C133.041 114.016 158.617 89.9371 152.852 72.9307C150.081 64.7602 140.502 59.4055 125.868 57.8645C123.019 57.5652 120.048 57.4211 116.966 57.4211H116.977Z" fill="#12D6A7"/>
<path id="Vector_10" d="M50.0181 135.879C48.7099 135.879 47.4128 135.845 46.149 135.79C31.1825 135.058 21.094 130.092 17.757 121.799C10.9168 104.804 35.1514 78.9619 71.7915 64.2061C89.4852 57.0776 107.412 53.5522 122.256 54.2728C137.223 55.0045 147.311 59.9711 150.648 68.2636C157.488 85.2589 133.254 111.101 96.6136 125.857C80.4277 132.375 64.0533 135.89 50.0181 135.89V135.879ZM118.387 55.0599C104.463 55.0599 88.2102 58.5521 72.1241 65.0264C35.9385 79.6049 11.9146 104.926 18.5774 121.467C21.7814 129.415 31.5816 134.194 46.1933 134.903C60.9159 135.613 78.7093 132.109 96.2921 125.025C132.478 110.447 156.502 85.1258 149.839 68.5851C146.635 60.6363 136.835 55.8581 122.223 55.1486C120.97 55.0821 119.684 55.0599 118.387 55.0599Z" fill="#12D6A7"/>
<path id="Vector_11" d="M46.8238 136.998C32.2232 136.998 22.1458 132.641 18.3986 124.681C10.6271 108.152 33.2764 81.068 68.9076 64.2945C86.1135 56.1905 103.752 51.6673 118.563 51.5342C133.463 51.379 143.817 55.7803 147.609 63.84C155.38 80.3696 132.72 107.453 97.1 124.227C79.8941 132.331 62.2558 136.854 47.4446 136.976C47.2339 136.976 47.0233 136.976 46.8238 136.976V136.998ZM119.195 52.4322C118.984 52.4322 118.785 52.4322 118.574 52.4322C103.885 52.5542 86.3795 57.0552 69.2845 65.1038C34.0967 81.6667 11.636 108.229 19.1968 124.316C22.8331 132.043 32.8994 136.278 47.4335 136.111C62.1228 135.989 79.628 131.488 96.723 123.44C131.9 106.877 154.372 80.3142 146.811 64.2391C143.23 56.6117 133.43 52.4322 119.195 52.4322Z" fill="#12D6A7"/>
<path id="Vector_12" d="M44.2537 138.362C31.7263 138.362 22.8572 134.604 19.0436 127.575C10.3409 111.522 31.4158 83.1857 66.0271 64.4056C82.7452 55.337 100.095 49.805 114.873 48.8294C129.784 47.8538 140.327 51.6231 144.573 59.4611C153.276 75.514 132.201 103.85 97.5897 122.631C80.8717 131.699 63.5216 137.231 48.7437 138.207C47.2027 138.307 45.6949 138.362 44.2426 138.362H44.2537ZM119.385 49.5722C117.955 49.5722 116.47 49.6165 114.929 49.7274C100.273 50.6919 83.0445 56.1796 66.4373 65.1927C32.2584 83.74 11.3386 111.533 19.8196 127.165C23.8883 134.681 34.1431 138.284 48.6882 137.331C63.3443 136.366 80.5723 130.879 97.1795 121.866C131.358 103.318 152.267 75.5251 143.797 59.8935C140.15 53.1752 131.569 49.5722 119.385 49.5722Z" fill="#12D6A7"/>
<path id="Vector_13" d="M42.2356 139.914C31.4044 139.914 23.522 136.655 19.6973 130.457C10.0633 114.881 29.5529 85.2921 63.1443 64.4943C79.3746 54.4501 96.4363 47.9203 111.181 46.1022C126.059 44.2729 136.835 47.4547 141.535 55.0488C151.169 70.636 131.68 100.225 98.0882 121.012C81.8579 131.056 64.7962 137.586 50.0514 139.404C47.302 139.748 44.6968 139.914 42.2356 139.914ZM119.019 46.4902C116.591 46.4902 114.019 46.6565 111.292 46.9891C96.6581 48.7961 79.7294 55.2816 63.6099 65.2481C30.4288 85.7799 11.0722 114.815 20.4511 129.981C24.9633 137.276 35.4287 140.302 49.9406 138.517C64.5744 136.71 81.5032 130.225 97.6226 120.258C130.804 99.7264 150.16 70.6915 140.781 55.5255C137.123 49.6054 129.518 46.4902 119.008 46.4902H119.019Z" fill="#12D6A7"/>
<path id="Vector_14" d="M40.661 141.654C31.2155 141.654 24.1647 138.827 20.3399 133.351C9.77474 118.24 27.679 87.3983 60.2615 64.6049C75.9929 53.5963 92.7665 46.0687 107.489 43.3969C122.322 40.7141 133.342 43.2972 138.497 50.6695C149.062 65.7801 131.158 96.6221 98.5756 119.415C82.8442 130.424 66.0708 137.952 51.3482 140.623C47.5234 141.311 43.9426 141.654 40.661 141.654ZM118.187 43.2528C114.95 43.2528 111.425 43.5965 107.644 44.2727C93.0436 46.9112 76.3921 54.3945 60.7604 65.3255C28.5881 87.8417 10.7725 118.118 21.0605 132.83C26.005 139.903 36.7033 142.353 51.1819 139.736C65.7825 137.098 82.4341 129.615 98.0657 118.684C130.238 96.1675 148.054 65.8909 137.766 51.1795C134.107 45.9578 127.322 43.2528 118.187 43.2528Z" fill="#12D6A7"/>
<path id="Vector_15" d="M39.4525 143.528C31.1489 143.528 24.7743 141.056 20.9828 136.233C9.48636 121.6 25.8164 89.5159 57.3679 64.7049C72.6115 52.7207 89.0968 44.1953 103.786 40.681C118.597 37.1444 129.839 39.1289 135.448 46.2684C146.945 60.9023 130.626 92.9859 99.0633 117.786C83.8197 129.77 67.3344 138.296 52.6452 141.81C47.8559 142.952 43.4325 143.517 39.4525 143.517V143.528ZM117.001 39.8606C113.099 39.8606 108.742 40.4149 104.008 41.5457C89.4405 45.0268 73.0772 53.4967 57.9333 65.4033C26.7588 89.904 10.5063 121.433 21.6923 135.679C27.0692 142.53 38.0002 144.404 52.4456 140.956C67.013 137.475 83.3763 129.005 98.5201 117.099C129.695 92.5979 145.947 61.0686 134.761 46.8228C131.147 42.2109 125.016 39.8606 117.001 39.8606Z" fill="#12D6A7"/>
<path id="Vector_16" d="M38.5319 145.535C31.1706 145.535 25.3725 143.373 21.6364 139.116C9.2087 124.948 23.9534 91.6224 54.4961 64.8158C69.2519 51.867 85.4489 42.3328 100.105 37.987C114.883 33.5969 126.357 34.9826 132.41 41.8894C144.838 56.0576 130.093 89.3829 99.5506 116.189C84.7948 129.138 68.5978 138.672 53.9418 143.029C48.2767 144.714 43.1105 145.546 38.5319 145.546V145.535ZM115.515 36.3463C111.036 36.3463 105.936 37.1667 100.349 38.8296C85.8148 43.1532 69.7286 52.6098 55.0726 65.4809C24.8958 91.966 10.1954 124.737 22.3016 138.528C28.1219 145.169 39.2746 146.455 53.6868 142.176C68.2209 137.852 84.307 128.395 98.9631 115.524C129.129 89.0393 143.84 56.2683 131.734 42.477C128.164 38.4083 122.599 36.3574 115.504 36.3574L115.515 36.3463Z" fill="#12D6A7"/>
<path id="Vector_17" d="M37.8452 147.652C31.2711 147.652 25.9497 145.756 22.2801 141.998C8.93228 128.307 22.0806 93.7286 51.6144 64.9154C65.8713 51.0022 81.78 40.4702 96.4139 35.2707C111.159 30.0269 122.855 30.8252 129.373 37.4991C142.721 51.1906 129.573 85.7687 100.039 114.582C85.7822 128.495 69.8734 139.027 55.2396 144.227C48.7984 146.521 42.9449 147.652 37.8452 147.652ZM113.808 32.7209C108.819 32.7209 103.055 33.8406 96.7022 36.1022C82.1902 41.2573 66.4034 51.7227 52.2241 65.5473C23.0561 94.0168 9.89679 128.029 22.9121 141.377C29.1647 147.796 40.5392 148.506 54.9402 143.384C69.4521 138.229 85.239 127.763 99.4183 113.939C128.586 85.4693 141.735 51.4567 128.73 38.1088C125.238 34.5169 120.138 32.7209 113.808 32.7209Z" fill="#12D6A7"/>
<path id="Vector_18" d="M37.3352 149.858C31.4151 149.858 26.515 148.195 22.9342 144.881C8.65507 131.666 20.2291 95.8351 48.7319 65.0264C62.501 50.1375 78.1216 38.6078 92.7222 32.5658C107.434 26.4684 119.362 26.6679 126.325 33.1091C140.604 46.3239 129.03 82.1436 100.527 112.963C86.7577 127.852 71.1372 139.382 56.5366 145.424C49.3971 148.384 42.9227 149.858 37.3352 149.858ZM111.912 29.0071C106.458 29.0071 100.095 30.4594 93.0548 33.3751C78.5761 39.3728 63.0664 50.8249 49.3749 65.625C21.2047 96.079 9.60849 131.344 23.5217 144.227C30.2178 150.424 41.8141 150.557 56.1819 144.604C70.6605 138.606 86.1702 127.154 99.8506 112.354C128.021 81.8997 139.617 46.6343 125.704 33.752C122.289 30.5925 117.589 29.0071 111.901 29.0071H111.912Z" fill="#12D6A7"/>
<path id="Vector_19" d="M36.9705 152.142C31.6047 152.142 27.0594 150.679 23.5672 147.752C8.36792 135.014 18.3566 97.9414 45.8395 65.1261C59.1208 49.2727 74.4531 36.7453 89.0093 29.8496C103.676 22.9096 115.838 22.4994 123.255 28.7188C138.454 41.4569 128.465 78.5293 100.983 111.345C87.7012 127.198 72.3689 139.726 57.8126 146.621C50.0522 150.291 42.9903 152.142 36.9594 152.142H36.9705ZM109.863 25.2156C103.976 25.2156 97.0469 27.0337 89.3974 30.6478C74.952 37.488 59.7195 49.9379 46.5268 65.6915C19.3544 98.1299 9.31024 134.637 24.1437 147.076C31.2721 153.051 43.1012 152.608 57.4468 145.823C71.8922 138.983 87.1247 126.533 100.317 110.779C127.49 78.3409 137.534 41.8339 122.7 29.3951C119.375 26.6013 115.018 25.2156 109.863 25.2156Z" fill="#12D6A7"/>
<path id="Vector_20" d="M36.738 154.492C31.8489 154.492 27.625 153.206 24.2326 150.634C8.10213 138.362 16.5166 100.059 42.9795 65.2368C55.762 48.4079 70.806 34.8827 85.3401 27.1445C99.9739 19.3508 112.368 18.3531 120.229 24.3286C136.359 36.601 127.945 74.9041 101.482 109.726C88.6992 126.544 73.6552 140.08 59.1211 147.818C50.7953 152.253 43.1902 154.492 36.738 154.492ZM107.712 21.3574C101.415 21.3574 93.9541 23.5636 85.7503 27.9316C71.327 35.6144 56.3939 49.0509 43.6779 65.769C17.5033 100.203 9.02231 137.952 24.7648 149.925C32.3367 155.69 44.3875 154.659 58.6998 147.042C73.1231 139.36 88.0563 125.923 100.772 109.194C126.947 74.7599 135.428 37.0112 119.685 25.0381C116.448 22.5769 112.402 21.3574 107.712 21.3574Z" fill="#12D6A7"/>
<path id="Vector_21" d="M36.5812 156.898C32.1024 156.898 28.1557 155.778 24.8742 153.506C7.8235 141.71 14.6526 102.154 40.0956 65.3366C52.3903 47.5431 67.1461 33.0201 81.6469 24.4394C96.2475 15.7921 108.864 14.1957 117.178 19.9495C134.229 31.7452 127.4 71.301 101.957 108.118C89.6622 125.912 74.9064 140.435 60.4056 149.016C51.5699 154.248 43.4547 156.898 36.5812 156.898ZM105.46 17.4329C98.753 17.4329 90.8041 20.0381 82.1014 25.1932C67.7115 33.7186 53.0554 48.1418 40.8273 65.8355C15.6504 102.254 8.7215 141.255 25.3731 152.774C33.3884 158.317 45.672 156.71 59.9511 148.251C74.341 139.736 88.9971 125.302 101.225 107.608C126.402 71.1901 133.331 32.1887 116.679 20.6701C113.553 18.5082 109.762 17.4329 105.46 17.4329Z" fill="#12D6A7"/>
<path id="Vector_22" d="M36.5146 159.359C32.3905 159.359 28.6877 158.373 25.5281 156.377C7.54622 145.058 12.8011 104.261 37.2352 65.4366C49.0421 46.6786 63.5097 31.1468 77.9772 21.7234C92.5446 12.2336 105.393 10.0385 114.152 15.5595C132.134 26.8786 126.879 67.676 102.445 106.5C90.6377 125.258 76.1702 140.79 61.7026 150.213C52.4012 156.277 43.7983 159.359 36.5146 159.359ZM103.143 13.4531C96.0367 13.4531 87.6112 16.4907 78.4539 22.4551C64.0972 31.8119 49.7183 47.244 37.9891 65.9022C13.821 104.316 8.44419 144.559 26.0048 155.623C34.4526 160.945 46.969 158.761 61.2259 149.47C75.5826 140.114 89.9614 124.682 101.691 106.023C125.859 67.6095 131.236 27.3664 113.675 16.3023C110.648 14.3954 107.101 13.4531 103.143 13.4531Z" fill="#12D6A7"/>
</g>
</g>
<defs>
<filter id="filter0_d_2065_11278" x="0" y="-9" width="190" height="190" filterUnits="userSpaceOnUse" color-interpolation-filters="sRGB">
<feFlood flood-opacity="0" result="BackgroundImageFix"/>
<feColorMatrix in="SourceAlpha" type="matrix" values="0 0 0 0 0 0 0 0 0 0 0 0 0 0 0 0 0 0 127 0" result="hardAlpha"/>
<feOffset/>
<feGaussianBlur stdDeviation="6"/>
<feComposite in2="hardAlpha" operator="out"/>
<feColorMatrix type="matrix" values="0 0 0 0 0.0705882 0 0 0 0 0.839216 0 0 0 0 0.654902 0 0 0 0.5 0"/>
<feBlend mode="normal" in2="BackgroundImageFix" result="effect1_dropShadow_2065_11278"/>
<feBlend mode="normal" in="SourceGraphic" in2="effect1_dropShadow_2065_11278" result="shape"/>
</filter>
</defs>
</svg>
