<svg width="304" height="65" viewBox="0 0 304 65" fill="none" xmlns="http://www.w3.org/2000/svg">
<g clip-path="url(#clip0_3622_22124)">
<path d="M98.3684 12.761C98.3684 13.2395 98.2727 13.6223 98.0813 14.005C97.89 14.3878 97.6986 14.5792 97.4115 14.8663C97.1244 15.0577 96.8373 15.249 96.5502 15.4404C96.2632 15.5361 95.8804 15.6318 95.4976 15.6318V16.4931H93.8708V15.6318C93.3923 15.5361 92.9139 15.4404 92.5311 15.249C92.1483 15.0577 91.8612 14.8663 91.6699 14.5792C91.4785 14.2921 91.2871 14.005 91.1914 13.6223C91.0957 13.2395 91 12.8567 91 12.3782V8.83756C91 8.35909 91.0957 7.97632 91.2871 7.59354C91.3828 7.30646 91.6699 7.01938 91.8612 6.82799C92.1483 6.54091 92.4354 6.44522 92.8182 6.25383C93.201 6.06244 93.488 6.06244 93.8708 6.06244V5.48828H95.5933V6.06244C95.9761 6.06244 96.2632 6.15814 96.6459 6.25383C96.933 6.34953 97.2201 6.54091 97.5072 6.82799C97.7943 7.01938 97.9856 7.40216 98.177 7.68924C98.3684 8.07201 98.4641 8.45479 98.4641 8.93326V12.761H98.3684ZM93.8708 7.40216C93.488 7.49785 93.201 7.59354 92.9139 7.78493C92.7225 8.07201 92.6268 8.35909 92.6268 8.74187V12.9524C92.6268 13.1438 92.6268 13.3352 92.7225 13.5266C92.8182 13.7179 92.9139 13.8136 93.0096 13.9093C93.1053 14.005 93.2967 14.1007 93.3923 14.1964C93.5837 14.2921 93.6794 14.2921 93.8708 14.2921V7.40216ZM96.8373 8.74187C96.8373 8.35909 96.7416 8.07201 96.4545 7.78493C96.2632 7.59354 95.9761 7.49785 95.5933 7.40216V14.1964C95.689 14.1964 95.8804 14.1007 95.9761 14.1007C96.1675 14.005 96.2632 13.9093 96.3589 13.8136C96.4545 13.7179 96.5502 13.6223 96.6459 13.4309C96.7416 13.2395 96.7416 13.1438 96.7416 12.9524V8.74187H96.8373Z" fill="white"/>
<path d="M106.89 13.6223C106.89 14.5792 106.699 15.3447 106.22 15.8232C105.742 16.3017 105.072 16.5888 104.211 16.5888C103.254 16.5888 102.584 16.3974 102.201 15.9189C101.818 15.4404 101.531 14.7706 101.531 13.9093V8.35909C101.531 7.97632 101.627 7.49785 101.723 7.21077C101.818 6.82799 102.01 6.54091 102.201 6.25383C102.392 5.96675 102.68 5.77536 103.062 5.67967C103.445 5.58398 103.828 5.48828 104.306 5.48828C104.785 5.48828 105.263 5.58398 105.55 5.67967C105.837 5.67967 106.125 5.87106 106.316 6.15814C106.507 6.44522 106.699 6.7323 106.794 7.11508C106.89 7.49785 106.89 7.88063 106.89 8.35909V13.6223ZM105.168 8.16771C105.168 7.88063 105.072 7.59354 104.976 7.30646C104.881 7.01938 104.593 6.92369 104.211 6.92369C104.019 6.92369 103.828 6.92369 103.732 7.01938C103.541 7.21077 103.445 7.30646 103.445 7.49785C103.349 7.59354 103.349 7.78493 103.349 7.97632C103.349 8.16771 103.349 8.2634 103.349 8.45479V14.005C103.349 14.2921 103.445 14.5792 103.541 14.7706C103.637 14.962 103.924 15.1534 104.306 15.1534C104.689 15.1534 104.881 15.0577 105.072 14.7706C105.263 14.5792 105.263 14.2921 105.263 13.9093V8.16771H105.168Z" fill="white"/>
<path d="M113.777 16.4931V11.7084H111.767V16.4931H110.141V5.48828H111.863V10.0816H113.873V5.48828H115.595V16.4931H113.777Z" fill="white"/>
<path d="M119.607 16.4931V18.5983H118.172V15.0577L118.842 14.962C119.129 14.6749 119.32 14.2921 119.416 13.9093C119.512 13.5266 119.607 12.9524 119.607 12.2825L119.799 5.58398H124.775V15.0577H125.445V18.694H124.009V16.5888H119.607V16.4931ZM121.138 12.1869C121.138 12.8567 121.043 13.3352 121.043 13.8137C120.947 14.2921 120.851 14.6749 120.66 14.962H123.052V7.11509H121.33L121.138 12.1869Z" fill="white"/>
<path d="M135.785 5.39258C136.263 5.39258 136.646 5.48827 136.933 5.58397C137.22 5.67966 137.507 5.87105 137.794 6.06243C137.986 6.25382 138.177 6.5409 138.273 6.82798C138.369 7.11507 138.464 7.49784 138.464 7.88062L136.838 8.26339C136.838 7.88062 136.742 7.49784 136.646 7.30645C136.455 7.01937 136.263 6.92368 135.881 6.92368C135.689 6.92368 135.498 6.92368 135.402 7.01937C135.306 7.11507 135.211 7.21076 135.115 7.30645C135.019 7.40215 135.019 7.59354 135.019 7.68923C135.019 7.88062 135.019 7.97631 135.019 8.1677V13.7179C135.019 13.8136 135.019 13.9093 135.019 14.1007C135.019 14.1964 135.115 14.3878 135.115 14.4835C135.211 14.5792 135.306 14.6749 135.402 14.7706C135.498 14.8663 135.689 14.8663 135.881 14.8663C136.55 14.8663 136.838 14.3878 136.838 13.5266C137.125 13.6222 137.412 13.6222 137.699 13.6222C137.986 13.6222 138.273 13.7179 138.56 13.7179C138.56 14.5792 138.273 15.249 137.89 15.7275C137.412 16.206 136.838 16.4931 135.976 16.4931C135.019 16.4931 134.35 16.3017 133.967 15.8232C133.488 15.3447 133.297 14.6749 133.297 13.8136V8.35909C133.297 7.97631 133.297 7.59354 133.393 7.21076C133.488 6.82798 133.68 6.5409 133.871 6.25382C134.062 5.96674 134.35 5.77535 134.732 5.58397C134.828 5.48827 135.211 5.39258 135.785 5.39258Z" fill="white"/>
<path d="M146.499 13.6223C146.499 14.5792 146.308 15.3447 145.83 15.8232C145.351 16.3017 144.681 16.5888 143.82 16.5888C142.863 16.5888 142.193 16.3974 141.81 15.9189C141.428 15.4404 141.141 14.7706 141.141 13.9093V8.35909C141.141 7.97632 141.236 7.49785 141.332 7.21077C141.428 6.82799 141.619 6.54091 141.81 6.25383C142.002 5.96675 142.289 5.77536 142.672 5.67967C143.054 5.58398 143.437 5.48828 143.916 5.48828C144.394 5.48828 144.873 5.58398 145.16 5.67967C145.543 5.77536 145.734 5.96675 146.021 6.25383C146.212 6.54091 146.404 6.82799 146.499 7.21077C146.499 7.40216 146.499 7.88063 146.499 8.2634V13.6223ZM144.777 8.16771C144.777 7.88063 144.681 7.59354 144.586 7.30646C144.49 7.01938 144.203 6.92369 143.82 6.92369C143.629 6.92369 143.437 6.92369 143.342 7.01938C143.246 7.11508 143.15 7.21077 143.055 7.30646C142.959 7.40216 142.959 7.59354 142.863 7.78493C142.863 7.97632 142.863 8.07201 142.863 8.2634V13.8136C142.863 14.1007 142.959 14.3878 143.055 14.5792C143.246 14.7706 143.437 14.962 143.82 14.962C144.203 14.962 144.394 14.8663 144.586 14.5792C144.777 14.3878 144.777 14.1007 144.777 13.7179V8.16771Z" fill="white"/>
<path d="M150.521 16.4931V18.5983H149.086V15.0577L149.756 14.962C150.043 14.6749 150.234 14.2921 150.33 13.9093C150.426 13.5266 150.521 12.9524 150.521 12.2825L150.713 5.58398H155.689V15.0577H156.359V18.694H154.923V16.5888H150.521V16.4931ZM152.052 12.1869C152.052 12.8567 151.957 13.3352 151.957 13.8137C151.861 14.2921 151.765 14.6749 151.574 14.962H153.966V7.11509H152.244L152.052 12.1869Z" fill="white"/>
<path d="M159.133 16.4931V5.48828H164.013V7.11508H160.855V10.0816H163.63V11.7084H160.855V14.8663H164.013V16.4931H159.133Z" fill="white"/>
<path d="M170.814 9.60287L168.517 16.4928H166.891V5.48804H168.517V12.4737L170.814 5.48804H172.441V16.4928H170.718L170.814 9.60287ZM168.709 3C168.709 3.09569 168.709 3.19139 168.805 3.38278C168.9 3.47847 168.9 3.57416 168.996 3.76555C169.092 3.86124 169.187 3.95694 169.283 4.05263C169.379 4.14833 169.57 4.14833 169.666 4.14833C169.857 4.14833 169.953 4.14833 170.049 4.05263C170.144 3.95694 170.24 3.86124 170.336 3.76555C170.431 3.66986 170.527 3.57416 170.527 3.38278C170.527 3.28708 170.623 3.19139 170.623 3H171.867C171.867 3.19139 171.771 3.47847 171.675 3.76555C171.771 3.95694 171.58 4.24402 171.388 4.43541C171.197 4.62679 171.005 4.81818 170.718 5.00957C170.431 5.10526 170.144 5.20096 169.761 5.20096C169.379 5.20096 168.996 5.10526 168.709 5.00957C168.422 4.91388 168.23 4.72249 168.039 4.43541C167.848 4.24402 167.752 3.95694 167.656 3.76555C167.56 3.47847 167.465 3.19139 167.465 3H168.709Z" fill="white"/>
<path d="M178.363 5.39258C178.842 5.39258 179.224 5.48827 179.511 5.58397C179.798 5.67966 180.086 5.87105 180.373 6.06243C180.564 6.25382 180.755 6.5409 180.851 6.82798C180.947 7.11507 181.042 7.49784 181.042 7.88062L179.416 8.26339C179.416 7.88062 179.32 7.49784 179.224 7.30645C179.033 7.01937 178.842 6.92368 178.459 6.92368C178.267 6.92368 178.076 6.92368 177.98 7.01937C177.885 7.11507 177.789 7.21076 177.693 7.30645C177.597 7.40215 177.597 7.59354 177.597 7.68923C177.597 7.88062 177.597 7.97631 177.597 8.1677V13.7179C177.597 13.8136 177.597 13.9093 177.597 14.1007C177.597 14.1964 177.693 14.3878 177.693 14.4835C177.789 14.5792 177.885 14.6749 177.98 14.7706C178.076 14.8663 178.267 14.8663 178.459 14.8663C179.129 14.8663 179.416 14.3878 179.416 13.5266C179.703 13.6222 179.99 13.6222 180.277 13.6222C180.564 13.6222 180.851 13.7179 181.138 13.7179C181.138 14.5792 180.851 15.249 180.468 15.7275C179.99 16.206 179.416 16.4931 178.554 16.4931C177.597 16.4931 176.928 16.3017 176.545 15.8232C176.066 15.3447 175.875 14.6749 175.875 13.8136V8.35909C175.875 7.97631 175.875 7.59354 175.971 7.21076C176.066 6.82798 176.258 6.5409 176.449 6.25382C176.641 5.96674 176.928 5.77535 177.31 5.58397C177.406 5.48827 177.885 5.39258 178.363 5.39258Z" fill="white"/>
<path d="M186.603 7.11508V16.4931H184.881V7.11508H183.062V5.48828H188.326V7.11508H186.603Z" fill="white"/>
<path d="M195.021 10.7514C195.5 10.9428 195.882 11.2299 195.978 11.6127C196.169 12.0912 196.265 12.5696 196.265 13.1438C196.265 14.2921 195.978 15.1534 195.5 15.6318C195.021 16.206 194.256 16.3974 193.203 16.3974H190.906V5.48828H193.299C194.256 5.48828 195.021 5.77536 195.404 6.25383C195.882 6.7323 196.074 7.49785 196.074 8.45479C196.074 8.93326 195.978 9.41173 195.787 9.7945C195.787 10.1773 195.404 10.4644 195.021 10.7514ZM194.543 8.55048C194.543 8.07201 194.447 7.68924 194.256 7.49785C194.064 7.30646 193.681 7.21077 193.299 7.21077H192.724V10.0816H193.299C193.777 10.0816 194.064 9.98589 194.256 9.69881C194.447 9.31603 194.543 8.93326 194.543 8.55048ZM194.638 12.9524C194.638 12.4739 194.543 12.0912 194.351 11.8041C194.16 11.517 193.873 11.4213 193.394 11.4213H192.724V14.8663H193.394C193.681 14.8663 193.873 14.7706 194.064 14.6749C194.256 14.5792 194.351 14.4835 194.447 14.2921C194.543 14.1007 194.638 13.9093 194.638 13.7179C194.638 13.5266 194.638 13.2395 194.638 12.9524Z" fill="white"/>
<path d="M203.439 9.60311L201.142 16.4931H199.516V5.48828H201.142V12.4739H201.238L203.535 5.48828H205.162V16.4931H203.439V9.60311Z" fill="white"/>
<path d="M208.031 16.4931L208.605 13.0481C208.701 12.6653 208.797 12.3782 208.988 12.0912C209.18 11.8041 209.371 11.517 209.658 11.4213C209.18 11.2299 208.797 10.8471 208.605 10.4644C208.414 10.0816 208.318 9.50743 208.318 8.93327C208.318 7.88063 208.605 7.01939 209.084 6.44523C209.562 5.87107 210.328 5.58398 211.285 5.58398H213.773V16.5888H212.05V11.8041H211.572C211.285 11.8041 210.998 11.8998 210.711 12.1869C210.424 12.3782 210.328 12.8567 210.137 13.4309L209.658 16.4931H208.031ZM211.381 7.11509C210.902 7.11509 210.519 7.30647 210.328 7.59355C210.137 7.88064 210.041 8.26341 210.041 8.83757C210.041 9.41174 210.137 9.69882 210.424 9.9859C210.711 10.1773 210.998 10.273 211.381 10.273H212.05V7.11509H211.381Z" fill="white"/>
<path d="M96.1616 25.5835L93.2908 34.1002H91.2812V20.5117H93.3865V29.1242H93.4822L96.353 20.5117H98.4583V34.1002H96.2573L96.1616 25.5835Z" fill="white"/>
<path d="M108.701 34.1002V28.1672H106.308V34.1002H104.203V20.5117H106.308V26.1577H108.796V20.5117H110.902V34.1002H108.701Z" fill="white"/>
<path d="M121.335 34.1002V28.1672H118.847V34.1002H116.742V20.5117H118.847V26.1577H121.335V20.5117H123.441V34.1002H121.335Z" fill="white"/>
<path d="M135.884 30.6552C135.884 31.8036 135.597 32.7605 135.119 33.3347C134.544 33.9088 133.779 34.1959 132.535 34.1959C131.387 34.1959 130.525 33.9088 130.047 33.3347C129.568 32.7605 129.281 31.8993 129.281 30.8466V24.0524C129.281 23.4782 129.377 22.9997 129.473 22.617C129.568 22.1385 129.76 21.7557 130.047 21.4686C130.334 21.1816 130.621 20.8945 131.099 20.7031C131.482 20.5117 132.056 20.416 132.631 20.416C133.3 20.416 133.779 20.5117 134.257 20.7031C134.64 20.8945 135.023 21.0859 135.31 21.373C135.597 21.66 135.788 22.0428 135.884 22.5213C135.98 22.9997 136.076 23.4782 136.076 24.0524V30.6552H135.884ZM133.779 23.861C133.779 23.4782 133.683 23.1911 133.492 22.8084C133.3 22.5213 133.013 22.3299 132.535 22.3299C132.248 22.3299 132.056 22.4256 131.961 22.5213C131.769 22.617 131.674 22.8084 131.578 22.9041C131.482 23.0954 131.387 23.2868 131.387 23.4782C131.387 23.6696 131.291 23.861 131.291 24.0524V30.9423C131.291 31.3251 131.387 31.6122 131.578 31.8993C131.769 32.1863 132.056 32.282 132.535 32.282C133.013 32.282 133.3 32.0907 133.492 31.8036C133.683 31.5165 133.779 31.1337 133.779 30.7509V23.861Z" fill="white"/>
<path d="M146.695 27.0189C147.269 27.2103 147.747 27.5931 147.939 28.1672C148.13 28.7414 148.322 29.3155 148.322 30.0811C148.322 31.5165 148.035 32.5691 147.365 33.239C146.791 33.9088 145.834 34.1959 144.59 34.1959H141.719V20.5117H144.685C145.929 20.5117 146.791 20.7988 147.269 21.4687C147.843 22.1385 148.13 22.9998 148.13 24.2438C148.13 24.9136 148.035 25.3921 147.843 25.8706C147.652 26.349 147.269 26.7318 146.695 26.9232V27.0189ZM146.121 24.2438C146.121 23.5739 146.025 23.1911 145.738 22.9041C145.451 22.617 145.068 22.5213 144.494 22.5213H143.824V25.9663H144.494C145.068 25.9663 145.451 25.7749 145.738 25.4878C146.025 25.2964 146.121 24.8179 146.121 24.2438ZM146.216 29.794C146.216 29.1242 146.121 28.6457 145.834 28.3586C145.642 28.0715 145.164 27.8801 144.59 27.8801H143.824V32.0907H144.685C145.068 32.0907 145.259 31.995 145.547 31.8993C145.738 31.8036 145.929 31.6122 146.025 31.4208C146.121 31.2294 146.216 30.9423 146.216 30.6553C146.216 30.4639 146.216 30.1768 146.216 29.794Z" fill="white"/>
<path d="M159.04 34.1002L158.466 31.2294H155.978C155.883 31.7079 155.787 32.1864 155.691 32.6648C155.595 33.1433 155.5 33.6218 155.404 34.1002H153.203C153.682 31.8036 154.16 29.5069 154.543 27.306C155.021 25.0093 155.5 22.8084 155.883 20.5117H158.275L161.05 34.1002H159.04ZM157.127 23.6696C157.031 24.6266 156.839 25.5835 156.744 26.4447C156.552 27.4017 156.457 28.3586 156.265 29.3155H158.179L157.318 23.6696H157.127Z" fill="white"/>
<path d="M172.917 20.5117V32.1864H173.779V36.7797H171.96V34.1959H166.219V20.5117H168.324V32.1864H170.716V20.5117H172.917Z" fill="white"/>
<path d="M183.724 25.5835L180.853 34.1002H178.844V20.5117H180.949V29.1242L183.82 20.5117H185.925V34.1002H183.82L183.724 25.5835Z" fill="white"/>
<path d="M191.188 34.1002L191.953 29.794C192.049 29.3155 192.144 28.9328 192.432 28.55C192.623 28.1672 192.91 27.8801 193.293 27.6888C192.623 27.4017 192.24 27.0189 191.953 26.5404C191.762 25.9663 191.57 25.3921 191.57 24.6266C191.57 23.2868 191.857 22.2342 192.527 21.5644C193.197 20.8945 194.058 20.5117 195.207 20.5117H198.365V34.1002H196.259V28.2629H195.685C195.302 28.2629 195.015 28.3586 194.632 28.6457C194.345 28.9328 194.058 29.4112 193.963 30.1768L193.293 34.0045H191.188V34.1002ZM195.398 22.5213C194.728 22.5213 194.345 22.7127 194.058 23.0955C193.771 23.4782 193.676 23.9567 193.676 24.6266C193.676 25.2964 193.867 25.7749 194.154 25.9663C194.441 26.2533 194.92 26.349 195.398 26.349H196.259V22.5213H195.398Z" fill="white"/>
<path d="M208.222 31.1337L207.265 28.6457L206.404 26.2533H206.308V34.1002H204.203V20.5117H206.308L207.839 24.3395L208.892 27.306H208.988L210.136 24.2438L211.572 20.416H213.581V34.0045H211.476V26.1576H211.38L210.519 28.55L209.562 31.038H208.222V31.1337Z" fill="white"/>
<path d="M213.674 38.2148C184.104 67.1144 124.965 62.1383 103.53 38.2148H91.2812C107.453 55.344 130.707 61.8512 150.229 62.7125C152.238 62.8081 154.248 62.8081 156.162 62.8081C168.793 62.6168 182.86 59.8416 195.109 53.3345C202.095 49.6981 208.506 44.722 213.674 38.2148Z" fill="white" fill-opacity="0.3"/>
<path d="M213.675 38.2148C213.675 38.3105 213.675 38.3105 213.675 38.2148C213.196 38.5976 212.718 38.8847 212.335 39.1718C180.086 60.7029 135.302 56.4924 116.067 38.2148H103.531C124.967 62.1383 184.105 67.2101 213.675 38.2148Z" fill="white" fill-opacity="0.6"/>
<path d="M206.597 41.277C191.955 46.923 178.176 49.411 166.118 49.5067C149.276 49.6024 135.975 45.1048 128.893 38.2148H118.271H116.07C135.209 56.301 179.515 60.6072 211.668 39.5546C211.86 39.4589 212.147 39.2675 212.338 39.0761C212.817 38.789 213.199 38.5019 213.678 38.2148C211.286 39.3632 208.893 40.3201 206.597 41.277Z" fill="white"/>
<path d="M128.893 38.2148C135.878 44.9134 148.893 49.411 165.448 49.411C165.639 49.411 165.926 49.411 166.118 49.411C178.175 49.3153 191.955 46.8273 206.596 41.1813C208.893 40.2244 211.285 39.2675 213.677 38.2148C208.51 44.6263 202.099 49.6024 195.017 53.3344C182.768 59.8416 168.701 62.6167 156.07 62.8081C155.591 62.8081 155.113 62.8081 154.634 62.8081C153.199 62.8081 151.668 62.8081 150.137 62.7124C130.615 61.8512 107.457 55.344 91.1894 38.2148H103.343H115.878H118.079H128.893ZM128.893 38.1191H118.271H116.07H103.534H91.2851C91.1894 38.1191 91.1894 38.1191 91.0938 38.2148C91.0938 38.3105 91.0938 38.3105 91.0938 38.4062C98.7493 46.3488 108.223 52.5689 119.419 56.7794C128.797 60.3201 139.515 62.4254 150.137 62.9038C151.668 62.9995 153.103 62.9995 154.634 62.9995C155.113 62.9995 155.591 62.9995 156.07 62.9995C162.768 62.9038 169.371 62.1383 175.687 60.6072C182.673 58.9804 189.18 56.588 195.017 53.5258C202.481 49.5067 208.797 44.4349 213.677 38.3105C213.677 38.3105 213.677 38.3105 213.677 38.2148C213.677 38.2148 213.677 38.2148 213.677 38.1191C213.677 38.1191 213.677 38.1191 213.677 38.0234C213.677 38.0234 213.677 38.0234 213.582 38.0234H213.486C211.189 39.0761 208.797 40.1287 206.405 40.9899C192.816 46.2531 178.845 49.1239 166.022 49.2196C165.831 49.2196 165.544 49.2196 165.352 49.2196C149.563 49.2196 136.357 45.1048 128.988 38.0234C128.988 38.1191 128.988 38.1191 128.893 38.1191Z" fill="white"/>
</g>
<defs>
<clipPath id="clip0_3622_22124">
<rect width="122.871" height="60" fill="white" transform="translate(91 3)"/>
</clipPath>
</defs>
</svg>
