<svg width="178" height="31" viewBox="0 0 178 31" fill="none" xmlns="http://www.w3.org/2000/svg">
<g id="&#208;&#155;&#208;&#190;&#208;&#179;&#208;&#190; &#208;&#154;&#208;&#190;&#208;&#187;&#208;&#188;&#208;&#176;&#209;&#128; &#208;&#177;&#208;&#181;&#208;&#187;&#209;&#139;&#208;&#185;">
<g id="Group 277132266">
<path id="Vector" fill-rule="evenodd" clip-rule="evenodd" d="M42.0771 31H177.382V22.4482H42.0771V31ZM173.34 26.5531H172.269C171.587 26.5531 171.489 26.5531 171.489 25.8201C171.489 25.0382 171.636 25.0382 172.317 25.0382H173.389V26.5531H173.34ZM174.119 28.9964V24.5007H172.171C171.295 24.5007 170.759 24.5495 170.759 25.8689C170.759 26.7485 171.002 26.9929 171.441 27.0906L170.662 29.0453H171.441L172.171 27.1395H173.389V29.0453H174.119V28.9964ZM168.568 28.9964V24.5007H167.837L165.841 27.8725V24.5007H165.11V28.9964H165.841L167.837 25.6246V28.9964H168.568ZM162.919 28.9964V24.5007H162.189V26.4065H160.241V24.5007H159.51V28.9964H160.241V26.9929H162.189V28.9964H162.919ZM156.345 27.1395H154.933L155.663 25.0382L156.345 27.1395ZM157.709 28.9964L156.15 24.5007H155.128L153.57 28.9964H154.349L154.787 27.677H156.54L156.978 28.9964H157.709ZM151.719 28.9964V24.5007H148.31V28.9964H149.041V25.0871H150.989V28.9964H151.719ZM146.119 28.9964V24.5007H145.048L143.879 28.2634L142.71 24.5007H141.639V28.9964H142.321V25.2337L143.49 28.9964H144.269L145.437 25.2337V28.9964H146.119ZM138.717 26.7974C138.717 28.4589 138.669 28.4589 137.695 28.4589H137.646C136.672 28.4589 136.672 28.4589 136.672 26.7974V26.7485C136.672 24.9893 136.77 24.9893 137.646 24.9893H137.695C138.62 24.9893 138.717 24.9893 138.717 26.7485V26.7974ZM139.497 26.7974C139.497 24.6473 139.302 24.4029 137.743 24.4029C136.185 24.4029 135.99 24.6473 135.99 26.7974C135.99 28.8498 136.137 29.0942 137.743 29.0942C139.35 29.0942 139.497 28.8498 139.497 26.7974ZM134.286 28.9964L132.679 26.6997L134.189 24.5007H133.312L131.997 26.4065H131.364V24.5007H130.634V28.9964H131.364V26.9929H131.997L133.361 28.9964H134.286ZM125.959 26.5531H124.888C124.206 26.5531 124.109 26.5531 124.109 25.8201C124.109 25.0382 124.255 25.0382 124.937 25.0382H126.008L125.959 26.5531ZM126.69 28.9964V24.5007H124.742C123.865 24.5007 123.33 24.5495 123.33 25.8689C123.33 26.7485 123.573 26.9929 124.011 27.0906L123.232 29.0453H124.011L124.742 27.1395H125.959V29.0453H126.69V28.9964ZM120.213 27.1395H118.801L119.531 25.0382L120.213 27.1395ZM121.577 28.9964L120.018 24.5007H118.996L117.437 28.9964H118.217L118.655 27.677H120.408L120.846 28.9964H121.577ZM115.782 30.267V28.41H115.149V24.5007H114.418V28.41H112.763V24.5007H112.032V28.41H110.377V24.5007H109.646V28.9964H115.149V30.267H115.782ZM106.724 26.7974C106.724 28.4589 106.676 28.4589 105.751 28.4589H105.702C104.728 28.4589 104.728 28.4589 104.728 26.7974V26.7485C104.728 24.9893 104.825 24.9893 105.702 24.9893H105.751C106.676 24.9893 106.724 24.9893 106.724 26.7485V26.7974ZM107.504 26.7974C107.504 24.6473 107.26 24.4029 105.751 24.4029C104.338 24.4029 104.046 24.5984 103.998 26.4065H102.683V24.5007H101.952V28.9964H102.683V26.9929H103.998C103.998 28.8498 104.192 29.0942 105.751 29.0942C107.358 29.0942 107.504 28.8498 107.504 26.7974ZM98.7384 27.1395H97.3263L98.0567 25.0382L98.7384 27.1395ZM100.102 28.9964L98.5436 24.5007H97.521L95.9628 28.9964H96.7419L97.1802 27.677H98.9332L99.3715 28.9964H100.102ZM93.4793 27.677C93.4793 28.41 93.2845 28.41 92.7002 28.41H91.6289V26.944H92.7002C93.3332 26.944 93.4793 26.944 93.4793 27.677ZM93.4306 25.7712C93.4306 26.4065 93.2845 26.4065 92.6515 26.4065H91.5802V24.9893H92.6515C93.2358 25.0382 93.4306 25.0382 93.4306 25.7712ZM94.2584 27.7259C94.2584 26.6997 93.8202 26.6997 93.8202 26.6997C93.8202 26.6997 94.2584 26.6997 94.2584 25.7712C94.2584 24.5007 93.528 24.5007 92.8463 24.5007H90.8985V28.9964H92.895C93.6254 28.9964 94.2584 28.9964 94.2584 27.7259ZM88.6585 28.9964V24.5007H87.928V28.9964H88.6585ZM86.662 27.677C86.662 28.41 86.4672 28.41 85.8828 28.41H84.8115V26.944H85.8828C86.5159 26.944 86.662 26.944 86.662 27.677ZM87.4411 27.677C87.4411 26.4065 86.8567 26.4065 86.0289 26.4065H84.8115V24.5007H84.0811V28.9964H86.0776C86.808 28.9964 87.4411 28.9964 87.4411 27.677ZM81.2081 27.677C81.2081 28.41 81.0133 28.41 80.4289 28.41H79.3576V26.944H80.4289C81.062 26.944 81.2081 26.944 81.2081 27.677ZM81.9872 27.677C81.9872 26.4065 81.4029 26.4065 80.575 26.4065H79.3576V24.9893H81.695V24.5007H78.6272V28.9964H80.6237C81.4029 28.9964 81.9872 28.9964 81.9872 27.677ZM75.7055 26.7974C75.7055 28.4589 75.6568 28.4589 74.6829 28.4589C73.709 28.4589 73.709 28.4589 73.709 26.7974V26.7485C73.709 24.9893 73.8064 24.9893 74.6829 24.9893H74.7316C75.6568 24.9893 75.7542 24.9893 75.7542 26.7485V26.7974H75.7055ZM76.4846 26.7974C76.4846 24.6473 76.2898 24.4029 74.7316 24.4029C73.1733 24.4029 72.9785 24.6473 72.9785 26.7974C72.9785 28.8498 73.1246 29.0942 74.7316 29.0942C76.3872 29.0942 76.4846 28.8498 76.4846 26.7974ZM69.5699 28.4589H67.476L68.5959 25.0382H69.5699V28.4589ZM70.9333 30.267V28.41H70.3003V24.5007H68.0116L66.6968 28.4589H66.0638V30.3158H66.6968V29.0453H70.3003V30.3158H70.9333V30.267ZM64.2134 28.9964V28.4589H61.876V26.9929H63.9699V26.4553H61.876V25.0382H64.1647V24.5007H61.1455V28.9964H64.2134ZM58.9542 28.9964V24.5007H56.6656L55.156 28.9964H55.9351L57.2499 25.0871H58.2238V28.9964H58.9542ZM54.036 25.0871V24.5007H51.0656V28.9964H51.796V25.0871H54.036ZM49.2639 24.5007H48.4847L47.3647 27.1395L46.2447 24.5007H45.4656L46.8291 27.7259H47.1699L46.9752 28.2146C46.8291 28.5566 46.7804 28.5566 46.4395 28.5566C46.05 28.5566 45.8065 28.4589 45.8065 28.4589V28.9476C45.8065 28.9476 46.1473 29.0942 46.7317 29.0942C47.2673 29.0942 47.3647 28.9964 47.6569 28.3123L49.2639 24.5007Z" fill="white"/>
<path id="Vector_2" fill-rule="evenodd" clip-rule="evenodd" d="M21.7371 0H14.6296L12.8632 3.1L11.0968 6.2L9.33043 9.3L7.56406 12.4L5.79768 15.5L4.0313 18.6L2.26492 21.7L0.498535 24.8L4.0313 31H11.1389L12.9052 27.9L14.6716 24.8L12.9052 21.7L11.1389 18.6H18.2464L16.4801 21.7L14.7137 24.8H7.60611L5.83974 27.9L4.19953 30.7452L0.792937 24.8H7.60611L9.37249 27.9L11.1389 31H18.2464L20.0128 27.9L21.7792 24.8L23.5456 21.7L25.312 18.6L27.0783 15.5L28.8447 12.4L30.6111 15.5L32.3775 18.6H25.2699L27.0363 21.7L28.8027 24.8H21.6951L23.4615 27.9L25.2279 31H32.3354L35.9102 24.8L34.1439 21.7L32.3775 18.6L30.6111 21.7L28.8447 24.8L30.6111 27.9L32.2513 30.7452L35.6579 24.8H28.8447L27.0783 27.9L25.312 31H18.2044L16.438 27.9L14.6716 24.8H21.7792L20.0128 21.7L18.2464 18.6H25.354L23.5876 15.5L21.8213 12.4H28.9288L27.1624 9.3L25.3961 6.2L23.6297 3.1L21.7371 0ZM14.6296 12.4L16.396 15.5L18.1623 18.6L19.9287 15.5L21.6951 12.4H14.6296ZM3.94719 18.6425L5.71356 21.7425L7.47994 24.8425L9.24633 21.7425L11.0127 18.6425H3.94719ZM7.522 12.4L9.28837 15.5L11.0548 18.6L12.8211 15.5L14.5875 12.4H7.522ZM18.1623 6.2L19.9287 9.3L21.6951 12.4L23.4615 9.3L25.2279 6.2H18.1623ZM11.0548 6.2L12.8211 9.3L14.5875 12.4L16.3539 9.3L18.1203 6.2H11.0548ZM14.7557 0.254795L16.396 3.1L18.1623 6.2L19.9287 3.1L21.5689 0.254795H14.7557Z" fill="white"/>
<g id="_2587289386592">
<path id="Vector_3" fill-rule="evenodd" clip-rule="evenodd" d="M61.881 19.2571L55.5169 9.50298L61.5329 0.151123H54.8706L50.2467 7.54211H48.0093V0.251679H42.0928V19.2571H48.0093V11.4639H50.2467L55.0197 19.2571H61.881Z" fill="white"/>
<path id="Vector_4" fill-rule="evenodd" clip-rule="evenodd" d="M81.7201 9.90521C81.7201 1.10642 80.4771 0.151123 72.6215 0.151123C64.7658 0.151123 63.4731 1.10642 63.4731 9.90521C63.4731 18.3521 64.1195 19.2571 72.6215 19.2571C81.0737 19.2571 81.7201 18.3521 81.7201 9.90521ZM75.8532 10.0058C75.8532 15.4359 75.8035 15.4359 72.7706 15.4359H72.522C69.4394 15.4359 69.4394 15.4359 69.4394 10.0058V9.75438C69.4394 3.92203 69.6383 3.92203 72.522 3.92203H72.7706C75.6543 3.92203 75.8532 3.92203 75.8532 9.75438V10.0058Z" fill="white"/>
<path id="Vector_5" fill-rule="evenodd" clip-rule="evenodd" d="M132.081 19.2571V0.151123H123.927L119.85 14.0784L115.773 0.151123H107.619V19.2571H112.939V5.32984L117.016 19.2571H122.585L126.711 5.32984V19.2571H132.081Z" fill="white"/>
<path id="Vector_6" fill-rule="evenodd" clip-rule="evenodd" d="M99.2658 19.2571H105.431L98.6195 0.151123H90.0678L83.2065 19.2571H89.322L94.3436 3.7712L99.2658 19.2571Z" fill="white"/>
<path id="Vector_7" fill-rule="evenodd" clip-rule="evenodd" d="M149.789 0.151123H141.237L134.376 19.2571H140.491L141.983 14.732H148.894L150.386 19.2571H156.551L149.789 0.151123ZM147.9 11.1119H143.077L145.513 3.7712L147.9 11.1119Z" fill="white"/>
<path id="Vector_8" fill-rule="evenodd" clip-rule="evenodd" d="M176.984 6.8382V6.33542C176.935 1.00586 174.648 0.251681 170.819 0.151123H158.837V19.2571H164.753V12.57H169.924C174.747 12.57 176.935 12.218 176.984 6.8382ZM170.869 6.48625C170.869 8.94992 170.521 8.94992 168.333 8.94992H164.753V3.7712H168.234C170.471 3.7712 170.869 3.7712 170.869 6.48625Z" fill="white"/>
</g>
</g>
</g>
</svg>
