<svg xmlns="http://www.w3.org/2000/svg" xmlns:xlink="http://www.w3.org/1999/xlink">

	<symbol id="top_adres" viewBox="0 0 14 16" fill="none">
		<path d="M7.03656 15.3939C7.024 15.4017 7.01181 15.4093 7 15.4166C6.98819 15.4093 6.976 15.4017 6.96344 15.3939C6.77791 15.2784 6.51117 15.107 6.19035 14.8854C5.54775 14.4417 4.69291 13.8004 3.84023 13.0086C2.10886 11.4009 0.5 9.27797 0.5 7C0.5 3.41018 3.41018 0.5 7 0.5C10.5898 0.5 13.5 3.41018 13.5 7C13.5 9.27797 11.8911 11.4009 10.1598 13.0086C9.30709 13.8004 8.45225 14.4417 7.80965 14.8854C7.48883 15.107 7.22209 15.2784 7.03656 15.3939ZM7 10.5C8.933 10.5 10.5 8.933 10.5 7C10.5 5.067 8.933 3.5 7 3.5C5.067 3.5 3.5 5.067 3.5 7C3.5 8.933 5.067 10.5 7 10.5Z" stroke="black" stroke-opacity="0.5"/>
	</symbol>
<symbol id="top_adres_noop" viewBox="0 0 14 16" fill="none">
		<path d="M7.03656 15.3939C7.024 15.4017 7.01181 15.4093 7 15.4166C6.98819 15.4093 6.976 15.4017 6.96344 15.3939C6.77791 15.2784 6.51117 15.107 6.19035 14.8854C5.54775 14.4417 4.69291 13.8004 3.84023 13.0086C2.10886 11.4009 0.5 9.27797 0.5 7C0.5 3.41018 3.41018 0.5 7 0.5C10.5898 0.5 13.5 3.41018 13.5 7C13.5 9.27797 11.8911 11.4009 10.1598 13.0086C9.30709 13.8004 8.45225 14.4417 7.80965 14.8854C7.48883 15.107 7.22209 15.2784 7.03656 15.3939ZM7 10.5C8.933 10.5 10.5 8.933 10.5 7C10.5 5.067 8.933 3.5 7 3.5C5.067 3.5 3.5 5.067 3.5 7C3.5 8.933 5.067 10.5 7 10.5Z" stroke="black"/>
	</symbol>
	<symbol id="search" viewBox="0 0 20 20">
		<path fill-rule="evenodd" clip-rule="evenodd" d="M9 0C4.02944 0 0 4.02944 0 9C0 13.9706 4.02944 18 9 18C11.1024 18 13.0364 17.2791 14.5683 16.0711L18.4784 20L20 18.4681L16.0717 14.5676C17.2794 13.0358 18 11.102 18 9C18 4.02944 13.9706 0 9 0ZM2 9C2 5.13401 5.13401 2 9 2C12.866 2 16 5.13401 16 9C16 12.866 12.866 16 9 16C5.13401 16 2 12.866 2 9Z"/>
	</symbol>

	<symbol id="navigate_before" viewBox="0 0 31 18" fill="none">
		<path d="M10.0693 1L2 9.06934L10.0693 17.1387" stroke-width="2"/>
		<path d="M2.20605 9L30.2061 9" stroke-width="2"/>
	</symbol>

	<symbol id="navigate_next" viewBox="0 0 30 18" fill="none">
		<path d="M20.3438 1L28.4131 9.06934L20.3438 17.1387" stroke-width="2"/>
		<path d="M28.207 9L0.207031 9" stroke-width="2"/>
	</symbol>

	<symbol id="done" viewBox="0 0 14 10" fill="none">
		<path d="M1.00098 3.57167L5.57248 8.14317L13.0012 0.714478" stroke-width="2"/>
	</symbol>

	<symbol id="plus" viewBox="0 0 22 22" fill="none">
	<path d="M11 0V22" stroke-width="2"/>
	<path d="M22 11L2.38419e-07 11" stroke-width="2"/>
	</symbol>


	<symbol id="doc_dowland" viewBox="0 0 14 17">
		<path opacity="0.5" fill-rule="evenodd" clip-rule="evenodd" d="M12.7589 0.60101H1.24107C0.898356 0.60101 0.620534 0.870092 0.620534 1.20202V15.798C0.620534 16.1299 0.898356 16.399 1.24107 16.399H12.7589C13.1016 16.399 13.3795 16.1299 13.3795 15.798V1.20202C13.3795 0.870092 13.1016 0.60101 12.7589 0.60101ZM1.24107 0C0.555645 0 0 0.538163 0 1.20202V15.798C0 16.4618 0.555646 17 1.24107 17H12.7589C13.4444 17 14 16.4618 14 15.798V1.20202C14 0.538163 13.4444 0 12.7589 0H1.24107Z"/>
		<path d="M2 3H12V4H2V3Z" fill-opacity="0.2"/>
		<path d="M2 5H12V6H2V5Z" fill-opacity="0.2"/>
		<path d="M2 7H12V8H2V7Z" fill-opacity="0.2"/>
		<path d="M2 9H12V10H2V9Z" fill-opacity="0.2"/>
		<path d="M2 11H7V12H2V11Z" fill-opacity="0.2"/>
	</symbol>
	<symbol id="clock" viewBox="0 0 26 26" fill="none">
		<path fill-rule="evenodd" clip-rule="evenodd" d="M13 1.73333C6.78021 1.73333 1.73333 6.78021 1.73333 13C1.73333 19.2198 6.78021 24.2667 13 24.2667C19.2198 24.2667 24.2667 19.2198 24.2667 13C24.2667 6.78021 19.2198 1.73333 13 1.73333ZM0 13C0 5.82292 5.82292 0 13 0C20.1771 0 26 5.82292 26 13C26 20.1771 20.1771 26 13 26C5.82292 26 0 20.1771 0 13Z" fill="#383B4A"/>
		<path fill-rule="evenodd" clip-rule="evenodd" d="M12.1334 14.0833V4.33325H13.8667V13.2166H19.5V14.9499H13C12.5214 14.9499 12.1334 14.5619 12.1334 14.0833Z" fill="#383B4A"/>
	</symbol>

<symbol id="video_str" viewBox="0 0 18 20">
<path d="M18 10L0 20L1.02209e-06 0L18 10Z"/>
</symbol>

<symbol id="portfolio_new" viewBox="0 0 20 20" fill="none">
	<rect x="0.5" y="4" width="19" height="15" rx="2.5" stroke="black"/>
	<line x1="4.37114e-08" y1="9" x2="20" y2="9" stroke="black"/>
	<rect x="8.5" y="8" width="3" height="2" rx="0.5" fill="white" stroke="black"/>
	<path d="M12.5 4H7.5V3.5C7.5 2.11929 8.61929 1 10 1C11.3807 1 12.5 2.11929 12.5 3.5V4Z" stroke="black"/>
</symbol>
<symbol id="people_new" viewBox="0 0 20 16" fill="none">
	<circle cx="13" cy="4" r="3.5" stroke="black"/>
	<circle cx="5" cy="7" r="2.5" stroke="black"/>
	<path d="M1 16C1 13.7909 2.79086 12 5 12C6.04328 12 6.99327 12.3994 7.70541 13.0537" stroke="black"/>
	<path d="M19 16C19 12.6863 16.3137 10 13 10C9.68629 10 7 12.6863 7 16" stroke="black"/>
</symbol>
<symbol id="add" viewBox="0 0 12 12" fill="none">
	<path d="M6 0V12" stroke-width="2"/>
	<path d="M12 6L-3.57628e-07 6" stroke-width="2"/>
</symbol>
<symbol id="ch_right" viewBox="0 0 12 12" fill="none">
	<path d="M4 11L9 6L4 1" stroke-width="2"/>
</symbol>
<symbol id="ch_right2" viewBox="0 0 18 18" fill="none">
	<path class="st0" d="M7.4,5l4,4l-4,4"/>
</symbol>
<symbol id="star" viewBox="0 0 18 18" fill="none">
	<g clip-path="url(#clip0)">
	<path d="M9 13.216L13.944 16.2L12.632 10.576L17 6.792L11.248 6.304L9 1L6.752 6.304L1 6.792L5.368 10.576L4.056 16.2L9 13.216Z"/>
	</g>
	<defs>
	<clipPath id="clip0">
	<rect width="18" height="18"/>
	</clipPath>
	</defs>
</symbol>
<symbol id="doc_dowland2" viewBox="0 0 20 17" fill="none">
<path d="M1 10.7498V15.6248H19V10.7498" stroke="white" stroke-width="1.8" stroke-linecap="round"/>
<path d="M9.69141 1V8.3125" stroke="white" stroke-width="1.8" stroke-linecap="round"/>
<path d="M5.96582 5.87573L9.69061 9.53263L13.4154 5.87573" stroke="white" stroke-width="1.8" stroke-linecap="round"/>
</symbol>

<symbol id="facebook" viewBox="0 0 32 33" fill="none">
<path fill-rule="evenodd" clip-rule="evenodd" d="M17.3145 28.0635V16.5621H20.5687L21 12.5987H17.3145L17.32 10.615C17.32 9.58125 17.4207 9.02735 18.9426 9.02735H20.977V5.06348H17.7223C13.8129 5.06348 12.4369 6.98617 12.4369 10.2195V12.5992H10V16.5626H12.4369V28.0635H17.3145Z" stroke="black" stroke-linejoin="round"/>
</symbol>

<symbol id="vk" viewBox="0 0 33 33" fill="none">
<path fill-rule="evenodd" clip-rule="evenodd" d="M17.845 23.005C17.845 23.005 18.2781 22.9558 18.5 22.7121C18.703 22.4889 18.696 22.0676 18.696 22.0676C18.696 22.0676 18.669 20.1004 19.5623 19.8099C20.4427 19.5242 21.5731 21.7123 22.7727 22.5537C23.679 23.1898 24.3668 23.0506 24.3668 23.0506L27.5726 23.005C27.5726 23.005 29.2488 22.8993 28.4541 21.5515C28.3884 21.441 27.9905 20.5541 26.0712 18.7321C24.0605 16.8249 24.3304 17.1333 26.7509 13.8339C28.2252 11.8246 28.8145 10.598 28.6302 10.0735C28.4553 9.57178 27.3707 9.70501 27.3707 9.70501L23.7623 9.72782C23.7623 9.72782 23.4947 9.69061 23.2963 9.81183C23.1026 9.93066 22.977 10.2079 22.977 10.2079C22.977 10.2079 22.4065 11.7622 21.6447 13.0849C20.0377 15.8743 19.3956 16.0219 19.1327 15.8491C18.5211 15.4446 18.6737 14.2263 18.6737 13.361C18.6737 10.6568 19.0751 9.52978 17.8931 9.23812C17.501 9.1409 17.2123 9.07728 16.2086 9.06648C14.9209 9.05328 13.8316 9.07128 13.2142 9.37974C12.8033 9.58499 12.4864 10.0435 12.6801 10.0699C12.9184 10.1023 13.4583 10.2187 13.7447 10.6172C14.1145 11.1321 14.1016 12.2867 14.1016 12.2867C14.1016 12.2867 14.3141 15.4698 13.6051 15.8647C13.1191 16.1359 12.4523 15.5826 11.0191 13.0513C10.2854 11.755 9.73138 10.3219 9.73138 10.3219C9.73138 10.3219 9.62456 10.0543 9.43322 9.91025C9.20197 9.73622 8.87917 9.68221 8.87917 9.68221L5.45038 9.70501C5.45038 9.70501 4.93506 9.71941 4.74607 9.94866C4.57821 10.1515 4.73316 10.5728 4.73316 10.5728C4.73316 10.5728 7.41774 16.9953 10.458 20.2324C13.2459 23.1994 16.4105 23.005 16.4105 23.005H17.845Z" stroke="black"/>
</symbol>

<symbol id="twitter" viewBox="0 0 33 33" fill="none">
<path d="M26.332 9.29463C25.5959 9.65069 24.8061 9.89216 23.9762 9.99997C24.8236 9.44606 25.4722 8.56749 25.7796 7.52381C24.9848 8.03677 24.1074 8.40924 23.1726 8.61115C22.424 7.73939 21.3592 7.1964 20.1781 7.1964C17.9123 7.1964 16.0752 9.20187 16.0752 11.6739C16.0752 12.0245 16.1114 12.367 16.1814 12.6944C12.772 12.5075 9.74887 10.7244 7.7255 8.01493C7.3718 8.67526 7.17059 9.44467 7.17059 10.266C7.17059 11.8199 7.89547 13.191 8.99527 13.9932C8.32288 13.9686 7.6905 13.7667 7.13687 13.4311V13.487C7.13687 15.6562 8.55161 17.4666 10.4275 17.8786C10.0838 17.9796 9.72138 18.0355 9.34645 18.0355C9.08151 18.0355 8.8253 18.0069 8.57409 17.9523C9.09648 19.7327 10.6112 21.0273 12.4059 21.0628C11.0024 22.2634 9.23272 22.9769 7.31059 22.9769C6.97942 22.9769 6.65321 22.9551 6.33203 22.9155C8.14795 24.1884 10.3038 24.9305 12.6209 24.9305C20.1682 24.9305 24.2937 18.1065 24.2937 12.1883L24.2799 11.6085C25.086 10.9809 25.7834 10.1923 26.332 9.29463Z" stroke="black"/>
</symbol>

<symbol id="instagram" viewBox="0 0 27 33" fill="none">
<path fill-rule="evenodd" clip-rule="evenodd" d="M16.0008 7.06348C13.5566 7.06348 13.2498 7.07416 12.2898 7.11785C11.3317 7.16173 10.6777 7.31341 10.1054 7.53598C9.51346 7.76585 9.01133 8.07335 8.51108 8.57379C8.01045 9.07404 7.70294 9.57616 7.47232 10.1679C7.24919 10.7404 7.09731 11.3945 7.05419 12.3523C7.01125 13.3123 7 13.6192 7 16.0635C7 18.5077 7.01088 18.8135 7.05438 19.7735C7.09844 20.7317 7.25013 21.3857 7.4725 21.9579C7.70257 22.5499 8.01007 23.052 8.51052 23.5522C9.01058 24.0529 9.51271 24.3611 10.1043 24.591C10.6769 24.8135 11.3311 24.9652 12.2891 25.0091C13.2491 25.0528 13.5556 25.0635 15.9997 25.0635C18.4442 25.0635 18.75 25.0528 19.71 25.0091C20.6681 24.9652 21.3229 24.8135 21.8955 24.591C22.4873 24.3611 22.9887 24.0529 23.4887 23.5522C23.9894 23.052 24.2969 22.5499 24.5275 21.9581C24.7487 21.3857 24.9006 20.7315 24.9456 19.7737C24.9887 18.8137 25 18.5077 25 16.0635C25 13.6192 24.9887 13.3125 24.9456 12.3525C24.9006 11.3944 24.7487 10.7404 24.5275 10.1681C24.2969 9.57616 23.9894 9.07404 23.4887 8.57379C22.9881 8.07316 22.4875 7.76566 21.895 7.53598C21.3212 7.31341 20.6668 7.16173 19.7087 7.11785C18.7487 7.07416 18.4431 7.06348 15.998 7.06348L16.0008 7.06348Z" stroke="black"/>
<path fill-rule="evenodd" clip-rule="evenodd" d="M21.352 9.46387C20.716 9.46387 20.2 9.97928 20.2 10.6155C20.2 11.2515 20.716 11.7675 21.352 11.7675C21.988 11.7675 22.504 11.2515 22.504 10.6155C22.504 9.97948 21.988 9.46347 21.352 9.46347V9.46387Z" stroke="black"/>
<path fill-rule="evenodd" clip-rule="evenodd" d="M16.0004 11.2635C13.3494 11.2635 11.2 13.4129 11.2 16.064C11.2 18.715 13.3494 20.8635 16.0004 20.8635C18.6514 20.8635 20.8 18.715 20.8 16.064C20.8 13.4129 18.6512 11.2635 16.0002 11.2635L16.0004 11.2635Z" stroke="black"/>
</symbol>

<symbol id="phone" viewBox="0 0 19 19" fill="none">
<path d="M16.3302 14.0556C15.7719 13.4931 14.4198 12.6723 13.7638 12.3414C12.9095 11.9111 12.8391 11.876 12.1677 12.3748C11.7198 12.7078 11.422 13.0052 10.8978 12.8934C10.3736 12.7816 9.23457 12.1512 8.23719 11.157C7.23981 10.1628 6.57289 8.99069 6.46074 8.46827C6.3486 7.94584 6.65094 7.65159 6.9807 7.20264C7.44547 6.56983 7.41031 6.46436 7.01305 5.61006C6.70332 4.94561 5.85852 3.60616 5.29391 3.05069C4.68992 2.45409 4.68992 2.55956 4.30074 2.72127C3.98391 2.85458 3.67994 3.01663 3.39266 3.20538C2.83016 3.57909 2.51797 3.88952 2.29965 4.35604C2.08133 4.82256 1.98324 5.91627 3.1107 7.96448C4.23817 10.0127 5.02918 11.06 6.66641 12.6926C8.30363 14.3253 9.56258 15.2031 11.403 16.2353C13.6797 17.5105 14.553 17.2619 15.0209 17.0439C15.4889 16.826 15.8007 16.5166 16.1751 15.9541C16.3644 15.6673 16.5268 15.3637 16.6603 15.0471C16.8223 14.6593 16.9278 14.6593 16.3302 14.0556Z" stroke="#383B4A" stroke-miterlimit="10"/>
</symbol>

<symbol id="email" viewBox="0 0 19 19">
<path d="M4.41211 6.0835L9.47461 10.021L14.5371 6.0835" stroke="#383B4A" stroke-linejoin="round"/>
<rect x="2.4032" y="4.31564" width="14.1429" height="10.2857" stroke="#383B4A"/>
</symbol>

<symbol id="email2" viewBox="0 0 19 19" fill="none">
<path d="M4.41211 6.0835L9.47461 10.021L14.5371 6.0835" stroke="#fff" stroke-linejoin="round"/>
<rect x="2.4032" y="4.31564" width="14.1429" height="10.2857" stroke="#fff"/>
</symbol>

<symbol id="email_send" viewBox="0 0 18 18" fill="none">
	<path d="M10 14.0993H15.4269C15.8211 14.0993 16.1406 13.7798 16.1406 13.3856V4.71375C16.1406 4.31956 15.8211 4 15.4269 4H2.42674C2.03254 4 1.71299 4.31956 1.71299 4.71375V10.5" stroke="#BE7C02" stroke-width="0.909905"/>
	<path d="M16.0977 4.77344L8.59766 8.54633L1.81511 4.77344" stroke="#BE7C02" stroke-width="0.909905"/>
	<path d="M1.5 13H8.24328" stroke="#BE7C02" stroke-width="0.8"/>
	<path d="M6.5 11L8.5 13L6.5 15" stroke="#BE7C02" stroke-width="0.8"/>
</symbol>



<symbol id="tooltip" viewBox="0 0 18 18" fill="none">
<circle cx="9" cy="9" r="8.5" stroke="#383B4A" stroke-miterlimit="10"/>
<path d="M9.5 6.21521V14.2532H8.5V6.21521H9.5Z" fill="#383B4A"/>
<path d="M9.5 3.81012V4.81012H8.5V3.81012H9.5Z" fill="#383B4A"/>
</symbol>

<symbol id="collapse1" width="12" height="12" viewBox="0 0 12 12" fill="none">
<path d="M6 0V12" stroke="black"/>
<path d="M12 6L-3.57628e-07 6" stroke="black"/>
</symbol>

<symbol id="collapse2" width="12" height="12" viewBox="0 0 12 12" fill="none">
<path d="M12 6L-3.57628e-07 6" stroke="black"/>
</symbol>

<symbol id="person" viewBox="0 0 14 23" fill="none">
<path d="M10.3182 5.5C10.3182 6.33855 9.93891 7.40274 9.29934 8.25899C8.65615 9.12008 7.83236 9.66666 7.00007 9.66666C6.16777 9.66666 5.34398 9.12008 4.70079 8.25899C4.06122 7.40274 3.68188 6.33855 3.68188 5.5C3.68188 3.88321 5.12564 2.5 7.00007 2.5C8.87449 2.5 10.3182 3.88321 10.3182 5.5Z" stroke="black"/>
<path d="M6.6326 14.0058L7 14.4038L7.3674 14.0058L9.77145 11.4014C9.86055 11.3049 9.98594 11.25 10.1173 11.25C11.9855 11.25 13.5 12.7645 13.5 14.6327V17.3333C13.5 17.6095 13.2761 17.8333 13 17.8333H1C0.723858 17.8333 0.5 17.6095 0.5 17.3333V14.6327C0.5 12.7645 2.01449 11.25 3.8827 11.25C4.01406 11.25 4.13945 11.3049 4.22855 11.4014L6.6326 14.0058Z" stroke="black"/>
</symbol>

<symbol id="btn_next" fill="none">
<path d="M8.54248 1.19232L14.0001 6.49999L8.54248 11.8076" stroke="#383B4A" stroke-width="2"/>
<path d="M13.3673 6.49213L0 6.49213" stroke="#383B4A" stroke-width="2"/>
</symbol>

<symbol id="exit" width="18" height="18" viewBox="0 0 18 18" fill="none">
<path d="M2 9.20001H12"/>
<path d="M7.65674 5L11.8284 9.17163L7.65674 13.3433"/>
<path d="M9 1H17V17H9"/>
</symbol>

<symbol id="pin" viewBox="0 0 18 19" fill="none">
<path d="M14 7.5C14 8.66809 13.3053 10.2794 12.2729 11.75C10.8646 13.7559 9 15.5 9 15.5C9 15.5 7.13537 13.7559 5.72709 11.75C4.69466 10.2794 4 8.66809 4 7.5C4 4.73858 6.23858 2.5 9 2.5C11.7614 2.5 14 4.73858 14 7.5Z" stroke="#383B4A"/>
<circle cx="9.00054" cy="7.50005" r="3.2" stroke="#383B4A"/>
</symbol>

<symbol id="housesearch" width="18" height="20" viewBox="0 0 18 20" fill="none">
<g clip-path="url(#clip0)">
<path d="M17.5918 6.55592L9.76777 1.68164C9.59812 1.56043 9.39961 1.5 9.20106 1.5C9.00251 1.5 8.80396 1.56043 8.63435 1.68164L0.810353 6.55592C0.465574 6.80223 0.319346 7.2432 0.448667 7.64677C0.577987 8.05035 0.953307 8.32395 1.37706 8.32395H2.35192V8.87345C2.65706 8.62585 2.98363 8.41234 3.32678 8.23328V7.34914H1.37706L9.20106 2.47486L17.025 7.34914H15.0753V16.1228H13.216C13.0366 16.466 12.8234 16.7926 12.5758 17.0977H15.0753C15.6138 17.0977 16.0502 16.6613 16.0502 16.1228V8.32399H17.025C17.4487 8.32399 17.824 8.05038 17.9534 7.64681C18.0828 7.2432 17.9365 6.80223 17.5918 6.55592Z" fill="#383B4A" stroke="#383B4A" stroke-width="0.2"/>
<path d="M10.4743 9.975C9.5537 9.05441 8.3296 8.54749 7.02752 8.54749C5.72544 8.54749 4.50165 9.05441 3.58076 9.975C1.79841 11.7574 1.70968 14.5763 3.27109 16.489L1 18.5322L1.68922 19.2214L3.95935 17.1795C4.82697 17.8898 5.8912 18.296 7.02756 18.296C8.32964 18.296 9.55374 17.7891 10.4743 16.8682C11.3949 15.9476 11.9018 14.7235 11.9018 13.4218C11.9018 12.1197 11.3949 10.8956 10.4743 9.975ZM9.78507 16.179C9.0237 16.9403 8.02579 17.3212 7.02786 17.3212C6.03058 17.3212 5.03329 16.941 4.27226 16.1803L4.26933 16.1773C2.7479 14.6543 2.74821 12.1866 4.27062 10.6645C5.032 9.90314 6.02989 9.5223 7.02782 9.5223C8.02576 9.5223 9.02369 9.90314 9.78503 10.6645C11.3078 12.1873 11.3078 14.6563 9.78507 16.179Z" fill="#383B4A" stroke="#383B4A" stroke-width="0.2"/>
</g>
<defs>
<clipPath id="clip0">
<rect width="18" height="19" fill="white" transform="translate(0 0.5)"/>
</clipPath>
</defs>
</symbol>
 
<symbol id="coin_ruble" width="18" height="18" viewBox="0 0 18 18" fill="none">
<circle cx="9" cy="9" r="8.5" stroke="#383B4A"/>
<path d="M6 12.0286V10.8857H6.85714V10.0286H6V8.82857H6.85714V5H9.77143C10.739 5 11.4933 5.23619 12.0343 5.70857C12.5829 6.18095 12.8571 6.78286 12.8571 7.51429C12.8571 8.24571 12.5829 8.84762 12.0343 9.32C11.4933 9.79238 10.739 10.0286 9.77143 10.0286H8.17143V10.8857H10.9143V12.0286H8.17143V13H6.85714V12.0286H6ZM8.17143 8.82857H9.77143C10.9143 8.82857 11.4857 8.39048 11.4857 7.51429C11.4857 6.6381 10.9143 6.2 9.77143 6.2H8.17143V8.82857Z" fill="#383B4A"/>
</symbol>

<symbol id="square" width="18" height="18" viewBox="0 0 18 18" fill="none">
<path d="M2 0V18" stroke="#383B4A"/>
<path d="M18 2L0 2" stroke="#383B4A"/>
<path d="M16 0V18" stroke="#383B4A"/>
<path d="M18 16L0 16" stroke="#383B4A"/>
</symbol>
<symbol id="message_new" viewBox="0 0 15 11">
	<path d="M7.57,6.71a.51.51,0,0,1-.31-.11L2.2,2.66l.62-.79,4.75,3.7,4.76-3.7.61.79L7.88,6.6A.51.51,0,0,1,7.57,6.71Z" /><path d="M15.14,11.29H0V0H15.14ZM1,10.29H14.14V1H1Z" />
</symbol>


<symbol id="site" width="18" height="18" fill="none" viewBox="0 0 18 18">
<g clip-path="url(#clip0)">
<path d="M17.5 9C17.5 9.19535 17.3817 9.46102 16.9832 9.77503C16.5904 10.0846 15.9911 10.3852 15.2058 10.647C13.6406 11.1687 11.4465 11.5 9 11.5C6.5535 11.5 4.35937 11.1687 2.79415 10.647C2.00893 10.3852 1.40955 10.0846 1.01675 9.77503C0.618313 9.46102 0.5 9.19535 0.5 9C0.5 8.80465 0.618313 8.53898 1.01675 8.22497C1.40955 7.91541 2.00893 7.61476 2.79415 7.35302C4.35937 6.83128 6.5535 6.5 9 6.5C11.4465 6.5 13.6406 6.83128 15.2058 7.35302C15.9911 7.61476 16.5904 7.91541 16.9832 8.22497C17.3817 8.53898 17.5 8.80465 17.5 9Z" stroke="#383B4A"/>
<path d="M9 17.5C8.80465 17.5 8.53897 17.3817 8.22497 16.9832C7.91541 16.5904 7.61476 15.9911 7.35302 15.2058C6.83128 13.6406 6.5 11.4465 6.5 9C6.5 6.5535 6.83128 4.35937 7.35302 2.79415C7.61476 2.00893 7.91541 1.40955 8.22497 1.01675C8.53897 0.618313 8.80465 0.5 9 0.5C9.19535 0.5 9.46102 0.618313 9.77503 1.01675C10.0846 1.40955 10.3852 2.00893 10.647 2.79415C11.1687 4.35937 11.5 6.5535 11.5 9C11.5 11.4465 11.1687 13.6406 10.647 15.2058C10.3852 15.9911 10.0846 16.5904 9.77503 16.9832C9.46102 17.3817 9.19535 17.5 9 17.5Z" stroke="#383B4A"/>
<circle cx="9" cy="9" r="8.5" stroke="#383B4A" stroke-miterlimit="10"/>
</g>
<defs>
<clipPath id="clip0">
<rect width="18" height="18" fill="white"/>
</clipPath>
</defs>
</symbol>

<symbol id="add_file" viewBox="0 0 18 18" fill="none">
	<path d="M3.34267 8.51243C3.51813 8.33697 7.42626 4.42884 9.3584 2.49671C9.3584 2.49671 11.9276 -0.0725098 15.0608 3.06068C18.194 6.19387 15.6248 8.76309 15.6248 8.76309C12.9302 11.4576 9.85971 14.5282 8.16778 16.2201C6.91451 17.4734 5.06771 17.0678 4.12597 16.1261C2.40271 14.4028 2.96669 13.0242 3.96931 12.0216L10.0164 5.97455C10.0164 5.97455 10.8937 5.09725 11.9589 6.16254C13.0242 7.22782 12.1469 8.10512 12.1469 8.10512L7.7918 12.4603" stroke="#383B4A"/>
</symbol>
<symbol id="comments" viewBox="0 0 16 14.5">
	<path d="M16,14.5,11,11H0V0H16ZM1,10H11.31L15,12.58V1H1Z"/>
	<path d="M5.5,5.5A.5.5,0,1,1,5,5,.5.5,0,0,1,5.5,5.5Z"/>
	<path d="M8.5,5.5A.5.5,0,1,1,8,5,.5.5,0,0,1,8.5,5.5Z"/>
	<path d="M11.5,5.5A.5.5,0,1,1,11,5,.5.5,0,0,1,11.5,5.5Z"/>
</symbol>
<symbol id="attach" viewBox="0 0 14 18" fill="none">
	<path d="M0.5 1.00024C0.5 0.724102 0.723858 0.500244 1 0.500244H12.8462C13.1223 0.500244 13.3462 0.724101 13.3462 1.00024V17.0002C13.3462 17.2764 13.1223 17.5002 12.8462 17.5002H0.999999C0.723858 17.5002 0.5 17.2764 0.5 17.0002V1.00024Z" stroke="#383B4A"/>
	<path d="M3 5.00024H11" stroke="#383B4A"/>
	<path d="M3 8.00024H11" stroke="#383B4A"/>
	<path d="M3 11.0002H8" stroke="#383B4A"/>
</symbol>
<!-- <symbol id="error" viewBox="0 0 15 15" fill="none">
	<circle cx="7.5" cy="7.5" r="7.5" fill="#EA4C4C"/>
	<path d="M4 4L11 11" stroke="white" stroke-width="2"/>
	<path d="M11 4L4 11" stroke="white" stroke-width="2"/>
</symbol> -->
<symbol id="download_ico" viewBox="0 0 14 14" fill="none">
	<g clip-path="url(#clip0)">
		<path d="M6.84424 1.55566L6.84424 9.33344" stroke="#383B4A"/>
		<path d="M10.1108 5.95557L6.86624 9.20017L3.62164 5.95557" stroke="#383B4A"/>
		<path d="M13.2222 7L13.2222 13.2222L0.777723 13.2222L0.777723 7" stroke="#383B4A"/>
	</g>
	<defs>
		<clipPath id="clip0">
			<rect width="14" height="14" fill="white" transform="translate(14) rotate(90)"/>
		</clipPath>
	</defs>
</symbol>
<symbol id="filter" viewBox="0 0 18 18" fill="none">
	<path d="M1 6H11" stroke="#383B4A"/>
	<path d="M17 12H7" stroke="#383B4A"/>
	<rect x="11.5" y="3.5" width="5" height="5" rx="0.5" stroke="#383B4A"/>
	<rect x="-0.5" y="0.5" width="5" height="5" rx="0.5" transform="matrix(-1 0 0 1 6 9)" stroke="#383B4A"/>
</symbol>

<symbol id="people_fail" viewBox="0 0 18 18" fill="none">
	<path fill-rule="evenodd" clip-rule="evenodd" d="M13.0761 14.2482H13.1817L13.1289 14.1954L13.0761 14.2482ZM9.83344 13.2482L8.83344 14.2482H2.25H1.25V13.2482V12.0226C1.25 10.6909 2.60305 9.63281 4.17791 9.63281H8.56634L9.56634 10.6328H4.17791C2.94239 10.6328 2.25 11.4344 2.25 12.0226V13.2482H9.83344Z" fill="#EA4C4C"/>
	<path d="M9.78185 5.48077C9.78185 6.98048 8.55079 8.21154 7.05108 8.21154C5.55777 8.21154 4.34009 6.98628 4.32031 5.47776C4.32196 3.97941 5.55237 2.75 7.05108 2.75C8.55079 2.75 9.78185 3.98106 9.78185 5.48077Z" stroke="#EA4C4C"/>
	<path d="M9.79688 8.74609L16.4571 15.4063" stroke="#EA4C4C"/>
	<path d="M16.457 8.74609L9.79679 15.4063" stroke="#EA4C4C"/>
</symbol>

<symbol id="people_pass" viewBox="0 0 18 18" fill="none">
	<path fill-rule="evenodd" clip-rule="evenodd" d="M8.31564 14.2482H2.62891H1.62891V13.2482V12.0226C1.62891 10.6909 2.98196 9.63281 4.55682 9.63281H10.7232C11.7522 9.63281 12.6331 10.0415 13.1471 10.6791L12.4282 11.398C12.1512 10.9805 11.586 10.6328 10.7232 10.6328H4.55682C3.3213 10.6328 2.62891 11.4344 2.62891 12.0226V13.2482H7.31569L8.31564 14.2482Z" fill="#178251"/>
	<path d="M10.1608 5.47686C10.1608 6.97657 8.9297 8.20763 7.42999 8.20763C5.93668 8.20763 4.719 6.98238 4.69922 5.47386C4.70086 3.97551 5.93128 2.74609 7.42999 2.74609C8.9297 2.74609 10.1608 3.97715 10.1608 5.47686Z" stroke="#178251"/>
	<path d="M16.3711 9.57422L11.0679 14.8775L8.23949 12.049" stroke="#178251"/>
</symbol>

<symbol id="filter2" viewBox="0 0 9 16" fill="none">
	<path d="M8 5.00001L4.5 1.47168L1 5.00001" stroke="#B5B5B5" stroke-width="1.5"/>
	<path d="M1 9.99999L4.5 13.5283L8 9.99999" stroke="#B5B5B5" stroke-width="1.5"/>
</symbol>

<symbol id="filter2up" viewBox="0 0 9 16" fill="none">
	<path d="M8 5.00001L4.5 1.47168L1 5.00001" stroke="#4D4D4D" stroke-width="1.5"/>
	<path d="M1 9.99999L4.5 13.5283L8 9.99999" stroke="#B5B5B5" stroke-width="1.5"/>
</symbol>

<symbol id="filter2down" viewBox="0 0 9 16" fill="none">
	<path d="M8 5.00001L4.5 1.47168L1 5.00001" stroke="#B5B5B5" stroke-width="1.5"/>
	<path d="M1 9.99999L4.5 13.5283L8 9.99999" stroke="#4D4D4D" stroke-width="1.5"/>
</symbol>

<symbol id="like" viewBox="0 0 17 16" fill="none">
	<path d="M5.57325 6.13394L5.5733 6.13389L10.297 1.41018L10.8498 1.82495C10.8499 1.82497 10.8499 1.825 10.8499 1.82503C10.9486 1.89912 11.0231 2.00076 11.0641 2.11714C11.1051 2.23355 11.1107 2.35951 11.0802 2.47912L11.0802 2.47925L10.2155 5.87675L10.0568 6.50008H10.7H15.5C15.7652 6.50008 16.0196 6.60544 16.2071 6.79298C16.3946 6.98051 16.5 7.23487 16.5 7.50008V9.07808V9.0786C16.5001 9.20927 16.4747 9.3387 16.425 9.45957C16.425 9.45958 16.425 9.45959 16.425 9.4596L14.104 15.0953C14.0851 15.1411 14.053 15.1803 14.0119 15.2079C13.9707 15.2354 13.9223 15.2501 13.8727 15.2501H13.8725H5.75C5.68369 15.2501 5.62011 15.2237 5.57322 15.1769C5.52634 15.13 5.5 15.0664 5.5 15.0001V6.31069C5.5 6.31065 5.5 6.31062 5.5 6.31058C5.50004 6.24432 5.52639 6.18079 5.57325 6.13394ZM10.3738 1.33338C10.3736 1.33355 10.3735 1.33372 10.3733 1.33389L10.3738 1.33338ZM1.25 7.25008H3V15.2501H1.25C1.18369 15.2501 1.12011 15.2237 1.07322 15.1769C1.02634 15.13 1 15.0664 1 15.0001V7.50008C1 7.43378 1.02634 7.37019 1.07322 7.32331C1.12011 7.27642 1.1837 7.25008 1.25 7.25008Z" stroke="black"/>
</symbol>

<symbol id="dislike" viewBox="0 0 17 16" fill="none">
	<path d="M0.75 9.24992H3V0.249917H0.75C0.551088 0.249917 0.360322 0.328934 0.21967 0.469586C0.0790176 0.610239 0 0.801004 0 0.999917V8.49992C0 8.69883 0.0790176 8.88959 0.21967 9.03025C0.360322 9.1709 0.551088 9.24992 0.75 9.24992ZM4.71975 10.2197L9.51975 15.0197C9.58355 15.0836 9.6683 15.1224 9.75842 15.1289C9.84853 15.1354 9.93796 15.1091 10.0103 15.0549L10.65 14.5749C10.8277 14.4415 10.9619 14.2585 11.0357 14.049C11.1095 13.8394 11.1196 13.6127 11.0648 13.3974L10.2 9.99992H15C15.3978 9.99992 15.7794 9.84188 16.0607 9.56058C16.342 9.27927 16.5 8.89774 16.5 8.49992V6.92192C16.5002 6.72589 16.462 6.53174 16.3875 6.35042L14.0662 0.714167C14.0096 0.576754 13.9134 0.459263 13.7899 0.376606C13.6664 0.293949 13.5211 0.249854 13.3725 0.249917H5.25C5.05109 0.249917 4.86032 0.328934 4.71967 0.469586C4.57902 0.610239 4.5 0.801004 4.5 0.999917V9.68942C4.50004 9.88831 4.57909 10.079 4.71975 10.2197Z"/>
</symbol>

<symbol id="search_input" viewBox="0 0 32 32" stroke="#909197" fill="#909197">
	<circle stroke-width="1.5" cx="14.4332" cy="14.4065" r="8.38823" fill="none"/>
	<path stroke-width=".75" d="M24.727 25.7669C25.0199 26.0598 25.4948 26.0598 25.7877 25.7669C26.0806 25.474 26.0806 24.9992 25.7877 24.7063L24.727 25.7669ZM20.0517 21.0916L24.727 25.7669L25.7877 24.7063L21.1124 20.0309L20.0517 21.0916Z"/>
</symbol>

<symbol id="search_cancel" viewBox="0 0 32 32" stroke-width="1.5" fill="none" stroke="#909197">
	<path d="M8 8L24 24" stroke-linecap="round"/>
	<path d="M8 24L24 8" stroke-linecap="round"/>
</symbol>

	<symbol id="search_New" xmlns="http://www.w3.org/2000/svg" viewBox="0 0 24 24" fill="none">
		<defs>
			<clipPath id="clip1527_2568">
				<rect id="Linear / Search / Magnifer" width="24.000000" height="24.000000" fill="white" fill-opacity="0"/>
			</clipPath>
		</defs>
		<g clip-path="url(#clip1527_2568)">
			<circle id="Vector" cx="11.500000" cy="11.500977" r="9.500000" stroke-opacity="1.000000" stroke-width="1.500000"/>
			<path id="Vector" d="M18.5 18.501L22 22.001" stroke-opacity="1.000000" stroke-width="1.500000" stroke-linecap="round"/>
		</g>
	</symbol>

	<symbol id="filesNew" xmlns="http://www.w3.org/2000/svg" viewBox="0 0 23.9131 24.3853" fill="none">
		<path id="Vector" d="M21.707 12.9352C21.0156 15.516 20.6699 16.8064 19.8857 17.6433C19.2671 18.3042 18.4658 18.7666 17.5845 18.9722C17.4741 18.9979 17.3623 19.0177 17.2476 19.0318C16.2002 19.161 14.9224 18.8186 12.5962 18.1953C10.0156 17.5038 8.7251 17.158 7.88818 16.3741C7.22754 15.7552 6.76514 14.9542 6.55908 14.0725C6.29883 12.9558 6.64453 11.6653 7.33643 9.08453L7.92871 6.87363C8.02832 6.50247 8.12061 6.15802 8.20801 5.83774C8.72852 3.93103 9.07861 2.88205 9.75 2.1655C10.3687 1.50467 11.1699 1.04224 12.0513 0.836639C13.168 0.576263 14.4585 0.922028 17.0396 1.61356C19.6201 2.30508 20.9106 2.65085 21.7476 3.43469C22.4082 4.05362 22.8706 4.85461 23.0762 5.73636C23.3369 6.85306 22.9912 8.14349 22.2993 10.7243L21.707 12.9352Z" stroke-opacity="1.000000" stroke-width="1.500000"/>
		<path id="Vector" d="M17.2471 19.0305C17.0088 19.7612 16.5889 20.4222 16.0249 20.9506C15.188 21.7344 13.8975 22.0802 11.3169 22.7717C8.73584 23.4633 7.44531 23.809 6.32861 23.5486C5.44727 23.343 4.646 22.8806 4.02734 22.2198C3.24316 21.3829 2.89746 20.0925 2.20605 17.5116L1.61377 15.3008C0.921875 12.7199 0.576172 11.4295 0.836426 10.3128C1.04248 9.43106 1.50488 8.63007 2.16553 8.01114C3.00244 7.22729 4.29297 6.88153 6.87354 6.19C7.36182 6.05917 7.8042 5.9407 8.20752 5.8364" stroke-opacity="1.000000" stroke-width="1.500000"/>
		<path id="Vector" d="M11.9375 9.9028L17.4648 11.3839" stroke-opacity="1.000000" stroke-width="1.500000" stroke-linecap="round"/>
		<path id="Vector" d="M11.0508 13.2187L14.3672 14.1074" stroke-opacity="1.000000" stroke-width="1.500000" stroke-linecap="round"/>
	</symbol>

	<symbol id="flags" xmlns="http://www.w3.org/2000/svg" viewBox="0 0 24 24" fill="none">
		<defs>
			<clipPath id="clip1527_2590">
				<rect id="Linear / Essentional, UI / Flag" width="24.000000" height="24.000000" fill="white" fill-opacity="0"/>
			</clipPath>
		</defs>
		<g clip-path="url(#clip1527_2590)">
			<path id="Vector" d="M5 22.001L5 14.001L5 4.00098L5 2.00098M5 4.00098L7.4707 3.50684C9.12109 3.17676 10.832 3.3338 12.395 3.95892L12.5986 4.04041C14.1597 4.66486 15.8779 4.78149 17.5093 4.37366C18.2664 4.18439 19 4.75708 19 5.53766L19 12.9047C19 13.549 18.5615 14.1106 17.9365 14.2668L17.7219 14.3205C15.9524 14.7629 14.0884 14.6364 12.395 13.9589C10.832 13.3338 9.12109 13.1768 7.4707 13.5068L5 14.001" stroke-opacity="1.000000" stroke-width="1.500000" stroke-linecap="round"/>
		</g>
	</symbol>

	<symbol id="settingsNew" xmlns="http://www.w3.org/2000/svg" viewBox="0 0 24 24" fill="none">
		<defs>
			<clipPath id="clip1527_2583">
				<rect id="settings" width="24.000000" height="24.000000" fill="white" fill-opacity="0"/>
			</clipPath>
		</defs>
		<g clip-path="url(#clip1527_2583)">
			<path id="Vector" d="M11.78 2C11.2495 2 10.741 2.21069 10.3657 2.58582C9.99072 2.96088 9.78003 3.46954 9.78003 4L9.78003 4.17999C9.77954 4.5307 9.68701 4.87518 9.51147 5.17883C9.33594 5.48248 9.08374 5.73462 8.78003 5.90997L8.3501 6.15997C8.0459 6.33551 7.70117 6.42798 7.3501 6.42798C6.99902 6.42798 6.65405 6.33551 6.3501 6.15997L6.19995 6.08002C5.74097 5.81525 5.1958 5.74347 4.68408 5.88031C4.17212 6.01715 3.7356 6.35156 3.46997 6.81L3.25 7.19C2.98535 7.64893 2.91333 8.19415 3.05029 8.70599C3.18726 9.21783 3.52148 9.65442 3.97998 9.91998L4.12988 10.02C4.43237 10.1945 4.68359 10.4451 4.85913 10.7468C5.03442 11.0486 5.12793 11.391 5.12988 11.74L5.12988 12.25C5.13135 12.6024 5.03955 12.949 4.86401 13.2545C4.68848 13.5601 4.4353 13.8138 4.12988 13.99L3.97998 14.08C3.52148 14.3456 3.18726 14.7822 3.05029 15.294C2.91333 15.8058 2.98535 16.3511 3.25 16.81L3.46997 17.19C3.7356 17.6484 4.17212 17.9828 4.68408 18.1197C5.1958 18.2565 5.74097 18.1848 6.19995 17.92L6.3501 17.84C6.65405 17.6645 6.99902 17.572 7.3501 17.572C7.70117 17.572 8.0459 17.6645 8.3501 17.84L8.78003 18.09C9.08374 18.2654 9.33594 18.5175 9.51147 18.8212C9.68701 19.1248 9.77954 19.4693 9.78003 19.82L9.78003 20C9.78003 20.5305 9.99072 21.0391 10.3657 21.4142C10.741 21.7893 11.2495 22 11.78 22L12.22 22C12.7505 22 13.259 21.7893 13.6343 21.4142C14.0093 21.0391 14.22 20.5305 14.22 20L14.22 19.82C14.2205 19.4693 14.313 19.1248 14.4885 18.8212C14.6641 18.5175 14.9163 18.2654 15.22 18.09L15.6499 17.84C15.9541 17.6645 16.2988 17.572 16.6499 17.572C17.001 17.572 17.3459 17.6645 17.6499 17.84L17.8 17.92C18.259 18.1848 18.8042 18.2565 19.3159 18.1197C19.8279 17.9828 20.2644 17.6484 20.53 17.19L20.75 16.8C21.0146 16.3411 21.0867 15.7958 20.9497 15.284C20.8127 14.7722 20.4785 14.3356 20.02 14.07L19.8701 13.99C19.5647 13.8138 19.3115 13.5601 19.136 13.2545C18.9604 12.949 18.8687 12.6024 18.8701 12.25L18.8701 11.75C18.8687 11.3976 18.9604 11.051 19.136 10.7455C19.3115 10.4399 19.5647 10.1862 19.8701 10.01L20.02 9.91998C20.4785 9.65442 20.8127 9.21783 20.9497 8.70599C21.0867 8.19415 21.0146 7.64893 20.75 7.19L20.53 6.81C20.2644 6.35156 19.8279 6.01715 19.3159 5.88031C18.8042 5.74347 18.259 5.81525 17.8 6.08002L17.6499 6.15997C17.3459 6.33551 17.001 6.42798 16.6499 6.42798C16.2988 6.42798 15.9541 6.33551 15.6499 6.15997L15.22 5.90997C14.9163 5.73462 14.6641 5.48248 14.4885 5.17883C14.313 4.87518 14.2205 4.5307 14.22 4.17999L14.22 4C14.22 3.46954 14.0093 2.96088 13.6343 2.58582C13.259 2.21069 12.7505 2 12.22 2L11.78 2Z" stroke-opacity="1.000000" stroke-width="1.500000" stroke-linejoin="round"/>
			<path id="Vector" d="M12 15C10.3433 15 9 13.6569 9 12C9 10.3431 10.3433 9 12 9C13.6567 9 15 10.3431 15 12C15 13.6569 13.6567 15 12 15Z" stroke-opacity="1.000000" stroke-width="1.500000" stroke-linejoin="round"/>
		</g>
	</symbol>

	<symbol id="updateFile" xmlns="http://www.w3.org/2000/svg" viewBox="0 0 24 24" fill="none">
		<defs>
			<clipPath id="clip1527_2575">
				<rect id="file-pen" width="24.000000" height="24.000000" fill="white" fill-opacity="0"/>
			</clipPath>
		</defs>
		<g clip-path="url(#clip1527_2575)">
			<path id="Vector" d="M12 22L18 22C18.5305 22 19.0391 21.7893 19.4143 21.4142C19.7893 21.0392 20 20.5304 20 20L20 7L15 2L6 2C5.46948 2 4.96094 2.21072 4.58569 2.58578C4.21069 2.96085 4 3.46957 4 4L4 14"  stroke-opacity="1.000000" stroke-width="1.500000" stroke-linejoin="round" stroke-linecap="round"/>
			<path id="Vector" d="M14 2L14 6C14 6.53043 14.2107 7.03915 14.5857 7.41422C14.9609 7.78928 15.4695 8 16 8L20 8"  stroke-opacity="1.000000" stroke-width="1.500000" stroke-linejoin="round" stroke-linecap="round"/>
			<path id="Vector" d="M11.8999 11.9785C12.4626 11.9785 13.0022 12.202 13.3999 12.5998C13.7979 12.9977 14.0212 13.5372 14.0212 14.0998C14.0212 14.6624 13.7979 15.202 13.3999 15.5998L8 20.9998L4 21.9998L5 17.9998L10.3999 12.5998C10.7979 12.202 11.3374 11.9785 11.8999 11.9785Z" stroke-opacity="1.000000" stroke-width="1.500000" stroke-linejoin="round"/>
		</g>
	</symbol>


	<symbol id="newHouse" xmlns="http://www.w3.org/2000/svg" viewBox="0 0 37.625 36.3125" fill="none">
		<path id="Vector" d="M24.0625 0L27.5625 0C30.8623 0 32.5122 0 33.5374 1.02515C34.5625 2.05029 34.5625 3.7002 34.5625 7L34.5625 33.6875L36.3125 33.6875C37.0374 33.6875 37.625 34.2751 37.625 35C37.625 35.7249 37.0374 36.3125 36.3125 36.3125L1.3125 36.3125C0.587646 36.3125 0 35.7249 0 35C0 34.2751 0.587646 33.6875 1.3125 33.6875L3.0625 33.6875L3.0625 12.25C3.0625 8.9502 3.0625 7.30029 4.08765 6.27515C5.11279 5.25 6.7627 5.25 10.0625 5.25L17.0625 5.25C20.3623 5.25 22.0122 5.25 23.0374 6.27515C24.0625 7.30029 24.0625 8.9502 24.0625 12.25L24.0625 33.6875L26.6875 33.6875L26.6875 12.25L26.6875 12.0935C26.6877 10.5786 26.6877 9.1897 26.5359 8.05981C26.3687 6.81567 25.9751 5.50049 24.8936 4.41895C23.812 3.3374 22.4968 2.94385 21.2527 2.77661C20.1387 2.62671 18.7729 2.62476 17.283 2.625C17.4304 1.94727 17.6768 1.43604 18.0876 1.02515C19.1128 0 20.7627 0 24.0625 0ZM7 10.5C7 9.77515 7.58765 9.1875 8.3125 9.1875L18.8125 9.1875C19.5374 9.1875 20.125 9.77515 20.125 10.5C20.125 11.2249 19.5374 11.8125 18.8125 11.8125L8.3125 11.8125C7.58765 11.8125 7 11.2249 7 10.5ZM7 15.75C7 15.0251 7.58765 14.4375 8.3125 14.4375L18.8125 14.4375C19.5374 14.4375 20.125 15.0251 20.125 15.75C20.125 16.4749 19.5374 17.0625 18.8125 17.0625L8.3125 17.0625C7.58765 17.0625 7 16.4749 7 15.75ZM7 21C7 20.2751 7.58765 19.6875 8.3125 19.6875L18.8125 19.6875C19.5374 19.6875 20.125 20.2751 20.125 21C20.125 21.7249 19.5374 22.3125 18.8125 22.3125L8.3125 22.3125C7.58765 22.3125 7 21.7249 7 21ZM13.5625 28.4375C14.2874 28.4375 14.875 29.0251 14.875 29.75L14.875 33.6875L12.25 33.6875L12.25 29.75C12.25 29.0251 12.8376 28.4375 13.5625 28.4375Z" fill="#C6C6C6" fill-opacity="1.000000" fill-rule="evenodd"/>
	</symbol>

</svg>

