<svg width="10" height="8" viewBox="0 0 10 8" fill="none" xmlns="http://www.w3.org/2000/svg">
<path d="M7.88837 6.98011V1.25703H9.72236V6.98011H7.88837Z" stroke="black" stroke-width="0.555556"/>
<path d="M4.08283 6.32323V1.25703H5.91682V6.32323H4.08283Z" stroke="black" stroke-width="0.555556"/>
<path d="M4.07378 1.25507H5.91043C5.84123 2.74585 5.22648 4.16056 4.18159 5.21974C3.13785 6.27776 1.74521 6.89975 0.278632 6.97123V5.10514C1.26132 5.03624 2.18955 4.60973 2.88907 3.89998C3.58908 3.18975 4.00776 2.24907 4.07378 1.25507Z" fill="white" stroke="black" stroke-width="0.555556"/>
<path d="M7.87866 1.25507H9.71528C9.64592 2.7459 9.03103 4.16061 7.98604 5.21977C6.94219 6.27778 5.54948 6.89975 4.08283 6.97123V5.10519C5.06564 5.03645 5.99403 4.61 6.69369 3.90024C7.39385 3.18998 7.81263 2.2492 7.87866 1.25507Z" fill="white" stroke="black" stroke-width="0.555556"/>
</svg>
