<svg width="293" height="51" viewBox="0 0 293 51" fill="none" xmlns="http://www.w3.org/2000/svg">
<path d="M69.8003 29.4877C68.9507 30.1988 67.7219 30.5962 66.128 30.6799V31.6977H64.1127V30.6659C62.5048 30.5753 61.276 30.1779 60.4264 29.4668C59.5768 28.7557 59.1484 27.7867 59.1484 26.5597C59.1484 25.3327 59.5768 24.3567 60.4264 23.6525C61.276 22.9484 62.5048 22.551 64.1127 22.4534V21.4844H66.128V22.4395C67.7219 22.5301 68.9507 22.9345 69.8003 23.6456C70.6499 24.3636 71.0782 25.3327 71.0782 26.5597C71.0782 27.7867 70.6499 28.7836 69.8003 29.4947V29.4877ZM64.1127 28.9718V24.1475C63.1508 24.2381 62.4346 24.4752 61.9711 24.8656C61.5077 25.256 61.276 25.8137 61.276 26.5527C61.276 27.9679 62.2239 28.7766 64.1198 28.9718H64.1127ZM68.2625 28.2398C68.733 27.8424 68.9647 27.2777 68.9647 26.5388C68.9647 25.1096 68.0168 24.3079 66.1209 24.1475V28.9718C67.0759 28.8812 67.7921 28.6372 68.2555 28.2398H68.2625Z" fill="white"/>
<path d="M74.7083 30.8126C73.9218 30.3943 73.3039 29.8087 72.8546 29.0697C72.4052 28.3307 72.1875 27.5011 72.1875 26.5809C72.1875 25.6606 72.4122 24.831 72.8546 24.092C73.3039 23.353 73.9218 22.7744 74.7083 22.3561C75.4947 21.9378 76.3864 21.7217 77.3695 21.7217C78.3525 21.7217 79.2372 21.9308 80.0237 22.3561C80.8101 22.7744 81.428 23.353 81.8774 24.092C82.3268 24.831 82.5515 25.6606 82.5515 26.5809C82.5515 27.5011 82.3268 28.3307 81.8774 29.0697C81.428 29.8087 80.8101 30.3873 80.0237 30.8126C79.2372 31.2309 78.3525 31.447 77.3695 31.447C76.3864 31.447 75.5017 31.2379 74.7083 30.8126ZM78.8791 29.2091C79.3285 28.9512 79.6866 28.5956 79.9394 28.1425C80.1992 27.6824 80.3256 27.1665 80.3256 26.5878C80.3256 26.0092 80.1992 25.4863 79.9394 25.0262C79.6796 24.573 79.3285 24.2175 78.8791 23.9596C78.4297 23.7016 77.9242 23.5761 77.3625 23.5761C76.8007 23.5761 76.2952 23.7016 75.8458 23.9596C75.3964 24.2175 75.0383 24.573 74.7855 25.0262C74.5257 25.4863 74.3993 26.0022 74.3993 26.5878C74.3993 27.1734 74.5257 27.6893 74.7855 28.1425C75.0453 28.6026 75.3964 28.9582 75.8458 29.2091C76.2952 29.4601 76.8007 29.5926 77.3625 29.5926C77.9242 29.5926 78.4297 29.4671 78.8791 29.2091Z" fill="white"/>
<path d="M93.0627 21.8818V31.2865H90.872V27.4312H86.5677V31.2865H84.377V21.8818H86.5677V25.5907H90.872V21.8818H93.0627Z" fill="white"/>
<path d="M105.26 29.5087V33.2315H103.23V31.2865H96.5459V33.2315H94.5166L94.5306 29.5087H94.9098C95.4786 29.4878 95.8788 29.0765 96.1105 28.2748C96.3422 27.4661 96.4897 26.3157 96.5459 24.8238L96.6512 21.8818H103.926V29.5087H105.253H105.26ZM98.1959 27.8355C98.0485 28.5954 97.8308 29.1462 97.5359 29.5087H101.77V23.6526H98.526L98.4838 25.019C98.4417 26.1415 98.3434 27.0756 98.1959 27.8355Z" fill="white"/>
<path d="M117.119 22.2932C117.737 22.572 118.215 22.9624 118.545 23.4783C118.875 23.9872 119.043 24.5938 119.043 25.2909C119.043 25.9881 118.875 26.5807 118.545 27.0966C118.208 27.6125 117.737 28.0029 117.119 28.2817C116.501 28.5536 115.771 28.693 114.936 28.693H113.026V31.2865H110.835V21.8818H114.936C115.771 21.8818 116.501 22.0213 117.119 22.3001V22.2932ZM116.312 26.49C116.656 26.2112 116.824 25.8068 116.824 25.2909C116.824 24.775 116.656 24.3567 116.312 24.0779C115.968 23.792 115.469 23.6526 114.809 23.6526H113.026V26.9153H114.809C115.469 26.9153 115.968 26.7759 116.312 26.49Z" fill="white"/>
<path d="M126.563 29.2648H122.167L121.332 31.2796H119.085L123.305 21.875H125.468L129.702 31.2796H127.399L126.563 29.2648ZM125.875 27.6126L124.372 24.0153L122.87 27.6126H125.875Z" fill="white"/>
<path d="M137.769 27.2564C138.078 27.6537 138.233 28.1208 138.233 28.6437C138.233 29.2154 138.043 29.7103 137.664 30.1356C137.285 30.5539 136.772 30.8816 136.126 31.1047C135.48 31.3278 134.778 31.4393 134.013 31.4393C133.367 31.4393 132.714 31.3556 132.075 31.1953C131.429 31.0349 130.818 30.7909 130.242 30.4563L130.916 28.8947C131.331 29.1457 131.787 29.3339 132.285 29.4663C132.784 29.5988 133.276 29.6616 133.753 29.6616C134.399 29.6616 134.94 29.543 135.368 29.313C135.796 29.0829 136.014 28.7552 136.014 28.33C136.014 27.9814 135.867 27.7165 135.572 27.5352C135.277 27.354 134.876 27.2633 134.378 27.2633H132.068V25.625H134.216C134.659 25.625 135.003 25.5344 135.249 25.3531C135.494 25.1719 135.621 24.9279 135.621 24.6141C135.621 24.2447 135.445 23.9588 135.087 23.7566C134.729 23.5475 134.273 23.4499 133.718 23.4499C133.304 23.4499 132.875 23.5057 132.433 23.6172C131.991 23.7288 131.569 23.8961 131.176 24.1192L130.516 22.4251C131.513 21.9162 132.601 21.6582 133.76 21.6582C134.497 21.6582 135.178 21.7628 135.803 21.9789C136.428 22.195 136.92 22.5087 137.292 22.9201C137.664 23.3314 137.847 23.8124 137.847 24.3562C137.847 24.8024 137.727 25.1998 137.482 25.5483C137.236 25.8969 136.906 26.1688 136.477 26.357C137.025 26.5453 137.46 26.8381 137.769 27.2354V27.2564Z" fill="white"/>
<path d="M147.994 27.2084C148.303 27.5918 148.457 28.0659 148.457 28.6306C148.457 29.4602 148.141 30.1155 147.502 30.5756C146.863 31.0427 145.957 31.2728 144.778 31.2728H140.108V21.8682H144.518C145.62 21.8682 146.477 22.0773 147.088 22.5026C147.699 22.9209 148.008 23.5204 148.008 24.3012C148.008 24.7683 147.888 25.1727 147.657 25.5282C147.425 25.8838 147.095 26.1626 146.667 26.3648C147.242 26.5321 147.685 26.811 147.994 27.1944V27.2084ZM142.285 25.7722H144.328C144.806 25.7722 145.164 25.6746 145.41 25.4864C145.656 25.2912 145.775 25.0123 145.775 24.6359C145.775 24.2594 145.648 23.9875 145.403 23.7923C145.157 23.5971 144.799 23.4995 144.328 23.4995H142.285V25.7792V25.7722ZM146.238 28.4563C146.238 27.6755 145.726 27.2851 144.694 27.2851H142.285V29.6624H144.694C145.719 29.6624 146.238 29.258 146.238 28.4563Z" fill="white"/>
<path d="M150.317 21.8818H152.494V28.0098L157.009 21.8818H159.066V31.2865H156.904V25.1724L152.389 31.2865H150.317V21.8818Z" fill="white"/>
<path d="M168.798 23.6526H165.765V31.2795H163.602V23.6526H160.583V21.8818H168.791V23.6526H168.798Z" fill="white"/>
<path d="M170.309 21.8818H172.485V28.0098L177 21.8818H179.058V31.2865H176.895V25.1724L172.38 31.2865H170.309V21.8818Z" fill="white"/>
<path d="M189.112 21.8818V31.2865H186.95V28.7906H184.949L183.27 31.2865H180.96L182.933 28.456C182.294 28.1981 181.803 27.8077 181.459 27.2778C181.115 26.755 180.946 26.1275 180.946 25.3885C180.946 24.6495 181.115 24.036 181.445 23.5132C181.775 22.9903 182.252 22.586 182.863 22.3071C183.474 22.0213 184.197 21.8818 185.026 21.8818H189.112ZM183.657 24.0848C183.327 24.3707 183.165 24.7959 183.165 25.3606C183.165 25.9253 183.32 26.3297 183.636 26.6225C183.952 26.9153 184.415 27.0687 185.026 27.0687H186.95V23.6596H185.082C184.457 23.6596 183.987 23.806 183.657 24.0918V24.0848Z" fill="white"/>
<path d="M194.727 21.9922H196.903V28.1202L201.418 21.9922H203.476V31.3968H201.313V25.2828L196.798 31.3968H194.727V21.9922Z" fill="white"/>
<path d="M214.654 21.9922V31.3968H212.463V27.5415H208.159V31.3968H205.968V21.9922H208.159V25.7011H212.463V21.9922H214.654Z" fill="white"/>
<path d="M225.839 21.9922V31.3968H223.648V27.5415H219.344V31.3968H217.153V21.9922H219.344V25.7011H223.648V21.9922H225.839Z" fill="white"/>
<path d="M230.199 30.922C229.413 30.5037 228.795 29.9181 228.346 29.1791C227.896 28.4401 227.679 27.6105 227.679 26.6902C227.679 25.77 227.903 24.9404 228.346 24.2014C228.795 23.4624 229.413 22.8838 230.199 22.4655C230.986 22.0472 231.878 21.8311 232.861 21.8311C233.844 21.8311 234.728 22.0402 235.515 22.4655C236.301 22.8907 236.919 23.4624 237.369 24.2014C237.818 24.9404 238.043 25.77 238.043 26.6902C238.043 27.6105 237.818 28.4401 237.369 29.1791C236.919 29.9181 236.301 30.4967 235.515 30.922C234.728 31.3472 233.844 31.5564 232.861 31.5564C231.878 31.5564 230.993 31.3472 230.199 30.922ZM234.37 29.3185C234.82 29.0606 235.178 28.705 235.431 28.2519C235.69 27.7917 235.817 27.2758 235.817 26.6972C235.817 26.1186 235.69 25.5957 235.431 25.1356C235.171 24.6824 234.82 24.3269 234.37 24.0689C233.921 23.811 233.415 23.6855 232.854 23.6855C232.292 23.6855 231.786 23.811 231.337 24.0689C230.888 24.3269 230.529 24.6824 230.277 25.1356C230.017 25.5957 229.891 26.1116 229.891 26.6972C229.891 27.2828 230.017 27.7987 230.277 28.2519C230.537 28.712 230.888 29.0675 231.337 29.3185C231.786 29.5765 232.292 29.7019 232.854 29.7019C233.415 29.7019 233.914 29.5765 234.37 29.3185Z" fill="white"/>
<path d="M247.754 27.3246C248.063 27.708 248.21 28.1821 248.21 28.7468C248.21 29.5764 247.894 30.2317 247.255 30.6919C246.616 31.1589 245.71 31.389 244.531 31.389H239.861V21.9844H244.271C245.373 21.9844 246.23 22.1935 246.841 22.6188C247.452 23.0371 247.761 23.6366 247.761 24.4174C247.761 24.8845 247.641 25.2889 247.41 25.6444C247.178 26 246.848 26.2789 246.42 26.481C246.995 26.6483 247.438 26.9272 247.747 27.3106L247.754 27.3246ZM242.045 25.8884H244.088C244.566 25.8884 244.924 25.7908 245.17 25.6026C245.415 25.4074 245.535 25.1285 245.535 24.7521C245.535 24.3756 245.408 24.1037 245.163 23.9085C244.917 23.7133 244.559 23.6157 244.088 23.6157H242.045V25.8954V25.8884ZM245.991 28.5725C245.991 27.7917 245.479 27.4013 244.446 27.4013H242.038V29.7786H244.446C245.472 29.7786 245.991 29.3742 245.991 28.5725Z" fill="white"/>
<path d="M256.489 29.382H252.093L251.258 31.3968H249.011L253.231 21.9922H255.393L259.627 31.3968H257.324L256.489 29.382ZM255.801 27.7298L254.298 24.1325L252.795 27.7298H255.801Z" fill="white"/>
<path d="M270.954 29.626V33.3837H268.939V31.3968H261.025V21.9922H263.202V29.6191H267.422V21.9922H269.599V29.6191H270.954V29.626Z" fill="white"/>
<path d="M272.533 21.9922H274.71V28.1202L279.225 21.9922H281.282V31.3968H279.12V25.2828L274.605 31.3968H272.533V21.9922Z" fill="white"/>
<path d="M283.421 21.9922H285.598V28.1202L290.113 21.9922H292.17V31.3968H290.007V25.2828L285.492 31.3968H283.421V21.9922Z" fill="white"/>
<path d="M285.523 19.5859H287.026C287.047 20.2413 287.419 20.5689 288.15 20.5689C288.508 20.5689 288.789 20.4853 288.978 20.318C289.168 20.1506 289.266 19.9066 289.273 19.5859H290.776C290.769 20.2552 290.544 20.7711 290.116 21.1197C289.68 21.4683 289.027 21.6425 288.157 21.6425C286.422 21.6425 285.552 20.9593 285.53 19.5859H285.523Z" fill="white"/>
<path d="M66.1496 38.1281C66.7675 38.407 67.245 38.7974 67.575 39.3133C67.912 39.8222 68.0735 40.4287 68.0735 41.1259C68.0735 41.823 67.905 42.4156 67.575 42.9315C67.238 43.4474 66.7675 43.8378 66.1496 44.1167C65.5317 44.3886 64.8014 44.528 63.9659 44.528H62.056V47.1214H59.8652V37.7168H63.9659C64.8014 37.7168 65.5317 37.8562 66.1496 38.1351V38.1281ZM65.3421 42.325C65.6862 42.0461 65.8547 41.6418 65.8547 41.1259C65.8547 40.61 65.6862 40.1917 65.3421 39.9128C64.9981 39.627 64.4995 39.4876 63.8395 39.4876H62.056V42.7503H63.8395C64.4995 42.7503 64.9981 42.6108 65.3421 42.325Z" fill="white"/>
<path d="M76.9908 45.3649V47.1078H69.6602V37.7031H76.8152V39.446H71.8369V41.4887H76.2324V43.1828H71.8369V45.3579H76.9908V45.3649Z" fill="white"/>
<path d="M80.7333 46.6477C79.9539 46.2294 79.343 45.6577 78.8936 44.9187C78.4442 44.1798 78.2266 43.3432 78.2266 42.416C78.2266 41.4887 78.4513 40.6521 78.8936 39.9132C79.343 39.1742 79.9539 38.5955 80.7333 38.1772C81.5127 37.759 82.3904 37.5498 83.3664 37.5498C84.1879 37.5498 84.9322 37.6962 85.5923 37.982C86.2523 38.2679 86.814 38.6792 87.2634 39.216L85.8591 40.5057C85.2201 39.7737 84.4267 39.4042 83.4788 39.4042C82.896 39.4042 82.3693 39.5297 81.9129 39.7877C81.4565 40.0456 81.0914 40.4012 80.8386 40.8543C80.5788 41.3144 80.4524 41.8303 80.4524 42.416C80.4524 43.0016 80.5788 43.5175 80.8386 43.9706C81.0984 44.4307 81.4565 44.7863 81.9129 45.0373C82.3693 45.2882 82.896 45.4207 83.4788 45.4207C84.4267 45.4207 85.2201 45.0512 85.8591 44.3052L87.2634 45.595C86.814 46.1388 86.2523 46.5571 85.5853 46.8429C84.9182 47.1287 84.1739 47.2751 83.3524 47.2751C82.3904 47.2751 81.5127 47.066 80.7333 46.6477Z" fill="white"/>
<path d="M97.4587 37.71V47.1146H95.282V39.4877H91.0058V47.1146H88.8291V37.71H97.4587Z" fill="white"/>
<path d="M108.497 37.71L104.467 45.1486C104.08 45.8667 103.61 46.4035 103.069 46.773C102.522 47.1425 101.932 47.3237 101.293 47.3237C100.794 47.3237 100.282 47.2192 99.7481 47.003L100.275 45.3508C100.654 45.4693 100.97 45.5251 101.223 45.5251C101.489 45.5251 101.735 45.4623 101.953 45.3299C102.171 45.1974 102.367 44.9952 102.55 44.7164L102.634 44.6118L98.8984 37.71H101.237L103.75 42.7574L106.348 37.71H108.497Z" fill="white"/>
<path d="M109.67 37.71H117.31V39.4459H111.847V41.377H114.473C115.617 41.377 116.488 41.614 117.092 42.0881C117.689 42.5622 117.991 43.2454 117.991 44.1447C117.991 45.0859 117.654 45.8179 116.987 46.3338C116.32 46.8566 115.379 47.1146 114.157 47.1146H109.663V37.71H109.67ZM114.038 45.4972C114.599 45.4972 115.028 45.3856 115.323 45.1695C115.617 44.9534 115.772 44.6327 115.772 44.2075C115.772 43.3848 115.196 42.9735 114.038 42.9735H111.847V45.4972H114.038Z" fill="white"/>
<path d="M128.003 37.71V47.1146H125.84V39.4877H122.596L122.526 41.4467C122.484 42.7783 122.372 43.8589 122.203 44.6885C122.035 45.5181 121.747 46.1525 121.347 46.5987C120.946 47.0449 120.385 47.261 119.661 47.261C119.367 47.261 119.001 47.2122 118.58 47.1146L118.713 45.2741C118.833 45.309 118.959 45.3299 119.107 45.3299C119.626 45.3299 119.991 45.0231 120.202 44.4096C120.406 43.7961 120.539 42.8341 120.595 41.5304L120.729 37.7169H128.003V37.71Z" fill="white"/>
<path d="M130.503 37.71H132.68V43.838L137.195 37.71H139.252V47.1146H137.089V41.0005L132.574 47.1146H130.503V37.71Z" fill="white"/>
<path d="M145.41 43.3222H143.894V47.1078H141.717V37.7031H143.894V41.5026H145.459L147.945 37.7031H150.255L147.159 42.2416L150.353 47.1008H147.868L145.403 43.3152L145.41 43.3222Z" fill="white"/>
<path d="M151.525 37.71H153.702V43.838L158.217 37.71H160.274V47.1146H158.112V41.0005L153.597 47.1146H151.525V37.71Z" fill="white"/>
<path d="M168.042 46.6477C167.262 46.2294 166.652 45.6577 166.202 44.9187C165.753 44.1798 165.535 43.3432 165.535 42.4159C165.535 41.4887 165.76 40.6521 166.202 39.9132C166.652 39.1742 167.262 38.5955 168.042 38.1772C168.821 37.759 169.699 37.5498 170.675 37.5498C171.497 37.5498 172.241 37.6962 172.901 37.982C173.561 38.2679 174.123 38.6792 174.572 39.216L173.168 40.5057C172.529 39.7737 171.735 39.4042 170.787 39.4042C170.198 39.4042 169.678 39.5297 169.222 39.7877C168.765 40.0456 168.4 40.4012 168.147 40.8543C167.887 41.3144 167.761 41.8303 167.761 42.4159C167.761 43.0016 167.887 43.5175 168.147 43.9706C168.407 44.4307 168.765 44.7793 169.222 45.0373C169.678 45.2952 170.205 45.4207 170.787 45.4207C171.735 45.4207 172.529 45.0512 173.168 44.3052L174.572 45.595C174.123 46.1388 173.561 46.5571 172.894 46.8429C172.227 47.1287 171.482 47.2751 170.661 47.2751C169.699 47.2751 168.821 47.066 168.042 46.6477Z" fill="white"/>
<path d="M182.359 45.093H177.963L177.128 47.1078H174.881L179.101 37.7031H181.264L185.498 47.1078H183.194L182.359 45.093ZM181.671 43.4407L180.168 39.8434L178.666 43.4407H181.671Z" fill="white"/>
<path d="M188.11 37.7101L190.069 40.5545L192.028 37.7101H194.598L191.445 42.2068L194.851 47.1078H192.267L190.062 43.9915L187.885 47.1078H185.357L188.742 42.2974L185.575 37.7031H188.103L188.11 37.7101Z" fill="white"/>
<path d="M202.23 45.093H197.834L196.999 47.1078H194.752L198.972 37.7031H201.135L205.369 47.1078H203.066L202.23 45.093ZM201.542 43.4407L200.039 39.8434L198.537 43.4407H201.542Z" fill="white"/>
<path d="M223.52 37.71V47.1146H221.357V44.6188H219.356L217.678 47.1146H215.368L217.341 44.2841C216.702 44.0262 216.21 43.6358 215.866 43.1059C215.522 42.5831 215.354 41.9556 215.354 41.2167C215.354 40.4777 215.522 39.8642 215.852 39.3413C216.182 38.8184 216.66 38.4141 217.27 38.1352C217.881 37.8494 218.605 37.71 219.433 37.71H223.52ZM218.064 39.913C217.734 40.1988 217.572 40.6241 217.572 41.1888C217.572 41.7535 217.727 42.1578 218.043 42.4506C218.359 42.7434 218.822 42.8968 219.433 42.8968H221.357V39.4877H219.489C218.864 39.4877 218.394 39.6341 218.064 39.9199V39.913Z" fill="white"/>
<path d="M229.692 43.3222H228.176V47.1078H225.999V37.7031H228.176V41.5026H229.742L232.227 37.7031H234.537L231.441 42.2416L234.636 47.1008H232.15L229.685 43.3152L229.692 43.3222Z" fill="white"/>
<path d="M244.515 37.71L240.484 45.1486C240.098 45.8667 239.628 46.4035 239.087 46.773C238.539 47.1425 237.949 47.3237 237.31 47.3237C236.812 47.3237 236.299 47.2192 235.766 47.003L236.292 45.3508C236.671 45.4693 236.987 45.5251 237.24 45.5251C237.507 45.5251 237.753 45.4623 237.97 45.3299C238.188 45.1974 238.385 44.9952 238.567 44.7164L238.652 44.6118L234.916 37.71H237.254L239.768 42.7574L242.366 37.71H244.515Z" fill="white"/>
<path d="M252.955 39.4807H249.921V47.1076H247.759V39.4807H244.739V37.71H252.948V39.4807H252.955Z" fill="white"/>
<path d="M254.472 37.71H256.648V43.838L261.163 37.71H263.221V47.1146H261.058V41.0005L256.543 47.1146H254.472V37.71Z" fill="white"/>
<path d="M273.276 37.71V47.1146H271.113V44.6188H269.112L267.434 47.1146H265.123L267.097 44.2841C266.458 44.0262 265.966 43.6358 265.622 43.1059C265.278 42.5831 265.109 41.9556 265.109 41.2167C265.109 40.4777 265.278 39.8642 265.608 39.3413C265.945 38.8184 266.415 38.4141 267.026 38.1352C267.637 37.8494 268.36 37.71 269.189 37.71H273.276ZM267.82 39.913C267.49 40.1988 267.328 40.6241 267.328 41.1888C267.328 41.7535 267.483 42.1578 267.799 42.4506C268.115 42.7434 268.578 42.8968 269.189 42.8968H271.113V39.4877H269.245C268.62 39.4877 268.15 39.6341 267.82 39.9199V39.913Z" fill="white"/>
<path d="M211.112 46.166C210.817 45.0924 210.67 43.9421 210.67 42.7151C210.67 41.4881 210.817 40.3378 211.112 39.2572C211.407 38.1766 211.821 37.2355 212.362 36.4268H214.377C213.809 37.4237 213.394 38.4276 213.135 39.4524C212.875 40.4772 212.741 41.5648 212.741 42.7081C212.741 43.8515 212.875 44.939 213.135 45.9638C213.394 46.9887 213.809 47.9995 214.377 48.9895H212.362C211.821 48.1738 211.407 47.2327 211.112 46.159V46.166Z" fill="white"/>
<path d="M274.869 49.0032C275.438 48.0132 275.852 47.0023 276.119 45.9775C276.386 44.9527 276.519 43.8651 276.519 42.7218C276.519 41.5785 276.386 40.4909 276.119 39.4661C275.852 38.4413 275.438 37.4304 274.869 36.4404H276.884C277.432 37.2352 277.853 38.1763 278.148 39.2569C278.443 40.3375 278.591 41.4948 278.591 42.7288C278.591 43.9627 278.443 45.12 278.155 46.1867C277.867 47.2533 277.446 48.2014 276.884 49.0101H274.869V49.0032Z" fill="white"/>
<path d="M25.6767 50.493L11.7598 36.6754L23.0155 25.5L11.7598 14.3246L25.6767 0.5L50.8563 25.5L25.6767 50.5V50.493ZM19.7153 36.6754L25.6767 42.5943L42.8937 25.5L25.6767 8.40574L19.7153 14.3246L30.971 25.5L19.7153 36.6754Z" fill="white"/>
<path d="M15.734 40.6286L0.49707 25.5003L15.734 10.3721L30.971 25.5003L15.734 40.6286ZM8.45962 25.5003L15.734 32.7299L23.0085 25.5003L15.734 18.2778L8.45962 25.5003Z" fill="white"/>
</svg>
