<svg width="710" height="216" viewBox="0 0 710 216" fill="none" xmlns="http://www.w3.org/2000/svg">
<g opacity="0.3" filter="url(#filter0_d_1901_102273)">
<path d="M39 581.459V276.185C166.994 276.047 289.699 224.657 380.157 133.307C470.614 41.9575 521.424 -81.8809 521.424 -211L824.383 -211C824.201 -0.913544 741.402 200.518 594.159 349.088C446.915 497.658 247.256 581.228 39 581.459Z" fill="#3E4253"/>
</g>
<g opacity="0.3" filter="url(#filter1_d_1901_102273)">
<path d="M110.007 596.599V291.326C238.001 291.187 360.706 239.798 451.163 148.448C541.621 57.0982 592.431 -66.7402 592.431 -195.859L895.39 -195.859C895.207 14.2271 812.409 215.659 665.165 364.229C517.922 512.799 318.263 596.369 110.007 596.599Z" fill="#494D60"/>
</g>
<g opacity="0.3" filter="url(#filter2_d_1901_102273)">
<path d="M157.768 646.129V318.368C295.275 318.22 427.1 263.045 524.28 164.966C621.461 66.8874 676.047 -66.073 676.047 -204.703L1001.52 -204.703C1001.33 20.8584 912.375 237.128 754.188 396.641C596.001 556.155 381.502 645.881 157.768 646.129Z" fill="#53576C"/>
</g>
<defs>
<filter id="filter0_d_1901_102273" x="0.948772" y="-245.592" width="861.485" height="868.561" filterUnits="userSpaceOnUse" color-interpolation-filters="sRGB">
<feFlood flood-opacity="0" result="BackgroundImageFix"/>
<feColorMatrix in="SourceAlpha" type="matrix" values="0 0 0 0 0 0 0 0 0 0 0 0 0 0 0 0 0 0 127 0" result="hardAlpha"/>
<feOffset dy="3.4592"/>
<feGaussianBlur stdDeviation="19.0256"/>
<feColorMatrix type="matrix" values="0 0 0 0 0 0 0 0 0 0 0 0 0 0 0 0 0 0 0.1 0"/>
<feBlend mode="normal" in2="BackgroundImageFix" result="effect1_dropShadow_1901_102273"/>
<feBlend mode="normal" in="SourceGraphic" in2="effect1_dropShadow_1901_102273" result="shape"/>
</filter>
<filter id="filter1_d_1901_102273" x="71.9556" y="-230.451" width="861.486" height="868.561" filterUnits="userSpaceOnUse" color-interpolation-filters="sRGB">
<feFlood flood-opacity="0" result="BackgroundImageFix"/>
<feColorMatrix in="SourceAlpha" type="matrix" values="0 0 0 0 0 0 0 0 0 0 0 0 0 0 0 0 0 0 127 0" result="hardAlpha"/>
<feOffset dy="3.4592"/>
<feGaussianBlur stdDeviation="19.0256"/>
<feColorMatrix type="matrix" values="0 0 0 0 0 0 0 0 0 0 0 0 0 0 0 0 0 0 0.1 0"/>
<feBlend mode="normal" in2="BackgroundImageFix" result="effect1_dropShadow_1901_102273"/>
<feBlend mode="normal" in="SourceGraphic" in2="effect1_dropShadow_1901_102273" result="shape"/>
</filter>
<filter id="filter2_d_1901_102273" x="119.716" y="-239.295" width="919.858" height="926.934" filterUnits="userSpaceOnUse" color-interpolation-filters="sRGB">
<feFlood flood-opacity="0" result="BackgroundImageFix"/>
<feColorMatrix in="SourceAlpha" type="matrix" values="0 0 0 0 0 0 0 0 0 0 0 0 0 0 0 0 0 0 127 0" result="hardAlpha"/>
<feOffset dy="3.4592"/>
<feGaussianBlur stdDeviation="19.0256"/>
<feColorMatrix type="matrix" values="0 0 0 0 0 0 0 0 0 0 0 0 0 0 0 0 0 0 0.25 0"/>
<feBlend mode="normal" in2="BackgroundImageFix" result="effect1_dropShadow_1901_102273"/>
<feBlend mode="normal" in="SourceGraphic" in2="effect1_dropShadow_1901_102273" result="shape"/>
</filter>
</defs>
</svg>
