<svg width="1013" height="140" viewBox="0 0 1013 140" fill="none" xmlns="http://www.w3.org/2000/svg">
<path d="M0 637.475V284.476C148.004 284.316 289.893 224.893 394.492 119.262C499.09 13.6306 557.844 -129.568 557.844 -278.873L908.167 -278.873C907.956 -35.9428 812.213 196.98 641.95 368.777C471.687 540.573 240.814 637.209 0 637.475Z" fill="#F8F8F8"/>
<path d="M394.847 119.614C499.422 14.0062 558.213 -129.117 558.344 -278.373H907.666C907.324 -35.7544 811.647 196.84 641.595 368.425C471.543 540.008 241 636.575 0.5 636.974V284.976C148.458 284.682 290.272 225.22 394.847 119.614Z" stroke="#646262" stroke-opacity="0.3"/>
<path d="M82.1079 654.983V301.984C230.112 301.824 372.001 242.401 476.599 136.769C581.198 31.1383 639.952 -112.061 639.952 -261.366L990.275 -261.366C990.063 -18.4351 894.32 214.487 724.058 386.284C553.795 558.081 322.922 654.716 82.1079 654.983Z" fill="#F8F8F8"/>
<path d="M476.955 137.121C581.53 31.5139 640.321 -111.61 640.452 -260.866H989.774C989.432 -18.2467 893.755 214.348 723.702 385.932C553.651 557.516 323.108 654.083 82.6079 654.482V302.483C230.566 302.19 372.38 242.728 476.955 137.121Z" stroke="#646262" stroke-opacity="0.3"/>
<path d="M137.335 712.255V333.254C296.339 333.082 448.773 269.281 561.147 155.869C673.52 42.4571 736.64 -111.29 736.64 -271.593L1113 -271.593C1112.77 -10.7679 1009.91 239.312 826.997 423.763C644.079 608.215 396.047 711.969 137.335 712.255Z" fill="#F8F8F8"/>
<path d="M561.502 156.221C673.851 42.8329 737.009 -110.839 737.14 -271.093H1112.5C1112.14 -10.5796 1009.35 239.172 826.642 423.411C643.936 607.65 396.233 711.335 137.835 711.754V333.753C296.793 333.448 449.153 269.609 561.502 156.221Z" stroke="#646262" stroke-opacity="0.3"/>
</svg>
