<svg width="768" height="388" viewBox="0 0 768 388" fill="none" xmlns="http://www.w3.org/2000/svg">
<g clip-path="url(#clip0_3249_13852)">
<path d="M759.719 477.289C743.113 458.175 734.78 443.329 725.928 417.379C725.863 417.188 725.748 417.01 725.602 416.87C707.463 399.47 703.844 389.209 694.714 367.137C682.103 342.483 674.999 328.729 659.832 319.905C659.753 319.859 659.678 319.803 659.61 319.742C644.549 305.877 636.073 290.921 620.942 254.959C620.864 254.772 620.736 254.6 620.579 254.471C593.569 232.142 582.008 220.242 575.298 201.843C575.274 201.778 575.245 201.715 575.211 201.655C563.869 181.528 553.272 157.047 540.815 152.666C540.596 152.588 540.405 152.466 540.258 152.286C534.017 144.623 526.697 121.91 524.835 119.502C522.264 116.178 494.665 97.0139 486.291 78.3099C486.246 78.2083 486.189 78.111 486.124 78.0255L466.65 52.2954C466.247 51.7626 465.572 51.6744 465.081 52.0903L420.797 89.6173C420.707 89.6932 420.628 89.7823 420.559 89.8848C415.164 97.9755 410.091 110.336 403.161 116.525C392.091 126.411 366.26 158.05 355.67 168.654L334.398 189.874" stroke="url(#paint0_linear_3249_13852)" stroke-width="1.06667" stroke-linejoin="round"/>
<path d="M465.734 52.7012C493.601 105.828 472.982 138.252 490.05 159.324C490.118 159.409 490.203 159.488 490.292 159.552C540.471 195.703 529.074 238.727 554.376 252.123C585.896 267.997 575.921 270.516 601.072 283.241C601.159 283.285 601.247 283.342 601.322 283.406C624.349 302.99 631.886 339.561 655.297 415.209" stroke="url(#paint1_linear_3249_13852)" stroke-width="1.06667" stroke-linejoin="round"/>
<path d="M420.796 89.6176L465.081 52.0905C492.945 105.211 472.993 138.245 490.05 159.317C490.123 159.407 490.212 159.49 490.306 159.558C540.476 195.707 529.082 238.728 554.382 252.123C585.899 267.995 575.929 270.516 601.07 283.237C601.163 283.284 601.255 283.344 601.334 283.411C624.356 302.997 631.895 339.568 655.303 415.209L669.854 487.281C670.071 488.359 668.88 489.164 667.95 488.577C620.029 458.367 595.462 434.409 557.989 379.217C557.946 379.152 557.895 379.091 557.841 379.036L467.5 287.502C454.976 276.767 412.959 262.458 378.953 228.5C378.896 228.443 378.832 228.39 378.765 228.345C363.619 218.105 351.162 212.469 342.459 199.786C340.871 197.461 337.678 193.04 335.586 190.904C335.022 190.327 334.944 189.33 335.515 188.76L355.67 168.654C366.26 158.05 392.091 126.411 403.16 116.526C410.09 110.336 415.164 97.9758 420.559 89.885C420.627 89.7826 420.707 89.6935 420.796 89.6176Z" fill="url(#paint2_radial_3249_13852)"/>
<path d="M767.773 345.237C719.301 319.46 738.733 305.649 710.803 285.562C710.458 285.313 709.981 285.261 709.593 285.437C678.306 299.559 664.552 312.025 645.346 339.595C630.339 360.423 594.005 360.188 588.928 365.265C548.384 397.081 494.914 406.134 488.539 419.07C488.514 419.122 488.487 419.17 488.455 419.217C473.421 441.725 462.216 448.262 435.188 445.379M710.447 285.429C700.124 305.255 700.633 318.439 700.633 348.622C700.633 363.839 681.491 360.196 654.737 422.334C654.682 422.46 654.604 422.582 654.511 422.683L633.283 445.586C633.237 445.636 633.194 445.691 633.157 445.748L625.315 457.792C623.434 460.236 619.504 465.239 618.827 465.69C618.16 466.135 614.151 469.172 612.145 470.7C612.085 470.746 612.022 470.785 611.955 470.818L609.235 472.178" stroke="url(#paint3_linear_3249_13852)" stroke-width="0.970317" stroke-linejoin="round"/>
<path d="M249.289 179.403C212.654 156.949 226.835 154.29 210.29 144.835C182.591 130.102 178.201 124.748 169.293 108.036C169.247 107.95 169.19 107.868 169.125 107.796L148.368 84.7636C147.962 84.3131 147.282 84.2385 146.788 84.5902L99.6333 118.148C99.5431 118.212 99.4631 118.288 99.3942 118.374C93.6543 125.601 88.2573 136.646 80.8843 142.176C69.1114 151.006 57.8754 160.773 46.6124 170.244C36.3359 181.107 18.6108 196.111 12.0451 209.243C11.5724 210.188 1.60598 217.909 -3.31813 221.651C-6.56805 223.621 -13.2452 227.679 -13.9542 228.151C-14.6633 228.624 -17.5981 229.333 -18.9768 229.629" stroke="url(#paint4_linear_3249_13852)" stroke-width="1.01626" stroke-linejoin="round"/>
<path d="M99.6363 118.148L146.031 85.1311C146.767 84.6075 147.794 85.0688 147.887 85.9672C150.682 113.152 138.47 124.627 124.95 144.244C104.298 171.039 132.986 161.152 125.032 184.482C124.981 184.633 124.895 184.785 124.791 184.905C101.414 212.03 88.8518 227.507 68.5396 255.838C68.4995 255.894 68.4492 255.953 68.4012 256.002C60.6711 263.919 85.4705 267.563 52.595 304.593C52.5499 304.644 52.5036 304.705 52.4672 304.763C38.156 327.343 46.6029 315.935 37.1612 342.489L27.116 369.966C25.2327 374.156 20.9589 382.986 18.9309 384.789C16.4489 386.995 -16.275 414.853 -21.0788 422.626C-21.2662 422.929 -21.5497 423.139 -21.8982 423.214L-32.8189 425.545C-33.4849 425.687 -34.1357 425.243 -34.2396 424.57C-36.3099 411.158 -34.9034 402.907 -26.4569 387.869C-26.3923 387.754 -26.343 387.621 -26.3181 387.492C-22.7696 369.037 -48.3786 366.08 -14.5633 271.671C-14.5429 271.614 -14.5157 271.552 -14.4873 271.499C-2.46663 248.806 -16.1339 245.067 -18.7947 230.73C-18.909 230.114 -18.4996 229.528 -17.8903 229.383C-16.422 229.035 -14.5059 228.521 -13.9513 228.151C-13.2422 227.679 -6.56509 223.621 -3.31519 221.651C1.60893 217.909 11.5754 210.188 12.0481 209.243C18.6137 196.111 36.3389 181.107 46.6154 170.244C57.8784 160.773 69.1143 151.006 80.8872 142.176C88.2603 136.646 93.6573 125.601 99.3972 118.374C99.466 118.288 99.5461 118.212 99.6363 118.148Z" fill="url(#paint5_radial_3249_13852)"/>
<path d="M146.811 85.4507C150.423 114.081 138.794 124.154 124.948 144.245C104.292 171.044 132.995 161.149 125.026 184.495C124.977 184.637 124.896 184.782 124.798 184.895C101.414 212.028 88.8511 227.506 68.5345 255.843C68.4966 255.896 68.4489 255.951 68.4034 255.998C60.6603 263.918 85.4764 267.557 52.5895 304.597C52.5467 304.645 52.5029 304.704 52.4684 304.758C38.153 327.345 46.6018 315.933 37.1594 342.49L27.1142 369.966" stroke="url(#paint6_linear_3249_13852)" stroke-width="1.01626" stroke-linejoin="round"/>
<path d="M670.289 490.077C620.723 459.12 595.961 435.295 557.845 379.155C557.804 379.094 557.756 379.036 557.705 378.984L467.359 287.445C454.835 276.711 412.814 262.4 378.808 228.439C378.754 228.384 378.694 228.335 378.63 228.292C363.481 218.05 351.023 212.414 342.318 199.73C333.241 186.501 325.781 180.058 317.25 175.237L289.768 160.326C289.412 160.133 288.977 160.135 288.62 160.326C265.586 172.688 256.629 183.877 240.046 202.889C239.988 202.956 239.921 203.018 239.849 203.07C205.914 228.03 188.1 243.921 159.801 276.266C159.723 276.356 159.63 276.435 159.528 276.498C118.706 301.827 74.6011 329.639 33.2082 373.329C33.1684 373.371 33.1245 373.411 33.0791 373.447C-8.41978 406.249 -28.2166 428.524 -62.9452 468.889" stroke="url(#paint7_linear_3249_13852)" stroke-width="1.02651" stroke-linejoin="round"/>
<path d="M159.809 276.265C187.342 244.786 198.128 233.956 229.99 210.378C230.903 209.703 232.221 210.57 232.084 211.696C230.521 224.612 241.574 229.353 252.146 236.444C252.547 236.713 252.758 237.202 252.679 237.678C248.211 264.808 211.545 267.224 204.156 305.649C199.679 322.958 160.968 337.005 154.658 359.113C151.732 371.709 147.635 397.802 154.658 401.407C143.854 396.557 120.594 387.111 113.44 387.87C113.342 387.881 113.258 387.903 113.166 387.94C108.766 389.68 98.3498 394.716 90.7664 401.407C83.105 408.167 72.9274 417.18 68.7962 420.842L30.7256 451.355C30.5704 451.479 30.3869 451.563 30.1914 451.599L-59.5687 468.263C-60.6885 468.471 -61.4366 467.143 -60.6934 466.28C-27.3386 427.55 -7.51053 405.535 33.0858 373.446C33.1311 373.41 33.1751 373.37 33.2149 373.328C74.6078 329.638 118.713 301.826 159.535 276.498C159.637 276.435 159.73 276.355 159.809 276.265Z" fill="url(#paint8_radial_3249_13852)"/>
<path d="M371.867 285.952C336.986 267.468 348.567 254.643 325.977 232.005C325.934 231.961 325.882 231.917 325.832 231.88C299.374 212.486 312.013 185.06 289.056 160.017" stroke="url(#paint9_linear_3249_13852)" stroke-width="1.02651" stroke-linejoin="round"/>
<path d="M232.799 209.556C228.705 225.345 241.164 228.911 252.794 236.887M408.883 361.399C369.454 357.841 349.156 310.459 337.187 309.833C337.027 309.825 336.87 309.793 336.722 309.731C293.619 291.59 276.95 282.325 268.013 255.812C264.908 246.601 258.968 241.122 252.794 236.887M252.794 236.887C248.914 264.765 211.611 266.854 204.15 305.649C199.674 322.958 160.963 337.005 154.653 359.113" stroke="url(#paint10_linear_3249_13852)" stroke-width="1.02651" stroke-linejoin="round"/>
<path d="M465.094 285.641C453.687 300.688 465.094 319.282 449.217 339.106C427.967 360.414 430.451 373.927 390.12 382.938C390.052 382.953 389.977 382.963 389.907 382.967C359.695 384.41 360.5 408.508 319.51 422.008C287.321 433.226 296.142 430.087 262.292 453.515" stroke="url(#paint11_linear_3249_13852)" stroke-width="1.02651" stroke-linejoin="round"/>
<path d="M263.828 479.619C213.199 452.518 173.891 397.951 113.79 387.766C113.551 387.725 113.3 387.76 113.08 387.862C97.4631 395.122 89.5844 400.598 77.6099 413.07C64.5027 427.572 37.3222 433.064 28.3694 438.138L-5.35277 461.117C-16.3988 471.13 -23.5526 475.136 -35.7923 479.022" stroke="url(#paint12_linear_3249_13852)" stroke-width="1.02651" stroke-linejoin="round"/>
<mask id="mask0_3249_13852" style="mask-type:alpha" maskUnits="userSpaceOnUse" x="334" y="52" width="337" height="437">
<path d="M421.222 89.3835L464.313 52.8678C464.925 52.349 465.871 52.5518 466.237 53.266C493.019 105.562 473.571 138.198 490.476 159.083C490.549 159.173 490.639 159.257 490.732 159.324C540.902 195.474 529.508 238.494 554.809 251.889C586.326 267.762 576.355 270.282 601.497 283.003C601.589 283.05 601.682 283.11 601.761 283.177C624.783 302.763 632.321 339.334 655.73 414.976L670.163 487.103C670.37 488.14 669.224 488.913 668.329 488.349C620.343 458.11 595.769 434.156 558.271 378.926C558.227 378.862 558.177 378.801 558.122 378.745L467.781 287.211C455.257 276.477 413.24 262.168 379.235 228.209C379.177 228.152 379.114 228.1 379.047 228.054C363.9 217.815 351.443 212.179 342.74 199.496C339.799 195.21 337.028 191.637 334.335 188.6L356.095 168.42C366.685 157.816 392.516 126.177 403.585 116.292C410.516 110.102 415.589 97.7417 420.984 89.651C421.052 89.5485 421.132 89.4594 421.222 89.3835Z" fill="url(#paint13_linear_3249_13852)"/>
</mask>
<g mask="url(#mask0_3249_13852)">
<path d="M334.113 212.542H678.312" stroke="#12D6A7" stroke-width="1.06667"/>
<path d="M334.113 137.617H678.312" stroke="#12D6A7" stroke-width="1.06667"/>
<path d="M334.113 308.873H678.312" stroke="#12D6A7" stroke-width="1.06667"/>
<path d="M334.113 84.1001H678.312" stroke="#12D6A7" stroke-width="1.06667"/>
<path d="M334.113 255.355H678.312" stroke="#12D6A7" stroke-width="1.06667"/>
<path d="M334.113 169.728H678.312" stroke="#12D6A7" stroke-width="1.06667"/>
<path d="M334.113 340.983H678.312" stroke="#12D6A7" stroke-width="1.06667"/>
<path d="M334.113 62.6938H678.312" stroke="#12D6A7" stroke-width="1.06667"/>
<path d="M334.113 233.948H678.312" stroke="#12D6A7" stroke-width="1.06667"/>
<path d="M334.113 148.321H678.312" stroke="#12D6A7" stroke-width="1.06667"/>
<path d="M334.113 319.576H678.312" stroke="#12D6A7" stroke-width="1.06667"/>
<path d="M334.113 105.507H678.312" stroke="#12D6A7" stroke-width="1.06667"/>
<path d="M334.113 276.762H678.312" stroke="#12D6A7" stroke-width="1.06667"/>
<path d="M334.113 191.134H678.312" stroke="#12D6A7" stroke-width="1.06667"/>
<path d="M334.113 362.389H678.312" stroke="#12D6A7" stroke-width="1.06667"/>
<path d="M334.113 73.397H678.312" stroke="#12D6A7" stroke-width="1.06667"/>
<path d="M334.113 244.652H678.312" stroke="#12D6A7" stroke-width="1.06667"/>
<path d="M334.113 159.024H678.312" stroke="#12D6A7" stroke-width="1.06667"/>
<path d="M334.113 330.279H678.312" stroke="#12D6A7" stroke-width="1.06667"/>
<path d="M334.113 116.21H678.312" stroke="#12D6A7" stroke-width="1.06667"/>
<path d="M334.113 287.465H678.312" stroke="#12D6A7" stroke-width="1.06667"/>
<path d="M334.113 201.838H678.312" stroke="#12D6A7" stroke-width="1.06667"/>
<path d="M334.113 373.093H678.312" stroke="#12D6A7" stroke-width="1.06667"/>
<path d="M334.113 94.8037H678.312" stroke="#12D6A7" stroke-width="1.06667"/>
<path d="M334.113 266.059H678.312" stroke="#12D6A7" stroke-width="1.06667"/>
<path d="M334.113 180.432H678.312" stroke="#12D6A7" stroke-width="1.06667"/>
<path d="M334.113 351.687H678.312" stroke="#12D6A7" stroke-width="1.06667"/>
<path d="M334.113 126.914H678.312" stroke="#12D6A7" stroke-width="1.06667"/>
<path d="M334.113 298.169H678.312" stroke="#12D6A7" stroke-width="1.06667"/>
<path d="M334.113 223.245H678.312" stroke="#12D6A7" stroke-width="1.06667"/>
<path d="M334.113 383.796H678.312" stroke="#12D6A7" stroke-width="1.06667"/>
</g>
<mask id="mask1_3249_13852" style="mask-type:alpha" maskUnits="userSpaceOnUse" x="218" y="39" width="92" height="92">
<path d="M309.333 85.0668C309.333 110.251 288.917 130.667 263.733 130.667C238.549 130.667 218.133 110.251 218.133 85.0668C218.133 59.8826 238.549 39.4668 263.733 39.4668C288.917 39.4668 309.333 59.8826 309.333 85.0668Z" fill="#D9D9D9"/>
</mask>
<g mask="url(#mask1_3249_13852)">
<g opacity="0.8" filter="url(#filter0_f_3249_13852)">
<path d="M267.782 66.4545C257.1 64.3202 220.053 110.052 212.756 120.066C187.118 115.414 200.734 83.5675 200.434 44.4669C200.134 5.36627 250.505 -3.18925 287.589 1.5526C317.255 5.34607 329.592 34.9077 332.052 49.2144C329.395 77.7728 327.632 85.5572 312.065 82.1383C292.607 77.8646 281.134 69.1223 267.782 66.4545Z" fill="#12D6A7"/>
<path d="M267.782 66.4545C257.1 64.3202 220.053 110.052 212.756 120.066C187.118 115.414 200.734 83.5675 200.434 44.4669C200.134 5.36627 250.505 -3.18925 287.589 1.5526C317.255 5.34607 329.592 34.9077 332.052 49.2144C329.395 77.7728 327.632 85.5572 312.065 82.1383C292.607 77.8646 281.134 69.1223 267.782 66.4545Z" stroke="black" stroke-width="0.5205"/>
</g>
</g>
</g>
<defs>
<filter id="filter0_f_3249_13852" x="144.777" y="-51.9421" width="239.588" height="224.344" filterUnits="userSpaceOnUse" color-interpolation-filters="sRGB">
<feFlood flood-opacity="0" result="BackgroundImageFix"/>
<feBlend mode="normal" in="SourceGraphic" in2="BackgroundImageFix" result="shape"/>
<feGaussianBlur stdDeviation="26.025" result="effect1_foregroundBlur_3249_13852"/>
</filter>
<linearGradient id="paint0_linear_3249_13852" x1="482.838" y1="-23.3495" x2="720.829" y2="254.717" gradientUnits="userSpaceOnUse">
<stop stop-color="#12D6A7"/>
<stop offset="0.907986" stop-color="#12D6A7" stop-opacity="0"/>
</linearGradient>
<linearGradient id="paint1_linear_3249_13852" x1="440.863" y1="15.2392" x2="624.688" y2="202.391" gradientUnits="userSpaceOnUse">
<stop stop-color="#12D6A7"/>
<stop offset="0.907986" stop-color="#12D6A7" stop-opacity="0"/>
</linearGradient>
<radialGradient id="paint2_radial_3249_13852" cx="0" cy="0" r="1" gradientUnits="userSpaceOnUse" gradientTransform="translate(318.343 40.0262) rotate(51.4682) scale(295.257 253.362)">
<stop stop-color="#12D6A7" stop-opacity="0.39"/>
<stop offset="0.860413" stop-color="#12D6A7" stop-opacity="0"/>
</radialGradient>
<linearGradient id="paint3_linear_3249_13852" x1="747.066" y1="233.603" x2="645.23" y2="430.757" gradientUnits="userSpaceOnUse">
<stop stop-color="#12D6A7"/>
<stop offset="0.907986" stop-color="#12D6A7" stop-opacity="0"/>
</linearGradient>
<linearGradient id="paint4_linear_3249_13852" x1="-66.0321" y1="-118.234" x2="-152.747" y2="338.57" gradientUnits="userSpaceOnUse">
<stop stop-color="#12D6A7"/>
<stop offset="0.907986" stop-color="#12D6A7" stop-opacity="0"/>
</linearGradient>
<radialGradient id="paint5_radial_3249_13852" cx="0" cy="0" r="1" gradientUnits="userSpaceOnUse" gradientTransform="translate(122.303 174.101) rotate(-172.201) scale(151.531 448.628)">
<stop stop-color="#12D6A7" stop-opacity="0.37"/>
<stop offset="0.907986" stop-color="#12D6A7" stop-opacity="0"/>
</radialGradient>
<linearGradient id="paint6_linear_3249_13852" x1="89.8717" y1="-56.7887" x2="201.111" y2="370.287" gradientUnits="userSpaceOnUse">
<stop stop-color="#12D6A7"/>
<stop offset="0.907986" stop-color="#12D6A7" stop-opacity="0"/>
</linearGradient>
<linearGradient id="paint7_linear_3249_13852" x1="319.366" y1="-4.99151" x2="570.363" y2="413.342" gradientUnits="userSpaceOnUse">
<stop stop-color="#12D6A7"/>
<stop offset="0.907986" stop-color="#12D6A7" stop-opacity="0"/>
</linearGradient>
<radialGradient id="paint8_radial_3249_13852" cx="0" cy="0" r="1" gradientUnits="userSpaceOnUse" gradientTransform="translate(279.203 338.595) rotate(-159.709) scale(263.969 351.249)">
<stop stop-color="#12D6A7" stop-opacity="0.37"/>
<stop offset="0.907986" stop-color="#12D6A7" stop-opacity="0"/>
</radialGradient>
<linearGradient id="paint9_linear_3249_13852" x1="279.056" y1="131.666" x2="387.906" y2="253.533" gradientUnits="userSpaceOnUse">
<stop stop-color="#12D6A7"/>
<stop offset="1" stop-color="#12D6A7" stop-opacity="0"/>
</linearGradient>
<linearGradient id="paint10_linear_3249_13852" x1="269.196" y1="126.217" x2="329.719" y2="360.995" gradientUnits="userSpaceOnUse">
<stop stop-color="#12D6A7"/>
<stop offset="1" stop-color="#12D6A7" stop-opacity="0"/>
</linearGradient>
<linearGradient id="paint11_linear_3249_13852" x1="475.929" y1="285.567" x2="317.857" y2="516.527" gradientUnits="userSpaceOnUse">
<stop stop-color="#12D6A7"/>
<stop offset="0.907986" stop-color="#12D6A7" stop-opacity="0"/>
</linearGradient>
<linearGradient id="paint12_linear_3249_13852" x1="120.431" y1="341.752" x2="127.512" y2="461.031" gradientUnits="userSpaceOnUse">
<stop stop-color="#12D6A7"/>
<stop offset="0.907986" stop-color="#12D6A7" stop-opacity="0"/>
</linearGradient>
<linearGradient id="paint13_linear_3249_13852" x1="502.273" y1="199.169" x2="297.781" y2="258.883" gradientUnits="userSpaceOnUse">
<stop stop-color="#D9D9D9" stop-opacity="0"/>
<stop offset="1" stop-color="#D9D9D9"/>
</linearGradient>
<clipPath id="clip0_3249_13852">
<rect width="768" height="387.733" fill="white" transform="matrix(-1 0 0 1 768 0)"/>
</clipPath>
</defs>
</svg>
