<svg width="18" height="17" viewBox="0 0 18 17" fill="none" xmlns="http://www.w3.org/2000/svg">
<path d="M12.675 1.65V0.15C12.675 0.075 12.6 0 12.525 0H11.475C11.4 0 11.325 0.075 11.325 0.15V1.65C11.325 1.725 11.25 1.8 11.175 1.8H6.825C6.75 1.8 6.675 1.725 6.675 1.65V0.15C6.675 0.075 6.6 0 6.525 0H5.475C5.4 0 5.325 -1.11759e-08 5.325 0.15V1.65C5.325 1.725 5.25 1.8 5.175 1.8H0.15C0.075 1.8 0 1.875 0 1.95V4.65C0 4.725 0.075 4.8 0.15 4.8H17.85C17.925 4.8 18 4.725 18 4.65V1.95C18 1.875 17.925 1.8 17.85 1.8H12.825C12.75 1.8 12.675 1.725 12.675 1.65Z" fill="#12677F"/>
<path d="M0.15 16.8004H17.85C17.925 16.8004 18 16.7254 18 16.6504V6.30039C18 6.15039 17.925 6.15039 17.85 6.15039H0.15C0.075 6.15039 0 6.15039 0 6.30039V16.6504C0 16.8004 0.075 16.8004 0.15 16.8004ZM12.075 8.25039H14.025C14.1 8.25039 14.175 8.32539 14.175 8.40039V10.3504C14.175 10.4254 14.1 10.5004 14.025 10.5004H12.075C12 10.5004 11.925 10.4254 11.925 10.3504V8.40039C11.925 8.32539 12 8.25039 12.075 8.25039ZM12.075 12.3754H14.025C14.1 12.3754 14.175 12.4504 14.175 12.5254V14.4754C14.175 14.5504 14.1 14.6254 14.025 14.6254H12.075C12 14.6254 11.925 14.5504 11.925 14.4754V12.5254C11.925 12.4504 12 12.3754 12.075 12.3754ZM8.025 8.25039H9.975C10.05 8.25039 10.125 8.32539 10.125 8.40039V10.3504C10.125 10.4254 10.05 10.5004 9.975 10.5004H8.025C7.95 10.5004 7.875 10.4254 7.875 10.3504V8.40039C7.875 8.32539 7.95 8.25039 8.025 8.25039ZM8.025 12.3754H9.975C10.05 12.3754 10.125 12.4504 10.125 12.5254V14.4754C10.125 14.5504 10.05 14.6254 9.975 14.6254H8.025C7.95 14.6254 7.875 14.5504 7.875 14.4754V12.5254C7.875 12.4504 7.95 12.3754 8.025 12.3754ZM3.9 8.25039H5.85C5.925 8.25039 6 8.32539 6 8.40039V10.3504C6 10.4254 5.925 10.5004 5.85 10.5004H3.9C3.825 10.5004 3.75 10.4254 3.75 10.3504V8.40039C3.75 8.32539 3.825 8.25039 3.9 8.25039ZM3.9 12.3754H5.85C5.925 12.3754 6 12.4504 6 12.5254V14.4754C6 14.5504 5.925 14.6254 5.85 14.6254H3.9C3.825 14.6254 3.75 14.5504 3.75 14.4754V12.5254C3.75 12.4504 3.825 12.3754 3.9 12.3754Z" fill="#12677F"/>
</svg>
