<svg width="166" height="63" viewBox="0 0 166 63" fill="none" xmlns="http://www.w3.org/2000/svg">
<path fill-rule="evenodd" clip-rule="evenodd" d="M77.2326 21.0921H85.7902L81.6768 45.0209H56.1084C55.6419 45.8314 55.0907 46.6845 54.4971 47.4522L51.1474 46.6845L50.2993 46.4712C49.6209 47.239 48.8576 48.0068 48.0944 48.6892L48.7304 51.3764L49.0696 52.8693C48.476 53.3385 47.8824 53.7224 47.2463 54.1062C47.1404 54.1702 47.0343 54.2449 46.9283 54.3195C46.8224 54.3942 46.7163 54.4689 46.6103 54.5328L43.1334 52.0162C42.2005 52.4854 41.2253 52.8693 40.25 53.2106L39.5716 57.4759C38.6388 57.6892 37.6635 57.9024 36.6882 58.0304L34.4409 54.3621C34.1865 54.3621 33.9215 54.3728 33.6565 54.3835C33.3915 54.3942 33.1265 54.4049 32.872 54.4049C32.3209 54.4049 31.812 54.4049 31.3032 54.3621L29.0559 58.0304C28.0806 57.9024 27.1054 57.7318 26.1725 57.4759L25.4941 53.2106C24.5189 52.8693 23.5436 52.4854 22.6108 52.0162L19.1338 54.5328C19.0278 54.4689 18.9218 54.3942 18.8158 54.3195C18.7098 54.2449 18.6038 54.1702 18.4977 54.1062C18.3368 53.9983 18.1784 53.893 18.0222 53.7891C17.5611 53.4826 17.1178 53.1878 16.6744 52.8693L17.0137 51.3764L17.6497 48.6892C16.8865 48.0068 16.1233 47.2816 15.4448 46.4712L14.5968 46.6845L11.247 47.4522C10.6958 46.6845 10.1446 45.8741 9.63575 45.0209L12.1374 41.5234C11.7135 40.6276 11.3742 39.7319 11.035 38.8362C11.0138 38.7934 11.0032 38.7508 10.9926 38.7081C10.982 38.6655 10.9714 38.6228 10.9502 38.5802L6.7524 37.8978C6.54039 36.9594 6.32838 35.9783 6.20117 34.9973L9.21171 33.1205L9.84777 32.7366C9.80537 32.2247 9.80537 31.6703 9.80537 31.1585C9.80537 30.6039 9.80537 30.0921 9.84777 29.5802L9.08449 29.111L6.20117 27.3196C6.32838 26.3385 6.49798 25.3575 6.7524 24.4191L9.97498 23.9073L10.9926 23.7367C11.3318 22.7556 11.7135 21.7745 12.1798 20.8362L11.5863 20.0257L9.67815 17.3386C10.1446 16.5281 10.6958 15.6751 11.2894 14.9073L14.8088 15.7177L15.4448 15.8883C16.1233 15.1205 16.8865 14.3528 17.6497 13.6703L17.6073 13.4997L16.6744 9.44758C17.4377 8.89311 18.2433 8.33857 19.0914 7.82673L22.5684 10.3433C23.5012 9.87409 24.4341 9.49023 25.4517 9.14902L26.1302 4.8836C27.063 4.62768 28.0382 4.45706 29.0559 4.3291L31.3032 7.99734C31.812 7.95469 32.3632 7.95469 32.872 7.95469C33.4232 7.95469 33.9321 7.95469 34.4409 7.99734L36.6882 4.3291C37.6635 4.45706 38.6388 4.62768 39.5716 4.8836L40.25 9.14902C41.2253 9.49023 42.2005 9.87409 43.1334 10.3433L46.6103 7.82673C47.4159 8.29591 48.264 8.85038 49.0272 9.44758L48.0944 13.4997L48.052 13.6703C48.8152 14.3528 49.5785 15.0779 50.2569 15.8883L50.8929 15.7177L54.4547 14.9073C55.0059 15.6751 55.5571 16.4854 56.066 17.3386L54.1579 20.0257L53.5642 20.8362L53.6914 21.0921H53.8968L51.8259 32.95H55.2605L60.9 25.187L59.5431 32.95H62.808L64.8789 21.0921H67.0413L64.9704 32.95H68.1929L68.829 29.3244H73.154C74.426 29.3244 75.3589 29.0258 76.0373 28.4713C76.7158 27.9168 77.1398 26.9784 77.3943 25.6988L77.691 23.9073C77.8606 22.6704 77.7758 21.732 77.3094 21.1775C77.2849 21.1483 77.2593 21.1199 77.2326 21.0921ZM61.0207 21.0921H57.1616L55.9389 28.0874L61.0207 21.0921ZM12.0102 30.5186C11.6287 42.6323 21.4659 52.5281 33.5081 52.1442C39.4444 51.9309 44.7446 49.201 48.4336 45.0636H21.0843L24.9828 22.841H27.6991L25.9182 32.95H33.6354C34.8226 32.95 35.7131 32.6941 36.3491 32.1395C36.9852 31.5851 37.4092 30.732 37.6211 29.5376C37.7059 29.0258 37.706 28.5993 37.6635 28.258C37.494 27.2344 36.9428 26.5519 36.0099 26.296C36.4763 26.1254 36.9428 25.7841 37.3244 25.3576C37.7059 24.8884 37.9604 24.3339 38.0876 23.6088C38.2996 22.4998 38.13 21.6893 37.7059 21.1775C37.6978 21.163 37.6893 21.1488 37.6806 21.1348H41.1211C40.552 21.7023 40.1873 22.58 39.9957 23.7363L38.978 29.5372C38.7661 30.8168 38.8932 31.7126 39.3596 32.3098C39.8261 32.9069 40.6741 33.1628 41.9462 33.1628H46.4408C47.7129 33.1628 48.6457 32.8643 49.3241 32.3098C50.0026 31.7553 50.4266 30.8168 50.681 29.5372L51.6986 23.7363C51.9106 22.4567 51.7834 21.5609 51.3171 20.9638C51.1645 20.7975 50.9814 20.6543 50.7655 20.5352C47.0253 14.1748 40.0469 10.0098 32.1512 10.258C21.2539 10.5992 12.3495 19.5566 12.0102 30.5186ZM48.4337 23.7363L47.416 29.5372C47.2888 30.2624 46.8648 30.6036 46.144 30.6036H43.091C42.3702 30.6036 42.0734 30.2624 42.2006 29.5372L43.2183 23.7363C43.3455 23.0112 43.7694 22.67 44.4903 22.67H47.5432C48.2641 22.67 48.5609 23.0112 48.4337 23.7363ZM34.5258 29.3244L34.5682 28.9832C34.6954 28.258 34.3986 27.8742 33.6778 27.8742H30.0736L29.6496 30.3907H33.2538C33.9746 30.3907 34.3986 30.0495 34.5258 29.3244ZM34.865 24.2486L34.9074 23.9073C35.0346 23.1822 34.7378 22.841 34.017 22.7983H30.9641L30.54 25.3149H33.593C34.3139 25.3149 34.7378 24.9737 34.865 24.2486ZM55.6661 37.6322C56.0462 37.6611 56.3463 37.684 56.5325 37.684C56.6173 37.684 56.6597 37.684 56.7021 37.6414C56.7445 37.5987 56.7869 37.5561 56.7869 37.4708L56.8718 37.0442L56.7606 37.0604C56.5103 37.097 56.2882 37.1295 56.0662 37.1295H55.7693C55.5573 37.1295 55.4301 37.0868 55.3029 36.9589C55.2181 36.8309 55.1757 36.6603 55.2181 36.4471L55.3029 35.8499C55.3453 35.5939 55.4725 35.3807 55.5997 35.2527C55.7693 35.1248 55.9813 35.0395 56.2781 35.0395H57.1262C57.423 35.0395 57.635 35.1248 57.7622 35.2527C57.8894 35.3807 57.8894 35.5939 57.847 35.8499L57.5502 37.4281C57.5078 37.7267 57.3806 37.9399 57.211 38.0679C57.0414 38.1958 56.8294 38.2811 56.5325 38.2811C56.1911 38.2811 55.8221 38.2535 55.3814 38.2205C55.2748 38.2125 55.164 38.2042 55.0485 38.1958L55.2181 37.5987C55.3769 37.6101 55.5271 37.6215 55.6661 37.6322ZM56.4053 36.4897C56.5749 36.4897 56.7445 36.4897 56.9566 36.4471L57.0414 35.9352C57.0838 35.7646 56.999 35.6792 56.8293 35.6792H56.4053C56.2357 35.6792 56.1086 35.7646 56.0662 35.9352L55.9813 36.3191C55.9813 36.3618 55.9813 36.4044 56.0238 36.4471C56.0481 36.4716 56.0585 36.482 56.0709 36.4864C56.0802 36.4897 56.0905 36.4897 56.1086 36.4897H56.4053ZM27.8687 38.1106C28.0384 37.9827 28.1656 37.7268 28.208 37.4282L28.4624 35.9779C28.5472 35.6793 28.5048 35.4234 28.3776 35.2955C28.2928 35.1675 28.0384 35.0822 27.7416 35.0822H26.5967C26.2999 35.0822 26.0455 35.1675 25.8759 35.2955C25.7063 35.4234 25.5791 35.6793 25.5367 35.9779L25.2823 37.4282C25.1974 37.7268 25.2398 37.9827 25.3671 38.1106C25.4519 38.2386 25.7063 38.3239 26.0031 38.3239H27.148C27.4448 38.3239 27.6992 38.2386 27.8687 38.1106ZM27.4448 35.6793C27.6144 35.6793 27.6992 35.7646 27.6568 35.9352L27.4024 37.3855C27.36 37.5562 27.2328 37.6415 27.0631 37.6415H26.2999C26.1303 37.6415 26.0455 37.5562 26.0879 37.3855L26.3423 35.9352C26.3847 35.7646 26.5119 35.6793 26.6815 35.6793H27.4448ZM30.2697 38.2614L30.2715 38.2613C30.3715 38.2538 30.4749 38.2461 30.5826 38.2383L30.625 37.5558C30.4773 37.5673 30.3387 37.5787 30.2101 37.5893C29.8587 37.6183 29.5815 37.6411 29.3953 37.6411C29.353 37.6411 29.353 37.6411 29.3106 37.5986C29.2682 37.5558 29.2682 37.5132 29.2682 37.4705L29.4377 36.5748C29.4377 36.4469 29.5225 36.4042 29.6497 36.4042H30.837L30.9643 35.807H29.5225C29.3106 35.807 29.141 35.8923 28.9713 36.0203C28.8017 36.1482 28.7169 36.3616 28.6745 36.5748L28.5049 37.6411C28.4625 37.8545 28.5049 38.0251 28.5897 38.153C28.7169 38.281 28.8441 38.3236 29.0561 38.3236C29.4375 38.3236 29.8188 38.2951 30.2697 38.2614ZM32.8298 36.7455L32.9994 35.8498H33.7626L33.3386 38.2811H32.533L32.7026 37.3853H31.8969L31.7274 38.2811H30.9217L31.3457 35.8498H32.1513L31.9817 36.7455H32.8298ZM36.0523 38.1529C36.222 38.025 36.3068 37.8117 36.3492 37.5984L36.5188 36.5321C36.5612 36.2761 36.5188 36.1055 36.434 35.9776C36.3068 35.8496 36.1372 35.7643 35.9252 35.7643H34.8651C34.6531 35.7643 34.4835 35.8496 34.3139 35.9776C34.1443 36.1055 34.0595 36.3188 34.0171 36.5321L33.8475 37.5984C33.8051 37.8544 33.8051 38.025 33.9323 38.1529C34.0595 38.2809 34.2291 38.3662 34.4411 38.3662H35.5012C35.7132 38.3662 35.8828 38.2809 36.0523 38.1529ZM35.586 36.4468C35.7132 36.4468 35.7556 36.4895 35.7556 36.6174L35.586 37.5131C35.586 37.641 35.5012 37.6838 35.374 37.6838H34.8227C34.6955 37.6838 34.6107 37.641 34.6531 37.5131L34.8227 36.6174C34.8227 36.4895 34.9075 36.4468 35.0347 36.4468H35.586ZM38.3844 38.2811H36.6459L37.07 35.8498H38.6388C38.8508 35.8498 38.978 35.8924 39.1052 36.0204C39.19 36.1483 39.2324 36.2763 39.2324 36.4043C39.19 36.5323 39.1476 36.6602 39.0628 36.7882C38.978 36.8735 38.8932 36.9588 38.7661 36.9588C38.8932 37.0014 39.0204 37.0441 39.0628 37.172C39.1476 37.3 39.1476 37.428 39.1476 37.5986C39.1052 37.7692 39.0204 37.9398 38.8932 38.0678C38.7661 38.1958 38.554 38.2811 38.3844 38.2811ZM38.3844 37.5133C38.3844 37.4706 38.3844 37.428 38.342 37.3853C38.3176 37.3608 38.3073 37.3504 38.2948 37.3459C38.2855 37.3426 38.2752 37.3427 38.2572 37.3427H37.6211L37.5363 37.7266H38.1724C38.2148 37.7266 38.2572 37.7266 38.2996 37.6839C38.3208 37.6625 38.3314 37.6412 38.342 37.6199C38.3526 37.5986 38.3632 37.5772 38.3844 37.5559V37.5133ZM38.4268 36.5749C38.4268 36.5323 38.4268 36.4896 38.3844 36.447C38.342 36.4042 38.342 36.4043 38.2996 36.4043H37.7908L37.7059 36.8308H38.2148C38.2572 36.8308 38.2996 36.8308 38.342 36.7882C38.3632 36.7669 38.3738 36.7455 38.3844 36.7242C38.395 36.7029 38.4056 36.6816 38.4268 36.6602V36.5749ZM40.0381 35.8825L39.911 35.8923L39.8262 36.5322C39.9024 36.5322 39.9786 36.5235 40.0626 36.5141C40.1653 36.5025 40.2797 36.4895 40.4197 36.4895C40.6318 36.4469 40.8438 36.4469 41.0558 36.4469C41.0982 36.4469 41.0982 36.4469 41.1406 36.4895C41.183 36.5322 41.183 36.5748 41.183 36.6175L41.1406 36.7881H40.2077C40.0381 36.7881 39.8262 36.8308 39.699 36.9587C39.5717 37.0867 39.4869 37.2573 39.4445 37.4705L39.4021 37.6838C39.3597 37.8971 39.4021 38.0677 39.4869 38.1957C39.6141 38.3236 39.7414 38.3663 39.9534 38.3663H40.1229C40.185 38.3663 40.2698 38.3434 40.3773 38.3144C40.4167 38.3039 40.4591 38.2924 40.5045 38.281C40.6304 38.2494 40.7328 38.1943 40.8466 38.1331C40.8861 38.1119 40.9273 38.0897 40.971 38.0677V38.281H41.6918L41.9886 36.4895C42.031 36.2762 41.9886 36.1056 41.9038 35.9776C41.7766 35.8497 41.6494 35.807 41.4374 35.807C41.0071 35.807 40.5406 35.8434 40.0381 35.8825ZM40.8654 37.6202C40.7008 37.6545 40.5603 37.6838 40.4197 37.6838V37.7265H40.2925C40.2501 37.7265 40.2501 37.7265 40.2077 37.6838C40.1653 37.6411 40.1653 37.5985 40.1653 37.5558V37.5132C40.1866 37.4918 40.1972 37.4705 40.2077 37.4492C40.2183 37.4279 40.229 37.4065 40.2501 37.3852C40.2925 37.3426 40.3349 37.3426 40.3773 37.3426H41.0134L40.971 37.5985C40.9353 37.6057 40.9007 37.6129 40.8672 37.6199L40.8654 37.6202ZM43.9391 36.7455L44.1087 35.8498H44.9144L44.4904 38.2811H43.6848L43.8543 37.3853H43.0487L42.8791 38.2811H42.0735L42.4975 35.8498H43.3031L43.1335 36.7455H43.9391ZM47.1616 38.1529C47.3312 38.025 47.416 37.8117 47.4584 37.5984L47.628 36.5321C47.6704 36.2761 47.628 36.1055 47.5432 35.9776C47.416 35.8496 47.2464 35.7643 47.0345 35.7643H45.9744C45.7623 35.7643 45.5927 35.8496 45.4232 35.9776C45.2536 36.1055 45.1688 36.3188 45.1264 36.5321L44.9567 37.5984C44.9143 37.8544 44.9143 38.025 45.0416 38.1529C45.1688 38.2809 45.3384 38.3662 45.5503 38.3662H46.6104C46.8224 38.3662 46.9921 38.2809 47.1616 38.1529ZM46.6528 36.4468C46.78 36.4468 46.8224 36.4895 46.8224 36.6174L46.6528 37.5131C46.6528 37.641 46.568 37.6838 46.4408 37.6838H45.8896C45.7623 37.6838 45.6775 37.641 45.7199 37.5131L45.8896 36.6174C45.8896 36.4895 45.9744 36.4468 46.1016 36.4468H46.6528ZM50.8084 38.2811H49.0699L49.4939 35.8498H51.0628C51.2748 35.8498 51.402 35.8924 51.5292 36.0204C51.614 36.1483 51.6564 36.2763 51.6564 36.4043C51.614 36.5323 51.5716 36.6602 51.4868 36.7882C51.402 36.8735 51.3172 36.9588 51.19 36.9588C51.3172 37.0014 51.4444 37.0441 51.4868 37.172C51.5716 37.3 51.5716 37.428 51.5716 37.5986C51.5292 37.7692 51.4444 37.9398 51.3172 38.0678C51.19 38.1958 51.0204 38.2811 50.8084 38.2811ZM50.8508 37.5559C50.8296 37.5772 50.819 37.5986 50.8084 37.6199L50.8508 37.5559ZM50.8084 37.6199C50.7977 37.6412 50.7872 37.6625 50.766 37.6839L50.8084 37.6199ZM50.766 37.6839C50.7236 37.7266 50.6812 37.7266 50.6387 37.7266L50.766 37.6839ZM50.7236 37.3427C50.7416 37.3427 50.7519 37.3426 50.7611 37.3459L50.7236 37.3427ZM50.7611 37.3459C50.7736 37.3503 50.7839 37.3608 50.8084 37.3853L50.7611 37.3459ZM50.8932 36.5749C50.8932 36.5323 50.8932 36.4896 50.8508 36.447C50.8084 36.4042 50.8084 36.4043 50.766 36.4043H50.2571L50.1723 36.8308H50.6811C50.7236 36.8308 50.766 36.8308 50.8084 36.7882C50.8296 36.7669 50.8401 36.7455 50.8508 36.7242C50.8614 36.7029 50.872 36.6816 50.8932 36.6602V36.5749ZM54.1157 35.8073L53.6917 38.2812H54.4974L55.0485 35.0822H54.3277L53.4373 35.4661L53.5645 35.9779L54.1157 35.8073ZM57.8471 38.248C58.3925 38.2874 58.9012 38.3241 59.3735 38.3241C59.5343 38.3241 59.6828 38.2991 59.8187 38.2761C59.9336 38.2567 60.0396 38.2388 60.1367 38.2388C60.3063 38.1109 60.4335 37.8976 60.476 37.599V37.5564V37.2151C60.4335 36.9165 60.2639 36.7886 60.0519 36.7033C60.2215 36.6606 60.3487 36.5753 60.4335 36.4474C60.5608 36.3621 60.6032 36.1915 60.6456 36.0208C60.688 35.7649 60.688 35.5516 60.5608 35.4237C60.4335 35.2957 60.2215 35.2104 59.9247 35.2104H58.3982L58.271 35.8502H59.5855C59.7551 35.8502 59.8399 35.9355 59.7975 36.1061V36.1915C59.7551 36.3621 59.6279 36.4474 59.4583 36.4474H58.6102L58.483 37.0872H59.4159C59.5855 37.0872 59.6704 37.1725 59.6279 37.3431L59.5855 37.5137C59.5855 37.599 59.5431 37.6417 59.5007 37.6844C59.4583 37.727 59.4159 37.727 59.3311 37.727C59.0948 37.727 58.7967 37.7063 58.4083 37.6793C58.2392 37.6676 58.0528 37.6546 57.8471 37.6417L57.7198 38.2388L57.8471 38.248ZM63.317 36.106C63.2746 36.362 63.1049 36.5753 62.8929 36.7885C62.8505 36.8098 62.8081 36.8419 62.7657 36.8738C62.7233 36.9058 62.6809 36.9378 62.6386 36.9591L61.5361 37.6843H63.0625L62.9353 38.324H60.476L60.6457 37.471L62.469 36.2767L62.5114 36.0634C62.5538 35.8928 62.469 35.8075 62.2993 35.8075H61.0272L61.1544 35.1677H62.5962C62.8929 35.1677 63.1473 35.253 63.2321 35.3809C63.3594 35.5089 63.4018 35.7648 63.317 36.0634V36.106ZM66.8787 36.4469L67.0059 35.8497V35.807H65.0554L64.6314 38.2383H65.437L65.7338 36.4469H66.8787ZM66.5818 37.5986H67.3874L67.2602 38.2811H66.4546L66.5818 37.5986ZM74.426 23.9073L74.1293 25.6988C74.0021 26.4239 73.578 26.7651 72.8572 26.7651H69.253L69.9314 22.7983H73.5356C74.2565 22.841 74.5532 23.1822 74.426 23.9073Z" fill="white" fill-opacity="0.7"/>
<path d="M90.4527 17.2539H92.997C93.421 17.2539 93.7174 17.3392 93.8871 17.5525C94.0567 17.7231 94.0995 18.0216 94.0147 18.4056C93.9719 18.6615 93.8871 18.8747 93.7174 19.0453C93.5906 19.2159 93.421 19.3012 93.2514 19.3866C93.5906 19.4719 93.7603 19.7278 93.8451 20.0691C93.8451 20.197 93.8451 20.3676 93.8451 20.5382C93.7603 20.9648 93.6326 21.2634 93.3782 21.4766C93.1666 21.6899 92.8274 21.7752 92.4033 21.7752H89.6475L90.4527 17.2539ZM92.7426 20.3676C92.7846 20.1117 92.6997 19.9838 92.4461 19.9838H91.174L91.0044 20.8794H92.2765C92.5301 20.8794 92.6997 20.7515 92.7426 20.4956V20.3676ZM92.8694 18.5335C92.9122 18.2775 92.8274 18.1496 92.5729 18.1496H91.4704L91.3008 19.0453H92.4033C92.6577 19.0453 92.8274 18.9174 92.8694 18.6615V18.5335Z" fill="white" fill-opacity="0.7"/>
<path d="M97.711 21.6899C96.7361 21.7752 95.93 21.8178 95.3364 21.8178C94.9123 21.8178 94.6159 21.7325 94.4463 21.5193C94.2767 21.306 94.2339 21.0075 94.3187 20.5809L94.7007 18.5335C94.7855 18.0643 94.9551 17.7657 95.1667 17.5525C95.4212 17.3392 95.7604 17.2539 96.1845 17.2539H98.4743L98.3047 18.1496H96.2693C96.0148 18.1496 95.8452 18.2775 95.8032 18.5335L95.4212 20.5809C95.4212 20.6662 95.4212 20.7515 95.464 20.8368C95.506 20.8794 95.5908 20.9221 95.6756 20.9221C95.7604 20.9221 95.8452 20.9221 95.9728 20.9221C96.0996 20.9221 96.1844 20.9221 96.3121 20.9221C96.4389 20.9221 96.5237 20.9221 96.6513 20.9221C96.7781 20.9221 96.9057 20.9221 97.1173 20.8794C97.287 20.8794 97.5414 20.8368 97.8378 20.8368L97.711 21.6899Z" fill="white" fill-opacity="0.7"/>
<path d="M101.738 21.7752H98.2188L99.024 17.2539H102.586L102.416 18.1496H99.9997L99.8301 19.0027H101.738L101.568 19.8984H99.6605L99.4909 20.8368H101.908L101.738 21.7752Z" fill="white" fill-opacity="0.7"/>
<path d="M103.05 17.2539H105.721C106.188 17.2539 106.485 17.3392 106.654 17.5525C106.824 17.7657 106.867 18.0643 106.782 18.5335L106.654 19.1733C106.57 19.6425 106.4 19.9411 106.188 20.1544C105.934 20.3676 105.595 20.4529 105.171 20.4529H103.644L103.432 21.7325H102.287L103.05 17.2539ZM105.637 18.5335C105.679 18.2775 105.595 18.1496 105.34 18.1496H104.068L103.814 19.5572H105.086C105.34 19.5572 105.51 19.4292 105.552 19.1733L105.637 18.5335Z" fill="white" fill-opacity="0.7"/>
<path d="M111.07 20.538C110.985 21.0071 110.816 21.3057 110.603 21.519C110.349 21.7323 110.009 21.8176 109.585 21.8176H107.975C107.508 21.8176 107.212 21.7323 107.042 21.519C106.872 21.3057 106.83 21.0071 106.914 20.538L107.296 18.4906C107.381 18.0214 107.551 17.7228 107.762 17.5095C108.017 17.2962 108.356 17.2109 108.78 17.2109H110.392C110.858 17.2109 111.155 17.2962 111.324 17.5095C111.494 17.7228 111.536 18.0214 111.451 18.4906L111.07 20.538ZM110.264 18.4906C110.307 18.2346 110.222 18.1067 109.967 18.1067H108.865C108.611 18.1067 108.441 18.2346 108.399 18.4906L108.017 20.538C107.975 20.7939 108.06 20.9218 108.314 20.9218H109.416C109.67 20.9218 109.84 20.7939 109.883 20.538L110.264 18.4906Z" fill="white" fill-opacity="0.7"/>
<path d="M114.971 21.6899C113.996 21.7752 113.191 21.8178 112.597 21.8178C112.173 21.8178 111.876 21.7325 111.706 21.5193C111.537 21.306 111.495 21.0075 111.58 20.5809L111.961 18.5335C112.046 18.0643 112.215 17.7657 112.428 17.5525C112.682 17.3392 113.021 17.2539 113.445 17.2539H115.734L115.565 18.1496H113.53C113.276 18.1496 113.106 18.2775 113.063 18.5335L112.682 20.5809C112.682 20.6662 112.682 20.7515 112.724 20.8368C112.767 20.8794 112.852 20.9221 112.937 20.9221C113.021 20.9221 113.106 20.9221 113.233 20.9221C113.361 20.9221 113.445 20.9221 113.572 20.9221C113.7 20.9221 113.785 20.9221 113.911 20.9221C114.039 20.9221 114.166 20.9221 114.378 20.8794C114.548 20.8794 114.802 20.8368 115.099 20.8368L114.971 21.6899Z" fill="white" fill-opacity="0.7"/>
<path d="M118.914 21.6899C117.938 21.7752 117.133 21.8178 116.54 21.8178C116.115 21.8178 115.818 21.7325 115.649 21.5193C115.48 21.306 115.437 21.0075 115.522 20.5809L115.903 18.5335C115.988 18.0643 116.157 17.7657 116.37 17.5525C116.624 17.3392 116.964 17.2539 117.388 17.2539H119.677L119.508 18.1496H117.472C117.218 18.1496 117.048 18.2775 117.006 18.5335L116.624 20.5809C116.624 20.6662 116.624 20.7515 116.666 20.8368C116.709 20.8794 116.794 20.9221 116.879 20.9221C116.964 20.9221 117.048 20.9221 117.175 20.9221C117.303 20.9221 117.388 20.9221 117.514 20.9221C117.642 20.9221 117.727 20.9221 117.854 20.9221C117.981 20.9221 118.108 20.9221 118.32 20.8794C118.49 20.8794 118.745 20.8368 119.041 20.8368L118.914 21.6899Z" fill="white" fill-opacity="0.7"/>
<path d="M123.323 21.7752H122.178L122.645 19.0027L120.609 21.7752H119.422L120.227 17.2539H121.372L120.906 20.0264L122.941 17.2539H124.171L123.323 21.7752Z" fill="white" fill-opacity="0.7"/>
<path d="M126.843 21.7749L127.309 19.0024L125.274 21.7749H124.087L124.892 17.2536H126.037L125.571 20.0261L127.606 17.2536H128.835L128.03 21.7749H126.843ZM126.546 16.955C125.995 16.955 125.782 16.6564 125.867 16.1019L125.91 15.8887H126.758L126.715 16.0593C126.715 16.1446 126.715 16.1872 126.758 16.2299C126.8 16.2725 126.843 16.3152 126.928 16.3152H127.139C127.224 16.3152 127.267 16.3152 127.309 16.2299C127.352 16.1872 127.394 16.1446 127.394 16.0593L127.436 15.8887H128.285L128.242 16.1019C128.157 16.6564 127.818 16.955 127.267 16.955H126.546Z" fill="white" fill-opacity="0.7"/>
<path d="M132.224 21.6899C131.249 21.7752 130.443 21.8178 129.849 21.8178C129.425 21.8178 129.129 21.7325 128.959 21.5193C128.789 21.306 128.747 21.0075 128.831 20.5809L129.213 18.5335C129.298 18.0643 129.468 17.7657 129.679 17.5525C129.934 17.3392 130.273 17.2539 130.697 17.2539H132.987L132.817 18.1496H130.782C130.528 18.1496 130.358 18.2775 130.316 18.5335L129.934 20.5809C129.934 20.6662 129.934 20.7515 129.977 20.8368C130.019 20.8794 130.103 20.9221 130.188 20.9221C130.273 20.9221 130.358 20.9221 130.486 20.9221C130.612 20.9221 130.697 20.9221 130.825 20.9221C130.952 20.9221 131.036 20.9221 131.164 20.9221C131.291 20.9221 131.418 20.9221 131.63 20.8794C131.8 20.8794 132.054 20.8368 132.35 20.8368L132.224 21.6899Z" fill="white" fill-opacity="0.7"/>
<path d="M136.809 17.2109C136.936 17.2109 137.105 17.2536 137.36 17.2962L137.19 18.1493H136.936C136.851 18.1493 136.809 18.1493 136.766 18.192C136.724 18.2346 136.681 18.2773 136.639 18.32L135.833 19.4716L136.681 21.7749H135.452L134.774 19.9408H134.18L133.841 21.7749H132.695L133.501 17.2536H134.646L134.349 19.045H134.943L135.791 17.8081C135.918 17.6374 136.046 17.4668 136.215 17.3815C136.385 17.2536 136.597 17.2109 136.809 17.2109Z" fill="white" fill-opacity="0.7"/>
<path d="M141.296 20.538C141.211 21.0071 141.042 21.3057 140.83 21.519C140.575 21.7323 140.236 21.8176 139.812 21.8176H138.201C137.735 21.8176 137.438 21.7323 137.268 21.519C137.098 21.3057 137.056 21.0071 137.141 20.538L137.522 18.4906C137.607 18.0214 137.777 17.7228 137.989 17.5095C138.244 17.2962 138.583 17.2109 139.007 17.2109H140.617C141.084 17.2109 141.381 17.2962 141.55 17.5095C141.72 17.7228 141.763 18.0214 141.678 18.4906L141.296 20.538ZM140.533 18.4906C140.575 18.2346 140.491 18.1067 140.236 18.1067H139.134C138.879 18.1067 138.71 18.2346 138.668 18.4906L138.286 20.538C138.244 20.7939 138.328 20.9218 138.583 20.9218H139.685C139.939 20.9218 140.109 20.7939 140.151 20.538L140.533 18.4906Z" fill="white" fill-opacity="0.7"/>
<path d="M145.281 21.7752H141.719L142.525 17.2539H146.087L145.917 18.1496H143.5L143.33 19.0027H145.239L145.069 19.8984H143.16L142.991 20.8368H145.408L145.281 21.7752Z" fill="white" fill-opacity="0.7"/>
<path d="M92.5798 28.2576C92.4949 28.7269 92.3253 29.0254 92.1129 29.2387C91.8585 29.4519 91.5192 29.5372 91.0952 29.5372H89.4838C89.0178 29.5372 88.7206 29.4519 88.5518 29.2387C88.3821 29.0254 88.3393 28.7269 88.4241 28.2576L88.8054 26.2103C88.8902 25.741 89.0598 25.4425 89.2722 25.2292C89.4838 25.016 89.8659 24.9307 90.2899 24.9307H91.9013C92.3673 24.9307 92.6646 25.016 92.8342 25.2292C93.0038 25.4425 93.0458 25.741 92.961 26.2103L92.5798 28.2576ZM91.7737 26.2103C91.8165 25.9544 91.7317 25.8264 91.4772 25.8264H90.3747C90.1203 25.8264 89.9507 25.9544 89.9079 26.2103L89.5266 28.2576C89.4838 28.5136 89.5686 28.6416 89.8231 28.6416H90.9256C91.18 28.6416 91.3496 28.5136 91.3924 28.2576L91.7737 26.2103Z" fill="white" fill-opacity="0.7"/>
<path d="M94.6582 26.7225H96.1848C96.6516 26.7225 96.9481 26.8078 97.1177 27.0211C97.2873 27.2343 97.3301 27.5329 97.2453 28.0021L97.2025 28.2154C97.1177 28.6845 96.9481 28.9832 96.7365 29.1964C96.482 29.4097 96.1428 29.495 95.7187 29.495H93.0469L93.853 24.9736H97.4149L97.2453 25.8694H94.8278L94.6582 26.7225ZM96.1 28.0021C96.1428 27.7462 96.058 27.6182 95.8036 27.6182H94.5314L94.3618 28.5992H95.6339C95.8884 28.5992 96.058 28.4713 96.1 28.2154V28.0021Z" fill="white" fill-opacity="0.7"/>
<path d="M97.541 29.495L98.3471 24.9736H99.4916L98.8551 28.5992H99.9576L100.594 24.9736H101.739L101.103 28.5992H102.205L102.841 24.9736H103.986L103.35 28.5992H103.817L103.52 30.3481H102.417L102.502 29.495H97.541Z" fill="white" fill-opacity="0.7"/>
<path d="M107.721 29.495H104.159L104.965 24.9736H108.527L108.358 25.8694H105.94L105.771 26.7225H107.679L107.51 27.6182H105.601L105.431 28.5566H107.849L107.721 29.495Z" fill="white" fill-opacity="0.7"/>
<path d="M111.698 29.4097C110.723 29.495 109.917 29.5376 109.324 29.5376C108.9 29.5376 108.603 29.4523 108.434 29.2391C108.264 29.0258 108.221 28.7272 108.306 28.3007L108.688 26.2533C108.773 25.7841 108.942 25.4855 109.154 25.2723C109.408 25.0589 109.748 24.9736 110.172 24.9736H112.462L112.292 25.8694H110.257C110.002 25.8694 109.833 25.9973 109.791 26.2533L109.408 28.3007C109.408 28.386 109.408 28.4713 109.451 28.5566C109.493 28.5992 109.578 28.6419 109.663 28.6419C109.748 28.6419 109.833 28.6419 109.96 28.6419C110.087 28.6419 110.172 28.6419 110.299 28.6419C110.426 28.6419 110.511 28.6419 110.639 28.6419C110.765 28.6419 110.893 28.6419 111.105 28.5992C111.274 28.5992 111.529 28.5566 111.826 28.5566L111.698 29.4097Z" fill="white" fill-opacity="0.7"/>
<path d="M114.37 29.495H113.225L113.861 25.8694H112.505L112.674 24.9736H116.533L116.363 25.8694H115.006L114.37 29.495Z" fill="white" fill-opacity="0.7"/>
<path d="M116.955 24.9736H119.499C119.923 24.9736 120.219 25.0589 120.389 25.2723C120.558 25.4429 120.601 25.7414 120.516 26.1253C120.474 26.3813 120.389 26.5945 120.219 26.7652C120.092 26.9358 119.923 27.0211 119.753 27.1064C120.092 27.1917 120.262 27.4476 120.347 27.7889C120.347 27.9168 120.347 28.0874 120.347 28.258C120.262 28.6845 120.134 28.9832 119.88 29.1964C119.668 29.4097 119.329 29.495 118.905 29.495H116.148L116.955 24.9736ZM119.244 28.0874C119.286 27.8315 119.202 27.7036 118.947 27.7036H117.675L117.505 28.5992H118.778C119.032 28.5992 119.202 28.4713 119.244 28.2154V28.0874ZM119.371 26.2959C119.414 26.04 119.329 25.912 119.075 25.912H117.972L117.803 26.8078H118.905C119.16 26.8078 119.329 26.6798 119.371 26.4239V26.2959Z" fill="white" fill-opacity="0.7"/>
<path d="M124.976 28.2576C124.891 28.7269 124.722 29.0254 124.509 29.2387C124.298 29.4519 123.916 29.5372 123.492 29.5372H121.88C121.414 29.5372 121.117 29.4519 120.948 29.2387C120.779 29.0254 120.736 28.7269 120.821 28.2576L121.202 26.2103C121.287 25.741 121.456 25.4425 121.669 25.2292C121.88 25.016 122.262 24.9307 122.686 24.9307H124.298C124.764 24.9307 125.061 25.016 125.231 25.2292C125.4 25.4425 125.442 25.741 125.357 26.2103L124.976 28.2576ZM124.17 26.2103C124.213 25.9544 124.128 25.8264 123.874 25.8264H122.771C122.517 25.8264 122.347 25.9544 122.304 26.2103L121.923 28.2576C121.88 28.5136 121.965 28.6416 122.22 28.6416H123.322C123.576 28.6416 123.746 28.5136 123.789 28.2576L124.17 26.2103Z" fill="white" fill-opacity="0.7"/>
<path d="M90.8865 37.2147H89.742L90.2081 34.4422L88.1727 37.2147H86.9434L87.7486 32.6934H88.894L88.4271 35.4659L90.4625 32.6934H91.6918L90.8865 37.2147Z" fill="white" fill-opacity="0.7"/>
<path d="M91.5645 36.2763C92.6241 36.3616 93.3874 36.3616 93.8543 36.3616C93.9391 36.3616 94.0239 36.319 94.1087 36.2763C94.1935 36.2337 94.2355 36.1484 94.2355 36.0204L94.2783 35.7645C94.3203 35.5085 94.2355 35.3806 93.9811 35.3806H92.4554L92.6241 34.4849H94.0239C94.2783 34.4849 94.4479 34.3568 94.4899 34.1009L94.5327 33.973C94.5747 33.7171 94.4899 33.5891 94.2355 33.5891H92.2009L92.3705 32.6934H94.7444C95.1684 32.6934 95.4656 32.7787 95.6353 32.9919C95.8049 33.1626 95.8469 33.4612 95.7621 33.845C95.7201 34.1009 95.6353 34.3142 95.4656 34.4849C95.338 34.6555 95.1264 34.7408 94.9568 34.8261C95.296 34.9114 95.4656 35.1673 95.5504 35.5085C95.5504 35.6365 95.5504 35.8071 95.5504 35.9778V36.0631C95.4656 36.4896 95.338 36.7881 95.0836 37.0015C94.872 37.2147 94.5327 37.3 94.1087 37.3C93.3874 37.3 92.5402 37.2574 91.5645 37.1721V36.2763Z" fill="white" fill-opacity="0.7"/>
<path d="M99.9938 36.0204C99.909 36.4896 99.7394 36.7881 99.527 37.0015C99.2734 37.2147 98.9341 37.3 98.5101 37.3H96.8987C96.4319 37.3 96.1354 37.2147 95.9658 37.0015C95.7962 36.7881 95.7534 36.4896 95.8382 36.0204L96.2202 33.973C96.3051 33.5038 96.4747 33.2053 96.6863 32.9919C96.9407 32.7787 97.2799 32.6934 97.704 32.6934H99.3153C99.7814 32.6934 100.079 32.7787 100.248 32.9919C100.418 33.2053 100.46 33.5038 100.375 33.973L99.9938 36.0204ZM99.1885 33.9303C99.2305 33.6744 99.1457 33.5465 98.8913 33.5465H97.7888C97.5344 33.5465 97.3647 33.6744 97.3228 33.9303L96.9407 35.9778C96.8987 36.2337 96.9835 36.3616 97.238 36.3616H98.3405C98.5949 36.3616 98.7645 36.2337 98.8065 35.9778L99.1885 33.9303Z" fill="white" fill-opacity="0.7"/>
<path d="M102.072 34.4422H103.599C104.066 34.4422 104.362 34.5275 104.532 34.7408C104.701 34.954 104.744 35.2526 104.659 35.7218L104.617 35.9351C104.532 36.4043 104.362 36.7028 104.151 36.9161C103.896 37.1294 103.557 37.2147 103.133 37.2147H100.461L101.267 32.6934H104.828L104.659 33.5891H102.242L102.072 34.4422ZM103.514 35.7218C103.557 35.4659 103.472 35.3379 103.218 35.3379H101.945L101.776 36.319H103.048C103.302 36.319 103.472 36.191 103.514 35.9351V35.7218Z" fill="white" fill-opacity="0.7"/>
<path d="M105.771 32.7363H108.443C108.909 32.7363 109.206 32.8216 109.376 33.0349C109.546 33.2481 109.588 33.5467 109.503 34.0159L109.376 34.6557C109.291 35.125 109.122 35.4235 108.909 35.6368C108.655 35.85 108.316 35.9353 107.891 35.9353H106.365L106.153 37.215H105.009L105.771 32.7363ZM108.358 34.0159C108.4 33.76 108.315 33.632 108.061 33.632H106.789L106.535 35.0397H107.807C108.061 35.0397 108.231 34.9116 108.273 34.6557L108.358 34.0159Z" fill="white" fill-opacity="0.7"/>
<path d="M113.056 37.2147H109.494L110.3 32.6934H113.861L113.692 33.5891H111.275L111.106 34.4422H113.014L112.844 35.3379H110.936L110.766 36.2763H113.184L113.056 37.2147Z" fill="white" fill-opacity="0.7"/>
<path d="M115.772 37.2147H114.628L115.263 33.5891H113.906L114.076 32.6934H117.934L117.765 33.5891H116.409L115.772 37.2147Z" fill="white" fill-opacity="0.7"/>
<path d="M117.894 37.2147H116.664L119.166 32.6934H120.438L121.329 37.2147H120.099L119.972 36.4043H118.36L117.894 37.2147ZM118.784 35.5938H119.802L119.548 34.1009L118.784 35.5938Z" fill="white" fill-opacity="0.7"/>
<path d="M123.367 37.2147H122.222L122.858 33.5891H121.501L121.671 32.6934H125.529L125.36 33.5891H124.003L123.367 37.2147Z" fill="white" fill-opacity="0.7"/>
<path d="M128.707 37.2147H125.146L125.951 32.6934H129.513L129.343 33.5891H126.926L126.757 34.4422H128.665L128.495 35.3379H126.629L126.46 36.2763H128.876L128.707 37.2147Z" fill="white" fill-opacity="0.7"/>
<path d="M130.315 37.002C130.102 37.1726 129.891 37.2579 129.636 37.2579C129.382 37.2579 129.127 37.2579 128.915 37.1726L129.085 36.3195H129.382C129.467 36.3195 129.552 36.2769 129.593 36.2342C129.636 36.1916 129.678 36.1063 129.721 36.021L130.484 32.6514H134.046L133.24 37.1726H132.096L132.731 33.547H131.374L130.739 36.2342C130.654 36.6182 130.526 36.8314 130.315 37.002Z" fill="white" fill-opacity="0.7"/>
<path d="M137.568 37.2147H134.006L134.811 32.6934H138.373L138.203 33.5891H135.787L135.617 34.4422H137.525L137.355 35.3379H135.448L135.278 36.2763H137.695L137.568 37.2147Z" fill="white" fill-opacity="0.7"/>
<path d="M140.832 37.2153L141.298 34.4428L139.263 37.2153H138.075L138.881 32.694H140.026L139.56 35.4665L141.595 32.694H142.824L142.019 37.2153H140.832ZM140.535 32.3955C139.984 32.3955 139.771 32.0969 139.856 31.5424L139.899 31.3291H140.747L140.704 31.4997C140.704 31.585 140.704 31.6277 140.747 31.6703C140.789 31.713 140.832 31.7556 140.917 31.7556H141.128C141.213 31.7556 141.256 31.7556 141.298 31.6703C141.341 31.6277 141.383 31.585 141.383 31.4997L141.426 31.3291H142.274L142.231 31.5424C142.146 32.0969 141.807 32.3955 141.256 32.3955H140.535Z" fill="white" fill-opacity="0.7"/>
<path d="M148.589 37.2147H147.401L147.867 34.4422L145.833 37.2147H144.603L145.409 32.6934H146.553L146.087 35.4659L148.122 32.6934H149.352L148.589 37.2147Z" fill="white" fill-opacity="0.7"/>
<path d="M86.4322 40.457H89.1033C89.5701 40.457 89.8666 40.5423 90.0362 40.7557C90.2058 40.9689 90.2486 41.2675 90.1638 41.7367L90.0362 42.3765C89.9514 42.8457 89.7817 43.1442 89.5701 43.3575C89.3157 43.5708 88.9765 43.6561 88.5524 43.6561H87.0259L86.8135 44.9357H85.6689L86.4322 40.457ZM89.0185 41.7367C89.0613 41.4807 88.9765 41.3528 88.722 41.3528H87.4499L87.1955 42.7604H88.4676C88.7221 42.7604 88.8917 42.6324 88.9337 42.3765L89.0185 41.7367Z" fill="white" fill-opacity="0.7"/>
<path d="M90.5876 44.9353H89.3574L91.8589 40.4141H93.131L94.0219 44.9353H92.7918L92.665 44.125H91.0108L90.5876 44.9353ZM91.4348 43.3145H92.4525L92.1981 41.8216L91.4348 43.3145Z" fill="white" fill-opacity="0.7"/>
<path d="M94.3125 44.9353L95.1186 40.4141H96.2631L95.6274 44.0397H97.2388L97.8745 40.4141H99.019L98.3833 44.0397H98.8493L98.5529 45.7885H97.4504L97.5352 44.9353H94.3125Z" fill="white" fill-opacity="0.7"/>
<path d="M103.138 44.9353H101.993L102.46 42.1628L100.425 44.9353H99.1953L100.001 40.4141H101.145L100.679 43.1866L102.714 40.4141H103.944L103.138 44.9353Z" fill="white" fill-opacity="0.7"/>
<path d="M108.141 43.741C108.056 44.2103 107.886 44.5088 107.674 44.7221C107.419 44.9353 107.08 45.0206 106.656 45.0206H105.045C104.579 45.0206 104.281 44.9353 104.112 44.7221C103.942 44.5088 103.9 44.2103 103.985 43.741L104.366 41.6937C104.451 41.2245 104.621 40.9259 104.833 40.7126C105.087 40.4994 105.427 40.4141 105.851 40.4141H107.462C107.928 40.4141 108.225 40.4994 108.395 40.7126C108.565 40.9259 108.607 41.2245 108.522 41.6937L108.141 43.741ZM107.377 41.651C107.419 41.3951 107.334 41.2672 107.08 41.2672H105.977C105.723 41.2672 105.553 41.3951 105.511 41.651L105.129 43.6984C105.087 43.9544 105.172 44.0823 105.427 44.0823H106.529C106.784 44.0823 106.953 43.9544 106.995 43.6984L107.377 41.651Z" fill="white" fill-opacity="0.7"/>
<path d="M112.464 44.9353H111.319L111.658 43.1013H110.047L109.708 44.9353H108.562L109.369 40.4141H110.513L110.217 42.2055H111.828L112.124 40.4141H113.27L112.464 44.9353Z" fill="white" fill-opacity="0.7"/>
<path d="M114.033 44.9353H112.803L115.304 40.4141H116.576L117.467 44.9353H116.237L116.11 44.125H114.499L114.033 44.9353ZM114.923 43.3145H115.941L115.686 41.8216L114.923 43.3145Z" fill="white" fill-opacity="0.7"/>
<path d="M118.868 44.7647C118.656 44.9353 118.444 45.0206 118.189 45.0206C117.935 45.0206 117.68 45.0206 117.469 44.9353L117.638 44.0823H117.935C118.02 44.0823 118.104 44.0397 118.147 43.997C118.189 43.9544 118.232 43.8691 118.274 43.7838L119.037 40.4141H122.599L121.794 44.9353H120.649L121.285 41.3098H119.928L119.292 43.997C119.25 44.3382 119.08 44.5515 118.868 44.7647Z" fill="white" fill-opacity="0.7"/>
<path d="M126.457 44.9353H125.312L125.778 42.1628L123.744 44.9353H122.514L123.32 40.4141H124.464L123.997 43.1866L126.033 40.4141H127.263L126.457 44.9353Z" fill="white" fill-opacity="0.7"/>
<path d="M127.134 44.04C128.194 44.1253 128.957 44.1253 129.424 44.1253C129.508 44.1253 129.593 44.0826 129.678 44.04C129.763 43.9973 129.805 43.912 129.805 43.7841L129.848 43.5282C129.89 43.2722 129.805 43.1442 129.55 43.1442H128.025L128.194 42.2485H129.593C129.848 42.2485 130.017 42.1206 130.059 41.8646L130.102 41.7367C130.144 41.4807 130.059 41.3528 129.805 41.3528H127.77L127.94 40.457H130.314C130.738 40.457 131.035 40.5423 131.205 40.7557C131.374 40.9263 131.416 41.2248 131.331 41.6087C131.289 41.8646 131.205 42.0779 131.035 42.2485C130.907 42.4192 130.696 42.5045 130.526 42.5898C130.865 42.6751 131.035 42.931 131.12 43.2722C131.12 43.4002 131.12 43.5708 131.12 43.7414V43.8267C131.035 44.2532 130.907 44.5518 130.653 44.7651C130.441 44.9784 130.102 45.0637 129.678 45.0637C128.958 45.0637 128.109 45.021 127.134 44.9357V44.04Z" fill="white" fill-opacity="0.7"/>
<path d="M132.134 44.9353H130.904L133.406 40.4141H134.678L135.568 44.9353H134.339L134.211 44.125H132.558L132.134 44.9353ZM132.982 43.3145H133.999L133.745 41.8216L132.982 43.3145Z" fill="white" fill-opacity="0.7"/>
<path d="M137.608 44.9353H136.463L137.099 41.3098H135.742L135.912 40.4141H139.77L139.601 41.3098H138.244L137.608 44.9353Z" fill="white" fill-opacity="0.7"/>
<path d="M143.674 43.741C143.589 44.2103 143.419 44.5088 143.208 44.7221C142.953 44.9353 142.614 45.0206 142.19 45.0206H140.579C140.113 45.0206 139.815 44.9353 139.646 44.7221C139.476 44.5088 139.434 44.2103 139.519 43.741L139.9 41.6937C139.985 41.2245 140.155 40.9259 140.367 40.7126C140.622 40.4994 140.961 40.4141 141.385 40.4141H142.995C143.462 40.4141 143.759 40.4994 143.928 40.7126C144.098 40.9259 144.141 41.2245 144.056 41.6937L143.674 43.741ZM142.869 41.651C142.911 41.3951 142.826 41.2672 142.572 41.2672H141.47C141.215 41.2672 141.046 41.3951 141.003 41.651L140.622 43.6984C140.579 43.9544 140.664 44.0823 140.918 44.0823H142.021C142.275 44.0823 142.445 43.9544 142.487 43.6984L142.869 41.651Z" fill="white" fill-opacity="0.7"/>
<path d="M144.86 40.457H147.532C147.998 40.457 148.294 40.5423 148.464 40.7557C148.634 40.9689 148.676 41.2675 148.592 41.7367L148.464 42.3765C148.379 42.8457 148.209 43.1442 147.998 43.3575C147.743 43.5708 147.404 43.6561 146.98 43.6561H145.454L145.242 44.9357H144.097L144.86 40.457ZM147.447 41.7367C147.489 41.4807 147.404 41.3528 147.15 41.3528H145.878L145.623 42.7604H146.895C147.15 42.7604 147.319 42.6324 147.362 42.3765L147.447 41.7367Z" fill="white" fill-opacity="0.7"/>
<path d="M152.869 43.741C152.784 44.2103 152.615 44.5088 152.403 44.7221C152.149 44.9353 151.809 45.0206 151.385 45.0206H149.774C149.307 45.0206 149.011 44.9353 148.841 44.7221C148.672 44.5088 148.63 44.2103 148.714 43.741L149.096 41.6937C149.18 41.2245 149.35 40.9259 149.562 40.7126C149.816 40.4994 150.155 40.4141 150.579 40.4141H152.191C152.658 40.4141 152.954 40.4994 153.124 40.7126C153.293 40.9259 153.336 41.2245 153.251 41.6937L152.869 43.741ZM152.064 41.651C152.106 41.3951 152.021 41.2672 151.767 41.2672H150.664C150.41 41.2672 150.24 41.3951 150.198 41.651L149.816 43.6984C149.774 43.9544 149.859 44.0823 150.113 44.0823H151.216C151.47 44.0823 151.64 43.9544 151.682 43.6984L152.064 41.651Z" fill="white" fill-opacity="0.7"/>
<path d="M154.097 40.457H156.642C157.066 40.457 157.363 40.5423 157.532 40.7557C157.702 40.9263 157.744 41.2248 157.659 41.6087C157.617 41.8646 157.532 42.0779 157.363 42.2485C157.235 42.4192 157.066 42.5045 156.896 42.5898C157.235 42.6751 157.405 42.931 157.49 43.2722C157.49 43.4002 157.49 43.5708 157.49 43.7414C157.405 44.1679 157.278 44.4665 157.024 44.6798C156.811 44.8931 156.472 44.9784 156.048 44.9784H153.292L154.097 40.457ZM156.345 43.5282C156.387 43.2722 156.302 43.1442 156.048 43.1442H154.776L154.606 44.04H155.878C156.133 44.04 156.302 43.912 156.345 43.6561V43.5282ZM156.472 41.7367C156.515 41.4807 156.43 41.3528 156.175 41.3528H155.073L154.903 42.2485H156.006C156.26 42.2485 156.43 42.1206 156.472 41.8646V41.7367Z" fill="white" fill-opacity="0.7"/>
<path fill-rule="evenodd" clip-rule="evenodd" d="M17.6934 41.1389L21.8488 17.21H82.3989L78.2011 41.1389H17.6934ZM48.6893 20.1102H44.1947C42.9226 20.1102 41.9898 20.4087 41.3114 20.9633C40.6329 21.5177 40.2089 22.4561 39.9969 23.7358L38.9792 29.5367C38.7673 30.8163 38.8944 31.712 39.3609 32.3092C39.8273 32.9064 40.6753 33.1623 41.9474 33.1623H46.442C47.7141 33.1623 48.6469 32.8637 49.3253 32.3092C50.0038 31.7547 50.4278 30.8163 50.6822 29.5367L51.6998 23.7358C51.9118 22.4561 51.7846 21.5604 51.3183 20.9633C50.8094 20.4087 49.9614 20.1102 48.6893 20.1102ZM48.4349 23.7358L47.4172 29.5367C47.29 30.2618 46.866 30.603 46.1452 30.603H43.0923C42.3714 30.603 42.0746 30.2618 42.2018 29.5367L43.2195 23.7358C43.3467 23.0106 43.7706 22.6694 44.4915 22.6694H47.5445C48.2653 22.6694 48.5621 23.0106 48.4349 23.7358ZM24.9442 20.3238H35.3751C36.5623 20.3238 37.368 20.5797 37.7072 21.1769C38.1312 21.6888 38.3008 22.4992 38.0888 23.6082C37.9616 24.3333 37.7072 24.8878 37.3256 25.357C36.944 25.7835 36.4775 26.1248 36.0111 26.2954C36.944 26.5513 37.4952 27.2338 37.6648 28.2575C37.7072 28.5987 37.7072 29.0253 37.6224 29.5371C37.4104 30.7314 36.9864 31.5845 36.3503 32.139C35.7143 32.6935 34.8238 32.9494 33.6366 32.9494H25.9195L27.7003 22.8404H24.4778L24.9442 20.3238ZM34.527 29.3238L34.5694 28.9826C34.6966 28.2575 34.3999 27.8736 33.679 27.8736H30.0748L29.6508 30.3902H33.255C33.9758 30.3902 34.3999 30.049 34.527 29.3238ZM34.8663 24.248L34.9087 23.9068C35.0359 23.1816 34.739 22.8404 34.0182 22.7978H30.9653L30.5413 25.3144H33.5942C34.3151 25.3144 34.739 24.9731 34.8663 24.248ZM55.6673 37.6316C56.0475 37.6606 56.3475 37.6835 56.5337 37.6835C56.6185 37.6835 56.661 37.6835 56.7034 37.6408C56.7458 37.5982 56.7882 37.5555 56.7882 37.4702L56.873 37.0436L56.7618 37.0598C56.5115 37.0965 56.2894 37.1289 56.0674 37.1289H55.7705C55.5585 37.1289 55.4313 37.0863 55.3041 36.9583C55.2193 36.8304 55.1769 36.6598 55.2193 36.4465L55.3041 35.8493C55.3465 35.5934 55.4737 35.3801 55.6009 35.2522C55.7705 35.1242 55.9826 35.0389 56.2793 35.0389H57.1274C57.4242 35.0389 57.6363 35.1242 57.7635 35.2522C57.8906 35.3801 57.8906 35.5934 57.8482 35.8493L57.5514 37.4276C57.509 37.7261 57.3818 37.9394 57.2122 38.0673C57.0426 38.1953 56.8306 38.2806 56.5337 38.2806C56.1923 38.2806 55.8233 38.2529 55.3826 38.2199C55.276 38.2119 55.1652 38.2036 55.0497 38.1953L55.2193 37.5982C55.3781 37.6095 55.5283 37.621 55.6673 37.6316ZM56.4065 36.4891C56.5761 36.4891 56.7458 36.4891 56.9578 36.4465L57.0426 35.9346C57.085 35.764 57.0002 35.6787 56.8306 35.6787H56.4065C56.2369 35.6787 56.1098 35.764 56.0674 35.9346L55.9826 36.3185C55.9826 36.3612 55.9826 36.4038 56.025 36.4465C56.0493 36.471 56.0597 36.4815 56.0722 36.4859C56.0814 36.4891 56.0918 36.4891 56.1098 36.4891H56.4065ZM27.87 38.1101C28.0396 37.9821 28.1668 37.7262 28.2092 37.4276L28.4636 35.9773C28.5484 35.6788 28.506 35.4229 28.3788 35.2949C28.294 35.167 28.0396 35.0817 27.7428 35.0817H26.5979C26.3011 35.0817 26.0467 35.167 25.8771 35.2949C25.7075 35.4229 25.5803 35.6788 25.5379 35.9773L25.2835 37.4276C25.1987 37.7262 25.2411 37.9821 25.3683 38.1101C25.4531 38.238 25.7075 38.3233 26.0043 38.3233H27.1492C27.446 38.3233 27.7004 38.238 27.87 38.1101ZM27.446 35.6788C27.6156 35.6788 27.7004 35.7641 27.658 35.9347L27.4036 37.3849C27.3612 37.5556 27.234 37.6409 27.0644 37.6409H26.3011C26.1316 37.6409 26.0467 37.5556 26.0892 37.3849L26.3435 35.9347C26.3859 35.7641 26.5131 35.6788 26.6827 35.6788H27.446ZM30.2709 38.2608L30.2727 38.2607C30.3727 38.2532 30.4761 38.2455 30.5838 38.2378L30.6262 37.5553C30.4785 37.5667 30.3399 37.5782 30.2113 37.5888C29.8599 37.6178 29.5828 37.6406 29.3965 37.6406C29.3542 37.6406 29.3542 37.6406 29.3118 37.598C29.2694 37.5553 29.2694 37.5126 29.2694 37.47L29.4389 36.5743C29.4389 36.4463 29.5237 36.4037 29.6509 36.4037H30.8383L30.9655 35.8065H29.5237C29.3118 35.8065 29.1422 35.8918 28.9726 36.0197C28.8029 36.1477 28.7181 36.3609 28.6757 36.5743L28.5061 37.6406C28.4637 37.8539 28.5061 38.0245 28.5909 38.1525C28.7181 38.2804 28.8453 38.3231 29.0574 38.3231C29.4387 38.3231 29.8201 38.2946 30.2709 38.2608ZM32.831 36.745L33.0006 35.8492H33.7638L33.3399 38.2805H32.5342L32.7038 37.3847H31.8981L31.7286 38.2805H30.9229L31.3469 35.8492H32.1525L31.9829 36.745H32.831ZM36.0536 38.1524C36.2232 38.0244 36.308 37.8112 36.3504 37.5978L36.52 36.5315C36.5624 36.2756 36.52 36.105 36.4352 35.977C36.308 35.849 36.1384 35.7637 35.9264 35.7637H34.8663C34.6543 35.7637 34.4847 35.849 34.3152 35.977C34.1455 36.105 34.0607 36.3182 34.0183 36.5315L33.8487 37.5978C33.8063 37.8538 33.8063 38.0244 33.9335 38.1524C34.0607 38.2803 34.2304 38.3656 34.4423 38.3656H35.5024C35.7144 38.3656 35.884 38.2803 36.0536 38.1524ZM35.5872 36.4462C35.7144 36.4462 35.7568 36.4889 35.7568 36.6169L35.5872 37.5125C35.5872 37.6405 35.5024 37.6832 35.3752 37.6832H34.8239C34.6967 37.6832 34.6119 37.6405 34.6543 37.5125L34.8239 36.6169C34.8239 36.4889 34.9087 36.4462 35.0359 36.4462H35.5872ZM38.3856 38.2805H36.6471L37.0712 35.8492H38.6401C38.8521 35.8492 38.9792 35.8919 39.1064 36.0198C39.1912 36.1478 39.2336 36.2757 39.2336 36.4038C39.1912 36.5317 39.1488 36.6597 39.064 36.7876C38.9792 36.8729 38.8944 36.9582 38.7673 36.9582C38.8944 37.0009 39.0216 37.0435 39.064 37.1715C39.1488 37.2994 39.1488 37.4274 39.1488 37.598C39.1064 37.7687 39.0216 37.9393 38.8944 38.0672C38.7673 38.1952 38.5553 38.2805 38.3856 38.2805ZM38.3856 37.5127C38.3856 37.47 38.3856 37.4274 38.3432 37.3847C38.3008 37.3421 38.3008 37.3421 38.2584 37.3421H37.6224L37.5375 37.726H38.1736C38.216 37.726 38.2584 37.726 38.3008 37.6833C38.322 37.662 38.3326 37.6406 38.3432 37.6193C38.3539 37.598 38.3644 37.5767 38.3856 37.5553V37.5127ZM38.428 36.5744C38.428 36.5317 38.428 36.4891 38.3856 36.4464C38.3432 36.4037 38.3432 36.4038 38.3008 36.4038H37.792L37.7072 36.8303H38.216C38.2584 36.8303 38.3008 36.8303 38.3432 36.7876C38.3644 36.7663 38.375 36.745 38.3856 36.7236C38.3963 36.7023 38.4068 36.681 38.428 36.6597V36.5744ZM40.0393 35.8819L39.9122 35.8918L39.8274 36.5316C39.9036 36.5316 39.9798 36.523 40.0638 36.5135C40.1665 36.5019 40.2809 36.489 40.421 36.489C40.633 36.4463 40.845 36.4463 41.057 36.4463C41.0994 36.4463 41.0994 36.4463 41.1418 36.489C41.1842 36.5316 41.1842 36.5743 41.1842 36.6169L41.1418 36.7875H40.2089C40.0393 36.7875 39.8274 36.8302 39.7002 36.9581C39.573 37.0861 39.4881 37.2567 39.4457 37.47L39.4033 37.6832C39.3609 37.8966 39.4033 38.0672 39.4881 38.1951C39.6154 38.3231 39.7426 38.3657 39.9546 38.3657H40.1241C40.1862 38.3657 40.271 38.3428 40.3786 38.3138C40.4179 38.3033 40.4603 38.2919 40.5058 38.2804C40.6316 38.2488 40.734 38.1937 40.8478 38.1325C40.8874 38.1113 40.9284 38.0891 40.9722 38.0672V38.2804H41.693L41.9898 36.489C42.0322 36.2756 41.9898 36.105 41.905 35.9771C41.7778 35.8491 41.6506 35.8065 41.4387 35.8065C41.0083 35.8065 40.5419 35.8428 40.0393 35.8819ZM40.8666 37.6196C40.702 37.654 40.5615 37.6832 40.421 37.6832V37.7259H40.2937C40.2513 37.7259 40.2513 37.726 40.2089 37.6832C40.1665 37.6406 40.1665 37.5979 40.1665 37.5553V37.5126C40.1878 37.4913 40.1984 37.47 40.2089 37.4486C40.2196 37.4273 40.2302 37.406 40.2513 37.3847C40.2937 37.342 40.3361 37.342 40.3786 37.342H41.0146L40.9722 37.5979C40.9361 37.6052 40.9005 37.6126 40.8666 37.6196ZM43.9403 36.745L44.11 35.8492H44.9156L44.4916 38.2805H43.686L43.8555 37.3847H43.0499L42.8803 38.2805H42.0747L42.4987 35.8492H43.3044L43.1347 36.745H43.9403ZM47.1628 38.1524C47.3324 38.0244 47.4172 37.8112 47.4596 37.5978L47.6293 36.5315C47.6717 36.2756 47.6293 36.105 47.5445 35.977C47.4172 35.849 47.2476 35.7637 47.0357 35.7637H45.9756C45.7636 35.7637 45.5939 35.849 45.4244 35.977C45.2548 36.105 45.17 36.3182 45.1276 36.5315L44.958 37.5978C44.9156 37.8538 44.9156 38.0244 45.0428 38.1524C45.17 38.2803 45.3396 38.3656 45.5515 38.3656H46.6116C46.8237 38.3656 46.9933 38.2803 47.1628 38.1524ZM46.654 36.4462C46.7813 36.4462 46.8237 36.4889 46.8237 36.6169L46.654 37.5125C46.654 37.6405 46.5692 37.6832 46.442 37.6832H45.8908C45.7636 37.6832 45.6788 37.6405 45.7212 37.5125L45.8908 36.6169C45.8908 36.4889 45.9756 36.4462 46.1028 36.4462H46.654ZM50.8096 38.2805H49.0711L49.4951 35.8492H51.064C51.276 35.8492 51.4032 35.8919 51.5305 36.0198C51.6153 36.1478 51.6577 36.2757 51.6577 36.4038C51.6153 36.5317 51.5729 36.6597 51.488 36.7876C51.4032 36.8729 51.3184 36.9582 51.1912 36.9582C51.3184 37.0009 51.4456 37.0435 51.488 37.1715C51.5729 37.2994 51.5729 37.4274 51.5729 37.598C51.5305 37.7687 51.4456 37.9393 51.3184 38.0672C51.1912 38.1952 51.0216 38.2805 50.8096 38.2805ZM50.852 37.5553C50.8308 37.5767 50.8202 37.598 50.8096 37.6193L50.852 37.5553ZM50.8096 37.6193C50.799 37.6406 50.7884 37.662 50.7672 37.6833L50.8096 37.6193ZM50.7672 37.6833C50.7248 37.726 50.6824 37.726 50.64 37.726L50.7672 37.6833ZM50.7248 37.3421C50.7428 37.3421 50.7531 37.3421 50.7623 37.3454L50.7248 37.3421ZM50.7623 37.3454C50.7748 37.3497 50.7851 37.3602 50.8096 37.3847L50.7623 37.3454ZM50.8944 36.5744C50.8944 36.5317 50.8944 36.4891 50.852 36.4464C50.8096 36.4037 50.8096 36.4038 50.7672 36.4038H50.2583L50.1735 36.8303H50.6824C50.7248 36.8303 50.7672 36.8303 50.8096 36.7876C50.8308 36.7663 50.8414 36.745 50.852 36.7236C50.8626 36.7023 50.8732 36.681 50.8944 36.6597V36.5744ZM54.1169 35.8067L53.6929 38.2807H54.4986L55.0498 35.0817H54.329L53.4385 35.4655L53.5657 35.9773L54.1169 35.8067ZM57.8483 38.2475C58.3937 38.2868 58.9025 38.3236 59.3747 38.3236C59.5356 38.3236 59.684 38.2985 59.8199 38.2756C59.9348 38.2561 60.0409 38.2383 60.1379 38.2383C60.3076 38.1103 60.4348 37.897 60.4772 37.5985V37.5558V37.2145C60.4348 36.916 60.2651 36.788 60.0531 36.7027C60.2227 36.6601 60.35 36.5748 60.4348 36.4468C60.562 36.3615 60.6044 36.1909 60.6468 36.0202C60.6892 35.7643 60.6892 35.5511 60.562 35.4231C60.4348 35.2952 60.2227 35.2099 59.9259 35.2099H58.3994L58.2722 35.8496H59.5868C59.7563 35.8496 59.8411 35.9349 59.7987 36.1055V36.1909C59.7563 36.3615 59.6292 36.4468 59.4595 36.4468H58.6115L58.4843 37.0866H59.4171C59.5868 37.0866 59.6716 37.1719 59.6292 37.3425L59.5868 37.5132C59.5868 37.5985 59.5444 37.6411 59.502 37.6838C59.4595 37.7264 59.4171 37.7264 59.3323 37.7264C59.096 37.7264 58.798 37.7057 58.4094 37.6788C58.2403 37.667 58.054 37.6541 57.8483 37.6411L57.7211 38.2383L57.8483 38.2475ZM63.3182 36.1055C63.2758 36.3614 63.1062 36.5747 62.8941 36.788C62.8517 36.8093 62.8093 36.8413 62.7669 36.8733C62.7245 36.9053 62.6821 36.9372 62.6398 36.9586L61.5373 37.6837H63.0637L62.9365 38.3235H60.4773L60.6469 37.4705L62.4702 36.2761L62.5126 36.0628C62.555 35.8922 62.4702 35.8069 62.3006 35.8069H61.0284L61.1556 35.1671H62.5974C62.8941 35.1671 63.1486 35.2524 63.2334 35.3804C63.3606 35.5083 63.403 35.7642 63.3182 36.0628V36.1055ZM66.8799 36.4463L67.0071 35.8491V35.8065H65.0567L64.6326 38.2378H65.4382L65.735 36.4463H66.8799ZM66.583 37.5981H67.3886L67.2614 38.2805H66.4558L66.583 37.5981ZM55.9402 28.0869L61.5796 20.3238H65.0142L62.8092 32.9494H59.5443L60.9012 25.1864L55.2617 32.9494H51.8271L54.0321 20.3238H57.297L55.9402 28.0869ZM77.3107 21.1769C76.8442 20.6224 75.9962 20.3238 74.7241 20.3238H67.1765L64.9716 32.9494H68.1942L68.8302 29.3238H73.1552C74.4273 29.3238 75.3602 29.0253 76.0385 28.4707C76.717 27.9162 77.141 26.9778 77.3955 25.6982L77.6922 23.9068C77.8618 22.6698 77.777 21.7314 77.3107 21.1769ZM74.4272 23.9068L74.1305 25.6982C74.0033 26.4234 73.5793 26.7646 72.8584 26.7646H69.2543L69.9327 22.7978H73.5369C74.2577 22.8404 74.5545 23.1816 74.4272 23.9068Z" fill="white"/>
</svg>
