<svg width="148" height="38" viewBox="0 0 148 38" fill="none" xmlns="http://www.w3.org/2000/svg">
<g clip-path="url(#clip0_3622_20756)">
<path fill-rule="evenodd" clip-rule="evenodd" d="M18.5499 34.9909H28.5282C28.8708 34.9694 29.4169 34.8195 29.7381 34.6588C30.7231 34.1662 30.8301 33.3522 30.8515 32.3989V0.0635305C30.8515 0.0284435 30.8231 0 30.788 0H0.562554C0.527467 0 0.499023 0.0284435 0.499023 0.0635305V32.3882C0.520436 33.2772 0.606087 34.0591 1.48401 34.5731C1.83732 34.7766 2.42617 34.948 2.8223 34.9801H12.8114L12.9077 34.9909C14.4284 35.117 14.9459 35.8348 15.3095 36.8754C15.3556 37.0074 15.3993 37.1446 15.4422 37.2864C15.4892 37.442 15.5354 37.6031 15.5829 37.7691C15.5916 37.7994 15.6003 37.8298 15.6091 37.8605C15.6126 37.8727 15.6161 37.8849 15.6197 37.8971C15.6372 37.9582 15.723 37.9583 15.7401 37.897C15.7436 37.8845 15.747 37.872 15.7505 37.8595C15.7563 37.8387 15.7621 37.818 15.7679 37.7972C15.8142 37.6302 15.8618 37.459 15.9133 37.2881C15.9549 37.1499 15.9991 37.012 16.0472 36.8766C16.1653 36.5451 16.3072 36.2295 16.4943 35.9655C16.9868 35.2693 17.7256 35.023 18.5499 34.9909ZM15.924 35.5616C16.5885 34.6224 17.5772 34.3294 18.5227 34.2925L18.5363 34.292H28.5035C28.752 34.2719 29.1901 34.1515 29.4255 34.0338C29.7692 33.8619 29.9194 33.6633 30.0066 33.4437C30.1082 33.1879 30.1419 32.8602 30.1527 32.391V0.698835H1.19786V32.3797C1.2087 32.8192 1.23675 33.1321 1.32766 33.384C1.40682 33.6034 1.54114 33.7962 1.83504 33.9688C2.08417 34.1116 2.55013 34.2512 2.85352 34.2813H12.85L12.9755 34.2953C14.1148 34.3917 14.8822 34.797 15.3992 35.5009C15.5054 35.6454 15.5984 35.8001 15.6814 35.9617C15.7542 35.8223 15.8346 35.6877 15.924 35.5616Z" fill="white"/>
<path fill-rule="evenodd" clip-rule="evenodd" d="M4.91987 27.9285L7.36856 30.3771L4.91987 32.8258L2.47119 30.3771L4.91987 27.9285ZM4.91987 30.6807L4.08432 31.5162L4.91987 32.3518L5.75543 31.5162L4.91987 30.6807ZM4.61635 30.3771L3.7808 29.5416L2.94524 30.3771L3.7808 31.2127L4.61635 30.3771ZM4.91987 28.4059L4.08432 29.2415L4.91987 30.077L5.75543 29.2415L4.91987 28.4059ZM6.89107 30.3771L6.05554 29.5416L5.21999 30.3771L6.05554 31.2127L6.89107 30.3771Z" fill="white"/>
<path fill-rule="evenodd" clip-rule="evenodd" d="M26.4472 27.9285L28.8959 30.3771L26.4472 32.8258L23.9985 30.3771L26.4472 27.9285ZM26.4472 30.6807L25.6116 31.5162L26.4472 32.3518L27.2827 31.5162L26.4472 30.6807ZM26.1437 30.3771L25.3082 29.5416L24.4726 30.3771L25.3082 31.2127L26.1437 30.3771ZM26.4472 28.4059L25.6116 29.2415L26.4472 30.077L27.2827 29.2415L26.4472 28.4059ZM28.4184 30.3771L27.5829 29.5416L26.7473 30.3771L27.5829 31.2127L28.4184 30.3771Z" fill="white"/>
<path d="M12.9457 27.4626V31.3957H15.2339H16.2097H18.5012V27.4626H19.0531V27.4687H22.8084V23.0022V22.7221H23.0843H27.1996V18.259V17.979H27.4756H30.8103V18.539H27.7515V23.0022V23.2821H27.4756H23.3602V27.7487V28.0287H23.0843H19.0531V31.6757V31.9557H18.7772H16.2097H15.2339H12.6698H12.3939V31.6757V28.0287H8.35924H8.08333V27.7487V23.2821H3.97134H3.69542V23.0022V18.539H0.633301V17.979H3.97134H4.24727V18.259V22.7221H8.35924H8.63515V23.0022V27.4687H12.3939V27.4626H12.9457Z" fill="white"/>
<path fill-rule="evenodd" clip-rule="evenodd" d="M15.7031 10.1629L13.5068 7.96661L15.7031 5.77026L17.8995 7.96661L15.7031 10.1629ZM15.6451 7.91197C15.6451 7.34579 15.6657 6.7831 15.6997 6.21697C15.7338 6.7831 15.7543 7.34579 15.7543 7.91197C16.3204 7.91197 16.8832 7.93243 17.4493 7.96654C16.8832 8.0006 16.3204 8.02105 15.7543 8.02105C15.7543 8.58724 15.7373 9.14993 15.6997 9.71605C15.6622 9.14993 15.6451 8.58724 15.6451 8.02105C15.079 8.02105 14.5163 8.00403 13.9502 7.96654C14.5163 7.929 15.079 7.91197 15.6451 7.91197Z" fill="white"/>
<path fill-rule="evenodd" clip-rule="evenodd" d="M16.7844 1.55127V3.67596L18.452 1.96393C18.9295 2.1822 19.3763 2.45844 19.7821 2.77902L16.7844 5.85863L17.7291 6.80331L20.6586 3.77486L21.1429 4.24209C21.2997 4.47741 21.4464 4.72296 21.5726 4.97874L19.7617 6.85109H22.1763C22.2308 7.18526 22.2581 7.52972 22.2581 7.87761C22.2581 8.22544 22.2308 8.5699 22.1763 8.90414H20.1231L21.7022 10.507C21.4941 10.9811 21.2281 11.4278 20.9144 11.8337L18.0292 8.90414H17.9542L17.0811 9.77717L19.9083 12.8807C19.5127 13.2081 19.0796 13.4912 18.6123 13.7196L16.7844 11.7143V14.4529C16.7816 14.4526 16.7789 14.4522 16.7762 14.4519C16.7522 14.4488 16.7304 14.4461 16.7059 14.4461H14.6972C14.6727 14.4461 14.6509 14.4488 14.6269 14.4519C14.6242 14.4522 14.6215 14.4526 14.6187 14.4529V11.7143L12.7908 13.7196C12.3235 13.4912 11.8904 13.2081 11.4948 12.8807L14.3221 9.77717L13.449 8.90414H13.3739L10.4888 11.8337C10.1784 11.4278 9.91234 10.9811 9.70091 10.507L11.28 8.90414H9.22685C9.17227 8.5699 9.14502 8.22544 9.14502 7.87761C9.14502 7.52972 9.17227 7.18526 9.22685 6.85109H11.6414L9.83051 4.97874C9.95668 4.72296 10.0999 4.47741 10.2602 4.24209L10.7445 3.77486L13.674 6.80331L14.6187 5.85863L11.621 2.77902C12.0268 2.45503 12.4736 2.1822 12.9511 1.96393L14.6187 3.67596V1.55127H16.7844ZM15.7033 10.357L18.094 7.9663L15.7033 5.57557L13.3126 7.9663L15.7033 10.357Z" fill="white"/>
<path d="M20.8843 22.0825H16.7168V26.3387H20.8843V24.7563H19.4588V24.4221H18.9916V23.9548H19.4588V23.6206H20.8843V22.0825Z" fill="white"/>
<path d="M10.46 22.0825H14.6275V26.3387H10.46V24.7563H11.8855V24.4221H12.3527V23.9548H11.8855V23.6206H10.46V22.0825Z" fill="white"/>
<path d="M16.6122 15.8477H14.8149V29.1585H16.6122V15.8477Z" fill="white"/>
<path d="M16.7037 14.5388H14.6949C14.3744 14.5388 14.1152 14.8015 14.1152 15.1186C14.1152 15.4392 14.3778 15.6984 14.6949 15.6984H16.7037C17.0243 15.6984 17.2835 15.4357 17.2835 15.1186C17.2835 14.798 17.0209 14.5388 16.7037 14.5388Z" fill="white"/>
<path d="M43.3086 14.5287H40.233L39.7463 15.6678H38.5762L41.5896 8.71924H41.9624L44.9758 15.6678H43.7953L43.3086 14.5287ZM41.776 10.7593L40.6266 13.5863H42.9151L41.776 10.7593ZM52.143 14.684V17.1279H51.0453V15.6678H46.4371V17.1279H45.3394V14.684H45.8779C46.2093 14.3871 46.4509 13.8486 46.6028 13.0685C46.7616 12.2884 46.841 11.2011 46.841 9.80656V8.83315H51.2731V14.684H52.143ZM47.0792 14.684H50.1754V9.81692H47.8558C47.8489 12.2539 47.59 13.8763 47.0792 14.684ZM59.7777 8.71924V15.6678H58.68V11.3806L56.7228 13.9487H56.35L54.3825 11.3702V15.6678H53.2848V8.71924H53.668L56.5364 12.5404L59.4049 8.71924H59.7777ZM67.2126 8.71924V15.6678H66.1148V10.8939L61.8795 15.7817H61.4964V8.83315H62.5941V13.5967L66.8295 8.71924H67.2126ZM68.9292 8.83315H70.027V11.5566H73.4646V8.83315H74.5624V15.6678H73.4646V12.5404H70.027V15.6678H68.9292V8.83315ZM82.0076 8.71924V15.6678H80.9098V10.8939L76.6742 15.7817H76.2911V8.83315H77.3889V13.5967L81.6245 8.71924H82.0076ZM86.9032 15.7817C86.2476 15.7817 85.6434 15.6263 85.0913 15.3157C84.5456 15.005 84.1111 14.5804 83.7864 14.0419C83.4688 13.5035 83.3099 12.9063 83.3099 12.2505C83.3099 11.5946 83.4688 10.9974 83.7864 10.459C84.1111 9.92047 84.5456 9.4959 85.0913 9.18523C85.6434 8.87457 86.2476 8.71924 86.9032 8.71924C87.5315 8.71924 88.1014 8.86078 88.6122 9.14381C89.13 9.42684 89.5372 9.80999 89.8339 10.2933L89.0054 10.9042C88.764 10.5245 88.4667 10.2346 88.1147 10.0344C87.7628 9.82727 87.3625 9.72372 86.9134 9.72372C86.4509 9.72372 86.0303 9.8342 85.6504 10.0551C85.2775 10.2691 84.984 10.5694 84.7699 10.956C84.5564 11.3426 84.449 11.7741 84.449 12.2505C84.449 12.7268 84.5564 13.1583 84.7699 13.5449C84.984 13.9315 85.2775 14.2353 85.6504 14.4562C86.0303 14.6702 86.4509 14.7772 86.9134 14.7772C87.3625 14.7772 87.7628 14.6771 88.1147 14.4769C88.4667 14.2698 88.764 13.9764 89.0054 13.5967L89.8339 14.2076C89.5442 14.6909 89.1401 15.0741 88.6224 15.3571C88.1116 15.6401 87.5385 15.7817 86.9032 15.7817ZM92.7518 9.81692H90.4533V8.83315H96.159V9.81692H93.8496V15.6678H92.7518V9.81692ZM97.1844 8.83315H99.6798C100.135 8.83315 100.539 8.92292 100.891 9.10239C101.243 9.275 101.516 9.52004 101.71 9.83763C101.903 10.1552 101.999 10.5177 101.999 10.925C101.999 11.3322 101.903 11.6947 101.71 12.0123C101.516 12.3299 101.243 12.5784 100.891 12.7579C100.539 12.9373 100.135 13.0271 99.6798 13.0271H98.2822V15.6678H97.1844V8.83315ZM99.6595 12.0537C100.046 12.0537 100.342 11.9536 100.55 11.7534C100.764 11.5463 100.871 11.2736 100.871 10.9353C100.871 10.597 100.764 10.3243 100.55 10.1172C100.342 9.91012 100.046 9.80656 99.6595 9.80656H98.2822V12.0537H99.6595ZM106.493 14.5287H103.417L102.931 15.6678H101.76L104.774 8.71924H105.147L108.161 15.6678H106.98L106.493 14.5287ZM104.96 10.7593L103.811 13.5863H106.1L104.96 10.7593ZM114.551 15.6678H109.249V8.83315H110.347V14.684H113.66V8.83315H114.758V14.684H115.618V17.1279H114.551V15.6678ZM122.469 8.71924V15.6678H121.371V10.8939L117.135 15.7817H116.752V8.83315H117.85V13.5967L122.086 8.71924H122.469ZM128.939 8.83315V15.6678H127.841V13.2032H126.712L124.952 15.6678H123.75L125.614 13.0375C125.152 12.8718 124.786 12.6095 124.516 12.2505C124.248 11.8914 124.113 11.4772 124.113 11.0078C124.113 10.5798 124.217 10.2035 124.424 9.87905C124.631 9.54768 124.92 9.29222 125.293 9.11275C125.673 8.92635 126.108 8.83315 126.598 8.83315H128.939ZM127.841 9.80656H126.577C126.17 9.80656 125.845 9.91704 125.604 10.1379C125.363 10.3588 125.241 10.6523 125.241 11.0182C125.241 11.384 125.363 11.6775 125.604 11.8984C125.852 12.1124 126.177 12.2194 126.577 12.2194H127.841V9.80656ZM39.2079 21.8569H43.4329V22.8407H40.3055V28.6915H39.2079V21.8569ZM47.5139 28.8054C46.8581 28.8054 46.254 28.6501 45.7017 28.3394C45.1563 28.0287 44.7248 27.6042 44.4073 27.0657C44.0897 26.5272 43.9309 25.93 43.9309 25.2742C43.9309 24.6184 44.0897 24.0212 44.4073 23.4827C44.7317 22.9442 45.1666 22.5196 45.712 22.209C46.2575 21.8983 46.8581 21.743 47.5139 21.743C48.1629 21.743 48.7635 21.8983 49.3157 22.209C49.868 22.5196 50.3029 22.9442 50.6205 23.4827C50.945 24.0212 51.1072 24.6184 51.1072 25.2742C51.1072 25.93 50.945 26.5272 50.6205 27.0657C50.3029 27.6042 49.868 28.0287 49.3157 28.3394C48.7635 28.6501 48.1629 28.8054 47.5139 28.8054ZM47.5242 27.8009C47.9868 27.8009 48.4045 27.6939 48.7773 27.4799C49.1501 27.259 49.4434 26.9552 49.6575 26.5686C49.8715 26.182 49.9785 25.7471 49.9785 25.2638C49.9785 24.7944 49.8715 24.3663 49.6575 23.9798C49.4434 23.5932 49.1501 23.2929 48.7773 23.0788C48.4045 22.8579 47.9868 22.7475 47.5242 22.7475C47.0548 22.7475 46.6337 22.8579 46.2609 23.0788C45.8881 23.2929 45.5947 23.5932 45.3807 23.9798C45.1736 24.3595 45.07 24.7875 45.07 25.2638C45.07 25.7471 45.1736 26.182 45.3807 26.5686C45.5947 26.9552 45.8881 27.259 46.2609 27.4799C46.6337 27.6939 47.0548 27.8009 47.5242 27.8009ZM52.4252 21.8569H54.9209C55.3765 21.8569 55.7804 21.9467 56.1325 22.1261C56.4846 22.2987 56.7573 22.5438 56.9506 22.8614C57.1438 23.179 57.2405 23.5414 57.2405 23.9487C57.2405 24.356 57.1438 24.7184 56.9506 25.036C56.7573 25.3536 56.4846 25.6021 56.1325 25.7816C55.7804 25.9611 55.3765 26.0509 54.9209 26.0509H53.5229V28.6915H52.4252V21.8569ZM54.9002 25.0774C55.2868 25.0774 55.5837 24.9773 55.7908 24.7771C56.0047 24.57 56.1118 24.2973 56.1118 23.9591C56.1118 23.6208 56.0047 23.3481 55.7908 23.141C55.5837 22.9339 55.2868 22.8303 54.9002 22.8303H53.5229V25.0774H54.9002ZM61.6313 28.8054C60.9754 28.8054 60.3714 28.6501 59.8191 28.3394C59.2737 28.0287 58.8422 27.6042 58.5247 27.0657C58.2071 26.5272 58.0483 25.93 58.0483 25.2742C58.0483 24.6184 58.2071 24.0212 58.5247 23.4827C58.8491 22.9442 59.2841 22.5196 59.8295 22.209C60.3748 21.8983 60.9754 21.743 61.6313 21.743C62.2802 21.743 62.8808 21.8983 63.4332 22.209C63.9854 22.5196 64.4204 22.9442 64.7381 23.4827C65.0627 24.0212 65.2247 24.6184 65.2247 25.2742C65.2247 25.93 65.0627 26.5272 64.7381 27.0657C64.4204 27.6042 63.9854 28.0287 63.4332 28.3394C62.8808 28.6501 62.2802 28.8054 61.6313 28.8054ZM61.6417 27.8009C62.1042 27.8009 62.5219 27.6939 62.8947 27.4799C63.2675 27.259 63.5609 26.9552 63.7749 26.5686C63.9889 26.182 64.0958 25.7471 64.0958 25.2638C64.0958 24.7944 63.9889 24.3663 63.7749 23.9798C63.5609 23.5932 63.2675 23.2929 62.8947 23.0788C62.5219 22.8579 62.1042 22.7475 61.6417 22.7475C61.1722 22.7475 60.7511 22.8579 60.3783 23.0788C60.0055 23.2929 59.7121 23.5932 59.4981 23.9798C59.291 24.3595 59.1874 24.7875 59.1874 25.2638C59.1874 25.7471 59.291 26.182 59.4981 26.5686C59.7121 26.9552 60.0055 27.259 60.3783 27.4799C60.7511 27.6939 61.1722 27.8009 61.6417 27.8009ZM72.4291 27.7077V30.1516H71.3313V28.6915H66.7234V30.1516H65.6256V27.7077H66.1643C66.4953 27.4109 66.7374 26.8724 66.8892 26.0923C67.048 25.3122 67.1268 24.2249 67.1268 22.8303V21.8569H71.5593V27.7077H72.4291ZM67.3651 27.7077H70.4615V22.8407H68.142C68.1351 25.2776 67.8765 26.9 67.3651 27.7077ZM77.6716 27.5524H74.5961L74.1095 28.6915H72.9392L75.9525 21.743H76.3254L79.3393 28.6915H78.1583L77.6716 27.5524ZM76.1393 23.783L74.99 26.61H77.2784L76.1393 23.783ZM89.3072 21.743V28.6915H88.2094V24.4043L86.252 26.9725H85.8791L83.9116 24.394V28.6915H82.8138V21.743H83.1975L86.0659 25.5641L88.9343 21.743H89.3072ZM96.7416 21.743V28.6915H95.6444V23.9176L91.4088 28.8054H91.0257V21.8569H92.1235V26.6204L96.3585 21.743H96.7416ZM98.4588 21.8569H100.954C101.41 21.8569 101.814 21.9467 102.166 22.1261C102.518 22.2987 102.79 22.5438 102.984 22.8614C103.177 23.179 103.274 23.5414 103.274 23.9487C103.274 24.356 103.177 24.7184 102.984 25.036C102.79 25.3536 102.518 25.6021 102.166 25.7816C101.814 25.9611 101.41 26.0509 100.954 26.0509H99.5559V28.6915H98.4588V21.8569ZM100.933 25.0774C101.32 25.0774 101.617 24.9773 101.824 24.7771C102.038 24.57 102.145 24.2973 102.145 23.9591C102.145 23.6208 102.038 23.3481 101.824 23.141C101.617 22.9339 101.32 22.8303 100.933 22.8303H99.5559V25.0774H100.933ZM104.496 21.8569H105.593V24.5804H109.032V21.8569H110.129V28.6915H109.032V25.5641H105.593V28.6915H104.496V21.8569ZM111.858 21.8569H112.956V24.3836H114.333C114.802 24.3836 115.216 24.4768 115.576 24.6632C115.941 24.8427 116.224 25.0947 116.425 25.4192C116.625 25.7436 116.725 26.1164 116.725 26.5376C116.725 26.9587 116.625 27.3315 116.425 27.656C116.224 27.9804 115.945 28.2359 115.586 28.4223C115.227 28.6017 114.809 28.6915 114.333 28.6915H111.858V21.8569ZM114.322 27.7181C114.723 27.7181 115.034 27.6111 115.254 27.3971C115.482 27.1762 115.596 26.8896 115.596 26.5376C115.596 26.1855 115.482 25.9024 115.254 25.6884C115.034 25.4675 114.723 25.357 114.322 25.357H112.956V27.7181H114.322ZM117.937 21.8569H119.034V28.6915H117.937V21.8569ZM126.483 21.743V28.6915H125.386V23.9176L121.151 28.8054H120.767V21.8569H121.865V26.6204L126.1 21.743H126.483ZM123.708 21.2045C123.211 21.2045 122.807 21.0457 122.497 20.7281C122.193 20.4106 122.041 19.9929 122.041 19.4751V19.268H122.931V19.5062C122.931 19.7892 122.997 20.0136 123.128 20.1793C123.266 20.3381 123.46 20.4175 123.708 20.4175C123.957 20.4175 124.15 20.3381 124.288 20.1793C124.426 20.0205 124.495 19.7962 124.495 19.5062V19.268H125.396V19.4751C125.396 19.9929 125.241 20.4106 124.93 20.7281C124.619 21.0457 124.212 21.2045 123.708 21.2045Z" fill="white"/>
</g>
<defs>
<clipPath id="clip0_3622_20756">
<rect width="146.755" height="37.9912" fill="white" transform="translate(0.5)"/>
</clipPath>
</defs>
</svg>
