<svg width="16" height="16" viewBox="0 0 16 16" fill="none" xmlns="http://www.w3.org/2000/svg">
<g opacity="0.8">
<rect x="7" y="3" width="2" height="6" rx="1" fill="black"/>
<rect x="10.2822" y="5.58594" width="2" height="3.9455" rx="1" transform="rotate(56.2887 10.2822 5.58594)" fill="black"/>
<mask id="path-3-inside-1" fill="white">
<path d="M16 8C16 12.4183 12.4183 16 8 16C3.58172 16 0 12.4183 0 8C0 3.58172 3.58172 0 8 0C12.4183 0 16 3.58172 16 8ZM1.96835 8C1.96835 11.3312 4.66881 14.0317 8 14.0317C11.3312 14.0317 14.0317 11.3312 14.0317 8C14.0317 4.66881 11.3312 1.96835 8 1.96835C4.66881 1.96835 1.96835 4.66881 1.96835 8Z"/>
</mask>
<path d="M16 8C16 12.4183 12.4183 16 8 16C3.58172 16 0 12.4183 0 8C0 3.58172 3.58172 0 8 0C12.4183 0 16 3.58172 16 8ZM1.96835 8C1.96835 11.3312 4.66881 14.0317 8 14.0317C11.3312 14.0317 14.0317 11.3312 14.0317 8C14.0317 4.66881 11.3312 1.96835 8 1.96835C4.66881 1.96835 1.96835 4.66881 1.96835 8Z" fill="black" stroke="black" stroke-width="4" mask="url(#path-3-inside-1)"/>
</g>
</svg>
