<svg width="120" height="40" viewBox="0 0 120 40" fill="none" xmlns="http://www.w3.org/2000/svg">
<g id="Frame 1321317112" clip-path="url(#clip0_1614_6646)">
<g id="Group 2024">
<path id="Vector" fill-rule="evenodd" clip-rule="evenodd" d="M62.958 8.87206H64.6056L64.0058 6.69519H63.6301L62.958 8.87206ZM64.9453 10.004H62.6328L62.1414 11.673H60.8984L62.8207 5.4834H64.7863L66.723 11.673H65.4511L64.9453 10.004Z" fill="#F1F3F5"/>
<path id="Vector_2" fill-rule="evenodd" clip-rule="evenodd" d="M68.8723 6.62249V11.6583H67.5859V5.46875H72.0375V6.62249H68.8723Z" fill="#F1F3F5"/>
<path id="Vector_3" fill-rule="evenodd" clip-rule="evenodd" d="M77.6947 10.5046V11.6583H73.0625V5.46875H77.6008V6.62249H74.3416V7.92861H76.8781V9.05333H74.3416V10.5046H77.6947Z" fill="#F1F3F5"/>
<path id="Vector_4" fill-rule="evenodd" clip-rule="evenodd" d="M84.2099 5.46875V11.6583H82.9236V9.06784H80.1848V11.6583H78.8984V5.46875H80.1848V7.88508H82.9236V5.46875H84.2099Z" fill="#F1F3F5"/>
<path id="Vector_5" fill-rule="evenodd" clip-rule="evenodd" d="M90.0365 6.60798H88.1142V11.6583H86.8207V6.60798H84.8984V5.46875H90.0365V6.60798Z" fill="#F1F3F5"/>
<path id="Vector_6" fill-rule="evenodd" clip-rule="evenodd" d="M96.0318 9.75741C95.9489 10.3641 95.6391 10.9163 95.1652 11.3018C94.6914 11.6873 94.0891 11.8771 93.4808 11.8327C91.6092 11.8327 90.5469 10.5266 90.5469 8.65446C90.5469 6.78235 91.6164 5.46897 93.4808 5.46897C94.0562 5.42427 94.6278 5.59315 95.0874 5.94358C95.5469 6.29401 95.8624 6.80161 95.974 7.3701H94.6371C94.5562 7.13453 94.3973 6.93395 94.1868 6.80189C93.9764 6.66982 93.7272 6.61426 93.4808 6.64448C92.3824 6.64448 91.8621 7.537 91.8621 8.68348C91.8621 9.82997 92.3824 10.7152 93.4808 10.7152C93.7632 10.7417 94.0451 10.661 94.2712 10.4891C94.4972 10.3172 94.651 10.0665 94.7021 9.78643L96.0318 9.75741Z" fill="#F1F3F5"/>
<path id="Vector_7" fill-rule="evenodd" clip-rule="evenodd" d="M101.692 6.60798H99.7627V11.6583H98.4763V6.60798H96.5469V5.46875H101.692V6.60798Z" fill="#F1F3F5"/>
<path id="Vector_8" fill-rule="evenodd" clip-rule="evenodd" d="M106.353 9.79347C106.353 9.27827 106.035 9.0098 105.37 9.0098H103.845V10.5554H105.348C105.999 10.5554 106.353 10.3159 106.353 9.82975V9.79347ZM106.179 7.2683C106.179 6.81116 105.883 6.58621 105.298 6.58621H103.853V7.9649H105.298C105.883 7.9649 106.172 7.7327 106.172 7.23927L106.179 7.2683ZM107.683 9.87329C107.683 10.9037 107.011 11.6656 105.515 11.6656H102.516V5.46875H105.406C106.786 5.46875 107.451 6.19438 107.451 7.10866C107.47 7.35689 107.418 7.60529 107.303 7.82583C107.188 8.04636 107.014 8.23025 106.801 8.35673V8.53088C107.053 8.64954 107.265 8.83864 107.412 9.07546C107.56 9.31229 107.636 9.58679 107.632 9.86603" fill="#F1F3F5"/>
<path id="Vector_9" fill-rule="evenodd" clip-rule="evenodd" d="M113.222 8.65424C113.222 7.51501 112.694 6.61524 111.538 6.61524C110.382 6.61524 109.862 7.51501 109.862 8.65424C109.862 9.79347 110.396 10.686 111.538 10.686C112.68 10.686 113.222 9.78621 113.222 8.65424ZM114.537 8.65424C114.537 10.4538 113.489 11.8325 111.538 11.8325C109.587 11.8325 108.539 10.4538 108.539 8.65424C108.539 6.85469 109.594 5.46875 111.538 5.46875C113.482 5.46875 114.537 6.84743 114.537 8.65424Z" fill="#F1F3F5"/>
<path id="Vector_10" fill-rule="evenodd" clip-rule="evenodd" d="M62.5914 16.8164V21.1411H62.7648L65.0556 16.8164H66.725V22.9987H65.5254V18.5797H65.3592L63.0105 22.9987H61.4062V16.8164H62.5914Z" fill="#F1F3F5"/>
<path id="Vector_11" fill-rule="evenodd" clip-rule="evenodd" d="M73.5771 16.8164V22.9987H72.2908V20.4082H69.5592V22.9987H68.2656V16.8164H69.5592V19.2255H72.2908V16.8164H73.5771Z" fill="#F1F3F5"/>
<path id="Vector_12" fill-rule="evenodd" clip-rule="evenodd" d="M80.2646 16.8164V22.9987H78.9783V20.4082H76.2394V22.9987H74.9531V16.8164H76.2394V19.2255H78.9783V16.8164H80.2646Z" fill="#F1F3F5"/>
<path id="Vector_13" fill-rule="evenodd" clip-rule="evenodd" d="M85.9724 19.9945C85.9724 18.8625 85.4449 17.9555 84.2959 17.9555C83.1469 17.9555 82.6121 18.8625 82.6121 19.9945C82.6121 21.1265 83.1469 22.0335 84.2959 22.0335C85.4449 22.0335 85.9724 21.1265 85.9724 19.9945ZM87.2949 19.9945C87.2949 21.8013 86.2398 23.1727 84.2959 23.1727C82.3519 23.1727 81.2969 21.8013 81.2969 19.9945C81.2969 18.1877 82.3447 16.8525 84.2959 16.8525C86.247 16.8525 87.2949 18.224 87.2949 20.0308" fill="#F1F3F5"/>
<path id="Vector_14" fill-rule="evenodd" clip-rule="evenodd" d="M92.2994 21.141C92.2994 20.6185 91.9742 20.35 91.3094 20.35H89.7846V21.9319H91.2949C91.9381 21.9319 92.2994 21.6852 92.2994 21.2063V21.141ZM92.1187 18.6376C92.1187 18.1804 91.8224 17.9555 91.2371 17.9555H89.7918V19.3342H91.2371C91.8224 19.3342 92.1043 19.1092 92.1043 18.6085L92.1187 18.6376ZM93.6363 21.2063C93.6363 22.2367 92.9642 22.9986 91.4684 22.9986H88.4766V16.8525H91.3672C92.7474 16.8525 93.4195 17.5782 93.4195 18.4852C93.4362 18.734 93.3835 18.9826 93.2673 19.2031C93.1512 19.4235 92.9762 19.6071 92.7619 19.7333V19.9074C93.0162 20.0171 93.2338 20.1978 93.3888 20.4281C93.5438 20.6583 93.6297 20.9284 93.6363 21.2063Z" fill="#F1F3F5"/>
<path id="Vector_15" fill-rule="evenodd" clip-rule="evenodd" d="M96.2074 20.1977H97.855L97.2191 18.0208H96.8433L96.2074 20.1977ZM98.1947 21.3296H95.8822L95.3908 22.9986H94.1406L96.0701 16.8525H98.0285L99.9652 23.0349H98.6933L98.1947 21.3296Z" fill="#F1F3F5"/>
<path id="Vector_16" fill-rule="evenodd" clip-rule="evenodd" d="M105.59 23.0287H100.828V16.8174H102.1V21.8677H104.687V16.8174H105.959V21.8677H106.826V24.5525H105.59V23.0287Z" fill="#F1F3F5"/>
<path id="Vector_17" fill-rule="evenodd" clip-rule="evenodd" d="M109.044 16.8164V21.1411H109.21L111.501 16.8164H113.17V22.9987H111.971V18.5797H111.804L109.456 22.9987H107.852V16.8164H109.044Z" fill="#F1F3F5"/>
<path id="Vector_18" fill-rule="evenodd" clip-rule="evenodd" d="M118.973 15.2627C118.894 15.6333 118.691 15.9656 118.398 16.204C118.105 16.4425 117.739 16.5725 117.361 16.5725C116.984 16.5725 116.618 16.4425 116.325 16.204C116.031 15.9656 115.828 15.6333 115.75 15.2627H116.689C116.698 15.342 116.723 15.4188 116.761 15.4885C116.8 15.5582 116.852 15.6195 116.915 15.6687C116.977 15.718 117.049 15.7544 117.126 15.7756C117.202 15.7968 117.282 15.8025 117.361 15.7924C117.52 15.809 117.679 15.7629 117.804 15.6641C117.93 15.5652 118.012 15.4213 118.033 15.2627H118.973ZM115.894 16.8881V21.162H116.039L118.337 16.8881H119.999V22.9978H118.807V18.6441H118.633L116.292 22.9978H114.688V16.8881H115.894Z" fill="#F1F3F5"/>
<path id="Vector_19" fill-rule="evenodd" clip-rule="evenodd" d="M61.4062 28.333H63.4224L64.4269 30.8001H64.6004L65.5976 28.333H67.5777V34.5226H66.3781V29.6899H66.2046L65.0845 32.4473H63.9066L62.7865 29.6899H62.6131V34.5226H61.4062V28.333Z" fill="#F1F3F5"/>
<path id="Vector_20" fill-rule="evenodd" clip-rule="evenodd" d="M73.2849 31.3648C73.2849 30.2328 72.7646 29.333 71.6084 29.333C70.4521 29.333 69.9246 30.2328 69.9246 31.3648C69.9246 32.4967 70.4594 33.4038 71.6084 33.4038C72.7574 33.4038 73.2849 32.504 73.2849 31.3648ZM74.6074 31.3648C74.6074 33.1716 73.5523 34.5502 71.6084 34.5502C69.6644 34.5502 68.6094 33.1716 68.6094 31.3648C68.6094 29.558 69.6572 28.1865 71.6084 28.1865C73.5595 28.1865 74.6074 29.5652 74.6074 31.3648Z" fill="#F1F3F5"/>
<path id="Vector_21" fill-rule="evenodd" clip-rule="evenodd" d="M80.9537 32.4469C80.8708 33.0535 80.5609 33.6057 80.0871 33.9912C79.6132 34.3767 79.011 34.5666 78.4027 34.5221C76.531 34.5221 75.4688 33.216 75.4688 31.3367C75.4688 29.4573 76.5455 28.1584 78.4027 28.1584C78.978 28.1137 79.5497 28.2826 80.0093 28.633C80.4688 28.9835 80.7843 29.4911 80.8958 30.0596H79.559C79.4781 29.824 79.3191 29.6234 79.1087 29.4913C78.8983 29.3593 78.649 29.3037 78.4027 29.3339C77.3043 29.3339 76.784 30.2264 76.784 31.3657C76.784 32.5049 77.3043 33.4047 78.4027 33.4047C78.6851 33.4311 78.967 33.3504 79.193 33.1785C79.4191 33.0066 79.5728 32.7559 79.624 32.4759L80.9537 32.4469Z" fill="#F1F3F5"/>
<path id="Vector_22" fill-rule="evenodd" clip-rule="evenodd" d="M82.1484 28.333H83.442V30.7493H84.8728L86.0435 28.333H87.3805L85.9568 31.3371L87.4599 34.5226H86.123L84.8801 31.9176H83.442V34.5226H82.1484V28.333Z" fill="#F1F3F5"/>
<path id="Vector_23" fill-rule="evenodd" clip-rule="evenodd" d="M92.1258 32.6573C92.1258 32.1349 91.8006 31.8664 91.1429 31.8664H89.6182V33.4192H91.1213C91.7717 33.4192 92.1258 33.1725 92.1258 32.6936V32.6573ZM91.9523 30.1249C91.9523 29.6677 91.656 29.4428 91.0707 29.4428H89.6254V30.8215H91.0707C91.656 30.8215 91.9451 30.5965 91.9451 30.0959L91.9523 30.1249ZM93.4482 32.7299C93.4482 33.7602 92.7834 34.5294 91.2803 34.5294H88.2812V28.3398H91.1719C92.5521 28.3398 93.217 29.0655 93.217 29.9797C93.2322 30.2266 93.1795 30.4728 93.0648 30.6916C92.9502 30.9104 92.7778 31.0934 92.5666 31.2206V31.3657C92.817 31.4854 93.0278 31.6749 93.1739 31.9117C93.32 32.1484 93.3951 32.4224 93.3904 32.7008" fill="#F1F3F5"/>
<path id="Vector_24" fill-rule="evenodd" clip-rule="evenodd" d="M100.051 34.5153H101.337V28.333H100.051V34.5153ZM98.0349 32.4763C98.0349 31.8958 97.7242 31.562 96.8642 31.562H95.8019V33.3833H96.8932C97.7531 33.3833 98.0638 33.0641 98.0638 32.4763H98.0349ZM94.5156 34.5153V28.333H95.8019V30.4301H97.0955C98.5408 30.4301 99.3863 31.1992 99.3863 32.4618C99.3863 33.7244 98.5408 34.5153 97.0955 34.5153H94.5156Z" fill="#F1F3F5"/>
<path id="Vector_25" fill-rule="evenodd" clip-rule="evenodd" d="M10.3088 35.5442C10.2125 35.691 10.0663 35.7976 9.89748 35.8443C9.72868 35.8911 9.54872 35.8746 9.39107 35.7981C9.28625 35.6866 9.22491 35.5409 9.21828 35.3877C9.21164 35.2344 9.26014 35.0839 9.35492 34.9637C9.20102 34.9994 9.06506 35.0895 8.97192 35.2176C8.88737 35.4089 8.87182 35.6237 8.92796 35.8252C8.9841 36.0267 9.10842 36.2022 9.27952 36.3216C9.45062 36.441 9.6578 36.4968 9.86544 36.4794C10.0731 36.462 10.2682 36.3725 10.4172 36.2263C10.4965 36.107 10.5387 35.9669 10.5387 35.8235C10.5387 35.6802 10.4965 35.5401 10.4172 35.4208C10.395 35.4663 10.3657 35.5079 10.3305 35.5442H10.3088ZM23.9308 11.9541C23.7853 11.7618 23.6807 11.5414 23.6235 11.3067C23.5663 11.0721 23.5578 10.8281 23.5984 10.59C23.4321 10.887 23.3418 11.2207 23.3355 11.5614C23.3292 11.902 23.4071 12.2389 23.5623 12.5419C24.0537 13.2675 24.5017 13.3401 24.8919 14.0947C24.9197 13.8937 24.879 13.6891 24.7763 13.5142C24.6245 13.2095 24.5595 12.9482 24.9281 12.8467C25.947 12.5419 26.9009 14.0294 27.4646 14.0004C27.6847 13.9829 27.8947 13.8996 28.0673 13.7612C28.2398 13.6228 28.3672 13.4357 28.4329 13.224C28.1583 13.3961 27.8387 13.482 27.5152 13.4707C26.7202 13.3691 26.3445 12.4693 25.4484 12.2879C24.8775 12.1718 24.3933 12.4113 23.9091 11.9469L23.9308 11.9541ZM23.3671 28.4621C23.0998 28.8539 23.3021 29.4054 24.0103 29.6158C24.5211 29.7331 24.9922 29.9834 25.3761 30.3414C25.8314 30.7986 26.0482 30.8566 26.1566 30.8566L6.64498 3.67477L6.38483 3.86344C6.38483 3.86344 17.6582 19.5514 22.6662 26.5319C22.8541 26.7931 23.6129 28.1501 23.3888 28.4984L23.3671 28.4621ZM23.3093 29.7392C22.5867 29.7392 21.7195 30.0222 20.8595 29.224C20.5679 28.931 20.1917 28.7376 19.7845 28.6711C19.3772 28.6047 18.9595 28.6687 18.5904 28.8539C18.5904 28.8539 19.3131 29.5795 18.9156 29.8843C18.2508 30.3777 18.7422 30.9582 18.6771 31.1832C18.6121 31.4081 17.9545 31.4517 16.8344 30.9365C16.3358 30.7047 15.7794 30.6289 15.2373 30.7188C14.9483 30.7623 15.0422 30.98 15.1072 31.038C15.1723 31.0961 15.577 31.4662 15.7576 31.5895C15.9383 31.7129 16.2779 31.9959 16.4225 31.8943C16.567 31.7927 16.2635 31.2412 16.2635 31.2412C17.2288 31.5754 18.2232 31.8184 19.2336 31.9668C20.1297 31.9668 19.2914 30.4721 19.9924 30.3995C20.3537 30.3995 20.7945 30.9219 21.5244 31.0235C22.0384 31.0383 22.55 30.9469 23.0275 30.7551C23.5623 30.6244 23.7501 31.2848 23.8369 31.8725C23.8484 32.0516 23.8951 32.2267 23.9742 32.3877C24.1476 31.546 24.3788 29.6956 23.3093 29.7247V29.7392ZM28.8882 31.4517C28.5991 30.668 28.0427 31.009 27.797 30.9219C27.5513 30.8349 27.2261 30.5229 27.1177 29.6884C27.0093 28.8539 26.3083 29.3038 26.3083 29.3038C26.3083 29.3038 27.1249 30.951 27.4574 31.829C27.7898 32.707 28.0644 32.0249 28.4691 32.5038C28.8738 32.9827 28.8232 35.4498 28.5919 36.248C28.3291 37.1546 27.7909 37.9562 27.0527 38.541C27.6236 38.4757 28.6786 37.351 28.9821 36.6181C29.1851 36.1041 29.2354 35.542 29.1267 35L29.6036 34.9564L29.3073 34.2308L29.7698 34.1582C29.7698 34.1582 29.1773 32.2716 28.8882 31.4879V31.4517ZM9.90414 33.048C9.30527 32.8916 8.68165 32.8546 8.0686 32.9392C7.50979 33.0798 6.93856 33.1649 6.36315 33.1931C6.10572 33.193 5.85118 33.1387 5.61593 33.0337C5.38069 32.9287 5.16996 32.7754 4.99733 32.5836C4.85495 32.4075 4.74263 32.2089 4.66492 31.9959C5.04308 31.309 5.62366 30.7564 6.32701 30.414C9.46332 28.658 8.4227 26.6843 8.22759 24.3986C8.14227 23.9139 8.1627 23.4163 8.28746 22.9402C8.41222 22.4642 8.63835 22.021 8.95024 21.6412C9.60178 21.1625 10.3989 20.9265 11.2049 20.9736C10.1323 20.4024 8.89088 20.2376 7.70728 20.5092C6.1608 20.9591 5.87897 22.0838 5.61159 22.882C5.49275 23.3596 5.25747 23.8 4.92696 24.1635C4.59644 24.5271 4.18108 24.8023 3.71825 24.9646C1.42021 25.9297 1.55029 27.751 1.55029 27.751C1.55029 27.751 0.719243 25.9514 2.95224 24.4421C5.78503 22.5192 4.69383 21.039 5.6405 20.1537C6.36315 19.4716 7.26645 19.5804 8.62504 19.9505C8.37933 19.6603 4.78777 18.1437 4.36863 21.3582C4.01453 24.0938 1.41299 23.7092 0.964944 26.2852C0.646977 28.1065 2.36689 29.6376 2.36689 29.6376C2.36689 29.6376 0.993849 26.873 3.69657 25.7555C5.56101 24.9863 6.63054 24.0938 6.90514 23.2158C6.90514 23.4988 6.90514 23.7963 6.90514 24.1229C6.90514 25.3637 7.51938 26.2997 7.33872 28.063C7.24477 29.0208 5.50319 29.9786 4.52761 30.9655C4.55404 30.5348 4.68289 30.1168 4.90338 29.7464C5.21493 29.3655 5.48844 28.9548 5.71998 28.5201C5.90388 28.1189 5.96185 27.6709 5.8862 27.2358C5.83534 26.9803 5.74254 26.7351 5.61159 26.5102L5.48152 26.5609C5.61351 26.8538 5.6757 27.1735 5.66315 27.4947C5.65061 27.8159 5.56368 28.1297 5.40925 28.4113C5.15457 28.8136 4.86174 29.1903 4.53485 29.536C4.1881 30.0177 3.98732 30.5897 3.95671 31.1832C3.94595 31.385 3.96052 31.5873 4.00007 31.7854C3.86573 32.2909 3.83297 32.8181 3.90369 33.3363C3.97442 33.8546 4.14721 34.3535 4.41199 34.804C4.84558 35.5297 5.25749 36.0956 5.04792 36.9809C4.83835 37.8662 5.57546 37.5396 6.11022 37.5541H6.60885C6.95573 37.5541 7.09303 37.3002 6.88346 36.9591C6.48819 36.2811 6.00186 35.6609 5.43816 35.1161C5.11092 34.8424 4.84794 34.4995 4.66805 34.1119C4.48815 33.7242 4.39579 33.3015 4.39754 32.8739C4.62837 33.1618 4.91407 33.4006 5.23794 33.5762C5.5618 33.7519 5.9173 33.861 6.28365 33.897C6.90299 33.8857 7.51797 33.7905 8.11196 33.614C8.64555 33.531 9.18999 33.5507 9.71625 33.6721C10.1973 33.7875 10.645 34.0136 11.0242 34.3324C11.3503 34.6271 11.5796 35.0142 11.6819 35.4426C11.7322 35.7981 11.6879 36.1606 11.5533 36.4933C11.4188 36.826 11.1988 37.1169 10.9159 37.3365L11.0026 37.4163C11.373 37.2012 11.6687 36.8771 11.8496 36.4877C12.0306 36.0984 12.088 35.6626 12.0143 35.2394C11.8954 34.7144 11.6273 34.2354 11.2424 33.8605C10.8576 33.4857 10.3725 33.2311 9.84632 33.1278L9.90414 33.048ZM9.23208 18.5791C10.1571 19.5587 11.1471 19.1668 11.5879 19.2176C12.0287 19.2684 12.5418 20.4077 12.2744 21.5179C12.117 22.0627 11.9288 22.5981 11.7108 23.1215C11.4795 23.9995 12.5563 24.6235 12.3106 25.429C12.2383 25.6539 12.0866 25.9732 12.2744 26.2199C12.5635 26.6117 13.0332 26.0966 13.633 26.2199C14.0053 26.273 14.3845 26.1989 14.7098 26.0095C14.6375 25.6684 13.3006 25.8789 12.9971 25.3274C12.867 25.0807 12.5129 22.57 13.2934 21.4526C14.0738 20.3351 13.344 20.0956 12.8526 19.2757C13.5246 18.9056 15.1 18.1147 15.1 18.1147C15.5852 18.5963 15.9946 19.1493 16.3141 19.7546C16.4915 20.1052 16.5832 20.4933 16.5814 20.8866C16.5768 21.2929 16.4425 21.6871 16.1984 22.0113C16.5236 21.9605 16.8271 21.3727 16.9211 20.9229C16.9927 20.4688 16.9581 20.0042 16.8199 19.5659C16.4986 18.6618 15.9801 17.8412 15.3024 17.1641C14.3539 17.5025 13.4312 17.9099 12.5418 18.3832C12.1227 17.5922 11.6963 17.7374 11.176 17.7809C11.0047 17.7751 10.8378 17.7253 10.6911 17.6364C10.5443 17.5475 10.4227 17.4224 10.3377 17.273C10.9101 17.4298 11.5193 17.3784 12.0576 17.1278C12.272 17.0779 12.4729 16.9813 12.6461 16.8449C12.8192 16.7084 12.9604 16.5355 13.0596 16.3382C13.1589 16.141 13.2138 15.9242 13.2205 15.7033C13.2271 15.4824 13.1854 15.2627 13.0983 15.0598C13.1082 15.3393 13.0147 15.6125 12.8359 15.8269C12.6571 16.0412 12.4056 16.1816 12.1299 16.2208C11.3609 16.2028 10.5968 16.0932 9.85355 15.8943C9.85355 15.8943 11.176 15.7419 11.4434 14.98C11.4888 14.8373 11.5641 14.7059 11.6641 14.5948C11.7642 14.4836 11.8867 14.3952 12.0235 14.3354C12.1604 14.2756 12.3083 14.2459 12.4576 14.2482C12.6068 14.2505 12.7537 14.2848 12.8887 14.3487C12.7084 14.1492 12.4608 14.0239 12.1938 13.9971C11.9269 13.9703 11.6595 14.0439 11.4434 14.2036C11.0563 14.396 10.6266 14.4857 10.1953 14.4641C9.76391 14.4425 9.34524 14.3103 8.97915 14.0802C7.90963 13.536 7.53385 14.4358 7.30983 14.4575C7.0858 14.4793 6.92681 14.131 7.04966 13.7319C7.17251 13.3328 8.3938 13.0063 10.2366 12.941C10.9507 12.855 11.6743 12.9811 12.3178 13.3038C12.3178 13.2022 11.9926 12.7523 10.9881 12.5056C9.98363 12.2589 10.0487 11.8453 10.0993 11.1342C10.1498 10.4231 9.11645 10.7061 8.86352 10.619C8.61059 10.5319 8.86352 9.97319 8.86352 9.97319C8.67956 10.0156 8.51639 10.1218 8.40271 10.2731C8.28904 10.4244 8.23214 10.6111 8.24203 10.8004C8.24203 11.0907 8.53109 11.3011 8.8057 11.439C9.08031 11.5768 9.12367 11.8235 8.63227 12.1138C8.0656 12.4359 7.4818 12.7266 6.88346 12.9845C5.16355 13.7102 7.30981 14.9945 6.55103 15.3863C6.3038 15.4864 6.08486 15.6459 5.91348 15.8509C5.7421 16.0559 5.62354 16.3 5.56823 16.5619C5.54472 16.7582 5.56142 16.9574 5.61735 17.1471C5.67327 17.3367 5.76721 17.5129 5.89341 17.6648C7.37485 16.8594 8.35767 17.4253 9.27544 18.3904L9.23208 18.5791ZM18.0123 16.1337C18.0123 15.5024 18.1785 15.1977 18.3519 15.1904C18.8795 15.1904 18.9951 15.916 19.0023 16.1265C19.0105 16.2983 18.9765 16.4695 18.9034 16.6251C18.8303 16.7807 18.7204 16.916 18.5832 17.019C18.959 17.0553 19.2625 16.5256 19.3059 16.1918C19.3419 16.0203 19.3432 15.8432 19.3097 15.6712C19.2762 15.4991 19.2085 15.3356 19.1107 15.1904C19.7271 15.7898 20.0851 16.6077 20.108 17.4689C19.9707 18.8258 18.4459 19.5442 18.4459 19.5442C18.9321 19.6248 19.4311 19.57 19.8885 19.3858C20.3459 19.2015 20.7442 18.8949 21.0402 18.4993C21.5027 17.9115 21.705 17.048 21.1414 15.5968C20.6355 14.3124 19.6961 13.224 20.7006 10.7569C20.893 10.2635 21.1949 9.82056 21.5831 9.46172C21.9714 9.10288 22.436 8.83752 22.9416 8.68578C23.4472 8.53403 23.9806 8.49987 24.5014 8.58589C25.0221 8.67191 25.5164 8.87586 25.947 9.18226C26.038 9.2449 26.1085 9.3333 26.1493 9.43623C26.2505 9.71922 25.5062 10.0965 25.8314 10.2634C26.0996 10.3544 26.3586 10.4711 26.6046 10.6117C26.8359 10.7859 26.8792 10.9383 27.0021 11.0471C27.0282 11.0794 27.0613 11.1053 27.0989 11.1229C27.1364 11.1405 27.1774 11.1493 27.2189 11.1487C26.609 10.3282 26.2726 9.33527 26.2578 8.31151C25.4939 8.00443 24.7059 7.76172 23.9019 7.58589C22.7919 7.44189 21.664 7.61806 20.65 8.09382C19.1252 8.81945 17.5137 10.2707 17.5137 13.6956C17.4863 14.531 17.6547 15.3611 18.0051 16.1192L18.0123 16.1337ZM1.05889 24.1083C1.27918 24.0754 1.48043 23.9644 1.62624 23.7953C1.77205 23.6263 1.85277 23.4104 1.85379 23.1868C1.97947 23.3557 2.04099 23.5641 2.02724 23.7746C2.11969 23.6282 2.17813 23.4629 2.19822 23.2908C2.21832 23.1187 2.19957 22.9443 2.14333 22.7805C2.0871 22.6167 1.99483 22.4677 1.8734 22.3445C1.75196 22.2214 1.60449 22.1274 1.4419 22.0693C1.4419 22.0693 1.49246 23.0997 0.83485 23.4625C0.177237 23.8253 0.0399376 24.0793 0.00380502 24.4566C-0.0132311 24.6387 0.0272244 24.8214 0.119432 24.9791C0.211651 25.1141 0.34663 25.2138 0.502437 25.2621C0.300094 24.9863 0.256749 24.326 1.05889 24.1083ZM17.4703 9.66843C15.5481 9.77727 14.876 9.08067 13.5608 8.44938C12.2455 7.81809 11.111 8.27523 10.9159 8.57999C11.8699 8.72048 12.7727 9.10254 13.5391 9.6902C16.2057 11.3664 17.4703 9.6902 17.4703 9.6902V9.66843ZM16.6104 5.59043C16.3285 5.67024 15.6564 5.77909 15.9672 7.34643C16.2779 8.91378 17.1307 8.5292 17.3547 8.33328C17.0153 8.27846 16.7078 8.10034 16.4906 7.83278C16.2735 7.56522 16.1618 7.22687 16.1768 6.88203C16.1768 5.51786 17.7088 5.77183 17.7088 5.77183C17.3751 5.58303 16.9825 5.52856 16.6104 5.61945V5.59043ZM33.7444 25.5451C33.1432 23.6699 32.3335 21.8687 31.3308 20.1755C30.4997 18.9201 30.0806 19.8199 29.7482 20.1029C29.4157 20.3859 28.4474 22.0258 28.021 19.9142C27.5947 17.8027 25.4195 15.9741 25.4195 15.9741C25.7592 17.2019 25.8331 18.4885 25.6363 19.7473C25.6052 20.4156 25.6512 21.0852 25.7736 21.7428C25.7736 22.3596 23.9308 22.7659 23.8369 23.2376C23.7429 23.7092 26.5757 25.6612 29.2784 23.7092C30.0878 23.1215 30.5937 25.3999 30.8538 26.0167C31.114 26.6335 30.5936 26.8294 31.2079 27.5405C31.8222 28.2517 31.3524 28.8539 31.3524 29.2966C31.3524 29.7392 32.5737 30.7478 32.7977 30.5301C33.1952 30.1383 32.3064 27.8018 31.9523 26.9891C31.5982 26.1764 31.0272 23.5714 30.6298 22.8603C30.3985 22.4539 29.1845 22.7369 29.1845 22.7369L29.0978 22.4249C29.0978 22.4249 29.264 22.2145 29.4157 22.0548C30.6515 20.7705 30.5503 21.3292 31.8294 22.8603C33.1085 24.3913 31.5693 25.0371 32.6749 25.8498C33.7806 26.6625 34.1202 26.8947 33.7227 25.5451H33.7444ZM13.4885 4.50199C13.724 4.56565 13.9673 4.59497 14.2111 4.58906C14.349 4.58335 14.4831 4.54235 14.6007 4.46996C14.7183 4.39757 14.8156 4.2962 14.8832 4.17546C14.3569 4.19034 13.8431 4.01237 13.4379 3.67477C13.4379 3.67477 14.493 3.62398 15.0205 3.55142C15.548 3.47886 16.5236 3.21763 16.5236 3.21763C16.5236 3.21763 16.4875 4.08838 16.4803 4.59632C16.4731 5.10426 17.1234 4.99541 17.3402 4.92285C17.557 4.85029 17.6582 3.82716 17.7016 2.96367C17.7377 2.3106 17.2535 2.30335 16.9789 2.41945C16.3222 2.73162 15.6492 3.00776 14.9627 3.24666C14.2495 3.39661 13.5156 3.41872 12.7948 3.31196L12.7225 3.5877L13.8209 4.26253L13.4885 4.50199ZM15.2951 8.6453L15.5986 8.51469C15.4624 8.10885 15.3798 7.6868 15.3529 7.25936C15.3836 6.6188 15.4585 5.98114 15.577 5.35097H15.2951C15.2951 5.35097 15.1723 6.31605 15.0061 7.15777C14.8399 7.99949 14.399 7.83985 14.1822 7.82534C13.9654 7.81083 12.2528 7.55686 12.2528 7.55686V7.81083L13.2283 7.95595C13.9435 8.11462 14.6373 8.35821 15.2951 8.68158V8.6453ZM16.3647 12.404C15.7811 12.679 15.1256 12.7604 14.493 12.6362C14.9169 12.9352 15.4204 13.0995 15.9383 13.1079C16.1262 13.1043 16.3111 13.0604 16.4806 12.979C16.6501 12.8977 16.8003 12.7808 16.9211 12.6362C17.1375 12.3563 17.2723 12.0216 17.3106 11.6693C17.3489 11.317 17.2891 10.961 17.1379 10.6408C17.1379 10.6408 17.0728 11.9614 16.3791 12.404H16.3647ZM14.7459 32.9609C13.1199 31.3356 13.7125 31.5097 14.7459 30.0585C15.5119 28.9845 19.2408 28.034 21.1197 27.6131V27.439C20.1658 27.4825 18.7349 27.5333 17.3041 27.5333C14.8471 27.5333 13.857 26.59 13.2211 26.7061C10.7786 27.1705 12.4985 29.9786 9.65121 29.6086C6.80396 29.2385 6.84732 32.0902 6.84732 32.0902C7.65669 30.4358 8.49496 30.639 9.14535 30.639C9.79573 30.639 10.6268 31.1614 11.6746 30.2761C11.9059 30.0802 12.9537 28.3823 12.802 29.2312C12.638 29.7784 12.3427 30.2767 11.942 30.6825C11.7036 30.9655 11.559 31.1759 12.0576 31.4589L12.7803 31.8653C13.9438 32.5328 13.7486 33.3165 12.9899 33.2585C12.4551 33.2585 11.8192 32.9609 11.2844 32.9102C11.0676 32.9102 10.8219 32.9755 11.1688 33.1424C11.3744 33.2383 11.5625 33.3683 11.7252 33.5269C12.5779 34.3832 11.559 34.0421 13.9944 33.9115C14.3801 33.8978 14.7643 33.8541 15.1434 33.7809C16.1117 33.5705 14.9699 33.1206 14.7604 32.9029L14.7459 32.9609ZM27.2839 34.3541C27.0844 33.9923 26.9058 33.6192 26.7492 33.2367C26.3589 32.4167 26.7492 32.5764 26.5035 32.1047C26.2578 31.6331 26.0988 32.1047 25.4195 31.0526C25.2894 30.8494 25.022 30.9365 24.9859 31.4371C24.9497 31.9378 25.7808 32.4022 26.1638 33.614C26.5468 34.8258 26.8865 34.9637 26.5468 35.7038C26.2072 36.4439 24.7329 36.4294 24.7329 36.4294C25.9109 37.6557 28.3028 35.9795 27.2839 34.3904" fill="#F1F3F5"/>
<path id="Vector_26" d="M53.8641 -0.000280351L39.4531 39.8213L39.9421 39.9997L54.3531 0.178151L53.8641 -0.000280351Z" fill="#F1F3F5"/>
</g>
</g>
<defs>
<clipPath id="clip0_1614_6646">
<rect width="120" height="40" fill="white"/>
</clipPath>
</defs>
</svg>
