<svg width="152" height="51" viewBox="0 0 152 51" fill="none" xmlns="http://www.w3.org/2000/svg">
<path fill-rule="evenodd" clip-rule="evenodd" d="M79.7127 11.5871H81.781L81.0283 8.86774H80.5536L79.7127 11.5871ZM82.2082 13.0045H79.3058L78.6886 15.0932H77.1289L79.5431 7.35547H82.0116L84.4461 15.0932H82.8525L82.215 13.0045H82.2082Z" fill="white"/>
<path fill-rule="evenodd" clip-rule="evenodd" d="M87.1316 8.7804V15.0736H85.5176V7.33594H91.1055V8.7804H87.1316Z" fill="white"/>
<path fill-rule="evenodd" clip-rule="evenodd" d="M98.2053 13.6292V15.0736H92.3936V7.33594H98.09V8.7804H94.0008V10.4147H97.1813V11.8185H94.0008V13.6292H98.2121H98.2053Z" fill="white"/>
<path fill-rule="evenodd" clip-rule="evenodd" d="M106.377 7.33594V15.0736H104.763V11.8389H101.325V15.0736H99.7109V7.33594H101.325V10.3537H104.763V7.33594H106.377Z" fill="white"/>
<path fill-rule="evenodd" clip-rule="evenodd" d="M113.687 8.76005H111.273V15.0736H109.652V8.76005H107.238V7.33594H113.687V8.76005Z" fill="white"/>
<path fill-rule="evenodd" clip-rule="evenodd" d="M121.215 12.6929C121.114 13.4525 120.72 14.1442 120.13 14.6257C119.533 15.1071 118.781 15.3445 118.014 15.2902C115.668 15.2902 114.332 13.6559 114.332 11.3163C114.332 8.97666 115.675 7.33554 118.014 7.33554C118.74 7.28129 119.452 7.49151 120.028 7.92553C120.605 8.36633 120.998 8.99701 121.141 9.70906H119.466C119.364 9.41746 119.167 9.16654 118.903 8.99701C118.638 8.83425 118.326 8.75965 118.014 8.80034C116.638 8.80034 115.98 9.91929 115.98 11.3502C115.98 12.7811 116.631 13.8865 118.014 13.8865C118.367 13.9204 118.72 13.8187 119.004 13.6016C119.289 13.3846 119.479 13.0727 119.547 12.7201L121.215 12.6861V12.6929Z" fill="white"/>
<path fill-rule="evenodd" clip-rule="evenodd" d="M128.315 8.76005H125.894V15.0736H124.28V8.76005H121.859V7.33594H128.315V8.76005Z" fill="white"/>
<path fill-rule="evenodd" clip-rule="evenodd" d="M134.169 12.7408C134.169 12.0965 133.768 11.7643 132.934 11.7643H131.022V13.697H132.907C133.721 13.697 134.169 13.3986 134.169 12.7883V12.7408ZM133.951 9.5874C133.951 9.01775 133.579 8.73293 132.846 8.73293H131.029V10.4554H132.846C133.579 10.4554 133.945 10.1638 133.945 9.54671V9.58061L133.951 9.5874ZM135.85 12.8425C135.85 14.131 135.009 15.0804 133.131 15.0804H129.367V7.33594H132.995C134.725 7.33594 135.565 8.24466 135.565 9.38395C135.586 9.6959 135.525 10.0078 135.382 10.2791C135.24 10.5571 135.023 10.7877 134.752 10.9437V11.1607C135.07 11.3099 135.335 11.5472 135.518 11.8389C135.701 12.1372 135.796 12.4763 135.796 12.829" fill="white"/>
<path fill-rule="evenodd" clip-rule="evenodd" d="M142.794 11.3167C142.794 9.89256 142.129 8.76683 140.678 8.76683C139.227 8.76683 138.576 9.89256 138.576 11.3167C138.576 12.7408 139.247 13.853 140.678 13.853C142.109 13.853 142.794 12.7272 142.794 11.3167ZM144.442 11.3167C144.442 13.5681 143.126 15.2906 140.678 15.2906C138.23 15.2906 136.914 13.5681 136.914 11.3167C136.914 9.06522 138.236 7.33594 140.678 7.33594C143.119 7.33594 144.442 9.05844 144.442 11.3167Z" fill="white"/>
<path fill-rule="evenodd" clip-rule="evenodd" d="M79.2517 21.5225V26.9273H79.4687L82.3441 21.5225H84.4395V29.2534H82.9341V23.7264H82.7238L79.7739 29.2534H77.7598V21.5225H79.2449H79.2517Z" fill="white"/>
<path fill-rule="evenodd" clip-rule="evenodd" d="M93.0383 21.5225V29.2534H91.4243V26.0118H87.9929V29.2534H86.3721V21.5225H87.9929V24.5334H91.4243V21.5225H93.0383Z" fill="white"/>
<path fill-rule="evenodd" clip-rule="evenodd" d="M101.427 21.5225V29.2534H99.813V26.0118H96.3747V29.2534H94.7607V21.5225H96.3747V24.5334H99.813V21.5225H101.427Z" fill="white"/>
<path fill-rule="evenodd" clip-rule="evenodd" d="M108.589 25.49C108.589 24.0726 107.924 22.9401 106.486 22.9401C105.049 22.9401 104.371 24.0726 104.371 25.49C104.371 26.9073 105.042 28.0398 106.486 28.0398C107.931 28.0398 108.589 26.9073 108.589 25.49ZM110.25 25.49C110.25 27.7482 108.928 29.4639 106.486 29.4639C104.045 29.4639 102.723 27.7482 102.723 25.49C102.723 23.2317 104.038 21.5635 106.486 21.5635C108.935 21.5635 110.25 23.2792 110.25 25.5374" fill="white"/>
<path fill-rule="evenodd" clip-rule="evenodd" d="M116.537 26.9208C116.537 26.2698 116.13 25.9307 115.296 25.9307H113.383V27.9041H115.282C116.089 27.9041 116.543 27.599 116.543 26.9954V26.914L116.537 26.9208ZM116.313 23.7945C116.313 23.2249 115.94 22.9401 115.208 22.9401H113.39V24.6626H115.208C115.94 24.6626 116.293 24.3845 116.293 23.7538L116.313 23.7878V23.7945ZM118.219 27.0022C118.219 28.2907 117.378 29.2401 115.499 29.2401H111.742V21.5566H115.37C117.1 21.5566 117.947 22.4654 117.947 23.5979C117.968 23.9098 117.9 24.2218 117.757 24.493C117.608 24.7711 117.391 25.0016 117.12 25.1576V25.3746C117.439 25.5103 117.71 25.7408 117.907 26.0256C118.103 26.3105 118.212 26.6495 118.219 26.9954V27.0022Z" fill="white"/>
<path fill-rule="evenodd" clip-rule="evenodd" d="M121.439 25.7477H123.508L122.707 23.0283H122.233L121.432 25.7477H121.439ZM123.935 27.165H121.032L120.415 29.2538H118.849L121.27 21.5703H123.725L126.152 29.2944H124.559L123.935 27.165Z" fill="white"/>
<path fill-rule="evenodd" clip-rule="evenodd" d="M133.212 29.2804H127.237V21.5156H128.831V27.8292H132.079V21.5156H133.673V27.8292H134.758V31.186H133.205V29.2804H133.212Z" fill="white"/>
<path fill-rule="evenodd" clip-rule="evenodd" d="M137.552 21.5225V26.9273H137.763L140.638 21.5225H142.733V29.2534H141.228V23.7264H141.018L138.068 29.2534H136.054V21.5225H137.552Z" fill="white"/>
<path fill-rule="evenodd" clip-rule="evenodd" d="M150.01 19.5762C149.915 20.0373 149.657 20.4578 149.291 20.7562C148.925 21.0545 148.463 21.2173 147.989 21.2173C147.514 21.2173 147.053 21.0545 146.687 20.7562C146.32 20.4578 146.063 20.0441 145.961 19.5762H147.141C147.155 19.6779 147.182 19.7728 147.229 19.861C147.277 19.9492 147.344 20.0238 147.419 20.0848C147.494 20.1458 147.589 20.1933 147.684 20.2204C147.778 20.2475 147.88 20.2543 147.982 20.2408C148.179 20.2611 148.382 20.2069 148.538 20.078C148.694 19.9559 148.796 19.7728 148.83 19.5762H150.01ZM146.144 21.6106V26.9544H146.327L149.209 21.6106H151.298V29.2466H149.799V23.8078H149.582L146.646 29.2466H144.632V21.6106H146.144Z" fill="white"/>
<path fill-rule="evenodd" clip-rule="evenodd" d="M77.7598 35.9131H80.2893L81.5506 38.9987H81.7676L83.0222 35.9131H85.5042V43.6508H83.9987V37.6085H83.7817L82.378 41.0535H80.8996L79.4958 37.6085H79.2788V43.6508H77.7666V35.9131H77.7598Z" fill="white"/>
<path fill-rule="evenodd" clip-rule="evenodd" d="M92.6727 39.7035C92.6727 38.2861 92.0216 37.1672 90.5704 37.1672C89.1191 37.1672 88.4545 38.2929 88.4545 39.7035C88.4545 41.114 89.1259 42.2533 90.5704 42.2533C92.0148 42.2533 92.6727 41.1276 92.6727 39.7035ZM94.3341 39.7035C94.3341 41.9617 93.0117 43.6842 90.5704 43.6842C88.129 43.6842 86.8066 41.9617 86.8066 39.7035C86.8066 37.4452 88.1222 35.7295 90.5704 35.7295C93.0185 35.7295 94.3341 37.452 94.3341 39.7035Z" fill="white"/>
<path fill-rule="evenodd" clip-rule="evenodd" d="M102.289 41.0533C102.187 41.8128 101.793 42.5045 101.203 42.986C100.607 43.4675 99.8539 43.7048 99.0876 43.6506C96.7412 43.6506 95.4053 42.0162 95.4053 39.6698C95.4053 37.3234 96.7548 35.6959 99.0876 35.6959C99.8132 35.6416 100.525 35.8519 101.102 36.2859C101.678 36.7267 102.071 37.3574 102.214 38.0694H100.539C100.437 37.7778 100.24 37.5269 99.976 37.3574C99.7115 37.1946 99.3996 37.1268 99.0876 37.1607C97.711 37.1607 97.0532 38.2796 97.0532 39.697C97.0532 41.1143 97.7042 42.2468 99.0876 42.2468C99.4403 42.2807 99.7929 42.179 100.078 41.962C100.363 41.745 100.552 41.433 100.62 41.0872L102.289 41.0533Z" fill="white"/>
<path fill-rule="evenodd" clip-rule="evenodd" d="M103.794 35.9131H105.415V38.9309H107.212L108.683 35.9131H110.358L108.575 39.67L110.46 43.6508H108.785L107.225 40.3957H105.422V43.6508H103.801V35.9131H103.794Z" fill="white"/>
<path fill-rule="evenodd" clip-rule="evenodd" d="M116.32 41.318C116.32 40.667 115.913 40.3279 115.086 40.3279H113.173V42.2674H115.058C115.872 42.2674 116.32 41.9555 116.32 41.3587V41.3112V41.318ZM116.103 38.151C116.103 37.5814 115.73 37.2966 114.997 37.2966H113.18V39.0191H114.997C115.73 39.0191 116.096 38.741 116.096 38.1103V38.1443L116.103 38.151ZM117.988 41.4062C117.988 42.6946 117.154 43.6576 115.269 43.6576H111.505V35.9199H115.133C116.862 35.9199 117.703 36.8286 117.703 37.9679C117.724 38.2731 117.656 38.5851 117.513 38.8563C117.371 39.1276 117.154 39.3581 116.889 39.5209V39.704C117.201 39.8532 117.466 40.0905 117.649 40.3889C117.832 40.6873 117.927 41.0264 117.92 41.3722" fill="white"/>
<path fill-rule="evenodd" clip-rule="evenodd" d="M126.267 43.644H127.881V35.9131H126.267V43.644ZM123.738 41.0942C123.738 40.3685 123.345 39.9549 122.266 39.9549H120.93V42.2334H122.3C123.379 42.2334 123.772 41.8333 123.772 41.1009H123.738V41.0942ZM119.323 43.644V35.9131H120.937V38.5375H122.558C124.369 38.5375 125.433 39.5005 125.433 41.0738C125.433 42.6471 124.375 43.644 122.558 43.644H119.316H119.323Z" fill="white"/>
<path fill-rule="evenodd" clip-rule="evenodd" d="M13.6265 44.9322C13.5044 45.1153 13.3213 45.2509 13.1111 45.3052C12.9008 45.3662 12.6703 45.3459 12.4736 45.2441C12.3448 45.1017 12.2634 44.9254 12.2566 44.7288C12.2498 44.5389 12.3108 44.349 12.4261 44.1998C12.2295 44.2473 12.0599 44.3558 11.9446 44.5185C11.8361 44.7559 11.8226 45.0271 11.8904 45.2781C11.9582 45.529 12.1142 45.7528 12.3312 45.902C12.5482 46.0511 12.8059 46.119 13.0636 46.0986C13.3213 46.0783 13.5722 45.963 13.7553 45.7799C13.857 45.6307 13.9113 45.4544 13.9113 45.2781C13.9113 45.1017 13.857 44.9254 13.7553 44.7762C13.7282 44.8305 13.6943 44.8847 13.6468 44.9322H13.6197H13.6265ZM30.7226 15.4462C30.5395 15.2089 30.4107 14.9308 30.3361 14.6392C30.2615 14.3476 30.2547 14.0425 30.3022 13.7441C30.0919 14.1171 29.9834 14.5307 29.9699 14.958C29.9631 15.3852 30.058 15.8057 30.2547 16.1854C30.8718 17.0941 31.4347 17.1823 31.923 18.1249C31.9569 17.874 31.9026 17.6163 31.7805 17.3993C31.5906 17.0195 31.5093 16.694 31.9704 16.5652C33.2521 16.1854 34.4457 18.0436 35.1577 18.0096C35.4358 17.9893 35.7002 17.8808 35.9172 17.7113C36.1343 17.5349 36.297 17.3044 36.3784 17.0399C36.0325 17.2569 35.6324 17.3654 35.2255 17.3451C34.2287 17.2162 33.7539 16.0905 32.635 15.8667C31.9162 15.7243 31.3126 16.0227 30.7023 15.4395H30.7294L30.7226 15.4462ZM30.0174 36.0891C29.6783 36.5774 29.936 37.2691 30.8244 37.5336C31.4686 37.6828 32.0586 37.9947 32.5401 38.4423C33.1097 39.012 33.381 39.0865 33.5166 39.0865L9.0286 5.09767L8.70308 5.33502C8.70308 5.33502 22.8493 24.9403 29.1357 33.6681C29.3731 33.9936 30.3225 35.689 30.0445 36.123L30.0174 36.0756V36.0891ZM29.9427 37.6828C29.034 37.6828 27.949 38.0354 26.8707 37.0385C26.5045 36.6723 26.0366 36.4282 25.5212 36.3468C25.0126 36.2654 24.4836 36.3468 24.0225 36.5774C24.0225 36.5774 24.9312 37.4861 24.4294 37.8659C23.5953 38.483 24.2124 39.2086 24.131 39.4867C24.0496 39.7647 23.2223 39.8257 21.8185 39.1815C21.1946 38.8899 20.4961 38.7949 19.8112 38.9102C19.4518 38.9645 19.5671 39.2357 19.6484 39.3103C19.7298 39.3849 20.2384 39.8461 20.4622 40.0021C20.686 40.158 21.1132 40.5107 21.2963 40.3818C21.4794 40.253 21.0997 39.568 21.0997 39.568C22.3135 39.9885 23.5613 40.2869 24.8295 40.4768C25.9552 40.4768 24.9041 38.6051 25.7789 38.5169C26.2333 38.5169 26.7894 39.1679 27.7049 39.2968C28.3491 39.3171 28.9933 39.2018 29.5901 38.9645C30.2615 38.8017 30.4988 39.6291 30.6073 40.3615C30.6209 40.5853 30.6819 40.8023 30.7769 41.0057C30.9939 39.9546 31.2855 37.6421 29.9427 37.676V37.6963V37.6828ZM36.9413 39.8257C36.5818 38.8492 35.8834 39.2696 35.5714 39.1611C35.2662 39.0526 34.8526 38.6661 34.7169 37.6217C34.5813 36.5774 33.6997 37.1403 33.6997 37.1403C33.6997 37.1403 34.7237 39.2018 35.1442 40.2937C35.5578 41.3923 35.9037 40.5378 36.4123 41.1346C36.9209 41.7313 36.8599 44.8169 36.5683 45.8138C36.236 46.9463 35.5646 47.95 34.6356 48.6824C35.3544 48.601 36.6768 47.1972 37.0566 46.2817C37.3142 45.6375 37.3753 44.939 37.2396 44.2608L37.8364 44.2066L37.4634 43.2979L38.0466 43.2097C38.0466 43.2097 37.3007 40.8497 36.9413 39.8732V39.8257ZM13.1178 41.8195C12.3651 41.6228 11.5852 41.5754 10.8121 41.6839C10.1136 41.8602 9.3948 41.9687 8.66918 42.0026C8.34367 42.0026 8.02493 41.9348 7.73333 41.8059C7.43494 41.6771 7.17047 41.4804 6.95346 41.2431C6.77714 41.0261 6.63474 40.7751 6.5398 40.5107C7.0145 39.6494 7.74011 38.9577 8.62849 38.5305C12.5618 36.3333 11.2597 33.8716 11.0156 31.0098C10.9071 30.4062 10.9342 29.7823 11.0902 29.1856C11.2462 28.5888 11.531 28.0395 11.9243 27.5648C12.7449 26.968 13.7417 26.6696 14.7522 26.7307C13.4027 26.0186 11.8497 25.8084 10.3646 26.1474C8.42504 26.7103 8.0724 28.1141 7.73333 29.111C7.58413 29.7077 7.28576 30.257 6.87208 30.7114C6.45841 31.1658 5.93624 31.5116 5.35303 31.7151C2.4709 32.9222 2.63365 35.2007 2.63365 35.2007C2.63365 35.2007 1.5893 32.9493 4.39684 31.064C7.95035 28.6634 6.58047 26.812 7.77401 25.7066C8.68274 24.8522 9.81526 24.9878 11.5174 25.449C11.2055 25.0895 6.70255 23.1907 6.17359 27.2121C5.72601 30.63 2.4641 30.1485 1.90123 33.3697C1.50112 35.6483 3.66443 37.5607 3.66443 37.5607C3.66443 37.5607 1.94192 34.1021 5.33267 32.7119C7.67229 31.749 9.01503 30.6368 9.36088 29.5382V30.6707C9.36088 32.2237 10.134 33.3901 9.90342 35.5941C9.78813 36.7944 7.5977 37.9879 6.37703 39.2222C6.41093 38.6864 6.5737 38.1643 6.85174 37.6963C7.24507 37.2216 7.58413 36.7062 7.87573 36.1637C8.1063 35.6619 8.18092 35.099 8.08598 34.5565C8.02494 34.2378 7.90287 33.9326 7.74012 33.6478L7.57737 33.7088C7.74012 34.075 7.8215 34.4751 7.80793 34.8752C7.79437 35.2753 7.68587 35.6687 7.4892 36.0213C7.17047 36.5231 6.80428 36.9978 6.3906 37.4251C5.95659 38.0286 5.70567 38.7407 5.66498 39.4867C5.65142 39.7376 5.66497 39.9953 5.71922 40.2394C5.54968 40.8701 5.509 41.5279 5.59716 42.1789C5.68532 42.8299 5.90233 43.4471 6.23462 44.0167C6.77714 44.9254 7.29253 45.6307 7.03483 46.7361C6.77036 47.8415 7.69942 47.4346 8.37079 47.4549H8.9947C9.42871 47.4549 9.60502 47.1362 9.34054 46.709C8.84549 45.8613 8.23516 45.0882 7.5231 44.4032C7.10943 44.0574 6.78393 43.6302 6.56014 43.1487C6.33635 42.6672 6.22107 42.1382 6.22107 41.6025C6.51267 41.9619 6.87209 42.2603 7.27898 42.4773C7.68587 42.6943 8.13345 42.8367 8.59459 42.8774C9.37446 42.8638 10.1408 42.7418 10.8867 42.5248C11.5581 42.423 12.2362 42.4434 12.9008 42.5994C13.5044 42.7418 14.0673 43.0266 14.542 43.4267C14.9488 43.7929 15.2405 44.2812 15.3693 44.8169C15.4303 45.2577 15.3761 45.7121 15.2066 46.1325C15.037 46.5462 14.759 46.9124 14.4063 47.1837L14.5148 47.2854C14.976 47.0141 15.349 46.614 15.5795 46.1257C15.8101 45.6375 15.8779 45.095 15.7898 44.566C15.6406 43.9082 15.3015 43.3114 14.82 42.8435C14.3385 42.3756 13.7282 42.0568 13.0704 41.928L13.145 41.8263L13.1178 41.8195ZM12.2769 23.7332C13.4366 24.9607 14.6776 24.4656 15.2337 24.5334C15.7897 24.5945 16.4272 26.0186 16.0949 27.4088C15.8983 28.087 15.6609 28.7583 15.3896 29.4161C15.098 30.5147 16.4543 31.2946 16.1424 32.2983C16.0542 32.5763 15.8644 32.9764 16.0949 33.2884C16.4543 33.7766 17.0443 33.1324 17.7971 33.2884C18.265 33.3562 18.7397 33.2612 19.1466 33.0239C19.0584 32.5967 17.3766 32.8611 16.9969 32.1694C16.8341 31.8643 16.3865 28.7244 17.3698 27.3274C18.3464 25.9304 17.4309 25.6321 16.8138 24.608C17.6547 24.1469 19.6349 23.1568 19.6349 23.1568C20.2452 23.7604 20.7606 24.4521 21.1607 25.2048C21.3845 25.6456 21.4998 26.1271 21.4998 26.6222C21.4998 27.1308 21.3235 27.619 21.0183 28.0259C21.4252 27.9649 21.8049 27.2257 21.927 26.6628C22.0152 26.0932 21.9745 25.5168 21.7982 24.9675C21.3913 23.835 20.747 22.8109 19.8926 21.9633C18.699 22.3837 17.5462 22.8923 16.4272 23.4891C15.8983 22.499 15.3693 22.6821 14.7115 22.7364C14.4945 22.7296 14.2843 22.6685 14.1012 22.5533C13.9181 22.4447 13.7621 22.2888 13.6604 22.0989C14.3792 22.2956 15.1455 22.2277 15.8169 21.9158C16.0881 21.8548 16.3391 21.7327 16.5561 21.5632C16.7731 21.3936 16.9494 21.1766 17.0715 20.9325C17.1935 20.6883 17.2681 20.4171 17.2749 20.139C17.2817 19.861 17.2342 19.5897 17.1189 19.332C17.1325 19.6779 17.0104 20.0238 16.7866 20.2882C16.5628 20.5595 16.2441 20.729 15.8983 20.7833C14.9353 20.7629 13.9723 20.6205 13.0433 20.3764C13.0433 20.3764 14.7047 20.1865 15.037 19.2303C15.0913 19.054 15.1862 18.8845 15.315 18.7488C15.4371 18.6064 15.5931 18.4979 15.7626 18.4233C15.9322 18.3487 16.1221 18.308 16.3052 18.3148C16.495 18.3148 16.6781 18.3623 16.8477 18.4369C16.6239 18.186 16.3119 18.03 15.9728 17.9961C15.6406 17.9622 15.3015 18.0571 15.0302 18.2538C14.542 18.4911 14.0062 18.6064 13.4637 18.5793C12.9212 18.5522 12.399 18.3894 11.9379 18.0978C10.5951 17.4197 10.1204 18.5454 9.84238 18.5725C9.56434 18.5996 9.36089 18.1656 9.51686 17.6638C9.67284 17.162 11.2055 16.7551 13.5179 16.6737C14.4131 16.5652 15.3218 16.7212 16.1288 17.1281C16.1288 16.9992 15.7219 16.4363 14.4606 16.1312C13.1992 15.826 13.2806 15.3038 13.3484 14.4155C13.4094 13.5271 12.1142 13.8797 11.7955 13.7712C11.4767 13.6627 11.7955 12.9642 11.7955 12.9642C11.5649 13.0185 11.3614 13.1473 11.219 13.3372C11.0766 13.5271 11.0088 13.7576 11.0156 13.995C11.0156 14.3544 11.3818 14.6189 11.7209 14.7952C12.0667 14.9648 12.121 15.2767 11.5038 15.6361C10.7918 16.0362 10.0594 16.4024 9.30664 16.7212C7.15012 17.6299 9.84238 19.2303 8.88619 19.7254C8.57424 19.8474 8.30299 20.0509 8.08598 20.3086C7.86897 20.5663 7.71977 20.8714 7.65195 21.197C7.62483 21.4411 7.64517 21.692 7.71298 21.9294C7.7808 22.1667 7.90287 22.3837 8.05885 22.5736C9.91698 21.5699 11.1512 22.2752 12.3041 23.4823L12.2498 23.7197L12.2769 23.7332ZM23.2969 20.6748C23.2969 19.8881 23.5071 19.5084 23.7241 19.4948C24.3887 19.4948 24.5311 20.4035 24.5379 20.668C24.5447 20.885 24.504 21.0952 24.4158 21.2919C24.3209 21.4886 24.1853 21.6581 24.0157 21.7869C24.4904 21.8344 24.8702 21.1698 24.9244 20.7562C24.9719 20.5391 24.9719 20.3221 24.9244 20.1051C24.8837 19.8881 24.7956 19.6847 24.6735 19.5016C25.4466 20.2475 25.8942 21.2715 25.9281 22.3498C25.7586 24.0452 23.8394 24.9403 23.8394 24.9403C24.4497 25.0421 25.0736 24.9742 25.6501 24.7437C26.2265 24.5131 26.7215 24.1266 27.0945 23.6383C27.6777 22.9059 27.9287 21.8209 27.2234 20.0102C26.5859 18.403 25.4059 17.0467 26.6673 13.9611C26.9114 13.344 27.2912 12.7879 27.7727 12.3403C28.2609 11.8927 28.8441 11.5604 29.4748 11.3706C30.1123 11.1807 30.7769 11.14 31.4347 11.2485C32.0925 11.357 32.7096 11.6079 33.2521 11.9945C33.3674 12.0758 33.4556 12.1843 33.503 12.3132C33.6319 12.6658 32.696 13.1405 33.1029 13.344C33.442 13.4593 33.7675 13.6017 34.0727 13.778C34.3643 13.995 34.4185 14.1849 34.5745 14.3205C34.6084 14.3612 34.6491 14.3951 34.6966 14.4155C34.7441 14.4358 34.7915 14.4494 34.8458 14.4494C34.0795 13.4254 33.659 12.1843 33.6387 10.9026C32.6825 10.5161 31.6924 10.2177 30.6819 9.99391C29.2917 9.81081 27.8744 10.0346 26.5995 10.6314C24.6871 11.5401 22.6662 13.3508 22.6662 17.6299C22.6323 18.6742 22.8425 19.7118 23.2833 20.6612V20.6816L23.2969 20.6748ZM2.03008 30.6436C2.30812 30.6029 2.55905 30.4605 2.74215 30.2503C2.92525 30.04 3.02696 29.7688 3.02696 29.4907C3.18294 29.701 3.26432 29.9654 3.24398 30.2231C3.35926 30.04 3.43386 29.8366 3.46099 29.6196C3.48812 29.4026 3.46099 29.1856 3.39317 28.9821C3.32536 28.7787 3.20329 28.5888 3.0541 28.4396C2.9049 28.2836 2.71503 28.1683 2.51158 28.0937C2.51158 28.0937 2.5726 29.3822 1.75204 29.8366C0.924696 30.2909 0.755173 30.6097 0.707703 31.0776C0.687358 31.3082 0.734823 31.532 0.850109 31.7286C0.965394 31.8982 1.13493 32.0202 1.33159 32.0813C1.08067 31.7354 1.02642 30.9148 2.03008 30.6368V30.6436ZM22.6255 12.5912C20.2113 12.7269 19.3704 11.8588 17.7225 11.0654C16.0746 10.2787 14.6505 10.8484 14.3996 11.2281C15.5999 11.4045 16.7324 11.8792 17.6886 12.6184C21.0386 14.7138 22.6255 12.6184 22.6255 12.6184V12.5912ZM21.5472 7.49154C21.1946 7.59326 20.3537 7.72889 20.7402 9.68875C21.1336 11.6486 22.1983 11.1671 22.4831 10.923C22.0559 10.8552 21.6693 10.6314 21.398 10.2991C21.1268 9.96679 20.9844 9.53955 21.0047 9.11232C21.0047 7.41016 22.9307 7.72211 22.9307 7.72211C22.5102 7.48476 22.022 7.41694 21.554 7.53223V7.49832L21.5472 7.49154ZM43.0514 32.4339C42.2986 30.0875 41.2814 27.836 40.0201 25.7202C38.9757 24.1537 38.4535 25.2726 38.0331 25.6321C37.6194 25.9847 36.3987 28.0327 35.863 25.3947C35.3273 22.7567 32.6011 20.4713 32.6011 20.4713C33.0283 22.004 33.1233 23.6112 32.8724 25.1845C32.8317 26.0186 32.8927 26.8595 33.0419 27.6801C33.0419 28.4532 30.7294 28.9618 30.6141 29.5518C30.4921 30.1418 34.0523 32.5831 37.4431 30.1417C38.4603 29.4093 39.091 32.2576 39.4233 33.0239C39.7488 33.797 39.0978 34.0411 39.8709 34.9295C40.644 35.8179 40.054 36.5706 40.054 37.1267C40.054 37.6828 41.5866 38.9374 41.8714 38.6661C42.3665 38.1778 41.2543 35.255 40.8067 34.2378C40.3591 33.2206 39.6471 29.9654 39.1452 29.0771C38.8536 28.5684 37.3346 28.9211 37.3346 28.9211L37.2261 28.5278C37.2261 28.5278 37.4363 28.2633 37.6262 28.0666C39.1792 26.4594 39.0503 27.1579 40.6575 29.0771C42.2647 30.9894 40.332 31.7964 41.7222 32.8137C43.1124 33.8309 43.5396 34.1157 43.0378 32.4339H43.0649H43.0514ZM17.6275 6.12846C17.9259 6.20984 18.2311 6.24374 18.5363 6.23696C18.7126 6.23018 18.8753 6.17593 19.0245 6.08777C19.1737 5.99961 19.2958 5.87076 19.3772 5.72157C18.7194 5.74191 18.0751 5.51812 17.5597 5.09767C17.5597 5.09767 18.8821 5.03664 19.5467 4.9417C20.2113 4.85354 21.432 4.52124 21.432 4.52124C21.432 4.52124 21.3845 5.60628 21.3777 6.24374C21.3709 6.88121 22.1847 6.74557 22.456 6.65063C22.7272 6.56247 22.8561 5.28077 22.9103 4.20251C22.9578 3.38873 22.3475 3.37517 22.0016 3.52436C21.1743 3.91769 20.3334 4.25676 19.4721 4.55515C18.5769 4.74503 17.6547 4.77216 16.7527 4.63653L16.6646 4.98238L18.0412 5.82329L17.6275 6.12168V6.12846ZM19.8926 11.3095L20.2723 11.1468C20.1028 10.6382 20.0011 10.1092 19.9672 9.58024C20.0078 8.78002 20.096 7.97981 20.2452 7.19315H19.8926C19.8926 7.19315 19.7366 8.40026 19.5264 9.45139C19.3161 10.5025 18.7668 10.3059 18.4956 10.2855C18.2243 10.2652 16.0746 9.95322 16.0746 9.95322V10.272L17.302 10.4551C18.1972 10.6517 19.072 10.9569 19.8926 11.3638V11.3163V11.3095ZM21.2353 16.0091C20.5029 16.355 19.6823 16.4567 18.8889 16.3007C19.4179 16.6737 20.0553 16.8771 20.7063 16.8907C20.9437 16.8907 21.1743 16.8297 21.3845 16.7279C21.5947 16.6262 21.7846 16.477 21.9338 16.3007C22.2051 15.9481 22.3746 15.5344 22.4221 15.0936C22.4695 14.6528 22.3949 14.2052 22.205 13.8051C22.205 13.8051 22.1237 15.453 21.2556 16.0091H21.2353ZM19.2008 41.7042C17.1596 39.6698 17.9056 39.8868 19.2008 38.0761C20.1638 36.7334 24.843 35.5466 27.203 35.0176V34.8006C26.0027 34.8549 24.2124 34.9159 22.4153 34.9159C19.3297 34.9159 18.0887 33.7359 17.2885 33.8851C14.2232 34.4683 16.3797 37.9744 12.8059 37.5132C9.23205 37.0521 9.2863 40.6124 9.2863 40.6124C10.3035 38.544 11.3547 38.7949 12.1684 38.7949C12.9822 38.7949 14.0266 39.446 15.3422 38.3406C15.6338 38.0964 16.9494 35.9738 16.7595 37.0318C16.5561 37.7167 16.1831 38.3406 15.6812 38.8492C15.3829 39.2018 15.1998 39.4663 15.8237 39.819L16.7324 40.3276C18.1904 41.1617 17.9463 42.1382 16.9969 42.0704C16.3255 42.0704 15.5253 41.6974 14.8539 41.6364C14.5826 41.6364 14.2707 41.7178 14.7115 41.928C14.9692 42.0501 15.2065 42.2128 15.41 42.4095C16.4815 43.481 15.1998 43.0537 18.2582 42.891C18.7397 42.8706 19.228 42.8164 19.7027 42.7282C20.9166 42.4637 19.4857 41.9009 19.2212 41.6296L19.2008 41.7042ZM34.9339 43.4471C34.683 42.9927 34.4592 42.5316 34.2626 42.0501C33.7743 41.0261 34.2626 41.2227 33.9574 40.6327C33.6522 40.0427 33.4488 40.6327 32.5943 39.3171C32.4316 39.0662 32.0993 39.1747 32.0518 39.7986C32.0043 40.4225 33.0487 41.0057 33.5302 42.518C34.0117 44.0303 34.4389 44.2066 34.0116 45.1289C33.5844 46.0579 31.7331 46.0376 31.7331 46.0376C33.2114 47.5702 36.2156 45.4747 34.9339 43.4877" fill="white"/>
<path d="M68.306 0.5L50.2197 50.2762L50.8301 50.5L68.9163 0.723789L68.2992 0.5H68.306Z" fill="white"/>
</svg>
