<svg width="85" height="65" viewBox="0 0 85 65" fill="none" xmlns="http://www.w3.org/2000/svg">
<g id="Frame 1321319361">
<g id="&#208;&#155;&#208;&#190;&#208;&#179;&#208;&#190;_&#208;&#159;&#208;&#163;&#208;&#162;&#208;&#159;">
<g id="Group">
<path id="Vector" d="M0.0319921 13.5117L14.2671 18.6549V21.9645L2.8844 17.7452V56.8294L14.3035 61.0123V64.3013L-0.00439453 59.1692L0.0319921 13.5117Z" fill="white"/>
<path id="Vector_2" d="M83.8448 50.9683L69.6096 45.8251V42.5155L80.9924 46.7348V7.65065L69.5732 3.46776V0.178711L83.8811 5.31082L83.8448 50.9683Z" fill="white"/>
</g>
<g id="Group_2">
<path id="Vector_3" d="M8.16639 31.0017L9.86233 30.4132L9.76899 34.0962L10.5869 33.813L10.6945 29.3438L7.36904 30.4971L7.2583 34.9663L8.07463 34.6847L8.16639 31.0017Z" fill="white"/>
<path id="Vector_4" d="M10.981 33.6759C11.0506 33.6759 11.223 33.6696 11.4002 33.6079C11.7878 33.4734 12.4522 33.0194 12.544 31.4896L12.6658 29.4377L13.7701 29.0532L13.6783 32.7378L14.4962 32.4546L14.607 27.9854L11.9001 28.9235L11.7577 31.5085C11.6945 32.6698 11.4524 32.8501 11.2309 32.9276C11.1708 32.9482 11.0506 32.9767 10.9841 32.9703L10.9208 32.964L10.9019 33.6728L10.962 33.6743C10.9683 33.6759 10.9746 33.6759 10.981 33.6759Z" fill="white"/>
<path id="Vector_5" d="M15.9824 30.7975L17.4679 30.2833L17.8175 31.3053L18.675 31.0079L17.2132 27.0781L16.3905 27.3629L14.7041 32.3843L15.5631 32.0868L15.9824 30.7975ZM16.2197 30.0223L16.7908 28.2631L17.2591 29.6616L16.2197 30.0223Z" fill="white"/>
<path id="Vector_6" d="M19.2895 30.7951L20.1026 30.5135L20.196 26.8306L21.4584 26.3923L21.4806 25.6045L18.1378 26.7641L18.1172 27.5488L19.3812 27.1106L19.2895 30.7951Z" fill="white"/>
<path id="Vector_7" d="M21.7778 28.8852C22.08 29.1098 22.5293 29.1557 23.0213 29.0133L23.0102 29.5054L23.8266 29.2222L23.8392 28.7333C24.6983 28.4043 25.562 27.561 25.5874 26.3982C25.6 25.9078 25.456 25.5329 25.1681 25.3146C24.8691 25.0883 24.4293 25.0393 23.9231 25.1785L23.9325 24.7529L23.1178 25.0361L23.1083 25.4585C22.2508 25.8002 21.3839 26.6577 21.3554 27.8237C21.3459 28.3046 21.4915 28.6716 21.7778 28.8852ZM22.1733 27.5864C22.1876 26.9915 22.4882 26.5549 23.0909 26.2543L23.0434 28.2271C22.7144 28.2935 22.4882 28.2698 22.3521 28.1575C22.2255 28.0531 22.167 27.8664 22.1733 27.5864ZM24.5812 26.0391C24.7172 26.1499 24.7837 26.3524 24.7758 26.6403C24.7631 27.2177 24.4799 27.6212 23.8598 27.9391L23.9072 25.9663C24.2142 25.8999 24.4404 25.9252 24.5812 26.0391Z" fill="white"/>
<path id="Vector_8" d="M26.4503 27.8487C26.6497 27.9942 26.8886 28.067 27.1575 28.067C27.3537 28.067 27.5673 28.0275 27.7919 27.9499C28.9531 27.5465 29.7568 26.3442 29.7916 24.9599C29.809 24.2369 29.6002 23.6785 29.2047 23.3905C28.8598 23.139 28.401 23.1026 27.8773 23.2861C26.7082 23.6895 25.8998 24.8935 25.8666 26.2793C25.8507 27.0039 26.058 27.5608 26.4503 27.8487ZM26.6861 26.0246C26.7098 25.0627 27.1828 24.2844 27.8884 24.0407C28.1779 23.9411 28.4279 23.9585 28.6098 24.0914C28.8566 24.2717 28.9848 24.6641 28.9721 25.194C28.9484 26.167 28.4801 26.9501 27.7808 27.1937C27.4818 27.2966 27.2366 27.2807 27.0499 27.1447C26.8031 26.9643 26.6734 26.5657 26.6861 26.0246Z" fill="white"/>
<path id="Vector_9" d="M31.1288 25.0333L32.2094 24.6583C33.0257 24.3751 33.5462 23.6664 33.5683 22.8105C33.5794 22.3913 33.4702 22.0954 33.2472 21.9325C33.0004 21.7521 32.6191 21.7442 32.1429 21.9088L30.3853 22.5178L30.2729 26.9871L31.0893 26.7039L31.1288 25.0333ZM32.7694 23.0621C32.7583 23.5082 32.5099 23.8183 32.0338 23.9844L31.1462 24.2929L31.1795 22.9972L32.048 22.6966C32.328 22.5985 32.5273 22.5906 32.6397 22.6729C32.7314 22.7393 32.7741 22.869 32.7694 23.0621Z" fill="white"/>
<path id="Vector_10" d="M34.8171 22.3712L35.7758 25.0797L36.4276 24.8534L37.4955 21.4916L37.4211 24.5086L38.2042 24.238L38.3134 19.7656L37.236 20.1406L36.1286 23.7603L35.1446 20.8651L34.0751 21.2369L33.9644 25.7062L34.7411 25.4372L34.8171 22.3712Z" fill="white"/>
<path id="Vector_11" d="M39.6894 22.5758L41.1749 22.0616L41.5246 23.0836L42.382 22.7862L40.9202 18.8564L40.0976 19.1412L38.4111 24.1626L39.2718 23.8652L39.6894 22.5758ZM39.9267 21.8006L40.4978 20.0414L40.9661 21.4399L39.9267 21.8006Z" fill="white"/>
<path id="Vector_12" d="M7.64691 40.7317C7.47131 40.7918 7.33842 40.8061 7.24191 40.776L7.16598 40.7507L7.14699 41.5243L7.1992 41.5322C7.234 41.537 7.27514 41.5401 7.32102 41.5401C7.42701 41.5401 7.55832 41.5243 7.69279 41.4768C8.19113 41.3028 8.54709 40.8804 8.88248 40.0625L10.5594 35.9492L9.65768 36.2609L8.661 38.8254L7.79721 36.9063L6.91602 37.2117L8.22594 39.8948C8.01869 40.3631 7.87631 40.6526 7.64691 40.7317Z" fill="white"/>
<path id="Vector_13" d="M11.4555 40.0656L11.5045 38.1133L13.1989 37.5248L13.1514 39.477L13.9678 39.1939L14.0738 34.7246L13.259 35.0078L13.2179 36.7338L11.5219 37.3223L11.5646 35.5963L10.7499 35.8779L10.6392 40.3472L11.4555 40.0656Z" fill="white"/>
<path id="Vector_14" d="M17.2673 34.9615L17.1898 38.0845L18.0045 37.8029L18.1137 33.332L17.204 33.6484L15.5286 37.3267L15.6046 34.2021L14.7914 34.4838L14.6807 38.9577L15.5903 38.6398L17.2673 34.9615Z" fill="white"/>
<path id="Vector_15" d="M22.1135 35.057C22.1214 34.7548 22.0423 34.5175 21.8872 34.3704C21.7844 34.2739 21.6499 34.217 21.4933 34.2011C21.7876 33.9195 21.9758 33.5209 21.9837 33.1491C21.9916 32.8343 21.8983 32.5954 21.7132 32.4593C21.4791 32.2869 21.1199 32.2837 20.6485 32.4467L18.8007 33.0858L18.6899 37.555L20.7893 36.8273C21.5613 36.5599 22.0945 35.848 22.1135 35.057ZM19.5537 34.622L19.579 33.5541L20.5093 33.2313C20.7339 33.1538 20.957 33.0921 21.0725 33.1776C21.1437 33.2298 21.1769 33.3405 21.1722 33.5098C21.1642 33.9006 20.938 34.1442 20.4175 34.3245L19.5537 34.622ZM19.5047 36.5315L19.5363 35.2975L20.5267 34.9526C20.7561 34.8735 21.0361 34.7976 21.1816 34.9036C21.2655 34.9653 21.305 35.0902 21.3003 35.2785C21.2892 35.7167 21.0329 35.9999 20.465 36.1977L19.5047 36.5315Z" fill="white"/>
<path id="Vector_16" d="M25.6778 31.463L25.6968 30.6973L22.721 31.7272L22.6118 36.1964L25.6193 35.1523L25.6398 34.3739L23.4408 35.1364L23.4693 33.9831L25.4785 33.2871L25.4974 32.5435L23.4883 33.2396L23.5136 32.2129L25.6778 31.463Z" fill="white"/>
<path id="Vector_17" d="M28.014 29.8931L26.2548 30.5022L26.144 34.9715L26.9604 34.6883L26.9999 33.0176L28.0805 32.6427C28.8968 32.3595 29.4173 31.6523 29.4394 30.7949C29.4505 30.3756 29.3413 30.0798 29.1167 29.9169C28.8715 29.7365 28.4902 29.7286 28.014 29.8931ZM28.6421 31.0464C28.631 31.491 28.3826 31.8026 27.9064 31.9688L27.0189 32.2773L27.0521 30.9816L27.9207 30.681C28.2007 30.5829 28.4 30.575 28.5123 30.6573C28.6025 30.7237 28.6452 30.855 28.6421 31.0464Z" fill="white"/>
<path id="Vector_18" d="M31.7187 29.2809C31.9703 29.1939 32.1854 29.1971 32.3405 29.2889C32.4765 29.3695 32.5667 29.523 32.5999 29.7302L32.611 29.7998L33.4131 29.5214L33.4083 29.474C33.3609 29.0515 33.19 28.7367 32.9147 28.5627C32.6094 28.3697 32.1807 28.3539 31.7077 28.5168C30.5749 28.9107 29.7586 30.1352 29.7254 31.4958C29.7064 32.2504 29.9041 32.801 30.2996 33.0889C30.4911 33.2281 30.722 33.2993 30.9815 33.2993C31.1729 33.2993 31.3818 33.2613 31.6017 33.1854C32.5999 32.8389 33.3087 31.8929 33.4083 30.7791L33.4163 30.6874L32.5999 30.9706L32.5952 31.0069C32.5256 31.5179 32.2962 32.1761 31.5938 32.4213C31.3106 32.5194 31.0796 32.5051 30.9071 32.377C30.6635 32.1982 30.5306 31.79 30.5449 31.2553C30.5638 30.5244 30.8818 29.5705 31.7187 29.2809Z" fill="white"/>
<path id="Vector_19" d="M36.4329 28.3089L36.357 31.4335L37.1702 31.1519L37.2809 26.6826L36.3681 26.9974L34.6927 30.6757L34.7702 27.5527L33.9555 27.8359L33.8447 32.3052L34.7576 31.9888L36.4329 28.3089Z" fill="white"/>
<path id="Vector_20" d="M39.5851 30.3147L39.6768 26.6317L40.9393 26.1935L40.9598 25.4072L37.617 26.5653L37.5996 27.3515L38.8621 26.9133L38.7703 30.5979L39.5851 30.3147Z" fill="white"/>
<path id="Vector_21" d="M44.2379 25.0319L44.2568 24.2646L41.281 25.2961L41.1719 29.7654L44.1793 28.7212L44.1967 27.9413L42.0009 28.7038L42.0293 27.5505L44.0401 26.8529L44.0575 26.1109L42.0483 26.807L42.0736 25.7818L44.2379 25.0319Z" fill="white"/>
<path id="Vector_22" d="M45.582 28.2324L46.3951 27.9508L46.4869 24.2678L47.7509 23.8296L47.7715 23.0449L44.4287 24.2046L44.4097 24.9892L45.6737 24.551L45.582 28.2324Z" fill="white"/>
<path id="Vector_23" d="M48.3217 26.8373C48.5131 26.9765 48.7425 27.0461 49.0019 27.0461C49.1934 27.0461 49.4006 27.0082 49.6205 26.9322C50.6172 26.5874 51.3275 25.6445 51.4288 24.5291L51.4367 24.4374L50.6188 24.7206L50.614 24.7569C50.546 25.2664 50.3182 25.9245 49.6126 26.1697C49.3294 26.2678 49.0984 26.2535 48.9244 26.127C48.6808 25.9482 48.5495 25.54 48.5637 25.0053C48.5827 24.2744 48.9023 23.3189 49.7392 23.0294C49.9891 22.9423 50.2043 22.9455 50.3593 23.0373C50.497 23.1195 50.5855 23.2682 50.6204 23.4802L50.6314 23.5498L51.4319 23.2714L51.4272 23.2239C51.3797 22.8015 51.2089 22.4867 50.9336 22.3127C50.6283 22.1197 50.1995 22.1039 49.7265 22.2668C48.5922 22.6607 47.7774 23.8852 47.7442 25.2442C47.7268 25.9973 47.9261 26.5494 48.3217 26.8373Z" fill="white"/>
<path id="Vector_24" d="M52.7674 24.2769L53.2911 23.5381L54.5187 25.1375L55.5012 24.7974L53.8558 22.7392L55.566 20.3408L54.495 20.7126L52.7927 23.1458L52.8386 21.2869L52.0302 21.5685L51.9194 26.0377L52.7294 25.7561L52.7674 24.2769Z" fill="white"/>
<path id="Vector_25" d="M56.048 24.1401C56.2473 24.2872 56.4878 24.36 56.7599 24.36C56.9561 24.36 57.1697 24.322 57.3943 24.2429C58.5555 23.8395 59.3592 22.6371 59.394 21.2529C59.4114 20.5299 59.2026 19.9714 58.8071 19.6835C58.4638 19.4319 58.0034 19.3956 57.4797 19.5791C56.3106 19.9825 55.5022 21.1864 55.469 22.5723C55.45 23.2953 55.6557 23.8521 56.048 24.1401ZM56.2869 22.3192C56.3106 21.3573 56.7836 20.5773 57.4892 20.3337C57.7787 20.234 58.0287 20.2499 58.2106 20.3843C58.4574 20.5647 58.5856 20.9554 58.5713 21.4886C58.5476 22.46 58.0793 23.2446 57.3785 23.4883C57.0811 23.5927 56.8359 23.5769 56.6492 23.4408C56.4024 23.2589 56.2742 22.8602 56.2869 22.3192Z" fill="white"/>
<path id="Vector_26" d="M60.7592 19.3217L62.7509 18.6304L62.7699 17.8457L59.9618 18.8187L59.8511 23.2863L60.6674 23.0063L60.7592 19.3217Z" fill="white"/>
<path id="Vector_27" d="M63.411 21.5879C63.6103 21.7334 63.8492 21.8062 64.1181 21.8062C64.3143 21.8062 64.5279 21.7667 64.7525 21.6891C65.9137 21.2873 66.7174 20.0865 66.7522 18.7007C66.7696 17.9761 66.5608 17.4176 66.1653 17.1281C65.822 16.8766 65.3616 16.8402 64.8379 17.0221C63.6688 17.4287 62.8604 18.6311 62.8272 20.0169C62.8098 20.7431 63.017 21.3015 63.411 21.5879ZM63.6483 19.7654C63.6704 18.8051 64.1419 18.0267 64.849 17.7815C64.9724 17.7388 65.0895 17.7167 65.1971 17.7167C65.341 17.7167 65.4676 17.7546 65.572 17.8321C65.8188 18.0125 65.947 18.4048 65.9327 18.9364C65.9106 19.9078 65.4423 20.6925 64.7414 20.9361C64.444 21.0389 64.1988 21.0231 64.0121 20.887C63.7637 20.7051 63.6356 20.3064 63.6483 19.7654Z" fill="white"/>
<path id="Vector_28" d="M8.1502 47.7688L8.96494 47.4856L9.0567 43.8042L10.3192 43.366L10.3397 42.5781L7.03644 43.7235L6.99689 43.7378L6.97949 44.5224L8.24195 44.0842L8.1502 47.7688Z" fill="white"/>
<path id="Vector_29" d="M16.5159 40.4369L15.5699 42.234L14.7377 41.0523L13.7885 41.3813L15.0763 43.052L13.567 45.868L13.586 45.1054L11.3886 45.868L11.417 44.7131L13.4278 44.017L13.4452 43.2734L11.4376 43.9711L11.4629 42.946L13.6287 42.1945L13.6445 41.4288L10.6687 42.4603L10.5596 46.9295L13.5559 45.8885L13.5528 45.8949L14.521 45.5595L15.5366 43.6167L16.4558 44.8887L17.4208 44.5549L16.0429 42.7577L17.4604 40.1094L16.5159 40.4369Z" fill="white"/>
<path id="Vector_30" d="M20.9989 43.3149L21.1065 38.8457L20.2917 39.1289L20.2506 40.8549L18.5546 41.4434L18.5974 39.7158L17.7826 39.999L17.6719 44.4682L18.4866 44.1851L18.5341 42.2344L20.23 41.6459L20.181 43.5981L20.9989 43.3149Z" fill="white"/>
<path id="Vector_31" d="M22.1277 42.4571C22.327 42.6027 22.5675 42.677 22.838 42.677C23.0342 42.677 23.2462 42.639 23.4724 42.5599C24.6352 42.1565 25.4389 40.9542 25.4721 39.5699C25.4895 38.8469 25.2807 38.2885 24.8852 38.0005C24.5403 37.749 24.0815 37.7126 23.5579 37.8929C22.3903 38.2979 21.5819 39.5019 21.5471 40.8877C21.5281 41.6139 21.7354 42.1708 22.1277 42.4571ZM22.3666 40.6346C22.3887 39.6743 22.8602 38.896 23.5689 38.6507C23.6923 38.608 23.8094 38.5859 23.917 38.5859C24.0609 38.5859 24.1875 38.6238 24.2919 38.6998C24.5387 38.8801 24.6669 39.2725 24.6526 39.804C24.6305 40.7754 24.1622 41.5601 23.4614 41.8037C23.1624 41.9066 22.9171 41.8907 22.7305 41.7547C22.4821 41.5728 22.3539 41.1757 22.3666 40.6346Z" fill="white"/>
<path id="Vector_32" d="M27.2223 37.5041L28.3298 37.1196L28.238 40.8042L29.0543 40.521L29.1651 36.0518L26.4582 36.9899L26.3158 39.5749C26.2526 40.7377 26.0105 40.9165 25.789 40.994C25.7289 41.0146 25.6103 41.0447 25.5422 41.0367L25.4789 41.0304L25.46 41.7392L25.5201 41.7407C25.5248 41.7407 25.5312 41.7407 25.5375 41.7407C25.6071 41.7407 25.778 41.7344 25.9551 41.6727C26.3427 41.5398 27.0072 41.0874 27.0989 39.5575L27.2223 37.5041Z" fill="white"/>
<path id="Vector_33" d="M31.5152 39.7679C32.678 39.3645 33.4817 38.1622 33.5149 36.7779C33.5339 36.0533 33.3251 35.4964 32.9296 35.2069C32.5847 34.9554 32.1259 34.919 31.6006 35.1025C30.4315 35.5059 29.6231 36.7099 29.5899 38.0957C29.5725 38.8219 29.7797 39.3803 30.1737 39.6667C30.373 39.8122 30.6119 39.885 30.8808 39.885C31.077 39.885 31.2906 39.847 31.5152 39.7679ZM30.411 37.8426C30.4347 36.8839 30.9061 36.1039 31.6117 35.8571C31.9012 35.7575 32.1512 35.7749 32.3331 35.9078C32.5799 36.0881 32.7081 36.4805 32.6954 37.0104C32.6733 37.9818 32.205 38.7665 31.5041 39.0101C31.2067 39.1145 30.9615 39.0987 30.7748 38.9627C30.5264 38.7823 30.3967 38.3837 30.411 37.8426Z" fill="white"/>
<path id="Vector_34" d="M34.8948 34.8413L36.8866 34.1499L36.9056 33.3652L34.099 34.3398L33.9883 38.809L34.803 38.5258L34.8948 34.8413Z" fill="white"/>
<path id="Vector_35" d="M39.6015 36.8631L40.4178 36.5815L40.5286 32.1123L39.6157 32.4271L37.9404 36.1054L38.0163 32.9824L37.2 33.2656L37.0908 37.7349L38.0021 37.4184L39.679 33.7386L39.6015 36.8631Z" fill="white"/>
<path id="Vector_36" d="M43.4766 33.6492L43.4292 35.5366L44.2455 35.2534L44.3562 30.7842L43.5415 31.0674L43.4972 32.8551C43.3152 32.9563 42.9799 33.1303 42.6033 33.2616C42.3376 33.355 42.1461 33.3597 42.037 33.2806C41.8883 33.1715 41.893 32.9104 41.8977 32.7206L41.9246 31.629L41.1083 31.9122L41.0767 33.192C41.0703 33.48 41.121 33.8676 41.4057 34.0732C41.6525 34.2536 42.0259 34.2583 42.5147 34.089C42.7995 33.9894 43.2187 33.7837 43.4766 33.6492Z" fill="white"/>
<path id="Vector_37" d="M48.0006 30.2794L48.0211 29.5137L45.0453 30.5452L44.9346 35.0144L47.9436 33.9687L47.961 33.1903L45.7636 33.9513L45.7936 32.798L47.8012 32.1019L47.8202 31.3583L45.8094 32.056L45.8347 31.0293L48.0006 30.2794Z" fill="white"/>
<path id="Vector_38" d="M50.3073 28.6223C49.1745 29.0162 48.3582 30.2407 48.325 31.5997C48.306 32.3543 48.5053 32.9064 48.8992 33.1944C49.0907 33.3336 49.3217 33.4048 49.5811 33.4048C49.7725 33.4048 49.9814 33.3668 50.2013 33.2909C51.1979 32.946 51.9083 32.0015 52.0095 30.8862L52.0174 30.7944L51.1995 31.0776L51.1948 31.114C51.1268 31.6234 50.8989 32.2815 50.1934 32.5252C49.9102 32.6232 49.6792 32.609 49.5052 32.4809C49.2615 32.3021 49.1302 31.8939 49.1445 31.3592C49.1635 30.6299 49.483 29.6743 50.3199 29.3848C50.5699 29.2978 50.785 29.301 50.9401 29.3927C51.0777 29.475 51.1663 29.6237 51.2011 29.8357L51.2122 29.9053L52.0127 29.6269L52.0079 29.5794C51.9605 29.157 51.7896 28.8422 51.5143 28.6682C51.209 28.4752 50.7803 28.4593 50.3073 28.6223Z" fill="white"/>
<path id="Vector_39" d="M52.5712 27.9309L52.4604 32.4002L53.272 32.1201L53.3084 30.6409L53.8352 29.9006L55.0629 31.5L56.0453 31.1598L54.4 29.1048L56.1102 26.708L55.036 27.0798L53.3369 29.513L53.3796 27.6509L52.5712 27.9309Z" fill="white"/>
<path id="Vector_40" d="M58.0523 25.9327C56.8832 26.3393 56.0748 27.5416 56.0415 28.9275C56.0241 29.6536 56.2314 30.2105 56.6237 30.4968C56.8231 30.6424 57.0635 30.7167 57.3341 30.7167C57.5302 30.7167 57.7422 30.6772 57.9685 30.5997C59.1297 30.1963 59.9333 28.9939 59.9681 27.6096C59.9855 26.8866 59.7767 26.3282 59.3812 26.0403C59.0363 25.7887 58.576 25.7507 58.0523 25.9327ZM59.1423 27.8454C59.1202 28.8167 58.6519 29.6014 57.9511 29.845C57.6536 29.9479 57.4084 29.9321 57.2217 29.796C56.9734 29.6157 56.8452 29.217 56.8579 28.6759C56.8816 27.7156 57.353 26.9373 58.0586 26.6921C58.3481 26.5924 58.5981 26.6098 58.78 26.7427C59.0284 26.923 59.1566 27.3138 59.1423 27.8454Z" fill="white"/>
<path id="Vector_41" d="M60.416 29.643L61.2292 29.3598L61.3209 25.6753L63.3143 24.9855L63.3317 24.1992L60.5252 25.1737L60.416 29.643Z" fill="white"/>
<path id="Vector_42" d="M67.3173 25.0581C67.3347 24.3335 67.1259 23.7751 66.7304 23.4856C66.3871 23.234 65.9267 23.1976 65.4031 23.3796C64.234 23.7861 63.4255 24.9885 63.3923 26.3744C63.3733 27.1005 63.5806 27.6574 63.9745 27.9453C64.1738 28.0909 64.4143 28.1652 64.6833 28.1652C64.8794 28.1652 65.093 28.1257 65.3176 28.0481C66.4789 27.6463 67.2809 26.4455 67.3173 25.0581ZM66.4963 25.2907C66.4741 26.262 66.0058 27.0467 65.305 27.2903C65.0076 27.3932 64.7608 27.3774 64.5757 27.2413C64.3289 27.061 64.1991 26.6639 64.2134 26.1228C64.2355 25.1641 64.707 24.3842 65.4141 24.1374C65.5375 24.0946 65.6546 24.0725 65.7606 24.0725C65.9046 24.0725 66.0311 24.1105 66.1356 24.188C66.3808 24.3683 66.5089 24.7591 66.4963 25.2907Z" fill="white"/>
<path id="Vector_43" d="M7.2583 54.6343L8.07463 54.3527L8.16639 50.6697L9.86233 50.0812L9.76899 53.7641L10.5869 53.481L10.6945 49.0117L7.36904 50.165L7.2583 54.6343Z" fill="white"/>
<path id="Vector_44" d="M14.2657 48.1777C14.0205 47.9974 13.6377 47.9911 13.1615 48.1556L11.4022 48.7647L11.2915 53.2339L12.1078 52.9507L12.1505 51.2801L13.2295 50.9052C14.0458 50.622 14.5663 49.9148 14.5885 49.0573C14.598 48.6381 14.4904 48.3423 14.2657 48.1777ZM13.7895 49.3089C13.7785 49.755 13.5301 50.0651 13.0539 50.2312L12.1664 50.5397L12.1996 49.244L13.0681 48.9434C13.3481 48.8454 13.5475 48.8374 13.6598 48.9197C13.7516 48.9862 13.7943 49.1175 13.7895 49.3089Z" fill="white"/>
<path id="Vector_45" d="M14.9829 51.9548L17.9919 50.9107L18.0125 50.1307L15.8151 50.8917L15.842 49.7384L17.8511 49.0423L17.8701 48.2988L15.8609 48.9964L15.8862 47.9697L18.0505 47.2198L18.0695 46.4541L15.0937 47.4856L14.9829 51.9548Z" fill="white"/>
<path id="Vector_46" d="M21.8285 45.1523L19.1264 46.0889L19.1074 46.8024C19.079 47.9636 18.8432 49.2514 18.5316 49.9491L18.1313 50.0883L18.0854 51.9535L18.8796 51.6782L18.9065 50.5993L21.3682 49.745L21.3413 50.8255L22.1355 50.5455L22.1813 48.6803L21.7352 48.8353L21.8285 45.1523ZM20.9948 46.2218L20.9236 49.1201L19.427 49.6406C19.6817 48.9461 19.8795 47.7912 19.9032 46.8214L19.908 46.5999L20.9948 46.2218Z" fill="white"/>
<path id="Vector_47" d="M22.5005 49.3452L23.3168 49.062L23.4086 45.379L25.1029 44.7921L25.0112 48.4767L25.8275 48.1935L25.9367 43.7227L22.6112 44.876L22.5005 49.3452Z" fill="white"/>
<path id="Vector_48" d="M29.5417 42.8856C29.2933 42.7037 28.9216 42.6957 28.4375 42.8634L26.6767 43.4725L26.5659 47.9418L27.3822 47.6586L27.425 45.988L28.5055 45.613C29.3218 45.3298 29.8423 44.6227 29.8645 43.7652C29.874 43.3444 29.7664 43.0485 29.5417 42.8856ZM29.0655 44.0152C29.0545 44.4597 28.8061 44.7714 28.3299 44.9375L27.4424 45.246L27.4756 43.9503L28.3441 43.6497C28.6241 43.5516 28.8235 43.5437 28.9358 43.626C29.026 43.6908 29.0703 43.8222 29.0655 44.0152Z" fill="white"/>
<path id="Vector_49" d="M31.083 45.0386L31.1589 41.9125L30.3457 42.1957L30.2334 46.6665L31.1462 46.3517L32.8216 42.6703L32.7441 45.7964L33.5604 45.5132L33.6712 41.0439L32.7583 41.3604L31.083 45.0386Z" fill="white"/>
<path id="Vector_50" d="M36.8292 41.6605L35.1348 42.2491L35.1776 40.5231L34.3612 40.8047L34.2505 45.2739L35.0652 44.9923L35.1127 43.0401L36.8071 42.4516L36.7596 44.4038L37.5743 44.1206L37.6882 39.6514L36.8719 39.9346L36.8292 41.6605Z" fill="white"/>
<path id="Vector_51" d="M39.1239 42.2554L39.2014 39.1309L38.385 39.414L38.2759 43.8817L39.1871 43.5653L40.8641 39.8871L40.7866 43.0116L41.6029 42.73L41.7136 38.2607L40.8008 38.5756L39.1239 42.2554Z" fill="white"/>
<path id="Vector_52" d="M44.4722 40.5337L43.4898 37.6386L42.4203 38.0104L42.3096 42.4796L43.0863 42.2106L43.1639 39.1431L44.1226 41.8531L44.776 41.6269L45.8423 38.2651L45.7695 41.282L46.551 41.0099L46.657 36.5391L45.5796 36.914L44.4722 40.5337Z" fill="white"/>
<path id="Vector_53" d="M48.4667 35.9101L46.7803 40.9315L47.6393 40.6341L48.057 39.3463L49.5425 38.8322L49.8921 39.8541L50.7528 39.5567L49.2894 35.627L48.4667 35.9101ZM49.3368 38.2104L48.2974 38.5711L48.8686 36.8119L49.3368 38.2104Z" fill="white"/>
<path id="Vector_54" d="M50.1851 36.0967L51.4475 35.6584L51.3558 39.343L52.1705 39.0598L52.2623 35.3784L53.5263 34.9402L53.5453 34.1523L50.2025 35.312L50.1851 36.0967Z" fill="white"/>
<path id="Vector_55" d="M53.749 38.5154L56.7565 37.4697L56.7786 36.6913L54.578 37.4523L54.6081 36.2989L56.6172 35.6029L56.6362 34.8593L54.627 35.5554L54.6524 34.5302L56.8166 33.7804L56.8356 33.0146L53.8598 34.0446L53.749 38.5154Z" fill="white"/>
<path id="Vector_56" d="M57.9067 35.0726C57.8434 36.2338 57.6013 36.4142 57.3798 36.4917C57.3197 36.5123 57.1979 36.5392 57.133 36.5344L57.0698 36.5281L57.0508 37.2368L57.1109 37.2384C57.1156 37.2384 57.122 37.2384 57.1299 37.2384C57.2074 37.2384 57.3719 37.2305 57.5475 37.1704C57.9351 37.0359 58.598 36.5819 58.6913 35.0521L58.8132 33.0002L59.919 32.6157L59.8272 36.2987L60.6436 36.0155L60.7543 31.5479L58.0475 32.486L57.9067 35.0726Z" fill="white"/>
<path id="Vector_57" d="M64.2813 32.3652C64.0377 32.188 63.677 32.1786 63.2103 32.3399L62.2342 32.6801L62.2737 31.0205L61.4574 31.3037L61.3467 35.7729L63.1803 35.1354C64.063 34.83 64.5835 34.1482 64.6072 33.2638C64.6199 32.8351 64.5092 32.5313 64.2813 32.3652ZM63.7941 33.5233C63.783 33.9694 63.5663 34.2605 63.1312 34.4124L62.182 34.7414L62.2152 33.4284L63.1945 33.0898C63.3891 33.0218 63.5457 33.0249 63.647 33.0993C63.7482 33.1737 63.7988 33.3192 63.7941 33.5233Z" fill="white"/>
<path id="Vector_58" d="M67.804 31.8065C67.736 32.3159 67.5082 32.974 66.8026 33.2192C66.521 33.3173 66.29 33.3031 66.1176 33.1765C65.874 32.9993 65.7411 32.5896 65.7553 32.0549C65.7743 31.3256 66.0939 30.37 66.9308 30.0805C67.1807 29.9935 67.3943 29.9966 67.5493 30.0884C67.6854 30.1691 67.7771 30.3225 67.8119 30.5298L67.823 30.5994L68.6235 30.321L68.6188 30.2735C68.5713 29.8511 68.4005 29.5363 68.1236 29.3623C67.8183 29.1692 67.3911 29.1534 66.9181 29.318C65.7838 29.7119 64.969 30.938 64.9358 32.2969C64.9168 33.0516 65.1162 33.6037 65.5101 33.8916C65.7015 34.0308 65.9325 34.102 66.1919 34.102C66.3834 34.102 66.5906 34.0641 66.8121 33.9881C67.8104 33.6401 68.5191 32.6956 68.6204 31.5818L68.6283 31.4901L67.8104 31.7733L67.804 31.8065Z" fill="white"/>
<path id="Vector_59" d="M68.6973 29.5781L69.9613 29.1399L69.8696 32.8244L70.6827 32.5413L70.7745 28.8567L72.0385 28.4185L72.0591 27.6338L68.7162 28.7934L68.6973 29.5781Z" fill="white"/>
<path id="Vector_60" d="M75.0729 28.6342C75.3672 28.3526 75.557 27.9539 75.5649 27.5821C75.5728 27.2657 75.4779 27.0284 75.2928 26.8923C75.0571 26.7215 74.6995 26.7167 74.2281 26.8797L72.3803 27.5188L72.2695 31.9881L74.3705 31.2603C75.1425 30.993 75.6741 30.281 75.6946 29.4916C75.7025 29.191 75.625 28.9537 75.47 28.805C75.3656 28.7069 75.2311 28.65 75.0729 28.6342ZM73.1349 29.055L73.1602 27.9855L74.0905 27.6644C74.3151 27.5868 74.5382 27.5251 74.6537 27.6106C74.7248 27.6628 74.7581 27.7735 74.7533 27.9428C74.7422 28.3383 74.5239 28.5756 73.9987 28.7576L73.1349 29.055ZM73.0874 30.9629L73.1207 29.7273L74.111 29.384C74.3388 29.3049 74.6188 29.229 74.7628 29.335C74.8467 29.3967 74.8862 29.5217 74.8815 29.7099C74.8704 30.1497 74.6141 30.4329 74.0462 30.6291L73.0874 30.9629Z" fill="white"/>
<path id="Vector_61" d="M78.2073 25.4922L77.3847 25.777L75.6982 30.7983L76.5573 30.5009L76.9749 29.2131L78.4605 28.699L78.8101 29.721L79.6676 29.4235L78.2073 25.4922ZM78.2516 28.0772L77.2122 28.4379L77.7834 26.6787L78.2516 28.0772Z" fill="white"/>
</g>
</g>
</g>
</svg>
