<svg width="31" height="39" viewBox="0 0 31 39" fill="none" xmlns="http://www.w3.org/2000/svg">
<rect x="1.5" y="2.2666" width="28" height="35.2333" stroke="#12677F" stroke-width="3"/>
<path d="M23.9822 17.5975L23.974 15.1582L22.9092 14.5511L15.4763 10.3213L8.06371 14.5856L7 15.1986L7.00592 17.6141L7.02368 24.9117L13.3679 28.5237L14.4553 29.1427L15.5035 29.738L15.5238 29.7499L17.6535 28.5249L24 24.8725L23.9822 17.5975ZM15.4834 12.7617L20.7816 15.7761L15.4964 18.8165L10.1969 15.801L15.4834 12.7617ZM9.15111 23.6867L9.1357 17.633L14.4138 20.6366L14.4304 26.6915L9.15111 23.6867ZM16.5803 26.6975L16.5661 20.6427L21.8489 17.6023L21.8679 23.6595L16.5803 26.6975Z" fill="#12677F"/>
</svg>
