<svg width="107" height="64" viewBox="0 0 107 64" fill="none" xmlns="http://www.w3.org/2000/svg">
<mask id="mask0_3622_22213" style="mask-type:luminance" maskUnits="userSpaceOnUse" x="0" y="0" width="106" height="64">
<path d="M105.696 0.8125H0.53125V63.9111H105.696V0.8125Z" fill="white"/>
</mask>
<g mask="url(#mask0_3622_22213)">
<path d="M52.803 25.4863V36.458H54.0709V41.4631H49.522V39.7974H42.7598V41.4631H38.2109V36.458H39.3592C40.3658 34.5294 40.6689 32.3625 40.6689 29.1627V25.4863H52.8057H52.803ZM45.215 28.8258V30.3764C45.215 32.7433 44.9537 34.9677 44.0277 36.458H48.0539V28.8258H45.2178H45.215Z" fill="white"/>
<path d="M56.87 25.4871H63.7934C67.055 25.4871 69.6492 26.2432 69.6492 29.0841C69.6492 30.5552 68.6844 31.629 67.7557 32.2044C69.3266 32.6015 70.1719 33.9329 70.1719 35.4835C70.1719 38.6832 67.6972 39.7955 63.9324 39.7955H56.8672V25.4844L56.87 25.4871ZM61.6191 31.2126H63.5932C64.5386 31.2126 65.2226 30.7963 65.2226 29.9607C65.2226 28.8484 64.2967 28.8265 63.2902 28.8265H61.6191V31.2126ZM61.6191 36.4588H63.6934C64.8611 36.4588 65.7481 36.2204 65.7481 35.1466C65.7481 33.8946 64.6415 33.8124 63.1317 33.8124H61.6218V36.456L61.6191 36.4588Z" fill="white"/>
<path d="M83.6397 25.4863V27.1355H84.7464C88.9727 27.1355 90.8662 29.56 90.8662 32.5022C90.8662 35.4444 88.9727 37.8278 84.8076 37.8278H83.6397V39.7947H78.8907V37.8278H77.7228C73.5576 37.8278 71.6641 35.5814 71.6641 32.5022C71.6641 29.423 73.5549 27.1355 77.7812 27.1355H78.8879V25.4863H83.6369H83.6397ZM78.8907 30.475H78.2483C76.7775 30.475 76.2158 31.1297 76.2158 32.4639C76.2158 33.6966 76.7608 34.491 77.987 34.491H78.8934V30.475H78.8907ZM83.6397 34.491H84.5462C85.7752 34.491 86.3174 33.6966 86.3174 32.4639C86.3174 31.1325 85.7334 30.475 84.2654 30.475H83.6425V34.491H83.6397Z" fill="white"/>
<path d="M95.9761 25.4863L98.2891 31.1297L100.583 25.4863H105.696L100.341 36.658C99.1121 39.2222 97.9024 40.0796 96.0725 40.1755C95.2892 40.2166 94.2102 40.118 92.9365 39.7618V36.4799C93.7874 36.6333 94.285 36.7511 94.8241 36.6771C95.2919 36.6114 95.6696 36.458 95.9535 35.8827L90.6172 25.4891H95.9724L95.9761 25.4863Z" fill="white"/>
<path d="M41.9013 43.6494V46.6463H42.2461V48.2352H41.0032V47.5558H39.1569V48.2352H37.9141V46.6463H38.2282C38.5035 46.1204 38.587 45.5287 38.587 44.6548V43.6521H41.9013V43.6494ZM39.8298 44.5616V44.9835C39.8298 45.63 39.7575 46.2382 39.5045 46.6436H40.6056V44.5588H39.8298V44.5616Z" fill="white"/>
<path d="M45.2623 43.6494L46.6803 47.5558H45.3874L45.2344 47.0409H43.9415L43.7942 47.5558H42.5234L43.9415 43.6494H45.2623ZM45.0092 46.2273L44.5922 44.8274L44.1918 46.2273H45.0092Z" fill="white"/>
<path d="M51.1551 43.65V47.5566H49.8594V44.5595H48.9307V45.6717C48.9307 47.2469 48.4302 47.636 47.6878 47.636C47.4181 47.636 47.243 47.6141 46.9844 47.5538V46.6415C47.0623 46.6689 47.1318 46.6798 47.2818 46.6798C47.5405 46.6798 47.6878 46.5757 47.6878 45.658V43.6445H51.1551V43.65Z" fill="white"/>
<path d="M53.0797 45.0111H53.6942C54.6951 45.0111 55.3264 45.4577 55.3264 46.3096C55.3264 47.1616 54.7063 47.5589 53.6775 47.5589H51.7812V43.6523H53.0797V45.0138V45.0111ZM53.0797 46.6438H53.5579C53.8777 46.6438 54.1196 46.5781 54.1196 46.285C54.1196 45.9426 53.8165 45.9206 53.405 45.9206H53.0797V46.6438Z" fill="white"/>
<path d="M57.1266 45.0109H58.3528V43.6494H59.6485V47.5558H58.3528V45.9231H57.1266V47.5558H55.8281V43.6494H57.1266V45.0109Z" fill="white"/>
<path d="M63.6423 43.6494V44.5588H61.7126V45.1177H63.3447V46.0299H61.7126V46.6436H63.7202V47.5558H60.4141V43.6494H63.6423Z" fill="white"/>
<path d="M64.3544 43.6494H66.2451C67.1348 43.6494 67.8439 43.8548 67.8439 44.6301C67.8439 45.0328 67.5797 45.3259 67.3267 45.4821C67.7549 45.5917 67.9857 45.9533 67.9857 46.3779C67.9857 47.2518 67.31 47.5558 66.2812 47.5558H64.3516V43.6494H64.3544ZM65.6528 45.2109H66.1922C66.4509 45.2109 66.6371 45.0985 66.6371 44.8685C66.6371 44.5643 66.3841 44.5588 66.1089 44.5588H65.6528V45.2081V45.2109ZM65.6528 46.6436H66.2201C66.5398 46.6436 66.7817 46.5779 66.7817 46.2848C66.7817 45.9423 66.4786 45.9204 66.0671 45.9204H65.6556V46.6436H65.6528Z" fill="white"/>
<path d="M72.6017 45.5814C72.6017 46.9128 71.6952 47.6606 70.5246 47.6606C69.2817 47.6606 68.4531 46.8991 68.4531 45.5704C68.4531 44.3431 69.2928 43.5459 70.5246 43.5459C71.9371 43.5459 72.6017 44.5513 72.6017 45.5814ZM69.7488 45.5814C69.7488 46.0799 69.9018 46.7045 70.5246 46.7045C71.0862 46.7045 71.3059 46.2252 71.3059 45.5814C71.3059 45.0499 71.0918 44.502 70.5135 44.502C69.9351 44.502 69.7488 45.0882 69.7488 45.5814Z" fill="white"/>
<path d="M75.9258 45.1403C75.8869 44.7322 75.6283 44.4992 75.2223 44.4992C74.7664 44.4992 74.4911 44.8855 74.4911 45.6389C74.4911 46.1868 74.6134 46.7045 75.2724 46.7045C75.6895 46.7045 75.8869 46.4169 75.9369 46.0416H77.1854C77.0686 47.0525 76.3374 47.6606 75.2946 47.6606C73.9878 47.6606 73.1953 46.8689 73.1953 45.5978C73.1953 44.3267 74.0628 43.5459 75.1695 43.5459C76.379 43.5459 77.0547 44.1377 77.1603 45.143H75.9286L75.9258 45.1403Z" fill="white"/>
<path d="M79.987 47.5558H78.6884V44.5588H77.5234V43.6494H81.152V44.5588H79.987V47.5558Z" fill="white"/>
<path d="M85.5888 45.5814C85.5888 46.9128 84.6823 47.6606 83.5117 47.6606C82.2689 47.6606 81.4375 46.8991 81.4375 45.5704C81.4375 44.3431 82.2772 43.5459 83.5117 43.5459C84.9242 43.5459 85.5888 44.5513 85.5888 45.5814ZM82.736 45.5814C82.736 46.0799 82.8889 46.7045 83.5117 46.7045C84.0734 46.7045 84.2931 46.2252 84.2931 45.5814C84.2931 45.0499 84.079 44.502 83.5006 44.502C82.9223 44.502 82.736 45.0882 82.736 45.5814Z" fill="white"/>
<path d="M87.3582 43.65V44.6582C87.3582 44.9677 87.5389 45.1074 87.8532 45.1074C88.1062 45.1074 88.3258 45.0745 88.4426 45.0362V43.6472H89.7411V47.5538H88.4426V45.973C88.2118 46.0279 88.0478 46.0608 87.361 46.0608C86.777 46.0608 86.0625 45.7019 86.0625 44.8554V43.6445H87.361L87.3582 43.65Z" fill="white"/>
<path d="M91.8067 45.0109H93.0327V43.6494H94.3289V47.5558H93.0327V45.9231H91.8067V47.5558H90.5078V43.6494H91.8067V45.0109Z" fill="white"/>
<path d="M96.3996 45.0109H97.0144C98.0149 45.0109 98.6468 45.4575 98.6468 46.3094C98.6468 47.1614 98.0239 47.5586 96.9972 47.5586H95.1016V43.6521H96.3996V45.0136V45.0109ZM96.3996 46.6436H96.8782C97.1982 46.6436 97.4398 46.5779 97.4398 46.2848C97.4398 45.9423 97.1369 45.9204 96.725 45.9204H96.3996V46.6436ZM100.506 47.5558H99.2111V43.6494H100.506V47.5558Z" fill="white"/>
<path d="M105.101 43.649V47.5555H103.858V46.3118L103.925 45.3118L102.496 47.5527H101.281V43.6462H102.524V44.89L102.458 45.8871L103.886 43.6462H105.101V43.649ZM102.671 42.5312C102.71 42.8354 103.007 42.8682 103.261 42.8682C103.603 42.8682 103.767 42.7641 103.806 42.5312H104.234C104.212 43.0901 103.756 43.3614 103.227 43.3614C102.649 43.3614 102.282 43.1339 102.238 42.5312H102.671Z" fill="white"/>
<path d="M42.4847 49.9014V50.5068H42.8907C44.4422 50.5068 45.1373 51.3972 45.1373 52.4792C45.1373 53.5614 44.4422 54.4352 42.9129 54.4352H42.4847V55.1585H40.7386V54.4352H40.3103C38.7811 54.4352 38.0859 53.6107 38.0859 52.4792C38.0859 51.3479 38.7811 50.5068 40.3326 50.5068H40.7386V49.9014H42.4847ZM40.7386 51.7341H40.5023C39.9628 51.7341 39.7571 51.9751 39.7571 52.4655C39.7571 52.9176 39.9573 53.2107 40.4077 53.2107H40.7414V51.7368L40.7386 51.7341ZM42.4847 53.2079H42.8184C43.2689 53.2079 43.4691 52.9148 43.4691 52.4628C43.4691 51.9724 43.255 51.7313 42.7155 51.7313H42.4875V53.2052L42.4847 53.2079Z" fill="white"/>
<path d="M50.1138 49.9014V51.1286H47.5169V51.8792H49.7134V53.1066H47.5169V53.9311H50.2167V55.1585H45.7734V49.9014H50.1138Z" fill="white"/>
<path d="M56.2643 49.9014V53.9311H56.7314V55.9146H55.0604V55.1585H52.5774V55.9146H50.9062V53.9311H51.3261C51.696 53.2243 51.8071 52.4272 51.8071 51.2519V49.9014H56.2643ZM53.4754 51.1259V51.6957C53.4754 52.5641 53.3809 53.3832 53.0389 53.9284H54.5182V51.1259H53.4754Z" fill="white"/>
<path d="M61.8532 49.9014V51.1286H59.2589V51.8792H61.4556V53.1066H59.2589V53.9311H61.9588V55.1585H57.5156V49.9014H61.8532Z" fill="white"/>
<path d="M64.4777 55.1585H62.7344V49.9014H65.298C66.83 49.9014 67.5668 50.5945 67.5668 51.6738C67.5668 52.7532 66.8856 53.5203 65.3563 53.5203H64.4777V55.1557V55.1585ZM64.4777 52.2957H65.2034C65.6093 52.2957 65.9041 52.1341 65.9041 51.682C65.9041 51.1916 65.3424 51.1259 64.9727 51.1259H64.4777V52.2957Z" fill="white"/>
<path d="M70.8455 49.9014L72.7529 55.1585H71.0151L70.8094 54.4654H69.0715L68.8713 55.1585H67.1641L69.0715 49.9014H70.8455ZM70.5063 53.3695L69.9446 51.4848L69.4052 53.3695H70.5063Z" fill="white"/>
<path d="M78.8767 49.9014V55.1585H77.1305V51.1286H75.882V52.6244C75.882 54.742 75.2092 55.2653 74.211 55.2653C73.8496 55.2653 73.6132 55.2379 73.2656 55.1557V53.9284C73.3685 53.964 73.4658 53.9804 73.666 53.9804C74.0136 53.9804 74.2138 53.8408 74.2138 52.6079V49.9014H78.8795H78.8767Z" fill="white"/>
<path d="M81.6497 51.7341H82.4782C83.824 51.7341 84.6749 52.3313 84.6749 53.4791C84.6749 54.627 83.8407 55.1585 82.456 55.1585H79.9062V49.9014H81.6497V51.7341ZM81.6497 53.9311H82.2919C82.7202 53.9311 83.0455 53.8435 83.0455 53.449C83.0455 52.9888 82.6395 52.9587 82.0834 52.9587H81.6469V53.9284L81.6497 53.9311Z" fill="white"/>
<path d="M87.2278 51.7341H88.8766V49.9014H90.6223V55.1585H88.8766V52.9614H87.2278V55.1585H85.4844V49.9014H87.2278V51.7341Z" fill="white"/>
<path d="M93.3918 51.7341H94.2202C95.566 51.7341 96.4169 52.3313 96.4169 53.4791C96.4169 54.627 95.5804 55.1585 94.1985 55.1585H91.6484V49.9014H93.3918V51.7341ZM93.3918 53.9311H94.0372C94.4653 53.9311 94.7907 53.8435 94.7907 53.449C94.7907 52.9888 94.3842 52.9587 93.828 52.9587H93.3918V53.9284V53.9311ZM98.9138 55.1585H97.1705V49.9014H98.9138V55.1585Z" fill="white"/>
<path d="M105.091 49.9004V55.1575H103.42V53.4864L103.509 52.1441L101.585 55.1602H99.9531V49.9032H101.624V51.5742L101.535 52.9166L103.456 49.9032H105.091V49.9004ZM101.824 48.3965C101.874 48.8046 102.274 48.8485 102.614 48.8485C103.073 48.8485 103.295 48.7115 103.345 48.3965H103.924C103.893 49.1471 103.278 49.5141 102.569 49.5141C101.794 49.5141 101.296 49.2073 101.238 48.3965H101.822H101.824Z" fill="white"/>
<path d="M40.0719 57.75L40.9866 59.98L41.8931 57.75H43.9117L41.7957 62.1633C41.312 63.1742 40.8254 63.5523 40.1108 63.5523C39.7994 63.5523 39.4434 63.4646 39.2265 63.3797V62.0921C39.3378 62.1305 39.4018 62.1716 39.6159 62.1716C39.8133 62.1716 39.9495 62.0867 40.0607 61.8565L37.9531 57.75H40.0691H40.0719Z" fill="white"/>
<path d="M46.4316 59.7198H48.2028V57.75H50.0796V63.4016H48.2028V61.0374H46.4316V63.4016H44.5547V57.75H46.4316V59.7198Z" fill="white"/>
<path d="M56.7151 57.75V63.4016H54.9162V61.6045L55.0134 60.158L52.9448 63.4016H51.1875V57.75H52.9836V59.5471L52.8892 60.9908L54.9578 57.75H56.7151Z" fill="white"/>
<path d="M57.8281 57.75H60.5614C61.8488 57.75 62.8747 58.0486 62.8747 59.1718C62.8747 59.7526 62.4938 60.1744 62.1268 60.4046C62.7468 60.5608 63.0804 61.0867 63.0804 61.7003C63.0804 62.966 62.1018 63.4044 60.617 63.4044H57.8281V57.7528V57.75ZM59.7049 60.0101H60.4835C60.8588 60.0101 61.1285 59.8458 61.1285 59.5142C61.1285 59.0732 60.7643 59.065 60.3667 59.065H59.7077V60.0074L59.7049 60.0101ZM59.7049 62.0812H60.5224C60.984 62.0812 61.3343 61.9853 61.3343 61.5634C61.3343 61.0675 60.8978 61.0374 60.3 61.0374H59.7049V62.0812Z" fill="white"/>
<path d="M68.6579 57.75V59.0677H65.869V59.8759H68.2297V61.1963H65.869V62.0839H68.7691V63.4016H63.9922V57.75H68.6579Z" fill="white"/>
<path d="M71.5721 63.4016H69.6953V57.75H72.4536C74.0997 57.75 74.8949 58.4952 74.8949 59.6568C74.8949 60.8182 74.1636 61.6428 72.5175 61.6428H71.5721V63.4016ZM71.5721 60.3251H72.3507C72.7872 60.3251 73.1071 60.1525 73.1071 59.6649C73.1071 59.139 72.5037 59.0677 72.106 59.0677H71.5749V60.3251H71.5721Z" fill="white"/>
<path d="M79.4589 59.9094C79.4033 59.3204 79.0307 58.9834 78.4412 58.9834C77.7822 58.9834 77.3846 59.5395 77.3846 60.6326C77.3846 61.4243 77.5598 62.1722 78.5135 62.1722C79.1169 62.1722 79.4033 61.7558 79.4755 61.2161H81.2801C81.1132 62.6762 80.0567 63.5557 78.5441 63.5557C76.6533 63.5557 75.5078 62.4105 75.5078 60.5724C75.5078 58.7341 76.7646 57.6055 78.3606 57.6055C80.1095 57.6055 81.0883 58.4602 81.2384 59.9121H79.4589V59.9094Z" fill="white"/>
<path d="M87.603 57.75V63.4016H85.8067V61.6045L85.9041 60.158L83.8354 63.4016H82.0781V57.75H83.8771V59.5471L83.7825 60.9908L85.8484 57.75H87.603Z" fill="white"/>
<path d="M91.9763 63.4016H90.0991V59.0677H88.4141V57.75H93.6611V59.0677H91.9763V63.4016Z" fill="white"/>
<path d="M99.1266 57.75V59.0677H96.3377V59.8759H98.6985V61.1963H96.3377V62.0839H99.2384V63.4016H94.4609V57.75H99.1266Z" fill="white"/>
<path d="M103.406 63.4016H101.529V59.0677H99.8438V57.75H105.091V59.0677H103.406V63.4016Z" fill="white"/>
<path d="M8.2836 6.59664C7.40722 7.29774 6.79377 8.34938 6.53086 9.57634C6.35559 10.7156 6.53086 12.1178 7.31959 13.3448C7.40722 13.4324 7.49486 13.6076 7.5825 13.6952C7.93305 14.1335 8.37123 14.5717 8.80941 15.0975C13.7171 19.6546 19.6764 22.9848 24.7594 25.5262C28.2648 27.279 30.2805 29.207 31.0692 32.1865C32.2085 26.7531 31.0692 24.0365 30.0175 22.459C28.1771 19.4793 25.1975 18.0772 24.9346 17.9018C20.7281 15.5356 14.944 12.7313 11.4385 9.75157C10.124 8.61229 9.07232 7.47301 8.63414 6.24609C8.5465 6.33373 8.37124 6.42137 8.2836 6.59664Z" fill="white"/>
<path d="M6.00342 16.4111C4.68887 17.638 3.8125 19.4785 3.8125 21.0559C3.8125 22.2829 3.98777 23.5098 5.12705 25.4377C9.33359 32.624 22.742 38.2328 26.0723 40.2483C28.5261 41.7383 30.5417 43.9292 31.2429 47.2593C31.8563 43.491 32.0316 39.4596 30.9799 37.0058C29.6654 33.9385 27.825 32.2735 25.1082 30.7836C20.7264 28.4174 14.5042 24.8242 9.77186 20.53C8.10671 19.2155 6.70452 17.901 6.00342 16.4111Z" fill="white"/>
<path d="M16.6075 9.75135C13.6278 11.5918 9.33359 13.1692 6.09106 16.4118C4.68887 17.6387 3.8125 19.4791 3.8125 21.0565C3.8125 22.2835 3.98777 23.5104 5.12705 25.4384C5.12705 23.9485 6.61688 21.67 9.50891 20.0049C12.5762 18.1645 17.8344 15.623 21.077 11.9422C23.0926 9.66374 21.8657 6.8593 19.4119 6.1582C19.9377 7.73567 17.6592 9.05024 16.6075 9.75135Z" fill="white"/>
<path d="M13.6312 3.35398C12.1413 4.05506 10.3009 4.93143 8.63584 6.15836C8.46057 6.24599 8.37294 6.42126 8.19766 6.5089C7.32129 7.20999 6.70784 8.26164 6.44492 9.48857C6.26965 10.6279 6.44491 12.03 7.23365 13.2569C7.32129 13.3446 7.40893 13.5198 7.49656 13.6075C7.5842 11.7671 8.98639 10.4525 11.265 9.31324C13.5435 8.08636 15.6468 6.59654 16.9614 5.28198C18.5388 3.61688 17.2243 1.07541 15.7344 0.8125C16.085 2.12705 14.6828 2.91578 13.6312 3.35398Z" fill="white"/>
<path d="M2.67504 29.7324C-0.12934 33.6761 0.0459391 36.9186 1.88631 39.8107C5.04124 44.6307 12.9285 48.3114 19.2384 51.4664C22.3057 53.0438 25.1101 54.7089 27.3887 57.3381C28.8785 59.0908 30.193 61.1941 31.0694 63.9109H31.157C31.8581 60.0548 31.7705 55.1471 30.8065 52.4304C29.9301 49.8013 28.0021 47.0845 24.1461 44.6307C19.1508 41.4758 11.4387 38.5837 6.88161 34.2896C5.12888 32.4492 3.37613 31.1347 2.67504 29.7324C2.76268 29.7324 2.76268 29.7324 2.67504 29.7324Z" fill="white"/>
<path d="M21.0788 16.8501C16.3464 20.3556 7.05689 24.7375 2.76268 29.6451C2.76268 29.6451 2.76268 29.7327 2.67504 29.7327C-0.12934 33.6764 0.0459391 36.919 1.88631 39.811C1.88631 38.3211 4.07724 36.2179 6.96926 33.9393C12.0522 29.8204 21.0788 26.1396 26.1618 19.5669C28.0021 17.2007 26.7752 13.3446 24.0584 12.293C24.6719 13.7828 23.0068 15.3603 21.0788 16.8501Z" fill="white"/>
</g>
</svg>
