<svg width="185" height="65" viewBox="0 0 185 65" fill="none" xmlns="http://www.w3.org/2000/svg">
<path fill-rule="evenodd" clip-rule="evenodd" d="M150.404 35.7182H140.349C138.859 35.7182 138.869 37.6631 140.349 37.6631C141.68 37.6631 142.946 37.6353 144.268 37.6353C144.371 37.6353 144.464 37.6353 144.566 37.6446H147.08C148.765 37.6446 150.748 39.006 150.748 40.812V41.3121C150.748 43.1088 148.765 44.4795 147.08 44.4795H146.531H144.278H144.017H136.113V42.0252H146.512C148.067 42.0252 148.02 40.0803 146.512 40.0803C145.19 40.0803 143.896 40.0989 142.593 40.0989C142.499 40.0989 142.406 40.0989 142.313 40.0896H139.79C138.105 40.0896 136.122 38.7282 136.122 36.9222V36.4314C136.122 34.6346 138.105 33.264 139.79 33.264H142.602H150.432V35.7182H150.404ZM113.024 37.6446L119.746 37.6631C121.226 37.6631 121.236 35.7182 119.746 35.7182H117.959H115.389H113.602C113.015 35.7182 112.531 36.135 112.419 36.6814H112.41V37.7002C112.615 37.6631 112.82 37.6446 113.024 37.6446ZM124.001 42.0252H113.602C112.112 42.0252 112.112 40.0803 113.602 40.0803C114.924 40.0803 116.218 40.0989 117.521 40.0989C117.614 40.0989 117.707 40.0989 117.8 40.0896H120.323C122.008 40.0896 123.991 38.7282 123.991 36.9222V36.4314C123.991 34.6346 122.008 33.264 120.323 33.264H117.949H117.512H115.38H113.006C111.321 33.264 109.338 34.6254 109.338 36.4314V36.6814V40.8027V41.3028C109.338 43.0996 111.321 44.4702 113.006 44.4702C116.665 44.4702 120.323 44.4702 123.982 44.4702V42.0252H124.001ZM166.081 42.6643V43.8405V44.4795H164.834H162.022C160.337 44.4795 158.354 43.1088 158.354 41.3121V38.0243V36.4314V36.4221V29.3556C158.354 27.8368 159.592 26.605 161.119 26.605H161.464V33.3103C161.65 33.2825 161.836 33.264 162.022 33.264H164.834H165.225V35.7182H163.354H161.473V37.5705V37.5798V38.6541V40.1544C161.473 41.1825 162.32 42.0252 163.354 42.0252H166.091V42.6643H166.081ZM109.412 33.264C108.044 33.2732 106.163 33.0787 105.176 34.6995L100.624 41.5714L96.071 34.6995C95.1494 33.1158 93.2594 33.264 91.835 33.264L98.0354 42.7569C98.6592 43.7108 99.376 44.3776 100.279 44.4702C101.378 44.5814 102.374 44.0257 103.202 42.7569C105.12 39.8303 107.336 36.4499 109.412 33.264ZM69.2213 35.6627C69.2213 34.2734 70.1802 33.2547 71.5674 33.2547L73.6063 33.264C73.7924 33.264 74.0159 33.3103 74.3976 33.69L82.8324 41.8863V35.2088C82.8324 33.8196 83.7913 33.264 85.1785 33.264L87.2173 33.2732C86.4446 33.3658 85.9326 33.5696 85.9419 35.4589V42.7847C85.9419 43.4793 85.4298 44.4888 84.7316 44.4888H82.6089H81.9107C81.2311 44.498 80.6818 43.8775 80.2256 43.4237L72.3215 35.6812C72.3215 35.7553 72.3215 35.8386 72.3215 35.922V44.498H69.212V35.6627H69.2213ZM126.431 35.6627C126.431 34.2734 127.808 33.2547 129.196 33.2547H129.54H134.158H135.135V35.709H134.158H131.421C130.387 35.709 129.54 36.5517 129.54 37.5798V44.4702H126.431V35.6627ZM181.75 53H181.406C179.879 53 178.641 51.7682 178.641 50.2494V44.4332C178.454 44.461 178.268 44.4795 178.082 44.4795H173.176H170.662C168.977 44.4795 166.994 43.1088 166.994 41.3121V36.4314C166.994 34.8477 168.53 33.5974 170.047 33.3195V36.9129V39.4043V40.8305V40.8583C170.066 41.5066 170.597 42.0252 171.248 42.0252H177.505C178.073 42.0252 178.557 41.627 178.678 41.0898C178.696 41.0065 178.706 40.9139 178.706 40.8213V39.395V38.0243V36.4314C178.706 34.8477 180.242 33.5974 181.759 33.3195V36.9129V40.9139V41.3214V41.3306L181.75 53ZM152.992 35.6627C152.992 34.2734 154.37 33.2547 155.757 33.2547H156.101V44.4702H152.992V35.6627ZM55.2658 33.3195C53.7482 33.5974 52.2121 34.8477 52.2121 36.4314V41.3121C52.2121 43.1088 54.1951 44.4795 55.8802 44.4795H59.5949H60.7865H63.3002C64.9853 44.4795 66.9683 43.1088 66.9683 41.3121C66.9683 39.8488 66.9683 38.3762 66.9683 36.9129V33.3195C65.4508 33.5974 63.9146 34.8477 63.9146 36.4314C63.9146 37.8947 63.9146 39.3672 63.9146 40.8305C63.9146 41.4881 63.3747 42.0252 62.7137 42.0252H59.5855H56.4574C55.7964 42.0252 55.2564 41.4881 55.2564 40.8305V39.9414V36.9129V33.3195H55.2658ZM88.1949 35.6627C88.1949 34.2734 89.5727 33.2547 90.9599 33.2547H91.3044V44.4702H88.1949V35.6627ZM3 22.0577C3 20.6684 4.37786 19.6497 5.76504 19.6497H6.10951V30.8745H3V22.0577ZM35.6312 21.6038C35.6312 20.2146 36.5901 19.6589 37.9773 19.6589L40.0161 19.6682C39.2341 19.7608 38.7314 19.9646 38.7407 21.8539V29.1797C38.7407 29.8743 38.2286 30.8838 37.5304 30.8838H34.7188C34.0392 30.893 33.4992 30.2725 33.0337 29.8187L25.0924 22.0391V29.1889C25.0924 29.8835 24.5803 30.893 23.8821 30.893H21.0612C20.3816 30.9023 19.8323 30.2818 19.3761 29.828L11.472 22.0577C11.472 22.1317 11.472 22.2151 11.472 22.2984V30.8745H8.35319V22.0577C8.35319 20.6684 9.31211 19.6497 10.6993 19.6497L12.7382 19.6589C12.9243 19.6589 13.1478 19.7053 13.5295 20.085L21.9643 28.2813V21.6038C21.9643 20.2146 22.9232 19.6589 24.3104 19.6589L26.3492 19.6682H26.3771C26.5727 19.6682 26.7961 19.7145 27.1778 20.0942L35.6126 28.2906V21.6038H35.6312ZM123.693 22.104H113.639C112.149 22.104 112.159 24.0489 113.639 24.0489C114.97 24.0489 116.236 24.0303 117.558 24.0303C117.661 24.0303 117.754 24.0303 117.856 24.0396H120.37C122.055 24.0396 124.038 25.401 124.038 27.207V27.7071C124.038 29.5038 122.055 30.8745 120.37 30.8745H119.821H117.568H117.307H109.403V28.4202H119.802C121.357 28.4202 121.31 26.4753 119.802 26.4753C118.48 26.4753 117.186 26.5031 115.882 26.5031C115.789 26.5031 115.696 26.5031 115.603 26.4939H113.08C111.395 26.4939 109.412 25.1324 109.412 23.3265V22.8171C109.412 21.0204 111.395 19.6497 113.08 19.6497H115.892H123.721V22.104H123.693ZM103.724 22.0577C103.724 20.6684 105.102 19.6497 106.489 19.6497H106.833V30.8745H103.724V22.0577ZM95.1959 13V26.5494C95.1959 27.5774 96.0431 28.4202 97.0765 28.4202H101.173V29.0593V30.2355V30.8745H98.5568H95.7452C94.0601 30.8745 92.0771 29.5038 92.0771 27.7071V15.7506C92.0771 14.2318 93.3153 13 94.8421 13H95.1959ZM52.1562 30.8745H51.1787H49.6426H48.4509H48.3578H44.7363C43.0512 30.8745 41.0682 29.5038 41.0682 27.7071V22.8171C41.0682 21.0204 43.0512 19.6497 44.7363 19.6497H45.4997H46.6634H47.5385H49.1119H52.1562C53.8413 19.6497 55.8244 21.0204 55.8244 22.8171V27.6978C55.8244 29.5038 53.8413 30.8745 52.1562 30.8745ZM52.7707 27.2255V23.3079C52.7707 22.6504 52.2307 22.1132 51.5697 22.1132H45.3135C44.7642 22.1132 44.2149 22.5022 44.1218 23.1412C44.1125 23.1968 44.1125 23.6969 44.1125 23.7525V27.2255C44.1125 27.8831 44.6525 28.4202 45.3135 28.4202H48.4416H51.5697C52.2307 28.4202 52.7707 27.8831 52.7707 27.2255ZM69.1654 30.8745H66.6518H66.5866H66.5307H66.4749H66.419H66.3632H66.3073H66.2514H66.2142H66.1583H66.1025H66.0466H65.9908H65.9349H65.879H65.8418H65.7859H65.7301H61.7361C61.5499 30.8745 61.3637 30.856 61.1775 30.8282V36.6444C61.1775 38.1632 59.9393 39.395 58.4125 39.395H58.068V22.8171C58.068 21.0204 60.051 19.6497 61.7361 19.6497H62.2202H64.5384H64.9946H69.1561C70.8412 19.6497 72.8242 21.0204 72.8242 22.8171V27.6978C72.8335 29.5038 70.8505 30.8745 69.1654 30.8745ZM69.7799 27.2626V26.8551V23.2987C69.7799 22.6504 69.2585 22.1225 68.6161 22.104H68.5789H62.3227C61.6617 22.104 61.1217 22.6411 61.1217 23.2987V27.2163C61.1217 27.8738 61.6617 28.411 62.3227 28.411H68.5789C69.2213 28.4202 69.7613 27.9016 69.7799 27.2626ZM62.0713 22.1317C62.0061 22.141 61.9503 22.1595 61.8944 22.1873C61.9503 22.1595 62.0154 22.141 62.0713 22.1317ZM86.2305 30.8745H85.2529H83.7168H82.5251H82.432H78.8105C77.1254 30.8745 75.1424 29.5038 75.1424 27.7071V22.8171C75.1424 21.0204 77.1254 19.6497 78.8105 19.6497H79.5739H80.7376H81.6128H83.1861H86.2305C87.9156 19.6497 89.8986 21.0204 89.8986 22.8171V27.6978C89.9079 29.5038 87.9249 30.8745 86.2305 30.8745ZM86.8542 27.2255V23.3079C86.8542 22.6504 86.3143 22.1132 85.6533 22.1132H79.397C78.8477 22.1132 78.2984 22.5022 78.2053 23.1412C78.196 23.1968 78.196 23.6969 78.196 23.7525V27.2255C78.196 27.8831 78.736 28.4202 79.397 28.4202H82.5251H85.6533C86.3143 28.4202 86.8542 27.8831 86.8542 27.2255Z" fill="#E6E4EB"/>
</svg>
