<svg width="93" height="65" viewBox="0 0 93 65" fill="none" xmlns="http://www.w3.org/2000/svg">
<path fill-rule="evenodd" clip-rule="evenodd" d="M59.2423 3C73.1504 3 80.4128 13.3983 77.1238 28.5316C73.5161 45.0784 61.5682 56.8221 46.8669 63C28.2987 55.2929 17.6071 39.9855 15.647 19.3048C23.8439 17.939 30.2946 12.1878 29.8402 3H59.2423Z" fill="#E6E4EB"/>
<path fill-rule="evenodd" clip-rule="evenodd" d="M74.9284 28.0447C71.8114 42.6681 61.2373 54.349 46.876 60.5542C29.9808 53.3003 20.2511 38.9683 18.1245 21.024C25.669 19.1013 31.5243 13.421 32.0484 5.20629H59.3435C72.7147 5.14848 77.6963 15.6643 74.9284 28.0447Z" fill="#353151"/>
<path fill-rule="evenodd" clip-rule="evenodd" d="M72.985 27.6151C69.8972 41.8307 59.9637 52.434 46.8846 58.3768C32.0284 51.7642 22.7358 38.9468 20.3179 22.4589C27.3093 20.0706 32.6401 14.6813 33.8344 7.2239H59.3525C71.4415 7.16571 75.4029 16.5458 72.985 27.6151Z" fill="#E6E4EB"/>
<path fill-rule="evenodd" clip-rule="evenodd" d="M81.6481 26.3651L40.539 28.7241C39.4687 30.048 37.4778 32.6948 35.7859 33.0629C34.8883 33.2587 34.0139 32.6374 33.8181 31.7283C33.5533 30.4969 34.5892 29.2652 35.2336 28.3102L11.5712 26.3994C10.2247 26.2958 10.3168 24.2586 11.6059 24.2586H38.1568L46.0401 15.4427L43.071 14.3609C42.2767 14.0734 42.3461 12.9453 43.2205 12.9453H46.8459L47.9736 9.15886C48.1925 8.42237 49.2396 8.51448 49.3201 9.25097L49.6882 12.9453H53.0604C53.9229 12.9453 53.9695 14.0618 53.1063 14.3609L49.2161 15.7075L43.439 24.2586H81.6246C83.0406 24.259 83.0752 26.273 81.6481 26.3651Z" fill="#E6E4EB"/>
<path fill-rule="evenodd" clip-rule="evenodd" d="M81.6271 25.919C82.4745 25.8751 82.4603 24.7204 81.6271 24.7204H49.0004L49.7758 27.7462L81.6271 25.919ZM46.6468 24.7204H42.5983L48.9272 15.3357L52.9619 13.9467C53.4737 13.7714 53.3268 13.406 53.0644 13.406H49.2783L48.8694 9.29851C48.8543 9.07961 48.5036 8.99174 48.4162 9.28387L47.1733 13.4057H43.2264C42.89 13.4057 42.8464 13.8003 43.2264 13.9464L46.8222 15.2474L38.3589 24.7197H11.6088C10.907 24.7197 10.8048 25.9036 11.6088 25.9622L36.0053 27.9211C35.4793 28.8711 34.6021 29.7922 34.295 30.8594C33.9735 31.9701 34.8357 32.8183 35.6982 32.6279C37.0871 32.3212 39.3818 29.4415 40.3175 28.2865L45.6382 27.9793L46.6468 24.7204Z" fill="#353151"/>
<path fill-rule="evenodd" clip-rule="evenodd" d="M48.444 38.7245L46.9587 31.4125L45.2105 38.7245H48.444ZM57.4456 41.0257L60.8826 36.8307V36.6854C60.8826 36.2195 60.6205 35.7821 59.7761 35.7821V34.7916H64.0289V35.7821C62.9795 35.7821 62.951 36.1902 62.951 37.2385V42.1033C62.951 43.1812 63.0385 43.5597 64.0289 43.5597V44.5209H59.7761V43.5597C60.7373 43.5597 60.8826 43.2105 60.8826 42.1033V38.3164L57.4456 42.5399V42.7153C57.4456 43.298 57.7655 43.5597 58.5521 43.5597V44.5209H47.9781V43.5597C48.7354 43.5597 49.2306 43.5011 49.2306 42.7438C49.2306 42.2779 49.0267 41.1128 48.7068 39.8306H44.8907L44.3954 41.7823C44.0459 43.0641 44.1623 43.5593 45.5316 43.5593V44.5205H36.7049V43.5593C37.7539 43.5593 37.87 43.2101 37.87 42.1029V37.5587L35.1899 44.1998L32.4806 37.3545V42.19C32.4806 43.1219 32.5974 43.5593 33.6167 43.5593V44.5205H30.354V43.5593C31.4609 43.5593 31.519 42.8895 31.519 41.9568V37.2381C31.519 36.3937 31.519 35.7817 30.4415 35.7817V34.7912H33.9081L35.8015 39.8021L37.695 34.7912H41.0448V35.7817C39.9958 35.7817 39.9669 36.1898 39.9669 37.2381V42.1029C39.9669 43.0348 40.0544 43.3261 40.3457 43.4132C40.9866 43.6464 42.181 43.5878 42.5301 42.8895C42.7633 42.4521 43.0254 41.7245 43.2874 40.7336L47.8027 22.9932L51.8809 40.413C52.3176 42.3068 52.58 42.7727 52.9882 43.1809C53.3955 43.53 54.7352 43.7929 55.2019 43.2683C55.3179 43.1516 55.3765 42.9477 55.3765 42.1033V37.2385C55.3765 36.1312 55.289 35.7821 54.2692 35.7821V34.7916H58.5513V35.7821C57.5027 35.7821 57.4449 36.2195 57.4449 37.2385V41.0257H57.4456Z" fill="#353151"/>
</svg>
