<?xml version="1.0" encoding="utf-8"?>
<!-- Generator: Adobe Illustrator 24.1.1, SVG Export Plug-In . SVG Version: 6.00 Build 0)  -->
<svg version="1.1" id="Слой_1" xmlns="http://www.w3.org/2000/svg" xmlns:xlink="http://www.w3.org/1999/xlink" x="0px" y="0px"
	 width="100px" height="78px" viewBox="0 0 100 78" style="enable-background:new 0 0 100 78;" xml:space="preserve">
<style type="text/css">
	.st0{fill:#FAFAFC;stroke:#CDD1E0;stroke-dasharray:3,3;}
	.st1{clip-path:url(#SVGID_2_);}
	.st2{fill:url(#SVGID_3_);}
	.st3{fill:url(#SVGID_4_);}
	.st4{fill:none;stroke:#000000;stroke-opacity:0.8;}
	.st5{fill-opacity:0.2;}
	.st6{fill:none;stroke:#FFFFFF;}
</style>
<path class="st0" d="M3,18.5h94c1.4,0,2.5,1.1,2.5,2.5v54c0,1.4-1.1,2.5-2.5,2.5H3c-1.4,0-2.5-1.1-2.5-2.5V21
	C0.5,19.6,1.6,18.5,3,18.5z"/>
<g>
	<defs>
		<rect id="SVGID_1_" x="25" width="52" height="63"/>
	</defs>
	<clipPath id="SVGID_2_">
		<use xlink:href="#SVGID_1_"  style="overflow:visible;"/>
	</clipPath>
	<g class="st1">
		
			<linearGradient id="SVGID_3_" gradientUnits="userSpaceOnUse" x1="26.6437" y1="8.3062" x2="67.6686" y2="66.6691" gradientTransform="matrix(1 0 0 -1 0 72.0001)">
			<stop  offset="0" style="stop-color:#16FF00"/>
			<stop  offset="1" style="stop-color:#4DFFC9"/>
		</linearGradient>
		<path class="st2" d="M29.1,6.4h36.1c2.2,0,4,1.8,4,4v48.2c0,2.2-1.8,4-4,4H29.1c-2.2,0-4-1.8-4-4V10.4C25.1,8.2,26.9,6.4,29.1,6.4
			z"/>
		
			<linearGradient id="SVGID_4_" gradientUnits="userSpaceOnUse" x1="35.3247" y1="15.907" x2="75.0373" y2="73.7808" gradientTransform="matrix(1 0 0 -1 0 72.0001)">
			<stop  offset="0" style="stop-color:#EEEEEE"/>
			<stop  offset="1" style="stop-color:#FEFFFF"/>
		</linearGradient>
		<path class="st3" d="M37.1-0.3h36.1c2.2,0,4,1.8,4,4v46.8c0,2.2-1.8,4-4,4H37.1c-2.2,0-4-1.8-4-4V3.7C33.1,1.5,34.9-0.3,37.1-0.3z
			"/>
		<path class="st4" d="M37.1,0.2h36.1c1.9,0,3.5,1.6,3.5,3.5v46.8c0,1.9-1.6,3.5-3.5,3.5H37.1c-1.9,0-3.5-1.6-3.5-3.5V3.7
			C33.6,1.8,35.2,0.2,37.1,0.2z"/>
		<rect x="41.1" y="11.8" class="st5" width="28.1" height="1.3"/>
		<rect x="41.1" y="17.1" class="st5" width="28.1" height="1.3"/>
		<rect x="41.1" y="22.5" class="st5" width="28.1" height="1.3"/>
		<rect x="41.1" y="27.8" class="st5" width="28.1" height="1.3"/>
		<rect x="41.1" y="33.2" class="st5" width="14.7" height="1.3"/>
	</g>
</g>
<g>
	<path d="M73,63l-1-11l9,6l-4,1l3.5,5L79,65l-3.5-5L73,63z"/>
	<path class="st6" d="M72.5,63l0.1,1.2l0.8-0.9l2.1-2.5l3.1,4.5l0.3,0.4l0.4-0.3l1.5-1l0.4-0.3l-0.3-0.4l-3.1-4.4l3.3-0.8l1.1-0.3
		l-0.9-0.6l-9-6L71.4,51l0.1,1L72.5,63z"/>
</g>
</svg>
