<svg width="820" height="234" viewBox="0 0 820 234" fill="none" xmlns="http://www.w3.org/2000/svg">
<path fill-rule="evenodd" clip-rule="evenodd" d="M410 117L1515 183.3V50.7001L410 117L1515 -59.8V-170.3L410 117ZM-695 -988H-474L410 117L-297.2 1222H-142.5L410 117L-297.2 -988H-142.5L410 117L1515 1001V824.2L410 117L-9.89996 -988H122.7L410 117L-695 1222H-474L410 117L233.2 -988H343.7L410 117L829.9 1222H697.3L410 117L476.3 -988H586.8L410 117L-695 846.3V1023.1L410 117L697.3 -988H829.9L410 117L1515 536.9V669.5L410 117L984.6 -988H1139.3L410 117L-695 536.9V691.6L410 117L1316.1 -988H1515L410 117L586.8 1222H476.3L410 117L1515 -767V-590.2L410 117L1515 -435.5V-302.9L410 117L-695 404.3V293.8L410 117L1515 1222H1316.1L410 117L-695 183.3V50.7001L410 117L233.2 1222H343.7L410 117L-695 -59.8V-170.3L1515 404.3V293.8L410 117L-695 -302.9V-435.5L410 117L-9.89996 1222H122.7L410 117L-695 -590.2V-789.1L410 117L1139.3 1222H984.6L410 117L-695 -988Z" fill="url(#paint0_radial_1071_41539)" fill-opacity="0.08"/>
<defs>
<radialGradient id="paint0_radial_1071_41539" cx="0" cy="0" r="1" gradientUnits="userSpaceOnUse" gradientTransform="translate(410 117) rotate(-180) scale(315.616 323.652)">
<stop stop-color="white" stop-opacity="0"/>
<stop offset="1" stop-color="white"/>
</radialGradient>
</defs>
</svg>
