<svg width="18" height="18" viewBox="0 0 18 18" fill="none" xmlns="http://www.w3.org/2000/svg">
<g clip-path="url(#clip0)">
<path d="M2.5 7H8.5" stroke="black"/>
<path d="M2.5 10.5H8.5" stroke="black"/>
<path d="M2.5 14H8.5" stroke="black"/>
<path d="M4.5 17.5H1.1C1.04477 17.5 1 17.4553 1 17.4V4.1C1 4.04477 1.04477 4 1.1 4H9.9C9.95523 4 10 4.04477 10 4.1V9.61293" stroke="black"/>
<path d="M3 1.1186V4H8V1.94146C8 1.89275 7.96491 1.85113 7.9169 1.8429L3.1169 1.02004C3.05581 1.00957 3 1.05662 3 1.1186Z" stroke="black"/>
<path d="M16.0273 8C16.0273 10.4853 14.0126 12.5 11.5273 12.5C9.04206 12.5 7.02734 10.4853 7.02734 8C7.02734 5.51472 9.04206 3.5 11.5273 3.5C14.0126 3.5 16.0273 5.51472 16.0273 8Z" fill="white"/>
<path d="M4 14C4 12.3431 5.34315 11 7 11H18V18H4V14Z" fill="white"/>
<path d="M14.5001 8C14.5001 9.6477 13.1478 11 11.5001 11C9.85883 11 8.52168 9.6535 8.50012 7.99699C8.50177 6.35066 9.85343 5 11.5001 5C13.1478 5 14.5001 6.3523 14.5001 8Z" stroke="black"/>
<path fill-rule="evenodd" clip-rule="evenodd" d="M6 18H5V17V15.1067C5 13.3755 6.4658 12 8.1719 12H14.8521C16.6303 12 18 13.3518 18 15.1067V17V18H17H6ZM17 17V15.1067C17 13.9164 16.0905 13 14.8521 13H8.1719C6.98567 13 6 13.9596 6 15.1067V17H17Z" fill="black"/>
</g>
<defs>
<clipPath id="clip0">
<rect width="18" height="18" fill="white"/>
</clipPath>
</defs>
</svg>
