<?xml version="1.0" encoding="utf-8"?>
<!-- Generator: Adobe Illustrator 24.1.1, SVG Export Plug-In . SVG Version: 6.00 Build 0)  -->
<svg version="1.1" id="Слой_1" xmlns="http://www.w3.org/2000/svg" xmlns:xlink="http://www.w3.org/1999/xlink" x="0px" y="0px"
	 width="44.1px" height="54.8px" viewBox="0 0 44.1 54.8" style="enable-background:new 0 0 44.1 54.8;" xml:space="preserve">
<style type="text/css">
	.st0{fill:url(#SVGID_1_);}
	.st1{fill:none;stroke:#000000;stroke-opacity:0.8;}
	.st2{fill-opacity:0.2;}
</style>
<g>
	
		<linearGradient id="SVGID_1_" gradientUnits="userSpaceOnUse" x1="2.2125" y1="30.1679" x2="41.9251" y2="88.0417" gradientTransform="matrix(1 0 0 -1 0 86.5235)">
		<stop  offset="0" style="stop-color:#EEEEEE"/>
		<stop  offset="1" style="stop-color:#FEFFFF"/>
	</linearGradient>
	<path class="st0" d="M4,0h36.1c2.2,0,4,1.8,4,4v46.8c0,2.2-1.8,4-4,4H4c-2.2,0-4-1.8-4-4V4C0,1.8,1.8,0,4,0z"/>
	<path class="st1" d="M4,0.5h36.1c1.9,0,3.5,1.6,3.5,3.5v46.8c0,1.9-1.6,3.5-3.5,3.5H4c-1.9,0-3.5-1.6-3.5-3.5V4
		C0.5,2.1,2.1,0.5,4,0.5z"/>
	<rect x="8" y="12" class="st2" width="28.1" height="1.3"/>
	<rect x="8" y="17.4" class="st2" width="28.1" height="1.3"/>
	<rect x="8" y="22.7" class="st2" width="28.1" height="1.3"/>
	<rect x="8" y="28.1" class="st2" width="28.1" height="1.3"/>
	<rect x="8" y="33.4" class="st2" width="14.7" height="1.3"/>
</g>
</svg>
