<svg width="103" height="106" viewBox="0 0 103 106" fill="none" xmlns="http://www.w3.org/2000/svg">
<path opacity="0.4" fill-rule="evenodd" clip-rule="evenodd" d="M31 81.4785H64.4711V71.5416L74.2337 72.6747L74.7567 67.7934L78.5825 34.2329C92.7366 39.4272 102.835 53.0235 102.835 68.9784C102.835 89.4129 86.2698 105.978 65.8352 105.978C49.7876 105.978 36.1261 95.762 31 81.4785Z" fill="#16FF00"/>
<path d="M77.9263 6.8861L17.6075 0L15.777 15.8642H0V81.5001H65.6359V71.5632L75.3985 72.6963L75.9215 67.815L82.8076 7.4091L77.9263 6.8861ZM60.7546 52.2995L46.9824 36.9583L28.0674 58.837L18.7407 49.8589L4.88129 63.3696V20.7455H60.7546V52.2995ZM71.1273 67.2921L65.7231 66.6819V15.8642H20.6583L21.8786 5.40428L77.4033 11.6802L71.1273 67.2921Z" fill="#B2B2B2"/>
</svg>
