<?xml version="1.0" encoding="utf-8"?>
<!-- Generator: Adobe Illustrator 24.1.1, SVG Export Plug-In . SVG Version: 6.00 Build 0)  -->
<svg version="1.1" id="Слой_1" xmlns="http://www.w3.org/2000/svg" xmlns:xlink="http://www.w3.org/1999/xlink" x="0px" y="0px"
	 width="120px" height="120px" viewBox="0 0 120 120" style="enable-background:new 0 0 120 120;" xml:space="preserve">
<style type="text/css">
	.st0{fill-rule:evenodd;clip-rule:evenodd;fill:#20262F;}
	.st1{fill-rule:evenodd;clip-rule:evenodd;fill:#E7F0F2;}
	.st2{opacity:0.6;}
	.st3{fill:#BCD5DB;filter:url(#Adobe_OpacityMaskFilter);}
	.st4{mask:url(#mask0_1_);}
	.st5{fill:#BCD5DB;}
	.st6{fill:#0D9B68;}
</style>
<path class="st0" d="M83.2,51.3c-0.8-1.6-2.1-3-3.7-3.9c-0.5-3.3-3.4-5.8-6.8-5.8c-3,0-5.6,1.9-6.5,4.6h-1.8c0,1.8-1.5,3.3-3.3,3.3
	c-1.8,0-3.3-1.5-3.3-3.3h-1.7c-1-2.7-3.5-4.6-6.5-4.6c-3.4,0-6.3,2.5-6.8,5.8c-1.6,0.9-2.9,2.3-3.7,3.9c-5.9,1.6-10.2,7-10.2,13.4
	c0,7.6,6.2,13.8,13.8,13.8c6,0,11.2-3.9,13.1-9.2h10.8c1.9,5.4,7,9.2,13.1,9.2c7.6,0,13.8-6.2,13.8-13.8
	C93.5,58.2,89.1,52.8,83.2,51.3z"/>
<path class="st1" d="M120,60c0,33.1-26.9,60-60,60C26.9,120,0,93.1,0,60S26.9,0,60,0C93.1,0,120,26.9,120,60z"/>
<g class="st2">
	<defs>
		<filter id="Adobe_OpacityMaskFilter" filterUnits="userSpaceOnUse" x="0" y="0" width="120" height="120">
			<feColorMatrix  type="matrix" values="1 0 0 0 0  0 1 0 0 0  0 0 1 0 0  0 0 0 1 0"/>
		</filter>
	</defs>
	<mask maskUnits="userSpaceOnUse" x="0" y="0" width="120" height="120" id="mask0_1_">
		
			<rect x="67.6" y="49.7" transform="matrix(0.7071 -0.7071 0.7071 0.7071 -30.7581 92.5532)" class="st3" width="57.5" height="67.3"/>
	</mask>
	<g class="st4">
		<circle class="st5" cx="60" cy="60" r="60"/>
	</g>
</g>
<path class="st6" d="M31.1,54.9l2.1-2.1c1.2-1.2,3.1-1.2,4.2,0L58,73.3c1.2,1.2,1.2,3.1,0,4.2l-2.1,2.1c-1.2,1.2-3.1,1.2-4.2,0
	L31.1,59.1C29.9,58,29.9,56.1,31.1,54.9z"/>
<path class="st6" d="M92.7,39.2l-2.1-2.1c-1.2-1.2-3.1-1.2-4.2,0L50.2,73.3c-1.2,1.2-1.2,3.1,0,4.2l2.1,2.1c1.2,1.2,3.1,1.2,4.2,0
	l36.2-36.2C93.9,42.3,93.9,40.4,92.7,39.2z"/>
</svg>
