<svg width="223" height="47" viewBox="0 0 223 47" fill="none" xmlns="http://www.w3.org/2000/svg">
<g clip-path="url(#clip0_3701_3903)">
<path d="M87.9377 12.8703V0H90.5313L94.2869 8.25328H95.0948L98.8504 0H101.444V12.8703H99.833V1.84V1.65551H99.8L96.1482 9.74373H93.1957L89.5676 1.65551H89.5298V1.84V12.8703H87.9377Z" fill="black"/>
<path d="M105.094 11.6906C104.66 11.2466 104.318 10.7162 104.09 10.1319C103.862 9.54762 103.752 8.92162 103.767 8.29217C103.765 7.66291 103.883 7.03931 104.115 6.45697C104.347 5.87463 104.688 5.34496 105.119 4.8982C105.551 4.45144 106.063 4.09634 106.628 3.85318C107.193 3.61001 107.798 3.48355 108.411 3.481C109.023 3.47845 109.63 3.59986 110.197 3.83832C110.763 4.07677 111.279 4.42759 111.713 4.87074C112.148 5.31389 112.494 5.8407 112.73 6.42109C112.967 7.00147 113.09 7.62407 113.092 8.25333C113.069 9.1919 112.782 10.1034 112.265 10.8775C111.748 11.6515 111.023 12.2549 110.179 12.6146C109.336 12.9742 108.408 13.0747 107.51 12.9038C106.612 12.7329 105.781 12.298 105.118 11.6517L105.094 11.6906ZM106.11 5.8259C105.809 6.14804 105.573 6.5286 105.417 6.94537C105.26 7.36214 105.186 7.80678 105.198 8.25333C105.188 8.69966 105.263 9.14377 105.419 9.56028C105.576 9.97679 105.81 10.3575 106.11 10.6808C106.732 11.2912 107.558 11.6319 108.418 11.6319C109.278 11.6319 110.104 11.2912 110.726 10.6808C111.027 10.3589 111.263 9.97844 111.42 9.5616C111.576 9.14475 111.65 8.69996 111.637 8.25333C111.651 7.80698 111.579 7.36224 111.423 6.94534C111.267 6.52843 111.032 6.1478 110.73 5.8259C110.113 5.20758 109.285 4.86156 108.423 4.86156C107.56 4.86156 106.732 5.20758 106.115 5.8259H106.11Z" fill="black"/>
<path d="M115.791 11.6905C115.364 11.2356 115.03 10.6967 114.81 10.1061C114.59 9.51545 114.489 8.88527 114.511 8.25329C114.494 7.62702 114.6 7.00363 114.821 6.41995C115.043 5.83626 115.376 5.30409 115.801 4.85488C116.245 4.40108 116.775 4.046 117.358 3.81174C117.941 3.57747 118.565 3.46903 119.19 3.49317C119.816 3.5173 120.43 3.67349 120.995 3.95203C121.559 4.23056 122.062 4.62547 122.471 5.11219C122.838 5.586 123.113 6.12841 123.279 6.70944H121.862C121.722 6.36864 121.522 6.0575 121.271 5.79187C120.976 5.48363 120.622 5.2423 120.23 5.08343C119.839 4.92457 119.419 4.85167 118.999 4.86944C118.59 4.86057 118.184 4.94276 117.809 5.11036C117.434 5.27797 117.099 5.52702 116.826 5.84042C116.233 6.49418 115.911 7.35966 115.928 8.25329C115.903 9.15264 116.226 10.0256 116.826 10.6807C117.097 10.9887 117.428 11.2343 117.797 11.4017C118.167 11.569 118.567 11.6542 118.971 11.6517C119.413 11.6741 119.854 11.5951 120.262 11.4204C120.671 11.2458 121.037 10.9798 121.333 10.6419C121.599 10.3502 121.806 10.0069 121.942 9.63207H123.359C123.114 10.6269 122.546 11.5061 121.749 12.1241C120.952 12.742 119.973 13.0618 118.975 13.0305C118.383 13.0475 117.794 12.937 117.246 12.7063C116.697 12.4755 116.202 12.1296 115.791 11.6905Z" fill="black"/>
<path d="M125.145 12.8703V3.67517H126.562V7.35516H128.353L131.216 3.67517H132.935L129.628 7.99601L133.204 12.8509H131.414L128.367 8.7388H126.577V12.8752L125.145 12.8703Z" fill="black"/>
<path d="M134.966 11.6906C134.532 11.2464 134.191 10.7159 133.964 10.1315C133.736 9.54719 133.627 8.92132 133.643 8.29218C133.624 7.6517 133.729 7.01364 133.954 6.41592C134.179 5.8182 134.518 5.273 134.952 4.81272C135.386 4.35243 135.905 3.98645 136.479 3.73652C137.054 3.48658 137.671 3.35779 138.294 3.35779C138.918 3.35779 139.535 3.48658 140.109 3.73652C140.683 3.98645 141.203 4.35243 141.637 4.81272C142.071 5.273 142.41 5.8182 142.635 6.41592C142.859 7.01364 142.965 7.6517 142.945 8.29218C142.923 9.23171 142.636 10.1444 142.118 10.9194C141.601 11.6944 140.876 12.2985 140.031 12.6583C139.186 13.0181 138.258 13.1182 137.359 12.9464C136.46 12.7747 135.629 12.3384 134.966 11.6906ZM135.987 5.82591C135.685 6.14741 135.448 6.52786 135.292 6.94479C135.135 7.36171 135.061 7.80666 135.075 8.25335C135.062 8.69997 135.136 9.14476 135.292 9.56161C135.449 9.97845 135.685 10.359 135.987 10.6808C136.608 11.2912 137.435 11.6319 138.294 11.6319C139.154 11.6319 139.981 11.2912 140.602 10.6808C140.902 10.3575 141.137 9.9768 141.293 9.56029C141.449 9.14378 141.524 8.69967 141.514 8.25335C141.526 7.80679 141.452 7.36215 141.296 6.94538C141.139 6.52861 140.903 6.14805 140.602 5.82591C139.985 5.2076 139.157 4.86157 138.294 4.86157C137.432 4.86157 136.604 5.2076 135.987 5.82591Z" fill="black"/>
<path d="M144.911 12.8702V3.67509H149.295C150.006 3.63523 150.707 3.86498 151.265 4.32079C151.496 4.52512 151.679 4.77967 151.803 5.066C151.926 5.35232 151.986 5.66326 151.978 5.9763C151.981 6.25959 151.939 6.54147 151.855 6.81134C151.79 7.02517 151.685 7.22444 151.548 7.39878C151.437 7.53312 151.308 7.65078 151.166 7.74833C151.06 7.8245 150.946 7.8865 150.825 7.93281C150.765 7.95586 150.701 7.97055 150.636 7.97651C150.709 7.98304 150.781 7.99936 150.849 8.02506C150.997 8.07273 151.138 8.13962 151.27 8.22411C151.447 8.33284 151.613 8.45971 151.766 8.60278C151.942 8.78498 152.079 9.00336 152.167 9.24363C152.283 9.54314 152.341 9.86312 152.337 10.1855C152.353 10.5498 152.289 10.913 152.151 11.2489C152.013 11.5848 151.804 11.8849 151.539 12.1274C150.914 12.6523 150.119 12.9158 149.314 12.8654L144.911 12.8702ZM146.328 7.44733H149.191C150.084 7.44733 150.533 7.04923 150.533 6.24817C150.533 5.44712 150.084 5.05387 149.191 5.05387H146.328V7.44733ZM146.328 11.4914H149.281C149.711 11.5209 150.137 11.3899 150.481 11.1225C150.618 10.9962 150.726 10.84 150.797 10.6653C150.868 10.4906 150.901 10.3018 150.892 10.1126C150.901 9.92274 150.869 9.73309 150.798 9.55754C150.727 9.382 150.618 9.22499 150.481 9.09798C150.136 8.83227 149.71 8.703 149.281 8.73387H146.328V11.4914Z" fill="black"/>
<path d="M155.053 11.6905C154.629 11.2407 154.297 10.7083 154.077 10.1247C153.856 9.54108 153.751 8.91798 153.768 8.29208C153.751 7.66612 153.855 7.04286 154.076 6.45915C154.297 5.87544 154.629 5.34312 155.053 4.89367C155.498 4.43974 156.028 4.08458 156.611 3.85027C157.195 3.61595 157.819 3.50749 158.445 3.53162C159.071 3.55575 159.686 3.71196 160.251 3.99055C160.815 4.26913 161.318 4.66412 161.728 5.15098C162.096 5.62389 162.369 6.16669 162.532 6.74823H161.114C160.976 6.40661 160.776 6.0952 160.524 5.83066C160.229 5.52193 159.874 5.28028 159.483 5.12137C159.092 4.96247 158.672 4.88985 158.251 4.90823C157.843 4.89936 157.437 4.98155 157.061 5.14915C156.686 5.31676 156.351 5.56581 156.078 5.87921C155.496 6.54301 155.186 7.41305 155.214 8.30664C155.187 9.20531 155.508 10.0782 156.107 10.7341C156.378 11.0418 156.709 11.2873 157.078 11.4546C157.448 11.6219 157.848 11.7072 158.251 11.7051C158.693 11.7278 159.135 11.649 159.543 11.4743C159.952 11.2996 160.318 11.0335 160.614 10.6952C160.883 10.4061 161.091 10.0621 161.223 9.68543H162.64C162.486 10.308 162.206 10.8902 161.818 11.3943C161.392 11.94 160.849 12.3767 160.231 12.6698C159.613 12.963 158.937 13.1047 158.256 13.0838C157.657 13.0967 157.062 12.9793 156.51 12.7391C155.958 12.499 155.461 12.1416 155.053 11.6905Z" fill="black"/>
<path d="M164.41 12.8704V3.67529H165.827V7.35529H167.613L170.476 3.67529H172.177L168.87 7.99613L172.451 12.851H170.66L167.627 8.73892H165.842V12.8753L164.41 12.8704Z" fill="black"/>
<path d="M173.797 12.8704V3.67529H175.214V10.5692V10.7537H175.247L180.061 3.67529H181.672V12.8704H180.255V5.9765V5.79202H180.217L175.408 12.8704H173.797Z" fill="black"/>
<path d="M184.176 12.8703V3.67514H185.593V10.5691V10.7535H185.626L190.435 3.67514H192.046V12.8703H190.629V5.97635V5.79186H190.591L185.782 12.8703H184.176ZM185.461 0H186.788C186.783 0.151132 186.811 0.301495 186.87 0.440092C186.929 0.578689 187.017 0.702016 187.128 0.801054C187.417 1.02075 187.772 1.12749 188.13 1.10206C188.494 1.13314 188.857 1.02608 189.15 0.801054C189.261 0.701553 189.348 0.578019 189.406 0.439447C189.464 0.300874 189.491 0.150749 189.486 0L190.827 0C190.834 0.314679 190.771 0.626802 190.644 0.913336C190.518 1.19987 190.33 1.4535 190.095 1.65551C189.537 2.1108 188.836 2.33895 188.125 2.29635C187.416 2.33774 186.716 2.10966 186.16 1.65551C185.931 1.45001 185.75 1.19488 185.629 0.908578C185.508 0.622273 185.451 0.311937 185.461 0V0Z" fill="black"/>
<path d="M87.9377 28.1873V18.9971H89.355V25.891V26.0755H89.3928L94.1972 18.9971H95.8034V28.1873H94.3862V21.2934V21.1089H94.3531L89.5487 28.1873H87.9377Z" fill="black"/>
<path d="M98.3121 28.1873V18.9971H99.7294V22.7644H104.742V18.9971H106.159V28.1873H104.742V24.1432H99.7435V28.1873H98.3121Z" fill="black"/>
<path d="M108.691 28.1873V18.9971H110.108V22.7644H115.116V18.9971H116.533V28.1873H115.116V24.1432H110.108V28.1873H108.691Z" fill="black"/>
<path d="M119.849 27.0125C119.416 26.5678 119.075 26.0372 118.848 25.453C118.621 24.8687 118.511 24.2431 118.526 23.6141C118.506 22.9736 118.612 22.3355 118.837 21.7378C119.062 21.1401 119.401 20.5949 119.835 20.1346C120.269 19.6743 120.788 19.3084 121.362 19.0584C121.936 18.8085 122.554 18.6797 123.177 18.6797C123.801 18.6797 124.418 18.8085 124.992 19.0584C125.566 19.3084 126.086 19.6743 126.52 20.1346C126.953 20.5949 127.293 21.1401 127.518 21.7378C127.742 22.3355 127.848 22.9736 127.828 23.6141C127.806 24.5536 127.518 25.4663 127.001 26.2413C126.484 27.0163 125.759 27.6204 124.914 27.9802C124.069 28.34 123.141 28.4401 122.242 28.2683C121.343 28.0966 120.512 27.6603 119.849 27.0125ZM120.869 21.1478C120.567 21.469 120.33 21.8494 120.174 22.2664C120.017 22.6834 119.944 23.1285 119.958 23.5752C119.944 24.022 120.017 24.467 120.174 24.884C120.331 25.3009 120.567 25.6813 120.869 26.0027C121.487 26.621 122.315 26.967 123.177 26.967C124.039 26.967 124.867 26.621 125.485 26.0027C125.787 25.6813 126.024 25.3009 126.18 24.884C126.337 24.467 126.41 24.022 126.397 23.5752C126.411 23.1285 126.337 22.6834 126.181 22.2664C126.024 21.8494 125.787 21.469 125.485 21.1478C124.867 20.5295 124.039 20.1835 123.177 20.1835C122.315 20.1835 121.487 20.5295 120.869 21.1478Z" fill="black"/>
<path d="M129.797 28.1875V18.9972H134.176C134.887 18.9546 135.588 19.1828 136.146 19.6381C136.377 19.842 136.562 20.0964 136.685 20.3829C136.809 20.6693 136.868 20.9805 136.859 21.2936C136.862 21.5769 136.821 21.8588 136.737 22.1286C136.625 22.5169 136.38 22.8501 136.047 23.0656C135.942 23.1418 135.827 23.2038 135.707 23.2501C135.647 23.2764 135.583 23.2928 135.518 23.2987C135.591 23.3055 135.664 23.3201 135.735 23.3423C135.883 23.3909 136.025 23.4595 136.156 23.5462C136.325 23.654 136.483 23.7793 136.628 23.9201C136.805 24.1038 136.941 24.3238 137.029 24.5658C137.146 24.8635 137.204 25.1819 137.2 25.5028C137.214 25.8665 137.15 26.229 137.013 26.5646C136.876 26.9002 136.669 27.2007 136.406 27.4447C135.778 27.9673 134.982 28.2289 134.176 28.1778L129.797 28.1875ZM131.214 22.7646H134.072C134.97 22.7646 135.414 22.3665 135.414 21.5703C135.414 20.7741 134.984 20.3906 134.086 20.3906H131.228L131.214 22.7646ZM131.214 26.8087H134.162C134.592 26.8404 135.019 26.7092 135.362 26.4398C135.492 26.3079 135.596 26.1506 135.666 25.9773C135.737 25.8039 135.773 25.6179 135.773 25.4299C135.773 25.242 135.737 25.0559 135.666 24.8826C135.596 24.7092 135.492 24.552 135.362 24.4201C135.019 24.1507 134.592 24.0194 134.162 24.0512H131.214V26.8087Z" fill="black"/>
<path d="M139.902 27.0028C139.066 26.0834 138.616 24.8623 138.65 23.6044C138.616 22.3463 139.066 21.1251 139.902 20.206C140.285 19.7682 140.755 19.4196 141.279 19.1835C141.804 18.9474 142.372 18.8292 142.944 18.8369C143.601 18.8172 144.251 18.9693 144.834 19.2787C145.279 19.5094 145.667 19.8415 145.968 20.2497L146.129 20.5215V18.9971H147.546V28.1874H146.129V26.7018L145.968 26.9591C145.676 27.3589 145.298 27.6831 144.862 27.9058C144.266 28.2232 143.601 28.3786 142.93 28.3573C142.361 28.3648 141.797 28.2479 141.275 28.0144C140.753 27.7808 140.285 27.436 139.902 27.0028ZM140.965 21.1478C140.381 21.8108 140.071 22.6814 140.101 23.5753C140.071 24.469 140.381 25.3394 140.965 26.0027C141.246 26.3048 141.584 26.5452 141.958 26.7095C142.331 26.8738 142.734 26.9585 143.141 26.9585C143.547 26.9585 143.95 26.8738 144.324 26.7095C144.697 26.5452 145.035 26.3048 145.316 26.0027C145.9 25.3394 146.21 24.469 146.181 23.5753C146.21 22.6814 145.9 21.8108 145.316 21.1478C145.035 20.8457 144.697 20.6053 144.324 20.441C143.95 20.2767 143.547 20.192 143.141 20.192C142.734 20.192 142.331 20.2767 141.958 20.441C141.584 20.6053 141.246 20.8457 140.965 21.1478Z" fill="black"/>
<path d="M150.098 28.1873V18.9971H151.515V26.8086H156.168V18.9971H157.585V26.8086H158.837V30.2992H157.42V28.1873H150.098Z" fill="black"/>
<path d="M160.382 28.1873V18.9971H161.799V25.891V26.0755H161.833L166.646 18.9971H168.257V28.1873H166.84V21.2934V21.1089H166.807L161.993 28.1873H160.382Z" fill="black"/>
<path d="M171.544 27.0125C171.111 26.5678 170.77 26.0372 170.543 25.453C170.315 24.8687 170.206 24.2431 170.221 23.6141C170.201 22.9736 170.307 22.3355 170.532 21.7378C170.756 21.1401 171.096 20.5949 171.53 20.1346C171.963 19.6743 172.483 19.3084 173.057 19.0584C173.631 18.8085 174.248 18.6797 174.872 18.6797C175.496 18.6797 176.113 18.8085 176.687 19.0584C177.261 19.3084 177.781 19.6743 178.214 20.1346C178.648 20.5949 178.988 21.1401 179.212 21.7378C179.437 22.3355 179.543 22.9736 179.523 23.6141C179.501 24.5536 179.213 25.4663 178.696 26.2413C178.179 27.0163 177.454 27.6204 176.609 27.9802C175.764 28.34 174.836 28.4401 173.937 28.2683C173.038 28.0966 172.206 27.6603 171.544 27.0125ZM172.564 21.1478C172.262 21.469 172.025 21.8494 171.869 22.2664C171.712 22.6834 171.638 23.1285 171.653 23.5752C171.639 24.022 171.712 24.467 171.869 24.884C172.026 25.3009 172.262 25.6813 172.564 26.0027C173.182 26.621 174.01 26.967 174.872 26.967C175.734 26.967 176.562 26.621 177.18 26.0027C177.482 25.6813 177.718 25.3009 177.875 24.884C178.032 24.467 178.105 24.022 178.091 23.5752C178.106 23.1285 178.032 22.6834 177.875 22.2664C177.719 21.8494 177.482 21.469 177.18 21.1478C176.562 20.5295 175.734 20.1835 174.872 20.1835C174.01 20.1835 173.182 20.5295 172.564 21.1478Z" fill="black"/>
<path d="M181.489 28.1873V18.9971H182.906V22.7644H187.919V18.9971H189.336V28.1873H187.919V24.1432H182.921V28.1873H181.489Z" fill="black"/>
<path d="M191.867 28.1873V18.9971H193.284V22.7644H198.292V18.9971H199.709V28.1873H198.292V24.1432H193.284V28.1873H191.867Z" fill="black"/>
<path d="M202.242 28.1873V18.9971H203.66V22.1188H205.804C206.7 22.0804 207.576 22.3927 208.256 22.9926C208.555 23.2628 208.794 23.5952 208.957 23.9677C209.121 24.3402 209.206 24.7443 209.206 25.153C209.206 25.5618 209.121 25.9659 208.957 26.3384C208.794 26.7109 208.555 27.0433 208.256 27.3135C207.576 27.9134 206.7 28.2257 205.804 28.1873H202.242ZM203.66 26.8086H205.804C206.326 26.843 206.843 26.6789 207.255 26.3473C207.418 26.1971 207.549 26.013 207.639 25.8072C207.728 25.6014 207.774 25.3785 207.774 25.153C207.774 24.9276 207.728 24.7047 207.639 24.4989C207.549 24.2931 207.418 24.109 207.255 23.9587C206.845 23.621 206.329 23.4483 205.804 23.4733H203.66V26.8086ZM210.368 28.1873V18.9971H211.785V28.1873H210.368Z" fill="black"/>
<path d="M214.316 28.1874V18.9971H215.734V25.891V26.0755H215.767L220.581 18.9971H222.191V28.1874H220.774V21.2935V21.109H220.736L215.923 28.1874H214.316ZM215.606 15.3171H216.948C216.942 15.4684 216.97 15.6189 217.029 15.7577C217.088 15.8964 217.176 16.0196 217.288 16.1182C217.586 16.3179 217.934 16.4242 218.289 16.4242C218.645 16.4242 218.993 16.3179 219.291 16.1182C219.403 16.0196 219.491 15.8964 219.55 15.7577C219.609 15.6189 219.637 15.4684 219.631 15.3171H220.973C220.984 15.634 220.926 15.9494 220.801 16.2396C220.677 16.5297 220.49 16.787 220.255 16.9921C219.68 17.4118 218.992 17.6374 218.287 17.6374C217.582 17.6374 216.894 17.4118 216.319 16.9921C216.085 16.7863 215.899 16.5288 215.776 16.2387C215.652 15.9486 215.594 15.6336 215.606 15.3171Z" fill="black"/>
<path d="M87.9377 43.5093V34.3142H89.355V37.9942H91.1454L94.0082 34.3142H95.7042L92.3973 38.635L95.9734 43.4899H94.1972L91.1549 39.3536H89.3644V43.4899L87.9377 43.5093Z" fill="black"/>
<path d="M96.2578 43.5093L98.7616 34.3142H102.541L105.045 43.5093H103.505L101.445 35.693H99.834L97.779 43.5093H96.2578Z" fill="black"/>
<path d="M107.171 42.32C106.371 41.3788 105.93 40.1714 105.93 38.9216C105.93 37.6718 106.371 36.4644 107.171 35.5232C107.553 35.0856 108.021 34.737 108.545 34.5009C109.069 34.2647 109.636 34.1465 110.208 34.1541C110.864 34.137 111.514 34.2889 112.098 34.5959C112.54 34.8312 112.927 35.1625 113.232 35.5669L113.392 35.8436V34.3143H114.81V43.5095H113.392V42.053L113.232 42.3103C112.945 42.7014 112.575 43.0201 112.15 43.2425C111.553 43.5572 110.888 43.7109 110.218 43.6891C109.644 43.6981 109.075 43.5806 108.55 43.3444C108.024 43.1082 107.554 42.7589 107.171 42.32ZM108.215 36.4651C107.657 37.1514 107.351 38.0175 107.351 38.9119C107.351 39.8064 107.657 40.6724 108.215 41.3588C108.496 41.6595 108.833 41.8988 109.207 42.0622C109.58 42.2256 109.982 42.3099 110.388 42.3099C110.794 42.3099 111.195 42.2256 111.569 42.0622C111.942 41.8988 112.28 41.6595 112.561 41.3588C113.122 40.6741 113.43 39.8074 113.43 38.9119C113.43 38.0164 113.122 37.1497 112.561 36.4651C112.28 36.1631 111.943 35.9227 111.57 35.7585C111.196 35.5943 110.794 35.5096 110.388 35.5096C109.982 35.5096 109.579 35.5943 109.206 35.7585C108.832 35.9227 108.495 36.1631 108.215 36.4651Z" fill="black"/>
<path d="M118.114 42.3296C117.284 41.3956 116.824 40.1765 116.824 38.9117C116.824 37.647 117.284 36.4279 118.114 35.4939C118.558 35.0401 119.088 34.685 119.671 34.4508C120.254 34.2165 120.878 34.1081 121.504 34.1322C122.13 34.1563 122.744 34.3125 123.308 34.5911C123.873 34.8696 124.375 35.2645 124.785 35.7512C125.154 36.2239 125.428 36.7667 125.593 37.3485H124.175C124.033 36.9996 123.828 36.6816 123.571 36.4115C123.276 36.1032 122.921 35.8619 122.529 35.7031C122.138 35.5442 121.719 35.4713 121.298 35.4891C120.889 35.4802 120.483 35.5624 120.108 35.73C119.733 35.8976 119.398 36.1466 119.125 36.46C118.539 37.122 118.227 37.9929 118.256 38.8875C118.231 39.7868 118.554 40.6598 119.154 41.3149C119.424 41.6228 119.755 41.8685 120.125 42.0358C120.495 42.2032 120.894 42.2884 121.298 42.2859C121.74 42.3083 122.182 42.2293 122.59 42.0546C122.999 41.88 123.364 41.614 123.66 41.2761C123.92 40.9937 124.121 40.66 124.251 40.2954H125.668C125.514 40.9179 125.234 41.5002 124.846 42.0043C124.422 42.548 123.88 42.9834 123.265 43.2765C122.65 43.5696 121.976 43.7124 121.298 43.6938C120.704 43.7077 120.114 43.5934 119.566 43.3585C119.017 43.1235 118.523 42.773 118.114 42.3296Z" fill="black"/>
<path d="M126.321 35.693V34.3142H134.017V35.693H130.885V43.5093H129.467V35.693H126.321Z" fill="black"/>
<path d="M136.109 42.3297C135.271 41.3999 134.806 40.1793 134.806 38.9119C134.806 37.6445 135.271 36.4239 136.109 35.4941C136.531 35.0482 137.038 34.6968 137.598 34.462C138.158 34.2272 138.759 34.1141 139.364 34.1299C139.969 34.1158 140.57 34.2282 141.131 34.4601C141.692 34.6921 142.201 35.0388 142.628 35.4791C143.055 35.9195 143.39 36.4444 143.614 37.022C143.837 37.5996 143.944 38.2178 143.928 38.8391V39.3731H136.242C136.314 40.1829 136.678 40.9358 137.262 41.485C137.832 42.0325 138.589 42.3288 139.369 42.3103C140.199 42.3313 141.008 42.0375 141.641 41.485C141.917 41.2567 142.148 40.9766 142.321 40.6597H143.739C143.408 41.5704 142.808 42.3523 142.024 42.8963C141.24 43.4402 140.31 43.7191 139.364 43.694C138.759 43.71 138.158 43.597 137.598 43.3622C137.037 43.1274 136.531 42.7759 136.109 42.3297ZM136.27 38.0866H142.411C142.312 37.3758 141.967 36.7258 141.438 36.2563C140.867 35.7503 140.132 35.4835 139.378 35.5086C138.621 35.4868 137.883 35.7531 137.304 36.2563C136.757 36.7187 136.389 37.3685 136.27 38.0866Z" fill="black"/>
<path d="M145.895 47V34.3142H147.312V35.7707L147.491 35.494C147.78 35.1022 148.154 34.7848 148.583 34.5667C149.178 34.2481 149.844 34.0926 150.515 34.1152C151.087 34.1078 151.655 34.2261 152.18 34.4622C152.704 34.6983 153.174 35.0468 153.557 35.4843C154.357 36.4255 154.798 37.6329 154.798 38.8827C154.798 40.1325 154.357 41.3399 153.557 42.2811C152.93 42.9598 152.108 43.4152 151.212 43.5811C150.316 43.747 149.391 43.6147 148.573 43.2035C148.139 42.9895 147.766 42.6633 147.491 42.2568L147.312 41.9995V47H145.895ZM148.195 36.465C147.634 37.1497 147.326 38.0163 147.326 38.9118C147.326 39.8073 147.634 40.674 148.195 41.3587C148.476 41.6594 148.814 41.8987 149.187 42.0621C149.561 42.2255 149.962 42.3098 150.368 42.3098C150.774 42.3098 151.176 42.2255 151.549 42.0621C151.923 41.8987 152.26 41.6594 152.541 41.3587C153.103 40.674 153.411 39.8073 153.411 38.9118C153.411 38.0163 153.103 37.1497 152.541 36.465C152.261 36.163 151.924 35.9226 151.55 35.7584C151.177 35.5942 150.775 35.5095 150.368 35.5095C149.962 35.5095 149.56 35.5942 149.186 35.7584C148.813 35.9226 148.476 36.163 148.195 36.465Z" fill="black"/>
<path d="M69.6269 0.0145264H53.0311V43.5239H69.6269V0.0145264Z" fill="black"/>
<path d="M43.2055 0.0145264H26.6097V39.6108H43.2055V0.0145264Z" fill="black"/>
<path d="M0.1875 44.223V27.1873C7.19807 27.1783 13.9185 24.3099 18.8726 19.2123C23.8268 14.1147 26.6094 7.20463 26.6094 0L43.2052 0C43.1965 11.7234 38.6619 22.9643 30.5968 31.2553C22.5317 39.5464 11.5951 44.2102 0.1875 44.223Z" fill="url(#paint0_linear_3701_3903)"/>
<path d="M26.6097 44.223V27.1873C33.6211 27.1796 40.3428 24.3118 45.2979 19.214C50.2531 14.1162 53.0364 7.20547 53.0364 0L69.6322 0C69.6222 11.7238 65.0866 22.9647 57.0207 31.2556C48.9549 39.5465 38.0178 44.2102 26.6097 44.223Z" fill="url(#paint1_linear_3701_3903)"/>
</g>
<defs>
<linearGradient id="paint0_linear_3701_3903" x1="5.37457" y1="39.7225" x2="43.2834" y2="2.07876" gradientUnits="userSpaceOnUse">
<stop stop-color="#00EF12"/>
<stop offset="1" stop-color="#00FFE9"/>
</linearGradient>
<linearGradient id="paint1_linear_3701_3903" x1="1726.43" y1="4854.8" x2="5179.54" y2="1426.59" gradientUnits="userSpaceOnUse">
<stop stop-color="#00EF12"/>
<stop offset="1" stop-color="#00FFE9"/>
</linearGradient>
<clipPath id="clip0_3701_3903">
<rect width="222" height="47" fill="white" transform="translate(0.1875)"/>
</clipPath>
</defs>
</svg>
