<svg width="34" height="34" viewBox="0 0 34 34" fill="none" xmlns="http://www.w3.org/2000/svg">
<rect width="34" height="34" fill="white"/>
<path d="M11.8261 5.89339H21.0242M21.0242 5.89339V3.77783M21.0242 5.89339V8.00894M23.3237 5.89339V5.89339C27.1337 5.89339 30.2223 8.98197 30.2223 12.7919V22.2223C30.2223 26.6406 26.6406 30.2223 22.2223 30.2223H11.7778C7.35955 30.2223 3.77783 26.6406 3.77783 22.2223V11.6422C3.77783 8.4672 6.35165 5.89339 9.52662 5.89339V5.89339M9.52662 5.89339V3.77783M9.52662 5.89339V8.00894M9.52662 8.00894H8.37687M9.52662 8.00894H10.6764M21.0242 8.00894H19.8745M21.0242 8.00894H22.174" stroke="black"/>
<path d="M16.122 14.0107C16.501 13.3157 17.4989 13.3157 17.8779 14.0107L18.7427 15.5963C18.8865 15.8601 19.1412 16.0452 19.4365 16.1005L21.2118 16.4329C21.9899 16.5786 22.2982 17.5276 21.7544 18.1028L20.5136 19.4153C20.3072 19.6336 20.2099 19.9331 20.2485 20.231L20.481 22.0221C20.5828 22.8071 19.7755 23.3936 19.0604 23.0542L17.4288 22.2797C17.1574 22.1508 16.8425 22.1508 16.5711 22.2797L14.9394 23.0542C14.2244 23.3936 13.4171 22.8071 13.5189 22.0221L13.7513 20.231C13.79 19.9331 13.6927 19.6336 13.4863 19.4153L12.2455 18.1028C11.7017 17.5276 12.01 16.5786 12.7881 16.4329L14.5634 16.1005C14.8586 16.0452 15.1134 15.8601 15.2572 15.5963L16.122 14.0107Z" fill="url(#paint0_linear)"/>
<defs>
<linearGradient id="paint0_linear" x1="10.6763" y1="18.7245" x2="23.3119" y2="18.7245" gradientUnits="userSpaceOnUse">
<stop stop-color="#16FF00"/>
<stop offset="1" stop-color="#4DFFC9"/>
<stop offset="1" stop-color="#4DFFC9"/>
</linearGradient>
</defs>
</svg>
