<svg width="35" height="34" viewBox="0 0 35 34" fill="none" xmlns="http://www.w3.org/2000/svg">
<g clip-path="url(#clip0)">
<rect width="34" height="34" transform="translate(0.5)" fill="white"/>
<path d="M31.3521 30.2224V27.0742" stroke="black"/>
<path d="M31.3519 23.2962V16.9999C31.3519 16.1305 30.6471 15.4258 29.7778 15.4258V15.4258C28.9085 15.4258 28.2037 16.1305 28.2037 16.9999V26.959C28.2037 27.9344 27.5002 28.7675 26.5386 28.9308L13.4731 31.1494C12.2415 31.3586 10.983 30.9804 10.0708 30.127L3.27596 23.7705C2.44662 22.9947 2.42482 21.6862 3.22785 20.8831V20.8831C3.99025 20.1207 5.21856 20.0962 6.01082 20.8275L7.04386 21.7811M25.0556 16.9999L22.6101 15.913C22.3544 15.7993 22.0776 15.7406 21.7978 15.7406H15.4537C14.3236 15.7406 13.4074 16.6568 13.4074 17.7869V17.7869C13.4074 18.917 14.3236 19.8332 15.4537 19.8332H18.1839C20.2541 19.8332 20.9603 22.593 19.1445 23.5874L15.116 25.7935M7.04386 21.7811L10.8189 25.2657C11.9894 26.3461 13.7189 26.5586 15.116 25.7935V25.7935M7.04386 21.7811V21.7811C7.48568 20.73 8.82263 20.4131 9.68922 21.154L15.116 25.7935" stroke="black" stroke-linecap="round"/>
<path d="M17.6238 10.1046C15.4721 12.2638 11.2579 13.9323 8.21129 13.8313C6.68866 13.7809 5.7458 13.298 5.45212 12.558C5.15818 11.8173 5.10872 11.6907 4.56883 10.3264C6.72059 8.16724 14.806 4.88543 17.8526 4.98641C18.4408 6.47266 18.4698 6.54596 18.7631 7.28654C19.0563 8.02712 18.6997 9.02498 17.6238 10.1046Z" fill="url(#paint0_linear)"/>
<ellipse rx="5.51947" ry="5.51946" transform="matrix(0.999451 0.0331245 -0.705885 0.708327 11.2243 7.69105)" fill="url(#paint1_linear)"/>
</g>
<defs>
<linearGradient id="paint0_linear" x1="7.47175" y1="11.7592" x2="12.8116" y2="17.3086" gradientUnits="userSpaceOnUse">
<stop stop-color="#17D105"/>
<stop offset="1" stop-color="#4DFFC9"/>
<stop offset="1" stop-color="#4DFFC9"/>
</linearGradient>
<linearGradient id="paint1_linear" x1="8.22465e-08" y1="5.51946" x2="11.0287" y2="5.51946" gradientUnits="userSpaceOnUse">
<stop stop-color="#16FF00"/>
<stop offset="1" stop-color="#4DFFC9"/>
<stop offset="1" stop-color="#4DFFC9"/>
</linearGradient>
<clipPath id="clip0">
<rect width="34" height="34" fill="white" transform="translate(0.5)"/>
</clipPath>
</defs>
</svg>
