<svg width="18" height="14" viewBox="0 0 18 14" fill="none" xmlns="http://www.w3.org/2000/svg">
<path d="M18 2.10684V7.55563C18 7.55563 16.8338 7.78538 16.5936 7.8156C16.3541 7.84574 15.6015 8.08874 15.0561 7.56449C14.215 6.75834 11.2265 3.78633 11.2265 3.78633C11.2265 3.78633 10.7112 3.28071 9.88383 3.71769C9.12435 4.11799 7.99853 4.70463 7.52829 4.93307C6.63933 5.40622 5.90255 4.65553 5.90255 4.0837C5.90255 3.64015 6.17933 3.33911 6.57497 3.11772C7.64723 2.4677 9.90722 1.19915 10.8485 0.699011C11.4207 0.394702 11.8329 0.368626 12.6184 1.03038C13.5859 1.84401 14.4468 2.58566 14.4468 2.58566C14.4468 2.58566 14.7276 2.82002 15.1755 2.72563C16.2752 2.49312 18 2.10684 18 2.10684ZM6.10498 11.3393C6.24971 10.9675 6.20133 10.5516 5.92387 10.2663C5.67454 10.0111 5.31053 9.94379 4.96344 10.0233C5.06051 9.67907 5.00691 9.31266 4.75624 9.05408C4.50616 8.79952 4.14283 8.73092 3.79578 8.81118C3.89213 8.46743 3.83867 8.10105 3.58786 7.84323C3.19511 7.44039 2.51578 7.45768 2.06951 7.88307C1.62559 8.30905 1.34122 9.08081 1.73742 9.53507C2.13296 9.98705 2.58744 9.71205 2.93391 9.63309C2.83753 9.97684 2.54872 10.2966 2.90439 10.7465C3.25972 11.1967 3.75437 10.9236 4.10121 10.8454C4.0045 11.1878 3.7283 11.5396 4.0703 11.9568C4.4154 12.3753 4.98061 12.1523 5.35393 12.0364C5.20985 12.4068 4.90148 12.8061 5.29767 13.2535C5.69325 13.7042 6.60741 13.4957 7.05394 13.0696C7.49927 12.6436 7.54201 11.9685 7.15032 11.5644C6.8799 11.2872 6.47677 11.2227 6.10498 11.3393ZM14.2527 8.50451C11.0248 5.27653 12.543 6.79546 10.8059 5.05459C10.8059 5.05459 10.2838 4.53484 9.59576 4.83676C9.11273 5.04842 8.49086 5.33689 8.02294 5.55712C7.50875 5.82675 7.1387 5.91021 6.96496 5.90905C5.97093 5.90254 5.16446 5.10358 5.16446 4.11054C5.16446 3.46633 5.50646 2.90547 6.01655 2.58711C6.73383 2.09075 8.38485 1.21258 8.38485 1.21258C8.38485 1.21258 7.88188 0.575239 6.78006 0.575239C5.67857 0.575239 3.37725 2.08287 3.37725 2.08287C3.37725 2.08287 2.72439 2.50104 1.79375 2.12438L0 1.49975V7.73471C0 7.73471 0.512193 7.88297 0.972414 8.07095C1.07636 7.77452 1.24407 7.50079 1.47673 7.27471C2.24024 6.54748 3.50578 6.53993 4.20043 7.25521C4.4097 7.47264 4.55573 7.73203 4.63025 8.01876C4.91016 8.10516 5.16369 8.2582 5.36744 8.46812C5.57732 8.6841 5.72281 8.94494 5.79795 9.23022C6.07753 9.31669 6.3307 9.47031 6.53513 9.68038C6.76535 9.91779 6.91872 10.2046 6.99034 10.5153C7.28259 10.6004 7.5467 10.7588 7.75941 10.9762C8.17689 11.405 8.32507 11.9868 8.23529 12.548C8.23601 12.548 8.23739 12.548 8.23805 12.5493C8.24488 12.5582 8.49671 12.839 8.65374 12.9973C8.9615 13.3054 9.46404 13.3054 9.77274 12.9973C10.0794 12.6894 10.0808 12.1878 9.77274 11.8783C9.7617 11.8673 8.66242 10.7175 8.75089 10.6283C8.83871 10.5398 10.2392 11.9971 10.2653 12.0237C10.5727 12.3312 11.0749 12.3312 11.3836 12.0237C11.6916 11.7158 11.691 11.2142 11.3836 10.9055C11.3685 10.8911 11.3055 10.8307 11.2821 10.8066C11.2821 10.8066 9.8935 9.56965 9.99918 9.46396C10.1062 9.35762 11.831 10.9672 11.8338 10.9672C12.1438 11.2464 12.6214 11.2444 12.9197 10.946C13.2099 10.6558 13.2161 10.1967 12.9588 9.88743C12.9534 9.87098 11.6444 8.50295 11.7465 8.40002C11.8502 8.29575 13.1454 9.6295 13.1482 9.63226C13.4548 9.93962 13.9577 9.93962 14.2665 9.63226C14.5738 9.32486 14.5738 8.82269 14.2665 8.51257C14.2623 8.50996 14.2568 8.5072 14.2527 8.50451Z" fill="white"/>
</svg>
