<svg width="296" height="334" viewBox="0 0 296 334" fill="none" xmlns="http://www.w3.org/2000/svg">
<path d="M157.563 292.44C157.563 292.44 15.0048 206.352 15.3836 203.625C15.7623 200.936 22.2009 195.217 22.2009 195.217C22.2009 195.217 97.8353 152.685 101.585 152.041C105.334 151.359 110.94 149.276 125.635 158.252C140.33 167.228 250.96 234.265 250.96 234.265C250.96 234.265 252.172 240.287 250.506 241.045C248.801 241.802 157.563 292.44 157.563 292.44Z" fill="white"/>
<path d="M258.723 136.59L256.753 224.875C256.64 228.624 256.715 231.843 254.557 233.018L265.237 227.147C267.396 225.973 268.797 223.36 268.873 219.61L271.335 131.288C271.562 123.751 266.487 114.472 260.01 110.495L135.405 34.2925C132.148 32.323 129.156 32.0579 126.997 33.2699L116.316 39.1404C118.513 37.9284 120.066 39.6706 123.323 41.6779L249.103 117.653L256.905 128.106L258.723 136.59Z" fill="#E0E0E0"/>
<path d="M112.526 75.7606L112.413 47.9232C112.64 40.462 117.374 37.2806 123.813 41.2195L248.342 118.937C254.175 122.118 259.78 129.996 259.553 139.54L256.75 224.871C256.523 232.332 252.092 235.059 245.691 231.12L122.108 155.561C115.708 151.66 109.307 142.381 109.496 134.92L112.526 75.7606Z" fill="white"/>
<path d="M250.464 136.85C250.578 132.835 247.321 126.851 243.874 124.768L131.161 55.875C127.487 53.6404 122.753 56.178 122.602 60.4956L120.519 135.221C120.405 139.236 123.662 145.22 127.109 147.303L239.822 216.196C243.495 218.43 248.23 215.893 248.381 211.575L250.464 136.85Z" fill="white"/>
<path d="M232.098 264.032L245.544 257.366C248.801 255.586 250.354 252.556 250.43 250.094L250.77 237.974C250.695 240.436 248.877 242.178 245.62 243.958L169.303 286.112C162.713 289.71 152.184 289.445 145.784 285.506L21.6325 209.72C18.4132 207.751 16.2923 206.009 16.3681 203.547L16.0272 215.667C15.9514 218.166 17.0119 221.31 20.2312 223.279L144.988 299.709C151.427 303.648 161.956 303.913 168.508 300.315L214.222 273.917" fill="#E0E0E0"/>
<path d="M122.868 62.3539L120.823 135.186C120.709 139.541 124.156 145.866 127.905 148.176L237.778 215.327C242.247 218.054 248.042 214.948 248.156 209.684L250.201 136.852C250.314 132.497 246.868 126.172 243.118 123.861L133.246 56.7486C128.777 53.9838 123.02 57.1273 122.868 62.3539Z" fill="white" stroke="#6AB76A" stroke-width="1.51496" stroke-miterlimit="10"/>
<path d="M110.407 100.227L109.498 134.919C109.346 140.487 111.96 146.925 115.861 151.735C109.801 150.41 102.794 151.016 97.9084 153.705L46.8921 181.656M112.338 46.4455C112.528 39.8933 116.808 37.6966 122.375 41.0674L248.003 117.876C253.381 120.83 258.949 128.215 258.722 137.57C257.926 165.597 257.51 180.52 256.222 226.574C256.033 232.899 251.904 235.437 246.223 231.952L120.595 155.182C114.497 151.432 109.649 142.608 109.877 135.487M142.145 37.3178L136.616 33.947C133.056 31.7882 129.609 31.4095 126.882 32.8866L116.277 38.6813C113.588 40.1584 112.073 43.2262 111.96 47.3166L111.164 75.6842M28.902 191.541L21.062 195.821C17.464 197.79 15.4567 200.555 15.3431 203.623L15.0022 215.705C14.9264 218.81 16.8201 221.726 20.3803 223.885L144.001 299.444C150.743 303.572 161.878 303.875 168.846 300.05L214.636 275.015L232.437 265.244L245.693 257.972C249.291 256.002 251.298 253.238 251.412 250.17L251.753 238.088C251.753 238.088 251.753 238.088 251.753 238.05C251.791 236.725 252.056 235.929 250.692 234.225C250.768 234.225 250.844 234.263 250.92 234.263C252.283 234.301 253.571 233.998 254.707 233.392L265.312 227.597C268.001 226.12 269.554 223.052 269.667 218.962L272.091 131.359C272.318 123.481 266.978 113.672 260.199 109.544L155.931 45.7637M251.791 237.482C251.753 237.899 251.639 238.315 251.45 238.732C250.806 240.02 249.291 241.307 247.056 242.519C243.648 244.375 172.407 283.461 168.544 285.544C162.256 288.991 152.182 288.726 146.008 284.976L19.7364 207.751C14.169 204.342 14.2068 199.646 19.9258 196.502" stroke="#232323" stroke-width="1.51496" stroke-miterlimit="10" stroke-linecap="round" stroke-linejoin="round"/>
<path d="M115.9 161.277L65.9062 188.85L179.566 259.447L229.598 231.875L115.9 161.277Z" fill="#E0E0E0" stroke="#232323" stroke-width="1.51496" stroke-miterlimit="10" stroke-linecap="round" stroke-linejoin="round"/>
<path d="M67.1172 223.653L88.0615 212.102L142.259 245.734L121.315 257.285L67.1172 223.653Z" fill="#E0E0E0" stroke="#232323" stroke-width="1.51496" stroke-miterlimit="10" stroke-linecap="round" stroke-linejoin="round"/>
<path d="M82.5703 179.648L196.268 250.246" stroke="#232323" stroke-width="1.51496" stroke-miterlimit="10" stroke-linecap="round" stroke-linejoin="round"/>
<path d="M99.3867 171.051L212.516 241.307" stroke="#232323" stroke-width="1.51496" stroke-miterlimit="10" stroke-linecap="round" stroke-linejoin="round"/>
<path d="M80.5273 197.744L131.127 171.156" stroke="#232323" stroke-width="1.51496" stroke-miterlimit="10" stroke-linecap="round" stroke-linejoin="round"/>
<path d="M111.695 197.751L145.252 180.102" stroke="#232323" stroke-width="1.51496" stroke-miterlimit="10" stroke-linecap="round" stroke-linejoin="round"/>
<path d="M127.945 207.332L161.54 189.645" stroke="#232323" stroke-width="1.51496" stroke-miterlimit="10" stroke-linecap="round" stroke-linejoin="round"/>
<path d="M143.965 217.029L177.256 199.531" stroke="#232323" stroke-width="1.51496" stroke-miterlimit="10" stroke-linecap="round" stroke-linejoin="round"/>
<path d="M142.641 235.896L192.975 209.422" stroke="#232323" stroke-width="1.51496" stroke-miterlimit="10" stroke-linecap="round" stroke-linejoin="round"/>
<path d="M192.82 229.074L210.318 219.871" stroke="#232323" stroke-width="1.51496" stroke-miterlimit="10" stroke-linecap="round" stroke-linejoin="round"/>
<path d="M159.984 246.834L176.687 238.047" stroke="#232323" stroke-width="1.51496" stroke-miterlimit="10" stroke-linecap="round" stroke-linejoin="round"/>
<path d="M159.681 148.668L161.12 92.9549C161.12 92.2353 161.916 91.8187 162.522 92.1975L234.899 135.109C235.732 135.601 236.225 136.548 236.149 137.533L232.058 193.018C231.983 194.003 230.884 194.571 230.051 194.041L161.537 152.114C160.325 151.395 159.643 150.069 159.681 148.668Z" fill="white" stroke="#232323" stroke-width="1.51496" stroke-miterlimit="10"/>
<path d="M160.512 97.3047L235.351 142.034" stroke="#232323" stroke-width="1.51496" stroke-miterlimit="10"/>
<path d="M231.753 133.559L231.109 139.505" stroke="#232323" stroke-width="1.51496" stroke-miterlimit="10"/>
<path d="M175.098 121.593C175.136 121.555 177.862 120.192 178.923 119.434C180.249 118.487 182.142 118.601 184.074 119.737C187.823 121.896 190.853 127.161 190.853 131.478C190.853 133.523 190.172 135.076 188.922 135.872C188.694 136.023 188.278 136.25 188.051 136.402C190.891 139.848 192.671 144.318 192.671 148.067V156.362C192.671 156.399 192.633 156.475 192.595 156.513L188.543 158.785C188.543 158.785 187.672 145.719 186.99 144.242C186.308 142.765 183.506 138.523 183.506 138.523C183.506 138.523 190.475 135.228 182.824 124.964C177.862 118.184 175.098 121.593 175.098 121.593Z" fill="#E0E0E0"/>
<path d="M188.578 159.004L192.631 156.732C192.668 156.694 192.706 156.656 192.706 156.58V148.286C192.706 144.536 190.926 140.105 188.086 136.621C188.313 136.507 188.73 136.242 188.957 136.09C190.207 135.295 190.888 133.742 190.888 131.697C190.888 127.379 187.858 122.115 184.109 119.956C182.14 118.82 180.284 118.706 178.958 119.653C177.898 120.373 175.209 121.774 175.133 121.812" stroke="#6AB76A" stroke-width="1.51496" stroke-miterlimit="10" stroke-linecap="round" stroke-linejoin="round"/>
<path d="M175.133 121.852C173.883 122.572 173.202 124.087 173.202 126.094C173.202 128.556 174.224 131.51 175.966 133.972C176.004 134.01 176.004 134.085 175.966 134.123C175.929 134.161 175.891 134.199 175.815 134.199C174.489 134.123 173.315 134.54 172.444 135.335C171.308 136.434 170.664 138.176 170.664 140.41V148.743L188.351 158.969V150.864C188.351 147 186.495 142.418 183.465 138.895C183.428 138.857 183.428 138.782 183.428 138.744C183.428 138.706 183.503 138.668 183.541 138.63C185.397 138.289 186.458 136.547 186.458 134.01C186.458 129.73 183.428 124.503 179.716 122.344C178.655 121.738 177.633 121.435 176.724 121.435C176.194 121.398 175.626 121.549 175.133 121.852Z" fill="white" stroke="#6AB76A" stroke-width="1.51496" stroke-miterlimit="10" stroke-linecap="round" stroke-linejoin="round"/>
<path d="M184.34 138.787L188.203 136.59" stroke="#6AB76A" stroke-width="1.51496" stroke-miterlimit="10" stroke-linecap="round" stroke-linejoin="round"/>
<path d="M202.559 137.757C202.596 137.719 205.323 136.356 206.384 135.598C207.709 134.652 209.603 134.765 211.535 135.901C215.284 138.06 218.314 143.325 218.314 147.642C218.314 149.688 217.632 151.24 216.383 152.036C216.155 152.187 215.739 152.414 215.512 152.566C218.352 156.013 220.132 160.482 220.132 164.231V172.526C220.132 172.563 220.094 172.639 220.056 172.677L216.004 174.95C216.004 174.95 215.133 161.883 214.451 160.406C213.769 158.929 210.967 154.687 210.967 154.687C210.967 154.687 217.935 151.392 210.285 141.128C205.323 134.349 202.559 137.757 202.559 137.757Z" fill="#E0E0E0"/>
<path d="M216.039 174.91L220.092 172.638C220.129 172.6 220.167 172.562 220.167 172.487V164.192C220.167 160.443 218.387 156.011 215.547 152.527C215.774 152.413 216.191 152.148 216.418 151.997C217.668 151.201 218.349 149.648 218.349 147.603C218.349 143.286 215.319 138.021 211.57 135.862C209.6 134.726 207.745 134.612 206.419 135.559C205.359 136.279 202.669 137.68 202.594 137.718" stroke="#232323" stroke-width="1.51496" stroke-miterlimit="10" stroke-linecap="round" stroke-linejoin="round"/>
<path d="M211.801 154.685L215.702 152.488" stroke="#232323" stroke-width="1.51496" stroke-miterlimit="10" stroke-linecap="round" stroke-linejoin="round"/>
<path d="M202.598 137.754C201.348 138.474 200.666 139.989 200.666 141.996C200.666 144.458 201.689 147.412 203.431 149.874C203.469 149.912 203.469 149.988 203.431 150.026C203.393 150.063 203.356 150.101 203.28 150.101C201.954 150.026 200.78 150.442 199.909 151.238C198.773 152.336 198.129 154.078 198.129 156.313V164.645L215.816 174.871V166.766C215.816 162.903 213.96 158.32 210.93 154.798C210.892 154.76 210.892 154.684 210.892 154.646C210.892 154.608 210.968 154.57 211.006 154.533C212.862 154.192 213.922 152.449 213.922 149.912C213.922 145.632 210.892 140.406 207.181 138.247C206.12 137.641 205.098 137.338 204.189 137.338C203.696 137.3 203.128 137.451 202.598 137.754Z" fill="white" stroke="#232323" stroke-width="1.51496" stroke-miterlimit="10" stroke-linecap="round" stroke-linejoin="round"/>
<path d="M149.416 100.724C149.416 105.799 147.939 109.549 145.553 111.48C145.136 111.821 144.72 112.086 144.265 112.313L143.508 112.654L138.167 114.51C136.993 114.851 135.706 114.889 134.342 114.548V121.024L129.305 122.805L121.995 108.034L96.1272 93.2249C89.0069 89.1345 83.25 77.7723 83.25 67.7736C83.25 62.7742 84.6892 59.0626 86.9995 57.0931C87.7191 56.4871 88.5524 56.0326 89.4235 55.7675L93.476 54.3662C93.8926 54.1768 94.3471 54.0253 94.8016 53.9117C96.6574 53.4951 98.8162 53.8738 101.127 55.1615L136.274 75.0075C143.545 79.06 149.416 90.6116 149.416 100.724Z" fill="white"/>
<path d="M93.4747 54.3271C93.8913 54.1377 94.3458 53.9862 94.8003 53.8726C96.6562 53.456 98.815 53.8347 101.125 55.1225L136.272 74.9685C143.506 79.0588 149.415 90.5726 149.415 100.685C149.415 105.76 147.938 109.51 145.552 111.441C145.135 111.782 144.718 112.047 144.264 112.274L143.506 112.615L138.166 114.471C138.166 114.471 143.393 113.183 144.15 105.609C144.908 98.0337 142.9 88.2244 136.537 81.2555C130.175 74.2867 94.9518 56.2966 94.9518 56.2966L90.1797 55.4633L93.4747 54.3271Z" fill="#F0F0F0"/>
<path d="M129.305 122.765L134.342 120.985V114.509C133.357 114.282 132.335 113.865 131.274 113.259L129.305 112.426V122.765Z" fill="#F0F0F0"/>
<path d="M144.379 102.468C144.379 107.353 143.015 110.989 140.819 112.997C140.743 113.072 140.629 113.148 140.553 113.224C139.834 113.792 139.038 114.246 138.167 114.474C136.993 114.815 135.706 114.852 134.342 114.512C133.357 114.284 132.335 113.868 131.274 113.262L130.214 112.656L129.305 112.125V122.73L121.995 107.959L96.1272 93.1506C89.0069 89.0602 83.25 77.698 83.25 67.6992C83.25 62.6998 84.6892 58.9882 86.9995 57.0187C87.7191 56.4128 88.5524 55.9583 89.4235 55.6931C90.1809 55.4659 90.9763 55.3902 91.8095 55.4659C92.4913 55.5038 93.173 55.6553 93.8926 55.8825C94.082 55.9204 94.2335 55.9961 94.4228 56.0719C94.5743 56.1476 94.7637 56.2234 94.9152 56.2991H94.9531C95.3318 56.4506 95.7106 56.64 96.0893 56.8672L131.236 76.7132C138.508 80.8415 144.379 92.3552 144.379 102.468Z" stroke="#232323" stroke-width="1.51496" stroke-miterlimit="10" stroke-linecap="round" stroke-linejoin="round"/>
<path d="M134.342 114.555V121.031L129.305 122.773" stroke="#232323" stroke-width="1.51496" stroke-miterlimit="10" stroke-linecap="round" stroke-linejoin="round"/>
<path d="M93.4766 54.3271C93.8932 54.1377 94.3477 53.9862 94.8022 53.8726C96.658 53.456 98.8168 53.8347 101.127 55.1225L136.274 74.9685C143.508 79.0588 149.417 90.5726 149.417 100.685C149.417 105.76 147.939 109.51 145.553 111.441C145.137 111.782 144.72 112.047 144.266 112.274L143.508 112.615L138.168 114.471" stroke="#232323" stroke-width="1.51496" stroke-miterlimit="10" stroke-linecap="round" stroke-linejoin="round"/>
<path d="M94.8 53.875L93.5123 54.3295H93.4744L89.4219 55.7308" stroke="#232323" stroke-width="1.51496" stroke-miterlimit="10" stroke-linecap="round" stroke-linejoin="round"/>
<path d="M123.814 89.207C123.814 95.6835 118.853 98.524 112.717 95.5699C106.581 92.6157 101.582 84.9651 101.582 78.4887C101.582 72.0122 106.581 69.1338 112.717 72.1258C118.815 75.08 123.814 82.7306 123.814 89.207Z" fill="white" stroke="#6AB76A" stroke-width="1.38808" stroke-miterlimit="10" stroke-linecap="round" stroke-linejoin="round"/>
<path d="M115.898 81.1393C115.898 82.9951 114.459 83.8284 112.717 82.9573C110.936 82.124 109.535 79.9273 109.535 78.0336C109.535 76.1399 110.974 75.3446 112.717 76.2157C114.459 77.0868 115.898 79.2835 115.898 81.1393Z" fill="white" stroke="#6AB76A" stroke-width="1.38808" stroke-miterlimit="10" stroke-linecap="round" stroke-linejoin="round"/>
<path d="M119.536 91.326C119.688 91.5911 119.612 91.932 119.385 92.1214C117.756 93.3333 115.37 93.4469 112.681 92.1214C109.916 90.7958 107.454 88.2582 105.826 85.3798C105.674 85.1147 105.75 84.7359 106.053 84.5844C107.719 83.5618 110.106 83.5618 112.719 84.8117C115.408 86.0994 117.87 88.5233 119.536 91.326Z" fill="white" stroke="#6AB76A" stroke-width="1.38808" stroke-miterlimit="10" stroke-linecap="round" stroke-linejoin="round"/>
<path d="M25.9909 71.3864L21.0224 71.0152L21.7699 66.1486L27.4679 61.5798L32.4274 61.9143L31.6889 66.8176L25.9909 71.3864Z" fill="white" stroke="#232323" stroke-width="1.51496" stroke-miterlimit="10" stroke-linecap="round" stroke-linejoin="round"/>
<path d="M31.6047 67.0387L26.1289 71.4102L76.1997 134.13L81.6755 129.759L31.6047 67.0387Z" fill="#E0E0E0" stroke="#232323" stroke-width="1.51496" stroke-miterlimit="10"/>
<path d="M81.6705 129.484L82.2259 124.314L32.4273 61.9126L31.8718 67.0828L81.6705 129.484Z" fill="white" stroke="#232323" stroke-width="1.51496" stroke-miterlimit="10" stroke-linecap="round" stroke-linejoin="round"/>
<path d="M76.0821 134.183L70.9029 133.591L21.1133 71.2266L26.2925 71.8188L76.0821 134.183Z" fill="white" stroke="#232323" stroke-width="1.51496" stroke-miterlimit="10" stroke-linecap="round" stroke-linejoin="round"/>
<path d="M27.2486 67.3479C28.1804 66.6041 28.5337 65.4975 28.0378 64.8763C27.5419 64.2551 26.3845 64.3546 25.4528 65.0984C24.521 65.8423 24.1676 66.9489 24.6635 67.5701C25.1595 68.1913 26.3168 68.0918 27.2486 67.3479Z" fill="#222323"/>
<path d="M70.9034 133.592L85.5003 140.4L87.5162 138.77L82.2262 124.316L81.6699 129.798L76.0827 134.184L70.9034 133.592Z" fill="white" stroke="#232323" stroke-width="1.51496" stroke-miterlimit="10" stroke-linecap="round" stroke-linejoin="round"/>
<path d="M85.7363 140.57C85.7363 140.57 90.2253 145.156 90.7227 144.643C91.128 144.231 87.7522 138.94 87.7522 138.94L85.7363 140.57Z" fill="#222323"/>
</svg>
