<svg width="680" height="272" viewBox="0 0 680 272" fill="none" xmlns="http://www.w3.org/2000/svg">
<g clip-path="url(#clip0_2175_1098)">
<g filter="url(#filter0_f_2175_1098)">
<path fill-rule="evenodd" clip-rule="evenodd" d="M677.989 98.2122C700.854 118.281 697.555 141.586 709.429 163.94C718.134 180.327 728.497 196.266 738.837 212.757C752.501 234.548 774.443 256.774 780.521 277.317C787.298 300.224 792.543 327.036 774.931 334.762C757.01 342.623 718.66 317.399 693.319 315.57C668.429 313.773 655.882 330.42 628.884 324.217C600.745 317.752 562.934 305.128 541.073 280.591C516.09 252.547 534.716 229.004 518.365 200.162C507.015 180.142 479.022 163.677 463.518 143.79C442.94 117.394 401.055 79.9419 412.866 64.8377C426.454 47.4617 487.005 89.7206 511.503 82.4275C530.843 76.6699 505.1 33.2761 527.123 30.823C547.539 28.5489 578.439 60.3013 604.726 72.0433C629.742 83.2176 656.286 79.1642 677.989 98.2122Z" fill="url(#paint0_linear_2175_1098)"/>
</g>
</g>
<defs>
<filter id="filter0_f_2175_1098" x="110.805" y="-269.293" width="976.067" height="905.568" filterUnits="userSpaceOnUse" color-interpolation-filters="sRGB">
<feFlood flood-opacity="0" result="BackgroundImageFix"/>
<feBlend mode="normal" in="SourceGraphic" in2="BackgroundImageFix" result="shape"/>
<feGaussianBlur stdDeviation="150" result="effect1_foregroundBlur_2175_1098"/>
</filter>
<linearGradient id="paint0_linear_2175_1098" x1="706.17" y1="178.273" x2="488.462" y2="70.7453" gradientUnits="userSpaceOnUse">
<stop stop-color="#58FBAD"/>
<stop offset="1" stop-color="#58FBE7"/>
</linearGradient>
<clipPath id="clip0_2175_1098">
<rect width="680" height="272" fill="white"/>
</clipPath>
</defs>
</svg>
