<svg width="296" height="362" viewBox="0 0 296 362" fill="none" xmlns="http://www.w3.org/2000/svg">
<g clip-path="url(#clip0_16161_125233)">
<path d="M182.445 167.236L171.689 154.258L175.547 142.801H175.606L189.752 137.89L194.429 140.229L194.487 140.287V140.112L193.552 129.356L202.554 126.082L216.526 121.113L223.95 134.441L224.008 134.558L225.937 131.986L239.85 127.134L249.612 135.026L249.729 135.143L249.788 135.201L248.385 150.166C248.443 150.225 248.502 150.283 248.502 150.342C251.308 153.732 253.821 157.707 255.867 162.092C255.926 162.15 255.926 162.208 255.984 162.325L266.857 163.728L267.325 163.67L270.832 175.77L270.891 176.063L261.304 183.954L260.602 195.295L270.189 208.565L266.623 218.619L252.769 223.354L248.326 221.192V221.25L248.735 235.163H248.677L234.647 239.021L226.346 241.242L226.288 241.184L218.572 226.394H218.513C217.929 226.394 217.461 226.336 216.876 226.336L201.853 232.415L192.208 224.348L193.727 212.365C190.571 208.448 187.823 203.771 185.836 198.51H185.777L175.781 197.458V197.4L171.923 185.065L181.685 178.284C181.568 174.484 181.802 170.743 182.445 167.236ZM231.198 183.428C231.14 182.902 231.081 182.376 231.023 181.85C230.965 181.558 230.906 181.265 230.848 180.973C230.731 180.389 230.614 179.804 230.438 179.161C228.217 169.749 222.079 162.735 215.24 161.039C212.726 165.891 211.966 172.438 213.544 179.278C215.766 188.631 221.904 195.646 228.685 197.4C230.614 193.834 231.549 189.332 231.257 184.481C231.257 184.071 231.257 183.779 231.198 183.428Z" fill="#EFEFEF"/>
<path d="M182.391 167.177L171.635 154.2L175.493 142.742L190.049 149.348C191.51 147.535 193.03 145.899 194.842 144.554L194.433 140.111L193.497 129.238L202.5 125.965L209.749 139.468C210.742 139.468 212.087 139.585 213.782 139.819C215.477 140.053 217.231 140.696 217.699 140.813C218.108 140.93 218.459 141.105 218.926 141.222L222.024 137.072L223.369 135.259L223.954 134.5L225.883 131.927L235.353 139.702L235.703 139.995L235.996 154.609L245.7 167.352L254.176 168.814L257.508 180.447L247.336 188.748L246.284 199.796L256.865 211.955L252.773 223.296L238.626 216.632C238.626 216.632 238.568 216.69 238.392 216.865L238.159 217.099C237.925 217.333 237.808 217.508 237.574 217.742C237.34 217.976 237.165 218.151 237.048 218.327C236.931 218.444 236.697 218.678 236.522 218.853C236.405 218.97 236.171 219.204 235.996 219.379C235.879 219.496 235.645 219.73 235.47 219.905C235.119 220.197 234.768 220.548 234.417 220.84V239.021L226.116 241.242L218.4 226.394C217.816 226.394 217.348 226.335 216.763 226.335C213.607 226.043 210.45 225.108 207.469 223.763L201.74 232.415L192.036 224.289L193.556 212.306C190.399 208.389 187.652 203.713 185.664 198.451L175.61 197.399L171.752 185.006L181.514 178.284C181.514 174.426 181.748 170.684 182.391 167.177ZM197.765 173.724C198.233 177.115 198.525 180.564 199.285 183.954C199.694 185.942 200.512 187.988 200.863 190.092C200.688 190.443 200.512 190.794 200.454 191.203C200.162 192.84 200.395 194.476 201.272 195.938C201.915 197.048 203.318 197.458 204.546 197.282C205.481 199.504 206.592 201.491 208.696 202.836C211.327 205.583 217.056 205.934 220.154 203.946C220.388 203.771 220.563 203.654 220.738 203.479C220.855 203.479 220.914 203.479 221.031 203.537C223.018 203.829 224.83 203.713 226.175 202.017C227.461 200.381 227.578 198.101 226.467 196.347C224.947 194.009 222.375 194.301 220.329 192.898C218.342 191.554 217.231 188.806 216.179 186.702C213.49 181.499 213.022 175.887 213.022 170.1C213.022 168.989 212.496 168.229 211.795 167.762C212.847 166.943 213.899 166.066 214.834 165.131C217.465 162.442 213.314 158.292 210.684 160.981C210.333 161.331 209.982 161.682 209.632 161.974C208.93 161.857 208.17 161.916 207.469 162.267C203.435 164.02 201.331 167.294 200.337 171.035C198.876 170.918 197.531 171.854 197.765 173.724Z" fill="white"/>
<path d="M249.789 134.907L239.851 126.898L225.705 131.984" stroke="#232323" stroke-width="1.04215" stroke-miterlimit="10" stroke-linejoin="round"/>
<path d="M228.688 173.839C225.765 167.175 220.737 162.382 215.242 160.979C212.729 165.831 211.969 172.378 213.547 179.217C215.769 188.571 221.906 195.585 228.688 197.339C226.7 201.197 223.543 204.003 219.568 204.938C210.741 206.984 201.213 198.859 198.348 186.641C195.484 174.541 200.336 162.908 209.163 160.862C211.209 160.336 213.255 160.453 215.242 160.92" stroke="#232323" stroke-width="1.04215" stroke-miterlimit="10" stroke-linecap="round"/>
<path d="M235.699 139.99L235.348 139.698L225.878 131.806L223.949 134.378L223.364 135.138L222.02 136.951L218.922 141.101C218.512 140.984 218.162 140.809 217.694 140.692C217.168 140.575 215.414 139.932 213.777 139.698C212.141 139.464 210.796 139.347 209.744 139.347L202.495 125.844L193.493 129.117L194.428 139.99L194.837 144.433C193.025 145.778 191.447 147.414 190.044 149.227L175.488 142.621L171.63 154.078L182.386 167.173C181.743 170.68 181.509 174.421 181.626 178.221L171.864 184.944L175.722 197.337L185.776 198.389C187.764 203.65 190.511 208.268 193.668 212.243L192.148 224.227L201.852 232.352L207.581 223.701C210.562 225.045 213.719 225.98 216.876 226.273C217.46 226.273 217.928 226.331 218.512 226.331L226.229 241.179L234.588 238.958V221.245V220.719C234.939 220.427 235.289 220.076 235.64 219.784C235.757 219.667 235.991 219.433 236.166 219.258C236.283 219.141 236.517 218.907 236.692 218.732C236.809 218.615 237.043 218.381 237.219 218.206C237.277 218.089 237.511 217.855 237.745 217.621C237.978 217.387 238.095 217.212 238.329 216.978C238.388 216.92 238.446 216.861 238.563 216.744C238.68 216.627 238.797 216.51 238.797 216.51" stroke="#232323" stroke-width="1.04215" stroke-miterlimit="10" stroke-linejoin="round"/>
<path d="M224.008 134.266L216.584 120.938L202.613 125.906" stroke="#232323" stroke-width="1.04215" stroke-miterlimit="10"/>
<path d="M234.592 221.133C234.592 221.133 234.592 220.724 234.592 220.607C234.942 220.315 235.293 219.964 235.644 219.672C235.761 219.555 235.995 219.321 236.17 219.146C236.287 219.029 236.521 218.795 236.696 218.62C236.813 218.503 237.047 218.269 237.222 218.093C237.281 217.977 237.514 217.743 237.748 217.509C237.982 217.275 238.157 217.1 238.333 216.866C238.391 216.807 238.45 216.749 238.567 216.632C238.684 216.515 238.801 216.398 238.801 216.398L244.412 219.029L246.283 219.906L248.504 220.958L252.947 223.121L257.039 212.715L255.227 210.494L246.4 199.621" stroke="#232323" stroke-width="1.04215" stroke-miterlimit="10" stroke-linejoin="round"/>
<path d="M260.659 195.297L246.279 199.798L255.047 210.671L256.859 212.892L252.767 223.298L266.622 218.563L270.188 208.508L260.659 195.297Z" stroke="#232323" stroke-width="1.04215" stroke-miterlimit="10" stroke-linejoin="round"/>
<path d="M234.468 152.564L235.754 139.879L235.871 139.821L249.784 134.91L248.322 149.875V149.992L248.381 150.05C251.362 153.441 253.876 157.358 255.922 161.976L267.321 163.437L270.828 175.772L261.3 183.663C261.417 187.697 261.241 191.613 260.657 195.296L246.276 199.797C246.978 196.29 247.328 192.549 247.328 188.749L257.441 180.448L254.051 168.406L243.412 167.061L242.944 167.003C242.827 166.652 242.184 165.132 241.95 164.782C241.892 164.548 239.788 160.456 239.203 159.462C239.086 159.17 237.274 156.364 237.098 156.247C236.748 155.662 236.339 155.195 235.929 154.669L234.468 152.564Z" stroke="#232323" stroke-width="1.04215" stroke-miterlimit="10" stroke-linecap="round" stroke-linejoin="round"/>
<path d="M270.828 175.773L257.5 180.45" stroke="#232323" stroke-width="1.04215" stroke-miterlimit="10"/>
<path d="M267.328 163.438L254.058 168.406" stroke="#232323" stroke-width="1.04215" stroke-miterlimit="10"/>
<path d="M270.133 208.68L256.863 212.889" stroke="#232323" stroke-width="1.04215" stroke-miterlimit="10" stroke-linejoin="round"/>
<path d="M234.592 239.079L248.68 235.221L248.329 221.25" stroke="#232323" stroke-width="1.04215" stroke-miterlimit="10" stroke-linejoin="round"/>
<path d="M201.793 232.415L216.875 226.336" stroke="#232323" stroke-width="1.04215" stroke-miterlimit="10" stroke-linejoin="round"/>
<path d="M231.26 184.422C231.552 189.274 230.617 193.775 228.688 197.341H228.746" stroke="#232323" stroke-width="1.04215" stroke-miterlimit="10" stroke-linecap="round"/>
<path d="M194.484 140.112L189.749 137.773L175.544 142.742" stroke="#232323" stroke-width="1.04215" stroke-miterlimit="10"/>
<path d="M200.924 217.212L200.514 107.722C200.514 107.547 200.397 107.371 200.222 107.255L95.4672 46.6932C95.2919 46.5762 95.1165 46.5762 94.9411 46.6932C94.7658 46.8101 94.6488 46.9854 94.6488 47.1608V51.7204L83.8776 143L81.3776 134.5L71.8776 141L68.3776 143L67.8776 149V237L184.878 305.467L189.877 306.5L203.878 299L215.713 291.5L216.378 285.5C216.378 285.5 217.377 241.5 215.421 229.839C211.972 221.713 200.924 217.212 200.924 217.212Z" fill="white"/>
<path d="M200.516 224.697V107.198L94.6502 46.6953L93.3056 51.7811L88.9798 49.5597L89.2721 57.0422L82.1988 53.8855L82.0235 144.844C82.0235 144.844 105.348 154.548 108.738 161.739C112.129 168.929 112.363 191.025 112.363 191.025L186.311 233.757L200.516 224.697Z" fill="#EFEFEF"/>
<path d="M191.57 306.189C195.253 304.026 213.725 293.328 213.901 293.211C215.128 292.451 216.005 291.107 216.356 289.353C216.473 288.768 216.531 288.125 216.531 287.482V235.28C216.531 229.435 213.375 223.94 208.289 221.017L200.514 216.516" stroke="#232323" stroke-width="1.04215" stroke-miterlimit="10"/>
<path d="M82.3125 134.32L70.5627 141.277" stroke="#232323" stroke-width="1.04215" stroke-miterlimit="10"/>
<path d="M141.594 72.8847L95.4128 46.2283C95.2374 46.1114 95.062 46.1114 94.8867 46.2283C94.7113 46.3452 94.5944 46.5206 94.5944 46.696V51.2556" stroke="#232323" stroke-width="1.04215" stroke-miterlimit="10" stroke-linecap="round" stroke-linejoin="round"/>
<path d="M200.516 223.588V107.2C200.516 107.025 200.399 106.849 200.223 106.733L152.639 79.2578" stroke="#232323" stroke-width="1.04215" stroke-miterlimit="10" stroke-linecap="round" stroke-linejoin="round"/>
<path d="M194.547 224.697V110.531C194.547 110.356 194.43 110.18 194.255 110.063L89.4998 49.5603C89.3244 49.4434 89.1491 49.4434 88.9737 49.5603C88.7983 49.6773 88.6814 49.8526 88.6814 50.028V54.5876" stroke="#232323" stroke-width="1.04215" stroke-miterlimit="10" stroke-linecap="round" stroke-linejoin="round"/>
<path d="M187.766 113.921L82.9524 53.418L82.0171 144.845C82.0171 144.845 109.433 157.822 111.012 165.538C112.59 173.196 112.356 191.084 112.356 191.084L186.304 233.816L187.766 113.921Z" fill="white"/>
<path d="M82.1953 95.7383V141.744" stroke="#232323" stroke-width="1.04215" stroke-miterlimit="10" stroke-linecap="round"/>
<path d="M188.062 230.891V114.386C188.062 114.211 187.946 114.036 187.77 113.919L82.957 53.4158C82.7816 53.2989 82.6062 53.2989 82.4309 53.4158C82.2555 53.5327 82.1386 53.7081 82.1386 53.8835V79.4876" stroke="#232323" stroke-width="1.04215" stroke-miterlimit="10" stroke-linecap="round"/>
<path d="M159.537 130.521C158.543 129.118 157.9 127.364 157.9 125.786C157.9 123.213 159.713 122.161 161.934 123.447C164.155 124.733 165.967 127.89 165.967 130.462C165.967 132.099 165.266 133.093 164.155 133.268C165.909 135.256 167.078 138.003 167.078 140.4V145.427L156.381 139.289V134.262C156.381 131.807 157.667 130.404 159.537 130.521Z" fill="#EFEFEF" stroke="#6AB76A" stroke-width="1.04215" stroke-miterlimit="10" stroke-linecap="round" stroke-linejoin="round"/>
<path d="M173.977 210.431L151.938 197.688" stroke="#232323" stroke-width="1.04215" stroke-miterlimit="10" stroke-linecap="round"/>
<path d="M173.977 196.164L121.248 166" stroke="#232323" stroke-width="1.04215" stroke-miterlimit="10" stroke-linecap="round"/>
<path d="M173.977 182.372L101.841 141.16" stroke="#232323" stroke-width="1.04215" stroke-miterlimit="10" stroke-linecap="round"/>
<path d="M146.969 194.647L134.693 187.516" stroke="#232323" stroke-width="1.04215" stroke-miterlimit="10" stroke-linecap="round"/>
<path d="M173.745 157.41C173.92 157.41 174.095 157.351 174.271 157.293C174.622 157.118 174.797 156.767 174.797 156.358V124.206C174.797 123.856 174.622 123.505 174.271 123.271L150.245 109.417C149.894 109.241 149.485 109.241 149.193 109.417C148.842 109.592 148.667 109.943 148.667 110.352V142.503C148.667 142.854 148.842 143.205 149.193 143.439L173.219 157.234C173.335 157.351 173.569 157.41 173.745 157.41Z" stroke="#232323" stroke-width="1.04215" stroke-miterlimit="10"/>
<path d="M189.465 306.712C190.108 306.712 190.693 306.595 191.336 306.303C194.259 305.017 194.61 301.392 194.61 298.82L194.727 253.458C194.727 248.898 194.727 243.169 191.687 238.727C189.465 235.511 186.016 233.524 182.977 231.77L112.361 191.084C111.893 187.752 112.127 184.245 112.361 180.796C112.77 175.009 113.179 168.987 110.139 163.785C107.392 159.108 102.365 156.244 98.2727 153.964L76.0006 141.454C74.8314 140.811 73.7792 140.344 72.1424 140.636C70.7395 140.928 69.3949 141.922 68.635 143.325C67.6997 145.079 67.6997 147.125 67.6997 148.703L67.5828 222.242C67.5828 226.451 67.5828 231.653 69.9795 235.921C72.4932 240.363 77.1697 243.052 80.9694 245.215L184.672 305.017C186.192 305.894 187.829 306.712 189.465 306.712Z" stroke="#232323" stroke-width="1.04215" stroke-miterlimit="10"/>
<path d="M188.413 231.015L202.559 222.772C202.735 222.655 202.852 222.48 202.852 222.305C202.852 222.129 202.735 221.954 202.559 221.837L200.221 220.609" stroke="#232323" stroke-width="1.04215" stroke-miterlimit="10" stroke-linecap="round"/>
<path d="M87.7471 247.496L88.1563 256.849L88.2148 258.369V258.428C88.2732 259.831 87.6887 261.233 86.3441 262.052L64.2474 276.082C60.6816 278.361 56.1804 278.595 52.4391 276.666L28.1211 264.449C26.6012 263.689 25.6659 261.818 25.7243 260.357L25.4321 250.185L87.7471 247.496Z" fill="#EFEFEF"/>
<path d="M87.7471 247.496L88.1563 256.849L88.2148 258.369V258.428C88.2732 259.831 87.6887 261.233 86.3441 262.052L64.2474 276.082C60.6816 278.361 56.1804 278.595 52.4391 276.666L28.1211 264.449C26.6012 263.689 25.6659 261.818 25.7243 260.357L25.4321 250.185" stroke="#232323" stroke-width="1.04215" stroke-miterlimit="10"/>
<path d="M85.8769 251.121L63.7802 265.151C60.2143 267.431 55.7132 267.665 51.9719 265.736L27.6539 253.518C24.8479 252.115 24.6725 248.14 27.3616 246.503L50.5105 232.298C54.1348 230.077 58.636 229.902 62.4357 231.889L85.6431 244.165C88.3321 245.627 88.5075 249.485 85.8769 251.121Z" fill="white" stroke="#232323" stroke-width="1.04215" stroke-miterlimit="10"/>
<path d="M87.7471 229.781L88.1563 239.134L88.2148 240.654V240.713C88.2732 242.116 87.6887 243.519 86.3441 244.337L64.2474 258.367C60.6816 260.647 56.1804 260.88 52.4391 258.951L28.1211 246.734C26.6012 245.974 25.6659 244.103 25.7243 242.642L25.4321 232.47L87.7471 229.781Z" fill="#EFEFEF"/>
<path d="M87.7471 229.781L88.1563 239.134L88.2148 240.654V240.713C88.2732 242.116 87.6887 243.519 86.3441 244.337L64.2474 258.367C60.6816 260.647 56.1804 260.88 52.4391 258.951L28.1211 246.734C26.6012 245.974 25.6659 244.103 25.7243 242.642L25.4321 232.47" stroke="#232323" stroke-width="1.04215" stroke-miterlimit="10"/>
<path d="M85.8769 233.407L63.7802 247.436C60.2143 249.716 55.7132 249.95 51.9719 248.021L27.6539 235.803C24.8479 234.4 24.6725 230.425 27.3616 228.789L50.5105 214.584C54.1348 212.362 58.636 212.187 62.4357 214.174L85.6431 226.45C88.3321 227.912 88.5075 231.77 85.8769 233.407Z" fill="white" stroke="#232323" stroke-width="1.04215" stroke-miterlimit="10"/>
<path d="M178.118 266.438L183.145 271.757C183.145 271.757 184.431 273.043 184.606 273.335V273.394C185.717 274.914 185.951 277.018 184.957 278.772L165.608 313.028C164.146 315.6 160.931 316.594 158.301 315.249L128.721 300.518C128.195 300.284 127.728 299.933 127.377 299.524L127.319 299.466L126.734 298.881L120.596 292.334L178.118 266.438Z" fill="#EFEFEF"/>
<path d="M182.852 270.175L155.669 257.782C153.097 256.613 150.057 257.548 148.596 260.003L129.071 292.914C128.545 293.733 128.37 294.668 128.37 295.603" stroke="#232323" stroke-width="1.04215" stroke-miterlimit="10"/>
<path d="M150.463 252.348L179.925 265.735C182.555 266.962 183.608 270.119 182.205 272.691L162.855 306.947C161.394 309.519 158.179 310.513 155.548 309.168L125.969 294.437C123.397 293.151 122.462 289.936 123.923 287.481L143.389 254.569C144.851 252.114 147.89 251.179 150.463 252.348Z" fill="white" stroke="#232323" stroke-width="1.04215" stroke-miterlimit="10"/>
<path d="M123.284 290.872L124.22 296.659C124.454 297.945 125.272 299.114 126.441 299.699L158.3 315.249C160.931 316.535 164.146 315.599 165.607 313.027L184.956 278.771C185.95 277.018 186.71 274.563 185.599 273.043L182.267 267.898" stroke="#232323" stroke-width="1.04215" stroke-miterlimit="10"/>
<path d="M170.044 275.904C170.044 275.904 170.745 272.806 166.887 270.409C163.029 268.012 158.236 271.11 153.851 267.72C149.467 264.329 150.753 261.523 150.753 261.523" stroke="#6AB76A" stroke-width="1.04215" stroke-miterlimit="10" stroke-linecap="round" stroke-linejoin="round"/>
<path d="M151.403 290.753L159.762 286.895L159.938 268.832L145.44 279.647L145.031 287.304" stroke="#232323" stroke-width="1.04215" stroke-miterlimit="10" stroke-linecap="round" stroke-linejoin="round"/>
<path d="M155.898 293.207L141.109 285.023" stroke="#232323" stroke-width="1.04215" stroke-miterlimit="10" stroke-linecap="round" stroke-linejoin="round"/>
<path d="M147.07 288.996L144.79 293.673L139.939 290.984L142.394 285.723" stroke="#232323" stroke-width="1.04215" stroke-miterlimit="10" stroke-linecap="round" stroke-linejoin="round"/>
<path d="M152.508 291.336L149.877 296.422" stroke="#232323" stroke-width="1.04215" stroke-miterlimit="10" stroke-linecap="round" stroke-linejoin="round"/>
<path d="M159.938 268.832L153.8 281.05" stroke="#232323" stroke-width="1.04215" stroke-miterlimit="10" stroke-linecap="round" stroke-linejoin="round"/>
<path d="M153.653 282.501C152.882 282.423 152.323 281.709 152.405 280.906C152.486 280.103 153.177 279.515 153.948 279.593C154.719 279.671 155.278 280.385 155.196 281.188C155.115 281.991 154.424 282.579 153.653 282.501Z" stroke="#232323" stroke-width="1.04215" stroke-miterlimit="10" stroke-linecap="round" stroke-linejoin="round"/>
<path d="M168.091 274.021C166.967 273.907 166.148 272.904 166.262 271.779C166.376 270.655 167.379 269.836 168.504 269.95C169.628 270.064 170.447 271.068 170.333 272.192C170.219 273.316 169.215 274.135 168.091 274.021Z" fill="white" stroke="#6AB76A" stroke-width="1.04215" stroke-miterlimit="10" stroke-linecap="round" stroke-linejoin="round"/>
<path d="M87.8644 211.371L88.1566 220.724L88.2151 222.244V222.303C88.2736 223.705 87.6305 225.108 86.286 225.927L64.0139 239.664C60.4481 241.886 55.9469 242.061 52.1472 240.073L28.0045 227.505C26.4846 226.687 25.5493 224.875 25.6662 223.355L25.4908 213.183L87.8644 211.371Z" fill="#EFEFEF"/>
<path d="M87.8644 211.371L88.1566 220.724L88.2151 222.244V222.303C88.2736 223.705 87.6305 225.108 86.286 225.927L64.0139 239.664C60.4481 241.886 55.9469 242.061 52.1472 240.073L28.0045 227.505C26.4846 226.687 25.5493 224.875 25.6662 223.355L25.4908 213.183" stroke="#232323" stroke-width="1.04215" stroke-miterlimit="10"/>
<path d="M85.9351 214.993L63.663 228.73C60.0387 230.951 55.5959 231.127 51.7962 229.139L27.6535 216.571C24.8476 215.109 24.7307 211.134 27.4782 209.556L50.8025 195.643C54.4268 193.48 58.9865 193.363 62.7277 195.409L85.7597 207.978C88.4487 209.498 88.5657 213.356 85.9351 214.993Z" fill="white" stroke="#232323" stroke-width="1.04215" stroke-miterlimit="10"/>
<path d="M58.171 200.027L36.3666 211.309C35.5482 211.718 35.5482 212.537 36.3666 212.946L55.482 223.41C56.1835 223.819 57.2357 223.76 57.8787 223.41L78.1048 211.484C78.7478 211.075 78.6894 210.374 77.9294 209.964L60.3924 200.144C59.8078 199.734 58.814 199.734 58.171 200.027Z" fill="white" stroke="#222323" stroke-width="1.04215" stroke-miterlimit="10" stroke-linecap="round" stroke-linejoin="round"/>
<path d="M57.9369 202.718L55.3648 204.121C54.8387 204.414 54.8387 204.94 55.4233 205.232L69.1022 212.89C69.5698 213.182 70.2713 213.182 70.739 212.89L73.3111 211.487C73.7787 211.195 73.7787 210.668 73.1942 210.376L59.5737 202.718C59.1061 202.485 58.4046 202.485 57.9369 202.718Z" fill="white" stroke="#6AB76A" stroke-width="1.04215" stroke-miterlimit="10" stroke-linecap="round" stroke-linejoin="round"/>
<path d="M61.7963 213.354L60.101 214.348C59.7503 214.582 59.7503 214.933 60.1595 215.108L62.5562 216.394C62.907 216.569 63.3746 216.569 63.6669 216.394L65.4206 215.459C65.7713 215.225 65.7129 214.874 65.3621 214.699L62.9069 213.354C62.5562 213.179 62.0886 213.179 61.7963 213.354Z" fill="white" stroke="#222323" stroke-width="1.04215" stroke-miterlimit="10" stroke-linecap="round" stroke-linejoin="round"/>
<path d="M56.2992 210.199L54.5455 211.193C54.1947 211.368 54.1947 211.778 54.6039 211.953L57.0007 213.297C57.3514 213.473 57.8191 213.473 58.1114 213.297L59.9235 212.362C60.2743 212.187 60.2743 211.778 59.8651 211.602L57.4099 210.258C57.1176 210.024 56.6499 210.024 56.2992 210.199Z" fill="white" stroke="#222323" stroke-width="1.04215" stroke-miterlimit="10" stroke-linecap="round" stroke-linejoin="round"/>
<path d="M50.807 207.159L49.0533 208.153C48.7026 208.328 48.7026 208.737 49.0533 208.913L51.45 210.257C51.8008 210.432 52.2684 210.432 52.5607 210.257L54.4313 209.322C54.7821 209.146 54.7821 208.796 54.3729 208.562L51.8592 207.159C51.6254 206.984 51.1577 206.984 50.807 207.159Z" fill="white" stroke="#222323" stroke-width="1.04215" stroke-miterlimit="10" stroke-linecap="round" stroke-linejoin="round"/>
<path d="M56.7133 216.686L54.9596 217.738C54.6088 217.972 54.6088 218.323 55.018 218.498L57.4147 219.843C57.7655 220.018 58.2331 220.018 58.5254 219.843L60.3376 218.849C60.6883 218.615 60.6883 218.265 60.2791 218.089L57.7655 216.686C57.5317 216.511 57.064 216.511 56.7133 216.686Z" fill="white" stroke="#222323" stroke-width="1.04215" stroke-miterlimit="10" stroke-linecap="round" stroke-linejoin="round"/>
<path d="M51.1548 213.531L49.4011 214.524C49.0504 214.758 49.0504 215.109 49.4011 215.284L51.8563 216.629C52.207 216.804 52.6747 216.804 52.967 216.629L54.8376 215.635C55.1883 215.401 55.1883 215.05 54.7791 214.875L52.2655 213.472C51.9732 213.355 51.5055 213.355 51.1548 213.531Z" fill="white" stroke="#222323" stroke-width="1.04215" stroke-miterlimit="10" stroke-linecap="round" stroke-linejoin="round"/>
<path d="M45.601 210.428L43.7889 211.422C43.4381 211.656 43.4381 212.007 43.7889 212.182L46.2441 213.527C46.5948 213.702 47.0624 213.702 47.4132 213.527L49.2838 212.591C49.6346 212.357 49.6346 212.007 49.2838 211.831L46.7702 210.428C46.4194 210.253 45.8933 210.253 45.601 210.428Z" fill="white" stroke="#6AB76A" stroke-width="1.04215" stroke-miterlimit="10" stroke-linecap="round" stroke-linejoin="round"/>
<path d="M80.8486 283.506L75.7628 282.161C75.0029 281.986 74.3014 281.635 73.6 281.168C73.0738 280.758 72.4893 280.291 72.3139 279.706L60.3887 244.866C59.3949 241.943 60.7979 238.611 63.5454 237.383L93.826 223.997C94.5275 223.704 95.2875 223.646 95.9305 223.821C96.0474 223.88 96.2228 223.88 96.3397 223.938L102.945 226.276L80.8486 283.506Z" fill="#EFEFEF"/>
<path d="M102.008 226.858L72.2531 240.127C69.5641 241.355 68.1612 244.629 69.0965 247.493L80.671 281.924C81.314 283.853 83.3015 284.672 85.1721 283.736L114.05 269.473C116.505 268.245 117.791 265.089 116.973 262.458L106.334 228.962C105.691 227.033 103.761 226.098 102.008 226.858Z" fill="white" stroke="#232323" stroke-width="1.04215" stroke-miterlimit="10"/>
<path d="M82.6571 284.031L74.9407 281.985C74.1808 281.81 73.4793 281.459 72.7779 280.992C72.2517 280.582 71.6672 280.115 71.4918 279.53L59.5081 244.631C58.5144 241.709 59.9173 238.377 62.6648 237.149L92.9455 223.762C93.647 223.47 94.4069 223.412 95.0499 223.587C95.1668 223.645 95.3422 223.645 95.4591 223.704L104.695 226.919" stroke="#232323" stroke-width="1.04215" stroke-miterlimit="10"/>
<path d="M98.2637 238.088L80.7266 245.921C79.1483 246.623 78.3299 248.61 78.856 250.247L85.637 270.532C85.9878 271.642 87.2154 272.168 88.2676 271.584L105.279 263.166C106.74 262.465 107.5 260.594 106.974 259.016L100.719 239.316C100.427 238.205 99.3159 237.62 98.2637 238.088Z" fill="white" stroke="#232323" stroke-width="1.04215" stroke-miterlimit="10"/>
<path d="M102.414 244.398L80.3174 254.453" stroke="#232323" stroke-width="1.04215" stroke-miterlimit="10"/>
<path d="M93.2945 254.633L95.6328 261.414" stroke="#232323" stroke-width="1.04215" stroke-miterlimit="10" stroke-linecap="round"/>
<path d="M97.3307 253.52L101.773 254.981L99.9028 258.605" fill="white"/>
<path d="M97.3307 253.52L101.773 254.981L99.9028 258.605" stroke="#232323" stroke-width="1.04215" stroke-miterlimit="10" stroke-linecap="round" stroke-linejoin="round"/>
<path d="M88.8535 257.203L87.1583 261.412L91.3672 262.347" fill="white"/>
<path d="M88.8535 257.203L87.1583 261.412L91.3672 262.347" stroke="#232323" stroke-width="1.04215" stroke-miterlimit="10" stroke-linecap="round" stroke-linejoin="round"/>
<path d="M86.9219 247.32L83.1222 249.132" stroke="#232323" stroke-width="1.04215" stroke-miterlimit="10" stroke-linecap="round" stroke-linejoin="round"/>
</g>
<defs>
<clipPath id="clip0_16161_125233">
<rect width="247.682" height="272" fill="white" transform="matrix(-1 0 0 1 272 45)"/>
</clipPath>
</defs>
</svg>
