<svg width="25" height="18" viewBox="0 0 25 18" fill="none" xmlns="http://www.w3.org/2000/svg">
<path fill-rule="evenodd" clip-rule="evenodd" d="M18.457 16.3976H24.2539V1.35938H18.457V16.3976Z" fill="black"/>
<path fill-rule="evenodd" clip-rule="evenodd" d="M9.22852 15.045H15.0257V1.35938H9.22852V15.045Z" fill="black"/>
<path fill-rule="evenodd" clip-rule="evenodd" d="M0.328125 11.0718C5.33845 10.8999 9.38293 6.78675 9.55227 1.69141H14.6971C14.6326 4.70467 13.6896 7.58478 11.9604 10.0412L11.3641 10.8881L12.3326 10.5488C16.0896 9.2337 18.647 5.70066 18.7813 1.69141H23.9262C23.754 9.67036 17.4032 16.1287 9.55717 16.3039V12.7283L9.02922 13.1475C6.51123 15.1464 3.50892 16.2341 0.328125 16.3039V11.0718Z" fill="white"/>
<path fill-rule="evenodd" clip-rule="evenodd" d="M24.2554 1.36133H18.4587C18.4587 5.47032 15.8476 8.96878 12.2248 10.2369C13.9877 7.73326 15.0264 4.66847 15.0264 1.36133H9.22954C9.22954 6.53663 5.08911 10.7472 0 10.7472V16.6422C3.47632 16.6422 6.68049 15.4351 9.22905 13.412V16.6422C17.5148 16.6422 24.2554 9.78725 24.2554 1.36133ZM23.5869 2.02621C23.2538 9.5577 17.2889 15.6236 9.88286 15.9624V13.412V12.0495L8.82679 12.8878C6.45313 14.7721 3.63977 15.8282 0.653812 15.9627V11.3903C5.58421 11.0615 9.53863 7.04011 9.86194 2.02621H14.3579C14.2337 4.84882 13.3188 7.54094 11.6933 9.84975L10.5007 11.5437L12.4376 10.8655C16.2224 9.54075 18.83 6.03929 19.091 2.02621H23.5869Z" fill="black"/>
</svg>
