<svg width="80" height="80" viewBox="0 0 80 80" fill="none" xmlns="http://www.w3.org/2000/svg">
<path d="M57.2778 13.3704V65.1481C57.2778 66.5289 56.1585 67.6481 54.7778 67.6481H16.3334C14.9527 67.6481 13.8334 66.5289 13.8334 65.1481V27.3592C13.8334 26.6038 14.1749 25.8889 14.7625 25.4143L32.082 11.4255C32.5268 11.0663 33.0812 10.8704 33.6529 10.8704H54.7778C56.1585 10.8704 57.2778 11.9896 57.2778 13.3704Z" stroke="black"/>
<path d="M22.2223 36.2963H48.889" stroke="black"/>
<path d="M22.2223 42.2222H48.889" stroke="black"/>
<path d="M22.2223 48.1482H37.0371" stroke="black"/>
<path d="M14.0741 27.4074H29.3334C31.5425 27.4074 33.3334 25.6165 33.3334 23.4074V11.8518" stroke="black"/>
<ellipse cx="53.6925" cy="34.4332" rx="13.8723" ry="13.8723" transform="rotate(-45 53.6925 34.4332)" fill="url(#paint0_linear)" stroke="black"/>
<ellipse cx="53.6922" cy="34.4329" rx="11.0949" ry="11.0949" transform="rotate(-45 53.6922 34.4329)" fill="#16FF00"/>
<rect x="64.5494" y="47.9673" width="3.78498" height="12.8764" rx="1.5" transform="rotate(-45 64.5494 47.9673)" fill="url(#paint1_linear)" stroke="#010101"/>
<rect x="62.7449" y="44.3289" width="1.19324" height="3.34949" transform="rotate(-45 62.7449 44.3289)" fill="black"/>
<defs>
<linearGradient id="paint0_linear" x1="39.8202" y1="48.3055" x2="58.0468" y2="15.3042" gradientUnits="userSpaceOnUse">
<stop stop-color="#EEEEEE"/>
<stop offset="1" stop-color="#FEFFFF"/>
</linearGradient>
<linearGradient id="paint1_linear" x1="63.8423" y1="61.8437" x2="73.5189" y2="55.8021" gradientUnits="userSpaceOnUse">
<stop stop-color="#EEEEEE"/>
<stop offset="1" stop-color="#FEFFFF"/>
</linearGradient>
</defs>
</svg>
