<svg width="357" height="318" viewBox="0 0 357 318" fill="none" xmlns="http://www.w3.org/2000/svg">
<g clip-path="url(#clip0_1995_87732)">
<path d="M52.6965 147.25C52.6965 147.25 23.8187 190.813 44.3479 256.517C64.877 322.222 124.581 338.984 160.002 320.738C195.423 302.492 200.596 278.745 229.217 261.512C257.838 244.28 316.821 244.865 339.584 197.456C362.346 150.047 315.18 83.6001 261.806 45.3318C208.431 7.06355 92.4562 52.3461 52.6965 147.25Z" fill="#92E3A9"/>
<path opacity="0.7" d="M52.6965 147.25C52.6965 147.25 23.8187 190.813 44.3479 256.517C64.877 322.222 124.581 338.984 160.002 320.738C195.423 302.492 200.596 278.745 229.217 261.512C257.838 244.28 316.821 244.865 339.584 197.456C362.346 150.047 315.18 83.6001 261.806 45.3318C208.431 7.06355 92.4562 52.3461 52.6965 147.25Z" fill="white"/>
<path d="M26.5497 134.723C25.4223 134.616 24.8157 134.616 24.8086 134.616V133.902C24.8086 133.902 25.4579 133.902 26.621 134.017L26.5497 134.723Z" fill="#263238"/>
<path d="M114.337 161.979C113.152 161.979 111.963 161.958 110.769 161.915V161.201C111.975 161.201 113.174 161.258 114.337 161.265V161.979ZM117.904 161.979V161.265C119.125 161.265 120.323 161.215 121.472 161.166V161.879C120.359 161.929 119.16 161.979 117.926 161.979H117.904ZM107.123 161.786C105.938 161.729 104.739 161.651 103.555 161.558L103.612 160.844C104.811 160.937 106.002 161.016 107.18 161.073L107.123 161.786ZM125.09 161.701L125.047 160.987C126.296 160.909 127.48 160.816 128.615 160.716L128.679 161.43C127.559 161.537 126.367 161.622 125.111 161.701H125.09ZM99.9726 161.265C98.7667 161.137 97.5679 161.001 96.4048 160.852L96.4976 160.138C97.6607 160.288 98.8523 160.423 100.065 160.545L99.9726 161.265ZM92.837 160.338C91.6454 160.145 90.4537 159.938 89.2692 159.717L89.3976 159.003C90.5536 159.225 91.7381 159.432 92.9226 159.617L92.837 160.338ZM85.7728 158.975C84.5882 158.704 83.4109 158.411 82.2763 158.104L82.4618 157.391C83.5893 157.691 84.7524 157.983 85.9297 158.254L85.7728 158.975ZM78.8227 157.091C77.6596 156.72 76.5107 156.32 75.419 155.914L75.6687 155.243C76.7534 155.65 77.8879 156.042 79.0439 156.406L78.8227 157.091ZM72.0653 154.537C70.9521 154.044 69.8532 153.523 68.8114 152.981L69.1397 152.346C70.1672 152.881 71.2803 153.395 72.3578 153.88L72.0653 154.537ZM65.6432 151.204C65.0724 150.847 64.5015 150.491 63.9521 150.105L62.6391 149.228L63.0316 148.628L64.3517 149.513C64.894 149.884 65.4505 150.227 66.0214 150.598L65.6432 151.204ZM59.6279 147.294C58.6146 146.666 57.58 146.052 56.5596 145.46L56.9164 144.846C57.9439 145.439 58.9857 146.059 60.0061 146.687L59.6279 147.294ZM53.4342 143.726C52.3781 143.162 51.2935 142.613 50.2517 142.099L50.5657 141.457C51.6289 141.978 52.7063 142.527 53.7696 143.098L53.4342 143.726ZM47.0121 140.594C45.9204 140.108 44.8144 139.645 43.7155 139.216L43.9795 138.553C45.0855 138.988 46.1987 139.452 47.3047 139.944L47.0121 140.594ZM40.3689 137.968C39.2343 137.575 38.0926 137.204 36.9723 136.876L37.1793 136.162C38.3067 136.498 39.4627 136.876 40.6043 137.268L40.3689 137.968ZM33.533 135.955C32.3484 135.663 31.1711 135.42 30.0508 135.242L30.1721 134.528C31.3138 134.735 32.4983 134.985 33.7399 135.242L33.533 135.955Z" fill="#263238"/>
<path d="M132.282 161.066L132.203 160.352C132.817 160.281 133.402 160.203 133.958 160.124L134.058 160.838C133.495 160.916 132.902 160.995 132.282 161.066Z" fill="#263238"/>
<path d="M133.586 164.107L139.038 159.533L132.352 157.1L133.586 164.107Z" fill="#263238"/>
<path d="M25.4326 55.4805L24.084 54.3174L24.5549 53.7822L25.8964 54.9453L25.4326 55.4805Z" fill="#263238"/>
<path d="M133.303 129.285C132.268 128.892 131.162 128.457 129.899 127.958L130.17 127.294C131.398 127.794 132.525 128.229 133.553 128.614L133.303 129.285ZM126.531 126.559C125.475 126.117 124.36 125.641 123.185 125.132L123.47 124.476C124.645 124.994 125.758 125.47 126.809 125.903L126.531 126.559ZM119.874 123.612L116.563 122.078L116.87 121.429C118.018 121.971 119.117 122.478 120.173 122.963L119.874 123.612ZM113.273 120.508L110.219 119.024L109.998 118.917L110.312 118.275L110.533 118.382L113.587 119.866L113.273 120.508ZM106.751 117.211C105.752 116.662 104.682 116.048 103.576 115.392L103.94 114.778C105.039 115.428 106.08 116.034 107.101 116.584L106.751 117.211ZM100.458 113.494C99.4515 112.866 98.4168 112.209 97.375 111.532L97.7604 110.932C98.8022 111.608 99.8273 112.259 100.836 112.887L100.458 113.494ZM94.321 109.519C93.3315 108.858 92.3254 108.175 91.3026 107.471L91.7094 106.879C92.7226 107.578 93.7264 108.261 94.7206 108.927L94.321 109.519ZM88.3057 105.388C87.321 104.698 86.3291 103.984 85.3301 103.247L85.744 102.669L88.7124 104.81L88.3057 105.388ZM82.3689 101.106L79.429 98.9657L79.8571 98.3948L82.7899 100.536L82.3689 101.106ZM76.5034 96.7608C75.5329 96.0472 74.5625 95.3337 73.5921 94.563L74.0202 93.9993C74.9906 94.7129 75.9611 95.4692 76.9315 96.1899L76.5034 96.7608ZM70.6379 92.3795L67.7837 90.1461L68.2189 89.5824C69.1823 90.2959 70.1456 91.0737 71.1089 91.8087L70.6379 92.3795ZM64.9294 87.9126L62.0752 85.6578L62.5176 85.0941L65.3718 87.3489L64.9294 87.9126ZM59.2209 83.3887L56.3667 81.1195L56.8091 80.563L59.6634 82.8321L59.2209 83.3887ZM53.5125 78.829L50.6582 76.5385L51.1078 75.9819L53.962 78.2724L53.5125 78.829ZM47.804 74.2123L44.9497 71.8932L45.3993 71.3437L48.2535 73.6557L47.804 74.2123ZM42.1668 69.5741L39.3625 67.2408L39.8192 66.6913L42.6235 69.0247L42.1668 69.5741ZM36.5654 64.936L33.7682 62.5883L34.232 62.046L37.0221 64.3937L36.5654 64.936ZM30.9782 60.2336C29.9507 59.3631 29.0159 58.571 28.1953 57.8646L28.6591 57.3223L31.442 59.6913L30.9782 60.2336Z" fill="#263238"/>
<path d="M138.315 131.01C137.801 130.853 137.23 130.668 136.609 130.461L136.838 129.747C137.451 129.954 138.015 130.132 138.529 130.297L138.315 131.01Z" fill="#263238"/>
<path d="M136.582 133.815L143.411 131.824L138.273 126.9L136.582 133.815Z" fill="#263238"/>
<path d="M25.4531 257.668C24.29 257.61 23.6621 257.553 23.6621 257.553L23.7263 256.84C23.7263 256.84 24.3471 256.897 25.4888 256.947L25.4531 257.668Z" fill="#263238"/>
<path d="M29.8948 257.767H29.0742V257.054H29.8948C30.744 257.054 31.6716 257.054 32.6706 257.018V257.732C31.6787 257.76 30.7511 257.767 29.8948 257.767ZM36.3169 257.589V256.875C37.5085 256.811 38.7144 256.725 39.8847 256.633L39.9489 257.346C38.7073 257.446 37.4942 257.532 36.2955 257.596L36.3169 257.589ZM43.5238 257.004L43.4453 256.29C44.637 256.162 45.8358 256.012 47.0131 255.848L47.1059 256.561C45.9071 256.725 44.7012 256.882 43.5238 257.004ZM50.6594 256.026L50.5453 255.313C51.7298 255.12 52.9214 254.906 54.1131 254.678L54.2487 255.391C53.0499 255.612 51.8511 255.826 50.6594 256.026ZM57.7522 254.649L57.5953 253.935C58.7655 253.679 59.9357 253.4 61.0917 253.108L61.263 253.821C60.107 254.107 58.9225 254.385 57.7522 254.649ZM64.7523 252.872L64.5596 252.159C65.7013 251.83 66.8573 251.481 67.999 251.117L68.213 251.83C67.0713 252.187 65.9011 252.544 64.7523 252.872ZM71.6381 250.674L71.4027 250.004C72.5301 249.604 73.6646 249.183 74.7635 248.755L75.0276 249.419C73.9144 249.854 72.7798 250.275 71.6381 250.674ZM78.3741 248.049L78.0887 247.392C79.1947 246.921 80.2936 246.429 81.364 245.929L81.6708 246.579C80.629 247.078 79.4802 247.606 78.3741 248.049ZM84.9175 244.987L84.5893 244.352C85.6525 243.81 86.7299 243.246 87.7575 242.661L88.1071 243.289C87.0511 243.874 85.9807 244.445 84.9104 244.987H84.9175ZM91.2325 241.477L90.8615 240.863C91.6321 240.406 92.3956 239.928 93.152 239.436C93.4017 239.279 93.6444 239.122 93.8656 238.951L94.2723 239.543L93.5159 240.042C92.7595 240.535 92.0032 241.013 91.2325 241.477ZM97.1836 237.338L96.7198 236.789C97.5975 236.075 98.4823 235.233 99.3457 234.37L99.8523 234.876C98.9675 235.754 98.0756 236.582 97.1836 237.338ZM102.321 232.215L101.779 231.751C102.535 230.887 103.299 229.953 104.055 228.982L104.619 229.418C103.855 230.402 103.085 231.344 102.321 232.215ZM106.774 226.506L106.189 226.092C106.86 225.15 107.537 224.151 108.208 223.124L108.808 223.509C108.13 224.558 107.445 225.564 106.774 226.513V226.506ZM110.734 220.455L110.128 220.084C110.751 219.061 111.364 218.031 111.969 216.994L112.582 217.351C111.976 218.4 111.362 219.442 110.734 220.491V220.455ZM114.366 214.212L113.738 213.869C114.323 212.813 114.899 211.759 115.465 210.708L116.093 211.043C115.522 212.107 114.951 213.163 114.366 214.219V214.212ZM117.784 207.861L117.156 207.525L118.826 204.336L119.461 204.664L117.784 207.861ZM121.124 201.439L120.496 201.111C121.067 200.021 121.63 198.958 122.187 197.921L122.815 198.263C122.258 199.327 121.694 200.39 121.124 201.474V201.439ZM124.549 195.109L123.928 194.76C124.584 193.597 125.184 192.576 125.762 191.642L126.368 192.013C125.797 192.976 125.198 193.989 124.549 195.145V195.109Z" fill="#263238"/>
<path d="M128.308 189.095L127.73 188.688C128.087 188.174 128.444 187.696 128.801 187.261L129.357 187.703C129.015 188.117 128.665 188.581 128.308 189.095Z" fill="#263238"/>
<path d="M130.984 190.736L132.718 183.836L125.875 185.784L130.984 190.736Z" fill="#263238"/>
<path d="M27.9948 203.836C26.8317 203.729 26.2109 203.636 26.2109 203.636L26.318 202.923C26.318 202.923 26.9316 203.008 28.0662 203.123L27.9948 203.836Z" fill="#263238"/>
<path d="M38.5253 204.201V203.487C39.6599 203.487 40.8373 203.438 42.0147 203.388V204.101C40.8516 204.151 39.6742 204.187 38.5253 204.201ZM35.0146 204.201C33.8158 204.201 32.6313 204.144 31.5039 204.087L31.5396 203.373C32.6599 203.43 33.8301 203.473 35.0289 203.487L35.0146 204.201ZM45.5468 203.894L45.4968 203.181C46.6457 203.102 47.8159 202.995 48.9719 202.881L49.0432 203.595C47.8801 203.709 46.7028 203.809 45.5468 203.894ZM52.5325 203.181L52.4398 202.467C53.5958 202.317 54.7589 202.153 55.9006 201.975L56.0076 202.688C54.8588 202.881 53.6885 203.045 52.5325 203.195V203.181ZM59.4755 202.103L59.3471 201.39C60.4673 201.183 61.609 200.961 62.7722 200.712L62.9149 201.425C61.7518 201.682 60.6029 201.939 59.4755 202.117V202.103ZM66.34 200.676L66.1758 199.962C67.3033 199.691 68.445 199.399 69.5581 199.099L69.7436 199.813C68.6233 200.098 67.4817 200.391 66.3542 200.662L66.34 200.676ZM73.1259 198.849L72.919 198.136C74.025 197.808 75.1453 197.422 76.2513 197.087L76.4725 197.765C75.3665 198.143 74.2391 198.5 73.1259 198.835V198.849ZM79.7906 196.652L79.5551 195.981C80.6397 195.588 81.7386 195.175 82.8161 194.746L83.0801 195.41C81.9955 195.824 80.8895 196.231 79.7906 196.637V196.652ZM86.3339 194.09L86.0556 193.433C87.1188 192.984 88.1963 192.506 89.2524 192.006L89.545 192.656C88.4746 193.134 87.3971 193.612 86.3339 194.09ZM92.756 191.157L92.4349 190.515C93.1817 190.144 93.931 189.766 94.6826 189.38L95.546 188.924L95.8814 189.559L95.0108 190.008C94.1831 190.379 93.4695 190.765 92.7132 191.136L92.756 191.157ZM98.9854 187.939L98.65 187.304L101.754 185.684L102.089 186.319L98.9854 187.939ZM105.193 184.692L104.858 184.064L107.962 182.437L108.29 183.072L105.193 184.692ZM111.394 181.446L111.059 180.811L114.156 179.184L114.491 179.812L111.394 181.446Z" fill="#263238"/>
<path d="M118.796 176.692L117.219 177.525L117.552 178.156L119.129 177.323L118.796 176.692Z" fill="#263238"/>
<path d="M119.686 180.618L123.482 174.603L116.375 174.317L119.686 180.618Z" fill="#263238"/>
<path d="M64.0526 219.213H59.3359V235.732H64.0526V219.213Z" fill="#263238"/>
<path d="M64.4198 236.088H58.9824V218.855H64.4198V236.088ZM59.696 235.374H63.7062V219.569H59.696V235.374Z" fill="#263238"/>
<path d="M72.3182 210.314H67.6016V235.731H72.3182V210.314Z" fill="#24FF30"/>
<path d="M72.3117 236.09H67.5951C67.5004 236.09 67.4097 236.052 67.3428 235.985C67.2759 235.918 67.2383 235.827 67.2383 235.733V210.316C67.2383 210.221 67.2759 210.13 67.3428 210.063C67.4097 209.997 67.5004 209.959 67.5951 209.959H72.3117C72.4063 209.959 72.4971 209.997 72.564 210.063C72.6309 210.13 72.6685 210.221 72.6685 210.316V235.733C72.6685 235.827 72.6309 235.918 72.564 235.985C72.4971 236.052 72.4063 236.09 72.3117 236.09ZM67.9518 235.376H71.9549V210.673H67.9518V235.376Z" fill="#263238"/>
<path d="M80.5682 224.188H75.8516V235.733H80.5682V224.188Z" fill="#263238"/>
<path d="M80.9302 236.089H75.5V223.83H80.9302V236.089ZM76.2136 235.375H80.2166V224.544H76.2136V235.375Z" fill="#263238"/>
<path d="M88.826 211.557H84.1094V235.732H88.826V211.557Z" fill="#24FF30"/>
<path d="M88.8312 236.088H84.1146C84.0205 236.086 83.9308 236.048 83.8643 235.982C83.7978 235.915 83.7596 235.825 83.7578 235.731V211.556C83.7578 211.461 83.7954 211.371 83.8623 211.304C83.9292 211.237 84.02 211.199 84.1146 211.199H88.8312C88.9259 211.199 89.0166 211.237 89.0835 211.304C89.1504 211.371 89.188 211.461 89.188 211.556V235.731C89.188 235.826 89.1504 235.917 89.0835 235.984C89.0166 236.051 88.9259 236.088 88.8312 236.088ZM84.4714 235.375H88.4887V211.927H84.4856L84.4714 235.375Z" fill="#263238"/>
<path d="M57.1254 209.288H53.8145V210.002H57.1254V209.288Z" fill="#263238"/>
<path d="M57.1254 213.014H53.8145V213.727H57.1254V213.014Z" fill="#263238"/>
<path d="M57.1254 216.737H53.8145V217.451H57.1254V216.737Z" fill="#263238"/>
<path d="M57.1254 220.469H53.8145V221.182H57.1254V220.469Z" fill="#263238"/>
<path d="M57.1254 224.193H53.8145V224.907H57.1254V224.193Z" fill="#263238"/>
<path d="M57.1254 227.92H53.8145V228.633H57.1254V227.92Z" fill="#263238"/>
<path d="M57.1254 231.644H53.8145V232.357H57.1254V231.644Z" fill="#263238"/>
<path d="M57.1254 235.375H53.8145V236.089H57.1254V235.375Z" fill="#263238"/>
<path d="M60.7045 215.274L60.1836 214.782L70.8371 203.493L78.2724 214.032L85.622 205.434L86.1643 205.898L78.2224 215.188L70.7514 204.613L60.7045 215.274Z" fill="#263238"/>
<path d="M87.9166 208.767L89.2153 201.774L82.5078 204.151L87.9166 208.767Z" fill="#263238"/>
<path d="M54.1293 160.081H24.7734V197.179H54.1293V160.081Z" fill="#263238"/>
<path d="M54.4816 197.536H24.4121V159.717H54.4816V197.536ZM25.1257 196.822H53.768V160.43H25.1257V196.822Z" fill="#263238"/>
<path d="M55.8911 158.632H26.5352V195.73H55.8911V158.632Z" fill="#24FF30"/>
<path d="M55.8924 196.095H26.5365C26.4418 196.095 26.3511 196.058 26.2842 195.991C26.2173 195.924 26.1797 195.833 26.1797 195.738V158.633C26.1797 158.539 26.2173 158.448 26.2842 158.381C26.3511 158.314 26.4418 158.276 26.5365 158.276H55.8924C55.987 158.276 56.0777 158.314 56.1447 158.381C56.2116 158.448 56.2491 158.539 56.2491 158.633V195.738C56.2491 195.833 56.2116 195.924 56.1447 195.991C56.0777 196.058 55.987 196.095 55.8924 196.095ZM26.8932 195.382H55.5356V158.99H26.8932V195.382Z" fill="#263238"/>
<path d="M50.083 168.922H32.0156V169.635H50.083V168.922Z" fill="#263238"/>
<path d="M50.083 174.73H32.0156V175.444H50.083V174.73Z" fill="#263238"/>
<path d="M50.083 180.538H32.0156V181.252H50.083V180.538Z" fill="#263238"/>
<path d="M50.083 186.346H32.0156V187.059H50.083V186.346Z" fill="#263238"/>
<path d="M53.5744 157.42C51.6984 157.419 49.8643 157.973 48.3038 159.015C46.7434 160.056 45.5268 161.536 44.8079 163.269C44.089 165.002 43.9002 166.909 44.2653 168.749C44.6304 170.589 45.5331 172.279 46.859 173.606C48.185 174.933 49.8747 175.837 51.7145 176.204C53.5543 176.57 55.4614 176.383 57.1946 175.665C58.9279 174.948 60.4094 173.732 61.4517 172.172C62.4941 170.613 63.0504 168.779 63.0504 166.903C63.0504 164.389 62.0523 161.978 60.2754 160.2C58.4985 158.422 56.0882 157.422 53.5744 157.42ZM53.5744 174.353C52.101 174.353 50.6607 173.916 49.4356 173.097C48.2105 172.279 47.2557 171.115 46.6918 169.754C46.128 168.393 45.9805 166.895 46.2679 165.45C46.5554 164.005 47.2649 162.677 48.3067 161.636C49.3485 160.594 50.6759 159.884 52.121 159.597C53.5661 159.309 55.064 159.457 56.4252 160.021C57.7864 160.584 58.9499 161.539 59.7684 162.764C60.587 163.989 61.0239 165.43 61.0239 166.903C61.0239 167.881 60.8312 168.85 60.4569 169.754C60.0825 170.658 59.5338 171.479 58.842 172.171C58.1502 172.863 57.329 173.411 56.4252 173.786C55.5214 174.16 54.5526 174.353 53.5744 174.353Z" fill="#263238"/>
<path d="M53.5776 176.736C51.6308 176.737 49.7274 176.161 48.1081 175.08C46.4888 174 45.2265 172.463 44.4809 170.665C43.7352 168.866 43.5397 166.887 43.9192 164.978C44.2986 163.068 45.236 161.314 46.6125 159.938C47.9891 158.561 49.7431 157.624 51.6525 157.244C53.562 156.865 55.5411 157.06 57.3394 157.806C59.1377 158.552 60.6744 159.814 61.7551 161.433C62.8358 163.053 63.4119 164.956 63.4105 166.903C63.4067 169.509 62.3695 172.008 60.5263 173.852C58.6831 175.695 56.1843 176.732 53.5776 176.736ZM53.5776 157.776C51.7723 157.775 50.0071 158.309 48.5053 159.311C47.0035 160.313 45.8326 161.738 45.1408 163.405C44.4489 165.073 44.2672 166.908 44.6185 168.679C44.9699 170.45 45.8385 172.077 47.1146 173.354C48.3907 174.631 50.0168 175.501 51.7874 175.853C53.5579 176.206 55.3933 176.026 57.0614 175.335C58.7294 174.645 60.1552 173.475 61.1583 171.974C62.1615 170.473 62.6969 168.708 62.6969 166.903C62.6932 164.485 61.7314 162.167 60.0222 160.456C58.313 158.746 55.9957 157.782 53.5776 157.776ZM53.5776 174.709C52.0331 174.712 50.5224 174.257 49.2368 173.401C47.9511 172.544 46.9483 171.326 46.3553 169.9C45.7623 168.474 45.6056 166.904 45.9052 165.389C46.2048 163.873 46.9472 162.481 48.0384 161.388C49.1295 160.295 50.5205 159.55 52.0351 159.248C53.5498 158.945 55.1201 159.099 56.5474 159.689C57.9747 160.28 59.1947 161.28 60.0531 162.564C60.9115 163.848 61.3697 165.358 61.3697 166.903C61.3678 168.97 60.5467 170.952 59.0862 172.416C57.6258 173.879 55.6449 174.704 53.5776 174.709ZM53.5776 159.81C52.1742 159.807 50.8015 160.221 49.6332 160.998C48.4649 161.776 47.5536 162.883 47.0146 164.179C46.4755 165.474 46.333 166.901 46.6051 168.278C46.8772 169.655 47.5516 170.92 48.5429 171.913C49.5343 172.906 50.7981 173.583 52.1743 173.858C53.5506 174.133 54.9775 173.993 56.2743 173.457C57.5712 172.921 58.6798 172.012 59.4598 170.845C60.2398 169.678 60.6561 168.306 60.6561 166.903C60.6467 165.03 59.8975 163.236 58.5716 161.913C57.2458 160.59 55.4508 159.844 53.5776 159.839V159.81Z" fill="#263238"/>
<path d="M75.9001 179.933C75.6307 179.933 75.3646 179.872 75.1223 179.754L60.6513 172.683C60.2265 172.475 59.9017 172.106 59.7485 171.659C59.5953 171.211 59.6261 170.721 59.8343 170.296C60.0425 169.871 60.4109 169.546 60.8585 169.393C61.3061 169.24 61.7963 169.271 62.2212 169.479L76.6779 176.543C77.0419 176.719 77.3352 177.014 77.5097 177.379C77.6842 177.744 77.7295 178.157 77.6383 178.551C77.547 178.945 77.3246 179.296 77.0075 179.547C76.6904 179.798 76.2974 179.934 75.893 179.933H75.9001Z" fill="#263238"/>
<path d="M86.1596 127.204H109.479C109.971 127.203 110.459 127.299 110.915 127.487C111.37 127.675 111.784 127.951 112.132 128.299C112.481 128.647 112.758 129.06 112.946 129.515C113.135 129.97 113.232 130.458 113.232 130.95V145.065C113.232 145.557 113.135 146.045 112.946 146.5C112.758 146.955 112.481 147.368 112.132 147.716C111.784 148.064 111.37 148.34 110.915 148.528C110.459 148.715 109.971 148.812 109.479 148.811H107.424L103.014 155.511L102.5 148.811H86.1596C85.667 148.812 85.1791 148.715 84.7238 148.528C84.2684 148.34 83.8546 148.064 83.506 147.716C83.1574 147.368 82.8808 146.955 82.6921 146.5C82.5034 146.045 82.4062 145.557 82.4063 145.065V130.95C82.4062 130.458 82.5034 129.97 82.6921 129.515C82.8808 129.06 83.1574 128.647 83.506 128.299C83.8546 127.951 84.2684 127.675 84.7238 127.487C85.1791 127.299 85.667 127.203 86.1596 127.204Z" fill="#263238"/>
<path d="M102.748 156.582L102.177 149.168H86.1577C85.0701 149.166 84.0276 148.733 83.2585 147.964C82.4895 147.195 82.0566 146.152 82.0547 145.065V130.951C82.0566 129.862 82.4904 128.818 83.261 128.049C84.0316 127.28 85.076 126.848 86.1648 126.848H109.484C110.573 126.848 111.617 127.28 112.388 128.049C113.158 128.818 113.592 129.862 113.594 130.951V145.065C113.592 146.154 113.158 147.197 112.388 147.967C111.617 148.736 110.573 149.168 109.484 149.168H107.622L102.748 156.582ZM86.1648 127.561C85.2652 127.561 84.4024 127.918 83.7656 128.554C83.1288 129.189 82.7701 130.051 82.7682 130.951V145.065C82.7701 145.964 83.1288 146.827 83.7656 147.462C84.4024 148.097 85.2652 148.454 86.1648 148.454H102.841L103.297 154.441L107.236 148.454H109.484C110.384 148.454 111.246 148.097 111.883 147.462C112.52 146.827 112.879 145.964 112.881 145.065V130.951C112.879 130.051 112.52 129.189 111.883 128.554C111.246 127.918 110.384 127.561 109.484 127.561H86.1648Z" fill="#263238"/>
<path d="M93.0739 137.844C93.0725 137.482 92.9638 137.128 92.7614 136.827C92.5591 136.527 92.2722 136.293 91.9369 136.155C91.6017 136.017 91.2332 135.982 90.878 136.054C90.5227 136.125 90.1966 136.3 89.9409 136.557C89.6851 136.814 89.5112 137.141 89.441 137.496C89.3708 137.852 89.4075 138.22 89.5465 138.555C89.6855 138.89 89.9206 139.176 90.222 139.377C90.5234 139.578 90.8777 139.685 91.2401 139.685C91.4815 139.685 91.7206 139.638 91.9435 139.545C92.1665 139.452 92.369 139.317 92.5393 139.146C92.7097 138.975 92.8447 138.772 92.9364 138.548C93.0281 138.325 93.0749 138.086 93.0739 137.844Z" fill="white"/>
<path d="M98.8143 139.678C99.8271 139.678 100.648 138.857 100.648 137.845C100.648 136.832 99.8271 136.011 98.8143 136.011C97.8015 136.011 96.9805 136.832 96.9805 137.845C96.9805 138.857 97.8015 139.678 98.8143 139.678Z" fill="white"/>
<path d="M108.222 137.844C108.221 137.482 108.112 137.128 107.91 136.827C107.707 136.527 107.421 136.293 107.085 136.155C106.75 136.017 106.382 135.982 106.026 136.054C105.671 136.125 105.345 136.3 105.089 136.557C104.834 136.814 104.66 137.141 104.589 137.496C104.519 137.852 104.556 138.22 104.695 138.555C104.834 138.89 105.069 139.176 105.37 139.377C105.672 139.578 106.026 139.685 106.389 139.685C106.63 139.685 106.869 139.638 107.092 139.545C107.315 139.452 107.517 139.317 107.688 139.146C107.858 138.975 107.993 138.772 108.085 138.548C108.177 138.325 108.223 138.086 108.222 137.844Z" fill="white"/>
<path d="M90.4788 118.022H67.1596C66.1641 118.022 65.2095 118.418 64.5056 119.122C63.8017 119.826 63.4063 120.78 63.4063 121.776V135.89C63.4062 136.383 63.5034 136.87 63.6921 137.325C63.8808 137.78 64.1574 138.194 64.506 138.542C64.8546 138.889 65.2684 139.165 65.7238 139.353C66.1791 139.541 66.667 139.637 67.1596 139.636H69.2146L73.6244 146.337L74.1382 139.636H90.4788C90.9713 139.637 91.4592 139.541 91.9146 139.353C92.3699 139.165 92.7837 138.889 93.1323 138.542C93.481 138.194 93.7575 137.78 93.9462 137.325C94.1349 136.87 94.2321 136.383 94.2321 135.89V121.776C94.2321 120.78 93.8366 119.826 93.1328 119.122C92.4289 118.418 91.4742 118.022 90.4788 118.022Z" fill="white"/>
<path d="M73.893 147.406L69.0194 139.992H67.157C66.0682 139.992 65.0238 139.56 64.2532 138.791C63.4826 138.022 63.0488 136.978 63.0469 135.889V121.775C63.0488 120.686 63.4824 119.641 64.2528 118.871C65.0232 118.101 66.0675 117.667 67.157 117.665H90.4762C91.5656 117.667 92.61 118.101 93.3804 118.871C94.1507 119.641 94.5844 120.686 94.5863 121.775V135.889C94.5844 136.978 94.1505 138.022 93.3799 138.791C92.6093 139.56 91.565 139.992 90.4762 139.992H74.4639L73.893 147.406ZM67.157 118.379C66.2562 118.379 65.3922 118.736 64.7553 119.373C64.1183 120.01 63.7604 120.874 63.7604 121.775V135.889C63.7623 136.789 64.121 137.651 64.7578 138.287C65.3946 138.922 66.2574 139.279 67.157 139.279H69.4047L73.3436 145.266L73.8074 139.279H90.4762C91.3757 139.279 92.2386 138.922 92.8754 138.287C93.5121 137.651 93.8708 136.789 93.8727 135.889V121.775C93.8727 120.874 93.5149 120.01 92.8779 119.373C92.2409 118.736 91.377 118.379 90.4762 118.379H67.157Z" fill="#263238"/>
<path d="M73.074 129.359C73.074 128.997 72.9664 128.642 72.7649 128.34C72.5634 128.039 72.277 127.804 71.9419 127.665C71.6068 127.526 71.2381 127.49 70.8823 127.561C70.5266 127.631 70.1998 127.806 69.9434 128.063C69.6869 128.319 69.5122 128.646 69.4415 129.001C69.3707 129.357 69.407 129.726 69.5458 130.061C69.6846 130.396 69.9197 130.683 70.2213 130.884C70.5228 131.086 70.8774 131.193 71.2401 131.193C71.7259 131.191 72.1912 130.997 72.5348 130.654C72.8783 130.31 73.0721 129.845 73.074 129.359Z" fill="#263238"/>
<path d="M71.244 131.55C70.8087 131.551 70.3828 131.423 70.0203 131.182C69.6578 130.941 69.375 130.598 69.2077 130.196C69.0405 129.795 68.9964 129.352 69.0809 128.925C69.1655 128.498 69.375 128.106 69.6828 127.798C69.9906 127.49 70.3828 127.281 70.8098 127.196C71.2368 127.112 71.6793 127.156 72.0812 127.323C72.4831 127.49 72.8262 127.773 73.0672 128.135C73.3081 128.498 73.436 128.924 73.4346 129.359C73.4327 129.94 73.2013 130.496 72.7909 130.906C72.3805 131.317 71.8244 131.548 71.244 131.55ZM71.244 127.875C70.9501 127.874 70.6625 127.959 70.4174 128.122C70.1724 128.284 69.9811 128.515 69.8677 128.786C69.7542 129.057 69.7238 129.356 69.7803 129.644C69.8367 129.933 69.9775 130.198 70.1848 130.406C70.3921 130.614 70.6565 130.756 70.9446 130.814C71.2327 130.872 71.5315 130.843 71.8031 130.731C72.0748 130.619 72.307 130.429 72.4704 130.185C72.6338 129.94 72.721 129.653 72.721 129.359C72.721 128.967 72.5656 128.59 72.2888 128.312C72.012 128.034 71.6364 127.877 71.244 127.875Z" fill="#263238"/>
<path d="M80.6326 129.359C80.6326 128.997 80.525 128.642 80.3235 128.34C80.122 128.039 79.8356 127.804 79.5005 127.665C79.1654 127.526 78.7967 127.49 78.4409 127.561C78.0852 127.631 77.7584 127.806 77.502 128.063C77.2455 128.319 77.0708 128.646 77.0001 129.001C76.9293 129.357 76.9656 129.726 77.1044 130.061C77.2432 130.396 77.4783 130.683 77.7799 130.884C78.0814 131.086 78.436 131.193 78.7987 131.193C79.2845 131.191 79.7498 130.997 80.0934 130.654C80.4369 130.31 80.6307 129.845 80.6326 129.359Z" fill="#263238"/>
<path d="M78.8182 131.55C78.3829 131.551 77.957 131.423 77.5945 131.182C77.232 130.941 76.9492 130.598 76.7819 130.196C76.6147 129.795 76.5706 129.352 76.6552 128.925C76.7397 128.498 76.9492 128.106 77.257 127.798C77.5648 127.49 77.957 127.281 78.384 127.196C78.811 127.112 79.2535 127.156 79.6554 127.323C80.0573 127.49 80.4004 127.773 80.6414 128.135C80.8823 128.498 81.0102 128.924 81.0088 129.359C81.0069 129.94 80.7755 130.496 80.3651 130.906C79.9547 131.317 79.3986 131.548 78.8182 131.55ZM78.8182 127.875C78.5243 127.874 78.2367 127.959 77.9917 128.122C77.7466 128.284 77.5553 128.515 77.4419 128.786C77.3284 129.057 77.298 129.356 77.3545 129.644C77.4109 129.933 77.5517 130.198 77.759 130.406C77.9663 130.614 78.2307 130.756 78.5188 130.814C78.807 130.872 79.1057 130.843 79.3774 130.731C79.649 130.619 79.8812 130.429 80.0446 130.185C80.208 129.94 80.2952 129.653 80.2952 129.359C80.2952 128.967 80.1399 128.59 79.8631 128.312C79.5863 128.034 79.2106 127.877 78.8182 127.875Z" fill="#263238"/>
<path d="M88.2224 129.359C88.2224 128.997 88.1148 128.642 87.9133 128.34C87.7118 128.039 87.4254 127.804 87.0903 127.665C86.7552 127.526 86.3865 127.49 86.0308 127.561C85.675 127.631 85.3483 127.806 85.0918 128.063C84.8353 128.319 84.6607 128.646 84.5899 129.001C84.5192 129.357 84.5555 129.726 84.6943 130.061C84.8331 130.396 85.0681 130.683 85.3697 130.884C85.6713 131.086 86.0258 131.193 86.3885 131.193C86.8743 131.191 87.3397 130.997 87.6832 130.654C88.0267 130.31 88.2205 129.845 88.2224 129.359Z" fill="#263238"/>
<path d="M86.3885 131.55C85.9532 131.551 85.5273 131.423 85.1648 131.182C84.8023 130.941 84.5195 130.598 84.3523 130.196C84.185 129.795 84.1409 129.352 84.2255 128.925C84.3101 128.498 84.5195 128.106 84.8273 127.798C85.1351 127.49 85.5274 127.281 85.9543 127.196C86.3813 127.112 86.8238 127.156 87.2257 127.323C87.6276 127.49 87.9707 127.773 88.2117 128.135C88.4527 128.498 88.5805 128.924 88.5791 129.359C88.5772 129.94 88.3458 130.496 87.9354 130.906C87.525 131.317 86.9689 131.548 86.3885 131.55ZM86.3885 127.875C86.0946 127.874 85.807 127.959 85.562 128.122C85.317 128.284 85.1256 128.515 85.0122 128.786C84.8987 129.057 84.8683 129.356 84.9248 129.644C84.9813 129.933 85.122 130.198 85.3293 130.406C85.5366 130.614 85.8011 130.756 86.0892 130.814C86.3773 130.872 86.6761 130.843 86.9477 130.731C87.2193 130.619 87.4515 130.429 87.6149 130.185C87.7783 129.94 87.8656 129.653 87.8656 129.359C87.8656 128.967 87.7102 128.59 87.4334 128.312C87.1566 128.034 86.7809 127.877 86.3885 127.875Z" fill="#263238"/>
<path d="M72.8844 74.6104H33.9668V103.467H72.8844V74.6104Z" fill="white"/>
<path d="M73.2444 103.816H33.6133V74.2529H73.2444V103.816ZM34.3268 103.102H72.5309V74.9665H34.3268V103.102Z" fill="#263238"/>
<path d="M72.8844 89.3307L66.5052 83.665L56.1086 94.4041L47.7171 89.031L33.9668 103.459H72.8844V89.3307Z" fill="#263238"/>
<path d="M73.2401 103.815H33.1309L47.6661 88.5735L56.0504 93.9466L66.4898 83.1719L73.2401 89.1729V103.815ZM34.7935 103.102H72.5266V89.494L66.5255 84.1566L56.1575 94.86L47.7731 89.494L34.7935 103.102Z" fill="#263238"/>
<path d="M46.5453 82.5734C46.5453 83.453 46.2844 84.3127 45.7956 85.0439C45.3068 85.7752 44.6121 86.3449 43.7993 86.6812C42.9866 87.0175 42.0924 87.1051 41.2299 86.933C40.3674 86.7609 39.5753 86.3368 38.9538 85.7143C38.3324 85.0919 37.9096 84.2991 37.7388 83.4363C37.5681 82.5735 37.6572 81.6794 37.9947 80.8673C38.3323 80.0551 38.9032 79.3613 39.6352 78.8737C40.3672 78.386 41.2274 78.1265 42.1069 78.1279C43.2847 78.1298 44.4136 78.599 45.2457 79.4325C46.0779 80.266 46.5453 81.3956 46.5453 82.5734Z" fill="#263238"/>
<path d="M42.105 87.375C41.1552 87.375 40.2267 87.0934 39.437 86.5657C38.6473 86.038 38.0318 85.288 37.6683 84.4105C37.3048 83.533 37.2097 82.5674 37.395 81.6359C37.5803 80.7044 38.0377 79.8487 38.7093 79.1771C39.3809 78.5055 40.2366 78.0481 41.1681 77.8628C42.0997 77.6775 43.0652 77.7726 43.9427 78.1361C44.8202 78.4995 45.5703 79.115 46.0979 79.9048C46.6256 80.6945 46.9073 81.623 46.9073 82.5728C46.9054 83.8458 46.3988 85.0662 45.4986 85.9664C44.5984 86.8666 43.3781 87.3731 42.105 87.375ZM42.105 78.4912C41.2963 78.4912 40.5058 78.731 39.8334 79.1803C39.1611 79.6295 38.637 80.2681 38.3275 81.0152C38.0181 81.7623 37.9371 82.5844 38.0949 83.3776C38.2526 84.1707 38.642 84.8992 39.2139 85.4711C39.7857 86.0429 40.5142 86.4323 41.3073 86.5901C42.1005 86.7478 42.9226 86.6668 43.6697 86.3574C44.4168 86.0479 45.0554 85.5239 45.5046 84.8515C45.9539 84.1791 46.1937 83.3886 46.1937 82.5799C46.1918 81.4961 45.7604 80.4572 44.9941 79.6908C44.2277 78.9245 43.1888 78.4931 42.105 78.4912Z" fill="#263238"/>
<path d="M96.0817 82.4736H57.1641V111.33H96.0817V82.4736Z" fill="white"/>
<path d="M96.4417 111.678H56.8105V82.1152H96.4417V111.678ZM57.5241 110.965H95.7282V82.8288H57.5241V110.965Z" fill="#263238"/>
<path d="M96.0817 97.194L89.7096 91.5283L79.3059 102.267L70.9215 96.9014L57.1641 111.322H96.0817V97.194Z" fill="#24FF30"/>
<path d="M96.0803 111.679H57.1626C57.0936 111.678 57.0263 111.657 56.969 111.618C56.9116 111.58 56.8666 111.526 56.8394 111.462C56.8122 111.399 56.804 111.329 56.8158 111.261C56.8276 111.193 56.8588 111.13 56.9058 111.079L70.6489 96.6509C70.7066 96.5919 70.7828 96.5547 70.8648 96.5456C70.9467 96.5365 71.0293 96.5561 71.0985 96.601L79.2402 101.81L89.437 91.285C89.5025 91.22 89.591 91.1836 89.6832 91.1836C89.7754 91.1836 89.8639 91.22 89.9294 91.285L96.3015 96.9506C96.3391 96.9837 96.3693 97.0242 96.3902 97.0697C96.4111 97.1152 96.4222 97.1646 96.4228 97.2146V111.315C96.4247 111.408 96.3899 111.498 96.3259 111.567C96.2618 111.635 96.1736 111.675 96.0803 111.679ZM57.9975 110.965H95.7235V97.3574L89.7224 92.0485L79.5613 102.545C79.5037 102.604 79.4274 102.641 79.3455 102.65C79.2635 102.659 79.1809 102.64 79.1118 102.595L70.9772 97.3859L57.9975 110.965Z" fill="#263238"/>
<path d="M65.301 94.8832C67.7561 94.8832 69.7464 92.8928 69.7464 90.4377C69.7464 87.9825 67.7561 85.9922 65.301 85.9922C62.8458 85.9922 60.8555 87.9825 60.8555 90.4377C60.8555 92.8928 62.8458 94.8832 65.301 94.8832Z" fill="#24FF30"/>
<path d="M65.3023 95.2393C64.3525 95.2393 63.424 94.9576 62.6343 94.43C61.8445 93.9023 61.229 93.1523 60.8656 92.2748C60.5021 91.3973 60.407 90.4317 60.5923 89.5002C60.7776 88.5686 61.2349 87.7129 61.9066 87.0413C62.5782 86.3697 63.4338 85.9123 64.3654 85.727C65.2969 85.5417 66.2625 85.6368 67.14 86.0003C68.0175 86.3638 68.7675 86.9793 69.2952 87.769C69.8229 88.5588 70.1045 89.4872 70.1045 90.437C70.1026 91.7101 69.5961 92.9305 68.6959 93.8307C67.7957 94.7309 66.5753 95.2374 65.3023 95.2393ZM65.3023 86.3483C64.4936 86.3483 63.7031 86.5881 63.0307 87.0374C62.3583 87.4867 61.8343 88.1252 61.5248 88.8724C61.2153 89.6195 61.1344 90.4416 61.2921 91.2347C61.4499 92.0278 61.8393 92.7564 62.4111 93.3282C62.9829 93.9 63.7115 94.2894 64.5046 94.4472C65.2977 94.6049 66.1198 94.524 66.8669 94.2145C67.6141 93.905 68.2526 93.381 68.7019 92.7086C69.1512 92.0362 69.391 91.2457 69.391 90.437C69.391 89.352 68.9604 88.3113 68.1939 87.5434C67.4273 86.7754 66.3873 86.3431 65.3023 86.3412V86.3483Z" fill="#263238"/>
<path d="M150.315 211.215L141.039 205.849L145.37 204.729C146.7 204.467 147.934 203.848 148.938 202.938C149.425 202.355 149.851 201.724 150.208 201.054C150.843 199.962 151.4 199.02 152.106 198.913C152.244 198.888 152.385 198.895 152.52 198.932C152.654 198.969 152.779 199.036 152.884 199.127C153.73 199.862 154.341 200.83 154.64 201.91C154.939 202.99 154.914 204.134 154.568 205.2C153.769 207.947 150.587 210.908 150.451 211.058L150.315 211.215ZM142.937 206.099L150.215 210.33C150.929 209.617 153.305 207.169 153.947 204.978C154.256 204.05 154.286 203.051 154.032 202.106C153.778 201.161 153.253 200.311 152.52 199.662C152.406 199.577 152.342 199.584 152.313 199.591C151.928 199.662 151.357 200.64 150.886 201.418C150.501 202.131 150.045 202.803 149.523 203.423C148.412 204.454 147.032 205.149 145.542 205.428L142.937 206.099Z" fill="#263238"/>
<path d="M123.921 257.868L118.348 257.254L124.955 252.103L123.921 257.868Z" fill="white"/>
<path d="M124.212 258.259L117.434 257.546L125.468 251.273L124.212 258.259ZM119.26 256.996L123.627 257.474L124.434 252.957L119.26 256.996Z" fill="#263238"/>
<path d="M127.015 204.829L126.787 209.182C126.787 209.182 122.32 227.385 122.549 228.056C122.777 228.726 122.213 247.928 122.656 250.176C123.098 252.424 123.89 257.882 123.89 257.882C123.89 257.882 130.027 257.661 132.817 256.205C135.121 254.853 137.29 253.283 139.296 251.517L137.062 242.812C138.396 241.914 139.473 240.684 140.188 239.244C140.815 237.815 141.265 236.315 141.529 234.777L143.313 234.221C143.313 234.221 145.661 235.448 146.774 234.328C147.887 233.207 147.002 231.652 146.667 230.867C146.331 230.082 145.104 227.299 145.104 227.299C145.104 227.299 146.446 229.311 147.78 229.09C149.114 228.869 149.457 228.976 149.571 228.084C149.513 226.948 149.324 225.823 149.007 224.73C149.007 224.73 151.576 225.736 152.575 224.73C152.899 224.421 153.125 224.024 153.224 223.587C153.323 223.15 153.291 222.694 153.132 222.276C153.025 221.94 150.006 215.14 150.006 215.14C150.006 215.14 155.929 216.474 156.371 216.474C156.912 216.442 157.428 216.242 157.849 215.901C158.27 215.561 158.574 215.098 158.719 214.576C159.161 213.014 154.252 211.116 150.156 208.104C146.06 205.093 141.444 203.859 139.546 203.859C137.647 203.859 127.936 203.152 127.015 204.829Z" fill="white"/>
<path d="M123.61 258.237L123.567 257.916C123.567 257.866 122.782 252.429 122.339 250.231C122.075 248.883 122.154 241.94 122.225 235.817C122.268 232.249 122.311 228.518 122.225 228.147C122.004 227.497 124.787 215.93 126.464 209.094L126.721 204.663C127.434 203.336 131.766 203.236 138.059 203.429C138.716 203.429 139.229 203.464 139.536 203.464C141.434 203.464 146.051 204.635 150.354 207.746C151.817 208.816 153.387 209.751 154.771 210.6C157.489 212.206 159.452 213.369 159.088 214.639C158.916 215.23 158.565 215.754 158.083 216.137C157.601 216.52 157.013 216.745 156.398 216.779C156.005 216.779 152.352 215.966 150.646 215.581C151.431 217.35 153.401 221.824 153.501 222.11C153.685 222.596 153.722 223.126 153.608 223.633C153.494 224.141 153.233 224.604 152.858 224.964C152.024 225.799 150.432 225.513 149.54 225.257C149.801 226.186 149.935 227.146 149.94 228.111C149.812 229.138 149.312 229.21 148.406 229.338L147.864 229.424C147.283 229.484 146.702 229.315 146.244 228.953C146.551 229.666 146.865 230.38 147.014 230.715L147.129 230.972C147.514 231.814 148.227 233.391 147.05 234.576C145.873 235.76 143.86 234.854 143.304 234.576L141.877 235.025C141.607 236.519 141.162 237.975 140.55 239.364C139.851 240.791 138.803 242.018 137.503 242.932L139.729 251.608L139.565 251.758C137.538 253.544 135.345 255.131 133.014 256.496C130.16 257.966 124.188 258.202 123.931 258.209L123.61 258.237ZM127.399 204.942L127.177 209.223C125.429 216.358 122.896 227.205 122.932 228.011C123.017 228.268 123.003 230.366 122.932 235.86C122.868 241.647 122.782 248.847 123.032 250.131C123.417 252.029 124.045 256.325 124.223 257.531C125.508 257.46 130.353 257.124 132.679 255.911C134.897 254.612 136.987 253.107 138.923 251.416L136.689 242.61L136.903 242.468C138.179 241.605 139.211 240.427 139.9 239.05C140.509 237.648 140.949 236.18 141.213 234.676V234.454L143.354 233.791L143.482 233.855C144.075 234.162 145.766 234.797 146.529 234.033C147.293 233.27 146.915 232.228 146.465 231.229L146.344 230.965C146.008 230.18 144.781 227.397 144.781 227.397L145.402 227.055C145.744 227.554 146.829 228.832 147.728 228.682L148.292 228.596C149.162 228.475 149.162 228.475 149.219 227.99C149.17 226.901 148.985 225.822 148.67 224.779L148.484 224.065L149.148 224.322C149.797 224.579 151.653 225.085 152.338 224.4C152.617 224.139 152.811 223.8 152.895 223.427C152.979 223.055 152.949 222.665 152.809 222.31C152.723 222.053 150.896 217.914 149.697 215.174L149.405 214.525L150.118 214.682C152.366 215.188 156.055 216.002 156.412 216.016C156.873 215.979 157.311 215.802 157.669 215.509C158.026 215.216 158.285 214.82 158.41 214.375C158.617 213.661 156.576 212.42 154.414 211.142C152.987 210.307 151.431 209.373 149.94 208.288C146.001 205.434 141.491 204.114 139.543 204.114C139.229 204.114 138.709 204.114 138.045 204.071C135.583 204.078 128.248 203.8 127.399 204.942Z" fill="#263238"/>
<path d="M149.045 214.711C147.91 213.826 144.763 211.457 143.914 211.201C143.2 210.986 136.778 210.251 132.904 209.773C131.034 209.559 130.142 209.459 129.721 209.36C129.343 209.274 129.35 209.181 129.357 209.017V208.682H129.7V208.996L129.771 208.689C129.914 208.689 131.327 208.881 132.961 209.067C138.206 209.666 143.379 210.266 144.1 210.494C145.241 210.837 149.037 213.791 149.466 214.126L149.045 214.711Z" fill="#263238"/>
<path d="M148.738 224.885C147.246 222.423 144.592 218.406 143.786 218.113C142.837 217.771 133.546 216.151 128.801 215.338L128.915 214.624C129.486 214.717 142.808 216.979 144.057 217.428C145.305 217.878 148.709 223.408 149.373 224.507L148.738 224.885Z" fill="#263238"/>
<path d="M144.139 226.986C143.21 226.149 142.19 225.419 141.099 224.809C140.157 224.374 131.673 222.369 127.32 221.37L127.484 220.656C127.998 220.778 140.15 223.575 141.399 224.146C142.552 224.785 143.63 225.554 144.61 226.436L144.139 226.986Z" fill="#263238"/>
<path d="M142.435 233.562L138.625 230.08L131.511 229.866L129.827 231.129L129.398 230.558L131.282 229.146L138.91 229.374L142.913 233.034L142.435 233.562Z" fill="#263238"/>
<path d="M118.348 257.254L119.639 262.577C119.639 262.577 122.7 263.383 128.823 260.964C133.147 259.11 137.253 256.784 141.067 254.029L140.582 250.161C140.582 250.161 129.95 257.903 118.348 257.254Z" fill="white"/>
<path d="M121.111 263.063C120.586 263.078 120.061 263.03 119.548 262.92L119.341 262.863L117.914 256.876H118.399C129.738 257.504 140.298 249.926 140.405 249.848L140.891 249.498L141.476 254.172L141.305 254.293C141.248 254.336 135.075 258.86 128.981 261.265C126.494 262.352 123.824 262.962 121.111 263.063ZM119.933 262.264C120.697 262.385 123.644 262.628 128.689 260.63C132.923 258.82 136.948 256.554 140.691 253.872L140.306 250.79C138.101 252.26 128.803 257.982 118.806 257.633L119.933 262.264Z" fill="#263238"/>
<path d="M141.39 252.744C141.39 252.744 133.334 257.903 127.533 259.673C123.647 260.789 122.227 260.932 118.188 261.101C118.188 261.101 125.28 293.654 127.535 298.649C129.79 303.644 135.125 316.955 135.125 316.955H171.214C171.214 316.955 147.349 271.761 146.542 268.214C145.736 264.668 141.39 252.744 141.39 252.744Z" fill="#263238"/>
<path d="M157.899 132.01C157.899 132.01 150.278 149.728 151.227 151.99C152.176 154.252 155.994 157.898 154.281 160.374C152.569 162.85 142.657 171.042 144.562 175.237C146.468 179.433 151.42 179.619 151.42 179.619C151.42 179.619 150.471 185.142 151.798 186.476L153.132 187.81C153.132 187.81 153.132 190.665 154.088 191.999C155.045 193.333 157.514 194.475 157.514 194.475C157.514 194.475 152.754 201.525 153.703 203.808C154.652 206.092 165.52 209.717 170.115 210.858C174.71 212 182.874 210.48 182.874 210.48L185.164 221.897L228.406 196.559L221.741 179.604C221.741 179.604 233.158 169.315 233.743 153.881C234.328 138.446 229.548 123.975 220.978 118.83C212.408 113.686 200.784 114.642 200.784 114.642C198.633 112.429 195.884 110.891 192.874 110.214C189.863 109.537 186.72 109.752 183.83 110.831C173.326 114.456 157.899 132.01 157.899 132.01Z" fill="white"/>
<path d="M184.885 222.461L182.573 210.887C180.939 211.165 174.117 212.229 170 211.201C166.111 210.223 154.466 206.549 153.374 203.944C152.468 201.768 155.971 196.166 156.992 194.611C155.773 194.033 154.685 193.212 153.795 192.199C152.91 190.957 152.796 188.574 152.782 187.918L151.547 186.683C150.291 185.427 150.834 181.26 151.005 179.897C149.749 179.754 145.91 179.019 144.233 175.337C142.713 171.984 147.994 166.511 151.483 162.886C152.372 162.02 153.206 161.101 153.98 160.131C155.058 158.576 153.588 156.378 152.289 154.423C151.757 153.685 151.291 152.902 150.898 152.082C149.92 149.721 156.785 133.623 157.57 131.796L157.627 131.703C158.262 130.99 173.239 114.064 183.686 110.453C186.618 109.38 189.796 109.166 192.846 109.836C195.896 110.506 198.691 112.032 200.904 114.235C202.395 114.142 213.142 113.686 221.141 118.517C229.475 123.511 234.698 137.733 234.078 153.888C233.542 168.216 223.617 178.27 222.14 179.69L228.826 196.701L228.562 196.858L184.885 222.461ZM183.136 210.059L185.391 221.341L227.941 196.409L221.298 179.512L221.476 179.341C221.59 179.241 232.8 168.972 233.364 153.881C233.949 137.975 228.89 124.018 220.77 119.145C212.4 114.15 200.904 114.992 200.79 114.999H200.612L200.512 114.885C198.396 112.744 195.709 111.256 192.771 110.6C189.833 109.943 186.769 110.145 183.943 111.181C173.953 114.642 159.075 131.225 158.255 132.181C155.329 138.982 150.955 150.299 151.611 151.854C151.988 152.632 152.429 153.377 152.931 154.08C154.359 156.221 155.971 158.626 154.623 160.581C153.822 161.583 152.961 162.536 152.047 163.435C148.893 166.703 143.612 172.176 144.911 175.095C146.709 179.041 151.412 179.262 151.461 179.269H151.868L151.797 179.669C151.547 181.153 151.083 185.227 152.082 186.212L153.509 187.639V187.789C153.509 187.789 153.509 190.543 154.401 191.771C155.293 192.998 157.662 194.118 157.684 194.133L158.069 194.304L157.834 194.654C156.535 196.573 153.338 201.925 154.059 203.652C154.901 205.678 165.162 209.232 170.2 210.495C174.645 211.601 182.73 210.124 182.808 210.109L183.136 210.059Z" fill="#263238"/>
<path d="M154.473 151.796C154.473 151.796 154.473 153.887 156.949 152.938C159.425 151.988 160.759 150.269 162.657 150.647C164.555 151.025 167.038 151.981 165.511 149.32C163.984 146.658 160.367 147.793 158.269 148.742C156.817 149.504 155.528 150.541 154.473 151.796Z" fill="#263238"/>
<path d="M155.813 153.544C155.468 153.555 155.129 153.458 154.842 153.266C154.622 153.09 154.443 152.866 154.319 152.612C154.196 152.357 154.131 152.079 154.129 151.796V151.668L154.215 151.568C155.306 150.268 156.645 149.198 158.153 148.421C161.878 146.723 164.575 146.994 165.846 149.134C166.395 150.098 166.509 150.704 166.202 151.111C165.753 151.718 164.675 151.461 163.419 151.175L162.606 150.99C161.55 150.783 160.658 151.318 159.531 151.996C158.757 152.492 157.94 152.917 157.09 153.266C156.685 153.435 156.252 153.53 155.813 153.544ZM154.85 151.91C154.86 152.06 154.902 152.206 154.972 152.339C155.042 152.471 155.139 152.588 155.256 152.681C155.506 152.789 155.778 152.838 156.05 152.825C156.323 152.811 156.588 152.735 156.826 152.602C157.639 152.272 158.42 151.868 159.16 151.396C160.365 150.683 161.414 150.034 162.727 150.298L163.562 150.483C164.219 150.64 165.439 150.926 165.61 150.69C165.61 150.69 165.76 150.469 165.203 149.491C163.819 147.072 160.365 148.193 158.425 149.07C157.062 149.779 155.849 150.744 154.85 151.91Z" fill="#263238"/>
<path d="M158.959 167.587C158.189 167.587 157.461 166.824 156.74 165.268C156.024 163.591 155.498 161.839 155.17 160.045C154.802 158.262 154.637 156.442 154.678 154.622C154.771 152.738 155.235 151.767 156.105 151.575C156.976 151.382 157.775 152.153 158.56 153.865C159.282 155.553 159.809 157.317 160.13 159.124C160.496 160.91 160.659 162.732 160.615 164.554C160.529 166.431 160.066 167.409 159.188 167.601L158.959 167.587ZM156.391 153.052C156.077 153.658 155.841 156.013 156.576 159.774C157.311 163.534 158.396 165.632 158.91 166.082C159.224 165.475 159.452 163.12 158.724 159.36C157.996 155.592 156.904 153.501 156.391 153.052Z" fill="#263238"/>
<path d="M195.57 154.518L159.184 156.992L159.28 158.416L195.666 155.942L195.57 154.518Z" fill="#263238"/>
<path d="M153.899 181.702C153.409 181.595 152.903 181.59 152.412 181.688C151.92 181.785 151.454 181.983 151.043 182.269C150.632 182.555 150.284 182.923 150.022 183.35C149.759 183.777 149.587 184.253 149.517 184.749C149.38 185.339 149.365 185.951 149.476 186.546C149.586 187.142 149.818 187.708 150.158 188.209C150.498 188.711 150.938 189.136 151.45 189.459C151.963 189.782 152.536 189.996 153.135 190.086C154.091 190.086 155.804 188.945 158.844 190.279C161.883 191.613 164.552 193.326 164.552 196.565C164.552 199.805 163.41 202.088 160.934 201.896C158.458 201.703 156.746 197.136 155.411 197.707C154.077 198.278 150.645 203.615 152.935 207.233C155.226 210.851 170.46 217.708 175.413 217.523C180.365 217.337 198.846 201.325 201.322 195.402C203.798 189.48 200.558 187.018 199.988 185.305C199.417 183.593 193.701 169.108 193.701 164.919C193.701 160.73 196.37 151.204 201.7 150.819C207.03 150.434 210.263 161.872 208.565 166.061C207.655 168.436 206.146 170.536 204.183 172.155C204.183 172.155 203.034 184.349 206.274 186.426C209.514 188.502 218.083 191.185 222.087 191.378C226.09 191.571 227.61 192.141 229.707 188.138C231.805 184.135 228.18 182.43 229.329 180.139C230.478 177.849 239.804 166.582 240.746 154.608C241.688 142.635 238.648 132.894 233.504 125.274C228.359 117.653 217.313 110.603 213.688 110.032C211.033 109.545 208.423 108.843 205.882 107.934C205.882 107.934 209.878 106.221 206.831 103.553C203.784 100.884 197.69 99.5497 187.779 102.789C177.867 106.029 174.114 109.889 174.114 109.889C174.114 109.889 174.685 104.744 168.969 107.035C163.253 109.325 153.349 119.608 154.698 126.301C156.046 132.994 159.079 132.78 163.261 131.446C167.442 130.112 173.928 127.257 176.818 127.635C179.708 128.014 181.578 128.206 176.44 132.588C171.302 136.969 164.245 141.543 168.056 143.641C171.866 145.739 182.534 151.64 183.868 156.021C185.203 160.402 179.294 191.078 177.196 194.696C175.099 198.314 171.103 199.455 168.634 196.787C166.165 194.118 164.06 187.268 159.871 184.214C155.683 181.16 153.899 181.702 153.899 181.702Z" fill="#263238"/>
<path d="M175.221 217.879C169.847 217.879 154.898 210.994 152.644 207.419C151.473 205.563 151.773 203.43 152.223 201.967C152.936 199.741 154.363 197.764 155.284 197.379C156.204 196.993 156.946 197.971 157.867 199.084C158.787 200.197 159.815 201.453 160.978 201.546C161.324 201.584 161.673 201.549 162.004 201.442C162.335 201.335 162.64 201.159 162.897 200.925C163.747 200.14 164.21 198.592 164.21 196.565C164.21 193.44 161.57 191.856 158.709 190.607C157.269 189.919 155.623 189.799 154.099 190.272C153.786 190.367 153.463 190.425 153.136 190.443C151.927 190.281 150.827 189.657 150.068 188.702C149.621 188.145 149.308 187.494 149.152 186.798C148.996 186.101 149.002 185.378 149.168 184.685C149.248 184.134 149.438 183.606 149.729 183.133C150.02 182.659 150.405 182.25 150.86 181.93C151.766 181.381 152.838 181.171 153.885 181.338C154.349 181.238 156.197 181.117 160.015 183.892C162.641 185.798 164.432 189.116 166.016 192.034C166.787 193.625 167.732 195.126 168.834 196.508C169.258 196.993 169.793 197.367 170.393 197.598C170.994 197.829 171.642 197.911 172.281 197.835C173.246 197.665 174.16 197.273 174.949 196.691C175.739 196.11 176.384 195.353 176.833 194.482C178.974 190.828 184.718 160.231 183.469 156.092C182.164 151.811 171.339 145.867 167.828 143.912C167.493 143.765 167.201 143.536 166.98 143.245C166.759 142.954 166.616 142.611 166.565 142.249C166.38 140.194 169.598 137.597 173.33 134.6C174.272 133.836 175.249 133.051 176.148 132.281C178.888 129.947 179.338 129.034 179.231 128.713C179.124 128.392 177.896 128.149 176.819 127.999H176.712C174.7 127.728 170.64 129.198 167.065 130.497C165.723 130.982 164.46 131.439 163.347 131.795C160.857 132.58 158.873 132.916 157.289 131.981C155.862 131.139 154.906 129.355 154.313 126.379C152.886 119.365 163.047 109.04 168.82 106.735C170.804 105.943 172.302 105.922 173.294 106.671C173.647 106.979 173.932 107.356 174.131 107.78C174.33 108.204 174.439 108.665 174.45 109.133C175.877 107.962 179.902 105.087 187.701 102.539C199.382 98.7147 204.869 101.419 207.095 103.367C208.059 104.209 208.473 105.065 208.337 105.922C208.23 106.348 208.036 106.747 207.769 107.096C207.501 107.444 207.165 107.734 206.781 107.948C209.063 108.729 211.401 109.334 213.774 109.761C217.385 110.331 228.588 117.389 233.825 125.159C239.534 133.644 242.01 143.591 241.125 154.722C240.354 164.512 234.097 173.739 231.085 178.17C230.407 179.169 229.872 179.961 229.658 180.382C229.244 181.209 229.58 181.966 229.994 182.922C230.586 184.271 231.321 185.948 230.036 188.388C228.053 192.184 226.469 192.077 223.25 191.884L222.087 191.82C218.013 191.627 209.343 188.909 206.096 186.825C202.714 184.635 203.792 172.711 203.842 172.204V172.04L203.97 171.947C205.884 170.367 207.358 168.32 208.251 166.004C209.429 163.149 208.187 157.013 205.754 153.652C204.912 152.489 203.528 151.126 201.751 151.254C196.692 151.618 194.08 161.051 194.08 164.997C194.08 168.401 197.983 178.883 199.653 183.357C199.995 184.299 200.252 184.97 200.366 185.27C200.533 185.689 200.746 186.089 201.002 186.461C202.072 188.202 203.692 190.835 201.715 195.616C199.082 201.889 180.458 217.737 175.492 217.937L175.221 217.879ZM155.662 198.014C155.629 198.007 155.595 198.007 155.562 198.014C154.92 198.292 153.564 200.04 152.908 202.153C152.611 202.94 152.488 203.783 152.547 204.623C152.606 205.463 152.846 206.28 153.25 207.019C155.391 210.423 170.497 217.359 175.413 217.144C180.094 216.959 198.511 201.218 201.009 195.26C202.871 190.821 201.43 188.474 200.374 186.754C200.084 186.336 199.844 185.886 199.66 185.412C199.56 185.12 199.31 184.456 198.946 183.529C197.262 179.019 193.331 168.451 193.331 164.919C193.331 160.217 196.271 150.847 201.665 150.462C203.328 150.341 204.933 151.276 206.296 153.159C208.851 156.684 210.128 163.149 208.879 166.196C207.958 168.579 206.454 170.694 204.505 172.347C204.205 175.794 203.984 184.549 206.453 186.147C209.629 188.195 218.106 190.85 222.087 191.042L223.265 191.107C226.426 191.306 227.61 191.378 229.38 187.995C230.5 185.855 229.894 184.478 229.316 183.143C228.859 182.109 228.431 181.124 228.995 179.996C229.446 179.208 229.939 178.443 230.472 177.706C233.44 173.318 239.627 164.205 240.39 154.601C241.261 143.633 238.842 133.836 233.212 125.495C228.06 117.867 217.142 110.959 213.639 110.403C210.969 109.9 208.345 109.184 205.79 108.262L204.94 107.955L205.768 107.599C205.768 107.599 207.452 106.885 207.638 105.715C207.73 105.122 207.388 104.48 206.624 103.817C204.484 101.961 199.268 99.414 187.922 103.103C178.21 106.278 174.364 110.025 174.364 110.06L173.651 110.774L173.758 109.768C173.758 109.768 173.943 107.927 172.88 107.12C172.109 106.528 170.839 106.585 169.105 107.277C163.668 109.454 153.721 119.551 155.034 126.115C155.576 128.841 156.461 130.518 157.674 131.246C159.03 132.045 160.842 131.724 163.147 130.989C164.253 130.639 165.509 130.183 166.843 129.705C170.675 128.313 174.643 126.85 176.833 127.164H176.933C178.474 127.371 179.687 127.535 179.937 128.385C180.187 129.234 179.224 130.525 176.633 132.73C175.72 133.508 174.743 134.3 173.779 135.064C170.511 137.697 167.136 140.415 167.279 142.092C167.323 142.337 167.429 142.567 167.586 142.761C167.743 142.954 167.947 143.105 168.178 143.198C171.788 145.182 182.77 151.219 184.162 155.785C185.589 160.502 179.423 191.349 177.461 194.746C176.956 195.713 176.234 196.551 175.351 197.193C174.468 197.836 173.449 198.265 172.373 198.449C171.622 198.535 170.861 198.439 170.155 198.17C169.448 197.9 168.817 197.465 168.313 196.901C167.171 195.475 166.192 193.927 165.395 192.284C163.854 189.43 162.098 186.19 159.601 184.378C155.683 181.523 154.028 181.952 154.014 181.952H153.928H153.835C152.948 181.8 152.035 181.967 151.259 182.423C150.872 182.701 150.546 183.058 150.304 183.469C150.062 183.881 149.909 184.339 149.853 184.813C149.706 185.405 149.698 186.022 149.829 186.618C149.96 187.213 150.228 187.77 150.61 188.245C151.238 189.029 152.132 189.554 153.122 189.722C153.39 189.7 153.656 189.649 153.914 189.572C155.589 189.057 157.397 189.189 158.98 189.943C161.913 191.228 164.91 193.012 164.91 196.558C164.91 198.82 164.374 200.511 163.368 201.446C163.039 201.747 162.649 201.975 162.224 202.113C161.799 202.25 161.35 202.296 160.907 202.245C159.437 202.131 158.302 200.754 157.339 199.534C156.725 198.82 156.061 198.014 155.662 198.014Z" fill="#263238"/>
<path d="M199.09 173.68V172.967C200.793 172.679 202.479 172.3 204.142 171.832L204.32 172.546C202.597 173.013 200.852 173.392 199.09 173.68Z" fill="#263238"/>
<path d="M179.17 227.806C179.17 227.806 170.665 234.72 169.466 237.639C168.267 240.557 168.538 246.144 168.538 246.679C168.538 247.215 162.024 252.124 159.762 258.774C157.5 265.425 157.371 273.659 157.371 273.659L172.12 246.808L180.533 229.768L179.17 227.806Z" fill="#24FF30"/>
<path d="M156.992 275.085V273.658C156.992 273.572 157.149 265.28 159.404 258.673C161.109 253.678 165.191 249.618 167.146 247.677C167.5 247.345 167.836 246.995 168.152 246.628V246.428C168.052 242.325 168.373 239.328 169.116 237.516C170.329 234.547 178.57 227.826 178.92 227.526L179.227 227.283L180.882 229.774L172.448 246.963L156.992 275.085ZM179.113 228.339C177.593 229.595 170.842 235.282 169.836 237.78C169.358 238.964 168.809 241.412 168.93 246.407V246.685C168.93 246.956 168.716 247.177 167.71 248.176C165.783 250.081 161.787 254.042 160.139 258.88C158.491 263.718 157.998 269.462 157.827 272.138L171.849 246.628L180.119 229.816L179.113 228.339Z" fill="#263238"/>
<path d="M214.675 199.235C214.675 199.235 177.334 220 177.905 222.661C178.476 225.323 180.574 233.144 180.574 233.144C180.574 233.144 209.908 209.903 215.246 207.042C220.583 204.18 231.822 199.992 231.822 199.992C231.822 199.992 229.724 194.469 229.153 193.898C228.582 193.327 218.863 197.515 214.675 199.235Z" fill="white"/>
<path d="M180.365 233.756L180.23 233.235C180.23 233.156 178.125 225.386 177.554 222.738C177.433 222.16 177.147 220.819 195.893 209.637C205.055 204.179 214.402 198.934 214.502 198.934L216.836 197.971C226.925 193.775 228.888 193.197 229.366 193.689C229.965 194.282 231.763 198.977 232.12 199.912L232.241 200.247L231.906 200.368C231.792 200.411 220.632 204.585 215.38 207.397C210.128 210.208 181.05 233.228 180.758 233.463L180.365 233.756ZM214.83 199.555C197.12 209.402 178.289 220.826 178.253 222.596C178.731 224.815 180.301 230.73 180.779 232.521C184.547 229.546 210.035 209.409 215.073 206.726C219.854 204.164 229.444 200.511 231.357 199.783C230.674 197.87 229.865 196.003 228.938 194.196H228.895C227.724 194.196 220.874 197.05 217.15 198.591L214.83 199.555Z" fill="#263238"/>
<path d="M182.151 225.391L152.317 281.601L135.023 316.953H259.504C259.504 316.953 258.557 287.623 256.656 269.01C254.755 250.398 240.917 214.109 238.026 210.377C235.136 206.645 234.417 204.743 234.417 204.743C234.417 204.743 233.848 198.722 231.755 197.786C229.662 196.849 208.953 203.764 182.151 225.391Z" fill="#263238"/>
<path d="M288.521 138.143C316.576 138.143 339.319 115.399 339.319 87.3443C339.319 59.2891 316.576 36.5459 288.521 36.5459C260.466 36.5459 237.723 59.2891 237.723 87.3443C237.723 115.399 260.466 138.143 288.521 138.143Z" fill="#263238"/>
<path d="M288.52 138.5C278.402 138.504 268.509 135.507 260.094 129.889C251.679 124.271 245.119 116.283 241.244 106.936C237.369 97.5887 236.353 87.3024 238.324 77.3779C240.296 67.4534 245.166 58.3364 252.319 51.1801C259.473 44.0237 268.587 39.1495 278.511 37.174C288.435 35.1984 298.722 36.2102 308.07 40.0814C317.419 43.9526 325.41 50.5092 331.031 58.9221C336.653 67.335 339.654 77.2262 339.654 87.3447C339.639 100.904 334.248 113.903 324.662 123.493C315.076 133.082 302.079 138.479 288.52 138.5ZM288.52 36.903C278.543 36.8988 268.789 39.8536 260.491 45.3936C252.193 50.9336 245.724 58.81 241.903 68.0266C238.082 77.2433 237.08 87.3861 239.024 97.1722C240.968 106.958 245.77 115.948 252.824 123.005C259.877 130.061 268.865 134.867 278.65 136.815C288.436 138.764 298.579 137.766 307.797 133.949C317.015 130.132 324.895 123.666 330.438 115.371C335.982 107.075 338.941 97.322 338.941 87.3447C338.925 73.9751 333.609 61.157 324.157 51.7013C314.706 42.2455 301.89 36.9238 288.52 36.903Z" fill="#263238"/>
<path d="M253.038 134.254C256.932 134.254 260.088 131.207 260.088 127.447C260.088 123.687 256.932 120.64 253.038 120.64C249.145 120.64 245.988 123.687 245.988 127.447C245.988 131.207 249.145 134.254 253.038 134.254Z" fill="#263238"/>
<path d="M253.032 134.611C251.634 134.558 250.282 134.094 249.145 133.279C248.007 132.463 247.135 131.331 246.636 130.023C246.138 128.716 246.035 127.29 246.34 125.924C246.645 124.558 247.345 123.313 248.353 122.342C249.361 121.371 250.632 120.717 252.008 120.463C253.384 120.209 254.805 120.365 256.093 120.913C257.381 121.46 258.48 122.374 259.253 123.54C260.026 124.707 260.438 126.076 260.439 127.475C260.396 129.401 259.593 131.232 258.206 132.569C256.818 133.906 254.959 134.64 253.032 134.611ZM253.032 120.996C251.775 121.049 250.561 121.471 249.541 122.208C248.522 122.945 247.741 123.965 247.296 125.143C246.851 126.32 246.762 127.602 247.04 128.829C247.317 130.056 247.949 131.175 248.857 132.046C249.765 132.918 250.909 133.503 252.147 133.729C253.385 133.956 254.662 133.814 255.82 133.321C256.977 132.828 257.965 132.006 258.659 130.956C259.354 129.907 259.724 128.676 259.726 127.418C259.683 125.681 258.955 124.032 257.701 122.829C256.448 121.626 254.77 120.967 253.032 120.996Z" fill="#263238"/>
<path d="M247.645 136.153C247.68 137.166 247.413 138.167 246.876 139.027C246.339 139.887 245.557 140.566 244.631 140.979C243.705 141.392 242.677 141.518 241.679 141.342C240.68 141.167 239.757 140.697 239.028 139.993C238.298 139.289 237.796 138.383 237.584 137.392C237.373 136.4 237.463 135.368 237.842 134.428C238.221 133.488 238.873 132.683 239.713 132.115C240.553 131.548 241.543 131.245 242.557 131.244C243.214 131.232 243.866 131.349 244.478 131.589C245.089 131.829 245.647 132.188 246.119 132.644C246.592 133.1 246.97 133.644 247.231 134.247C247.493 134.849 247.634 135.497 247.645 136.153Z" fill="#263238"/>
<path d="M242.56 141.412C241.527 141.377 240.526 141.038 239.684 140.439C238.842 139.839 238.195 139.004 237.824 138.039C237.452 137.074 237.374 136.021 237.597 135.011C237.821 134.001 238.336 133.08 239.08 132.361C239.824 131.643 240.763 131.159 241.78 130.971C242.796 130.783 243.846 130.898 244.798 131.302C245.75 131.706 246.561 132.382 247.132 133.245C247.702 134.107 248.006 135.119 248.005 136.153C247.993 136.856 247.842 137.549 247.562 138.194C247.282 138.839 246.878 139.422 246.372 139.91C245.866 140.399 245.27 140.783 244.616 141.04C243.962 141.298 243.263 141.424 242.56 141.412ZM242.56 131.6C241.668 131.635 240.806 131.932 240.082 132.453C239.357 132.974 238.801 133.697 238.484 134.531C238.166 135.365 238.101 136.274 238.297 137.145C238.492 138.017 238.939 138.811 239.582 139.43C240.225 140.049 241.036 140.465 241.914 140.627C242.792 140.788 243.698 140.688 244.52 140.339C245.341 139.99 246.042 139.407 246.535 138.663C247.027 137.918 247.291 137.046 247.291 136.153C247.267 134.922 246.755 133.751 245.868 132.898C244.981 132.044 243.791 131.578 242.56 131.6Z" fill="#263238"/>
<path d="M286.576 134.74C314.631 134.74 337.374 111.997 337.374 83.942C337.374 55.8868 314.631 33.1436 286.576 33.1436C258.521 33.1436 235.777 55.8868 235.777 83.942C235.777 111.997 258.521 134.74 286.576 134.74Z" fill="white"/>
<path d="M286.573 135.097C276.456 135.097 266.565 132.096 258.153 126.475C249.74 120.854 243.184 112.865 239.312 103.518C235.44 94.1702 234.427 83.8846 236.401 73.9615C238.375 64.0383 243.247 54.9233 250.401 47.7692C257.555 40.615 266.67 35.7429 276.593 33.7691C286.516 31.7953 296.802 32.8083 306.149 36.6801C315.497 40.5519 323.486 47.1086 329.107 55.521C334.728 63.9335 337.728 73.8238 337.728 83.9413C337.713 97.5039 332.319 110.507 322.729 120.097C313.138 129.687 300.136 135.081 286.573 135.097ZM286.573 33.4997C276.597 33.4997 266.844 36.4581 258.549 42.0007C250.254 47.5433 243.789 55.4212 239.971 64.6382C236.153 73.8552 235.154 83.9973 237.101 93.782C239.047 103.567 243.851 112.555 250.906 119.609C257.96 126.663 266.948 131.467 276.732 133.414C286.517 135.36 296.659 134.361 305.876 130.543C315.093 126.726 322.971 120.26 328.514 111.965C334.056 103.67 337.015 93.9178 337.015 83.9413C336.99 70.5742 331.667 57.7621 322.212 48.3135C312.756 38.8648 299.94 33.5505 286.573 33.5354V33.4997Z" fill="#263238"/>
<path d="M251.085 130.85C254.979 130.85 258.135 127.802 258.135 124.043C258.135 120.283 254.979 117.235 251.085 117.235C247.192 117.235 244.035 120.283 244.035 124.043C244.035 127.802 247.192 130.85 251.085 130.85Z" fill="white"/>
<path d="M251.087 131.207C249.689 131.154 248.337 130.691 247.199 129.875C246.062 129.06 245.19 127.928 244.691 126.62C244.192 125.312 244.089 123.887 244.394 122.521C244.7 121.155 245.4 119.909 246.408 118.938C247.415 117.967 248.687 117.314 250.063 117.06C251.439 116.806 252.86 116.962 254.148 117.509C255.436 118.056 256.535 118.97 257.308 120.137C258.08 121.304 258.493 122.672 258.494 124.072C258.453 125.999 257.65 127.831 256.263 129.168C254.875 130.505 253.014 131.238 251.087 131.207ZM251.087 117.593C249.83 117.646 248.616 118.067 247.596 118.804C246.576 119.542 245.795 120.562 245.351 121.739C244.906 122.916 244.817 124.198 245.094 125.426C245.372 126.653 246.004 127.772 246.912 128.643C247.82 129.514 248.964 130.1 250.202 130.326C251.44 130.553 252.717 130.411 253.874 129.918C255.032 129.425 256.02 128.602 256.714 127.553C257.408 126.503 257.779 125.273 257.78 124.015C257.739 122.277 257.012 120.627 255.758 119.424C254.504 118.22 252.825 117.562 251.087 117.593Z" fill="#263238"/>
<path d="M245.7 132.72C245.735 133.733 245.467 134.734 244.93 135.594C244.392 136.454 243.61 137.134 242.684 137.546C241.758 137.958 240.729 138.085 239.731 137.908C238.732 137.732 237.809 137.261 237.08 136.557C236.35 135.852 235.848 134.946 235.638 133.954C235.428 132.962 235.518 131.93 235.899 130.99C236.279 130.05 236.932 129.245 237.773 128.678C238.614 128.112 239.605 127.81 240.619 127.81C241.275 127.799 241.927 127.917 242.537 128.158C243.148 128.398 243.704 128.757 244.176 129.213C244.648 129.668 245.025 130.213 245.287 130.815C245.548 131.416 245.688 132.064 245.7 132.72Z" fill="white"/>
<path d="M240.618 138.016C239.585 137.982 238.584 137.645 237.741 137.046C236.898 136.447 236.249 135.614 235.877 134.649C235.504 133.684 235.424 132.631 235.646 131.621C235.868 130.611 236.383 129.689 237.126 128.97C237.869 128.25 238.807 127.765 239.824 127.576C240.84 127.386 241.89 127.5 242.842 127.903C243.795 128.306 244.607 128.981 245.179 129.843C245.75 130.704 246.055 131.715 246.056 132.75C246.031 134.168 245.445 135.52 244.426 136.507C243.406 137.494 242.037 138.037 240.618 138.016ZM240.618 128.197C239.726 128.231 238.863 128.526 238.137 129.046C237.412 129.566 236.855 130.289 236.536 131.123C236.218 131.957 236.152 132.867 236.346 133.738C236.541 134.61 236.987 135.405 237.63 136.024C238.273 136.644 239.084 137.061 239.962 137.223C240.841 137.385 241.747 137.286 242.569 136.937C243.391 136.588 244.092 136.005 244.585 135.26C245.078 134.516 245.341 133.643 245.342 132.75C245.318 131.52 244.807 130.35 243.921 129.497C243.036 128.644 241.848 128.176 240.618 128.197Z" fill="#263238"/>
<path d="M308.257 76.8584C308.26 73.4114 307.432 70.0146 305.843 66.9554C304.255 63.8963 301.952 61.2649 299.132 59.2839C296.311 57.303 293.054 56.0308 289.637 55.5751C286.221 55.1194 282.744 55.4935 279.503 56.6659C276.261 57.8382 273.35 59.7742 271.015 62.3101C268.681 64.846 266.991 67.907 266.09 71.2341C265.189 74.5612 265.103 78.0564 265.838 81.424C266.574 84.7915 268.11 87.9322 270.317 90.5801C273.475 94.3734 275.204 99.1525 275.205 104.088V107.035H298.396V104.095C298.392 99.1733 300.114 94.4061 303.262 90.623C306.5 86.7683 308.269 81.8924 308.257 76.8584Z" fill="#24FF30"/>
<path d="M298.389 107.382H275.199C275.104 107.382 275.013 107.345 274.946 107.278C274.879 107.211 274.842 107.12 274.842 107.026V104.086C274.839 99.2357 273.137 94.5399 270.032 90.8136C267.379 87.627 265.689 83.7503 265.159 79.6376C264.63 75.5249 265.283 71.3465 267.042 67.5917C268.802 63.8369 271.595 60.6611 275.094 58.4365C278.594 56.2118 282.655 55.0303 286.801 55.0303C290.948 55.0303 295.009 56.2118 298.508 58.4365C302.007 60.6611 304.8 63.8369 306.56 67.5917C308.319 71.3465 308.973 75.5249 308.443 79.6376C307.914 83.7503 306.223 87.627 303.57 90.8136C300.47 94.5391 298.774 99.2325 298.775 104.079V107.033C298.774 107.082 298.763 107.13 298.743 107.174C298.723 107.218 298.694 107.258 298.658 107.291C298.622 107.324 298.579 107.349 298.533 107.365C298.487 107.38 298.438 107.386 298.389 107.382ZM275.555 106.669H298.033V104.086C298.038 99.0678 299.806 94.2111 303.028 90.364C306.481 86.2232 308.217 80.9171 307.88 75.5358C307.543 70.1545 305.158 65.1066 301.215 61.4291C299.103 59.4388 296.598 57.9109 293.862 56.9427C291.126 55.9746 288.218 55.5875 285.324 55.8063C281.451 56.0806 277.73 57.4184 274.569 59.6723C271.408 61.9262 268.93 65.0088 267.409 68.5806C265.887 72.1524 265.381 76.0748 265.946 79.9157C266.511 83.7567 268.125 87.3673 270.61 90.3497C273.829 94.2043 275.596 99.0642 275.605 104.086L275.555 106.669Z" fill="#263238"/>
<path d="M298.397 107.026H275.199V112.763H298.397V107.026Z" fill="white"/>
<path d="M298.387 113.128H275.197C275.102 113.128 275.011 113.091 274.944 113.024C274.877 112.957 274.84 112.866 274.84 112.771V107.063C274.84 106.968 274.877 106.877 274.944 106.811C275.011 106.744 275.102 106.706 275.197 106.706H298.387C298.482 106.706 298.573 106.744 298.64 106.811C298.707 106.877 298.744 106.968 298.744 107.063V112.771C298.744 112.866 298.707 112.957 298.64 113.024C298.573 113.091 298.482 113.128 298.387 113.128ZM275.553 112.415H298.031V107.42H275.553V112.415Z" fill="#263238"/>
<path d="M275.195 112.786H298.392V115.155C298.392 115.598 298.305 116.037 298.136 116.447C297.966 116.856 297.717 117.228 297.404 117.542C297.091 117.855 296.718 118.104 296.309 118.273C295.899 118.443 295.461 118.53 295.017 118.53H278.563C277.668 118.53 276.809 118.175 276.176 117.542C275.543 116.909 275.188 116.05 275.188 115.155V112.786H275.195Z" fill="white"/>
<path d="M295.019 118.878H278.565C277.576 118.876 276.629 118.482 275.93 117.783C275.232 117.083 274.84 116.135 274.84 115.146V112.785C274.84 112.69 274.877 112.599 274.944 112.532C275.011 112.465 275.102 112.428 275.197 112.428H298.387C298.482 112.428 298.573 112.465 298.64 112.532C298.707 112.599 298.744 112.69 298.744 112.785V115.146C298.744 116.135 298.352 117.083 297.654 117.783C296.955 118.482 296.008 118.876 295.019 118.878ZM275.553 113.17V115.175C275.553 115.974 275.87 116.741 276.435 117.307C276.999 117.873 277.765 118.191 278.565 118.193H295.019C295.819 118.191 296.585 117.873 297.149 117.307C297.714 116.741 298.031 115.974 298.031 115.175V113.17H275.553Z" fill="#263238"/>
<path d="M278.129 118.514H295.468V119.677C295.468 120.277 295.35 120.872 295.12 121.427C294.89 121.982 294.554 122.486 294.129 122.911C293.704 123.336 293.2 123.673 292.645 123.903C292.09 124.132 291.495 124.251 290.895 124.251H282.703C281.49 124.251 280.326 123.769 279.469 122.911C278.611 122.053 278.129 120.89 278.129 119.677V118.514Z" fill="#263238"/>
<path d="M290.888 124.609H282.696C281.389 124.607 280.136 124.087 279.212 123.163C278.288 122.238 277.768 120.985 277.766 119.678V118.158H295.819V119.678C295.817 120.985 295.297 122.238 294.372 123.163C293.448 124.087 292.195 124.607 290.888 124.609ZM278.479 118.9V119.707C278.481 120.825 278.926 121.896 279.716 122.687C280.507 123.477 281.578 123.922 282.696 123.924H290.888C292.006 123.922 293.077 123.477 293.868 122.687C294.658 121.896 295.103 120.825 295.105 119.707V118.9H278.479Z" fill="#263238"/>
<path d="M321.103 77.3288H311.298C311.204 77.3288 311.113 77.2912 311.046 77.2243C310.979 77.1574 310.941 77.0666 310.941 76.972C310.941 76.8774 310.979 76.7866 311.046 76.7197C311.113 76.6528 311.204 76.6152 311.298 76.6152H321.103C321.197 76.6152 321.288 76.6528 321.355 76.7197C321.422 76.7866 321.459 76.8774 321.459 76.972C321.459 77.0666 321.422 77.1574 321.355 77.2243C321.288 77.2912 321.197 77.3288 321.103 77.3288Z" fill="#263238"/>
<path d="M261.499 77.3288H251.509C251.415 77.3288 251.324 77.2912 251.257 77.2243C251.19 77.1574 251.152 77.0666 251.152 76.972C251.152 76.8774 251.19 76.7866 251.257 76.7197C251.324 76.6528 251.415 76.6152 251.509 76.6152H261.499C261.594 76.6152 261.684 76.6528 261.751 76.7197C261.818 76.7866 261.856 76.8774 261.856 76.972C261.854 77.0661 261.816 77.1558 261.749 77.2223C261.683 77.2888 261.593 77.327 261.499 77.3288Z" fill="#263238"/>
<path d="M286.329 52.3891C286.235 52.3891 286.144 52.3515 286.077 52.2846C286.01 52.2177 285.973 52.127 285.973 52.0323V42.1781C285.973 42.0834 286.01 41.9927 286.077 41.9258C286.144 41.8589 286.235 41.8213 286.329 41.8213C286.424 41.8213 286.515 41.8589 286.582 41.9258C286.649 41.9927 286.686 42.0834 286.686 42.1781V52.0323C286.686 52.127 286.649 52.2177 286.582 52.2846C286.515 52.3515 286.424 52.3891 286.329 52.3891Z" fill="#263238"/>
<path d="M304.144 59.5113C304.098 59.511 304.052 59.5014 304.009 59.483C303.966 59.4647 303.927 59.4379 303.895 59.4043C303.861 59.3711 303.835 59.3316 303.817 59.2882C303.798 59.2447 303.789 59.1981 303.789 59.151C303.789 59.1039 303.798 59.0572 303.817 59.0137C303.835 58.9703 303.861 58.9308 303.895 58.8976L310.681 52.0903C310.747 52.0249 310.837 51.9883 310.93 51.9883C311.024 51.9883 311.113 52.0249 311.18 52.0903C311.214 52.1234 311.24 52.1629 311.258 52.2064C311.276 52.2499 311.286 52.2965 311.286 52.3436C311.286 52.3907 311.276 52.4373 311.258 52.4808C311.24 52.5243 311.214 52.5637 311.18 52.5969L304.401 59.3829C304.369 59.4206 304.33 59.4514 304.286 59.4735C304.242 59.4956 304.194 59.5084 304.144 59.5113Z" fill="#263238"/>
<path d="M261.731 101.925C261.636 101.925 261.544 101.889 261.474 101.826C261.408 101.758 261.371 101.667 261.371 101.572C261.371 101.478 261.408 101.387 261.474 101.319L268.36 94.4331C268.393 94.3998 268.432 94.3734 268.476 94.3554C268.519 94.3374 268.566 94.3281 268.613 94.3281C268.66 94.3281 268.707 94.3374 268.75 94.3554C268.793 94.3734 268.833 94.3998 268.866 94.4331C268.899 94.4663 268.926 94.5058 268.944 94.5493C268.962 94.5927 268.971 94.6393 268.971 94.6864C268.971 94.7334 268.962 94.78 268.944 94.8235C268.926 94.8669 268.899 94.9064 268.866 94.9397L261.98 101.826C261.912 101.888 261.823 101.923 261.731 101.925Z" fill="#263238"/>
<path d="M268.3 59.3106C268.206 59.3112 268.117 59.2753 268.05 59.2107L261.457 52.6174C261.389 52.5502 261.352 52.4591 261.352 52.3641C261.352 52.2691 261.389 52.178 261.457 52.1108C261.524 52.0436 261.615 52.0059 261.71 52.0059C261.805 52.0059 261.896 52.0436 261.963 52.1108L268.549 58.7041C268.598 58.754 268.631 58.8171 268.645 58.8856C268.658 58.9542 268.651 59.0251 268.624 59.0897C268.598 59.1543 268.553 59.2096 268.495 59.2489C268.437 59.2882 268.369 59.3096 268.3 59.3106Z" fill="#263238"/>
<path d="M310.931 101.925C310.838 101.924 310.749 101.888 310.681 101.825L304.117 95.26C304.083 95.2267 304.057 95.1872 304.039 95.1438C304.021 95.1003 304.012 95.0537 304.012 95.0067C304.012 94.9596 304.021 94.913 304.039 94.8696C304.057 94.8261 304.083 94.7866 304.117 94.7534C304.15 94.7201 304.189 94.6937 304.233 94.6757C304.276 94.6577 304.323 94.6484 304.37 94.6484C304.417 94.6484 304.464 94.6577 304.507 94.6757C304.551 94.6937 304.59 94.7201 304.623 94.7534L311.181 101.318C311.23 101.368 311.263 101.431 311.276 101.5C311.29 101.568 311.283 101.639 311.256 101.704C311.229 101.768 311.185 101.824 311.127 101.863C311.069 101.902 311.001 101.924 310.931 101.925Z" fill="#263238"/>
<path d="M210.74 126.464V124.244H208.193C208.065 123.01 207.738 121.805 207.222 120.677L209.442 119.399L208.364 117.451L206.145 118.729C205.42 117.717 204.533 116.832 203.519 116.11L204.803 113.891L202.877 112.777L201.592 114.99C200.464 114.476 199.258 114.151 198.025 114.026V111.472H195.798V114.026C194.564 114.151 193.359 114.476 192.23 114.99L190.946 112.777L189.027 113.891L190.304 116.11C189.29 116.832 188.403 117.717 187.678 118.729L185.459 117.451L184.353 119.378L186.565 120.655C186.049 121.783 185.723 122.989 185.601 124.223H183.047V126.442H185.53C185.652 127.677 185.977 128.882 186.493 130.01L184.281 131.287L185.387 133.214L187.607 131.937C188.333 132.947 189.22 133.831 190.232 134.555L188.955 136.775L190.875 137.888L192.159 135.669C193.286 136.188 194.492 136.515 195.727 136.639V139.194H197.953V136.639C199.188 136.515 200.394 136.188 201.521 135.669L202.805 137.888L204.732 136.775L203.448 134.555C204.46 133.831 205.347 132.947 206.074 131.937L208.293 133.214L209.406 131.287L207.187 130.01C207.702 128.881 208.03 127.676 208.157 126.442L210.74 126.464ZM196.861 116.645C199.034 116.651 201.126 117.469 202.726 118.938C204.326 120.408 205.319 122.423 205.51 124.587H198.488C198.342 124.273 198.109 124.006 197.818 123.819C197.526 123.632 197.187 123.532 196.84 123.531C196.752 123.523 196.664 123.523 196.576 123.531L192.923 117.558C194.144 116.945 195.495 116.632 196.861 116.645ZM188.156 125.35C188.152 123.951 188.487 122.571 189.132 121.328C189.777 120.086 190.713 119.018 191.859 118.215L195.52 124.159C195.232 124.486 195.072 124.907 195.07 125.343C195.072 125.74 195.202 126.126 195.441 126.442L191.874 132.465C190.728 131.665 189.792 130.6 189.145 129.362C188.498 128.124 188.159 126.748 188.156 125.35ZM196.861 134.063C195.498 134.06 194.153 133.738 192.937 133.121L196.505 127.127C196.631 127.156 196.76 127.171 196.89 127.17C197.285 127.171 197.668 127.042 197.983 126.803C198.297 126.565 198.525 126.23 198.631 125.85H205.574C205.45 128.074 204.477 130.166 202.856 131.694C201.235 133.222 199.089 134.07 196.861 134.063Z" fill="white"/>
<path d="M216.641 155.591H218.86V153.036C220.095 152.912 221.301 152.584 222.428 152.066L223.706 154.285L225.632 153.165L224.348 150.953C225.36 150.226 226.247 149.339 226.974 148.327L229.193 149.604L230.299 147.677L228.087 146.4C228.6 145.271 228.925 144.066 229.05 142.832H231.598V140.57H229.057C228.93 139.336 228.602 138.131 228.087 137.003L230.299 135.725L229.186 133.799L226.974 135.083C226.245 134.073 225.358 133.186 224.348 132.457L225.625 130.238L223.698 129.132L222.421 131.344C221.293 130.828 220.088 130.502 218.853 130.381V127.826H216.627V130.374C215.393 130.501 214.188 130.829 213.059 131.344L211.775 129.132L209.855 130.245L211.133 132.457C210.121 133.182 209.236 134.069 208.514 135.083L206.295 133.806L205.181 135.732L207.401 137.01C206.885 138.138 206.559 139.343 206.437 140.578H203.883V142.804H206.437C206.562 144.038 206.89 145.244 207.408 146.372L205.167 147.706L206.28 149.633L208.5 148.355C209.228 149.364 210.115 150.248 211.125 150.974L209.848 153.193L211.775 154.306L213.052 152.087C214.18 152.603 215.386 152.929 216.62 153.051L216.641 155.591ZM226.453 141.705C226.452 143.88 225.638 145.976 224.169 147.581C222.701 149.185 220.685 150.182 218.518 150.375V143.353C218.832 143.207 219.098 142.975 219.284 142.683C219.469 142.39 219.568 142.051 219.567 141.705C219.567 141.619 219.567 141.534 219.567 141.448L225.489 137.787C226.11 139.001 226.44 140.342 226.453 141.705ZM217.733 132.999C219.133 132.997 220.512 133.333 221.754 133.977C222.997 134.622 224.065 135.557 224.869 136.703L218.932 140.342C218.606 140.052 218.184 139.892 217.747 139.892C217.353 139.894 216.969 140.024 216.656 140.264L210.633 136.696C211.434 135.556 212.497 134.626 213.733 133.982C214.968 133.339 216.34 133.002 217.733 132.999ZM209.035 141.712C209.034 140.348 209.357 139.003 209.977 137.787L215.963 141.355C215.935 141.484 215.92 141.616 215.921 141.748C215.921 142.143 216.05 142.528 216.29 142.842C216.53 143.157 216.866 143.384 217.248 143.489V150.432C215.023 150.306 212.931 149.331 211.403 147.709C209.875 146.087 209.028 143.941 209.035 141.712Z" fill="white"/>
</g>
<defs>
<clipPath id="clip0_1995_87732">
<rect width="356.78" height="318" fill="white"/>
</clipPath>
</defs>
</svg>
