<svg width="19" height="17" viewBox="0 0 19 17" fill="none" xmlns="http://www.w3.org/2000/svg">
<g clip-path="url(#clip0)">
<path d="M17.1364 2.32411L17.328 2.04044C17.7352 1.43739 17.7887 1.10568 17.7667 0.930969L17.7362 0.688209L17.9092 0.515154L18.293 0.131115L17.8692 -0.292837L17.4698 0.106552L17.3036 0.272718L17.0697 0.250824C16.9087 0.235764 16.6279 0.281708 16.1468 0.578532C15.6683 0.873772 15.0395 1.38752 14.2008 2.22582C13.6641 2.76286 13.0114 3.46304 12.3237 4.23745L13.7801 5.69523C14.5552 5.00738 15.2548 4.35456 15.7922 3.81713L17.1364 2.32411ZM17.1364 2.32411L16.862 2.65572C16.5829 2.9929 16.233 3.37556 15.7923 3.8171L17.1364 2.32411ZM16.0797 5.82718L16.0795 5.82733L16.0795 5.82736C16.0796 5.8273 16.0796 5.82724 16.0797 5.82718ZM7.68561 9.73044C8.49864 8.59115 9.61029 7.21171 10.712 5.93239L12.0668 7.28664C10.7875 8.38901 9.40799 9.50101 8.26878 10.3142C7.63584 10.7661 7.09327 11.1139 6.69055 11.3182C6.6845 11.3213 6.6785 11.3243 6.67256 11.3273C6.6756 11.3212 6.67869 11.3151 6.68182 11.3089C6.88608 10.9061 7.23388 10.3634 7.68561 9.73044ZM6.22401 11.5001C6.21358 11.5015 6.20908 11.5014 6.20944 11.5009C6.2098 11.5005 6.21501 11.4998 6.22401 11.5001ZM6.49986 11.7758C6.50016 11.7847 6.49948 11.7899 6.49906 11.7903C6.49864 11.7907 6.49849 11.7862 6.49986 11.7758Z" fill="#61B565" stroke="#61B565"/>
</g>
<mask id="path-2-inside-1" fill="white">
<path d="M15.0158 9C15.5594 9 16.0062 9.44229 15.9395 9.98172C15.7766 11.2992 15.2877 12.5609 14.5102 13.6495C13.5412 15.0062 12.1726 16.0263 10.5956 16.5672C9.01853 17.1082 7.31192 17.1429 5.71421 16.6665C4.1165 16.1901 2.70754 15.2265 1.68423 13.9103C0.660915 12.5941 0.0743877 10.991 0.00661294 9.32521C-0.0611618 7.65938 0.393203 6.01399 1.30621 4.619C2.21922 3.22401 3.54524 2.14911 5.09897 1.54453C6.34567 1.05942 7.68899 0.896569 9.00592 1.06349C9.54515 1.13183 9.86362 1.67395 9.72962 2.20072C9.59562 2.72748 9.05918 3.03724 8.51764 2.99059C7.60248 2.91177 6.67684 3.04267 5.81275 3.3789C4.6413 3.83473 3.64154 4.64515 2.95317 5.69692C2.26481 6.74868 1.92223 7.98923 1.97333 9.2452C2.02443 10.5012 2.46665 11.7098 3.23818 12.7022C4.00971 13.6945 5.07201 14.421 6.27661 14.7802C7.48122 15.1394 8.76793 15.1132 9.95694 14.7054C11.1459 14.2975 12.1778 13.5284 12.9084 12.5055C13.4473 11.751 13.8023 10.8862 13.9515 9.97984C14.0398 9.44351 14.4723 9 15.0158 9Z"/>
</mask>
<path d="M15.0158 9C15.5594 9 16.0062 9.44229 15.9395 9.98172C15.7766 11.2992 15.2877 12.5609 14.5102 13.6495C13.5412 15.0062 12.1726 16.0263 10.5956 16.5672C9.01853 17.1082 7.31192 17.1429 5.71421 16.6665C4.1165 16.1901 2.70754 15.2265 1.68423 13.9103C0.660915 12.5941 0.0743877 10.991 0.00661294 9.32521C-0.0611618 7.65938 0.393203 6.01399 1.30621 4.619C2.21922 3.22401 3.54524 2.14911 5.09897 1.54453C6.34567 1.05942 7.68899 0.896569 9.00592 1.06349C9.54515 1.13183 9.86362 1.67395 9.72962 2.20072C9.59562 2.72748 9.05918 3.03724 8.51764 2.99059C7.60248 2.91177 6.67684 3.04267 5.81275 3.3789C4.6413 3.83473 3.64154 4.64515 2.95317 5.69692C2.26481 6.74868 1.92223 7.98923 1.97333 9.2452C2.02443 10.5012 2.46665 11.7098 3.23818 12.7022C4.00971 13.6945 5.07201 14.421 6.27661 14.7802C7.48122 15.1394 8.76793 15.1132 9.95694 14.7054C11.1459 14.2975 12.1778 13.5284 12.9084 12.5055C13.4473 11.751 13.8023 10.8862 13.9515 9.97984C14.0398 9.44351 14.4723 9 15.0158 9Z" fill="#61B565" stroke="#61B565" stroke-width="4" mask="url(#path-2-inside-1)"/>
<defs>
<clipPath id="clip0">
<rect width="13" height="13" fill="white" transform="translate(6)"/>
</clipPath>
</defs>
</svg>
