<svg width="40" height="30" viewBox="0 0 40 30" fill="none" xmlns="http://www.w3.org/2000/svg">
<path d="M31.1864 30C28.8362 30 26.7571 29.1111 24.9492 27.3333C23.2316 25.5556 22.3729 23.3333 22.3729 20.6667C22.3729 16.8444 23.0057 13.6 24.2712 10.9333C25.5367 8.26667 26.9379 6.13333 28.4746 4.53333C30.1921 2.66667 32.226 1.15556 34.5763 0L37.2881 3.33334C36.2938 3.95556 35.3446 4.75556 34.4407 5.73333C33.7175 6.53333 33.0396 7.51111 32.4068 8.66667C31.774 9.82222 31.3672 11.1556 31.1864 12.6667C33.5367 12.6667 35.5706 13.5556 37.2881 15.3333C39.096 17.0222 40 19.0222 40 21.3333C40 23.6444 39.096 25.6889 37.2881 27.4667C35.5706 29.1556 33.5367 30 31.1864 30ZM8.81356 30C6.46328 30 4.38418 29.1111 2.57627 27.3333C0.858757 25.5556 0 23.3333 0 20.6667C0 16.8444 0.632768 13.6 1.89831 10.9333C3.16384 8.26667 4.56497 6.13333 6.1017 4.53333C7.81921 2.66667 9.85311 1.15556 12.2034 0L14.9153 3.33334C13.9209 3.95556 12.9718 4.75556 12.0678 5.73333C11.3446 6.53333 10.6667 7.51111 10.0339 8.66667C9.40113 9.82222 8.99435 11.1556 8.81356 12.6667C11.1638 12.6667 13.1977 13.5556 14.9153 15.3333C16.7232 17.0222 17.6271 19.0222 17.6271 21.3333C17.6271 23.6444 16.7232 25.6889 14.9153 27.4667C13.1977 29.1556 11.1638 30 8.81356 30Z" fill="url(#paint0_linear)"/>
<defs>
<linearGradient id="paint0_linear" x1="2.98023e-07" y1="15" x2="39.9629" y2="15" gradientUnits="userSpaceOnUse">
<stop stop-color="#16FF00"/>
<stop offset="1" stop-color="#4DFFC9"/>
<stop offset="1" stop-color="#4DFFC9"/>
</linearGradient>
</defs>
</svg>
