<svg width="18" height="18" viewBox="0 0 18 18" fill="none" xmlns="http://www.w3.org/2000/svg">
<path d="M3.32552 7.38412C3.3787 7.13645 3.44683 6.89372 3.53159 6.65595C3.55153 6.59816 3.57314 6.54202 3.59641 6.48423C3.60804 6.45616 3.61967 6.42809 3.62964 6.40002C3.63463 6.38681 3.78496 6.06587 3.79327 6.05266C3.75172 6.13026 3.64294 6.36865 3.65125 6.35214C3.69944 6.23986 3.75262 6.13088 3.80913 6.0219C3.92546 5.79569 4.08171 5.50486 4.22796 5.29681C4.2612 5.25058 4.26947 5.27557 4.30271 5.22934C4.32099 5.20457 4.33927 5.18145 4.35756 5.15669C4.39245 5.11045 4.08617 5.5188 4.08118 5.5254C4.09614 5.50889 4.37584 5.13357 4.39079 5.11541C4.4689 5.01799 4.552 4.92222 4.63675 4.8281C4.80793 4.64152 4.98908 4.46649 5.18352 4.30303C5.23005 4.2634 5.27825 4.22377 5.32644 4.18579C5.33808 4.17589 5.35137 4.16763 5.363 4.15772C5.3979 4.12965 5.31481 4.19405 5.35137 4.16763C5.37962 4.14617 5.40621 4.12635 5.43447 4.10489C5.5375 4.02893 5.64387 3.95793 5.75189 3.88858C5.97458 3.74823 6.47389 3.50944 6.7132 3.40046C6.73813 3.38891 6.49476 3.49065 6.52135 3.47909C6.53132 3.47414 6.62439 3.43451 6.57951 3.45432C6.53464 3.47248 6.62937 3.43451 6.63934 3.42955C6.67258 3.41634 6.70582 3.40314 6.74072 3.38993C6.86868 3.34204 6.99831 3.29746 7.1296 3.25948C7.38554 3.18353 7.89355 3.09208 8.15779 3.0508C8.18937 3.04585 7.97219 3.0729 8.0021 3.0696C8.0237 3.0663 7.97159 3.07411 7.90013 3.09393C7.66618 3.13716 8.01706 3.0663 8.03035 3.06464C8.09683 3.05639 8.1633 3.04978 8.22812 3.04483C8.35608 3.03327 8.48405 3.02667 8.61202 3.02502C8.86463 3.02006 9.3625 3.06586 9.61345 3.09393C9.64336 3.09723 8.73824 3.02353 8.76816 3.02683C8.80472 3.03179 9.48285 3.05804 9.43798 3.0663C9.44795 3.06464 9.47454 3.07125 9.48285 3.0729C9.546 3.08281 9.60916 3.09271 9.67231 3.10427C9.79529 3.12574 9.91661 3.15216 10.0363 3.18188C10.2756 3.24132 11.0369 3.55748 11.2679 3.64664C11.2962 3.6582 10.7974 3.42625 10.8257 3.43781C10.839 3.44276 10.8539 3.44937 10.8672 3.45432C10.9204 3.47579 11.2762 3.64995 11.2679 3.64664C11.3228 3.67637 10.6869 3.41139 10.7434 3.43781C10.8547 3.489 11.2428 3.63265 11.3508 3.69044C11.5669 3.80767 11.7746 3.93812 11.9724 4.08012C12.0206 4.11479 12.2365 4.28343 12.2814 4.32141C12.2133 4.26362 12.1186 4.1891 12.1352 4.20231C12.1635 4.22542 12.1934 4.24854 12.2217 4.27165C12.3164 4.34926 12.4078 4.43017 12.4975 4.51438C12.677 4.6828 12.8465 4.86278 13.0028 5.05266C13.021 5.07578 13.041 5.09889 13.0593 5.12201C13.0692 5.13357 13.0775 5.14513 13.0875 5.15669C13.1158 5.19136 13.0493 5.10715 13.0775 5.14348C13.1158 5.19466 13.154 5.24585 13.1922 5.29703C13.2653 5.39776 13.3335 5.50178 13.3999 5.60746C13.5329 5.82046 13.6509 6.04337 13.7556 6.27123C13.7689 6.2993 13.7805 6.32737 13.7938 6.35544C13.8271 6.43139 13.7739 6.3059 13.8055 6.38351C13.8304 6.4446 13.8536 6.5057 13.8769 6.56679C13.9218 6.68733 13.9633 6.80951 13.9999 6.93335C14.0365 7.05884 14.0697 7.18433 14.0996 7.31147C14.1378 7.47989 14.3439 7.59547 14.5084 7.54263C14.6863 7.48484 14.781 7.31642 14.7411 7.13645C14.5001 6.07804 13.9716 5.09229 13.2254 4.29972C12.5042 3.53358 11.5802 2.96227 10.5731 2.64525C9.52772 2.31666 8.40096 2.28034 7.33402 2.52141C6.24713 2.76743 5.23504 3.31727 4.434 4.08672C3.64959 4.83801 3.07457 5.79404 2.77875 6.82933C2.74219 6.95482 2.71228 7.08196 2.68402 7.2091C2.64746 7.37752 2.73388 7.57401 2.91669 7.61529C3.08454 7.65161 3.28563 7.5641 3.32552 7.38412Z" fill="url(#paint0_linear)"/>
<path d="M11.2679 3.64664C11.0369 3.55748 10.2756 3.24132 10.0363 3.18188C9.91661 3.15216 9.79529 3.12574 9.67231 3.10427C9.60916 3.09271 9.546 3.08281 9.48285 3.0729C9.47454 3.07125 9.44795 3.06464 9.43798 3.0663C9.48285 3.05804 8.80472 3.03179 8.76816 3.02683C8.73824 3.02353 9.64336 3.09723 9.61345 3.09393C9.3625 3.06586 8.86463 3.02006 8.61202 3.02502C8.48405 3.02667 8.35608 3.03327 8.22812 3.04483C8.1633 3.04978 8.09683 3.05639 8.03035 3.06464C8.01706 3.0663 7.66618 3.13716 7.90013 3.09393C7.97159 3.07411 8.0237 3.0663 8.0021 3.0696C7.97219 3.0729 8.18937 3.04585 8.15779 3.0508C7.89355 3.09208 7.38554 3.18353 7.1296 3.25948C6.99831 3.29746 6.86868 3.34204 6.74072 3.38993C6.70582 3.40314 6.67258 3.41634 6.63934 3.42955C6.62937 3.43451 6.53464 3.47248 6.57951 3.45432C6.62439 3.43451 6.53132 3.47414 6.52135 3.47909C6.49476 3.49065 6.73813 3.38891 6.7132 3.40046C6.47389 3.50944 5.97458 3.74823 5.75189 3.88858C5.64387 3.95793 5.5375 4.02893 5.43447 4.10489C5.40621 4.12635 5.37962 4.14617 5.35137 4.16763C5.31481 4.19405 5.3979 4.12965 5.363 4.15772C5.35137 4.16763 5.33808 4.17589 5.32644 4.18579C5.27825 4.22377 5.23005 4.2634 5.18352 4.30303C4.98908 4.46649 4.80793 4.64152 4.63675 4.8281C4.552 4.92222 4.4689 5.01799 4.39079 5.11541C4.37584 5.13357 4.09614 5.50889 4.08118 5.5254C4.08617 5.5188 4.39246 5.11045 4.35756 5.15669C4.33927 5.18145 4.32099 5.20457 4.30271 5.22934C4.26947 5.27557 4.2612 5.25058 4.22796 5.29681C4.08171 5.50486 3.92546 5.79569 3.80913 6.0219C3.75262 6.13088 3.69944 6.23986 3.65125 6.35214C3.64294 6.36865 3.75172 6.13026 3.79327 6.05266C3.78496 6.06587 3.63463 6.38681 3.62964 6.40002C3.61967 6.42809 3.60804 6.45616 3.59641 6.48423C3.57314 6.54202 3.55153 6.59816 3.53159 6.65595C3.44683 6.89372 3.3787 7.13645 3.32552 7.38412C3.28563 7.5641 3.08454 7.65161 2.91669 7.61529C2.73388 7.57401 2.64746 7.37752 2.68402 7.2091C2.71228 7.08196 2.74219 6.95482 2.77875 6.82933C3.07457 5.79404 3.64959 4.83801 4.434 4.08672C5.23504 3.31727 6.24713 2.76743 7.33402 2.52141C8.40096 2.28034 9.52772 2.31666 10.5731 2.64525C11.5802 2.96227 12.5042 3.53358 13.2254 4.29972C13.9716 5.09229 14.5001 6.07804 14.7411 7.13645C14.781 7.31642 14.6863 7.48484 14.5084 7.54263C14.3439 7.59547 14.1378 7.47989 14.0996 7.31147C14.0697 7.18433 14.0365 7.05884 13.9999 6.93335C13.9633 6.80951 13.9218 6.68733 13.8769 6.56679C13.8536 6.5057 13.8304 6.4446 13.8055 6.38351C13.7739 6.3059 13.8271 6.43139 13.7938 6.35544C13.7805 6.32737 13.7689 6.2993 13.7556 6.27123C13.6509 6.04337 13.5329 5.82046 13.3999 5.60746C13.3335 5.50178 13.2653 5.39776 13.1922 5.29703C13.154 5.24585 13.1158 5.19466 13.0775 5.14348C13.0493 5.10715 13.1158 5.19136 13.0875 5.15669C13.0775 5.14513 13.0692 5.13357 13.0593 5.12201C13.041 5.09889 13.021 5.07578 13.0028 5.05266C12.8465 4.86278 12.677 4.6828 12.4975 4.51438C12.4078 4.43017 12.3164 4.34926 12.2217 4.27165C12.1934 4.24854 12.1635 4.22542 12.1352 4.20231C12.1186 4.1891 12.2133 4.26362 12.2814 4.32141C12.2365 4.28343 12.0206 4.11479 11.9724 4.08012C11.7746 3.93812 11.5669 3.80767 11.3508 3.69044C11.2428 3.63265 10.8547 3.489 10.7434 3.43781C10.6869 3.41139 11.3228 3.67637 11.2679 3.64664ZM11.2679 3.64664C11.2962 3.6582 10.7974 3.42625 10.8257 3.43781C10.839 3.44276 10.8539 3.44937 10.8672 3.45432C10.9204 3.47579 11.2762 3.64995 11.2679 3.64664Z" stroke="url(#paint1_linear)" stroke-width="0.6"/>
<path d="M15.344 5.28673C15.0963 5.99013 14.8487 6.69519 14.6011 7.39859C14.5662 7.49766 14.5691 7.2615 14.5342 7.36222C14.6705 7.28461 14.769 7.54389 14.9052 7.46629C14.1973 7.22026 13.4876 6.97424 12.7797 6.72821C12.68 6.69354 12.5802 6.65886 12.4789 6.62419C12.3143 6.5664 12.1083 6.68858 12.07 6.85535C12.0285 7.04028 12.1265 7.20045 12.3027 7.26154C13.0107 7.50757 13.7203 7.75359 14.4283 7.99962C14.528 8.03429 14.6277 8.06897 14.7291 8.10364C14.9069 8.16474 15.0814 8.03264 15.1379 7.87248C15.3855 7.16908 15.6331 6.46402 15.8808 5.76062C15.9157 5.66155 15.9506 5.56248 15.9855 5.46176C16.0436 5.29829 15.9206 5.09355 15.7528 5.05557C15.5667 5.01429 15.4055 5.11171 15.344 5.28673Z" fill="url(#paint2_linear)" stroke="url(#paint3_linear)" stroke-width="0.6"/>
<path d="M14.596 10.1132C14.5428 10.3609 14.4747 10.6036 14.3899 10.8413C14.37 10.8991 14.3484 10.9553 14.3251 11.0131C14.3135 11.0411 14.3019 11.0692 14.2919 11.0973C14.2869 11.1105 14.2139 11.2749 14.2056 11.2881C14.2472 11.2105 14.3899 10.8413 14.2703 11.1452C14.2221 11.2574 14.1689 11.3664 14.1124 11.4754C13.9961 11.7016 13.8648 11.9212 13.7185 12.1293C13.6853 12.1755 13.652 12.2217 13.6188 12.268C13.6005 12.2927 13.5822 12.3158 13.564 12.3406C13.5291 12.3868 13.995 12.0067 14 12.0001C13.985 12.0166 13.5457 12.3637 13.5307 12.3819C13.4526 12.4793 13.3695 12.5751 13.2848 12.6692C13.1136 12.8558 12.9324 13.0308 12.738 13.1943C12.6915 13.2339 12.6433 13.2735 12.5951 13.3115C12.5834 13.3214 12.5702 13.3297 12.5585 13.3396C12.5236 13.3676 12.6067 13.3032 12.5702 13.3297C12.5419 13.3511 12.5153 13.3709 12.4871 13.3924C12.384 13.4684 12.2777 13.5394 12.1696 13.6087C11.9469 13.7491 11.3266 14.0327 11.0872 14.1416C11.0623 14.1532 11.4268 14.0066 11.4002 14.0182C11.3902 14.0232 11.2971 14.0628 11.342 14.043C11.3869 14.0248 11.2922 14.0628 11.2822 14.0677C11.2489 14.081 11.2157 14.0942 11.1808 14.1074C11.0528 14.1553 10.9232 14.1998 10.7919 14.2378C10.536 14.3138 10.2767 14.3732 10.0125 14.4145C9.98091 14.4194 9.94934 14.4244 9.91942 14.4277C9.89782 14.431 10.516 14.5803 10.5875 14.5605C10.5742 14.5638 9.90447 14.431 9.89117 14.4327C9.8247 14.4409 9.75822 14.4475 9.69341 14.4525C9.56544 14.464 9.43747 14.4706 9.30951 14.4723C9.0569 14.4772 8.80429 14.4657 8.55334 14.4376C8.52343 14.4343 7.93668 14.324 7.90676 14.3207C7.8702 14.3158 8.43867 14.4393 8.48354 14.431C8.47357 14.4327 8.44698 14.426 8.43867 14.4244C8.37552 14.4145 8.31237 14.4046 8.24922 14.393C8.12624 14.3716 8.00492 14.3451 7.88526 14.3154C7.64595 14.256 7.40996 14.1817 7.17895 14.0925C7.1507 14.081 7.12411 14.071 7.09586 14.0595C7.08256 14.0545 7.06761 14.0479 7.05431 14.043C7.00113 14.0215 7.26014 14.1229 7.26844 14.1262C7.2136 14.0965 6.95626 13.9984 6.89975 13.972C6.78841 13.9208 6.67872 13.8646 6.5707 13.8069C6.35465 13.6896 6.14691 13.5592 5.94915 13.4172C5.90095 13.3825 5.46886 13.3121 5.42399 13.2741C5.49213 13.3319 6.02355 13.4713 6.00693 13.4581C5.97868 13.435 5.72812 13.2488 5.69986 13.2256C5.60514 13.148 5.51373 13.0671 5.42399 12.9829C5.2445 12.8145 5.07499 12.6345 4.91877 12.4446C4.90049 12.4215 4.88055 12.3984 4.86227 12.3753C4.8523 12.3637 4.84399 12.3522 4.83401 12.3406C4.80576 12.3059 4.87224 12.3901 4.84399 12.3538C4.80576 12.3026 4.76754 12.2514 4.72932 12.2003C4.65619 12.0995 4.58805 11.9955 4.52158 11.8898C4.38863 11.6768 4.27063 11.4539 4.16593 11.2261C4.15264 11.198 4.141 11.1699 4.12771 11.1419C4.09447 11.0659 4.14765 11.1914 4.11607 11.1138C4.09115 11.0527 4.06788 10.9916 4.04461 10.9305C3.99974 10.81 3.95819 10.6878 3.92163 10.5639C3.88507 10.4385 3.85183 10.313 3.82192 10.1858C3.78369 10.0174 3.57762 9.90183 3.41309 9.95466C3.23527 10.0125 3.14054 10.1809 3.18043 10.3609C3.4214 11.4193 3.94988 12.405 4.69608 13.1976C5.41734 13.9637 6.34136 14.535 7.34847 14.8521C8.3938 15.1806 9.52057 15.217 10.5875 14.9759C11.6744 14.7299 12.6865 14.18 13.4875 13.4106C14.2653 12.6626 14.8403 11.7066 15.1361 10.6713C15.1727 10.5458 15.2026 10.4186 15.2309 10.2915C15.2674 10.1231 15.181 9.92659 14.9982 9.88531C14.837 9.84404 14.6342 9.93155 14.596 10.1132Z" fill="url(#paint4_linear)" stroke="url(#paint5_linear)" stroke-width="0.6"/>
<path d="M2.97644 12.7633C3.22406 12.0599 3.47168 11.3548 3.7193 10.6514C3.7542 10.5524 3.6844 10.5684 3.7193 10.4677C3.58303 10.5453 3.55145 10.5061 3.41518 10.5837C4.12315 10.8298 4.83278 11.0758 5.54074 11.3218C5.64046 11.3565 5.74017 11.3912 5.84155 11.4258C6.00608 11.4836 6.21215 11.3614 6.25038 11.1947C6.29192 11.0097 6.19387 10.8496 6.01771 10.7885C5.30974 10.5424 4.60011 10.2964 3.89214 10.0504C3.79243 10.0157 3.69271 9.98105 3.59134 9.94637C3.41351 9.88528 3.23902 10.0174 3.18251 10.1775C2.93489 10.8809 2.68727 11.586 2.43964 12.2894C2.40474 12.3885 2.36984 12.4875 2.33494 12.5883C2.27678 12.7517 2.39976 12.9565 2.56761 12.9944C2.75208 13.0374 2.91495 12.9383 2.97644 12.7633Z" fill="url(#paint6_linear)" stroke="url(#paint7_linear)" stroke-width="0.6"/>
<defs>
<linearGradient id="paint0_linear" x1="2.67578" y1="4.99443" x2="14.7389" y2="4.99443" gradientUnits="userSpaceOnUse">
<stop stop-color="#16FF00"/>
<stop offset="1" stop-color="#4DFFC9"/>
<stop offset="1" stop-color="#4DFFC9"/>
</linearGradient>
<linearGradient id="paint1_linear" x1="2.67578" y1="4.99443" x2="14.7389" y2="4.99443" gradientUnits="userSpaceOnUse">
<stop stop-color="#16FF00"/>
<stop offset="1" stop-color="#4DFFC9"/>
<stop offset="1" stop-color="#4DFFC9"/>
</linearGradient>
<linearGradient id="paint2_linear" x1="12.0605" y1="6.5825" x2="15.9964" y2="6.5825" gradientUnits="userSpaceOnUse">
<stop stop-color="#16FF00"/>
<stop offset="1" stop-color="#4DFFC9"/>
<stop offset="1" stop-color="#4DFFC9"/>
</linearGradient>
<linearGradient id="paint3_linear" x1="12.0605" y1="6.5825" x2="15.9964" y2="6.5825" gradientUnits="userSpaceOnUse">
<stop stop-color="#16FF00"/>
<stop offset="1" stop-color="#4DFFC9"/>
<stop offset="1" stop-color="#4DFFC9"/>
</linearGradient>
<linearGradient id="paint4_linear" x1="3.17139" y1="12.5035" x2="15.2279" y2="12.5035" gradientUnits="userSpaceOnUse">
<stop stop-color="#16FF00"/>
<stop offset="1" stop-color="#4DFFC9"/>
<stop offset="1" stop-color="#4DFFC9"/>
</linearGradient>
<linearGradient id="paint5_linear" x1="3.17139" y1="12.5035" x2="15.2279" y2="12.5035" gradientUnits="userSpaceOnUse">
<stop stop-color="#16FF00"/>
<stop offset="1" stop-color="#4DFFC9"/>
<stop offset="1" stop-color="#4DFFC9"/>
</linearGradient>
<linearGradient id="paint6_linear" x1="2.32031" y1="11.4678" x2="6.25621" y2="11.4678" gradientUnits="userSpaceOnUse">
<stop stop-color="#16FF00"/>
<stop offset="1" stop-color="#4DFFC9"/>
<stop offset="1" stop-color="#4DFFC9"/>
</linearGradient>
<linearGradient id="paint7_linear" x1="2.32031" y1="11.4678" x2="6.25621" y2="11.4678" gradientUnits="userSpaceOnUse">
<stop stop-color="#16FF00"/>
<stop offset="1" stop-color="#4DFFC9"/>
<stop offset="1" stop-color="#4DFFC9"/>
</linearGradient>
</defs>
</svg>
