<?xml version="1.0" standalone="no"?>
<!DOCTYPE svg PUBLIC "-//W3C//DTD SVG 20010904//EN"
 "http://www.w3.org/TR/2001/REC-SVG-20010904/DTD/svg10.dtd">
<svg version="1.0" xmlns="http://www.w3.org/2000/svg"
 width="1248.000000pt" height="1248.000000pt" viewBox="0 0 1248.000000 1248.000000"
 preserveAspectRatio="xMidYMid meet">
<metadata>
Created by potrace 1.11, written by Peter Selinger 2001-2013
</metadata>
<g transform="translate(0.000000,1248.000000) scale(0.100000,-0.100000)"
fill="#000000" stroke="none">
<path d="M4744 10078 c0 -77 -12 -305 -19 -373 -2 -22 -6 -65 -9 -95 -3 -30
-8 -71 -11 -90 -6 -41 -16 -116 -19 -145 -2 -11 -6 -31 -9 -45 -4 -14 -9 -42
-12 -62 -2 -21 -9 -58 -15 -83 -6 -26 -8 -50 -5 -55 3 -4 1 -10 -4 -12 -5 -1
-11 -19 -14 -38 -7 -41 -11 -57 -20 -85 -3 -11 -8 -31 -11 -45 -7 -38 -13 -59
-36 -135 -11 -38 -23 -80 -25 -91 -3 -12 -25 -80 -50 -150 -25 -71 -47 -136
-50 -144 -6 -25 -73 -187 -110 -266 -18 -41 -31 -74 -29 -74 3 0 -2 -7 -10
-16 -9 -8 -14 -20 -11 -25 4 -5 2 -9 -3 -9 -5 0 -13 -10 -17 -22 -4 -13 -8
-25 -9 -28 -1 -3 -10 -21 -20 -40 -81 -154 -114 -212 -143 -259 -19 -30 -38
-61 -42 -70 -10 -26 -84 -136 -93 -139 -4 -2 -8 -8 -8 -14 0 -10 -111 -172
-149 -218 -33 -40 -35 -42 -78 -100 -22 -30 -50 -66 -62 -80 -12 -14 -43 -50
-69 -80 -69 -80 -174 -190 -282 -295 -145 -141 -160 -155 -170 -155 -6 0 -10
-4 -10 -8 0 -5 -41 -42 -91 -83 -50 -41 -103 -84 -118 -97 -46 -39 -290 -212
-300 -212 -5 0 -11 -3 -13 -7 -7 -18 -226 -150 -384 -234 -66 -34 -123 -66
-128 -70 -6 -5 -18 -9 -28 -9 -10 0 -18 -4 -18 -10 0 -5 -6 -10 -12 -10 -7 0
-26 -7 -43 -16 -62 -33 -382 -164 -402 -166 -5 0 -30 -9 -57 -19 -50 -20 -332
-106 -369 -113 -12 -2 -42 -9 -67 -16 -25 -7 -54 -14 -65 -16 -11 -2 -65 -13
-120 -24 -109 -21 -195 -36 -265 -45 -25 -3 -56 -8 -70 -10 -76 -13 -376 -33
-507 -34 l-63 -1 0 -1511 0 -1511 208 7 c213 7 230 7 392 20 161 12 184 14
225 20 22 3 56 7 75 9 58 7 134 17 160 22 14 3 41 7 60 9 35 4 54 7 140 21 25
4 52 8 60 9 8 1 29 5 45 8 32 8 64 14 108 22 15 3 60 12 100 21 103 22 109 23
145 30 18 3 35 10 38 15 3 5 9 7 12 5 4 -2 43 5 87 15 44 11 91 22 104 25 14
3 28 7 33 10 4 3 16 7 27 9 40 7 266 76 333 101 21 8 38 11 38 8 0 -4 6 -2 13
4 12 10 102 37 102 31 0 -2 11 4 25 14 13 9 30 17 37 17 13 0 213 75 278 104
25 12 66 27 85 31 3 1 40 18 83 38 42 20 80 37 84 37 7 0 38 14 263 123 133
64 391 201 475 252 22 14 72 43 110 65 39 23 89 53 113 68 138 88 209 134 306
202 59 41 115 80 124 85 9 6 25 18 36 28 12 10 37 28 56 40 19 11 37 24 40 28
7 10 113 89 120 89 3 0 5 -368 5 -818 l1 -817 159 1 c148 1 372 10 455 19 19
2 64 6 100 10 36 3 81 8 100 10 19 2 60 6 90 9 65 7 116 14 150 21 14 3 45 7
70 10 45 6 64 9 130 20 19 4 46 8 60 10 14 2 50 9 80 15 30 7 66 13 80 15 14
2 36 6 50 10 14 3 39 8 55 11 17 3 37 7 45 10 8 3 29 8 45 11 17 2 62 13 100
23 39 10 81 21 95 23 14 3 50 12 81 21 31 9 67 19 80 21 13 3 35 9 49 14 14 5
52 17 85 26 33 9 67 19 75 22 8 3 21 7 27 9 25 5 229 73 265 88 21 9 40 16 43
16 14 1 289 106 324 125 17 8 31 13 31 10 0 -4 12 1 28 9 15 8 43 22 62 30 19
8 70 30 113 50 44 20 81 36 83 36 13 0 390 194 396 203 4 7 8 9 8 5 0 -9 132
62 142 76 4 6 8 7 8 2 0 -5 8 -2 18 6 19 18 78 49 88 47 4 0 10 4 13 9 3 5 20
18 38 28 83 49 185 111 251 155 40 27 77 49 82 49 6 0 10 4 10 8 0 5 12 15 28
23 15 8 29 16 32 19 17 17 80 60 88 60 6 0 12 3 14 8 2 4 46 37 98 74 52 37
104 75 115 85 42 37 97 75 102 70 2 -3 5 -343 5 -756 l0 -751 31 0 c45 -1
2918 -1 2940 0 16 0 17 190 17 3850 l0 3850 -1495 0 -1495 0 -1 -97 c-1 -98
-6 -248 -9 -248 -1 0 -3 -22 -5 -50 -5 -63 -15 -170 -21 -215 -16 -120 -24
-170 -44 -285 -9 -47 -12 -64 -25 -125 -3 -14 -7 -34 -9 -45 -3 -11 -12 -49
-21 -85 -8 -36 -18 -73 -20 -82 -22 -96 -130 -437 -155 -493 -5 -11 -19 -45
-30 -75 -25 -65 -47 -118 -60 -142 -6 -10 -10 -25 -10 -33 0 -8 -4 -15 -10
-15 -5 0 -10 -6 -10 -14 0 -8 -13 -41 -30 -74 -16 -34 -30 -64 -30 -67 0 -4
-9 -20 -21 -36 -11 -16 -18 -29 -15 -29 3 0 -4 -17 -16 -37 -60 -106 -90 -161
-101 -185 -6 -16 -15 -28 -19 -28 -4 0 -8 -6 -8 -14 0 -8 -3 -16 -7 -18 -5 -1
-17 -19 -27 -38 -29 -52 -209 -323 -226 -340 -3 -3 -18 -23 -35 -45 -16 -22
-34 -45 -40 -51 -5 -6 -17 -22 -25 -34 -8 -12 -20 -28 -25 -34 -32 -36 -125
-145 -141 -165 -33 -42 -356 -364 -423 -421 -36 -30 -78 -67 -95 -82 -17 -16
-33 -28 -36 -28 -3 0 -5 839 -5 1865 l0 1865 -1495 0 -1496 0 0 -72z"/>
</g>
</svg>
