<svg width="23" height="23" viewBox="0 0 23 23" fill="none" xmlns="http://www.w3.org/2000/svg">
<path fill-rule="evenodd" clip-rule="evenodd" d="M16.9842 5.97123C16.2218 5.20387 15.3148 4.59542 14.3156 4.18111C13.3164 3.76681 12.245 3.55489 11.1633 3.55764C6.62766 3.55764 2.93533 7.24906 2.9335 11.7866C2.9335 13.2367 3.31208 14.6521 4.03166 15.9006L2.86475 20.164L7.22716 19.0191C8.43386 19.6759 9.78576 20.0204 11.1597 20.021H11.1633C15.6981 20.021 19.3904 16.3296 19.3922 11.7921C19.3954 10.7108 19.1841 9.63972 18.7708 8.64061C18.3575 7.64151 17.7502 6.73423 16.9842 5.97123ZM11.1633 18.6322H11.1606C9.93547 18.6324 8.73291 18.3027 7.67908 17.678L7.42975 17.5295L4.84108 18.2087L5.53133 15.6851L5.36908 15.4266C4.68413 14.3362 4.32154 13.0743 4.32316 11.7866C4.325 8.01539 7.39308 4.94731 11.1661 4.94731C12.0646 4.94531 12.9547 5.12155 13.7847 5.46582C14.6147 5.8101 15.3681 6.31556 16.0015 6.95298C16.6382 7.58735 17.1429 8.34163 17.4864 9.17222C17.8299 10.0028 18.0053 10.8933 18.0026 11.7921C18.0007 15.5632 14.9327 18.6322 11.1633 18.6322ZM14.9152 13.509C14.709 13.4054 13.6988 12.9086 13.51 12.8398C13.3221 12.7711 13.1855 12.7371 13.048 12.9425C12.9105 13.1478 12.5163 13.6107 12.3962 13.7482C12.2762 13.8857 12.1561 13.9022 11.9507 13.7996C11.7454 13.6969 11.0827 13.4796 10.2971 12.7793C9.68566 12.2339 9.27316 11.5611 9.15308 11.3548C9.033 11.1486 9.14024 11.0376 9.24383 10.935C9.33641 10.8433 9.44916 10.6948 9.55183 10.5747C9.6545 10.4546 9.68841 10.3694 9.75716 10.2319C9.82591 10.0944 9.792 9.97431 9.73975 9.87164C9.68841 9.76806 9.27683 8.75606 9.10541 8.34448C8.9395 7.94573 8.76991 7.99889 8.64341 7.99339C8.5124 7.98803 8.38128 7.98559 8.25016 7.98606C8.1459 7.98872 8.0433 8.01289 7.94882 8.05705C7.85433 8.10122 7.76999 8.16443 7.70108 8.24273C7.51225 8.44898 6.9815 8.94581 6.9815 9.95781C6.9815 10.9698 7.7185 11.9479 7.82116 12.0854C7.92383 12.2229 9.27133 14.2991 11.3338 15.1901C11.8252 15.4019 12.2083 15.5284 12.5062 15.6237C12.9985 15.7805 13.4467 15.7576 13.8015 15.7053C14.1966 15.6466 15.0179 15.2085 15.1893 14.7281C15.3607 14.2478 15.3607 13.8362 15.3094 13.7501C15.2581 13.6639 15.1197 13.6116 14.9152 13.509Z" fill="white"/>
</svg>
