<svg width="9" height="16" viewBox="0 0 9 16" fill="none" xmlns="http://www.w3.org/2000/svg">
                        <path fill-rule="evenodd" clip-rule="evenodd" d="M4.48981 2.41977C5.40539 2.41977 6.15013 3.18634 6.15013 4.12906C6.15013 5.07102 5.40539 5.83809 4.48981 5.83809C3.57496 5.83809 2.8295 5.07102 2.8295 4.12906C2.8295 3.18634 3.57496 2.41977 4.48981 2.41977ZM4.48981 8.25688C2.27838 8.25688 0.47986 6.4053 0.47986 4.12906C0.47986 1.85207 2.27838 0 4.48981 0C6.70173 0 8.49977 1.85207 8.49977 4.12906C8.49977 6.4053 6.70173 8.25688 4.48981 8.25688ZM6.12248 11.6269L8.36414 13.9352C8.82337 14.4071 8.82337 15.1734 8.36414 15.6457C7.9054 16.1181 7.16185 16.1181 6.70359 15.6457L4.49959 13.3774L2.29751 15.6457C2.0679 15.8817 1.76702 15.9998 1.46615 15.9998C1.16576 15.9998 0.865368 15.8817 0.635754 15.6457C0.177008 15.1734 0.177008 14.4076 0.635275 13.9352L2.87718 11.6269C2.06094 11.4354 1.27373 11.1024 0.548659 10.634C-6.10352e-05 10.2778 -0.164892 9.53146 0.180847 8.96598C0.525627 8.39976 1.25069 8.2293 1.80037 8.58554C3.44198 9.64881 5.55672 9.64905 7.19928 8.58554C7.74896 8.2293 8.47379 8.39976 8.81929 8.96598C9.16503 9.53097 8.99972 10.2778 8.451 10.634C7.72593 11.1029 6.93872 11.4354 6.12248 11.6269Z" fill="white"/>
                    </svg>