<svg width="52" height="51" viewBox="0 0 52 51" fill="none" xmlns="http://www.w3.org/2000/svg">
<path d="M25.1751 1.20359C25.5723 0.624013 26.4277 0.624014 26.8249 1.20359L35.6738 14.1152C35.8038 14.3049 35.9953 14.444 36.2159 14.5091L51.23 18.935C51.904 19.1336 52.1683 19.9471 51.7398 20.504L42.1946 32.9097C42.0543 33.0919 41.9812 33.317 41.9875 33.547L42.4179 49.1939C42.4372 49.8963 41.7452 50.399 41.0832 50.1636L26.335 44.9191C26.1183 44.8421 25.8817 44.8421 25.665 44.9191L10.9168 50.1636C10.2548 50.399 9.56281 49.8963 9.58213 49.1939L10.0125 33.547C10.0188 33.317 9.94567 33.0919 9.8054 32.9097L0.260196 20.504C-0.168266 19.9471 0.096045 19.1336 0.769995 18.935L15.7841 14.5091C16.0047 14.444 16.1962 14.3049 16.3262 14.1152L25.1751 1.20359Z" fill="#FABF2C"/>
<path d="M25.1751 1.20359C25.5723 0.624013 26.4277 0.624014 26.8249 1.20359L35.6738 14.1152C35.8038 14.3049 35.9953 14.444 36.2159 14.5091L51.23 18.935C51.904 19.1336 52.1683 19.9471 51.7398 20.504L42.1946 32.9097C42.0543 33.0919 41.9812 33.317 41.9875 33.547L42.4179 49.1939C42.4372 49.8963 41.7452 50.399 41.0832 50.1636L26.335 44.9191C26.1183 44.8421 25.8817 44.8421 25.665 44.9191L10.9168 50.1636C10.2548 50.399 9.56281 49.8963 9.58213 49.1939L10.0125 33.547C10.0188 33.317 9.94567 33.0919 9.8054 32.9097L0.260196 20.504C-0.168266 19.9471 0.096045 19.1336 0.769995 18.935L15.7841 14.5091C16.0047 14.444 16.1962 14.3049 16.3262 14.1152L25.1751 1.20359Z" fill="url(#paint0_linear)"/>
<defs>
<linearGradient id="paint0_linear" x1="26" y1="0" x2="26" y2="56" gradientUnits="userSpaceOnUse">
<stop stop-color="#FFC534"/>
<stop offset="1" stop-color="#FFA800" stop-opacity="0.58"/>
</linearGradient>
</defs>
</svg>
