<svg width="18" height="18" viewBox="0 0 18 18" fill="none" xmlns="http://www.w3.org/2000/svg">
<circle cx="9" cy="9" r="9" fill="url(#paint0_linear)"/>
<path d="M11.8936 4.57306H15V12.7353H11.8936V11.0277" stroke="black"/>
<path d="M10.053 4.57306V8.49996" stroke="black"/>
<path d="M6.8345 11.0946C5.4487 12.1498 3.75457 12.7307 2.00098 12.7327V9.58838C3.31322 9.58672 4.57115 9.05731 5.49847 8.11644C6.42578 7.17558 6.94665 5.90019 6.94665 4.57043H10.0531C10.0518 6.24466 9.54334 7.86557 8.61403 9.2222" stroke="black"/>
<path d="M6.94653 12.7327V9.58838C8.25893 9.58696 9.51709 9.05765 10.4446 8.11676C11.3721 7.17587 11.8931 5.90035 11.8931 4.57043H14.9995C14.9976 6.7343 14.1486 8.80902 12.6389 10.3393C11.1291 11.8695 9.0819 12.7303 6.94653 12.7327Z" stroke="black"/>
<defs>
<linearGradient id="paint0_linear" x1="1.3411e-07" y1="9" x2="17.9833" y2="9" gradientUnits="userSpaceOnUse">
<stop stop-color="#16FF00"/>
<stop offset="1" stop-color="#4DFFC9"/>
</linearGradient>
</defs>
</svg>
