<svg width="298" height="13" viewBox="0 0 298 13" fill="none" xmlns="http://www.w3.org/2000/svg">
<path fill-rule="evenodd" clip-rule="evenodd" d="M134.12 8.16291C135.4 7.4239 135.4 5.57638 134.12 4.83737L127.88 1.23471C126.6 0.495697 125 1.41946 125 2.89747V5.99999H124.167V7.99999H125V10.1028C125 11.5808 126.6 12.5046 127.88 11.7656L134.12 8.16291ZM1.78814e-07 8H0.993334L0.993333 6H0L1.78814e-07 8ZM4.96667 8H6.95333V6H4.96667V8ZM10.9267 8H12.9133V6H10.9267V8ZM16.8867 8H18.8733V6H16.8867V8ZM22.8467 8L24.8333 8V6L22.8467 6V8ZM28.8067 8L30.7933 8V6L28.8067 6V8ZM34.7667 8L36.7533 8V6L34.7667 6V8ZM40.7267 8L42.7133 8V6L40.7267 6V8ZM46.6867 8H48.6733V6H46.6867V8ZM52.6467 8H54.6333V6H52.6467V8ZM58.6067 7.99999H60.5933V5.99999H58.6067V7.99999ZM64.5667 7.99999H66.5533V5.99999H64.5667V7.99999ZM70.5267 7.99999H72.5133V5.99999H70.5267V7.99999ZM76.4867 7.99999H78.4733V5.99999H76.4867V7.99999ZM82.4467 7.99999H84.4333V5.99999H82.4467V7.99999ZM88.4067 7.99999L90.3933 7.99999V5.99999L88.4067 5.99999V7.99999ZM94.3667 7.99999L96.3533 7.99999V5.99999L94.3667 5.99999V7.99999ZM100.327 7.99999L102.313 7.99999V5.99999L100.327 5.99999V7.99999ZM106.287 7.99999L108.273 7.99999V5.99999L106.287 5.99999V7.99999ZM112.247 7.99999H114.233V5.99999H112.247V7.99999ZM118.207 7.99999H120.193V5.99999H118.207V7.99999ZM136.087 7.99999H138.073V5.99999H136.087V7.99999ZM142.047 7.99999H144.033V5.99999H142.047V7.99999ZM148.007 7.99999H149.993V5.99999H148.007V7.99999ZM153.967 7.99999L155.953 7.99999V5.99999L153.967 5.99999V7.99999ZM159.927 7.99999L161.913 7.99999V5.99999L159.927 5.99999V7.99999ZM165.887 7.99999L167.873 7.99999V5.99999L165.887 5.99999V7.99999ZM171.847 7.99998H173.833V5.99998H171.847V7.99998ZM177.807 7.99998H179.793V5.99998H177.807V7.99998ZM183.767 7.99998H185.753V5.99998H183.767V7.99998ZM189.727 7.99998H191.713V5.99998H189.727V7.99998ZM195.687 7.99998H197.673V5.99998H195.687V7.99998ZM201.647 7.99998H203.633V5.99998H201.647V7.99998ZM207.607 7.99998H209.593V5.99998H207.607V7.99998ZM213.567 7.99998L215.553 7.99998V5.99998L213.567 5.99998V7.99998ZM219.527 7.99998L221.513 7.99998V5.99998L219.527 5.99998V7.99998ZM225.486 7.99998L227.473 7.99998V5.99998L225.486 5.99998V7.99998ZM231.447 7.99998L233.433 7.99998V5.99998L231.447 5.99998V7.99998ZM237.406 7.99998H239.393V5.99998H237.406V7.99998ZM243.366 7.99998H245.353V5.99998H243.366V7.99998ZM249.326 7.99998H251.313V5.99998H249.326V7.99998ZM255.286 7.99998H257.273V5.99998H255.286V7.99998ZM261.246 7.99998H263.233V5.99998H261.246V7.99998ZM267.206 7.99998H269.193V5.99998H267.206V7.99998ZM273.166 7.99998H275.153V5.99998H273.166V7.99998ZM279.126 7.99998L281.113 7.99998V5.99998L279.126 5.99998V7.99998ZM285.086 7.99998L287.073 7.99997V5.99997L285.086 5.99998V7.99998ZM291.046 7.99997L293.033 7.99997V5.99997L291.046 5.99997V7.99997ZM297.006 7.99997L298 7.99997V5.99997L297.006 5.99997V7.99997Z" fill="#DFE0E4"/>
</svg>
