<svg width="544" height="351" viewBox="0 0 544 351" fill="currentColo" xmlns="http://www.w3.org/2000/svg">
<path d="M270.885 21.1731C270.513 22.0981 270.035 22.9718 269.875 23.1259C269.397 23.5371 266.157 28.6761 264.297 32.1193C261.588 36.9501 260.632 38.5432 260.207 38.5432C259.941 38.5432 259.782 38.8515 259.782 39.2627C259.782 39.6224 258.772 41.6267 257.55 43.6309C254.469 48.6672 252.45 52.0076 251.972 52.9327C251.76 53.3438 250.857 54.8341 249.953 56.2731C249.05 57.6606 247.882 59.7163 247.297 60.7441C246.713 61.8233 246.075 62.6969 245.863 62.6969C245.597 62.6969 245.438 63.0567 245.438 63.4678C245.438 64.1873 244.482 65.8832 241.347 70.7139C240.975 71.2278 240.285 72.5126 239.807 73.489C239.275 74.4655 238.585 75.6474 238.213 76.0586C237.894 76.4697 237.097 77.6517 236.566 78.6281C233.06 84.6922 232.05 86.3881 229.66 90.1911C229.288 90.7564 228.385 92.3495 227.588 93.7884C226.844 95.176 225.888 96.7177 225.463 97.1802C225.038 97.5914 224.719 98.2595 224.719 98.6192C224.719 98.9275 224.294 99.8526 223.763 100.623C221.532 103.861 220.682 105.197 219.938 106.636C219.513 107.458 218.716 108.846 218.078 109.72C217.441 110.542 216.538 112.084 216.007 113.06C215.528 114.036 214.678 115.527 214.147 116.4C211.438 120.717 207.719 127.141 207.719 127.501C207.719 127.706 207.56 127.963 207.347 128.066C207.082 128.118 206.444 129.145 205.86 130.276C205.328 131.407 204.372 133 203.735 133.822C202.672 135.312 201.503 137.317 199.485 141.119C198.953 142.25 198.157 143.432 197.785 143.792C197.094 144.511 196.244 146.875 196.616 147.184C196.722 147.235 198.103 147.184 199.697 147.029C202.088 146.772 202.725 146.464 203.416 145.334C205.01 142.815 207.878 137.985 208.835 136.34C209.95 134.439 211.969 131.15 212.925 129.762C213.244 129.197 213.722 128.375 213.935 127.963C214.094 127.552 214.785 126.524 215.369 125.651C216.007 124.829 216.963 123.184 217.6 122.053C218.185 120.923 219.46 118.61 220.469 116.914C221.425 115.218 222.7 113.009 223.285 112.032C223.816 111.056 224.56 109.874 224.932 109.463C225.303 109.052 225.888 107.972 226.313 107.15C226.738 106.276 227.694 104.683 228.438 103.553C229.978 101.137 230.828 99.647 232.369 96.8719C233.007 95.7413 233.963 94.0968 234.547 93.2745C235.132 92.4009 236.088 90.8078 236.672 89.6772C237.257 88.5466 237.894 87.5188 238.053 87.3646C238.213 87.2104 239.169 85.7201 240.072 84.0242C241.985 80.581 242.569 79.5532 244.11 77.3433C244.694 76.5211 245.81 74.6196 246.553 73.2321C248.413 69.7375 249.369 68.1444 249.741 67.836C249.9 67.6819 250.857 66.0887 251.919 64.2387C255.425 57.8662 257.338 54.7313 257.763 54.5772C257.975 54.4744 258.188 54.166 258.188 53.9091C258.188 53.6521 258.825 52.4701 259.569 51.3395C260.313 50.1576 261.535 48.1533 262.278 46.8685C263.075 45.5324 264.085 43.7337 264.616 42.9114C265.147 42.0378 266.103 40.4447 266.688 39.3141C267.272 38.1835 268.388 36.3334 269.078 35.2028C269.822 34.0722 270.672 32.6332 270.938 31.9652C271.628 30.4748 272.532 30.7318 273.594 32.6846C274.019 33.5069 274.497 34.2778 274.657 34.4319C275.188 34.9458 279.438 42.2947 279.438 42.7059C279.438 42.9628 279.597 43.1684 279.863 43.1684C280.075 43.1684 280.66 44.042 281.191 45.0699C281.722 46.1491 282.572 47.6908 283.157 48.5644C283.688 49.3867 284.591 50.9284 285.122 51.9048C285.6 52.8813 286.185 53.8063 286.397 53.9605C286.557 54.1147 287.778 56.0675 289 58.3287C290.222 60.5899 291.444 62.5428 291.657 62.6969C291.869 62.8511 292.507 63.8275 293.038 64.8554C295.003 68.5555 297.66 73.2321 297.978 73.489C298.138 73.6432 298.775 74.671 299.307 75.8016C299.891 76.9322 300.847 78.5253 301.485 79.399C302.122 80.2212 303.025 81.763 303.503 82.7394C304.035 83.7158 305.044 85.4631 305.788 86.5937C306.478 87.7243 307.328 89.1119 307.647 89.6772C307.913 90.2425 308.444 91.1675 308.816 91.7328C310.41 94.3537 312.694 98.0025 313.278 98.9275C313.65 99.4928 314.075 100.315 314.288 100.726C314.5 101.137 315.457 102.73 316.466 104.221C317.422 105.711 318.219 107.253 318.219 107.664C318.219 108.075 318.432 108.435 318.697 108.435C318.963 108.435 319.388 108.949 319.6 109.565C319.813 110.234 320.132 110.85 320.344 111.004C320.503 111.159 321.725 113.111 323 115.373C324.222 117.634 325.657 120.049 326.135 120.769C327.675 123.081 328.26 124.109 329.163 125.908C329.694 126.884 330.385 128.066 330.757 128.477C331.128 128.888 332.297 130.841 333.413 132.846C334.475 134.798 335.803 137.008 336.282 137.728C336.813 138.447 337.397 139.526 337.557 140.143C337.769 140.811 338.194 141.325 338.46 141.325C338.725 141.325 338.938 141.582 338.938 141.89C338.938 142.25 339.575 143.483 340.425 144.717C341.86 146.978 341.913 146.978 344.941 146.978C347.916 146.978 348.713 146.413 347.491 145.128C347.225 144.871 346.269 143.278 345.313 141.582C344.357 139.886 343.4 138.396 343.188 138.242C343.028 138.087 342.444 137.162 341.913 136.186C340 132.486 338.619 130.225 337.503 128.631C336.813 127.758 336.282 126.936 336.282 126.781C336.282 126.627 335.219 124.829 333.944 122.722C332.616 120.666 330.969 117.788 330.225 116.4C329.482 114.962 328.26 112.906 327.569 111.775C326.825 110.645 325.975 109.257 325.657 108.692C325.391 108.127 324.541 106.739 323.797 105.608C323.107 104.478 321.991 102.628 321.407 101.497C320.822 100.366 319.6 98.4136 318.75 97.1289C317.369 94.9704 316.2 93.0176 313.65 88.3924C313.066 87.416 312.322 86.3368 312.003 85.9256C311.632 85.5659 311.313 85.0006 311.313 84.7436C311.313 84.3839 310.463 82.8936 307.222 77.8573C306.85 77.292 306.16 76.0072 305.628 75.0308C305.15 74.0543 304.566 73.1293 304.353 72.9751C304.141 72.8209 303.078 71.125 302.069 69.1208C301.007 67.1679 299.785 65.2151 299.413 64.7526C299.041 64.3414 298.35 63.1595 297.819 62.183C297.341 61.2066 296.225 59.2024 295.322 57.8148C294.419 56.3759 293.569 54.8341 293.41 54.3202C293.25 53.8577 292.932 53.4466 292.666 53.4466C292.4 53.4466 292.188 53.1896 292.188 52.8813C292.188 52.5215 291.285 50.877 290.169 49.1297C289.107 47.3824 287.832 45.2754 287.407 44.4532C286.982 43.5795 286.397 42.5517 286.025 42.1406C285.707 41.7294 284.857 40.3419 284.113 39.0571C283.422 37.7723 282.2 35.7681 281.403 34.5347C280.607 33.3013 279.703 31.811 279.385 31.1943C279.119 30.5776 278.428 29.3442 277.844 28.522C277.26 27.6483 276.569 26.5177 276.25 25.9524C274.55 22.7662 272.638 19.8369 272.16 19.6827C271.841 19.58 271.31 20.248 270.885 21.1731Z" fill="white"/>
<path d="M282.412 156.845C281.297 158.335 281.35 159.569 282.465 161.419C283.475 163.012 285.015 163.372 286.45 162.241C287.087 161.779 287.247 161.008 287.034 158.644C286.768 155.714 286.715 155.714 284.962 155.714C283.74 155.714 282.943 156.074 282.412 156.845Z" fill="white"/>
<path d="M71.1344 163.629C70.9219 163.834 68.425 164.194 65.5563 164.451C59.5 165.016 57.0031 165.376 55.5156 165.941C52.7 167.021 50.6281 167.689 49.3 167.894C48.45 168.048 47.8125 168.357 47.8125 168.562C47.8125 168.819 47.2812 169.179 46.6438 169.333C45.475 169.641 41.225 171.594 39.0469 172.828C35.5938 174.781 33.575 176.065 32.4062 177.042C31.6625 177.71 30.8125 178.275 30.4406 178.378C29.3781 178.738 24.4375 183.466 24.4375 184.185C24.4375 185.316 26.2438 186.549 27.5188 186.189C28.1562 186.035 28.6875 185.727 28.6875 185.521C28.6875 184.802 30.2281 183.517 35.0625 180.177C38.4094 177.864 45.8469 173.958 49.6719 172.468C51.7438 171.697 53.8688 170.823 54.4531 170.618C58.1719 169.128 64.9188 168.408 75.9688 168.408C88.7188 168.357 91.9594 168.768 103.594 171.646C104.603 171.903 106.409 172.314 107.578 172.571C108.747 172.828 110.288 173.29 111.031 173.599C111.775 173.855 113.794 174.524 115.547 174.986C117.3 175.5 118.947 176.065 119.266 176.322C119.531 176.579 120.275 176.785 120.913 176.785C121.603 176.785 122.294 176.99 122.453 177.299C122.613 177.556 123.303 177.813 123.994 177.813C124.631 177.813 125.641 178.172 126.225 178.583C126.756 178.995 127.659 179.354 128.191 179.354C128.669 179.354 129.519 179.56 130.05 179.817C131.75 180.69 137.859 182.952 138.444 182.952C138.975 182.952 141.578 183.98 143.544 185.059C144.075 185.316 144.872 185.521 145.297 185.521C145.722 185.521 146.519 185.727 147.05 185.984C149.547 187.166 151.884 188.091 153.797 188.656C154.966 188.964 156.559 189.581 157.356 189.941C158.1 190.352 159.109 190.66 159.588 190.66C160.066 190.66 160.863 190.866 161.394 191.123C162.775 191.791 165.644 192.716 169.203 193.692C170.956 194.155 172.656 194.669 172.922 194.823C173.241 195.029 174.303 195.337 175.312 195.542C176.322 195.748 177.438 196.108 177.703 196.313C178.022 196.519 179.191 196.827 180.359 196.981C186.681 197.855 188.434 198.215 189.391 198.729C193.322 200.733 219.884 200.579 226.047 198.472C230.562 196.93 232.103 196.673 232.953 197.341C233.378 197.701 233.75 198.472 233.803 199.088C233.803 199.654 234.281 200.836 234.866 201.709C235.397 202.532 236.034 203.611 236.194 204.022C237.628 207.362 238.478 208.647 240.763 210.806C242.197 212.142 243.791 213.272 244.269 213.272C245.491 213.272 249.209 210.806 251.388 208.596C254.256 205.666 255.372 204.228 257.763 200.579C258.984 198.677 260.153 196.981 260.312 196.827C260.472 196.673 261.322 195.234 262.172 193.641C263.659 190.866 265.094 189.889 265.838 191.123C265.997 191.38 267.059 191.688 268.122 191.842C269.238 191.996 271.097 192.356 272.266 192.665C273.434 192.973 275.506 193.23 276.941 193.23H279.438V196.776C279.438 198.78 279.703 200.527 279.969 200.682C280.288 200.836 280.5 201.658 280.5 202.429C280.5 203.508 281.138 204.484 282.891 206.026C285.069 207.928 285.494 208.133 288.097 208.133C292.719 208.133 296.438 205.975 302.494 199.859C305.309 197.033 307.594 194.515 307.594 194.206C307.594 193.949 308.178 193.076 308.922 192.305C309.666 191.534 310.25 190.712 310.25 190.506C310.25 190.249 310.834 189.324 311.578 188.399C312.322 187.474 312.906 186.498 312.906 186.241C312.906 184.956 321.353 179.149 326.984 176.579C328.738 175.757 330.597 174.883 331.075 174.678C331.606 174.421 332.562 174.215 333.253 174.215C333.944 174.215 334.741 173.958 335.059 173.65C335.325 173.393 336.759 172.982 338.194 172.879C339.628 172.725 341.169 172.365 341.7 172.108C342.869 171.492 357.319 171.492 359.497 172.108C360.453 172.365 362.366 172.674 363.747 172.725C365.181 172.776 366.881 173.085 367.625 173.342C368.369 173.599 369.909 174.01 371.078 174.267C372.247 174.472 374.85 174.986 376.922 175.449C378.941 175.911 381.172 176.271 381.756 176.271C382.394 176.271 383.191 176.579 383.509 176.99C383.828 177.401 384.784 177.813 385.581 177.967C386.378 178.121 388.344 178.686 389.938 179.252C391.531 179.817 394.294 180.69 396.047 181.153C397.8 181.667 399.5 182.232 399.766 182.438C400.084 182.643 400.881 182.952 401.625 183.054C402.741 183.311 406.034 184.339 410.922 186.035C415.916 187.731 417.031 188.091 421.547 189.17C422.663 189.478 423.884 189.889 424.203 190.095C424.734 190.506 426.328 190.866 430.312 191.534C431.322 191.688 432.438 192.048 432.809 192.305C433.128 192.562 434.456 192.87 435.731 193.024C436.953 193.178 438.228 193.487 438.494 193.795C438.812 194.052 440.034 194.258 441.309 194.258C442.531 194.258 444.816 194.566 446.409 194.977C450.341 195.954 468.881 195.954 472.281 194.977C473.609 194.566 475.309 194.258 476.106 194.258C476.903 194.258 478.072 194.052 478.763 193.795C479.453 193.538 481.047 192.922 482.375 192.459C483.703 191.945 486.466 190.763 488.591 189.838C490.663 188.862 492.522 188.091 492.734 188.091C493.425 188.091 496.188 185.83 496.188 185.213C496.188 184.905 495.869 184.339 495.444 184.031C494.859 183.568 493.425 184.082 488.697 186.446C482.959 189.324 481.631 189.838 477.859 190.506C477.009 190.66 476 190.969 475.681 191.226C475.363 191.483 473.822 191.791 472.281 191.945C470.741 192.099 468.509 192.459 467.288 192.716C464.472 193.333 454.484 193.384 452.094 192.767C451.084 192.459 448.481 192.151 446.356 191.996C444.231 191.842 442 191.431 441.469 191.174C440.938 190.866 439.663 190.66 438.6 190.66C437.591 190.66 436.581 190.403 436.422 190.146C436.263 189.838 435.2 189.633 434.138 189.633C433.075 189.581 431.588 189.273 430.844 188.862C430.1 188.451 428.878 188.142 428.081 188.091C427.284 188.091 426.488 187.834 426.328 187.577C426.169 187.269 425.425 187.063 424.681 187.063C423.938 187.063 422.716 186.755 421.919 186.395C421.122 185.984 419.316 185.367 417.828 185.059C416.394 184.699 414.481 184.082 413.578 183.723C412.728 183.363 410.922 182.746 409.594 182.438C408.266 182.078 406.566 181.513 405.769 181.102C405.025 180.69 403.909 180.382 403.325 180.382C402.688 180.382 402.05 180.125 401.891 179.868C401.731 179.56 400.881 179.354 400.031 179.354C399.181 179.354 398.331 179.097 398.172 178.84C398.013 178.532 397.375 178.327 396.738 178.327C396.153 178.327 395.038 178.018 394.294 177.607C392.7 176.836 390.044 176.014 387.441 175.5C386.484 175.294 385.688 174.935 385.688 174.626C385.688 174.318 385.316 174.267 384.838 174.421C384.359 174.575 383.244 174.421 382.341 174.01C381.384 173.599 379.95 173.136 379.047 173.033C378.197 172.879 376.125 172.365 374.531 171.903C372.938 171.389 370.547 170.875 369.219 170.669C367.891 170.464 366.509 170.155 366.191 169.95C365.819 169.693 364.172 169.436 362.578 169.333C360.984 169.179 359.178 168.871 358.647 168.562C357.319 167.894 339.894 167.894 337.663 168.511C336.759 168.768 334.475 169.436 332.562 169.898C330.65 170.412 328.047 171.337 326.772 172.005C325.497 172.674 324.116 173.187 323.744 173.187C323.319 173.187 323 173.393 323 173.65C323 173.907 322.575 174.215 322.097 174.421C320.716 174.832 317.422 176.836 315.881 178.172C315.084 178.84 314.288 179.354 314.075 179.354C313.491 179.354 309.188 183.517 309.188 184.082C309.188 184.339 308.763 185.162 308.178 185.932C307.647 186.703 306.319 188.656 305.203 190.249C302.812 193.795 296.863 199.757 293.675 201.812C292.4 202.686 290.488 203.508 289.319 203.662C287.566 203.919 287.087 203.765 285.759 202.48L284.219 201.041V188.81C284.219 181.718 284.484 175.294 284.856 173.393C285.388 170.464 285.388 170.001 284.484 169.076C283.263 167.791 282.891 167.791 281.509 169.128C280.712 169.898 280.5 170.618 280.659 171.543C280.819 172.314 280.606 174.678 280.181 176.785C279.756 178.892 279.438 182.181 279.438 184.082C279.438 186.087 279.172 187.68 278.853 187.885C278.003 188.348 271.416 188.142 270.725 187.628C270.406 187.371 269.238 187.063 268.175 186.857C266.741 186.6 266.156 186.241 266.156 185.573C266.156 185.059 266.316 184.493 266.475 184.339C267.378 183.517 268.759 178.327 268.812 176.014C268.812 173.187 267.113 170.104 264.35 167.997C262.544 166.609 259.409 166.455 257.55 167.637C255.638 168.819 253.406 173.599 253.406 176.374C253.406 178.738 254.416 182.078 255.425 183.054C255.797 183.414 256.062 183.928 256.062 184.185C256.062 184.493 256.913 185.573 257.975 186.6L259.888 188.502L257.072 192.767C255.584 195.131 254.097 197.136 253.884 197.238C253.619 197.341 253.406 197.649 253.406 197.958C253.406 199.14 245.013 208.236 244.269 207.825C243.472 207.362 241.188 203.559 241.188 202.737C241.188 202.326 240.975 201.966 240.656 201.966C240.391 201.966 240.125 201.658 240.125 201.247C240.125 200.836 239.7 199.757 239.222 198.78C237.628 195.645 237.469 195.286 237.469 194.36C237.469 193.847 237.256 193.23 236.991 192.973C236.459 192.459 235.556 189.376 234.972 186.292C234.812 185.418 234.494 184.493 234.228 184.185C233.75 183.62 232.794 178.378 232.316 173.444C231.997 170.464 231.413 169.59 229.766 169.59C228.172 169.59 227.163 171.594 227.588 174.061C227.747 175.14 228.013 177.401 228.172 179.097C228.438 181.821 228.969 184.082 230.616 189.427C231.466 192.202 231.253 193.23 229.766 193.23C229.022 193.23 228.013 193.435 227.481 193.692C227.003 193.949 224.772 194.515 222.594 195.029C217.016 196.313 197.413 196.313 192.366 195.08C190.506 194.566 188.859 194.309 188.753 194.463C188.594 194.617 187.638 194.412 186.628 194.001C185.566 193.59 184.078 193.23 183.228 193.23C182.431 193.23 181.209 193.024 180.519 192.767C179.828 192.562 177.969 191.945 176.375 191.534C170.213 189.787 164.369 187.988 163.519 187.525C162.988 187.269 162.244 187.063 161.819 187.063C161.447 187.063 160.384 186.703 159.588 186.292C158.738 185.881 157.675 185.521 157.197 185.521C156.719 185.521 156.188 185.367 155.975 185.162C155.497 184.699 151.884 183.466 150.928 183.466C150.503 183.466 149.759 183.157 149.334 182.798C148.856 182.386 147.103 181.667 145.456 181.204C143.756 180.69 142.269 180.074 142.056 179.817C141.897 179.56 141.206 179.354 140.516 179.354C139.825 179.354 139.134 179.149 138.922 178.892C138.763 178.635 137.859 178.224 136.956 178.018C135.309 177.71 134.831 177.504 132.281 176.271C131.697 175.963 130.741 175.757 130.209 175.757C129.625 175.757 129.041 175.551 128.881 175.294C128.669 175.037 127.181 174.421 125.481 173.958C123.834 173.496 121.763 172.776 120.966 172.365C120.116 171.954 119 171.646 118.469 171.646C117.938 171.646 117.3 171.389 117.141 171.132C116.981 170.823 116.238 170.618 115.6 170.618C114.909 170.618 113.634 170.258 112.838 169.847C111.988 169.436 110.766 169.076 110.128 169.076C109.491 169.076 108.853 168.871 108.694 168.614C108.534 168.357 107.472 168.048 106.409 167.894C105.294 167.74 102.956 167.277 101.203 166.764C99.45 166.301 96.5813 165.684 94.8281 165.427C87.6031 164.297 71.6656 163.115 71.1344 163.629ZM262.544 172.519C263.713 173.496 263.872 177.761 262.863 180.896C262.119 183.209 261.747 183.363 260.419 182.027C258.134 179.868 257.55 175.911 259.144 173.239C260.153 171.44 261.109 171.235 262.544 172.519Z" fill="white"/>
<path d="M142.641 236.244C141.897 237.015 141.313 237.991 141.313 238.351C141.313 238.711 140.516 240.253 139.613 241.743C138.656 243.182 137.594 244.878 137.222 245.443C136.85 245.957 135.947 247.55 135.15 248.989C134.406 250.377 133.45 251.918 133.131 252.329C132.759 252.741 132.069 253.923 131.538 254.899C131.059 255.875 130.05 257.623 129.306 258.753C128.616 259.884 127.5 261.837 126.863 263.121C126.225 264.406 125.163 266.154 124.472 267.027C123.781 267.901 123.25 268.877 123.25 269.134C123.25 269.443 122.878 269.802 122.453 270.008C122.028 270.162 121.656 270.625 121.656 271.087C121.656 271.55 120.806 273.194 119.797 274.736C118.788 276.278 117.938 277.665 117.938 277.768C117.938 277.922 117.353 278.95 116.609 280.08C115.6 281.622 115.441 282.239 115.919 282.393C116.291 282.547 140.516 282.599 169.734 282.547L222.859 282.393L223.019 279.926L223.178 277.511H211.331C204.797 277.46 182.909 277.511 162.722 277.511L125.906 277.562V276.432C125.906 275.866 126.331 274.736 126.863 274.016C128.456 271.601 129.094 270.573 129.466 269.802C129.625 269.391 130.528 267.849 131.484 266.462C132.388 265.023 133.556 263.07 134.034 262.094C134.566 261.117 135.681 259.113 136.584 257.725C137.488 256.286 138.338 254.745 138.497 254.231C138.656 253.768 138.975 253.357 139.241 253.357C139.506 253.357 139.719 253.1 139.719 252.843C139.719 252.535 140.569 250.993 141.578 249.451C142.588 247.91 143.438 246.522 143.438 246.368C143.438 245.854 149.494 236.141 149.919 235.987C150.131 235.884 150.344 235.576 150.344 235.319C150.344 235.062 148.909 234.856 147.156 234.856C144.394 234.856 143.863 235.011 142.641 236.244Z" fill="white"/>
<path d="M394.719 235.473C394.719 235.833 395.463 237.169 396.313 238.454C397.163 239.739 397.907 240.972 397.907 241.178C397.907 241.435 398.332 242.257 398.916 242.976C399.819 244.312 401.413 246.985 403.538 250.788C404.122 251.764 404.707 252.689 404.866 252.843C405.025 252.998 406.194 254.95 407.469 257.212C408.744 259.473 410.55 262.453 411.454 263.892C412.357 265.28 413.525 267.284 414.004 268.261C415.119 270.368 416.022 271.858 416.819 272.68C417.138 273.04 417.722 274.068 418.094 274.941C418.997 277.1 418.413 277.46 413.632 277.408C411.56 277.408 388.132 277.46 361.622 277.46L313.385 277.511L313.544 279.926L313.704 282.393L370.76 282.547C402.157 282.599 428.082 282.445 428.294 282.239C428.666 281.879 427.232 279.001 424.841 275.198C422.557 271.601 420.804 268.672 419.475 266.205C418.625 264.663 417.457 262.659 416.819 261.837C416.182 260.963 415.332 259.576 414.907 258.753C414.482 257.88 413.419 256.03 412.516 254.642C411.613 253.203 410.71 251.661 410.497 251.199C410.338 250.685 409.382 249.04 408.372 247.601C407.416 246.111 406.194 244.055 405.716 243.079C404.707 241.126 403.644 239.379 403.219 238.968C403.06 238.814 402.475 237.837 401.891 236.758C400.882 234.908 400.775 234.857 397.8 234.857C395.675 234.857 394.719 235.062 394.719 235.473Z" fill="white"/>
<path d="M21.7812 311.891C21.7812 312.148 22.3125 312.457 23.0031 312.56C24.1719 312.714 24.1719 312.816 24.1719 320.32V327.874H26.9875C29.9094 327.874 30.2812 327.617 28.8469 326.589C28.05 326.024 28.2625 325.561 31.2375 322.17C33.0438 320.114 34.5312 318.11 34.5312 317.699C34.5312 317.339 34.9563 317.082 35.4875 317.185C36.2844 317.339 36.3906 317.956 36.3375 321.707C36.3375 324.122 36.2313 326.435 36.0719 326.846C35.9125 327.463 36.4438 327.668 38.5156 327.771L41.1719 327.925V320.32C41.1719 312.816 41.1719 312.714 42.3938 312.56C43.0312 312.457 43.5625 312.148 43.5625 311.891C43.5625 311.275 34.6906 311.275 34.2656 311.943C34.1063 312.2 34.425 312.457 34.9563 312.457C36.55 312.457 36.7625 313.742 35.4875 315.386C32.0875 319.703 29.0063 323.249 28.5813 323.249C28.3688 323.249 28.1562 321.039 28.1562 318.367C28.1562 313.639 28.2094 313.433 29.4844 312.868C30.175 312.56 30.6531 312.097 30.4938 311.891C30.1219 311.275 21.7812 311.326 21.7812 311.891Z" fill="white"/>
<path d="M79.1562 311.994C79.1562 312.303 79.6344 312.662 80.2188 312.816C81.2281 313.073 81.2812 313.536 81.2812 319.703C81.2812 323.506 81.0688 326.384 80.75 326.589C79.4219 327.36 80.4844 327.874 83.4062 327.874C86.4344 327.874 87.55 327.309 85.7438 326.641C85.1063 326.435 85 325.664 85.1063 323.403L85.2656 320.422H89.25H93.2344L93.3406 322.992C93.3938 324.585 93.1281 325.87 92.65 326.384C91.5875 327.514 92.225 327.874 95.4656 327.874C98.2812 327.874 98.8656 327.463 97.5906 326.384C97.0594 325.973 96.9 324.277 97.0063 319.549C97.1125 313.742 97.2188 313.176 98.2281 312.714C100.247 311.789 99.3969 311.429 95.0938 311.429C91.0563 311.429 89.6219 311.994 91.8531 312.714C92.65 312.919 92.9156 313.639 93.075 315.694C93.2344 317.185 93.2344 318.521 93.1281 318.726C92.8094 319.343 86.1688 319.189 85.7438 318.572C85.2656 317.801 85.0531 313.69 85.5312 312.971C85.7438 312.662 86.2219 312.457 86.5938 312.56C86.9656 312.662 87.3906 312.405 87.4969 312.046C87.7094 311.583 86.6469 311.429 83.4594 311.429C80.6969 311.429 79.1562 311.634 79.1562 311.994Z" fill="white"/>
<path d="M134.831 312.971C134.459 315.335 135.203 315.9 136.319 314.05C137.328 312.354 138.072 312.148 139.772 312.971C140.675 313.485 140.781 314.101 140.781 319.908C140.781 324.328 140.569 326.332 140.144 326.435C138.603 326.949 140.569 327.874 143.225 327.874C145.881 327.874 146.837 327.36 145.562 326.589C145.244 326.384 145.031 323.506 145.031 319.651C145.031 313.639 145.137 313.022 146.04 312.714C147.475 312.303 148.697 312.919 149.6 314.564C150.715 316.722 151.512 316.414 151.3 313.844L151.14 311.686L143.119 311.532L135.044 311.378L134.831 312.971Z" fill="white"/>
<path d="M185.938 311.891C185.938 312.148 186.416 312.56 187 312.714C187.956 313.022 188.062 313.536 188.169 319.035C188.222 326.332 188.275 325.87 187.797 326.949C187.478 327.771 187.744 327.874 190.347 327.874C193.481 327.874 194.384 327.36 193.109 326.332C191.994 325.407 192.047 320.885 193.162 320.474C195.075 319.754 196.562 320.165 197.094 321.502C197.412 322.221 197.837 322.684 198.103 322.529C198.634 322.221 198.847 316.568 198.369 316.568C198.156 316.568 197.572 317.133 196.987 317.904C196.137 318.881 195.5 319.138 194.225 319.035C192.631 318.881 192.578 318.778 192.419 316.106C192.206 312.868 192.631 312.457 195.872 312.457C197.784 312.457 198.316 312.714 199.325 313.998C200.6 315.694 201.291 315.283 200.919 312.971L200.706 311.429H193.322C189.125 311.429 185.938 311.634 185.938 311.891Z" fill="white"/>
<path d="M237.787 311.891C237.628 312.148 238.053 312.508 238.797 312.662L240.125 312.971V319.651C240.125 323.506 239.912 326.384 239.593 326.589C238.265 327.36 239.328 327.874 242.25 327.874C245.278 327.874 246.447 327.206 244.64 326.538C244.003 326.281 243.843 324.996 243.843 319.651V313.073L245.437 312.765C248.147 312.251 250.112 312.919 251.334 314.821C251.918 315.797 252.556 316.568 252.662 316.568C252.768 316.568 252.875 315.386 252.875 313.998V311.429H245.49C241.4 311.429 237.947 311.634 237.787 311.891Z" fill="white"/>
<path d="M287.778 311.789C287.566 311.943 287.938 312.354 288.628 312.662C289.744 313.228 289.797 313.587 289.957 319.6C290.01 323.403 289.903 326.178 289.532 326.589C288.735 327.514 289.425 327.874 292.188 327.874C294.95 327.874 295.641 327.514 294.791 326.538C294.525 326.178 294.313 324.893 294.419 323.66C294.578 321.604 294.685 321.45 296.438 321.09C300.582 320.268 301.325 319.96 302.547 318.367C304.3 316.157 304.194 314.769 302.175 312.919C300.475 311.429 300.369 311.429 294.26 311.429C290.913 311.429 287.938 311.583 287.778 311.789ZM298.51 313.33C298.669 313.433 298.775 314.564 298.775 315.849C298.828 317.853 298.616 318.418 297.394 319.292C295.11 320.936 294.313 320.217 294.313 316.362C294.313 314.204 294.525 312.971 295.003 312.816C295.641 312.56 298.085 312.919 298.51 313.33Z" fill="white"/>
<path d="M345.844 312.354C345.844 312.868 345.472 313.742 345.047 314.307C344.622 314.821 344.25 315.797 344.25 316.362C344.25 316.979 343.931 317.596 343.613 317.75C343.241 317.853 342.603 319.086 342.231 320.474C341.275 323.711 340.531 325.304 339.256 326.692L338.247 327.874H340.16C342.072 327.874 343.135 327.206 342.125 326.589C341.275 326.075 341.488 324.534 342.55 323.609C343.188 323.043 344.463 322.735 346.269 322.735C348.766 322.735 349.031 322.838 349.775 324.379C350.253 325.253 350.519 326.435 350.306 326.949C350.041 327.771 350.36 327.874 352.963 327.874C355.672 327.874 356.681 327.36 355.46 326.589C354.875 326.281 353.281 323.352 353.281 322.632C353.281 322.427 352.697 321.039 351.953 319.549C351.21 318.11 350.625 316.465 350.625 316.003C350.625 315.489 350.413 314.975 350.147 314.769C349.881 314.615 349.51 313.793 349.297 312.971C349.031 311.686 348.713 311.429 347.385 311.429C346.269 311.429 345.844 311.686 345.844 312.354ZM346.906 317.339C346.906 318.007 347.172 318.726 347.438 318.881C348.128 319.292 348.128 321.039 347.385 321.45C347.119 321.656 346.269 321.656 345.525 321.502C344.463 321.245 344.25 320.833 344.25 319.395C344.25 318.418 344.463 317.596 344.728 317.596C344.994 317.596 345.419 317.133 345.578 316.568C346.003 315.232 346.906 315.746 346.906 317.339Z" fill="white"/>
<path d="M391 311.943C391 312.2 391.266 312.508 391.531 312.508C391.85 312.56 392.381 312.611 392.753 312.662C393.231 312.714 393.391 314.615 393.391 320.32V327.874H396.206C398.756 327.874 399.712 327.36 398.437 326.589C398.119 326.384 397.906 323.609 397.906 319.908C397.906 314.05 398.012 313.485 398.969 312.971C401.041 311.891 399.978 311.429 395.516 311.429C392.859 311.429 391 311.634 391 311.943Z" fill="white"/>
<path d="M402.954 311.891C402.794 312.148 403.219 312.457 403.857 312.56C404.866 312.662 405.132 313.125 405.45 315.026C405.769 317.236 405.557 324.328 405.025 326.692C404.813 327.669 405.025 327.874 406.088 327.874C406.832 327.874 408.213 328.645 409.382 329.673C410.444 330.649 411.507 331.471 411.772 331.471C411.985 331.471 412.144 330.752 412.144 329.878C412.091 328.748 411.613 327.977 410.55 327.206C409.063 326.127 409.063 326.127 409.063 320.268C409.063 314.358 409.541 312.457 410.922 312.457C411.347 312.457 411.719 312.2 411.719 311.943C411.719 311.275 403.379 311.275 402.954 311.891Z" fill="white"/>
<path d="M447.312 311.891C447.312 312.148 447.791 312.457 448.375 312.611C449.331 312.868 449.437 313.33 449.544 318.983C449.544 322.324 449.544 325.664 449.491 326.435C449.384 327.823 449.437 327.874 452.359 327.874C455.175 327.874 455.281 327.823 454.75 326.795C454.112 325.716 454.644 324.534 456.769 322.221C457.247 321.656 458.522 320.217 459.531 318.932C462.347 315.489 462.719 315.797 462.719 321.399C462.719 325.202 462.559 326.281 461.922 326.538C460.169 327.155 461.284 327.874 463.994 327.874H466.916L466.544 325.921C466.172 323.866 466.172 323.095 466.331 317.031C466.437 313.279 466.491 313.073 467.766 312.765C470.369 312.148 468.509 311.429 464.259 311.429C461.603 311.429 460.062 311.634 460.062 311.994C460.062 312.303 460.541 312.662 461.125 312.816C461.709 312.971 462.187 313.279 462.187 313.485C462.187 313.69 461.709 314.461 461.125 315.18C460.541 315.9 460.062 316.722 460.062 317.031C460.062 317.339 459.797 317.596 459.531 317.596C459.212 317.596 458.203 318.624 457.3 319.908C454.697 323.454 454.166 323.043 454.325 317.75C454.484 313.69 454.591 313.176 455.653 312.662C456.344 312.354 456.716 311.943 456.503 311.789C455.972 311.275 447.312 311.378 447.312 311.891Z" fill="white"/>
<path d="M507.609 313.022C506.547 313.947 505.75 315.078 505.75 315.746C505.75 317.031 507.184 318.829 508.565 319.292C509.84 319.754 509.681 320.782 508.14 322.221C507.397 322.889 506.812 323.66 506.812 323.968C506.812 324.277 506.334 325.099 505.75 325.818C504.315 327.617 504.422 327.874 506.706 327.874C508.99 327.874 510.531 326.692 510.531 324.996C510.531 323.711 513.984 320.011 514.887 320.268C515.737 320.577 516.109 325.767 515.365 326.486C514.25 327.566 514.781 327.874 517.703 327.874C520.412 327.874 521.369 327.36 520.094 326.589C519.775 326.384 519.562 323.506 519.562 319.651V312.971L520.89 312.662C523.919 311.943 521.847 311.429 515.844 311.429C509.522 311.429 509.522 311.429 507.609 313.022ZM515.737 315.746C515.897 319.138 515.472 319.908 513.506 319.446C511.594 318.983 510.531 317.75 510.531 316.003C510.531 313.793 512.178 312.405 514.515 312.611C515.419 312.714 515.578 313.125 515.737 315.746Z" fill="white"/>
<path d="M201.344 323.455C201.344 323.968 200.653 325.048 199.75 325.921C198.9 326.744 198.156 327.566 198.156 327.669C198.156 327.823 199.059 327.874 200.175 327.771C202.034 327.617 202.141 327.514 202.3 325.613C202.406 324.534 202.247 323.403 201.928 323.095C201.503 322.684 201.344 322.786 201.344 323.455Z" fill="white"/>
</svg>
