<?xml version="1.0" encoding="UTF-8"?>
<svg xmlns="http://www.w3.org/2000/svg" xmlns:xlink="http://www.w3.org/1999/xlink" width="16px" height="16px" viewBox="0 0 16 16" version="1.1">
<g id="surface1">
<path style=" stroke:none;fill-rule:nonzero;fill:rgb(100%,100%,100%);fill-opacity:1;" d="M 7.96875 0.964844 C 7.957031 1.007812 7.941406 1.046875 7.9375 1.054688 C 7.921875 1.074219 7.828125 1.308594 7.773438 1.464844 C 7.695312 1.683594 7.664062 1.757812 7.652344 1.757812 C 7.644531 1.757812 7.640625 1.769531 7.640625 1.789062 C 7.640625 1.804688 7.609375 1.898438 7.574219 1.988281 C 7.484375 2.21875 7.425781 2.371094 7.410156 2.414062 C 7.40625 2.429688 7.378906 2.5 7.351562 2.566406 C 7.324219 2.628906 7.289062 2.722656 7.273438 2.769531 C 7.257812 2.816406 7.238281 2.859375 7.230469 2.859375 C 7.222656 2.859375 7.21875 2.875 7.21875 2.894531 C 7.21875 2.925781 7.191406 3.003906 7.097656 3.222656 C 7.085938 3.246094 7.066406 3.304688 7.054688 3.351562 C 7.039062 3.394531 7.015625 3.449219 7.007812 3.46875 C 6.996094 3.484375 6.972656 3.539062 6.957031 3.585938 C 6.855469 3.859375 6.824219 3.9375 6.753906 4.109375 C 6.742188 4.136719 6.71875 4.210938 6.695312 4.273438 C 6.671875 4.339844 6.644531 4.410156 6.632812 4.429688 C 6.617188 4.449219 6.609375 4.480469 6.609375 4.496094 C 6.609375 4.507812 6.597656 4.550781 6.582031 4.585938 C 6.515625 4.734375 6.492188 4.796875 6.46875 4.859375 C 6.457031 4.898438 6.433594 4.960938 6.414062 5 C 6.394531 5.039062 6.367188 5.109375 6.351562 5.152344 C 6.339844 5.199219 6.3125 5.265625 6.296875 5.304688 C 6.21875 5.503906 6.109375 5.796875 6.109375 5.8125 C 6.109375 5.820312 6.105469 5.832031 6.097656 5.835938 C 6.089844 5.839844 6.070312 5.886719 6.054688 5.9375 C 6.039062 5.988281 6.011719 6.0625 5.992188 6.101562 C 5.960938 6.167969 5.925781 6.257812 5.867188 6.433594 C 5.851562 6.484375 5.828125 6.539062 5.816406 6.554688 C 5.796875 6.585938 5.773438 6.695312 5.78125 6.710938 C 5.785156 6.710938 5.828125 6.710938 5.875 6.703125 C 5.945312 6.691406 5.960938 6.675781 5.984375 6.625 C 6.03125 6.511719 6.113281 6.289062 6.140625 6.214844 C 6.175781 6.128906 6.234375 5.976562 6.261719 5.914062 C 6.273438 5.890625 6.285156 5.851562 6.292969 5.832031 C 6.296875 5.8125 6.316406 5.765625 6.335938 5.726562 C 6.351562 5.691406 6.382812 5.613281 6.398438 5.5625 C 6.417969 5.511719 6.453125 5.40625 6.484375 5.328125 C 6.511719 5.253906 6.550781 5.152344 6.566406 5.105469 C 6.582031 5.0625 6.605469 5.007812 6.617188 4.988281 C 6.625 4.972656 6.644531 4.921875 6.65625 4.882812 C 6.667969 4.84375 6.695312 4.773438 6.71875 4.71875 C 6.765625 4.609375 6.789062 4.542969 6.835938 4.414062 C 6.851562 4.363281 6.882812 4.289062 6.898438 4.25 C 6.914062 4.210938 6.945312 4.140625 6.960938 4.085938 C 6.976562 4.035156 6.996094 3.988281 7 3.984375 C 7.007812 3.976562 7.035156 3.90625 7.0625 3.832031 C 7.117188 3.671875 7.132812 3.625 7.179688 3.527344 C 7.195312 3.488281 7.230469 3.402344 7.25 3.339844 C 7.304688 3.179688 7.335938 3.105469 7.34375 3.09375 C 7.351562 3.085938 7.378906 3.011719 7.410156 2.929688 C 7.511719 2.636719 7.570312 2.496094 7.582031 2.488281 C 7.585938 2.484375 7.59375 2.46875 7.59375 2.457031 C 7.59375 2.445312 7.613281 2.390625 7.632812 2.339844 C 7.65625 2.285156 7.691406 2.195312 7.714844 2.136719 C 7.738281 2.074219 7.765625 1.992188 7.78125 1.957031 C 7.796875 1.917969 7.828125 1.84375 7.84375 1.792969 C 7.859375 1.742188 7.894531 1.65625 7.914062 1.605469 C 7.9375 1.554688 7.960938 1.488281 7.96875 1.457031 C 7.988281 1.390625 8.015625 1.402344 8.046875 1.488281 C 8.058594 1.527344 8.074219 1.5625 8.078125 1.570312 C 8.09375 1.59375 8.21875 1.929688 8.21875 1.945312 C 8.21875 1.957031 8.222656 1.96875 8.230469 1.96875 C 8.238281 1.96875 8.253906 2.007812 8.269531 2.054688 C 8.285156 2.105469 8.3125 2.175781 8.328125 2.214844 C 8.34375 2.25 8.371094 2.320312 8.386719 2.367188 C 8.398438 2.410156 8.417969 2.453125 8.421875 2.460938 C 8.429688 2.464844 8.464844 2.554688 8.5 2.660156 C 8.535156 2.761719 8.570312 2.851562 8.578125 2.859375 C 8.585938 2.863281 8.601562 2.910156 8.617188 2.957031 C 8.675781 3.125 8.753906 3.339844 8.765625 3.351562 C 8.769531 3.355469 8.789062 3.402344 8.804688 3.457031 C 8.820312 3.507812 8.847656 3.578125 8.867188 3.621094 C 8.886719 3.65625 8.914062 3.726562 8.925781 3.773438 C 8.941406 3.816406 8.972656 3.894531 8.992188 3.949219 C 9.015625 4 9.039062 4.0625 9.046875 4.085938 C 9.054688 4.113281 9.070312 4.15625 9.082031 4.179688 C 9.128906 4.300781 9.195312 4.46875 9.214844 4.507812 C 9.226562 4.535156 9.238281 4.574219 9.242188 4.589844 C 9.25 4.609375 9.277344 4.683594 9.308594 4.75 C 9.335938 4.820312 9.359375 4.890625 9.359375 4.90625 C 9.359375 4.925781 9.367188 4.941406 9.375 4.941406 C 9.382812 4.941406 9.394531 4.964844 9.398438 4.996094 C 9.40625 5.023438 9.414062 5.054688 9.421875 5.058594 C 9.425781 5.066406 9.460938 5.15625 9.5 5.257812 C 9.535156 5.363281 9.578125 5.472656 9.59375 5.503906 C 9.636719 5.609375 9.65625 5.65625 9.679688 5.738281 C 9.695312 5.785156 9.71875 5.835938 9.726562 5.855469 C 9.738281 5.875 9.773438 5.964844 9.804688 6.054688 C 9.835938 6.144531 9.875 6.246094 9.890625 6.277344 C 9.90625 6.3125 9.921875 6.359375 9.929688 6.386719 C 9.933594 6.417969 9.945312 6.441406 9.953125 6.441406 C 9.960938 6.441406 9.96875 6.453125 9.96875 6.46875 C 9.96875 6.484375 9.988281 6.539062 10.011719 6.597656 C 10.054688 6.699219 10.054688 6.699219 10.144531 6.699219 C 10.234375 6.699219 10.257812 6.675781 10.21875 6.617188 C 10.210938 6.605469 10.183594 6.53125 10.15625 6.453125 C 10.128906 6.375 10.101562 6.308594 10.09375 6.300781 C 10.089844 6.292969 10.070312 6.253906 10.054688 6.207031 C 10 6.039062 9.960938 5.9375 9.925781 5.863281 C 9.90625 5.824219 9.890625 5.785156 9.890625 5.777344 C 9.890625 5.773438 9.859375 5.691406 9.820312 5.59375 C 9.78125 5.5 9.734375 5.371094 9.710938 5.304688 C 9.691406 5.242188 9.65625 5.148438 9.632812 5.09375 C 9.613281 5.042969 9.585938 4.980469 9.578125 4.953125 C 9.570312 4.929688 9.546875 4.867188 9.523438 4.8125 C 9.503906 4.761719 9.46875 4.679688 9.453125 4.625 C 9.4375 4.574219 9.398438 4.484375 9.375 4.425781 C 9.335938 4.328125 9.300781 4.238281 9.226562 4.027344 C 9.207031 3.984375 9.1875 3.9375 9.175781 3.917969 C 9.164062 3.902344 9.15625 3.875 9.15625 3.863281 C 9.15625 3.847656 9.132812 3.777344 9.035156 3.550781 C 9.023438 3.523438 9.003906 3.464844 8.988281 3.421875 C 8.976562 3.375 8.957031 3.332031 8.953125 3.328125 C 8.945312 3.320312 8.914062 3.242188 8.882812 3.152344 C 8.851562 3.0625 8.816406 2.972656 8.804688 2.953125 C 8.796875 2.933594 8.773438 2.878906 8.757812 2.835938 C 8.746094 2.789062 8.710938 2.699219 8.6875 2.636719 C 8.660156 2.570312 8.632812 2.5 8.628906 2.476562 C 8.625 2.453125 8.617188 2.4375 8.609375 2.4375 C 8.601562 2.4375 8.59375 2.425781 8.59375 2.410156 C 8.59375 2.394531 8.566406 2.320312 8.535156 2.238281 C 8.503906 2.160156 8.464844 2.0625 8.453125 2.027344 C 8.441406 1.988281 8.421875 1.941406 8.414062 1.921875 C 8.402344 1.902344 8.378906 1.839844 8.355469 1.78125 C 8.335938 1.722656 8.300781 1.628906 8.277344 1.574219 C 8.253906 1.519531 8.226562 1.449219 8.21875 1.421875 C 8.210938 1.394531 8.1875 1.335938 8.171875 1.300781 C 8.15625 1.261719 8.132812 1.207031 8.125 1.183594 C 8.074219 1.039062 8.019531 0.902344 8.003906 0.898438 C 7.996094 0.890625 7.980469 0.921875 7.96875 0.964844 Z M 7.96875 0.964844 "/>
<path style=" stroke:none;fill-rule:nonzero;fill:rgb(100%,100%,100%);fill-opacity:1;" d="M 8.304688 7.148438 C 8.273438 7.21875 8.273438 7.273438 8.308594 7.359375 C 8.335938 7.429688 8.382812 7.445312 8.425781 7.394531 C 8.445312 7.375 8.449219 7.339844 8.441406 7.230469 C 8.433594 7.097656 8.433594 7.097656 8.382812 7.097656 C 8.34375 7.097656 8.320312 7.113281 8.304688 7.148438 Z M 8.304688 7.148438 "/>
<path style=" stroke:none;fill-rule:nonzero;fill:rgb(100%,100%,100%);fill-opacity:1;" d="M 2.09375 7.457031 C 2.085938 7.46875 2.011719 7.484375 1.929688 7.496094 C 1.75 7.523438 1.675781 7.539062 1.632812 7.5625 C 1.550781 7.613281 1.488281 7.644531 1.449219 7.652344 C 1.425781 7.660156 1.40625 7.675781 1.40625 7.683594 C 1.40625 7.695312 1.390625 7.710938 1.371094 7.71875 C 1.335938 7.734375 1.210938 7.820312 1.148438 7.878906 C 1.046875 7.96875 0.988281 8.027344 0.953125 8.070312 C 0.929688 8.101562 0.90625 8.125 0.894531 8.132812 C 0.863281 8.148438 0.71875 8.363281 0.71875 8.394531 C 0.71875 8.449219 0.773438 8.503906 0.808594 8.488281 C 0.828125 8.480469 0.84375 8.464844 0.84375 8.457031 C 0.84375 8.425781 0.890625 8.367188 1.03125 8.214844 C 1.128906 8.109375 1.347656 7.929688 1.460938 7.863281 C 1.523438 7.828125 1.585938 7.785156 1.601562 7.777344 C 1.710938 7.710938 1.910156 7.675781 2.234375 7.675781 C 2.609375 7.675781 2.703125 7.691406 3.046875 7.824219 C 3.078125 7.835938 3.128906 7.855469 3.164062 7.867188 C 3.199219 7.878906 3.242188 7.898438 3.265625 7.914062 C 3.289062 7.925781 3.347656 7.957031 3.398438 7.976562 C 3.449219 8 3.5 8.027344 3.507812 8.039062 C 3.515625 8.050781 3.539062 8.058594 3.554688 8.058594 C 3.578125 8.058594 3.597656 8.066406 3.601562 8.082031 C 3.605469 8.09375 3.625 8.105469 3.648438 8.105469 C 3.664062 8.105469 3.695312 8.121094 3.710938 8.140625 C 3.726562 8.160156 3.753906 8.175781 3.769531 8.175781 C 3.785156 8.175781 3.808594 8.183594 3.824219 8.195312 C 3.875 8.238281 4.054688 8.339844 4.070312 8.339844 C 4.085938 8.339844 4.164062 8.386719 4.222656 8.4375 C 4.238281 8.449219 4.261719 8.457031 4.273438 8.457031 C 4.285156 8.457031 4.308594 8.464844 4.324219 8.476562 C 4.398438 8.53125 4.46875 8.574219 4.523438 8.601562 C 4.558594 8.613281 4.605469 8.640625 4.628906 8.660156 C 4.648438 8.675781 4.679688 8.691406 4.695312 8.691406 C 4.707031 8.691406 4.730469 8.699219 4.746094 8.710938 C 4.789062 8.742188 4.871094 8.785156 4.976562 8.828125 C 5.027344 8.851562 5.078125 8.875 5.085938 8.878906 C 5.09375 8.890625 5.125 8.902344 5.15625 8.914062 C 5.1875 8.921875 5.21875 8.9375 5.226562 8.949219 C 5.234375 8.957031 5.269531 8.972656 5.304688 8.980469 C 5.492188 9.019531 5.542969 9.035156 5.570312 9.058594 C 5.6875 9.148438 6.46875 9.144531 6.648438 9.046875 C 6.78125 8.976562 6.828125 8.964844 6.851562 8.996094 C 6.863281 9.011719 6.875 9.046875 6.875 9.074219 C 6.875 9.101562 6.890625 9.15625 6.90625 9.195312 C 6.921875 9.230469 6.941406 9.28125 6.945312 9.300781 C 6.988281 9.453125 7.015625 9.511719 7.082031 9.609375 C 7.125 9.671875 7.171875 9.722656 7.183594 9.722656 C 7.21875 9.722656 7.328125 9.609375 7.394531 9.507812 C 7.476562 9.375 7.511719 9.308594 7.582031 9.144531 C 7.617188 9.054688 7.652344 8.980469 7.65625 8.972656 C 7.660156 8.964844 7.6875 8.898438 7.710938 8.828125 C 7.753906 8.699219 7.796875 8.65625 7.820312 8.710938 C 7.824219 8.722656 7.855469 8.738281 7.886719 8.746094 C 7.917969 8.753906 7.972656 8.769531 8.007812 8.78125 C 8.042969 8.796875 8.101562 8.808594 8.144531 8.808594 L 8.21875 8.808594 L 8.21875 8.96875 C 8.21875 9.0625 8.226562 9.140625 8.234375 9.148438 C 8.242188 9.15625 8.25 9.191406 8.25 9.226562 C 8.25 9.277344 8.269531 9.320312 8.320312 9.390625 C 8.382812 9.476562 8.398438 9.488281 8.472656 9.488281 C 8.609375 9.488281 8.71875 9.390625 8.898438 9.109375 C 8.980469 8.980469 9.046875 8.867188 9.046875 8.851562 C 9.046875 8.839844 9.0625 8.800781 9.085938 8.765625 C 9.109375 8.730469 9.125 8.695312 9.125 8.683594 C 9.125 8.671875 9.140625 8.628906 9.164062 8.589844 C 9.1875 8.546875 9.203125 8.5 9.203125 8.488281 C 9.203125 8.429688 9.453125 8.167969 9.617188 8.050781 C 9.667969 8.011719 9.722656 7.972656 9.738281 7.960938 C 9.753906 7.949219 9.78125 7.941406 9.800781 7.941406 C 9.820312 7.941406 9.84375 7.929688 9.855469 7.914062 C 9.863281 7.902344 9.90625 7.886719 9.945312 7.878906 C 9.988281 7.875 10.035156 7.855469 10.050781 7.84375 C 10.085938 7.816406 10.507812 7.816406 10.574219 7.84375 C 10.601562 7.855469 10.65625 7.871094 10.699219 7.875 C 10.742188 7.875 10.789062 7.890625 10.8125 7.902344 C 10.835938 7.914062 10.878906 7.933594 10.914062 7.945312 C 10.949219 7.953125 11.023438 7.976562 11.085938 7.996094 C 11.144531 8.019531 11.210938 8.035156 11.226562 8.035156 C 11.246094 8.035156 11.269531 8.050781 11.28125 8.066406 C 11.289062 8.085938 11.316406 8.105469 11.339844 8.113281 C 11.363281 8.121094 11.421875 8.144531 11.46875 8.171875 C 11.515625 8.195312 11.597656 8.238281 11.648438 8.257812 C 11.699219 8.28125 11.75 8.308594 11.757812 8.316406 C 11.765625 8.324219 11.789062 8.339844 11.8125 8.34375 C 11.84375 8.355469 11.941406 8.402344 12.085938 8.480469 C 12.234375 8.558594 12.265625 8.574219 12.398438 8.625 C 12.429688 8.636719 12.46875 8.65625 12.476562 8.664062 C 12.492188 8.683594 12.539062 8.699219 12.65625 8.730469 C 12.6875 8.738281 12.71875 8.753906 12.730469 8.765625 C 12.738281 8.777344 12.777344 8.792969 12.816406 8.796875 C 12.851562 8.804688 12.890625 8.820312 12.898438 8.832031 C 12.90625 8.84375 12.941406 8.855469 12.980469 8.855469 C 13.015625 8.855469 13.082031 8.867188 13.128906 8.886719 C 13.246094 8.933594 13.789062 8.933594 13.890625 8.886719 C 13.929688 8.867188 13.980469 8.855469 14.003906 8.855469 C 14.027344 8.855469 14.0625 8.84375 14.082031 8.832031 C 14.101562 8.820312 14.148438 8.792969 14.1875 8.773438 C 14.226562 8.75 14.308594 8.695312 14.371094 8.652344 C 14.429688 8.609375 14.484375 8.574219 14.492188 8.574219 C 14.511719 8.574219 14.59375 8.472656 14.59375 8.441406 C 14.59375 8.429688 14.585938 8.402344 14.570312 8.390625 C 14.554688 8.367188 14.511719 8.390625 14.375 8.5 C 14.203125 8.628906 14.164062 8.652344 14.054688 8.683594 C 14.03125 8.691406 14 8.707031 13.992188 8.71875 C 13.980469 8.730469 13.9375 8.742188 13.890625 8.75 C 13.84375 8.757812 13.78125 8.773438 13.742188 8.785156 C 13.660156 8.8125 13.367188 8.816406 13.296875 8.785156 C 13.265625 8.773438 13.191406 8.757812 13.128906 8.753906 C 13.066406 8.746094 13 8.726562 12.984375 8.714844 C 12.96875 8.699219 12.929688 8.691406 12.898438 8.691406 C 12.871094 8.691406 12.839844 8.679688 12.835938 8.667969 C 12.832031 8.652344 12.800781 8.644531 12.769531 8.644531 C 12.738281 8.640625 12.695312 8.628906 12.671875 8.609375 C 12.648438 8.589844 12.613281 8.578125 12.589844 8.574219 C 12.566406 8.574219 12.542969 8.5625 12.539062 8.550781 C 12.535156 8.535156 12.511719 8.527344 12.492188 8.527344 C 12.46875 8.527344 12.433594 8.511719 12.410156 8.496094 C 12.386719 8.476562 12.332031 8.449219 12.289062 8.4375 C 12.246094 8.417969 12.191406 8.390625 12.164062 8.375 C 12.140625 8.359375 12.085938 8.332031 12.046875 8.316406 C 12.007812 8.300781 11.957031 8.273438 11.933594 8.253906 C 11.914062 8.238281 11.878906 8.222656 11.863281 8.222656 C 11.84375 8.222656 11.824219 8.210938 11.820312 8.199219 C 11.816406 8.183594 11.789062 8.175781 11.765625 8.175781 C 11.742188 8.175781 11.714844 8.164062 11.710938 8.152344 C 11.707031 8.136719 11.6875 8.128906 11.667969 8.128906 C 11.652344 8.128906 11.617188 8.113281 11.597656 8.097656 C 11.550781 8.0625 11.472656 8.023438 11.394531 8 C 11.367188 7.992188 11.34375 7.972656 11.34375 7.960938 C 11.34375 7.945312 11.332031 7.945312 11.320312 7.949219 C 11.304688 7.957031 11.273438 7.949219 11.246094 7.933594 C 11.21875 7.914062 11.175781 7.890625 11.148438 7.886719 C 11.125 7.878906 11.0625 7.855469 11.015625 7.835938 C 10.96875 7.8125 10.898438 7.789062 10.859375 7.78125 C 10.820312 7.769531 10.78125 7.757812 10.769531 7.746094 C 10.757812 7.734375 10.710938 7.722656 10.664062 7.71875 C 10.617188 7.710938 10.5625 7.699219 10.546875 7.683594 C 10.507812 7.652344 9.996094 7.652344 9.929688 7.679688 C 9.90625 7.691406 9.835938 7.722656 9.78125 7.746094 C 9.726562 7.769531 9.648438 7.808594 9.609375 7.839844 C 9.574219 7.871094 9.53125 7.894531 9.523438 7.894531 C 9.507812 7.894531 9.5 7.902344 9.5 7.914062 C 9.5 7.925781 9.488281 7.941406 9.472656 7.949219 C 9.433594 7.96875 9.335938 8.0625 9.289062 8.121094 C 9.265625 8.152344 9.242188 8.175781 9.238281 8.175781 C 9.21875 8.175781 9.09375 8.367188 9.09375 8.390625 C 9.09375 8.402344 9.082031 8.441406 9.0625 8.476562 C 9.046875 8.511719 9.007812 8.601562 8.976562 8.671875 C 8.90625 8.832031 8.730469 9.105469 8.636719 9.199219 C 8.601562 9.238281 8.542969 9.277344 8.507812 9.285156 C 8.457031 9.296875 8.445312 9.289062 8.40625 9.230469 L 8.359375 9.164062 L 8.359375 8.605469 C 8.359375 8.285156 8.367188 7.992188 8.378906 7.902344 C 8.394531 7.769531 8.394531 7.75 8.367188 7.707031 C 8.332031 7.648438 8.320312 7.648438 8.28125 7.710938 C 8.257812 7.746094 8.25 7.777344 8.253906 7.820312 C 8.257812 7.855469 8.253906 7.960938 8.242188 8.058594 C 8.226562 8.15625 8.21875 8.304688 8.21875 8.390625 C 8.21875 8.484375 8.210938 8.554688 8.203125 8.566406 C 8.175781 8.585938 7.984375 8.578125 7.960938 8.554688 C 7.953125 8.542969 7.917969 8.527344 7.886719 8.519531 C 7.84375 8.507812 7.828125 8.488281 7.828125 8.460938 C 7.828125 8.4375 7.832031 8.410156 7.835938 8.402344 C 7.863281 8.367188 7.90625 8.128906 7.90625 8.023438 C 7.90625 7.894531 7.855469 7.753906 7.773438 7.65625 C 7.722656 7.59375 7.628906 7.585938 7.574219 7.640625 C 7.519531 7.695312 7.453125 7.914062 7.453125 8.039062 C 7.453125 8.148438 7.484375 8.300781 7.511719 8.34375 C 7.523438 8.359375 7.53125 8.382812 7.53125 8.394531 C 7.53125 8.410156 7.554688 8.460938 7.585938 8.507812 L 7.644531 8.59375 L 7.5625 8.785156 C 7.515625 8.894531 7.472656 8.984375 7.46875 8.992188 C 7.460938 8.996094 7.453125 9.007812 7.453125 9.023438 C 7.453125 9.078125 7.207031 9.492188 7.183594 9.472656 C 7.160156 9.453125 7.09375 9.277344 7.09375 9.242188 C 7.09375 9.222656 7.085938 9.207031 7.078125 9.207031 C 7.070312 9.207031 7.0625 9.191406 7.0625 9.171875 C 7.0625 9.15625 7.050781 9.105469 7.035156 9.0625 C 6.988281 8.917969 6.984375 8.902344 6.984375 8.859375 C 6.984375 8.835938 6.976562 8.808594 6.96875 8.796875 C 6.953125 8.773438 6.929688 8.632812 6.910156 8.492188 C 6.90625 8.453125 6.898438 8.410156 6.890625 8.394531 C 6.875 8.371094 6.847656 8.132812 6.832031 7.90625 C 6.824219 7.769531 6.804688 7.730469 6.757812 7.730469 C 6.710938 7.730469 6.679688 7.820312 6.695312 7.933594 C 6.699219 7.984375 6.707031 8.085938 6.710938 8.164062 C 6.71875 8.289062 6.734375 8.390625 6.78125 8.636719 C 6.808594 8.761719 6.800781 8.808594 6.757812 8.808594 C 6.734375 8.808594 6.707031 8.816406 6.691406 8.828125 C 6.675781 8.839844 6.609375 8.867188 6.546875 8.890625 C 6.382812 8.949219 5.804688 8.949219 5.65625 8.890625 C 5.601562 8.867188 5.554688 8.855469 5.550781 8.863281 C 5.546875 8.871094 5.519531 8.863281 5.488281 8.84375 C 5.457031 8.824219 5.414062 8.808594 5.390625 8.808594 C 5.367188 8.808594 5.328125 8.796875 5.308594 8.785156 C 5.289062 8.777344 5.234375 8.75 5.1875 8.730469 C 5.007812 8.652344 4.835938 8.570312 4.808594 8.546875 C 4.792969 8.535156 4.773438 8.527344 4.757812 8.527344 C 4.75 8.527344 4.71875 8.511719 4.695312 8.492188 C 4.667969 8.472656 4.636719 8.457031 4.625 8.457031 C 4.609375 8.457031 4.59375 8.449219 4.585938 8.441406 C 4.574219 8.417969 4.46875 8.363281 4.4375 8.363281 C 4.425781 8.363281 4.40625 8.347656 4.390625 8.332031 C 4.378906 8.3125 4.328125 8.28125 4.277344 8.261719 C 4.226562 8.238281 4.183594 8.207031 4.179688 8.195312 C 4.171875 8.183594 4.152344 8.175781 4.132812 8.175781 C 4.113281 8.175781 4.09375 8.167969 4.085938 8.15625 C 4.082031 8.144531 4.054688 8.125 4.027344 8.113281 C 3.980469 8.101562 3.964844 8.089844 3.890625 8.035156 C 3.875 8.019531 3.84375 8.011719 3.828125 8.011719 C 3.8125 8.011719 3.796875 8.003906 3.789062 7.992188 C 3.785156 7.980469 3.742188 7.949219 3.691406 7.929688 C 3.640625 7.910156 3.582031 7.875 3.558594 7.855469 C 3.53125 7.839844 3.5 7.824219 3.484375 7.824219 C 3.46875 7.824219 3.449219 7.8125 3.445312 7.800781 C 3.441406 7.785156 3.417969 7.777344 3.398438 7.777344 C 3.378906 7.777344 3.34375 7.761719 3.320312 7.742188 C 3.292969 7.722656 3.257812 7.707031 3.238281 7.707031 C 3.21875 7.707031 3.203125 7.699219 3.195312 7.6875 C 3.191406 7.675781 3.160156 7.660156 3.128906 7.652344 C 3.097656 7.644531 3.027344 7.625 2.976562 7.601562 C 2.925781 7.582031 2.839844 7.550781 2.789062 7.539062 C 2.578125 7.488281 2.109375 7.433594 2.09375 7.457031 Z M 7.722656 7.863281 C 7.757812 7.910156 7.761719 8.101562 7.730469 8.246094 C 7.710938 8.351562 7.699219 8.359375 7.660156 8.296875 C 7.59375 8.199219 7.574219 8.019531 7.621094 7.898438 C 7.652344 7.816406 7.679688 7.804688 7.722656 7.863281 Z M 7.722656 7.863281 "/>
<path style=" stroke:none;fill-rule:nonzero;fill:rgb(100%,100%,100%);fill-opacity:1;" d="M 4.195312 10.769531 C 4.171875 10.804688 4.15625 10.847656 4.15625 10.863281 C 4.15625 10.882812 4.132812 10.953125 4.105469 11.019531 C 4.078125 11.085938 4.046875 11.164062 4.035156 11.1875 C 4.023438 11.210938 4 11.285156 3.976562 11.351562 C 3.953125 11.414062 3.925781 11.484375 3.914062 11.503906 C 3.90625 11.519531 3.882812 11.574219 3.867188 11.621094 C 3.855469 11.664062 3.824219 11.742188 3.804688 11.796875 C 3.78125 11.847656 3.75 11.9375 3.730469 11.992188 C 3.710938 12.050781 3.679688 12.132812 3.660156 12.171875 C 3.640625 12.210938 3.625 12.257812 3.625 12.269531 C 3.625 12.28125 3.613281 12.296875 3.601562 12.308594 C 3.589844 12.316406 3.578125 12.335938 3.578125 12.355469 C 3.578125 12.378906 3.554688 12.453125 3.523438 12.523438 C 3.492188 12.59375 3.46875 12.65625 3.46875 12.660156 C 3.46875 12.667969 3.453125 12.714844 3.429688 12.765625 C 3.398438 12.835938 3.394531 12.867188 3.410156 12.871094 C 3.421875 12.878906 4.132812 12.882812 4.992188 12.878906 L 6.554688 12.871094 L 6.558594 12.761719 L 6.5625 12.648438 L 6.214844 12.648438 C 6.023438 12.648438 5.378906 12.648438 4.785156 12.648438 L 3.703125 12.652344 L 3.703125 12.601562 C 3.703125 12.574219 3.714844 12.523438 3.730469 12.492188 C 3.777344 12.378906 3.796875 12.332031 3.808594 12.296875 C 3.8125 12.28125 3.839844 12.210938 3.867188 12.144531 C 3.894531 12.082031 3.929688 11.992188 3.941406 11.949219 C 3.957031 11.902344 3.992188 11.8125 4.015625 11.75 C 4.042969 11.683594 4.070312 11.613281 4.074219 11.589844 C 4.078125 11.566406 4.085938 11.550781 4.09375 11.550781 C 4.101562 11.550781 4.109375 11.539062 4.109375 11.527344 C 4.109375 11.511719 4.132812 11.441406 4.164062 11.371094 C 4.195312 11.300781 4.21875 11.238281 4.21875 11.230469 C 4.21875 11.207031 4.398438 10.765625 4.410156 10.757812 C 4.414062 10.753906 4.421875 10.738281 4.421875 10.726562 C 4.421875 10.714844 4.378906 10.707031 4.328125 10.707031 C 4.246094 10.707031 4.230469 10.710938 4.195312 10.769531 Z M 4.195312 10.769531 "/>
<path style=" stroke:none;fill-rule:nonzero;fill:rgb(100%,100%,100%);fill-opacity:1;" d="M 11.609375 10.734375 C 11.609375 10.75 11.632812 10.8125 11.65625 10.871094 C 11.679688 10.929688 11.703125 10.984375 11.703125 10.992188 C 11.703125 11.003906 11.714844 11.042969 11.734375 11.074219 C 11.757812 11.136719 11.804688 11.257812 11.867188 11.433594 C 11.886719 11.476562 11.902344 11.519531 11.90625 11.527344 C 11.914062 11.53125 11.945312 11.621094 11.984375 11.726562 C 12.023438 11.828125 12.074219 11.964844 12.101562 12.027344 C 12.128906 12.09375 12.164062 12.183594 12.175781 12.226562 C 12.210938 12.324219 12.234375 12.390625 12.257812 12.429688 C 12.269531 12.445312 12.285156 12.492188 12.296875 12.53125 C 12.324219 12.632812 12.304688 12.648438 12.164062 12.644531 C 12.105469 12.644531 11.414062 12.648438 10.636719 12.648438 L 9.21875 12.648438 L 9.222656 12.761719 L 9.226562 12.871094 L 10.90625 12.878906 C 11.828125 12.882812 12.589844 12.875 12.597656 12.867188 C 12.609375 12.847656 12.566406 12.71875 12.496094 12.542969 C 12.429688 12.378906 12.375 12.246094 12.335938 12.132812 C 12.3125 12.0625 12.277344 11.972656 12.257812 11.9375 C 12.242188 11.894531 12.214844 11.832031 12.203125 11.796875 C 12.191406 11.753906 12.160156 11.671875 12.132812 11.609375 C 12.105469 11.542969 12.078125 11.472656 12.074219 11.449219 C 12.070312 11.425781 12.039062 11.351562 12.011719 11.285156 C 11.984375 11.21875 11.945312 11.125 11.933594 11.082031 C 11.902344 10.992188 11.871094 10.910156 11.859375 10.894531 C 11.855469 10.886719 11.835938 10.839844 11.820312 10.792969 C 11.789062 10.707031 11.789062 10.707031 11.699219 10.707031 C 11.636719 10.707031 11.609375 10.714844 11.609375 10.734375 Z M 11.609375 10.734375 "/>
<path style=" stroke:none;fill-rule:nonzero;fill:rgb(100%,100%,100%);fill-opacity:1;" d="M 0.640625 14.21875 C 0.640625 14.230469 0.65625 14.242188 0.675781 14.246094 C 0.710938 14.253906 0.710938 14.257812 0.710938 14.601562 L 0.710938 14.945312 L 0.792969 14.945312 C 0.878906 14.945312 0.890625 14.933594 0.847656 14.886719 C 0.824219 14.863281 0.832031 14.839844 0.917969 14.6875 C 0.972656 14.59375 1.015625 14.5 1.015625 14.480469 C 1.015625 14.464844 1.027344 14.453125 1.042969 14.457031 C 1.066406 14.464844 1.070312 14.492188 1.070312 14.664062 C 1.070312 14.773438 1.066406 14.878906 1.0625 14.898438 C 1.054688 14.925781 1.070312 14.9375 1.132812 14.941406 L 1.210938 14.949219 L 1.210938 14.601562 C 1.210938 14.257812 1.210938 14.253906 1.246094 14.246094 C 1.265625 14.242188 1.28125 14.230469 1.28125 14.21875 C 1.28125 14.1875 1.019531 14.1875 1.007812 14.21875 C 1.003906 14.230469 1.011719 14.242188 1.027344 14.242188 C 1.074219 14.242188 1.082031 14.300781 1.042969 14.375 C 0.945312 14.574219 0.851562 14.734375 0.839844 14.734375 C 0.835938 14.734375 0.828125 14.632812 0.828125 14.511719 C 0.828125 14.296875 0.828125 14.289062 0.867188 14.261719 C 0.886719 14.246094 0.902344 14.226562 0.898438 14.21875 C 0.886719 14.1875 0.640625 14.191406 0.640625 14.21875 Z M 0.640625 14.21875 "/>
<path style=" stroke:none;fill-rule:nonzero;fill:rgb(100%,100%,100%);fill-opacity:1;" d="M 2.328125 14.222656 C 2.328125 14.234375 2.34375 14.253906 2.359375 14.257812 C 2.390625 14.269531 2.390625 14.292969 2.390625 14.574219 C 2.390625 14.746094 2.382812 14.878906 2.375 14.886719 C 2.335938 14.921875 2.367188 14.945312 2.453125 14.945312 C 2.542969 14.945312 2.574219 14.921875 2.523438 14.890625 C 2.503906 14.878906 2.5 14.84375 2.503906 14.742188 L 2.507812 14.605469 L 2.742188 14.605469 L 2.746094 14.722656 C 2.746094 14.796875 2.738281 14.855469 2.726562 14.878906 C 2.695312 14.929688 2.710938 14.945312 2.808594 14.945312 C 2.890625 14.945312 2.90625 14.925781 2.871094 14.878906 C 2.855469 14.859375 2.851562 14.78125 2.851562 14.566406 C 2.855469 14.300781 2.859375 14.277344 2.890625 14.253906 C 2.949219 14.210938 2.921875 14.195312 2.796875 14.195312 C 2.679688 14.195312 2.636719 14.222656 2.703125 14.253906 C 2.726562 14.265625 2.734375 14.296875 2.738281 14.390625 C 2.742188 14.457031 2.742188 14.519531 2.738281 14.527344 C 2.730469 14.558594 2.535156 14.550781 2.523438 14.523438 C 2.507812 14.488281 2.5 14.300781 2.515625 14.265625 C 2.523438 14.253906 2.535156 14.242188 2.546875 14.246094 C 2.558594 14.253906 2.570312 14.242188 2.574219 14.222656 C 2.578125 14.203125 2.546875 14.195312 2.453125 14.195312 C 2.375 14.195312 2.328125 14.207031 2.328125 14.222656 Z M 2.328125 14.222656 "/>
<path style=" stroke:none;fill-rule:nonzero;fill:rgb(100%,100%,100%);fill-opacity:1;" d="M 3.964844 14.265625 C 3.953125 14.375 3.976562 14.398438 4.007812 14.316406 C 4.039062 14.238281 4.0625 14.230469 4.109375 14.265625 C 4.136719 14.289062 4.140625 14.316406 4.140625 14.582031 C 4.140625 14.785156 4.132812 14.875 4.121094 14.878906 C 4.078125 14.902344 4.132812 14.945312 4.210938 14.945312 C 4.289062 14.945312 4.320312 14.921875 4.28125 14.886719 C 4.273438 14.878906 4.265625 14.746094 4.265625 14.570312 C 4.265625 14.296875 4.269531 14.269531 4.296875 14.253906 C 4.335938 14.234375 4.375 14.265625 4.398438 14.339844 C 4.433594 14.4375 4.457031 14.421875 4.449219 14.304688 L 4.445312 14.207031 L 4.210938 14.199219 L 3.972656 14.195312 Z M 3.964844 14.265625 "/>
<path style=" stroke:none;fill-rule:nonzero;fill:rgb(100%,100%,100%);fill-opacity:1;" d="M 5.46875 14.21875 C 5.46875 14.230469 5.484375 14.246094 5.5 14.253906 C 5.527344 14.269531 5.53125 14.292969 5.535156 14.542969 C 5.535156 14.875 5.539062 14.855469 5.523438 14.902344 C 5.515625 14.941406 5.523438 14.945312 5.597656 14.945312 C 5.691406 14.945312 5.71875 14.921875 5.679688 14.875 C 5.648438 14.832031 5.648438 14.628906 5.679688 14.609375 C 5.738281 14.574219 5.78125 14.59375 5.796875 14.65625 C 5.804688 14.6875 5.820312 14.710938 5.828125 14.703125 C 5.84375 14.6875 5.847656 14.429688 5.835938 14.429688 C 5.828125 14.429688 5.8125 14.457031 5.792969 14.492188 C 5.769531 14.535156 5.75 14.546875 5.710938 14.542969 C 5.664062 14.535156 5.664062 14.53125 5.660156 14.410156 C 5.652344 14.261719 5.664062 14.242188 5.761719 14.242188 C 5.816406 14.242188 5.832031 14.253906 5.863281 14.3125 C 5.898438 14.390625 5.921875 14.371094 5.910156 14.265625 L 5.902344 14.195312 L 5.6875 14.195312 C 5.5625 14.195312 5.46875 14.207031 5.46875 14.21875 Z M 5.46875 14.21875 "/>
<path style=" stroke:none;fill-rule:nonzero;fill:rgb(100%,100%,100%);fill-opacity:1;" d="M 6.992188 14.21875 C 6.988281 14.230469 7 14.246094 7.023438 14.253906 L 7.0625 14.265625 L 7.0625 14.570312 C 7.0625 14.746094 7.054688 14.878906 7.046875 14.886719 C 7.007812 14.921875 7.039062 14.945312 7.125 14.945312 C 7.214844 14.945312 7.25 14.914062 7.195312 14.886719 C 7.175781 14.875 7.171875 14.816406 7.171875 14.570312 L 7.171875 14.269531 L 7.21875 14.257812 C 7.296875 14.234375 7.355469 14.265625 7.390625 14.351562 C 7.410156 14.394531 7.429688 14.429688 7.429688 14.429688 C 7.433594 14.429688 7.4375 14.375 7.4375 14.3125 L 7.4375 14.195312 L 7.21875 14.195312 C 7.101562 14.195312 7 14.207031 6.992188 14.21875 Z M 6.992188 14.21875 "/>
<path style=" stroke:none;fill-rule:nonzero;fill:rgb(100%,100%,100%);fill-opacity:1;" d="M 8.464844 14.210938 C 8.457031 14.21875 8.46875 14.238281 8.488281 14.253906 C 8.523438 14.277344 8.523438 14.292969 8.527344 14.570312 C 8.53125 14.742188 8.527344 14.867188 8.515625 14.886719 C 8.492188 14.929688 8.511719 14.945312 8.59375 14.945312 C 8.675781 14.945312 8.695312 14.929688 8.671875 14.886719 C 8.664062 14.867188 8.65625 14.808594 8.660156 14.753906 C 8.664062 14.660156 8.667969 14.652344 8.71875 14.636719 C 8.839844 14.597656 8.863281 14.585938 8.898438 14.511719 C 8.949219 14.410156 8.945312 14.347656 8.886719 14.265625 C 8.835938 14.195312 8.835938 14.195312 8.65625 14.195312 C 8.554688 14.195312 8.46875 14.203125 8.464844 14.210938 Z M 8.78125 14.28125 C 8.785156 14.289062 8.789062 14.339844 8.789062 14.398438 C 8.789062 14.488281 8.78125 14.515625 8.746094 14.554688 C 8.679688 14.628906 8.65625 14.597656 8.65625 14.421875 C 8.65625 14.324219 8.664062 14.265625 8.675781 14.257812 C 8.695312 14.246094 8.765625 14.265625 8.78125 14.28125 Z M 8.78125 14.28125 "/>
<path style=" stroke:none;fill-rule:nonzero;fill:rgb(100%,100%,100%);fill-opacity:1;" d="M 10.171875 14.238281 C 10.171875 14.261719 10.160156 14.300781 10.148438 14.328125 C 10.136719 14.351562 10.125 14.394531 10.125 14.421875 C 10.125 14.449219 10.117188 14.476562 10.105469 14.484375 C 10.09375 14.488281 10.078125 14.546875 10.066406 14.609375 C 10.039062 14.757812 10.015625 14.828125 9.976562 14.890625 L 9.949219 14.945312 L 10.003906 14.945312 C 10.0625 14.945312 10.09375 14.914062 10.0625 14.886719 C 10.039062 14.863281 10.042969 14.792969 10.074219 14.75 C 10.09375 14.726562 10.132812 14.710938 10.183594 14.710938 C 10.257812 14.710938 10.265625 14.714844 10.289062 14.785156 C 10.300781 14.828125 10.308594 14.878906 10.304688 14.902344 C 10.296875 14.941406 10.304688 14.945312 10.382812 14.945312 C 10.460938 14.945312 10.492188 14.921875 10.453125 14.886719 C 10.4375 14.875 10.390625 14.738281 10.390625 14.707031 C 10.390625 14.699219 10.375 14.632812 10.351562 14.566406 C 10.328125 14.5 10.3125 14.425781 10.3125 14.40625 C 10.3125 14.382812 10.304688 14.359375 10.296875 14.347656 C 10.289062 14.339844 10.28125 14.304688 10.273438 14.265625 C 10.265625 14.207031 10.257812 14.195312 10.21875 14.195312 C 10.183594 14.195312 10.171875 14.207031 10.171875 14.238281 Z M 10.203125 14.464844 C 10.203125 14.496094 10.210938 14.527344 10.21875 14.535156 C 10.238281 14.554688 10.238281 14.632812 10.21875 14.652344 C 10.210938 14.664062 10.183594 14.664062 10.164062 14.65625 C 10.132812 14.644531 10.125 14.625 10.125 14.558594 C 10.125 14.515625 10.132812 14.476562 10.140625 14.476562 C 10.148438 14.476562 10.160156 14.457031 10.164062 14.429688 C 10.175781 14.371094 10.203125 14.394531 10.203125 14.464844 Z M 10.203125 14.464844 "/>
<path style=" stroke:none;fill-rule:nonzero;fill:rgb(100%,100%,100%);fill-opacity:1;" d="M 11.5 14.21875 C 11.5 14.230469 11.507812 14.246094 11.515625 14.246094 C 11.523438 14.246094 11.539062 14.25 11.550781 14.253906 C 11.566406 14.253906 11.570312 14.339844 11.570312 14.601562 L 11.570312 14.945312 L 11.652344 14.945312 C 11.726562 14.945312 11.757812 14.921875 11.71875 14.886719 C 11.710938 14.878906 11.703125 14.75 11.703125 14.582031 C 11.703125 14.316406 11.707031 14.289062 11.734375 14.265625 C 11.796875 14.21875 11.765625 14.195312 11.632812 14.195312 C 11.554688 14.195312 11.5 14.207031 11.5 14.21875 Z M 11.5 14.21875 "/>
<path style=" stroke:none;fill-rule:nonzero;fill:rgb(100%,100%,100%);fill-opacity:1;" d="M 11.851562 14.21875 C 11.847656 14.230469 11.859375 14.242188 11.878906 14.246094 C 11.90625 14.253906 11.914062 14.273438 11.925781 14.359375 C 11.933594 14.460938 11.929688 14.785156 11.914062 14.890625 C 11.90625 14.9375 11.914062 14.945312 11.945312 14.945312 C 11.964844 14.945312 12.007812 14.980469 12.039062 15.027344 C 12.070312 15.074219 12.101562 15.109375 12.109375 15.109375 C 12.117188 15.109375 12.121094 15.078125 12.121094 15.039062 C 12.121094 14.984375 12.105469 14.949219 12.074219 14.914062 C 12.03125 14.867188 12.03125 14.867188 12.03125 14.597656 C 12.03125 14.328125 12.046875 14.242188 12.085938 14.242188 C 12.097656 14.242188 12.109375 14.230469 12.109375 14.21875 C 12.109375 14.1875 11.863281 14.1875 11.851562 14.21875 Z M 11.851562 14.21875 "/>
<path style=" stroke:none;fill-rule:nonzero;fill:rgb(100%,100%,100%);fill-opacity:1;" d="M 13.15625 14.21875 C 13.15625 14.230469 13.171875 14.242188 13.1875 14.25 C 13.214844 14.261719 13.21875 14.28125 13.222656 14.539062 C 13.222656 14.691406 13.222656 14.84375 13.21875 14.878906 C 13.21875 14.945312 13.21875 14.945312 13.304688 14.945312 C 13.386719 14.945312 13.390625 14.945312 13.375 14.898438 C 13.355469 14.847656 13.371094 14.792969 13.433594 14.6875 C 13.449219 14.664062 13.484375 14.597656 13.515625 14.539062 C 13.597656 14.382812 13.609375 14.394531 13.609375 14.652344 C 13.609375 14.824219 13.605469 14.875 13.585938 14.886719 C 13.535156 14.914062 13.566406 14.945312 13.648438 14.945312 L 13.734375 14.945312 L 13.722656 14.855469 C 13.710938 14.761719 13.710938 14.726562 13.714844 14.453125 C 13.71875 14.28125 13.71875 14.269531 13.757812 14.257812 C 13.835938 14.230469 13.78125 14.195312 13.65625 14.195312 C 13.578125 14.195312 13.53125 14.207031 13.53125 14.222656 C 13.53125 14.234375 13.546875 14.253906 13.5625 14.257812 C 13.578125 14.265625 13.59375 14.28125 13.59375 14.289062 C 13.59375 14.300781 13.578125 14.335938 13.5625 14.367188 C 13.546875 14.398438 13.53125 14.4375 13.53125 14.453125 C 13.53125 14.464844 13.523438 14.476562 13.515625 14.476562 C 13.507812 14.476562 13.476562 14.523438 13.449219 14.582031 C 13.375 14.746094 13.359375 14.726562 13.363281 14.484375 C 13.367188 14.300781 13.371094 14.277344 13.402344 14.253906 C 13.421875 14.238281 13.433594 14.21875 13.425781 14.210938 C 13.410156 14.1875 13.15625 14.195312 13.15625 14.21875 Z M 13.15625 14.21875 "/>
<path style=" stroke:none;fill-rule:nonzero;fill:rgb(100%,100%,100%);fill-opacity:1;" d="M 14.929688 14.269531 C 14.898438 14.3125 14.875 14.363281 14.875 14.394531 C 14.875 14.453125 14.917969 14.535156 14.957031 14.554688 C 14.996094 14.574219 14.992188 14.621094 14.945312 14.6875 C 14.921875 14.71875 14.90625 14.753906 14.90625 14.769531 C 14.90625 14.78125 14.890625 14.820312 14.875 14.851562 C 14.832031 14.933594 14.835938 14.945312 14.902344 14.945312 C 14.96875 14.945312 15.015625 14.890625 15.015625 14.816406 C 15.015625 14.757812 15.117188 14.585938 15.144531 14.597656 C 15.167969 14.613281 15.179688 14.851562 15.15625 14.882812 C 15.125 14.933594 15.140625 14.945312 15.226562 14.945312 C 15.304688 14.945312 15.335938 14.921875 15.296875 14.886719 C 15.289062 14.878906 15.28125 14.746094 15.28125 14.570312 L 15.28125 14.265625 L 15.320312 14.253906 C 15.410156 14.21875 15.347656 14.195312 15.171875 14.195312 C 14.984375 14.195312 14.984375 14.195312 14.929688 14.269531 Z M 15.167969 14.394531 C 15.171875 14.546875 15.160156 14.582031 15.101562 14.5625 C 15.046875 14.539062 15.015625 14.484375 15.015625 14.40625 C 15.015625 14.304688 15.0625 14.242188 15.132812 14.25 C 15.160156 14.253906 15.164062 14.273438 15.167969 14.394531 Z M 15.167969 14.394531 "/>
<path style=" stroke:none;fill-rule:nonzero;fill:rgb(100%,100%,100%);fill-opacity:1;" d="M 5.921875 14.746094 C 5.921875 14.769531 5.902344 14.816406 5.875 14.855469 C 5.851562 14.894531 5.828125 14.933594 5.828125 14.9375 C 5.828125 14.945312 5.855469 14.945312 5.886719 14.941406 C 5.941406 14.933594 5.945312 14.929688 5.949219 14.84375 C 5.953125 14.792969 5.949219 14.742188 5.9375 14.726562 C 5.925781 14.710938 5.921875 14.714844 5.921875 14.746094 Z M 5.921875 14.746094 "/>
</g>
</svg>
