<?xml version="1.0" encoding="UTF-8"?>
<svg xmlns="http://www.w3.org/2000/svg" xmlns:xlink="http://www.w3.org/1999/xlink" width="180px" height="180px" viewBox="0 0 180 180" version="1.1">
<g id="surface1">
<path style=" stroke:none;fill-rule:nonzero;fill:rgb(100%,100%,100%);fill-opacity:1;" d="M 89.632812 10.859375 C 89.507812 11.332031 89.351562 11.78125 89.296875 11.859375 C 89.140625 12.070312 88.066406 14.707031 87.453125 16.472656 C 86.554688 18.949219 86.238281 19.765625 86.097656 19.765625 C 86.011719 19.765625 85.957031 19.925781 85.957031 20.132812 C 85.957031 20.320312 85.625 21.347656 85.21875 22.375 C 84.199219 24.957031 83.53125 26.671875 83.375 27.144531 C 83.304688 27.355469 83.003906 28.121094 82.703125 28.859375 C 82.40625 29.570312 82.019531 30.625 81.828125 31.152344 C 81.632812 31.703125 81.421875 32.152344 81.351562 32.152344 C 81.265625 32.152344 81.210938 32.335938 81.210938 32.546875 C 81.210938 32.917969 80.894531 33.785156 79.859375 36.261719 C 79.734375 36.527344 79.507812 37.1875 79.347656 37.6875 C 79.171875 38.1875 78.945312 38.792969 78.820312 39.003906 C 78.714844 39.214844 78.453125 39.820312 78.277344 40.320312 C 77.117188 43.433594 76.78125 44.300781 75.992188 46.25 C 75.867188 46.542969 75.570312 47.359375 75.304688 48.097656 C 75.058594 48.808594 74.742188 49.597656 74.601562 49.835938 C 74.460938 50.046875 74.355469 50.390625 74.355469 50.574219 C 74.355469 50.730469 74.214844 51.207031 74.039062 51.601562 C 73.300781 53.261719 73.019531 53.945312 72.773438 54.683594 C 72.632812 55.105469 72.371094 55.820312 72.15625 56.265625 C 71.949219 56.6875 71.648438 57.480469 71.472656 57.980469 C 71.3125 58.480469 71.03125 59.246094 70.859375 59.691406 C 69.960938 61.90625 68.730469 65.199219 68.730469 65.386719 C 68.730469 65.492188 68.679688 65.621094 68.609375 65.675781 C 68.519531 65.703125 68.308594 66.226562 68.117188 66.808594 C 67.9375 67.386719 67.625 68.207031 67.414062 68.625 C 67.0625 69.390625 66.671875 70.417969 66.007812 72.367188 C 65.828125 72.949219 65.566406 73.554688 65.445312 73.738281 C 65.214844 74.109375 64.933594 75.320312 65.058594 75.480469 C 65.09375 75.503906 65.546875 75.480469 66.078125 75.398438 C 66.867188 75.269531 67.078125 75.109375 67.308594 74.53125 C 67.835938 73.238281 68.78125 70.761719 69.101562 69.917969 C 69.46875 68.941406 70.136719 67.257812 70.453125 66.542969 C 70.558594 66.253906 70.71875 65.832031 70.789062 65.621094 C 70.839844 65.410156 71.070312 64.882812 71.261719 64.4375 C 71.472656 64.015625 71.789062 63.171875 72 62.589844 C 72.195312 62.011719 72.617188 60.824219 72.949219 59.957031 C 73.265625 59.085938 73.6875 57.953125 73.882812 57.453125 C 74.058594 56.953125 74.304688 56.34375 74.425781 56.136719 C 74.546875 55.925781 74.742188 55.371094 74.882812 54.949219 C 75.023438 54.5 75.339844 53.683594 75.585938 53.105469 C 76.09375 51.863281 76.375 51.101562 76.886719 49.679688 C 77.097656 49.097656 77.414062 48.253906 77.609375 47.832031 C 77.800781 47.386719 78.117188 46.566406 78.3125 45.988281 C 78.503906 45.410156 78.714844 44.882812 78.765625 44.800781 C 78.820312 44.722656 79.136719 43.960938 79.4375 43.089844 C 80.070312 41.324219 80.261719 40.796875 80.773438 39.664062 C 80.964844 39.242188 81.335938 38.265625 81.578125 37.554688 C 82.195312 35.761719 82.511719 34.945312 82.636719 34.789062 C 82.6875 34.707031 83.003906 33.890625 83.355469 32.941406 C 84.515625 29.675781 85.148438 28.066406 85.289062 27.988281 C 85.359375 27.9375 85.429688 27.777344 85.429688 27.644531 C 85.429688 27.515625 85.640625 26.90625 85.886719 26.328125 C 86.132812 25.722656 86.539062 24.695312 86.78125 24.035156 C 87.046875 23.351562 87.382812 22.425781 87.558594 22.003906 C 87.734375 21.558594 88.046875 20.742188 88.242188 20.160156 C 88.4375 19.582031 88.804688 18.632812 89.03125 18.050781 C 89.28125 17.472656 89.5625 16.734375 89.648438 16.390625 C 89.875 15.628906 90.175781 15.761719 90.527344 16.761719 C 90.667969 17.183594 90.828125 17.578125 90.878906 17.65625 C 91.054688 17.921875 92.460938 21.691406 92.460938 21.902344 C 92.460938 22.03125 92.515625 22.136719 92.601562 22.136719 C 92.671875 22.136719 92.867188 22.585938 93.042969 23.113281 C 93.21875 23.667969 93.5 24.457031 93.691406 24.90625 C 93.867188 25.328125 94.167969 26.117188 94.34375 26.617188 C 94.5 27.117188 94.695312 27.59375 94.765625 27.671875 C 94.816406 27.75 95.21875 28.753906 95.625 29.914062 C 96.03125 31.070312 96.433594 32.074219 96.503906 32.152344 C 96.574219 32.230469 96.785156 32.730469 96.960938 33.257812 C 97.609375 35.15625 98.492188 37.554688 98.59375 37.6875 C 98.648438 37.765625 98.859375 38.292969 99.035156 38.871094 C 99.230469 39.453125 99.546875 40.269531 99.757812 40.71875 C 99.96875 41.140625 100.265625 41.929688 100.421875 42.429688 C 100.601562 42.929688 100.933594 43.828125 101.179688 44.40625 C 101.40625 44.988281 101.6875 45.699219 101.796875 45.988281 C 101.882812 46.277344 102.058594 46.753906 102.183594 47.042969 C 102.710938 48.386719 103.464844 50.257812 103.65625 50.730469 C 103.78125 51.023438 103.921875 51.445312 103.992188 51.65625 C 104.0625 51.863281 104.378906 52.683594 104.714844 53.445312 C 105.03125 54.210938 105.292969 55 105.292969 55.210938 C 105.292969 55.421875 105.363281 55.609375 105.453125 55.609375 C 105.539062 55.609375 105.679688 55.871094 105.75 56.1875 C 105.820312 56.53125 105.925781 56.847656 105.996094 56.925781 C 106.046875 57.003906 106.453125 58.003906 106.875 59.164062 C 107.28125 60.324219 107.753906 61.5625 107.914062 61.933594 C 108.421875 63.117188 108.617188 63.644531 108.914062 64.566406 C 109.089844 65.070312 109.320312 65.675781 109.441406 65.886719 C 109.5625 66.097656 109.953125 67.097656 110.320312 68.125 C 110.671875 69.128906 111.109375 70.261719 111.269531 70.628906 C 111.445312 71 111.640625 71.550781 111.691406 71.867188 C 111.761719 72.210938 111.902344 72.472656 111.992188 72.472656 C 112.078125 72.472656 112.148438 72.605469 112.148438 72.765625 C 112.148438 72.949219 112.359375 73.582031 112.640625 74.214844 C 113.117188 75.375 113.132812 75.375 114.136719 75.375 C 115.121094 75.375 115.382812 75.082031 114.980469 74.425781 C 114.890625 74.292969 114.574219 73.476562 114.257812 72.605469 C 113.941406 71.738281 113.625 70.972656 113.554688 70.894531 C 113.5 70.8125 113.308594 70.339844 113.132812 69.839844 C 112.5 67.941406 112.042969 66.78125 111.671875 65.964844 C 111.445312 65.515625 111.269531 65.09375 111.269531 65.015625 C 111.269531 64.9375 110.917969 64.015625 110.496094 62.933594 C 110.058594 61.878906 109.511719 60.402344 109.265625 59.691406 C 109.019531 58.953125 108.617188 57.902344 108.386719 57.320312 C 108.140625 56.742188 107.859375 56.027344 107.753906 55.738281 C 107.667969 55.449219 107.386719 54.738281 107.140625 54.15625 C 106.910156 53.578125 106.542969 52.628906 106.347656 52.050781 C 106.15625 51.46875 105.75 50.46875 105.46875 49.808594 C 105.011719 48.703125 104.625 47.703125 103.78125 45.328125 C 103.589844 44.828125 103.34375 44.273438 103.234375 44.0625 C 103.113281 43.878906 103.007812 43.589844 103.007812 43.457031 C 103.007812 43.273438 102.726562 42.507812 101.65625 39.925781 C 101.53125 39.636719 101.304688 38.976562 101.125 38.476562 C 100.96875 37.976562 100.777344 37.503906 100.703125 37.421875 C 100.636719 37.34375 100.28125 36.472656 99.949219 35.445312 C 99.597656 34.445312 99.195312 33.445312 99.070312 33.207031 C 98.949219 32.996094 98.71875 32.390625 98.542969 31.890625 C 98.386719 31.386719 98.015625 30.359375 97.71875 29.648438 C 97.417969 28.910156 97.136719 28.121094 97.085938 27.855469 C 97.03125 27.621094 96.925781 27.410156 96.839844 27.410156 C 96.75 27.410156 96.679688 27.277344 96.679688 27.117188 C 96.679688 26.933594 96.382812 26.089844 96.011719 25.195312 C 95.660156 24.296875 95.238281 23.21875 95.097656 22.796875 C 94.957031 22.347656 94.765625 21.820312 94.640625 21.609375 C 94.535156 21.398438 94.253906 20.6875 94.007812 20.027344 C 93.78125 19.371094 93.375 18.34375 93.109375 17.710938 C 92.847656 17.078125 92.546875 16.3125 92.445312 15.996094 C 92.355469 15.679688 92.125 15.046875 91.933594 14.625 C 91.742188 14.179688 91.511719 13.597656 91.40625 13.308594 C 90.84375 11.675781 90.210938 10.171875 90.054688 10.09375 C 89.949219 10.042969 89.773438 10.382812 89.632812 10.859375 Z M 89.632812 10.859375 "/>
<path style=" stroke:none;fill-rule:nonzero;fill:rgb(100%,100%,100%);fill-opacity:1;" d="M 93.445312 80.433594 C 93.078125 81.199219 93.09375 81.832031 93.460938 82.777344 C 93.796875 83.597656 94.304688 83.78125 94.78125 83.199219 C 94.992188 82.964844 95.046875 82.566406 94.972656 81.355469 C 94.886719 79.851562 94.867188 79.851562 94.289062 79.851562 C 93.882812 79.851562 93.621094 80.039062 93.445312 80.433594 Z M 93.445312 80.433594 "/>
<path style=" stroke:none;fill-rule:nonzero;fill:rgb(100%,100%,100%);fill-opacity:1;" d="M 23.539062 83.914062 C 23.46875 84.015625 22.640625 84.203125 21.691406 84.332031 C 19.6875 84.625 18.859375 84.808594 18.367188 85.097656 C 17.4375 85.652344 16.75 85.996094 16.3125 86.097656 C 16.03125 86.179688 15.820312 86.335938 15.820312 86.441406 C 15.820312 86.574219 15.644531 86.757812 15.433594 86.835938 C 15.046875 86.996094 13.640625 87.996094 12.921875 88.628906 C 11.777344 89.632812 11.109375 90.289062 10.722656 90.789062 C 10.476562 91.132812 10.195312 91.421875 10.070312 91.476562 C 9.71875 91.660156 8.085938 94.085938 8.085938 94.453125 C 8.085938 95.035156 8.683594 95.667969 9.105469 95.480469 C 9.316406 95.402344 9.492188 95.246094 9.492188 95.140625 C 9.492188 94.769531 10 94.109375 11.601562 92.398438 C 12.710938 91.210938 15.171875 89.210938 16.4375 88.445312 C 17.121094 88.050781 17.824219 87.601562 18.015625 87.496094 C 19.25 86.730469 21.480469 86.363281 25.136719 86.363281 C 29.355469 86.335938 30.429688 86.546875 34.277344 88.023438 C 34.609375 88.15625 35.207031 88.367188 35.59375 88.496094 C 35.984375 88.628906 36.492188 88.867188 36.738281 89.023438 C 36.984375 89.15625 37.652344 89.5 38.234375 89.738281 C 38.8125 90 39.359375 90.289062 39.464844 90.421875 C 39.550781 90.554688 39.796875 90.660156 40.007812 90.660156 C 40.234375 90.660156 40.464844 90.765625 40.515625 90.921875 C 40.570312 91.054688 40.796875 91.1875 41.027344 91.1875 C 41.238281 91.1875 41.574219 91.371094 41.765625 91.582031 C 41.941406 91.792969 42.238281 91.976562 42.417969 91.976562 C 42.574219 91.976562 42.855469 92.082031 43.03125 92.214844 C 43.59375 92.660156 45.613281 93.820312 45.808594 93.820312 C 45.984375 93.820312 46.84375 94.347656 47.496094 94.902344 C 47.671875 95.035156 47.9375 95.140625 48.078125 95.140625 C 48.21875 95.140625 48.480469 95.246094 48.65625 95.375 C 49.484375 95.984375 50.253906 96.457031 50.890625 96.746094 C 51.277344 96.90625 51.800781 97.222656 52.066406 97.40625 C 52.3125 97.617188 52.644531 97.773438 52.804688 97.773438 C 52.964844 97.773438 53.226562 97.878906 53.402344 98.011719 C 53.859375 98.355469 54.808594 98.828125 55.984375 99.328125 C 56.566406 99.566406 57.128906 99.832031 57.21875 99.910156 C 57.324219 100.015625 57.671875 100.171875 58.007812 100.277344 C 58.34375 100.382812 58.710938 100.566406 58.796875 100.671875 C 58.90625 100.777344 59.292969 100.9375 59.675781 101.015625 C 61.769531 101.464844 62.347656 101.648438 62.667969 101.914062 C 63.96875 102.941406 72.753906 102.859375 74.796875 101.78125 C 76.289062 100.988281 76.796875 100.859375 77.078125 101.199219 C 77.21875 101.386719 77.34375 101.78125 77.359375 102.097656 C 77.359375 102.386719 77.519531 102.992188 77.714844 103.441406 C 77.890625 103.863281 78.097656 104.414062 78.152344 104.625 C 78.625 106.339844 78.90625 107 79.664062 108.105469 C 80.140625 108.789062 80.667969 109.371094 80.824219 109.371094 C 81.230469 109.371094 82.457031 108.105469 83.179688 106.972656 C 84.128906 105.46875 84.5 104.730469 85.289062 102.859375 C 85.691406 101.886719 86.078125 101.015625 86.132812 100.9375 C 86.1875 100.859375 86.46875 100.121094 86.75 99.304688 C 87.238281 97.878906 87.714844 97.378906 87.960938 98.011719 C 88.015625 98.144531 88.363281 98.300781 88.71875 98.378906 C 89.085938 98.460938 89.703125 98.644531 90.089844 98.800781 C 90.472656 98.960938 91.160156 99.09375 91.636719 99.09375 L 92.460938 99.09375 L 92.460938 100.910156 C 92.460938 101.9375 92.546875 102.835938 92.636719 102.914062 C 92.742188 102.992188 92.8125 103.414062 92.8125 103.808594 C 92.8125 104.363281 93.023438 104.863281 93.605469 105.65625 C 94.324219 106.628906 94.464844 106.734375 95.328125 106.734375 C 96.855469 106.734375 98.085938 105.628906 100.089844 102.492188 C 101.019531 101.042969 101.777344 99.75 101.777344 99.59375 C 101.777344 99.460938 101.96875 99.011719 102.21875 98.617188 C 102.464844 98.222656 102.65625 97.800781 102.65625 97.695312 C 102.65625 97.5625 102.847656 97.089844 103.09375 96.613281 C 103.34375 96.140625 103.535156 95.640625 103.535156 95.507812 C 103.535156 94.847656 106.328125 91.871094 108.191406 90.554688 C 108.773438 90.132812 109.390625 89.683594 109.546875 89.578125 C 109.722656 89.445312 110.039062 89.339844 110.265625 89.339844 C 110.496094 89.339844 110.761719 89.210938 110.863281 89.050781 C 110.953125 88.917969 111.425781 88.707031 111.902344 88.65625 C 112.375 88.578125 112.886719 88.390625 113.0625 88.261719 C 113.449219 87.945312 118.230469 87.945312 118.953125 88.261719 C 119.265625 88.390625 119.902344 88.550781 120.359375 88.578125 C 120.832031 88.601562 121.394531 88.761719 121.640625 88.894531 C 121.886719 89.023438 122.394531 89.234375 122.78125 89.367188 C 123.171875 89.472656 124.03125 89.738281 124.71875 89.972656 C 125.386719 90.210938 126.125 90.394531 126.316406 90.394531 C 126.527344 90.394531 126.792969 90.554688 126.894531 90.765625 C 127 90.976562 127.316406 91.1875 127.582031 91.265625 C 127.84375 91.34375 128.496094 91.632812 129.023438 91.925781 C 129.550781 92.214844 130.464844 92.660156 131.046875 92.898438 C 131.625 93.164062 132.1875 93.453125 132.277344 93.558594 C 132.378906 93.664062 132.644531 93.820312 132.890625 93.875 C 133.261719 94.003906 134.347656 94.53125 135.96875 95.402344 C 137.621094 96.273438 137.988281 96.457031 139.484375 97.011719 C 139.851562 97.167969 140.253906 97.378906 140.359375 97.484375 C 140.535156 97.695312 141.0625 97.878906 142.382812 98.222656 C 142.71875 98.300781 143.085938 98.484375 143.207031 98.617188 C 143.3125 98.75 143.753906 98.90625 144.175781 98.988281 C 144.578125 99.066406 145 99.222656 145.089844 99.382812 C 145.195312 99.515625 145.597656 99.621094 146.019531 99.621094 C 146.425781 99.621094 147.183594 99.777344 147.707031 99.988281 C 149.011719 100.488281 155.144531 100.488281 156.269531 99.988281 C 156.707031 99.777344 157.269531 99.621094 157.535156 99.621094 C 157.796875 99.621094 158.1875 99.515625 158.414062 99.382812 C 158.640625 99.25 159.171875 98.933594 159.609375 98.695312 C 160.046875 98.433594 160.964844 97.828125 161.667969 97.351562 C 162.351562 96.851562 162.96875 96.457031 163.035156 96.457031 C 163.265625 96.457031 164.179688 95.296875 164.179688 94.980469 C 164.179688 94.824219 164.074219 94.53125 163.933594 94.375 C 163.738281 94.136719 163.265625 94.402344 161.703125 95.613281 C 159.800781 97.089844 159.363281 97.351562 158.113281 97.695312 C 157.832031 97.773438 157.5 97.933594 157.394531 98.066406 C 157.289062 98.195312 156.78125 98.355469 156.269531 98.433594 C 155.761719 98.511719 155.019531 98.695312 154.617188 98.828125 C 153.6875 99.144531 150.378906 99.171875 149.589844 98.855469 C 149.253906 98.695312 148.394531 98.539062 147.691406 98.460938 C 146.988281 98.378906 146.25 98.167969 146.074219 98.039062 C 145.898438 97.878906 145.476562 97.773438 145.125 97.773438 C 144.792969 97.773438 144.457031 97.640625 144.40625 97.511719 C 144.351562 97.351562 144 97.246094 143.648438 97.246094 C 143.296875 97.222656 142.804688 97.0625 142.558594 96.851562 C 142.3125 96.640625 141.90625 96.484375 141.644531 96.457031 C 141.378906 96.457031 141.117188 96.324219 141.0625 96.191406 C 141.011719 96.035156 140.765625 95.929688 140.519531 95.929688 C 140.273438 95.929688 139.871094 95.773438 139.605469 95.585938 C 139.34375 95.375 138.746094 95.058594 138.25 94.902344 C 137.777344 94.71875 137.144531 94.402344 136.84375 94.21875 C 136.5625 94.03125 135.96875 93.714844 135.527344 93.558594 C 135.089844 93.375 134.527344 93.082031 134.261719 92.871094 C 134.015625 92.660156 133.644531 92.503906 133.453125 92.503906 C 133.242188 92.503906 133.03125 92.371094 132.980469 92.238281 C 132.925781 92.082031 132.644531 91.976562 132.363281 91.976562 C 132.082031 91.976562 131.800781 91.84375 131.75 91.710938 C 131.695312 91.554688 131.484375 91.449219 131.273438 91.449219 C 131.078125 91.449219 130.710938 91.292969 130.464844 91.082031 C 129.9375 90.683594 129.058594 90.261719 128.199219 90 C 127.878906 89.894531 127.617188 89.710938 127.617188 89.550781 C 127.617188 89.394531 127.496094 89.367188 127.335938 89.445312 C 127.175781 89.527344 126.808594 89.445312 126.511719 89.234375 C 126.191406 89.023438 125.71875 88.789062 125.421875 88.734375 C 125.140625 88.65625 124.453125 88.390625 123.925781 88.15625 C 123.398438 87.890625 122.609375 87.628906 122.167969 87.523438 C 121.730469 87.417969 121.269531 87.257812 121.167969 87.152344 C 121.042969 87.023438 120.5 86.890625 119.96875 86.835938 C 119.441406 86.757812 118.84375 86.601562 118.671875 86.441406 C 118.230469 86.097656 112.464844 86.097656 111.726562 86.414062 C 111.425781 86.546875 110.671875 86.890625 110.039062 87.128906 C 109.40625 87.390625 108.546875 87.863281 108.125 88.207031 C 107.703125 88.550781 107.246094 88.8125 107.121094 88.8125 C 106.980469 88.8125 106.875 88.917969 106.875 89.050781 C 106.875 89.183594 106.734375 89.339844 106.578125 89.445312 C 106.121094 89.65625 105.03125 90.683594 104.519531 91.371094 C 104.253906 91.710938 103.992188 91.976562 103.921875 91.976562 C 103.730469 91.976562 102.304688 94.109375 102.304688 94.402344 C 102.304688 94.53125 102.164062 94.953125 101.96875 95.351562 C 101.796875 95.746094 101.355469 96.746094 100.984375 97.5625 C 100.195312 99.382812 98.226562 102.441406 97.171875 103.492188 C 96.75 103.941406 96.117188 104.363281 95.730469 104.441406 C 95.152344 104.574219 94.992188 104.496094 94.550781 103.835938 L 94.042969 103.097656 L 94.042969 96.824219 C 94.042969 93.1875 94.128906 89.894531 94.253906 88.917969 C 94.429688 87.417969 94.429688 87.179688 94.128906 86.707031 C 93.726562 86.046875 93.605469 86.046875 93.144531 86.730469 C 92.882812 87.128906 92.8125 87.496094 92.863281 87.972656 C 92.917969 88.367188 92.847656 89.578125 92.707031 90.660156 C 92.566406 91.738281 92.460938 93.425781 92.460938 94.402344 C 92.460938 95.429688 92.375 96.246094 92.265625 96.351562 C 91.984375 96.589844 89.808594 96.484375 89.578125 96.21875 C 89.472656 96.085938 89.085938 95.929688 88.734375 95.824219 C 88.261719 95.691406 88.066406 95.507812 88.066406 95.164062 C 88.066406 94.902344 88.121094 94.613281 88.171875 94.53125 C 88.46875 94.109375 88.925781 91.449219 88.945312 90.261719 C 88.945312 88.8125 88.382812 87.234375 87.46875 86.152344 C 86.871094 85.441406 85.832031 85.363281 85.21875 85.96875 C 84.585938 86.574219 83.847656 89.023438 83.847656 90.449219 C 83.847656 91.660156 84.183594 93.375 84.515625 93.875 C 84.640625 94.058594 84.726562 94.320312 84.726562 94.453125 C 84.726562 94.613281 85.007812 95.164062 85.359375 95.691406 L 85.992188 96.667969 L 85.0625 98.855469 C 84.566406 100.066406 84.078125 101.09375 84.003906 101.148438 C 83.917969 101.199219 83.847656 101.359375 83.847656 101.515625 C 83.847656 102.125 81.070312 106.789062 80.824219 106.578125 C 80.5625 106.339844 79.804688 104.390625 79.804688 103.96875 C 79.804688 103.757812 79.734375 103.574219 79.628906 103.574219 C 79.542969 103.574219 79.453125 103.414062 79.453125 103.203125 C 79.453125 102.992188 79.3125 102.441406 79.15625 101.9375 C 78.625 100.332031 78.574219 100.148438 78.574219 99.671875 C 78.574219 99.410156 78.503906 99.09375 78.417969 98.960938 C 78.238281 98.695312 77.941406 97.117188 77.75 95.535156 C 77.695312 95.085938 77.589844 94.613281 77.5 94.453125 C 77.34375 94.164062 77.027344 91.476562 76.871094 88.945312 C 76.765625 87.417969 76.570312 86.96875 76.027344 86.96875 C 75.5 86.96875 75.164062 87.996094 75.304688 89.261719 C 75.359375 89.816406 75.445312 90.976562 75.5 91.84375 C 75.585938 93.242188 75.761719 94.402344 76.308594 97.140625 C 76.589844 98.566406 76.515625 99.09375 76.027344 99.09375 C 75.78125 99.09375 75.445312 99.199219 75.269531 99.328125 C 75.109375 99.460938 74.375 99.75 73.652344 100.015625 C 71.808594 100.671875 65.320312 100.671875 63.652344 100.042969 C 63.035156 99.777344 62.488281 99.644531 62.453125 99.726562 C 62.402344 99.804688 62.085938 99.699219 61.75 99.488281 C 61.402344 99.277344 60.90625 99.09375 60.625 99.09375 C 60.363281 99.09375 59.957031 98.988281 59.730469 98.855469 C 59.5 98.75 58.886719 98.433594 58.359375 98.222656 C 56.320312 97.328125 54.386719 96.402344 54.105469 96.167969 C 53.929688 96.035156 53.683594 95.929688 53.542969 95.929688 C 53.421875 95.929688 53.066406 95.746094 52.804688 95.535156 C 52.523438 95.324219 52.171875 95.140625 52.015625 95.140625 C 51.855469 95.140625 51.679688 95.058594 51.609375 94.953125 C 51.453125 94.71875 50.253906 94.085938 49.9375 94.085938 C 49.796875 94.085938 49.550781 93.925781 49.410156 93.742188 C 49.253906 93.53125 48.671875 93.164062 48.128906 92.925781 C 47.566406 92.660156 47.074219 92.34375 47.003906 92.214844 C 46.953125 92.082031 46.722656 91.976562 46.496094 91.976562 C 46.265625 91.976562 46.035156 91.871094 45.96875 91.738281 C 45.914062 91.609375 45.613281 91.398438 45.316406 91.292969 C 44.769531 91.132812 44.613281 91.027344 43.769531 90.394531 C 43.578125 90.238281 43.261719 90.132812 43.082031 90.132812 C 42.890625 90.132812 42.699219 90.027344 42.644531 89.894531 C 42.574219 89.761719 42.082031 89.445312 41.519531 89.210938 C 40.972656 88.972656 40.289062 88.601562 40.027344 88.390625 C 39.746094 88.179688 39.375 88.023438 39.199219 88.023438 C 39.023438 88.023438 38.8125 87.890625 38.761719 87.761719 C 38.707031 87.601562 38.460938 87.496094 38.25 87.496094 C 38.019531 87.496094 37.597656 87.3125 37.335938 87.101562 C 37.054688 86.890625 36.652344 86.707031 36.4375 86.707031 C 36.230469 86.707031 36.015625 86.601562 35.964844 86.46875 C 35.910156 86.335938 35.5625 86.179688 35.207031 86.097656 C 34.839844 86.019531 34.066406 85.78125 33.484375 85.519531 C 32.90625 85.28125 31.957031 84.964844 31.375 84.835938 C 28.984375 84.253906 23.710938 83.648438 23.539062 83.914062 Z M 86.871094 88.472656 C 87.257812 88.972656 87.3125 91.160156 86.976562 92.765625 C 86.730469 93.953125 86.609375 94.03125 86.167969 93.347656 C 85.410156 92.238281 85.21875 90.210938 85.746094 88.839844 C 86.078125 87.917969 86.394531 87.8125 86.871094 88.472656 Z M 86.871094 88.472656 "/>
<path style=" stroke:none;fill-rule:nonzero;fill:rgb(100%,100%,100%);fill-opacity:1;" d="M 47.199219 121.152344 C 46.953125 121.546875 46.757812 122.046875 46.757812 122.230469 C 46.757812 122.414062 46.496094 123.207031 46.195312 123.972656 C 45.878906 124.707031 45.527344 125.578125 45.40625 125.867188 C 45.28125 126.132812 44.984375 126.949219 44.71875 127.6875 C 44.472656 128.398438 44.15625 129.1875 44.050781 129.398438 C 43.925781 129.609375 43.699219 130.21875 43.523438 130.71875 C 43.363281 131.21875 43.03125 132.113281 42.785156 132.695312 C 42.558594 133.273438 42.1875 134.273438 41.976562 134.933594 C 41.765625 135.59375 41.414062 136.488281 41.1875 136.9375 C 40.957031 137.386719 40.78125 137.886719 40.78125 138.015625 C 40.78125 138.175781 40.65625 138.359375 40.515625 138.464844 C 40.375 138.542969 40.253906 138.78125 40.253906 139.019531 C 40.253906 139.257812 39.972656 140.097656 39.640625 140.890625 C 39.304688 141.679688 39.023438 142.390625 39.023438 142.445312 C 39.023438 142.523438 38.828125 143.050781 38.582031 143.628906 C 38.25 144.421875 38.199219 144.738281 38.355469 144.816406 C 38.480469 144.894531 46.496094 144.921875 56.160156 144.894531 L 73.738281 144.816406 L 73.792969 143.550781 L 73.84375 142.3125 L 69.925781 142.3125 C 67.765625 142.289062 60.519531 142.3125 53.84375 142.3125 L 41.660156 142.339844 L 41.660156 141.761719 C 41.660156 141.46875 41.800781 140.890625 41.976562 140.519531 C 42.503906 139.28125 42.714844 138.753906 42.839844 138.359375 C 42.890625 138.148438 43.1875 137.359375 43.503906 136.648438 C 43.804688 135.910156 44.191406 134.90625 44.347656 134.40625 C 44.527344 133.90625 44.894531 132.878906 45.191406 132.167969 C 45.492188 131.429688 45.773438 130.636719 45.828125 130.375 C 45.878906 130.136719 45.984375 129.925781 46.074219 129.925781 C 46.160156 129.925781 46.230469 129.792969 46.230469 129.664062 C 46.230469 129.503906 46.511719 128.714844 46.84375 127.921875 C 47.179688 127.132812 47.460938 126.421875 47.460938 126.34375 C 47.460938 126.078125 49.464844 121.097656 49.605469 121.019531 C 49.675781 120.964844 49.746094 120.808594 49.746094 120.675781 C 49.746094 120.542969 49.269531 120.4375 48.691406 120.4375 C 47.777344 120.4375 47.601562 120.519531 47.199219 121.152344 Z M 47.199219 121.152344 "/>
<path style=" stroke:none;fill-rule:nonzero;fill:rgb(100%,100%,100%);fill-opacity:1;" d="M 130.605469 120.753906 C 130.605469 120.941406 130.851562 121.625 131.132812 122.285156 C 131.414062 122.941406 131.660156 123.574219 131.660156 123.679688 C 131.660156 123.8125 131.800781 124.234375 131.996094 124.601562 C 132.292969 125.289062 132.820312 126.660156 133.523438 128.609375 C 133.71875 129.109375 133.910156 129.585938 133.964844 129.664062 C 134.015625 129.742188 134.402344 130.742188 134.824219 131.902344 C 135.246094 133.0625 135.84375 134.589844 136.144531 135.328125 C 136.441406 136.042969 136.828125 137.070312 136.988281 137.570312 C 137.355469 138.648438 137.65625 139.414062 137.917969 139.835938 C 138.023438 140.019531 138.21875 140.546875 138.339844 140.996094 C 138.640625 142.101562 138.445312 142.289062 136.863281 142.261719 C 136.179688 142.261719 128.425781 142.289062 119.65625 142.289062 L 103.695312 142.3125 L 103.746094 143.550781 L 103.800781 144.816406 L 122.679688 144.894531 C 133.066406 144.921875 141.644531 144.84375 141.714844 144.738281 C 141.839844 144.554688 141.363281 143.078125 140.574219 141.128906 C 139.816406 139.28125 139.238281 137.78125 138.796875 136.515625 C 138.515625 135.726562 138.128906 134.695312 137.917969 134.273438 C 137.707031 133.828125 137.425781 133.117188 137.285156 132.695312 C 137.144531 132.246094 136.792969 131.296875 136.496094 130.585938 C 136.195312 129.847656 135.898438 129.058594 135.828125 128.820312 C 135.773438 128.554688 135.457031 127.710938 135.125 126.976562 C 134.808594 126.210938 134.402344 125.15625 134.246094 124.65625 C 133.910156 123.65625 133.558594 122.757812 133.417969 122.546875 C 133.367188 122.46875 133.171875 121.96875 132.980469 121.414062 C 132.644531 120.464844 132.609375 120.441406 131.625 120.441406 C 130.921875 120.441406 130.605469 120.542969 130.605469 120.753906 Z M 130.605469 120.753906 "/>
<path style=" stroke:none;fill-rule:nonzero;fill:rgb(100%,100%,100%);fill-opacity:1;" d="M 7.207031 159.945312 C 7.207031 160.074219 7.382812 160.234375 7.609375 160.289062 C 8 160.367188 8 160.417969 8 164.265625 L 8 168.140625 L 8.929688 168.140625 C 9.898438 168.140625 10.019531 168.007812 9.546875 167.480469 C 9.28125 167.191406 9.351562 166.953125 10.335938 165.214844 C 10.933594 164.160156 11.425781 163.132812 11.425781 162.921875 C 11.425781 162.738281 11.566406 162.605469 11.742188 162.660156 C 12.007812 162.738281 12.039062 163.054688 12.023438 164.976562 C 12.023438 166.214844 11.988281 167.402344 11.9375 167.613281 C 11.882812 167.929688 12.058594 168.035156 12.742188 168.085938 L 13.625 168.167969 L 13.625 164.265625 C 13.625 160.417969 13.625 160.367188 14.027344 160.289062 C 14.238281 160.234375 14.414062 160.074219 14.414062 159.945312 C 14.414062 159.628906 11.476562 159.628906 11.335938 159.972656 C 11.285156 160.101562 11.390625 160.234375 11.566406 160.234375 C 12.09375 160.234375 12.164062 160.894531 11.742188 161.738281 C 10.617188 163.949219 9.597656 165.769531 9.457031 165.769531 C 9.386719 165.769531 9.316406 164.636719 9.316406 163.265625 C 9.316406 160.839844 9.335938 160.734375 9.757812 160.445312 C 9.984375 160.289062 10.140625 160.050781 10.089844 159.945312 C 9.96875 159.628906 7.207031 159.65625 7.207031 159.945312 Z M 7.207031 159.945312 "/>
<path style=" stroke:none;fill-rule:nonzero;fill:rgb(100%,100%,100%);fill-opacity:1;" d="M 26.191406 159.996094 C 26.191406 160.15625 26.351562 160.339844 26.542969 160.417969 C 26.875 160.550781 26.894531 160.789062 26.894531 163.949219 C 26.894531 165.902344 26.824219 167.375 26.71875 167.480469 C 26.28125 167.875 26.632812 168.140625 27.597656 168.140625 C 28.601562 168.140625 28.96875 167.851562 28.371094 167.507812 C 28.160156 167.402344 28.125 167.007812 28.160156 165.847656 L 28.210938 164.320312 L 30.851562 164.320312 L 30.882812 165.636719 C 30.902344 166.453125 30.8125 167.113281 30.65625 167.375 C 30.304688 167.957031 30.515625 168.140625 31.585938 168.140625 C 32.519531 168.140625 32.710938 167.929688 32.289062 167.375 C 32.117188 167.164062 32.0625 166.296875 32.097656 163.871094 C 32.132812 160.894531 32.167969 160.601562 32.5 160.367188 C 33.171875 159.890625 32.890625 159.707031 31.464844 159.707031 C 30.128906 159.707031 29.65625 159.996094 30.390625 160.367188 C 30.65625 160.472656 30.742188 160.839844 30.796875 161.894531 C 30.851562 162.660156 30.851562 163.34375 30.8125 163.449219 C 30.710938 163.765625 28.511719 163.6875 28.371094 163.371094 C 28.210938 162.976562 28.140625 160.867188 28.300781 160.496094 C 28.371094 160.339844 28.53125 160.234375 28.652344 160.289062 C 28.773438 160.339844 28.914062 160.207031 28.953125 160.023438 C 29.023438 159.785156 28.671875 159.707031 27.617188 159.707031 C 26.703125 159.707031 26.191406 159.8125 26.191406 159.996094 Z M 26.191406 159.996094 "/>
<path style=" stroke:none;fill-rule:nonzero;fill:rgb(100%,100%,100%);fill-opacity:1;" d="M 44.613281 160.496094 C 44.488281 161.710938 44.734375 162 45.105469 161.050781 C 45.4375 160.179688 45.6875 160.074219 46.25 160.496094 C 46.546875 160.761719 46.582031 161.078125 46.582031 164.054688 C 46.582031 166.320312 46.511719 167.351562 46.371094 167.402344 C 45.859375 167.667969 46.511719 168.140625 47.390625 168.140625 C 48.269531 168.140625 48.585938 167.875 48.164062 167.480469 C 48.058594 167.375 47.988281 165.902344 47.988281 163.921875 C 47.988281 160.839844 48.023438 160.523438 48.320312 160.367188 C 48.796875 160.15625 49.203125 160.472656 49.5 161.316406 C 49.867188 162.421875 50.132812 162.261719 50.0625 160.945312 L 50.007812 159.839844 L 47.355469 159.761719 L 44.683594 159.679688 Z M 44.613281 160.496094 "/>
<path style=" stroke:none;fill-rule:nonzero;fill:rgb(100%,100%,100%);fill-opacity:1;" d="M 61.523438 159.945312 C 61.523438 160.074219 61.683594 160.289062 61.875 160.367188 C 62.191406 160.523438 62.226562 160.789062 62.261719 163.609375 C 62.28125 167.351562 62.296875 167.113281 62.140625 167.667969 C 62.03125 168.085938 62.121094 168.140625 62.984375 168.140625 C 64.019531 168.140625 64.316406 167.875 63.894531 167.351562 C 63.527344 166.875 63.546875 164.554688 63.914062 164.34375 C 64.546875 163.976562 65.039062 164.1875 65.214844 164.871094 C 65.320312 165.242188 65.460938 165.480469 65.546875 165.398438 C 65.722656 165.242188 65.796875 162.34375 65.636719 162.34375 C 65.566406 162.34375 65.375 162.632812 65.179688 163.027344 C 64.898438 163.527344 64.6875 163.660156 64.265625 163.609375 C 63.738281 163.527344 63.71875 163.476562 63.667969 162.105469 C 63.597656 160.445312 63.738281 160.234375 64.8125 160.234375 C 65.441406 160.234375 65.621094 160.367188 65.953125 161.023438 C 66.375 161.894531 66.605469 161.683594 66.480469 160.496094 L 66.410156 159.707031 L 63.96875 159.707031 C 62.578125 159.707031 61.523438 159.8125 61.523438 159.945312 Z M 61.523438 159.945312 "/>
<path style=" stroke:none;fill-rule:nonzero;fill:rgb(100%,100%,100%);fill-opacity:1;" d="M 78.679688 159.945312 C 78.625 160.074219 78.765625 160.261719 79.015625 160.339844 L 79.453125 160.496094 L 79.453125 163.921875 C 79.453125 165.902344 79.382812 167.375 79.277344 167.480469 C 78.835938 167.875 79.1875 168.140625 80.15625 168.140625 C 81.15625 168.140625 81.546875 167.796875 80.945312 167.457031 C 80.734375 167.324219 80.683594 166.664062 80.683594 163.921875 L 80.683594 160.550781 L 81.210938 160.390625 C 82.109375 160.128906 82.757812 160.472656 83.160156 161.445312 C 83.355469 161.945312 83.566406 162.34375 83.601562 162.34375 C 83.636719 162.34375 83.671875 161.738281 83.671875 161.023438 L 83.671875 159.707031 L 81.226562 159.707031 C 79.875 159.707031 78.734375 159.8125 78.679688 159.945312 Z M 78.679688 159.945312 "/>
<path style=" stroke:none;fill-rule:nonzero;fill:rgb(100%,100%,100%);fill-opacity:1;" d="M 95.21875 159.890625 C 95.152344 159.972656 95.273438 160.179688 95.5 160.339844 C 95.871094 160.628906 95.890625 160.8125 95.941406 163.898438 C 95.960938 165.847656 95.921875 167.269531 95.800781 167.480469 C 95.539062 167.957031 95.765625 168.140625 96.679688 168.140625 C 97.59375 168.140625 97.824219 167.957031 97.542969 167.457031 C 97.453125 167.269531 97.382812 166.613281 97.417969 165.980469 C 97.46875 164.925781 97.507812 164.847656 98.085938 164.660156 C 99.457031 164.238281 99.703125 164.082031 100.109375 163.265625 C 100.6875 162.132812 100.652344 161.421875 99.984375 160.472656 C 99.421875 159.707031 99.386719 159.707031 97.367188 159.707031 C 96.257812 159.707031 95.273438 159.785156 95.21875 159.890625 Z M 98.773438 160.683594 C 98.824219 160.734375 98.859375 161.316406 98.859375 161.972656 C 98.875 163 98.808594 163.292969 98.402344 163.738281 C 97.648438 164.582031 97.382812 164.214844 97.382812 162.238281 C 97.382812 161.128906 97.453125 160.496094 97.609375 160.417969 C 97.824219 160.289062 98.632812 160.472656 98.773438 160.683594 Z M 98.773438 160.683594 "/>
<path style=" stroke:none;fill-rule:nonzero;fill:rgb(100%,100%,100%);fill-opacity:1;" d="M 114.433594 160.179688 C 114.433594 160.445312 114.3125 160.894531 114.171875 161.183594 C 114.03125 161.445312 113.90625 161.945312 113.90625 162.238281 C 113.90625 162.554688 113.800781 162.871094 113.695312 162.949219 C 113.574219 163 113.359375 163.632812 113.238281 164.34375 C 112.921875 166.003906 112.675781 166.824219 112.253906 167.535156 L 111.921875 168.140625 L 112.554688 168.140625 C 113.1875 168.140625 113.539062 167.796875 113.203125 167.480469 C 112.921875 167.21875 112.992188 166.425781 113.34375 165.953125 C 113.554688 165.664062 113.976562 165.503906 114.574219 165.503906 C 115.402344 165.503906 115.488281 165.558594 115.734375 166.347656 C 115.890625 166.796875 115.980469 167.402344 115.910156 167.667969 C 115.824219 168.085938 115.929688 168.140625 116.789062 168.140625 C 117.6875 168.140625 118.019531 167.875 117.617188 167.480469 C 117.421875 167.324219 116.894531 165.820312 116.894531 165.453125 C 116.894531 165.347656 116.703125 164.636719 116.453125 163.871094 C 116.210938 163.132812 116.015625 162.289062 116.015625 162.054688 C 116.015625 161.789062 115.945312 161.527344 115.859375 161.421875 C 115.769531 161.339844 115.648438 160.917969 115.578125 160.496094 C 115.488281 159.839844 115.382812 159.707031 114.945312 159.707031 C 114.574219 159.707031 114.433594 159.839844 114.433594 160.179688 Z M 114.785156 162.738281 C 114.785156 163.082031 114.875 163.449219 114.960938 163.527344 C 115.1875 163.738281 115.1875 164.636719 114.945312 164.847656 C 114.855469 164.953125 114.574219 164.953125 114.328125 164.871094 C 113.976562 164.742188 113.90625 164.53125 113.90625 163.792969 C 113.90625 163.292969 113.976562 162.871094 114.0625 162.871094 C 114.152344 162.871094 114.292969 162.632812 114.34375 162.34375 C 114.484375 161.65625 114.785156 161.921875 114.785156 162.738281 Z M 114.785156 162.738281 "/>
<path style=" stroke:none;fill-rule:nonzero;fill:rgb(100%,100%,100%);fill-opacity:1;" d="M 129.375 159.972656 C 129.375 160.101562 129.464844 160.261719 129.550781 160.261719 C 129.65625 160.289062 129.832031 160.3125 129.953125 160.339844 C 130.113281 160.367188 130.167969 161.339844 130.167969 164.265625 L 130.167969 168.140625 L 131.097656 168.140625 C 131.941406 168.140625 132.257812 167.875 131.835938 167.480469 C 131.730469 167.375 131.660156 165.953125 131.660156 164.054688 C 131.660156 161.050781 131.695312 160.761719 132.011719 160.496094 C 132.699219 159.945312 132.34375 159.707031 130.871094 159.707031 C 129.988281 159.707031 129.375 159.8125 129.375 159.972656 Z M 129.375 159.972656 "/>
<path style=" stroke:none;fill-rule:nonzero;fill:rgb(100%,100%,100%);fill-opacity:1;" d="M 133.332031 159.945312 C 133.277344 160.074219 133.417969 160.234375 133.628906 160.289062 C 133.964844 160.339844 134.050781 160.578125 134.15625 161.550781 C 134.261719 162.683594 134.191406 166.320312 134.015625 167.535156 C 133.945312 168.035156 134.015625 168.140625 134.367188 168.140625 C 134.613281 168.140625 135.070312 168.535156 135.457031 169.0625 C 135.808594 169.5625 136.160156 169.984375 136.25 169.984375 C 136.320312 169.984375 136.371094 169.617188 136.371094 169.167969 C 136.355469 168.589844 136.195312 168.191406 135.84375 167.796875 C 135.351562 167.246094 135.351562 167.246094 135.351562 164.238281 C 135.351562 161.210938 135.511719 160.234375 135.96875 160.234375 C 136.109375 160.234375 136.230469 160.101562 136.230469 159.972656 C 136.230469 159.628906 133.472656 159.628906 133.332031 159.945312 Z M 133.332031 159.945312 "/>
<path style=" stroke:none;fill-rule:nonzero;fill:rgb(100%,100%,100%);fill-opacity:1;" d="M 148.007812 159.945312 C 148.007812 160.074219 148.167969 160.234375 148.359375 160.3125 C 148.675781 160.445312 148.710938 160.683594 148.746094 163.582031 C 148.746094 165.292969 148.746094 167.007812 148.730469 167.402344 C 148.691406 168.113281 148.710938 168.140625 149.675781 168.140625 C 150.609375 168.140625 150.644531 168.113281 150.46875 167.585938 C 150.257812 167.035156 150.433594 166.425781 151.136719 165.242188 C 151.296875 164.953125 151.71875 164.214844 152.050781 163.554688 C 152.984375 161.789062 153.105469 161.945312 153.105469 164.820312 C 153.105469 166.769531 153.050781 167.324219 152.84375 167.457031 C 152.261719 167.773438 152.628906 168.140625 153.527344 168.140625 L 154.496094 168.140625 L 154.371094 167.140625 C 154.25 166.085938 154.25 165.691406 154.300781 162.578125 C 154.335938 160.65625 154.355469 160.550781 154.777344 160.390625 C 155.636719 160.074219 155.019531 159.707031 153.613281 159.707031 C 152.734375 159.707031 152.226562 159.8125 152.226562 159.996094 C 152.226562 160.15625 152.386719 160.339844 152.578125 160.417969 C 152.769531 160.496094 152.929688 160.65625 152.929688 160.761719 C 152.929688 160.867188 152.769531 161.261719 152.578125 161.628906 C 152.386719 162 152.226562 162.421875 152.226562 162.578125 C 152.226562 162.738281 152.140625 162.871094 152.050781 162.871094 C 151.945312 162.871094 151.609375 163.398438 151.3125 164.054688 C 150.453125 165.875 150.277344 165.664062 150.328125 162.949219 C 150.378906 160.867188 150.417969 160.601562 150.765625 160.339844 C 150.996094 160.179688 151.121094 159.972656 151.046875 159.890625 C 150.875 159.628906 148.007812 159.679688 148.007812 159.945312 Z M 148.007812 159.945312 "/>
<path style=" stroke:none;fill-rule:nonzero;fill:rgb(100%,100%,100%);fill-opacity:1;" d="M 167.957031 160.523438 C 167.609375 161 167.34375 161.578125 167.34375 161.921875 C 167.34375 162.578125 167.816406 163.503906 168.273438 163.738281 C 168.695312 163.976562 168.644531 164.503906 168.132812 165.242188 C 167.890625 165.585938 167.695312 165.980469 167.695312 166.136719 C 167.695312 166.296875 167.535156 166.71875 167.34375 167.085938 C 166.867188 168.007812 166.90625 168.140625 167.660156 168.140625 C 168.414062 168.140625 168.925781 167.535156 168.925781 166.664062 C 168.925781 166.003906 170.066406 164.109375 170.367188 164.238281 C 170.648438 164.398438 170.769531 167.058594 170.523438 167.429688 C 170.15625 167.984375 170.332031 168.140625 171.296875 168.140625 C 172.195312 168.140625 172.511719 167.875 172.089844 167.480469 C 171.984375 167.375 171.914062 165.902344 171.914062 163.921875 L 171.914062 160.496094 L 172.351562 160.339844 C 173.355469 159.972656 172.671875 159.707031 170.683594 159.707031 C 168.59375 159.707031 168.59375 159.707031 167.957031 160.523438 Z M 170.648438 161.921875 C 170.703125 163.660156 170.5625 164.054688 169.910156 163.820312 C 169.277344 163.582031 168.925781 162.949219 168.925781 162.054688 C 168.925781 160.917969 169.46875 160.207031 170.242188 160.3125 C 170.542969 160.367188 170.59375 160.578125 170.648438 161.921875 Z M 170.648438 161.921875 "/>
<path style=" stroke:none;fill-rule:nonzero;fill:rgb(100%,100%,100%);fill-opacity:1;" d="M 66.621094 165.875 C 66.621094 166.136719 66.390625 166.691406 66.09375 167.140625 C 65.8125 167.5625 65.566406 167.984375 65.566406 168.035156 C 65.566406 168.113281 65.863281 168.140625 66.234375 168.085938 C 66.847656 168.007812 66.886719 167.957031 66.9375 166.980469 C 66.972656 166.425781 66.921875 165.847656 66.8125 165.691406 C 66.671875 165.480469 66.621094 165.53125 66.621094 165.875 Z M 66.621094 165.875 "/>
</g>
</svg>
