<?xml version="1.0" encoding="UTF-8"?>
<svg xmlns="http://www.w3.org/2000/svg" xmlns:xlink="http://www.w3.org/1999/xlink" width="32px" height="32px" viewBox="0 0 32 32" version="1.1">
<g id="surface1">
<path style=" stroke:none;fill-rule:nonzero;fill:rgb(100%,100%,100%);fill-opacity:1;" d="M 15.933594 1.929688 C 15.914062 2.015625 15.882812 2.09375 15.875 2.109375 C 15.847656 2.144531 15.65625 2.613281 15.546875 2.929688 C 15.386719 3.367188 15.332031 3.515625 15.304688 3.515625 C 15.289062 3.515625 15.28125 3.542969 15.28125 3.578125 C 15.28125 3.613281 15.222656 3.796875 15.148438 3.976562 C 14.96875 4.4375 14.851562 4.742188 14.820312 4.824219 C 14.808594 4.863281 14.757812 5 14.703125 5.128906 C 14.648438 5.257812 14.582031 5.445312 14.546875 5.539062 C 14.511719 5.636719 14.476562 5.714844 14.460938 5.714844 C 14.445312 5.714844 14.4375 5.75 14.4375 5.785156 C 14.4375 5.851562 14.382812 6.007812 14.195312 6.445312 C 14.175781 6.492188 14.132812 6.609375 14.105469 6.699219 C 14.074219 6.789062 14.035156 6.898438 14.011719 6.933594 C 13.992188 6.972656 13.945312 7.078125 13.914062 7.167969 C 13.710938 7.722656 13.648438 7.875 13.507812 8.222656 C 13.488281 8.273438 13.433594 8.417969 13.386719 8.550781 C 13.34375 8.675781 13.289062 8.816406 13.261719 8.859375 C 13.238281 8.898438 13.21875 8.957031 13.21875 8.992188 C 13.21875 9.019531 13.195312 9.101562 13.164062 9.171875 C 13.03125 9.46875 12.980469 9.589844 12.9375 9.722656 C 12.914062 9.796875 12.867188 9.921875 12.828125 10.003906 C 12.789062 10.078125 12.738281 10.21875 12.707031 10.308594 C 12.679688 10.394531 12.628906 10.53125 12.597656 10.613281 C 12.4375 11.003906 12.21875 11.589844 12.21875 11.625 C 12.21875 11.644531 12.210938 11.667969 12.195312 11.675781 C 12.179688 11.679688 12.144531 11.773438 12.109375 11.878906 C 12.078125 11.980469 12.023438 12.125 11.984375 12.199219 C 11.921875 12.335938 11.851562 12.519531 11.734375 12.867188 C 11.703125 12.96875 11.65625 13.078125 11.632812 13.109375 C 11.59375 13.175781 11.542969 13.390625 11.566406 13.417969 C 11.570312 13.421875 11.652344 13.417969 11.746094 13.40625 C 11.886719 13.382812 11.925781 13.351562 11.964844 13.25 C 12.058594 13.019531 12.226562 12.578125 12.285156 12.429688 C 12.351562 12.257812 12.46875 11.957031 12.523438 11.832031 C 12.542969 11.777344 12.570312 11.703125 12.585938 11.667969 C 12.59375 11.628906 12.632812 11.535156 12.667969 11.457031 C 12.707031 11.378906 12.761719 11.230469 12.800781 11.128906 C 12.835938 11.023438 12.910156 10.8125 12.96875 10.660156 C 13.023438 10.503906 13.101562 10.304688 13.132812 10.214844 C 13.164062 10.125 13.210938 10.015625 13.230469 9.980469 C 13.253906 9.941406 13.289062 9.84375 13.3125 9.769531 C 13.335938 9.6875 13.394531 9.542969 13.4375 9.441406 C 13.527344 9.21875 13.578125 9.085938 13.667969 8.832031 C 13.707031 8.730469 13.761719 8.578125 13.796875 8.503906 C 13.832031 8.425781 13.886719 8.277344 13.921875 8.175781 C 13.957031 8.074219 13.992188 7.980469 14.003906 7.964844 C 14.011719 7.949219 14.070312 7.816406 14.121094 7.660156 C 14.234375 7.347656 14.269531 7.253906 14.359375 7.050781 C 14.394531 6.976562 14.460938 6.804688 14.503906 6.675781 C 14.613281 6.359375 14.667969 6.210938 14.691406 6.183594 C 14.699219 6.171875 14.757812 6.023438 14.820312 5.855469 C 15.023438 5.277344 15.136719 4.988281 15.164062 4.976562 C 15.175781 4.964844 15.1875 4.9375 15.1875 4.914062 C 15.1875 4.890625 15.226562 4.785156 15.269531 4.679688 C 15.3125 4.574219 15.382812 4.390625 15.429688 4.273438 C 15.476562 4.152344 15.535156 3.988281 15.566406 3.914062 C 15.597656 3.832031 15.652344 3.6875 15.6875 3.585938 C 15.722656 3.480469 15.789062 3.3125 15.828125 3.210938 C 15.871094 3.105469 15.921875 2.976562 15.9375 2.914062 C 15.976562 2.777344 16.03125 2.800781 16.09375 2.980469 C 16.117188 3.054688 16.148438 3.125 16.15625 3.140625 C 16.1875 3.1875 16.4375 3.855469 16.4375 3.894531 C 16.4375 3.917969 16.445312 3.9375 16.460938 3.9375 C 16.476562 3.9375 16.507812 4.015625 16.539062 4.109375 C 16.570312 4.207031 16.621094 4.347656 16.65625 4.425781 C 16.6875 4.503906 16.742188 4.644531 16.773438 4.730469 C 16.800781 4.820312 16.835938 4.90625 16.847656 4.917969 C 16.855469 4.933594 16.929688 5.113281 17 5.316406 C 17.070312 5.523438 17.144531 5.703125 17.15625 5.714844 C 17.167969 5.730469 17.207031 5.820312 17.238281 5.914062 C 17.351562 6.25 17.507812 6.675781 17.527344 6.699219 C 17.539062 6.714844 17.574219 6.808594 17.605469 6.910156 C 17.640625 7.015625 17.695312 7.160156 17.734375 7.238281 C 17.773438 7.3125 17.824219 7.453125 17.851562 7.542969 C 17.882812 7.632812 17.945312 7.792969 17.988281 7.894531 C 18.027344 7.996094 18.078125 8.125 18.097656 8.175781 C 18.113281 8.226562 18.144531 8.3125 18.164062 8.363281 C 18.257812 8.601562 18.394531 8.933594 18.429688 9.019531 C 18.449219 9.070312 18.476562 9.144531 18.488281 9.183594 C 18.5 9.21875 18.554688 9.367188 18.617188 9.5 C 18.671875 9.636719 18.71875 9.777344 18.71875 9.816406 C 18.71875 9.851562 18.730469 9.886719 18.746094 9.886719 C 18.761719 9.886719 18.789062 9.933594 18.800781 9.988281 C 18.8125 10.050781 18.832031 10.105469 18.84375 10.121094 C 18.851562 10.132812 18.925781 10.3125 19 10.519531 C 19.070312 10.722656 19.15625 10.945312 19.183594 11.011719 C 19.273438 11.222656 19.308594 11.316406 19.363281 11.480469 C 19.394531 11.566406 19.433594 11.675781 19.457031 11.714844 C 19.476562 11.75 19.546875 11.929688 19.613281 12.109375 C 19.675781 12.289062 19.753906 12.492188 19.78125 12.554688 C 19.8125 12.621094 19.847656 12.71875 19.855469 12.777344 C 19.867188 12.835938 19.894531 12.882812 19.910156 12.882812 C 19.925781 12.882812 19.9375 12.90625 19.9375 12.9375 C 19.9375 12.96875 19.976562 13.082031 20.023438 13.195312 C 20.109375 13.398438 20.113281 13.398438 20.289062 13.398438 C 20.464844 13.398438 20.511719 13.347656 20.441406 13.230469 C 20.425781 13.207031 20.367188 13.0625 20.3125 12.90625 C 20.257812 12.753906 20.199219 12.617188 20.1875 12.601562 C 20.179688 12.589844 20.144531 12.503906 20.113281 12.414062 C 20 12.078125 19.917969 11.871094 19.851562 11.726562 C 19.8125 11.648438 19.78125 11.574219 19.78125 11.558594 C 19.78125 11.542969 19.71875 11.378906 19.644531 11.1875 C 19.566406 11 19.46875 10.738281 19.425781 10.613281 C 19.382812 10.480469 19.308594 10.292969 19.269531 10.191406 C 19.226562 10.085938 19.175781 9.960938 19.15625 9.910156 C 19.140625 9.859375 19.089844 9.730469 19.046875 9.628906 C 19.007812 9.523438 18.941406 9.355469 18.90625 9.253906 C 18.871094 9.148438 18.800781 8.972656 18.75 8.855469 C 18.667969 8.660156 18.601562 8.480469 18.449219 8.058594 C 18.414062 7.96875 18.371094 7.871094 18.351562 7.832031 C 18.332031 7.800781 18.3125 7.75 18.3125 7.726562 C 18.3125 7.691406 18.261719 7.558594 18.070312 7.097656 C 18.050781 7.046875 18.007812 6.929688 17.976562 6.839844 C 17.949219 6.75 17.914062 6.667969 17.902344 6.652344 C 17.890625 6.640625 17.828125 6.484375 17.769531 6.300781 C 17.707031 6.125 17.632812 5.945312 17.613281 5.902344 C 17.589844 5.867188 17.550781 5.757812 17.519531 5.667969 C 17.492188 5.582031 17.425781 5.398438 17.371094 5.269531 C 17.320312 5.140625 17.269531 5 17.257812 4.953125 C 17.25 4.910156 17.230469 4.871094 17.214844 4.871094 C 17.199219 4.871094 17.1875 4.847656 17.1875 4.820312 C 17.1875 4.789062 17.132812 4.636719 17.070312 4.480469 C 17.007812 4.320312 16.929688 4.128906 16.90625 4.050781 C 16.882812 3.972656 16.847656 3.878906 16.824219 3.84375 C 16.804688 3.804688 16.757812 3.679688 16.710938 3.5625 C 16.671875 3.445312 16.601562 3.261719 16.554688 3.148438 C 16.507812 3.035156 16.453125 2.898438 16.433594 2.84375 C 16.417969 2.789062 16.378906 2.675781 16.34375 2.601562 C 16.308594 2.519531 16.269531 2.417969 16.25 2.367188 C 16.148438 2.074219 16.039062 1.808594 16.007812 1.792969 C 15.992188 1.785156 15.960938 1.847656 15.933594 1.929688 Z M 15.933594 1.929688 "/>
<path style=" stroke:none;fill-rule:nonzero;fill:rgb(100%,100%,100%);fill-opacity:1;" d="M 16.613281 14.300781 C 16.546875 14.433594 16.550781 14.546875 16.617188 14.714844 C 16.675781 14.863281 16.765625 14.894531 16.851562 14.792969 C 16.886719 14.75 16.898438 14.679688 16.882812 14.464844 C 16.867188 14.195312 16.867188 14.195312 16.761719 14.195312 C 16.691406 14.195312 16.644531 14.230469 16.613281 14.300781 Z M 16.613281 14.300781 "/>
<path style=" stroke:none;fill-rule:nonzero;fill:rgb(100%,100%,100%);fill-opacity:1;" d="M 4.183594 14.917969 C 4.171875 14.9375 4.023438 14.96875 3.855469 14.992188 C 3.5 15.042969 3.351562 15.078125 3.265625 15.128906 C 3.101562 15.226562 2.976562 15.289062 2.898438 15.304688 C 2.851562 15.320312 2.8125 15.347656 2.8125 15.367188 C 2.8125 15.390625 2.78125 15.421875 2.742188 15.4375 C 2.675781 15.464844 2.425781 15.644531 2.296875 15.757812 C 2.09375 15.933594 1.976562 16.050781 1.90625 16.140625 C 1.863281 16.203125 1.8125 16.253906 1.789062 16.261719 C 1.726562 16.296875 1.4375 16.726562 1.4375 16.792969 C 1.4375 16.894531 1.542969 17.007812 1.617188 16.972656 C 1.65625 16.960938 1.6875 16.933594 1.6875 16.914062 C 1.6875 16.847656 1.777344 16.730469 2.0625 16.425781 C 2.257812 16.214844 2.695312 15.859375 2.921875 15.722656 C 3.042969 15.652344 3.167969 15.574219 3.203125 15.554688 C 3.421875 15.417969 3.820312 15.351562 4.46875 15.351562 C 5.21875 15.347656 5.410156 15.386719 6.09375 15.648438 C 6.152344 15.671875 6.257812 15.710938 6.328125 15.734375 C 6.398438 15.757812 6.488281 15.796875 6.53125 15.828125 C 6.574219 15.851562 6.695312 15.910156 6.796875 15.953125 C 6.898438 16 6.996094 16.050781 7.015625 16.074219 C 7.03125 16.097656 7.074219 16.117188 7.113281 16.117188 C 7.152344 16.117188 7.195312 16.136719 7.203125 16.164062 C 7.210938 16.1875 7.253906 16.210938 7.292969 16.210938 C 7.332031 16.210938 7.390625 16.242188 7.425781 16.28125 C 7.457031 16.320312 7.507812 16.351562 7.539062 16.351562 C 7.570312 16.351562 7.617188 16.371094 7.648438 16.394531 C 7.75 16.472656 8.109375 16.679688 8.144531 16.679688 C 8.175781 16.679688 8.328125 16.773438 8.445312 16.871094 C 8.476562 16.894531 8.523438 16.914062 8.546875 16.914062 C 8.570312 16.914062 8.617188 16.933594 8.648438 16.957031 C 8.796875 17.0625 8.933594 17.148438 9.046875 17.199219 C 9.117188 17.226562 9.210938 17.285156 9.257812 17.316406 C 9.300781 17.355469 9.359375 17.382812 9.386719 17.382812 C 9.414062 17.382812 9.460938 17.402344 9.492188 17.425781 C 9.574219 17.484375 9.742188 17.570312 9.953125 17.660156 C 10.054688 17.699219 10.15625 17.746094 10.171875 17.761719 C 10.191406 17.78125 10.253906 17.808594 10.3125 17.828125 C 10.371094 17.847656 10.4375 17.878906 10.453125 17.898438 C 10.472656 17.917969 10.539062 17.945312 10.609375 17.957031 C 10.980469 18.039062 11.085938 18.070312 11.140625 18.117188 C 11.371094 18.300781 12.933594 18.285156 13.296875 18.09375 C 13.5625 17.953125 13.652344 17.929688 13.703125 17.992188 C 13.726562 18.023438 13.75 18.09375 13.753906 18.152344 C 13.753906 18.203125 13.78125 18.308594 13.816406 18.390625 C 13.847656 18.464844 13.882812 18.5625 13.894531 18.601562 C 13.976562 18.90625 14.027344 19.023438 14.164062 19.21875 C 14.246094 19.339844 14.339844 19.445312 14.367188 19.445312 C 14.441406 19.445312 14.660156 19.21875 14.789062 19.015625 C 14.957031 18.75 15.023438 18.617188 15.164062 18.285156 C 15.234375 18.113281 15.304688 17.957031 15.3125 17.945312 C 15.320312 17.929688 15.371094 17.800781 15.421875 17.652344 C 15.507812 17.402344 15.59375 17.3125 15.636719 17.425781 C 15.648438 17.449219 15.710938 17.476562 15.773438 17.488281 C 15.835938 17.503906 15.945312 17.535156 16.015625 17.566406 C 16.085938 17.59375 16.207031 17.617188 16.289062 17.617188 L 16.4375 17.617188 L 16.4375 17.941406 C 16.4375 18.121094 16.453125 18.28125 16.46875 18.296875 C 16.488281 18.308594 16.5 18.386719 16.5 18.453125 C 16.5 18.554688 16.539062 18.640625 16.640625 18.78125 C 16.769531 18.957031 16.792969 18.976562 16.945312 18.976562 C 17.21875 18.976562 17.4375 18.777344 17.792969 18.222656 C 17.960938 17.964844 18.09375 17.734375 18.09375 17.707031 C 18.09375 17.683594 18.128906 17.601562 18.171875 17.53125 C 18.214844 17.460938 18.25 17.386719 18.25 17.367188 C 18.25 17.34375 18.285156 17.261719 18.328125 17.175781 C 18.371094 17.089844 18.40625 17.003906 18.40625 16.980469 C 18.40625 16.863281 18.902344 16.332031 19.234375 16.097656 C 19.335938 16.023438 19.445312 15.945312 19.476562 15.925781 C 19.507812 15.902344 19.5625 15.882812 19.601562 15.882812 C 19.644531 15.882812 19.691406 15.859375 19.710938 15.832031 C 19.726562 15.808594 19.808594 15.769531 19.894531 15.761719 C 19.976562 15.746094 20.070312 15.714844 20.101562 15.691406 C 20.167969 15.632812 21.019531 15.632812 21.148438 15.691406 C 21.203125 15.714844 21.316406 15.742188 21.398438 15.746094 C 21.480469 15.75 21.582031 15.78125 21.625 15.804688 C 21.667969 15.828125 21.757812 15.863281 21.828125 15.886719 C 21.898438 15.90625 22.050781 15.953125 22.171875 15.996094 C 22.289062 16.039062 22.421875 16.070312 22.457031 16.070312 C 22.492188 16.070312 22.539062 16.097656 22.558594 16.136719 C 22.578125 16.171875 22.632812 16.210938 22.679688 16.226562 C 22.726562 16.238281 22.84375 16.289062 22.9375 16.34375 C 23.03125 16.394531 23.195312 16.472656 23.296875 16.515625 C 23.398438 16.5625 23.5 16.613281 23.515625 16.632812 C 23.535156 16.652344 23.582031 16.679688 23.625 16.6875 C 23.691406 16.710938 23.882812 16.804688 24.171875 16.960938 C 24.464844 17.113281 24.53125 17.148438 24.796875 17.246094 C 24.863281 17.273438 24.933594 17.3125 24.953125 17.332031 C 24.984375 17.367188 25.078125 17.402344 25.3125 17.460938 C 25.371094 17.476562 25.4375 17.507812 25.460938 17.53125 C 25.476562 17.554688 25.554688 17.582031 25.632812 17.597656 C 25.703125 17.613281 25.777344 17.640625 25.792969 17.667969 C 25.8125 17.691406 25.882812 17.710938 25.960938 17.710938 C 26.03125 17.710938 26.164062 17.738281 26.257812 17.777344 C 26.492188 17.863281 27.582031 17.863281 27.78125 17.777344 C 27.859375 17.738281 27.960938 17.710938 28.007812 17.710938 C 28.054688 17.710938 28.121094 17.691406 28.164062 17.667969 C 28.203125 17.644531 28.296875 17.589844 28.375 17.546875 C 28.453125 17.5 28.617188 17.390625 28.742188 17.308594 C 28.863281 17.21875 28.972656 17.148438 28.984375 17.148438 C 29.023438 17.148438 29.1875 16.941406 29.1875 16.886719 C 29.1875 16.859375 29.167969 16.804688 29.144531 16.777344 C 29.109375 16.734375 29.023438 16.78125 28.746094 16.996094 C 28.410156 17.261719 28.332031 17.308594 28.109375 17.367188 C 28.058594 17.382812 28 17.410156 27.980469 17.433594 C 27.960938 17.457031 27.871094 17.484375 27.78125 17.5 C 27.691406 17.511719 27.558594 17.546875 27.488281 17.570312 C 27.320312 17.625 26.734375 17.628906 26.59375 17.574219 C 26.535156 17.546875 26.382812 17.519531 26.257812 17.503906 C 26.132812 17.488281 26 17.453125 25.96875 17.429688 C 25.9375 17.402344 25.863281 17.382812 25.800781 17.382812 C 25.742188 17.382812 25.679688 17.359375 25.671875 17.335938 C 25.664062 17.308594 25.601562 17.289062 25.539062 17.289062 C 25.476562 17.285156 25.386719 17.253906 25.34375 17.21875 C 25.300781 17.179688 25.226562 17.152344 25.179688 17.148438 C 25.132812 17.148438 25.085938 17.125 25.078125 17.101562 C 25.070312 17.074219 25.023438 17.054688 24.980469 17.054688 C 24.9375 17.054688 24.867188 17.027344 24.820312 16.992188 C 24.773438 16.957031 24.664062 16.898438 24.578125 16.871094 C 24.492188 16.839844 24.382812 16.78125 24.328125 16.75 C 24.277344 16.71875 24.171875 16.660156 24.09375 16.632812 C 24.015625 16.601562 23.914062 16.546875 23.867188 16.511719 C 23.824219 16.472656 23.757812 16.445312 23.726562 16.445312 C 23.6875 16.445312 23.648438 16.421875 23.640625 16.398438 C 23.632812 16.371094 23.582031 16.351562 23.53125 16.351562 C 23.480469 16.351562 23.429688 16.328125 23.421875 16.304688 C 23.414062 16.277344 23.375 16.257812 23.335938 16.257812 C 23.304688 16.257812 23.238281 16.230469 23.195312 16.191406 C 23.101562 16.121094 22.945312 16.046875 22.789062 16 C 22.734375 15.980469 22.6875 15.949219 22.6875 15.921875 C 22.6875 15.890625 22.664062 15.886719 22.636719 15.902344 C 22.609375 15.914062 22.542969 15.902344 22.492188 15.863281 C 22.433594 15.828125 22.351562 15.785156 22.296875 15.773438 C 22.246094 15.761719 22.125 15.714844 22.03125 15.671875 C 21.9375 15.625 21.796875 15.578125 21.71875 15.558594 C 21.640625 15.539062 21.558594 15.511719 21.539062 15.492188 C 21.519531 15.46875 21.421875 15.445312 21.328125 15.4375 C 21.234375 15.421875 21.128906 15.394531 21.097656 15.367188 C 21.019531 15.304688 19.992188 15.304688 19.863281 15.363281 C 19.808594 15.386719 19.675781 15.445312 19.5625 15.488281 C 19.449219 15.535156 19.296875 15.621094 19.222656 15.679688 C 19.148438 15.742188 19.066406 15.789062 19.042969 15.789062 C 19.019531 15.789062 19 15.808594 19 15.832031 C 19 15.855469 18.976562 15.882812 18.945312 15.902344 C 18.867188 15.9375 18.671875 16.121094 18.582031 16.242188 C 18.535156 16.304688 18.488281 16.351562 18.476562 16.351562 C 18.441406 16.351562 18.1875 16.730469 18.1875 16.78125 C 18.1875 16.804688 18.164062 16.882812 18.128906 16.949219 C 18.097656 17.019531 18.019531 17.199219 17.953125 17.34375 C 17.8125 17.667969 17.460938 18.210938 17.273438 18.398438 C 17.199219 18.476562 17.085938 18.554688 17.019531 18.566406 C 16.914062 18.589844 16.886719 18.578125 16.808594 18.460938 L 16.71875 18.328125 L 16.71875 17.214844 C 16.71875 16.566406 16.734375 15.980469 16.757812 15.808594 C 16.789062 15.539062 16.789062 15.5 16.734375 15.414062 C 16.664062 15.296875 16.640625 15.296875 16.558594 15.417969 C 16.511719 15.488281 16.5 15.554688 16.507812 15.640625 C 16.519531 15.710938 16.507812 15.925781 16.480469 16.117188 C 16.457031 16.308594 16.4375 16.609375 16.4375 16.78125 C 16.4375 16.964844 16.421875 17.109375 16.402344 17.128906 C 16.351562 17.171875 15.964844 17.152344 15.925781 17.105469 C 15.90625 17.082031 15.835938 17.054688 15.773438 17.035156 C 15.691406 17.011719 15.65625 16.980469 15.65625 16.917969 C 15.65625 16.871094 15.664062 16.820312 15.675781 16.804688 C 15.726562 16.730469 15.808594 16.257812 15.8125 16.046875 C 15.8125 15.789062 15.710938 15.507812 15.550781 15.316406 C 15.445312 15.1875 15.257812 15.175781 15.148438 15.28125 C 15.039062 15.390625 14.90625 15.828125 14.90625 16.078125 C 14.90625 16.296875 14.964844 16.601562 15.023438 16.6875 C 15.046875 16.722656 15.0625 16.769531 15.0625 16.792969 C 15.0625 16.820312 15.113281 16.917969 15.175781 17.011719 L 15.289062 17.183594 L 15.121094 17.574219 C 15.035156 17.789062 14.945312 17.972656 14.933594 17.980469 C 14.917969 17.992188 14.90625 18.019531 14.90625 18.046875 C 14.90625 18.15625 14.414062 18.984375 14.367188 18.945312 C 14.320312 18.90625 14.1875 18.558594 14.1875 18.484375 C 14.1875 18.445312 14.175781 18.414062 14.15625 18.414062 C 14.140625 18.414062 14.125 18.386719 14.125 18.347656 C 14.125 18.308594 14.101562 18.210938 14.070312 18.121094 C 13.976562 17.835938 13.96875 17.804688 13.96875 17.71875 C 13.96875 17.671875 13.957031 17.617188 13.941406 17.59375 C 13.910156 17.546875 13.855469 17.265625 13.820312 16.984375 C 13.8125 16.902344 13.792969 16.820312 13.777344 16.792969 C 13.75 16.742188 13.695312 16.261719 13.664062 15.8125 C 13.648438 15.539062 13.613281 15.460938 13.515625 15.460938 C 13.421875 15.460938 13.363281 15.644531 13.386719 15.867188 C 13.398438 15.96875 13.414062 16.171875 13.421875 16.328125 C 13.4375 16.578125 13.46875 16.78125 13.566406 17.269531 C 13.617188 17.523438 13.601562 17.617188 13.515625 17.617188 C 13.472656 17.617188 13.414062 17.636719 13.382812 17.660156 C 13.351562 17.683594 13.222656 17.734375 13.09375 17.78125 C 12.765625 17.898438 11.613281 17.898438 11.316406 17.785156 C 11.207031 17.738281 11.109375 17.714844 11.101562 17.730469 C 11.09375 17.742188 11.039062 17.722656 10.976562 17.6875 C 10.914062 17.648438 10.828125 17.617188 10.777344 17.617188 C 10.730469 17.617188 10.660156 17.597656 10.617188 17.574219 C 10.578125 17.554688 10.46875 17.5 10.375 17.460938 C 10.011719 17.300781 9.667969 17.136719 9.617188 17.097656 C 9.585938 17.074219 9.542969 17.054688 9.519531 17.054688 C 9.496094 17.054688 9.433594 17.019531 9.386719 16.984375 C 9.335938 16.945312 9.273438 16.914062 9.246094 16.914062 C 9.21875 16.914062 9.1875 16.898438 9.175781 16.882812 C 9.148438 16.839844 8.933594 16.726562 8.878906 16.726562 C 8.851562 16.726562 8.808594 16.699219 8.785156 16.664062 C 8.757812 16.628906 8.652344 16.5625 8.554688 16.519531 C 8.457031 16.472656 8.367188 16.417969 8.355469 16.394531 C 8.347656 16.371094 8.304688 16.351562 8.265625 16.351562 C 8.226562 16.351562 8.183594 16.332031 8.171875 16.308594 C 8.164062 16.285156 8.109375 16.25 8.054688 16.230469 C 7.960938 16.203125 7.929688 16.183594 7.78125 16.070312 C 7.746094 16.042969 7.691406 16.023438 7.660156 16.023438 C 7.625 16.023438 7.589844 16.003906 7.582031 15.980469 C 7.570312 15.957031 7.480469 15.902344 7.382812 15.859375 C 7.285156 15.816406 7.164062 15.75 7.117188 15.714844 C 7.066406 15.675781 7 15.648438 6.96875 15.648438 C 6.9375 15.648438 6.898438 15.625 6.890625 15.601562 C 6.882812 15.574219 6.835938 15.554688 6.800781 15.554688 C 6.757812 15.554688 6.683594 15.523438 6.636719 15.484375 C 6.585938 15.445312 6.515625 15.414062 6.476562 15.414062 C 6.441406 15.414062 6.402344 15.394531 6.394531 15.371094 C 6.382812 15.347656 6.320312 15.320312 6.257812 15.304688 C 6.195312 15.292969 6.054688 15.25 5.953125 15.203125 C 5.851562 15.160156 5.679688 15.105469 5.578125 15.082031 C 5.152344 14.980469 4.214844 14.871094 4.183594 14.917969 Z M 15.445312 15.726562 C 15.511719 15.816406 15.523438 16.207031 15.460938 16.492188 C 15.417969 16.703125 15.398438 16.71875 15.320312 16.59375 C 15.183594 16.398438 15.148438 16.039062 15.242188 15.792969 C 15.304688 15.628906 15.359375 15.609375 15.445312 15.726562 Z M 15.445312 15.726562 "/>
<path style=" stroke:none;fill-rule:nonzero;fill:rgb(100%,100%,100%);fill-opacity:1;" d="M 8.390625 21.539062 C 8.347656 21.609375 8.3125 21.695312 8.3125 21.730469 C 8.3125 21.761719 8.265625 21.902344 8.210938 22.039062 C 8.15625 22.171875 8.09375 22.324219 8.070312 22.375 C 8.050781 22.421875 7.996094 22.570312 7.949219 22.699219 C 7.90625 22.828125 7.851562 22.96875 7.832031 23.003906 C 7.808594 23.042969 7.769531 23.148438 7.738281 23.238281 C 7.710938 23.328125 7.648438 23.488281 7.605469 23.589844 C 7.566406 23.691406 7.5 23.871094 7.460938 23.988281 C 7.425781 24.105469 7.363281 24.265625 7.320312 24.34375 C 7.28125 24.425781 7.25 24.511719 7.25 24.535156 C 7.25 24.566406 7.226562 24.597656 7.203125 24.617188 C 7.179688 24.628906 7.15625 24.671875 7.15625 24.714844 C 7.15625 24.757812 7.105469 24.90625 7.046875 25.046875 C 6.988281 25.1875 6.9375 25.3125 6.9375 25.324219 C 6.9375 25.335938 6.902344 25.429688 6.859375 25.535156 C 6.800781 25.675781 6.789062 25.730469 6.820312 25.746094 C 6.839844 25.757812 8.265625 25.765625 9.984375 25.757812 L 13.109375 25.746094 L 13.117188 25.519531 L 13.128906 25.300781 L 12.429688 25.300781 C 12.046875 25.296875 10.757812 25.300781 9.570312 25.300781 L 7.40625 25.304688 L 7.40625 25.203125 C 7.40625 25.148438 7.429688 25.046875 7.460938 24.980469 C 7.554688 24.761719 7.59375 24.667969 7.617188 24.597656 C 7.625 24.558594 7.679688 24.417969 7.734375 24.292969 C 7.789062 24.160156 7.855469 23.984375 7.882812 23.894531 C 7.914062 23.804688 7.980469 23.621094 8.035156 23.496094 C 8.085938 23.363281 8.136719 23.226562 8.148438 23.179688 C 8.15625 23.136719 8.175781 23.097656 8.191406 23.097656 C 8.207031 23.097656 8.21875 23.074219 8.21875 23.050781 C 8.21875 23.023438 8.269531 22.882812 8.328125 22.742188 C 8.386719 22.601562 8.4375 22.476562 8.4375 22.460938 C 8.4375 22.414062 8.792969 21.527344 8.820312 21.515625 C 8.832031 21.503906 8.84375 21.476562 8.84375 21.453125 C 8.84375 21.429688 8.757812 21.410156 8.65625 21.410156 C 8.492188 21.410156 8.460938 21.425781 8.390625 21.539062 Z M 8.390625 21.539062 "/>
<path style=" stroke:none;fill-rule:nonzero;fill:rgb(100%,100%,100%);fill-opacity:1;" d="M 23.21875 21.46875 C 23.21875 21.5 23.261719 21.621094 23.3125 21.738281 C 23.363281 21.855469 23.40625 21.96875 23.40625 21.988281 C 23.40625 22.011719 23.429688 22.085938 23.464844 22.152344 C 23.519531 22.273438 23.613281 22.515625 23.738281 22.863281 C 23.773438 22.953125 23.804688 23.039062 23.816406 23.050781 C 23.824219 23.066406 23.894531 23.242188 23.96875 23.449219 C 24.042969 23.65625 24.148438 23.925781 24.203125 24.058594 C 24.257812 24.183594 24.324219 24.367188 24.351562 24.457031 C 24.417969 24.648438 24.472656 24.785156 24.519531 24.859375 C 24.539062 24.890625 24.570312 24.984375 24.59375 25.066406 C 24.648438 25.261719 24.613281 25.296875 24.332031 25.289062 C 24.210938 25.289062 22.832031 25.296875 21.273438 25.296875 L 18.433594 25.300781 L 18.445312 25.519531 L 18.453125 25.746094 L 21.808594 25.757812 C 23.65625 25.765625 25.179688 25.75 25.195312 25.730469 C 25.214844 25.699219 25.132812 25.4375 24.992188 25.089844 C 24.855469 24.761719 24.753906 24.496094 24.675781 24.269531 C 24.625 24.128906 24.554688 23.945312 24.519531 23.871094 C 24.480469 23.792969 24.429688 23.664062 24.40625 23.589844 C 24.382812 23.511719 24.320312 23.339844 24.265625 23.214844 C 24.210938 23.085938 24.160156 22.945312 24.148438 22.902344 C 24.136719 22.855469 24.082031 22.703125 24.023438 22.574219 C 23.964844 22.4375 23.894531 22.25 23.867188 22.160156 C 23.804688 21.984375 23.742188 21.824219 23.71875 21.785156 C 23.710938 21.773438 23.675781 21.683594 23.640625 21.585938 C 23.582031 21.417969 23.574219 21.410156 23.398438 21.410156 C 23.273438 21.410156 23.21875 21.429688 23.21875 21.46875 Z M 23.21875 21.46875 "/>
<path style=" stroke:none;fill-rule:nonzero;fill:rgb(100%,100%,100%);fill-opacity:1;" d="M 1.28125 28.433594 C 1.28125 28.457031 1.3125 28.484375 1.351562 28.496094 C 1.421875 28.507812 1.421875 28.519531 1.421875 29.203125 L 1.421875 29.890625 L 1.585938 29.890625 C 1.757812 29.890625 1.78125 29.867188 1.695312 29.773438 C 1.648438 29.722656 1.664062 29.679688 1.835938 29.371094 C 1.945312 29.183594 2.03125 29 2.03125 28.964844 C 2.03125 28.929688 2.054688 28.90625 2.085938 28.917969 C 2.132812 28.929688 2.140625 28.988281 2.136719 29.328125 C 2.136719 29.550781 2.132812 29.761719 2.121094 29.796875 C 2.113281 29.855469 2.144531 29.871094 2.265625 29.882812 L 2.421875 29.894531 L 2.421875 29.203125 C 2.421875 28.519531 2.421875 28.507812 2.492188 28.496094 C 2.53125 28.484375 2.5625 28.457031 2.5625 28.433594 C 2.5625 28.378906 2.039062 28.378906 2.015625 28.4375 C 2.007812 28.460938 2.023438 28.484375 2.054688 28.484375 C 2.148438 28.484375 2.164062 28.601562 2.085938 28.753906 C 1.886719 29.148438 1.707031 29.46875 1.679688 29.46875 C 1.667969 29.46875 1.65625 29.269531 1.65625 29.023438 C 1.65625 28.59375 1.660156 28.574219 1.734375 28.523438 C 1.773438 28.496094 1.804688 28.453125 1.792969 28.433594 C 1.773438 28.378906 1.28125 28.382812 1.28125 28.433594 Z M 1.28125 28.433594 "/>
<path style=" stroke:none;fill-rule:nonzero;fill:rgb(100%,100%,100%);fill-opacity:1;" d="M 4.65625 28.445312 C 4.65625 28.472656 4.683594 28.503906 4.71875 28.519531 C 4.777344 28.542969 4.78125 28.585938 4.78125 29.148438 C 4.78125 29.492188 4.769531 29.753906 4.75 29.773438 C 4.671875 29.84375 4.734375 29.890625 4.90625 29.890625 C 5.085938 29.890625 5.148438 29.839844 5.042969 29.777344 C 5.007812 29.761719 5 29.691406 5.007812 29.484375 L 5.015625 29.210938 L 5.484375 29.210938 L 5.492188 29.445312 C 5.492188 29.589844 5.476562 29.707031 5.449219 29.753906 C 5.386719 29.859375 5.425781 29.890625 5.617188 29.890625 C 5.78125 29.890625 5.816406 29.855469 5.742188 29.753906 C 5.710938 29.71875 5.699219 29.5625 5.707031 29.132812 C 5.710938 28.601562 5.71875 28.550781 5.777344 28.507812 C 5.898438 28.425781 5.847656 28.390625 5.59375 28.390625 C 5.355469 28.390625 5.273438 28.445312 5.402344 28.507812 C 5.449219 28.527344 5.464844 28.59375 5.476562 28.78125 C 5.484375 28.917969 5.484375 29.039062 5.476562 29.058594 C 5.460938 29.113281 5.070312 29.101562 5.042969 29.042969 C 5.015625 28.972656 5.003906 28.597656 5.03125 28.53125 C 5.042969 28.503906 5.070312 28.484375 5.09375 28.496094 C 5.117188 28.503906 5.140625 28.480469 5.148438 28.449219 C 5.160156 28.40625 5.097656 28.390625 4.910156 28.390625 C 4.746094 28.390625 4.65625 28.410156 4.65625 28.445312 Z M 4.65625 28.445312 "/>
<path style=" stroke:none;fill-rule:nonzero;fill:rgb(100%,100%,100%);fill-opacity:1;" d="M 7.929688 28.53125 C 7.910156 28.75 7.953125 28.800781 8.019531 28.632812 C 8.078125 28.476562 8.121094 28.457031 8.222656 28.53125 C 8.273438 28.578125 8.28125 28.636719 8.28125 29.164062 C 8.28125 29.570312 8.269531 29.75 8.242188 29.761719 C 8.152344 29.808594 8.269531 29.890625 8.425781 29.890625 C 8.582031 29.890625 8.636719 29.84375 8.5625 29.773438 C 8.542969 29.753906 8.53125 29.492188 8.53125 29.140625 C 8.53125 28.59375 8.539062 28.539062 8.589844 28.507812 C 8.675781 28.472656 8.746094 28.527344 8.800781 28.679688 C 8.867188 28.875 8.914062 28.847656 8.898438 28.613281 L 8.890625 28.414062 L 8.417969 28.402344 L 7.945312 28.386719 Z M 7.929688 28.53125 "/>
<path style=" stroke:none;fill-rule:nonzero;fill:rgb(100%,100%,100%);fill-opacity:1;" d="M 10.9375 28.433594 C 10.9375 28.457031 10.964844 28.496094 11 28.507812 C 11.054688 28.539062 11.0625 28.585938 11.070312 29.085938 C 11.070312 29.75 11.074219 29.707031 11.046875 29.808594 C 11.027344 29.882812 11.042969 29.890625 11.195312 29.890625 C 11.382812 29.890625 11.433594 29.84375 11.359375 29.75 C 11.292969 29.667969 11.296875 29.253906 11.363281 29.21875 C 11.476562 29.152344 11.5625 29.1875 11.59375 29.3125 C 11.613281 29.375 11.636719 29.417969 11.652344 29.40625 C 11.683594 29.375 11.695312 28.859375 11.667969 28.859375 C 11.65625 28.859375 11.621094 28.914062 11.585938 28.984375 C 11.539062 29.070312 11.5 29.09375 11.425781 29.085938 C 11.332031 29.070312 11.328125 29.0625 11.320312 28.820312 C 11.304688 28.523438 11.332031 28.484375 11.523438 28.484375 C 11.632812 28.484375 11.664062 28.507812 11.726562 28.625 C 11.800781 28.78125 11.839844 28.742188 11.820312 28.53125 L 11.804688 28.390625 L 11.371094 28.390625 C 11.125 28.390625 10.9375 28.410156 10.9375 28.433594 Z M 10.9375 28.433594 "/>
<path style=" stroke:none;fill-rule:nonzero;fill:rgb(100%,100%,100%);fill-opacity:1;" d="M 13.988281 28.433594 C 13.976562 28.457031 14.003906 28.492188 14.046875 28.503906 L 14.125 28.53125 L 14.125 29.140625 C 14.125 29.492188 14.113281 29.753906 14.09375 29.773438 C 14.015625 29.84375 14.078125 29.890625 14.25 29.890625 C 14.429688 29.890625 14.496094 29.832031 14.390625 29.769531 C 14.351562 29.746094 14.34375 29.628906 14.34375 29.140625 L 14.34375 28.542969 L 14.4375 28.515625 C 14.597656 28.46875 14.710938 28.527344 14.785156 28.703125 C 14.820312 28.789062 14.855469 28.859375 14.863281 28.859375 C 14.867188 28.859375 14.875 28.753906 14.875 28.625 L 14.875 28.390625 L 14.441406 28.390625 C 14.199219 28.390625 13.996094 28.410156 13.988281 28.433594 Z M 13.988281 28.433594 "/>
<path style=" stroke:none;fill-rule:nonzero;fill:rgb(100%,100%,100%);fill-opacity:1;" d="M 16.929688 28.425781 C 16.914062 28.4375 16.9375 28.476562 16.976562 28.503906 C 17.042969 28.554688 17.046875 28.589844 17.054688 29.136719 C 17.058594 29.484375 17.054688 29.738281 17.03125 29.773438 C 16.984375 29.859375 17.023438 29.890625 17.1875 29.890625 C 17.351562 29.890625 17.390625 29.859375 17.339844 29.769531 C 17.324219 29.738281 17.3125 29.621094 17.320312 29.507812 C 17.328125 29.320312 17.335938 29.304688 17.4375 29.273438 C 17.679688 29.199219 17.726562 29.171875 17.796875 29.023438 C 17.898438 28.824219 17.894531 28.695312 17.773438 28.527344 C 17.675781 28.390625 17.667969 28.390625 17.308594 28.390625 C 17.113281 28.390625 16.9375 28.40625 16.929688 28.425781 Z M 17.558594 28.566406 C 17.570312 28.574219 17.574219 28.679688 17.574219 28.796875 C 17.578125 28.976562 17.566406 29.03125 17.492188 29.109375 C 17.359375 29.257812 17.3125 29.195312 17.3125 28.84375 C 17.3125 28.644531 17.324219 28.53125 17.351562 28.519531 C 17.390625 28.496094 17.535156 28.527344 17.558594 28.566406 Z M 17.558594 28.566406 "/>
<path style=" stroke:none;fill-rule:nonzero;fill:rgb(100%,100%,100%);fill-opacity:1;" d="M 20.34375 28.476562 C 20.34375 28.523438 20.320312 28.601562 20.296875 28.65625 C 20.273438 28.703125 20.25 28.789062 20.25 28.84375 C 20.25 28.898438 20.230469 28.953125 20.210938 28.96875 C 20.191406 28.976562 20.152344 29.089844 20.132812 29.21875 C 20.074219 29.511719 20.03125 29.65625 19.957031 29.785156 L 19.898438 29.890625 L 20.007812 29.890625 C 20.121094 29.890625 20.183594 29.832031 20.125 29.773438 C 20.074219 29.726562 20.085938 29.585938 20.148438 29.503906 C 20.1875 29.453125 20.261719 29.421875 20.367188 29.421875 C 20.515625 29.421875 20.53125 29.433594 20.574219 29.574219 C 20.601562 29.652344 20.617188 29.761719 20.605469 29.808594 C 20.589844 29.882812 20.609375 29.890625 20.761719 29.890625 C 20.921875 29.890625 20.980469 29.84375 20.910156 29.773438 C 20.875 29.746094 20.78125 29.480469 20.78125 29.414062 C 20.78125 29.394531 20.746094 29.269531 20.703125 29.132812 C 20.660156 29 20.625 28.851562 20.625 28.808594 C 20.625 28.761719 20.613281 28.714844 20.597656 28.695312 C 20.582031 28.683594 20.558594 28.609375 20.546875 28.53125 C 20.53125 28.414062 20.511719 28.390625 20.433594 28.390625 C 20.367188 28.390625 20.34375 28.414062 20.34375 28.476562 Z M 20.40625 28.929688 C 20.40625 28.992188 20.421875 29.058594 20.4375 29.070312 C 20.476562 29.109375 20.476562 29.269531 20.433594 29.304688 C 20.417969 29.324219 20.367188 29.324219 20.324219 29.3125 C 20.261719 29.289062 20.25 29.25 20.25 29.117188 C 20.25 29.03125 20.261719 28.953125 20.277344 28.953125 C 20.292969 28.953125 20.320312 28.914062 20.328125 28.859375 C 20.351562 28.738281 20.40625 28.785156 20.40625 28.929688 Z M 20.40625 28.929688 "/>
<path style=" stroke:none;fill-rule:nonzero;fill:rgb(100%,100%,100%);fill-opacity:1;" d="M 23 28.4375 C 23 28.460938 23.015625 28.492188 23.03125 28.492188 C 23.050781 28.496094 23.082031 28.5 23.101562 28.503906 C 23.132812 28.507812 23.140625 28.683594 23.140625 29.203125 L 23.140625 29.890625 L 23.304688 29.890625 C 23.457031 29.890625 23.511719 29.84375 23.4375 29.773438 C 23.417969 29.753906 23.40625 29.503906 23.40625 29.164062 C 23.40625 28.632812 23.414062 28.578125 23.46875 28.53125 C 23.589844 28.433594 23.527344 28.390625 23.265625 28.390625 C 23.109375 28.390625 23 28.410156 23 28.4375 Z M 23 28.4375 "/>
<path style=" stroke:none;fill-rule:nonzero;fill:rgb(100%,100%,100%);fill-opacity:1;" d="M 23.703125 28.433594 C 23.695312 28.457031 23.71875 28.484375 23.757812 28.496094 C 23.816406 28.503906 23.832031 28.546875 23.851562 28.71875 C 23.867188 28.921875 23.855469 29.570312 23.824219 29.785156 C 23.8125 29.871094 23.824219 29.890625 23.886719 29.890625 C 23.929688 29.890625 24.011719 29.960938 24.082031 30.054688 C 24.144531 30.144531 24.207031 30.21875 24.222656 30.21875 C 24.234375 30.21875 24.242188 30.152344 24.242188 30.074219 C 24.242188 29.972656 24.210938 29.902344 24.148438 29.832031 C 24.0625 29.730469 24.0625 29.730469 24.0625 29.199219 C 24.0625 28.660156 24.089844 28.484375 24.171875 28.484375 C 24.195312 28.484375 24.21875 28.460938 24.21875 28.4375 C 24.21875 28.378906 23.726562 28.378906 23.703125 28.433594 Z M 23.703125 28.433594 "/>
<path style=" stroke:none;fill-rule:nonzero;fill:rgb(100%,100%,100%);fill-opacity:1;" d="M 26.3125 28.433594 C 26.3125 28.457031 26.339844 28.484375 26.375 28.5 C 26.429688 28.523438 26.4375 28.566406 26.445312 29.082031 C 26.445312 29.386719 26.445312 29.691406 26.441406 29.761719 C 26.433594 29.886719 26.4375 29.890625 26.609375 29.890625 C 26.773438 29.890625 26.78125 29.886719 26.75 29.792969 C 26.710938 29.695312 26.742188 29.585938 26.867188 29.375 C 26.898438 29.324219 26.972656 29.195312 27.03125 29.078125 C 27.195312 28.761719 27.21875 28.789062 27.21875 29.300781 C 27.21875 29.648438 27.210938 29.746094 27.171875 29.769531 C 27.070312 29.824219 27.132812 29.890625 27.292969 29.890625 L 27.464844 29.890625 L 27.445312 29.714844 C 27.421875 29.527344 27.421875 29.457031 27.429688 28.902344 C 27.4375 28.5625 27.441406 28.542969 27.515625 28.515625 C 27.667969 28.457031 27.558594 28.390625 27.308594 28.390625 C 27.152344 28.390625 27.0625 28.410156 27.0625 28.445312 C 27.0625 28.472656 27.089844 28.503906 27.125 28.519531 C 27.160156 28.53125 27.1875 28.5625 27.1875 28.578125 C 27.1875 28.597656 27.160156 28.667969 27.125 28.734375 C 27.089844 28.800781 27.0625 28.875 27.0625 28.902344 C 27.0625 28.929688 27.046875 28.953125 27.03125 28.953125 C 27.011719 28.953125 26.953125 29.046875 26.898438 29.164062 C 26.746094 29.488281 26.714844 29.453125 26.726562 28.96875 C 26.734375 28.597656 26.742188 28.550781 26.804688 28.503906 C 26.84375 28.476562 26.867188 28.4375 26.851562 28.425781 C 26.820312 28.378906 26.3125 28.386719 26.3125 28.433594 Z M 26.3125 28.433594 "/>
<path style=" stroke:none;fill-rule:nonzero;fill:rgb(100%,100%,100%);fill-opacity:1;" d="M 29.859375 28.539062 C 29.796875 28.621094 29.75 28.726562 29.75 28.785156 C 29.75 28.902344 29.835938 29.066406 29.914062 29.109375 C 29.992188 29.152344 29.980469 29.246094 29.890625 29.375 C 29.847656 29.4375 29.8125 29.507812 29.8125 29.535156 C 29.8125 29.5625 29.785156 29.636719 29.75 29.703125 C 29.664062 29.867188 29.671875 29.890625 29.804688 29.890625 C 29.941406 29.890625 30.03125 29.785156 30.03125 29.628906 C 30.03125 29.511719 30.234375 29.175781 30.289062 29.199219 C 30.335938 29.226562 30.359375 29.699219 30.316406 29.765625 C 30.25 29.863281 30.28125 29.890625 30.453125 29.890625 C 30.613281 29.890625 30.667969 29.84375 30.59375 29.773438 C 30.574219 29.753906 30.5625 29.492188 30.5625 29.140625 L 30.5625 28.53125 L 30.640625 28.503906 C 30.820312 28.4375 30.695312 28.390625 30.34375 28.390625 C 29.972656 28.390625 29.972656 28.390625 29.859375 28.539062 Z M 30.335938 28.785156 C 30.347656 29.09375 30.320312 29.164062 30.207031 29.125 C 30.09375 29.082031 30.03125 28.96875 30.03125 28.808594 C 30.03125 28.609375 30.128906 28.480469 30.265625 28.5 C 30.320312 28.507812 30.328125 28.546875 30.335938 28.785156 Z M 30.335938 28.785156 "/>
<path style=" stroke:none;fill-rule:nonzero;fill:rgb(100%,100%,100%);fill-opacity:1;" d="M 11.84375 29.488281 C 11.84375 29.535156 11.804688 29.632812 11.75 29.714844 C 11.699219 29.789062 11.65625 29.863281 11.65625 29.871094 C 11.65625 29.886719 11.710938 29.890625 11.773438 29.882812 C 11.882812 29.867188 11.890625 29.859375 11.898438 29.683594 C 11.90625 29.585938 11.898438 29.484375 11.878906 29.457031 C 11.851562 29.417969 11.84375 29.429688 11.84375 29.488281 Z M 11.84375 29.488281 "/>
</g>
</svg>
